<svg xmlns="http://www.w3.org/2000/svg" width="866" height="580.071" viewBox="0 0 866 580.071"><g fill="none" stroke="#000" stroke-linecap="round" stroke-linejoin="round"><path d="M746 510"/><path stroke-dasharray="0,5.6667" d="M740.333 510H102.83"/><path d="M99.997 510"/><path stroke-dasharray="0,5.6901" d="M99.997 504.31V108.845"/><path d="M99.997 106"/><path stroke-dasharray="0,5.6667" d="M105.663 106h637.504"/><path d="M746 106"/><path stroke-dasharray="0,5.6901" d="M746 111.69v395.465"/></g><g fill="none" stroke="#000" stroke-linecap="round" stroke-linejoin="round"><path d="M746 469.6"/><path stroke-dasharray="0,5.6667" d="M740.333 469.6H102.83"/><path d="M99.997 469.6"/></g><g fill="none" stroke="#000" stroke-linecap="round" stroke-linejoin="round"><path d="M746 348.4"/><path stroke-dasharray="0,5.6667" d="M740.333 348.4H102.83"/><path d="M99.997 348.4"/></g><g fill="none" stroke="#000" stroke-linecap="round" stroke-linejoin="round"><path d="M746 429.2"/><path stroke-dasharray="0,5.6667" d="M740.333 429.2H102.83"/><path d="M99.997 429.2"/></g><g fill="none" stroke="#000" stroke-linecap="round" stroke-linejoin="round"><path d="M746 388.8"/><path stroke-dasharray="0,5.6667" d="M740.333 388.8H102.83"/><path d="M99.997 388.8"/></g><g fill="none" stroke="#000" stroke-linecap="round" stroke-linejoin="round"><path d="M746 308"/><path stroke-dasharray="0,5.6667" d="M740.333 308H102.83"/><path d="M99.997 308"/></g><g fill="none" stroke="#000" stroke-linecap="round" stroke-linejoin="round"><path d="M746 186.8"/><path stroke-dasharray="0,5.6667" d="M740.333 186.8H102.83"/><path d="M99.997 186.8"/></g><g fill="none" stroke="#000" stroke-linecap="round" stroke-linejoin="round"><path d="M746 146.4"/><path stroke-dasharray="0,5.6667" d="M740.333 146.4H102.83"/><path d="M99.997 146.4"/></g><path fill="none" stroke="#000" stroke-miterlimit="10" d="M746 509H99.997"/><g fill="none" stroke="#000" stroke-linecap="round" stroke-linejoin="round"><path d="M746 106"/><path stroke-dasharray="0,5.6667" d="M740.333 106H102.83"/><path d="M99.997 106"/></g><g fill="none" stroke="#000" stroke-linecap="round" stroke-linejoin="round"><path d="M746 267.6"/><path stroke-dasharray="0,5.6667" d="M740.333 267.6H102.83"/><path d="M99.997 267.6"/></g><g fill="none" stroke="#000" stroke-linecap="round" stroke-linejoin="round"><path d="M746 227.2"/><path stroke-dasharray="0,5.6667" d="M740.333 227.2H102.83"/><path d="M99.997 227.2"/></g><text transform="translate(69.78 509)" fill="#004261" font-family="'AvenirNext-Regular'" font-size="14.173">0</text><text transform="translate(61.56 468.6)" fill="#004261" font-family="'AvenirNext-Regular'" font-size="14.173">20</text><text transform="translate(96.465 544.6)" fill="#231F20" font-family="'AvenirNext-Regular'" font-size="17.008">1900</text><text transform="translate(185.967 544.6)" fill="#231F20" font-family="'AvenirNext-Regular'" font-size="17.008">1955</text><text transform="translate(324.967 544.6)" fill="#231F20" font-family="'AvenirNext-Regular'" font-size="17.008">1965</text><text transform="translate(459.967 544.6)" fill="#231F20" font-family="'AvenirNext-Regular'" font-size="17.008">1975</text><text transform="translate(583.967 544.6)" fill="#231F20" font-family="'AvenirNext-Regular'" font-size="17.008">1985</text><text transform="translate(695.967 544.6)" fill="#231F20" font-family="'AvenirNext-Regular'" font-size="17.008">1995</text><text transform="translate(61.56 428.2)" fill="#004261" font-family="'AvenirNext-Regular'" font-size="14.173">40</text><text transform="translate(766 475.04)" fill="#F05A22" font-family="'AvenirNext-Regular'" font-size="14.173">1</text><text transform="translate(766 515)" fill="#F05A22" font-family="'AvenirNext-Regular'" font-size="14.173">0</text><text transform="translate(766 435.08)" fill="#F05A22" font-family="'AvenirNext-Regular'" font-size="14.173">2</text><text transform="translate(766 395.12)" fill="#F05A22" font-family="'AvenirNext-Regular'" font-size="14.173">3</text><text transform="translate(766 355.16)" fill="#F05A22" font-family="'AvenirNext-Regular'" font-size="14.173">4</text><text transform="translate(766 315.2)" fill="#F05A22" font-family="'AvenirNext-Regular'" font-size="14.173">5</text><text transform="translate(766 275.24)" fill="#F05A22" font-family="'AvenirNext-Regular'" font-size="14.173">6</text><text transform="translate(766 235.28)" fill="#F05A22" font-family="'AvenirNext-Regular'" font-size="14.173">7</text><text transform="translate(766 195.32)" fill="#F05A22" font-family="'AvenirNext-Regular'" font-size="14.173">8</text><text transform="translate(766 155.36)" fill="#F05A22" font-family="'AvenirNext-Regular'" font-size="14.173">9</text><text transform="translate(766 115.4)" fill="#F05A22" font-family="'AvenirNext-Regular'" font-size="14.173">10</text><text transform="translate(789 115.4)" fill="#F05A22" font-family="'AvenirNext-Regular'" font-size="14.173">ZUURSTOF</text><text transform="translate(789 132.408)" fill="#F05A22" font-family="'AvenirNext-Regular'" font-size="14.173">MG/L O</text><text transform="matrix(.583 0 0 .583 840.66 127.69)" fill="#F05A22" font-family="'AvenirNext-Regular'" font-size="14.173">2</text><text transform="translate(310.498 49.4)" fill="#004261" font-family="'AvenirNext-Medium'" font-size="14.173">Zuurstof en Biodiversiteit in de Rijn</text><text transform="translate(61.56 387.8)" fill="#004261" font-family="'AvenirNext-Regular'" font-size="14.173">60</text><text transform="translate(61.56 347.4)" fill="#004261" font-family="'AvenirNext-Regular'" font-size="14.173">80</text><text transform="translate(53.34 307)" fill="#004261" font-family="'AvenirNext-Regular'" font-size="14.173">100</text><text transform="translate(53.34 266.6)" fill="#004261" font-family="'AvenirNext-Regular'" font-size="14.173">120</text><text transform="translate(53.34 226.2)" fill="#004261" font-family="'AvenirNext-Regular'" font-size="14.173">140</text><text transform="translate(53.34 185.8)" fill="#004261" font-family="'AvenirNext-Regular'" font-size="14.173">160</text><text transform="translate(53.34 145.4)" fill="#004261" font-family="'AvenirNext-Regular'" font-size="14.173">180</text><text transform="translate(10.125 115.4)" fill="#004261" font-family="'AvenirNext-Regular'" font-size="14.173">SOORTEN</text><text transform="translate(698.22 90.205)" fill="#231F20" font-family="'AvenirNext-Regular'" font-size="11.339">Sponzen</text><text transform="translate(603.695 91.39)" fill="#231F20" font-family="'AvenirNext-Regular'" font-size="11.339">Platwormen</text><text transform="translate(501.853 91.39)" fill="#231F20" font-family="'AvenirNext-Regular'" font-size="11.339">Bloedzuigers</text><text transform="translate(400.915 91.39)" fill="#231F20" font-family="'AvenirNext-Regular'" font-size="11.339">Schaaldieren</text><text transform="translate(310.498 91.39)" fill="#231F20" font-family="'AvenirNext-Regular'" font-size="11.339">Weekdieren</text><text transform="translate(228.137 91.39)" fill="#231F20" font-family="'AvenirNext-Regular'" font-size="11.339">Insecten</text><text transform="translate(120.024 91.39)" fill="#231F20" font-family="'AvenirNext-Regular'" font-size="11.339">Mosseldiertjes</text><g stroke="#000" stroke-width=".709" stroke-miterlimit="10"><path fill="#B3C7D7" d="M746 485l-211 15H216L99.997 485v24H746z"/><path fill="#8DA5BB" d="M746 485v-16.4l-216.5 21.9-317 2.5-112.503-12.2v4.2l112.07 14.49L535 500z"/><path fill="#6D89A2" d="M746 468.6v-28.1l-121 11-92.5 26.5-134.5 6.3L219 473l-119.003-7.5v15.3L212.5 493l317-2.5z"/><path fill="#5D7D97" d="M746 428.2v12.3l-121 11-92.5 26.5-139.167 7-293.336-19.5v-8.9L206 466.75l201.333 1.85 116-1.85L634 431.667z"/><path fill="#3E6782" d="M746 365l-120 22.8-103.333 68.8H402l-186.667-16.1-115.336-26.167V456.6L206 466.75l197.33 1.812 120.004-1.812L634 431.667l112-3.467z"/><path fill="#195371" d="M746 185.8L621.334 305l-92 139.5-113.39 9.833-193.277-32-122.67-254.666v246.666L215.333 440.5 406 456.6h116.667L626 387.8 746 365z"/><path fill="#004261" d="M99.997 145.4L222 407.667 415.945 449l109.39-8.5L618.666 285 746 155.36v30.44L620.015 307l-90.68 137.5-113.39 9.833-193.278-32-121.5-252.24z"/><path fill="#B3C7D7" d="M674 75.78h15.607v15.61H674z"/><path fill="#8DA5BB" d="M575.46 75.782h15.607V91.39H575.46z"/><path fill="#6D89A2" d="M479.695 75.782h15.607V91.39h-15.607z"/><path fill="#5D7D97" d="M378.32 75.782h15.608V91.39H378.32z"/><path fill="#3E6782" d="M282.087 75.782h15.608V91.39h-15.608z"/><path fill="#195371" d="M205.695 75.782h15.607V91.39h-15.607z"/><path fill="#004261" d="M99.997 75.782h15.608V91.39H99.997z"/></g><g><path fill="none" stroke="#F05A22" stroke-width="1.417" stroke-miterlimit="10" d="M746 139.003L729.875 115.4l-5.04 16.86-27.21-.844s-10.077 25.29-21.163 17.703-18.14-11.803-18.14-11.803l-15.118 5.9h-5.04l-33.256 25.29-29.227-19.388-21.163 19.388h-23.18l-28.218 33.438-5.04 8.712-19.148 54.794-17.132 32.033-20.156-12.14-16.127 34.058-40.31 19.388-32.25 21.21-12.093-40.598-6-26.773-11.133 37.73-7-32.033-9.124-26.976-7.055-12.408-20.155-3.607-18.14 3.607-18.132 41.07-31.25-20.23-13.102-6.744-18.14 19.59v-14.532l-14.11-26.808-21.687 14.308-24.67-27.896-21.167-11.26"/></g><g><path fill="none" stroke="#000" stroke-width="2.835" stroke-miterlimit="10" d="M99.997 105H746v404H99.997z"/></g></svg>