<svg xmlns="http://www.w3.org/2000/svg" xmlns:xlink="http://www.w3.org/1999/xlink" viewBox="0 0 619.7 535.8"><symbol id="a" viewBox="-6.3 -9.5 12 24.2"><path fill="#999" d="M3.8 0h1.9l-6 14.7-6-14.7h2l-2-4.8h4.8v-4.7H.9v4.7h4.8z"/></symbol><pattern x="684.2" y="278.7" width="72" height="72" patternUnits="userSpaceOnUse" id="b" viewBox="72.2 -72 72 72" overflow="visible"><g fill="none"><path d="M72.2-72h72V0h-72z"/><g stroke="#231F20" stroke-width=".72"><path d="M144-3.6h72.5M144-18h72.5M144-32.4h72.5M144-46.8h72.5M144-61.2h72.5M144-10.8h72.5M144-25.2h72.5M144-39.6h72.5M144-54h72.5M144-68.4h72.5"/></g><g stroke="#231F20" stroke-width=".72"><path d="M72-3.6h72.5M72-18h72.5M72-32.4h72.5M72-46.8h72.5M72-61.2h72.5M72-10.8h72.5M72-25.2h72.5M72-39.6h72.5M72-54h72.5M72-68.4h72.5"/></g><g stroke="#231F20" stroke-width=".72"><path d="M0-3.6h72.5M0-18h72.5M0-32.4h72.5M0-46.8h72.5M0-61.2h72.5M0-10.8h72.5M0-25.2h72.5M0-39.6h72.5M0-54h72.5M0-68.4h72.5"/></g></g></pattern><path fill="none" stroke="#004261" stroke-width=".709" stroke-linecap="round" stroke-linejoin="round" d="M522.4 207.3"/><path fill="none" stroke="#004261" stroke-width=".709" stroke-linecap="round" stroke-linejoin="round" stroke-dasharray="0,1.4138" d="M522.4 208.7v26.4c0 1.6-1.1 3.5-2.4 4.3l-121.7 72.9c-1.3.8-2.4.2-2.4-1.4v-28.7"/><path fill="none" stroke="#004261" stroke-width=".709" stroke-linecap="round" stroke-linejoin="round" d="M395.8 281.5"/><path fill="#004261" d="M397.3 282.6l-.3.3-1.2-1.3-1.2 1.3-.2-.3 1.4-1.5M172.9 358.2l-1.3 2.3-9.8 5.6-2.1-1.6c1.7-1 8.5-5 9.5-5.6l3.7-.7m.5-.4l-4.4.8-9.9 5.8 2.6 2 10-5.7 1.7-2.9zM87.4 411.7l-1.3 2.3-9.8 5.6-2.1-1.6c1.7-1 8.9-5.2 9.5-5.6l3.7-.7m.6-.4l-4.4.8-9.9 5.8 2.6 2 10-5.7 1.7-2.9zM253.7 312.2l-1.3 2.3-9.8 5.6-2.1-1.6c1.7-1 8.9-5.2 9.5-5.6l3.7-.7m.5-.4l-4.4.8-9.9 5.8 2.6 2 10-5.7 1.7-2.9zM327.8 267.2l-1.3 2.3-9.8 5.6-2.1-1.6c1.7-1 8.8-5.2 9.5-5.6l3.7-.7m.5-.4l-4.4.8-9.9 5.8 2.6 2 10-5.7 1.7-2.9zM468.4 186.2l-1.3 2.3-19.5 11.3-2.1-1.6c9.2-5.4 18.5-10.9 19.2-11.3l3.7-.7m.6-.4l-4.4.8s-9.9 5.8-19.6 11.5l2.6 2 19.7-11.4 1.7-2.9z"/><g class="clickable" data-highlight="#icon-kust,#kust-text,#icon-sediment,#icon-nutrienten"><path fill="#004261" d="M581.7 198.4v-.2h-.2c-.4-.3-.8-.5-1.6-1l-.5-.3c-.9-.5-2.1-1.2-3.3-1.9l-1.6-.9c-1.6-.9-3-1.7-4.2-2.4l-.2-.1c-1.2-.7-2.4-1.3-3.4-1.9-1.2-.7-2.2-1.3-3.1-1.9-1-.7-2.2-1.5-3.2-2.3-.9-.7-1.8-1.5-2.8-2.4-1-.9-2.2-2-3-2.8-.9-.8-1.5-1.4-2-1.9l-3.7-3.6c-.9-.9-2.2-2.1-3.5-3.3-1.3-1.3-2.8-2.6-3.8-3.5-1-.9-1.6-1.5-2.3-2.1-.7-.6-1.6-1.3-2.6-2.2-1-.8-2.2-1.8-3.2-2.5-.9-.7-1.6-1.2-2.2-1.6-.6-.4-1.2-.8-1.6-1.1-.5-.3-.9-.6-1.3-.8-.4-.3-.9-.5-1.3-.7s-.7-.4-1-.5c-.3-.1-.5-.2-.7-.3-.2-.1-.5-.2-.8-.3-.3-.1-.5-.2-.8-.2-.2-.1-.4-.1-.7-.2-.2 0-.5-.1-.8-.1-.3 0-.7-.1-1.1-.1h-.2c-.3 0-.7 0-1.1.1-.5.1-1 .1-1.3.2-.4.1-.6.1-1.6.5-.4.1-.9.3-1.4.5-.8.3-1.6.6-2.5 1-.7.3-1.2.5-1.7.8-2.2 1.1-3.5 2.1-5.5 3.6-1.4 1-3.1 2.2-8.8 4.8-1.4.6-2.8 1.4-4.4 2.3-.8.5-1.5.9-2.2 1.4-.7.4-1.3.8-2 1.2-1.3.8-2.8 1.6-4.4 2.4-.8.3-1.5.7-2.3 1-.7.3-1.5.6-2.2 1-2.9 1.3-4.7 2.9-6.8 4.8-.4.3-.8.7-1.2 1l-.1.1-.3.3V182.9l-4.6-3.6 1.2-.7 35.8-21.1c2.1-1.2 4.5-2.6 6.4-4.1.7-.6 1.6-1.2 2.3-2.1.3-.4.5-.7.7-1 .1-.2.2-.3.2-.5.1-.4.1-.8.1-1.2v-.3c0-.9-.3-1.6-.7-2.2-.6-1-1.4-1.8-2.2-2.5-1.2-1.1-2.4-2.1-3.6-3-1.4-1.1-2.9-2.3-4.9-3.8-5.3-4-9.9-7.3-14.3-10.2-2.3-1.6-4.5-2.9-6.5-4.1-.9-.5-1.8-1.1-2.7-1.6-.9-.5-1.7-1-2.6-1.5-4.2-2.5-7.1-4.7-10.3-8.1-1.9-2-3.9-4.3-6-7-.3-.3-1.1-1.4-1.1-1.4l.2-.1 3.7-2.2.1.1L584.8 197h-.1l-2.7 1.6c-.2-.1-.2-.2-.3-.2z"/><path fill="#231F20" d="M462.8 100.6l.2.2 1.5 1.2.2.2 12.3 9.7 12.3 9.7 29 22.9 20.1 15.9 20.4 16.2 4.1 3.3 10.2 8 2.1 1.7c2 1.6 4.1 3.2 6.1 4.9l.5.4 2.6 2 .2.2-.2.1-.8.5-1.6.9-.2-.2V198.1h-.1-.1c-.4-.3-.8-.5-1.5-1l-.5-.3c-.9-.5-2.1-1.2-3.3-1.9l-1.6-.9c-1.6-.9-3-1.7-4.2-2.4l-.2-.1c-1.2-.7-2.4-1.3-3.4-2-1.2-.7-2.2-1.3-3.1-1.9-1-.7-2.2-1.5-3.2-2.3-.9-.7-1.8-1.5-2.8-2.4-1-.9-2.2-2-3-2.8-.9-.8-1.5-1.4-2-1.9-.6-.5-1.1-1-1.6-1.6l-.2-.2c-.5-.5-1.1-1-1.9-1.8-1.3-1.2-2.4-2.3-3.5-3.3-1.2-1.1-2.7-2.5-3.8-3.5-1.1-1-1.7-1.5-2.3-2.1-.9-.8-1.7-1.5-2.6-2.2-1-.8-2.2-1.8-3.2-2.5-.8-.6-1.5-1.1-2.2-1.7-.6-.4-1.1-.8-1.6-1.1-.5-.3-.9-.6-1.3-.8-.4-.3-.9-.5-1.3-.7-.3-.2-.6-.3-1-.5-.3-.1-.5-.2-.7-.3-.2-.1-.5-.2-.8-.3-.2-.1-.5-.2-.8-.2-.2-.1-.4-.1-.7-.2-.3-.1-.5-.1-.8-.1-.2 0-.6-.1-1.1-.1h-.2c-.4 0-.7 0-1.1.1-.6.1-1.1.2-1.3.2-.4.1-.6.1-1.6.5-.4.1-.9.3-1.4.5-.8.3-1.6.6-2.5 1-.6.3-1.1.5-1.6.8-2.2 1.1-3.5 2.1-5.5 3.6-1.4 1-3.1 2.2-8.8 4.8-1.4.6-2.8 1.4-4.4 2.3-.8.5-1.5.9-2.2 1.4-.7.4-1.3.8-2 1.2-1.3.8-2.8 1.6-4.4 2.4-.7.3-1.5.7-2.3 1-.7.3-1.5.6-2.2 1-2.9 1.3-4.7 2.9-6.8 4.8-.4.3-.8.7-1.2 1l-.1.1-.3.3c-.1.1-.1.2-.1.3V182.6l-.2-.1-.5-.4-1.1-.9-.9-.7-.7-.5-.4-.3-.5-.4-.2-.2 1.2-.7.9-.5 34.1-20.1.7-.4c2.1-1.2 4.5-2.6 6.4-4.1.7-.6 1.6-1.3 2.3-2.1.3-.4.5-.7.7-1.1.1-.2.2-.3.2-.5.1-.4.1-.8.1-1.2v-.3c0-.9-.3-1.6-.7-2.2-.6-1-1.4-1.8-2.2-2.5-1.2-1.1-2.4-2.1-3.6-3-1.4-1.1-2.9-2.3-4.9-3.8-5.3-4-9.9-7.3-14.3-10.2-2.3-1.6-4.5-2.9-6.5-4.1-.9-.5-1.8-1.1-2.7-1.6-.9-.5-1.7-1-2.6-1.5-4.2-2.5-7.1-4.7-10.3-8.1-1.9-2-3.9-4.3-6-7-.3-.3-.5-.7-.8-1l-.1-.2-.1-.1v-.1l.1-.1.3-.2 1.6-.9.3-.2.8-.5.2-.1.1-.1h.7m0-.2s-.1 0 0 0c-.1.1-.1.1-.2.1-.2.1-.3.2-.5.3l-.9.6c-.6.4-1.3.7-1.9 1.1-.2.1-.3.2-.5.3h-.1l.1.1c.1.1.1.2.2.3.3.3.5.7.8 1 1.9 2.4 3.8 4.8 6 7 3.3 3.4 6.2 5.7 10.3 8.1 1.8 1 3.5 2 5.3 3.1 2.2 1.3 4.3 2.7 6.5 4.1 4.9 3.3 9.6 6.7 14.2 10.2 1.7 1.3 3.3 2.5 4.9 3.8l3.6 3c.8.8 1.6 1.5 2.1 2.5.4.7.7 1.3.7 2.1 0 .5 0 1-.1 1.5-.1.2-.1.3-.2.5-.2.4-.4.7-.7 1-.7.8-1.5 1.5-2.3 2.1-2.2 1.6-4.8 3.2-7.1 4.5-11.4 6.7-22.8 13.4-34.1 20.1-.7.4-1.4.8-2.1 1.3h-.1.1l.1.1c.1.1.2.1.2.2.2.1.3.3.5.4.3.3.6.5 1 .8.6.5 1.3 1 1.9 1.5.2.1.3.3.5.4.1.1.2.1.2.2l.1.1h.1v-.3-.2-.1c.2-.1.3-.3.5-.4 2.7-2.4 4.6-4.3 8-5.8 1.5-.7 3-1.3 4.5-1.9 1.5-.7 3-1.5 4.4-2.4 1.4-.9 2.8-1.8 4.2-2.6 1.4-.8 2.9-1.6 4.3-2.3 5.6-2.6 7.3-3.8 8.8-4.8 1.9-1.5 3.3-2.5 5.5-3.6.5-.3 1-.5 1.6-.8.8-.4 1.6-.7 2.5-1 .5-.2 1-.4 1.4-.5 1-.4 1.2-.4 1.5-.5.4-.1.9-.2 1.3-.2s.7-.1 1.1-.1h.2c.4 0 .8 0 1.1.1.3 0 .5.1.8.1.2 0 .4.1.7.2.2.1.5.1.8.2.3.1.5.2.8.3.2.1.5.2.7.3.3.1.6.3 1 .5s.8.5 1.3.7c.4.3.8.5 1.3.8.5.3 1 .7 1.6 1.1.6.4 1.3.9 2.2 1.6.9.7 2.2 1.7 3.2 2.5s1.9 1.5 2.6 2.2c.7.6 1.3 1.1 2.3 2.1 1 .9 2.5 2.3 3.8 3.5 1.3 1.3 2.6 2.4 3.5 3.3.9.9 1.5 1.5 2.1 2 .6.5 1.1 1 1.6 1.6.6.5 1.1 1.1 2 1.9.9.8 2 1.9 3 2.8 1 .9 1.9 1.6 2.9 2.4 1 .8 2.1 1.6 3.2 2.3 1.1.7 2 1.3 3.1 2 1.1.6 2.3 1.3 3.6 2 1.3.7 2.6 1.5 4.2 2.4 1.6.9 3.6 2.1 4.9 2.8 1.1.6 1.6.9 2.1 1.3h.2v.2l.3.3c.6-.3 1.1-.7 1.7-1 .3-.2.6-.3.8-.5.1 0 .1-.1.2-.1 0 0 .1 0 .1-.1 0 0 .1 0 .1-.1-.1-.1-.3-.2-.4-.3-1-.8-2-1.6-3.1-2.4-2-1.6-4.1-3.2-6.1-4.9-4.1-3.2-8.2-6.5-12.3-9.7-8.2-6.5-16.4-12.9-24.5-19.4-16.4-12.9-32.7-25.9-49.1-38.8-8.2-6.5-16.4-12.9-24.5-19.4-.6-.5-1.1-.9-1.7-1.4-.3-.1-.4-.2-.5-.3 0 .1 0 .1 0 0z"/><g opacity=".5"><path fill="#004261" d="M466.7 186.3v-7l4.6 3.6v7.1"/><path fill="#231F20" d="M466.8 179.4l4.4 3.5v6.9l-4.4-3.5v-6.9m-.2-.3v7.3l4.7 3.7v-7.3l-4.7-3.7z"/></g><path fill="none" stroke="#231F20" stroke-width=".85" stroke-miterlimit="10" d="M584.8 197l-122.1-96.6c-1.3.8-2.7 1.6-4 2.4-.1-.2-.2-.3-.4-.5-14.8 8.7-29.6 17.5-44.5 26.2-1.3.7-2.6 1.3-3.7 2.2-.8.4-1.5.9-2.3 1.3v15.9l122.1 96.6c18.3-10.8 36.5-21.5 54.8-32.3v-7.9c.1-2.5.1-4.9.1-7.3z"/><path fill="none" stroke="#231F20" stroke-width=".283" stroke-miterlimit="10" d="M513.5 148.2v.5M519.1 162c1.2 1.1 3 2.1 4.5 2.7.5.2.9.4 1.4.5.3.1.8.2 1.1 0 .4-.1.4-.5.4-.8-.1-.3-.2-.5-.3-.8-.1-.3-.3-.5-.5-.7-1-1.3-2.7-2.5-4.3-3.1-.8-.3-1.8-.4-2.6-.1-.4.2-.7.5-.6 1 .2.7.6 1.1.9 1.3zM504.1 181.2c1.1.7 2.4 1.4 3.7 1.7 1.5.3 2.9.1 3.2-1.6.2-1.4-.4-2.8-1.1-3.9-.7-1.2-1.5-2.3-2.6-3.2-1.1-.9-2.4-1.5-3.8-1.5-1.3 0-2.9.5-3.4 1.9-.6 1.3.2 2.9 1 3.8.8 1.1 1.8 2 3 2.8z"/><path fill="none" stroke="#231F20" stroke-width=".283" stroke-miterlimit="10" d="M516.5 164c2.1 1.7 4.3 3.1 6.5 4.6 2.3 1.7 3.7 3.1 5.6 5.1 2.3 2.5 3.1 3.2 5.7 5.5 1 .9 2 1.8 2.9 2.7.9.9 1.8 1.7 2.7 2.6 2.1 1.9 3.9 3.2 6.3 4.6 1.1.7 2.2 1.3 3.4 2 1.1.7 2.2 1.3 3.2 2 1.8 1.2 5 3.2 7.6 2.9 1.3-.2 2.4-1 1.5-2.3-.7-.9-2.2-1.7-3.1-2.2-3-1.6-4-2-6.6-4.4-1-.9-1.9-1.8-2.8-2.7-.9-.9-1.8-1.7-2.7-2.6-2.3-2.1-3.6-3.3-5.7-5.7-1.6-1.9-3.2-3.9-4.9-5.7-1.7-1.9-3.5-3.8-5.3-5.6-1.8-1.9-3.7-3.6-6-5-1.1-.7-2.3-1.3-3.6-1.6-1.4-.3-2.9-.2-4.3.3-1 .4-2.4 1.3-2.4 2.6.1 1.3 1.3 2.2 2 2.9z"/><path fill="none" stroke="#231F20" stroke-width=".283" stroke-miterlimit="10" d="M514.7 165.5c2.3 1.9 4.7 3.6 6.9 5.6 2.4 2.2 3.3 3.8 5.5 6.3 1.9 2.1 4.1 3.9 6.3 5.7 2.3 1.8 4.5 3.7 7 5.3 2.4 1.6 5 3 7.5 4.5 2.1 1.2 5.2 3.2 7.4 4.2 1.4.7 2.9 1.2 4.5 1.4 1.5.2 3.2-.1 4.5-1.1 1-.8 1.6-1.8.9-3-.6-1.2-2.2-2.1-3.2-2.7-3.1-1.8-4.6-2.2-7.4-4.6-1.7-1.4-4.5-4.3-6-5.9-2-2-4-4.1-5.9-6.2l-6-6.3c-2-2-4-3.9-6.1-5.8-2-1.7-4.8-3.9-7.3-4.9-1.6-.6-3.1-.9-4.8-.6-1.5.2-3.1.8-4.3 1.8-1 .8-1.7 1.9-1.5 3.3 0 1.3 1.1 2.2 2 3zM496.6 176.3c.4 4.5 6.4 8.5 9.5 10.4 1.1.7 2.2 1.3 3.3 1.8 1 .5 2.2 1 3.3.4 1.1-.6 1.8-2 2.2-3.1.4-1.1.6-2.2.6-3.3 0-2.7-1-4.6-2.5-6.6-1.4-1.9-3.2-3.7-5.4-4.7-2.3-1.1-4.6-1.3-7-.3-1.2.5-2.4 1.3-3.1 2.3-.8.9-1 2-.9 3.1z"/><path fill="#004261" stroke="#231F20" stroke-width=".142" stroke-miterlimit="10" d="M520.5 210.2c2.7 1.8 6.1 3.6 9.5 4.1.9.1 1.8.2 2.8 0 .6-.1 1.8-.4 1.9-1.3.2-.8-.7-1.5-1.2-1.9-.8-.6-1.6-1-2.5-1.4-1.8-.8-7.9-2.9-9.8-3.4-.8-.2-1.5-.4-2.3-.6-.5-.1-.9-.2-1.4-.1-.6.1-.8.4-.6 1 .4 1.3 2.7 2.9 3.6 3.6z"/><path fill="none" stroke="#231F20" stroke-width=".283" stroke-miterlimit="10" d="M493.2 178.7c-.1 1.1-.3 2.1-.9 3-.1.2-.3.5-.4.7-.2.2-.3.5-.4.8-.1.6.7 1.2 1.1 1.4.9.7 1.9 1.2 2.9 1.8 1.1.7 2.2 1.4 3.2 2.2 2.2 1.6 3.3 2.7 5.2 4.6 1.7 1.7 3.5 3.3 5.4 4.7 1.1.8 2.2 1.5 3.3 2.2 1 .6 2.5 1.3 3.8 1.2 1.4-.1 2.6-1.1 3.1-2.2.5-1 .5-2.1.4-3.2-.2-1.1-.6-2-.9-3.1-.3-1-.6-2-.7-3.1-.2-2.1.3-4.4 1-6.3.3-.9.9-2.1 1.7-2.8 1-.7 2.2-.4 3.1 0 2.1.8 4.9 2.5 6.7 3.8 1.9 1.3 3.7 2.6 5.5 3.9 2.2 1.5 3.7 2.4 6.1 3.7 2 1.1 4 2.2 6 3.4 2 1.2 3.9 2.4 6 3.4 2.3 1.1 4.5 1.8 7.2 1.5 1.3-.2 2.4-.6 3.5-1.2.8-.5 1.8-1.3 2.2-2.3.8-2.2-1.9-4-3.3-4.9-2.2-1.4-4.5-2.4-6.6-3.9-2-1.4-3.6-3.1-5.3-4.8-1.6-1.7-3.3-3.3-4.9-5-5.4-5.5-14-14.8-20.7-19.1-2.2-1.4-4.4-2.5-7.2-2.4-2.4.1-5.4 1.2-7.1 2.8-1.6 1.5-2.2 3.5-1.3 5.6.4 1 1 1.7 1.7 2.5.5.6 1.7 2.1 2.1 2.7.2.3.3.6-.2.5-.2 0-.3-.1-.5-.2-.3-.1-.5-.2-.8-.4-.5-.2-.9-.4-1.4-.6-1-.4-2.1-.8-3.2-1.1-2.6-.6-5.4-.5-7.9.4-2.1.8-4.3 2.2-5.7 4-.6.9-1 1.8-1.3 2.8-.3 1.2-.4 2.1-.5 3z"/><path fill="none" stroke="#231F20" stroke-width=".283" stroke-miterlimit="10" d="M483.8 184.7c3.3 3.3 8.7 8.4 12.3 11.4 2.2 1.8 4.5 3.6 6.8 5.3 2.3 1.8 4.7 3.5 7.1 5.2 3.7 2.6 10.3 6.7 14.5 8.6 2.9 1.3 5.7 2.1 9 1.4 1.4-.3 2.9-.9 4.1-1.8.9-.7 1.9-1.7 1.9-3 0-1.4-1.3-2.5-2.2-3.2-1.4-1-2.9-1.7-4.3-2.5-1.5-.8-2.9-1.6-4.1-2.7-1.1-1-1.8-2.1-2.4-3.4-.6-1.2-1.1-2.5-1.7-3.6-.7-1.2-1.4-2.4-2-3.6-.6-1.2-1-2.3-1.1-3.6 0-1.3.3-2.9 1.5-3.7 1.3-.8 3.1-.4 4.3 0 1.4.5 2.6 1.2 3.9 2 2.7 1.7 4.1 2.9 7 4.5 2.5 1.4 5.1 2.7 7.5 4.1 2.4 1.4 4.8 3 7.3 4.3 1.4.7 2.7 1.2 4.2 1.5 1.7.3 3.2.2 4.9-.2 1.6-.4 2.9-.9 4.3-1.8 1-.6 2.2-1.6 2.6-2.8.9-2.6-2.7-4.7-4.3-5.7-2.7-1.6-4.9-2.5-7.4-4.5-2.3-1.8-4.2-3.9-6.2-5.9l-6-6c-4-4.1-8.1-8.1-12.4-11.8-2.1-1.8-4.3-3.5-6.8-5-2.9-1.7-5.5-2.4-8.9-1.6-2.6.6-5.5 2.1-7.2 4.4-.9 1.2-1 1.9-1.6 3.2-.3.6-.6 1.2-1.1 1.6-.7.5-1.4.7-2.2.9-1.5.4-3 .7-4.5 1.3-1.4.5-2.8 1.2-4 2.1-1.1.8-2.2 1.6-3.1 2.6-.4.5-.8 1-1.3 1.4-.4.5-.9 1.1-1.4 1.6-.5.5-1.1.9-1.8 1.2-.7.3-1.4.4-2.2.5-1.3.2-3.6.4-4.9 1-1.3.7-1.3 1.9-.7 3.1.6 1.3 1.7 2.4 2.6 3.2z"/><path fill="none" stroke="#231F20" stroke-width=".283" stroke-miterlimit="10" d="M478.6 178.2c-.9.8-1 1.8-.6 2.9.4 1 1.3 2 2 2.8 1.1 1.2 4.2 4 5.4 5.1 3.7 3.4 7.4 6.6 11.3 9.7 3.7 3 7.5 5.9 11.3 8.7 3.9 2.9 8 5.6 12.2 8 2 1.2 4.4 2.5 6.5 3.3 2.6.9 4.9 1.1 7.5.4 2.3-.6 4.6-1.7 6.5-3.1.9-.7 1.7-1.4 2.5-2.2.8-.8 1.6-1.6 2.5-2.2 1-.7 2.1-1.1 3.2-1.7 1.1-.5 2.1-1.1 3-2 .8-.8 1.3-1.7 2.3-2.4 1-.7 2.5-.9 3.7-1.1 2.7-.5 5-.9 7.5-2.1 1.6-.8 4.3-2.4 5.1-4.2 1.1-2.3-1.4-4.3-2.9-5.3-2.1-1.5-4.5-2.6-6.7-4-2.1-1.3-4-2.9-5.8-4.6-1.7-1.6-3.4-3.3-5-5-6.1-6.1-14.1-14.4-21.3-19.4-4.8-3.3-8.3-4.8-14.1-2.4-1.2.5-2.2 1-3.3 1.7-.9.6-1.8 1.3-2.5 2.2-.7.8-1.3 1.6-1.9 2.5-.8 1.1-1.6 1.6-2.8 2.2-1.1.5-2.3.9-3.4 1.3s-2.3.9-3.3 1.5c-2 1.1-3.8 2.4-5.6 3.9-.8.7-1.7 1.5-2.6 2.2-1.1.8-2.1 1.2-3.4 1.5-1.3.3-2.6.4-3.9.7-1-.1-2.5.2-3.4 1.1z"/><path fill="none" stroke="#231F20" stroke-width=".283" stroke-miterlimit="10" d="M475.7 178.5c-.7 1-.4 2.1.2 3 .6 1.1 1.4 1.9 2.3 2.8 1.2 1.2 4.3 3.9 5.6 5 3.8 3.3 7.7 6.6 11.7 9.8 3.8 3.1 7.7 6.1 11.6 9 4 3 8 5.8 12.2 8.5 2 1.3 4 2.6 6.2 3.7 2.5 1.2 4.7 1.8 7.5 1.3 2.3-.4 5-1.6 7-2.8 2.4-1.3 3.5-2.3 5.7-3.9 2.5-1.8 3.8-2.2 6.5-3.7 1-.6 2-1.3 2.9-2.1.9-.7 1.8-1.5 2.8-2.1 1.1-.7 2.3-1.1 3.5-1.6 1.2-.5 2.4-.9 3.6-1.5 2-.9 4.5-2.4 6.1-3.9 2-2 1.8-3.6-.1-5.5-1.7-1.7-4.5-3.2-6.5-4.4-2.6-1.5-4.2-2.4-6.5-4.4-1.9-1.6-3.6-3.3-5.3-5.1-6.4-6.3-14.4-14.6-21.7-20-1.8-1.3-4.2-3-6.2-3.8-2.6-1.1-4.9-1.2-7.6-.5-2.3.6-4.9 1.8-6.8 3.2-.9.7-1.8 1.4-2.5 2.2-.8.8-1.5 1.7-2.5 2.4-1.8 1.3-4.7 2.3-6.6 3.2-2.2 1-4.2 2.2-6.2 3.7-1.8 1.3-3.7 3-5.9 3.8-2.1.8-5.6 1.1-7.7 1.8"/><path fill="none" stroke="#231F20" stroke-width=".283" stroke-miterlimit="10" d="M473.1 180.7c.7 1.8 3.4 4 4.7 5.1 1.9 1.6 3.9 3.2 5.8 4.8 3.9 3.2 7.8 6.4 11.7 9.5 8.5 6.8 14.7 11.6 23.6 17.9 1.9 1.4 3.9 2.7 5.9 4 2.2 1.3 4.4 2.4 7.1 2 2.2-.4 5.2-1.8 7.1-2.9 2.4-1.3 3.8-2.3 6.1-3.8 2.9-2 3.3-2.2 6.3-3.9 2.8-1.5 3.5-2 6.1-4 2.6-1.9 3.7-2.4 6.5-3.8 2.2-1.1 4.3-2.2 6.3-3.7 1-.7 2-1.4 2.8-2.4.7-.8 1.1-1.8.7-2.9-.7-2-4-4-5.5-4.9-2.3-1.4-4.6-2.6-6.8-4.1-2.1-1.4-3.9-3-5.7-4.8-6.6-6.3-14.4-14.5-21.6-20.2-1.8-1.5-3.7-2.9-5.6-4.1-2.1-1.4-4.4-2.7-7-3-2.6-.3-5.1.4-7.4 1.4-2.3 1-4.4 2.1-6.3 3.7-2.3 1.9-2.9 2.8-5.7 4.2-1.2.6-2.3 1-3.5 1.6-1.1.5-2.3 1.1-3.4 1.7-2.8 1.6-3.6 2.3-6.2 4-2.5 1.7-4 2.2-7 2.7"/><path fill="none" stroke="#231F20" stroke-width=".283" stroke-miterlimit="10" d="M530.3 228.5c1.4-.9 2.8-1.9 4.3-2.8 1.5-.9 2.9-1.8 4.4-2.7 1.5-.9 2.9-1.8 4.3-2.7 1.4-.9 2.8-1.9 4.2-2.8 1.4-.9 2.9-1.8 4.4-2.6 1.5-.8 3-1.7 4.4-2.6 1.4-.9 2.7-1.9 4.1-2.9 1.5-1 3-1.8 4.5-2.6 2.7-1.5 6.7-3.8 9.1-5.8 1-.9 2.4-2.2 1.7-3.8-.6-1.4-2.6-2.7-3.7-3.5-2.9-2-6.1-3.5-9-5.4-2.8-1.8-5.2-4-7.6-6.3-4.9-4.7-9.7-9.5-14.8-14.1-2.4-2.2-4.9-4.3-7.6-6.3-1.3-1-2.7-2-4.1-3-1.6-1-3.1-1.9-4.9-2.5-3.7-1.1-7-.2-10.3 1.3-1.6.7-3.1 1.5-4.5 2.4-1.3.9-2.6 1.8-3.9 2.8-1.6 1.2-2.5 1.8-4.3 2.6-1.5.7-3.1 1.4-4.7 2.1-1.5.7-2.9 1.6-4.3 2.5-1.5.9-3 1.9-4.5 2.8M530 228.6c.1 0 .1 0 0 0"/><path fill="none" stroke="#231F20" stroke-width=".283" stroke-miterlimit="10" d="M562 209.7c1.8-1.2 3.6-2.2 5.5-3.3l5.4-3.3c1.2-.8 4.3-2.8 5.1-4 .6-1 0-1.8-.7-2.4-.8-.7-1.7-1.3-2.6-1.9-1.8-1.2-3.6-2.2-5.4-3.2-1.8-1.1-3.7-2.1-5.5-3.2-3.6-2.3-6.6-5.2-9.7-8.1-6.1-5.8-12-11.8-18.6-17.1-1.6-1.3-3.2-2.5-4.9-3.7-1.8-1.3-3.6-2.5-5.6-3.2-2.1-.8-4-.9-6.2-.5-2 .4-4.2 1.3-6 2.1M456.8 160.2c.6 1.2 2.8 2.8 3.9 3.4 1.5.9 3.1 1.6 4.8 1.7 1.8.2 3.5-.2 5-1 1.2-.6 3.2-2.1 4-3.3.4-.7.4-1.4-.3-2-.7-.6-2-.8-2.8-.9-1.7-.2-3.5-.1-5.2-.1-1.7.1-3.5.2-5.2.4-1 .1-1.9.2-2.9.4-.7.2-1.7.4-1.3 1.4zM469 123.8c.4.9 1.6 1.6 2.4 2 1 .5 2.1.9 3.3 1.3 1.1.4 2.3.6 3.3 1.3.9.6 1.6 1.3 2.3 2 1.6 1.6 3.2 3 5.2 4.1.8.4 1.7.8 2.5 1.1.7.2 1.5.5 2.2.5.8 0 .8-.5.4-1.1l-.9-1.2c-.2-.3-.5-.5-.7-.7-1-.9-2.1-1.7-3.3-2.4-2.2-1.3-3.7-1.8-6-2.8-1.2-.5-1.8-.9-2.9-1.7-.9-.7-1.8-1.3-2.7-1.9-.9-.6-2.1-1.3-3.2-1.6-.5-.1-1.3-.3-1.7 0-.4.2-.3.7-.2 1.1z"/><path fill="none" stroke="#231F20" stroke-width=".283" stroke-miterlimit="10" d="M448.2 155.9c2 2 4.8 4.4 7 6.1 2.2 1.7 5.2 3.8 7.9 4.8 3.2 1.2 6 .8 9-.7l2.1-1.2c.7-.4 1.3-.9 2-1.3 1-.7 2.6-1.9 3-3.2.5-1.5-.7-2.6-1.9-3.2-1.5-.8-3.4-1.1-5.1-1.1-3.1-.1-6.2.3-9.3.5-3 .2-6.3.3-9.3-.4-1.6-.3-3.1-.9-4.6-1.4-.4-.1-.7-.3-1.1-.4-.3-.1-.5-.2-.8-.2-.1 0-.3 0-.3.2.2.3 1.3 1.3 1.4 1.5zM466.6 125.7c1.3 1.4 3.1 2.5 4.7 3.3 2.1 1.1 3.2 1.6 5.2 3 1.6 1.1 3 2.4 4.6 3.5 1.6 1.2 3.4 2.1 5.2 3 1.8.9 3.6 1.8 5.2 3 1.6 1.1 3 2.3 4.9 3.1 1.1.5 2.1.8 3.4.7.8-.1 2.1-.3 2.5-1.2.4-.8-.1-1.8-.5-2.4-.5-.8-1.2-1.4-1.9-2.1-1.1-1-3.3-2.7-4.5-3.6-1.6-1.3-3.1-2.6-4.7-3.8-3.4-2.6-6.3-4.2-10-6.3-1.7-.9-3.3-1.9-4.9-2.8-1.8-1-3.5-2-5.4-2.8-1-.4-2.3-.9-3.5-.9-.9 0-1.7.4-2 1.4-.7 1.6.6 3.8 1.7 4.9z"/><path fill="none" stroke="#231F20" stroke-width=".283" stroke-miterlimit="10" d="M462 119.1c-.6 2 .6 4.5 1.6 6 .6 1 1.3 1.8 2.2 2.6 1 .9 2 1.6 3.1 2.3 2.5 1.6 3.4 2 5.8 3.7 1.8 1.3 3.5 2.8 5.4 4.1 1.9 1.3 4 2.3 6 3.5 2.7 1.5 3.1 2 5.6 3.7 1.9 1.3 3.8 2.4 6.2 2.7 1.2.2 2.3.1 3.5-.2 1-.3 2.2-.7 2.9-1.6.7-.9.7-1.9.2-2.8-.4-1-1.3-1.9-2-2.6-1.8-1.7-3.8-3.2-5.7-4.7-4-3.1-6.8-5.3-11.1-8-1.9-1.2-3.9-2.3-5.9-3.5-2-1.1-3.9-2.3-5.9-3.4-1.8-1-4.4-2.5-6.4-3.2-2-.7-4.8-1.2-5.5 1.4zM419 134.7c2 2 5.4 4.4 7.7 6.2 2.6 2 5.1 4.1 7.6 6.2 2.7 2.2 12.6 10.2 15.4 12.3 2.5 1.9 5 3.8 7.6 5.6 2.6 1.8 5.9 3.8 9.3 4.2 3.8.4 6.9-1.6 9.8-3.4 1.4-.9 2.8-1.7 4.1-2.8 1-.8 2.1-2 2.1-3.4.2-3.1-4.5-4.5-6.6-4.9-3.8-.8-6.9-.3-10.7.2-3.4.5-6.7.7-10.2 0-3.2-.7-5.8-2.1-8.5-3.8-1.4-.9-2.8-1.8-4.1-2.8-1.4-.9-2.7-1.9-4.1-2.8-2.7-1.9-5.3-3.7-7.8-5.8-2.5-2.1-4.7-4.5-7.3-6.6-.7-.5-1.3-1-2.1-1.4-.8-.4-1.8-.7-2.7-.4-.9.3-1 1-.6 1.8 0 .5.5 1.1 1.1 1.6z"/><path fill="none" stroke="#231F20" stroke-width=".283" stroke-miterlimit="10" d="M459.3 121.1c.7 2 2.1 4.7 3.4 6.4 1.7 2.3 3.8 3.8 6.1 5.4 2.7 1.9 3.5 2.5 6 4.6 2.5 2 3.7 2.9 6.4 4.5 1.1.7 2.2 1.3 3.3 2.1 1 .6 1.9 1.4 2.9 2.1 2.1 1.7 4.1 3.2 6.9 3.8 2.6.6 5.9.3 8.4-.7 2-.8 4.5-2.3 3.7-4.9-.4-1.1-1.2-2.1-1.9-2.9-.9-1-1.9-1.8-3-2.7-1.4-1.1-4.8-3.8-6.2-4.9-4.4-3.4-8-5.8-12.8-8.6-2.2-1.3-4.5-2.6-6.7-3.8-2.2-1.3-4.4-2.6-6.7-3.8-1.8-1-5.6-3-7.9-2.4-1.4.4-2 1.5-2.2 2.8-.2.9 0 1.9.3 3zM418.1 135.6c2.7 2.3 5.5 4.4 8.3 6.6 2.8 2.2 5.5 4.5 8.3 6.7 5.6 4.4 11.1 8.9 16.7 13.1 2.7 2 5.4 4.1 8.4 5.9 3 1.8 6.6 3.5 10.4 2.6 2-.5 3.7-1.4 5.4-2.5 1.2-.7 3.5-2.2 4.7-3 1.5-1 2.8-2 3.9-3.5.8-1.2 1.4-2.8.8-4.2-1.1-2.9-6.2-4.1-8.5-4.5-1.9-.4-3.7-.6-5.6-.5-1.9 0-3.7.5-5.5.9-1.8.4-3.6.9-5.5.9-1.9.1-3.7-.1-5.5-.6-3.2-.9-6.3-2.8-9-4.6-3-2-6-4-8.9-6.1-3.2-2.3-5.3-3.9-8.2-6.6-1.3-1.2-2.5-2.4-3.8-3.6-1.3-1.2-2.7-2.6-4.6-3-1-.2-2.2 0-3.1.3-.7.3-1.5.9-1.5 1.8 0 1.5 2 3.2 2.8 3.9z"/><path fill="none" stroke="#231F20" stroke-width=".283" stroke-miterlimit="10" d="M417.5 136.4c2.4 2 5 4 7.5 5.9 2.5 2 4.9 4 7.4 6 2.3 1.9 12.6 10 15 11.8 2.4 1.8 4.8 3.7 7.2 5.4 2.3 1.7 5.3 3.8 7.9 5.2 3.3 1.7 6.2 2.4 9.8.8 1.5-.6 2.9-1.5 4.2-2.4 1.3-.8 2.6-1.7 3.8-2.5 2.6-1.8 5.1-3.5 6.8-6.3.7-1.2 1.2-2.6 1.8-3.9.7-1.7 1.4-2.3 3.1-2.8 1.2-.3 4.4-.9 5.6-1.2 1.8-.4 3.5-.8 5.2-1.5 2.4-.9 6.3-2.9 5.1-6.3-.5-1.3-1.6-2.5-2.5-3.4-1.1-1.1-2.4-2.1-3.6-3.1-2.5-2-5-3.8-7.5-5.7-2.6-1.9-5.2-3.8-7.9-5.5-2.8-1.8-5.8-3.4-8.7-5.1-2.7-1.5-5.3-3.1-8-4.7-3-1.8-5.2-3-8.4-4.5-.7-.3-1.5-.7-2.2-1-.7-.4-1.3-.8-1.9-1.2-1.6-.9-3.1-1.1-4.8-.6-2.4.6-6.7 2.7-8.6 4.3-1.1 1-2.1 2.2-2.3 3.9-.1.7.1 1.4.4 2.1.3.7.7 1.3 1.2 1.9 1 1.6 1.2 2.2 1.7 4 .4 1.5.9 2.8 1.8 4.1 1 1.4 2.3 2.4 3.6 3.4l4.2 3c2.7 2 5.3 4.1 7.8 6.4 1.1 1 2.2 2 3.1 3.3.9 1.2 1.2 2.2.2 3.5-1 1.2-2.6 2-4 2.5-1.8.6-3.5.7-5.3.4-3.3-.5-6.4-2.3-9.2-4-2.7-1.7-5.3-3.4-8-5.2-2.7-1.8-5.3-3.6-7.7-5.7-2.4-2-4.6-4.1-6.7-6.5-1.1-1.2-2.1-2.4-3.9-2.6-1.6-.2-4 .4-5.4 1.2-1.5.8-2 1.8-1.1 3.4.7 1 2.3 2.3 3.3 3.2z"/><path fill="none" stroke="#231F20" stroke-width=".283" stroke-miterlimit="10" d="M417 137.1c2.5 2 5.1 4 7.6 6l7.5 6c2.3 1.8 12.8 10.1 15.1 11.9 2.4 1.9 4.9 3.7 7.4 5.6 2.5 1.9 5.1 3.8 7.8 5.3 3.1 1.7 6.1 2.9 9.7 1.5 2.5-1 6-3.6 8.1-5 2.9-2 5.2-3.5 7.7-6.1 2.3-2.4 3.7-4.6 6.8-6.2 1.6-.8 3.3-1.4 4.9-2.1 1.6-.6 3.3-1.3 4.9-2.1 2.1-1.1 5.9-3.2 4.9-6.4-.8-2.5-4.3-5.3-6.1-6.7-2.5-2-5.1-3.9-7.6-5.8-2.6-1.9-5.2-3.8-8-5.6-2.8-1.8-5.7-3.5-8.6-5.2-2.7-1.6-5.5-3.2-8.1-4.9-1.9-1.2-6-3.9-7.9-5.2-.6-.5-1.3-.9-1.9-1.4-.6-.5-1.3-1.1-1.9-1.5-1.3-1-2.6-1.6-4.3-1.6-2.9.1-7 2.3-9.2 3.7-2.9 1.7-5.6 3.5-7.3 6.7-.6 1.1-1.3 2.7-.6 4 .3.8.9 1.4 1.3 2 .4.6.8 1.3 1.2 1.9 1.9 3.3 2.4 4.9 5.2 7.7 2.4 2.4 5.2 4.4 7.9 6.5 2 1.6 5.1 4 6.3 6.5.6 1.3.6 2.7-.7 3.6-1.5 1-3.5.8-5.1.4-2.9-.8-6.5-3.1-9-4.6-2.4-1.5-6.1-3.8-8.4-5.4-2.7-1.8-5.2-3.8-7.5-6.1-1.1-1-2.1-2.1-3-3.4-.4-.5-.7-1.1-1.1-1.6-.5-.7-.9-1.4-1.6-1.9-1.5-.9-4.1-.1-5.5.4-1.3.5-3.6 1.3-4.7 2.3-1.3 1.2-.7 2.5.3 3.6.9 1.1 2.4 2.3 3.5 3.2z"/><path fill="none" stroke="#231F20" stroke-width=".283" stroke-miterlimit="10" d="M475.6 173.3c1.1-.7 2.1-1.5 3.2-2.3l3-2.1c2.1-1.4 4.1-2.9 6.1-4.5 1.9-1.6 3.6-3.3 5.6-4.7 2.3-1.7 4.3-2.7 6.8-3.9 2.5-1.2 5-2.3 7.4-3.9 1.7-1.1 4-3 3.3-5.5-.6-2.1-3.1-4.3-4.6-5.5-2-1.7-4.1-3.3-6.2-4.8-4-3-7.9-6-12.1-8.7-4.3-2.8-8.8-5.3-13.2-7.9-3.8-2.3-8.7-5.6-12-8.6-1.5-1.4-3.4-3.7-5.8-4.2-2.6-.5-5.8 1.1-7.8 2.2-2.3 1.2-4.6 2.5-6.7 3.9-1.9 1.3-3.4 2.5-5.1 4.1-1.1 1-2.1 2.1-3.3 3-1 .7-2.1 1.4-3.1 2-.5.3-1.1.6-1.6.9l-1.5.9c-1.3.7-2.6 1.1-3.9 1.6-3.3 1.1-4.5 1.7-7.8 3.1-1.2.5-2.4 1-3.5 1.8-.9.6-1.7 1.5-1.2 2.8.7 1.7 3.9 4 5.1 5 2 1.5 3.9 3.1 5.9 4.6 4 3.1 7.9 6.3 11.8 9.4 4 3.1 7.9 6.3 11.9 9.4 2.9 2.3 8.8 6.7 11.7 8.9 2 1.5 4 2.9 6.2 4.1 2.4 1.3 4.9 2.3 7.8 1.2"/><path fill="#004261" stroke="#231F20" stroke-width=".142" stroke-miterlimit="10" d="M427.7 131.2c-.6-1.1-1-2.6-.6-4 .6-1.8 2.3-2.4 4-2.4 1.6-.1 3.3.3 4.7 1.1 1.2.7 2.2 1.9 3 3 .9 1.2 1.7 2.5 2.5 3.7.9 1.3 2 2.4 3.1 3.5s2.2 2.2 3.3 3.2c1.1 1 2.2 2 3.3 3.1.8.8 2.3 2.2 2.6 3.5.2.9-.2 1.3-1.1 1.4-.8 0-1.8-.3-2.5-.6-2.3-.9-6-3-8.1-4.2-2.7-1.5-5.3-3-7.7-4.8-2-1.6-5.2-4.3-6.5-6.5z"/><path fill="none" stroke="#231F20" stroke-width=".283" stroke-miterlimit="10" d="M485.8 167.4c4.3-3.1 7.1-5.6 11.7-8.3 2.2-1.3 4.4-2.4 6.6-3.6 1.9-1.1 4.5-2.5 6.2-3.9 1.8-1.5 3-3.2 1.7-5.6-1-1.8-3.5-3.9-5-5.2-3-2.5-9.2-7.1-12.3-9.3-4.5-3.3-7.3-5.2-12.1-8-4.2-2.5-8.5-4.9-12.4-7.8-1.9-1.4-3.7-2.9-5.3-4.5-.8-.8-1.6-1.7-2.4-2.6-.8-.9-1.6-1.7-2.5-2.4-1-.8-2-1.1-3.3-1-1.2.1-2.7.8-3.8 1.3-2.3 1.1-4.5 2.3-6.6 3.6-2.1 1.2-4.2 2.4-6.2 3.8-.9.6-1.8 1.3-2.7 1.9-1 .7-2 1.5-3.1 2.2-2.1 1.3-4.4 2.3-6.5 3.4-2.2 1.2-4.2 2.5-6.4 3.7-1.1.7-2.3 1.3-3.5 1.9-1.2.6-2.3 1.2-3.5 1.7-1 .5-2.4 1.2-3.3 2-.9.8-1 1.7-.3 2.7.5.9 1.6 1.8 2.3 2.4 1 .8 2 1.6 2.9 2.3 1.9 1.5 3.9 3 5.8 4.5 3.8 3 7.6 6.1 11.4 9.1 3.8 3 7.6 6.1 11.5 9.1 3.8 3 7.6 5.9 11.4 8.8 1.9 1.5 3.8 2.9 5.7 4.3 1.5 1.1 4.6 3.3 6.6 3.8M471.5 182.2h-.1"/><path fill="none" stroke="#231F20" stroke-width=".283" stroke-miterlimit="10" d="M503 157c1.7-1 3.5-2 5.2-3.2 1.3-.9 2.6-1.8 3.8-2.9 1-1.1 1.9-2.3 1.4-4-.3-.9-.8-1.5-1.4-2.2-.8-1-1.8-1.8-2.7-2.6-4.1-3.5-13-10-17.3-13-3-2.1-5.9-4.1-9-6-3.1-1.9-6.3-3.5-9.3-5.5-3.1-2-5.7-4.4-8.2-7-2.5-2.6-4.7-5.4-6.9-8.3M523.1 155.4c-1.7-.4-3.3-.3-4.9.2M563.1 187.5c-.5-.4-1.1-.8-1.6-1.2M581.6 198.2c-.5-.2-1-.5-1.5-.7M487.3 166.2L503 157M466.6 178.5l7.5-4.4M471.4 182.2v.7M478.9 188.1l-7.5-5.9M530 228.6l-18.5-14.7M530 244.5l-122-96.6M409 132.8l-1-.8M466.6 179.1v-.6M584.8 212.2L530 244.5M530 228.6v15.9M568.7 205.8L530 228.6M581 198.6l-7.7 4.5M584.8 197.1v15.1M414 128.5l44.4-26.2M408 132l2.2-1.3M408 132v15.9M471.9 182.6c.8.6 1.6 1.3 2.4 1.9 8.8 7 17.6 14 26.4 20.9 4.6 3.7 9.3 7.3 13.9 11 2.7 2.1 5.3 4.2 8 6.3 1.3 1.1 2.7 2.1 4.1 3.2l3.3 2.7M490.8 170.3c-1.1.7-2.1 1.3-3.2 1.9-.7.4-1.4.8-2.2 1.2-.5.3-1.1.5-1.7.8-1 .5-2.1.9-3.1 1.3-.4.2-.7.3-1.1.5-.7.3-1.4.7-2 1.1-.9.5-1.7 1.1-2.4 1.8-1.3 1-2.5 2.2-3.7 3.2M518.1 155.5c-1.5.4-3 .9-4.4 1.6"/><path fill="none" stroke="#231F20" stroke-width=".283" stroke-miterlimit="10" d="M580.1 197.5c-.6-.3-1.1-.6-1.7-.9-1.3-.7-2.5-1.5-3.7-2.2-.5-.3-1-.6-1.4-.8-.6-.3-1.2-.7-1.8-1-1.2-.7-2.3-1.3-3.5-2-.6-.3-1.2-.7-1.8-1.1-.8-.5-1.5-.9-2.3-1.4-.6-.4-1.2-.8-1.8-1.3-1.6-1.2-3.1-2.4-4.5-3.8-1-.9-2.1-1.9-3.1-2.9-3.7-3.5-7.3-7.1-11.1-10.6-2.4-2.2-4.8-4.4-7.4-6.4-1.3-1.1-2.7-2.1-4.1-3.2-.7-.5-1.3-.9-2-1.4-.6-.4-1.1-.8-1.7-1.1-.9-.5-1.7-1-2.7-1.4-.8-.3-1.5-.6-2.3-.7M530 228.6c1-.6 2-1.2 2.9-1.7 2.1-1.2 4.1-2.4 6.2-3.6 3.7-2.2 7.5-4.4 11.2-6.6 1.8-1.1 3.7-2.2 5.5-3.2 2.1-1.3 4.2-2.5 6.4-3.8.3-.2.6-.4 1-.6 2.3-1.3 4.5-2.7 6.8-4 2.6-1.5 5.1-3 7.7-4.6 1.3-.8 2.6-1.5 3.9-2.3M466.6 178.6c.4-.4.9-.7 1.4-1.1l1.8-1.2c.6-.4 1.2-.7 1.9-1.1.3-.1.5-.3.8-.4 1-.5 2-1.1 3-1.6.8-.4 1.5-.9 2.3-1.3 1.7-.9 3.3-1.9 5-2.8.8-.5 1.6-.9 2.4-1.4.9-.5 1.7-1 2.6-1.5 1.2-.7 2.4-1.4 3.5-2.1 4.5-2.7 9-5.3 13.4-7.9.6-.4 1.3-.8 1.9-1.2.5-.3 1-.6 1.4-.9.9-.6 1.7-1.1 2.5-1.8.5-.4 1.1-.9 1.5-1.4.4-.4.7-.9 1-1.4.2-.4.3-.8.3-1.3M409.1 133.1c.2.2.4.3.6.5.7.6 1.5 1.2 2.2 1.9.6.5 1.3 1.1 2 1.6.4.3.7.6 1.1.9 1.6 1.3 3.2 2.5 4.8 3.8.9.7 1.7 1.3 2.6 2l8.7 6.9c2.1 1.6 4.1 3.3 6.2 4.9 2.1 1.6 4.1 3.3 6.2 4.9 2.8 2.2 5.6 4.4 8.5 6.6 2.2 1.7 4.4 3.5 6.6 5.2 1.5 1.2 3 2.3 4.4 3.5 1.2 1 2.5 2 3.7 2.9M414 128.5c-1.3.7-2.6 1.3-3.7 2.2"/><g><path fill="none" stroke="#004261" stroke-width=".709" stroke-linecap="round" stroke-linejoin="round" stroke-dasharray="0,1.4173" d="M479.9 172.4v-20.7l42.5 31.9v21"/><path fill="#004261" d="M520.9 203.4l.3-.2 1.2 1.3 1.2-1.3.2.2-1.4 1.6"/></g></g><g class="clickable" data-highlight="#kust,#kust-text,#icon-sediment,#icon-nutrienten" fill="#231F20"><text transform="matrix(.9993 -.03854 .03854 .9993 538.394 535.795)" opacity=".5" font-family="'AvenirNext-Bold'" font-size="12">KUST</text><path opacity=".5" d="M570.1 498.8v-2.6h1l-4.6-3.5-4.6 3.5h1v3.3c-1.5.3-2.8.7-3.5 1.2 0 0-4.6 10.1-23.8 10.1v3h36.5v-15.2c0 .1-.8.1-2 .2z"/><path opacity=".5" d="M542.6 509.7h.1c.1 0 .3 0 .4-.1h-.1c1.5-.3 5.9-1.5 6.9-1.9.8-.3 1.5-.7 2.1-1h-.1c-.1 0 2.7-1.3 3.6-2.5.6-.5 1-1 1.4-1.4l.9-1.2c0-.1.1-.1.1-.2l.2-.4.3-.7c-.8-.3-1.5-.7-2.5-.7-1.5 0-2.5 1-4 1s-2.5-1-4-1-2.5 1-4.1 1c-1.5 0-2.5-1-4.1-1-1.5 0-2.5 1-4 1v9.5c2.5 0 4.7-.2 6.6-.5.1.1.2.1.3.1z"/></g><g class="clickable" data-highlight="#icon-industrie,#icon-chemisch,#industrie-text"><path fill="#004261" d="M252.5 305.5l54.7-32.3 2.7 2.2 1.4 1.1-54.3 31.9v.7"/><path fill="#231F20" d="M307.1 273.3l2.8 2.2 1.2 1-25.5 15-28.6 16.9h-.1v.5l-2.7-2.1-1.6-1.3c18.2-10.7 36.3-21.5 54.5-32.2m0-.2c-18.3 10.8-36.5 21.5-54.8 32.3 1.6 1.2 3.2 2.5 4.7 3.7v-.7c18.1-10.7 36.2-21.3 54.3-32-1.3-1-2.7-2.1-4.2-3.3z"/><g opacity=".5"><path fill="#004261" d="M252.4 312.6v-7l4.6 3.6v7.1"/><path fill="#231F20" d="M252.5 305.7l4.4 3.5v6.9l-4.4-3.5v-6.9m-.2-.2v7.3l4.7 3.7v-7.3l-4.7-3.7z"/></g><path fill="none" stroke="#231F20" stroke-width=".85" stroke-miterlimit="10" d="M307.1 272.5l-21.3-16.8c-5.2 3.1-10.4 6.2-15.7 9.2 0-.7-.1-1.5-.1-2.2 0-.7-1.5-.7-1.4 0-.1 1.1-.1 2.2-.2 3.3-12.5 7.4-25 14.7-37.4 22.1V304c15.8 12.5 31.5 25 47.3 37.4 18.3-10.8 36.5-21.5 54.8-32.3v-15.9l-21.3-16.8c-.2.1-.3.2-.5.3-1.4-1.1-2.8-2.2-4.2-3.4v-.8z"/><path fill="none" stroke="#231F20" stroke-width=".283" stroke-miterlimit="10" d="M267.2 310.6c1.4 1.1 3.6 1.2 5.2.6.8-.3 1.6-.9 1.9-1.8.3-.9-.2-1.8-.9-2.4-1.4-1.1-3.6-1.2-5.1-.6-.8.3-1.6.9-1.9 1.8-.3.9.1 1.8.8 2.4zM270.1 262.6l.6 12.9M268 276.1l.6-13.5M252.8 280.6v1.1M242.3 286.8v1.1M251.2 280.4l1.6.2M242.3 286.8l10.5-6.2M240.7 286.6l1.6.2M240.7 286.6l10.5-6.2M240.7 288.8v-2.2M255 300.1l-14.3-11.3M265.5 290.7v3.2M255 300.1l10.5-6.2M255 296.9v3.2M263.9 290.5l1.6.2M255 296.9l10.5-6.2M253.4 296.7l1.6.2M263.9 289.4v1.1M253.4 296.7l10.5-6.2M253.4 295.6v1.1M262.3 289.2l1.6.2M253.4 295.6l10.5-6.2M251.8 295.4l1.6.2M262.3 288.2v1M251.8 295.4l10.5-6.2M251.8 294.4v1M260.7 288l1.6.2M251.8 294.4l10.5-6.2M250.2 294.2l1.6.2M260.7 286.9v1.1M250.2 294.2l10.5-6.2M250.2 293.1v1.1M259.1 286.7l1.6.2M250.2 293.1l10.5-6.2M248.6 292.9l1.6.2M259.1 285.7v1M248.6 292.9l10.5-6.2M248.6 291.8v1.1M257.6 285.5l1.5.2M248.6 291.8l10.5-6.1M247.1 291.7l1.5.1M257.6 284.4v1.1M247.1 291.7l10.5-6.2M247.1 290.6v1.1M256 284.2l1.6.2M247.1 290.6l10.5-6.2M245.5 290.4l1.6.2M256 283.1v1.1M245.5 290.4l10.5-6.2M245.5 289.3v1.1M254.4 283l1.6.1M245.5 289.3l10.5-6.2M243.9 289.1l1.6.2M254.4 281.9v1.1M243.9 289.1l10.5-6.1M243.9 288.1v1M242.3 287.9l10.5-6.2M252.8 281.7l1.6.2M243.9 288.1l10.5-6.2M242.3 287.9l1.6.2M271.4 269.7v1M260.9 275.8v1.1M270.4 269.5l1 .2M270.4 270.2l1-.5M260.9 275.8l7.3-4.3M259.3 275.6l1.6.2M259.3 275.6l9-5.2M259.3 277.8v-2.2M273.6 289.1l-14.3-11.3M284.1 279.7v3.2M273.6 289.1l10.5-6.2M273.6 285.9v3.2M282.5 279.5l1.6.2M273.6 285.9l10.5-6.2M272.1 285.7l1.5.2M282.5 278.5v1M272.1 285.7l10.4-6.2M272.1 284.6v1.1M281 278.3l1.5.2M272.1 284.6l10.4-6.1M270.5 284.4l1.6.2M281 277.2v1.1M270.5 284.4l10.5-6.1M270.5 283.4v1M279.4 277l1.6.2M270.5 283.4l10.5-6.2M268.9 283.2l1.6.2M279.4 275.9v1.1M268.9 283.2l10.5-6.2M268.9 282.1v1.1M277.8 275.7l1.6.2M268.9 282.1l10.5-6.2M267.3 281.9l1.6.2M277.8 274.7v1M267.3 281.9l10.5-6.2M267.3 280.9v1M276.2 274.5l1.6.2M267.3 280.9l10.5-6.2M265.7 280.7l1.6.2M276.2 273.4v1.1M265.7 280.7l10.5-6.2M265.7 279.6v1.1M274.6 273.2l1.6.2M265.7 279.6l10.5-6.2M264.1 279.4l1.6.2M274.6 272.2v1M270.7 275.5l3.9-2.3M264.1 279.4l3.9-2.3M264.1 278.4v1M273 272l1.6.2M270.6 274.5l4-2.3M264.1 278.4l3.9-2.3M262.5 278.2l1.6.2M273 270.9v1.1M270.6 273.4l2.4-1.4M262.5 278.2l5.6-3.3M262.5 277.1v1.1M270.5 271.3l.9-.6M260.9 276.9l7.3-4.3M271.4 270.7l1.6.2M270.5 272.4l2.5-1.5M262.5 277.1l5.6-3.3M260.9 276.9l1.6.2M287.9 260v1M277.4 266.1v1.1M286.3 259.8l1.6.2M277.4 266.1l10.5-6.1M275.8 266l1.6.1M275.8 266l10.5-6.2M275.8 268.1V266M290.1 279.4l-14.3-11.3M300.6 270v3.2M290.1 279.4l10.5-6.2M290.1 276.2v3.2M299 269.8l1.6.2M290.1 276.2l10.5-6.2M288.5 276l1.6.2M299 268.8v1M288.5 276l10.5-6.2M288.5 274.9v1.1M297.4 268.6l1.6.2M288.5 274.9l10.5-6.1M286.9 274.8l1.6.1M297.4 267.5v1.1M286.9 274.8l10.5-6.2M286.9 273.7v1.1M295.8 267.3l1.6.2M286.9 273.7l10.5-6.2M285.3 273.5l1.6.2M295.8 266.2v1.1M285.3 273.5l10.5-6.2M285.3 272.4v1.1M294.2 266.1l1.6.1M285.3 272.4l10.5-6.2M283.7 272.2l1.6.2M294.2 265v1.1M283.7 272.2l10.5-6.1M283.7 271.2v1M292.6 264.8l1.6.2M283.7 271.2l10.5-6.2M282.1 271l1.6.2M292.6 263.7v1.1M282.1 271l10.5-6.2M282.1 269.9v1.1M291 263.5l1.6.2M282.1 269.9l10.5-6.2M280.5 269.7l1.6.2M291 262.5v1M280.5 269.7l10.5-6.2M280.5 268.7v1M289.5 262.3l1.5.2M280.5 268.7l10.5-6.2M279 268.5l1.5.2M289.5 261.2v1.1M279 268.5l10.5-6.2M279 267.4v1.1M277.4 267.2l10.5-6.2M287.9 261l1.6.2M279 267.4l10.5-6.2M277.4 267.2l1.6.2M269.7 263c-.3.1-.7 0-.9-.2-.3-.3 0-.6.3-.7.3-.1.7-.1.9.2.2.3 0 .6-.3.7z"/><g fill="none" stroke="#231F20" stroke-width=".283" stroke-miterlimit="10"><path d="M307.7 286.2c1.2 1.1 3 2.1 4.5 2.7.5.2.9.4 1.4.5.3.1.8.2 1.1.1.4-.1.4-.5.4-.8-.1-.3-.2-.5-.3-.8-.1-.3-.3-.5-.5-.7-1-1.3-2.7-2.5-4.3-3.1-.8-.3-1.8-.4-2.6-.1-.4.2-.7.5-.6 1 .2.6.7 1 .9 1.2z"/><path d="M305.6 285.1c-.2.3-.3.6-.4.9l-.3.9v.2c-.1.3-.1.5-.2.8l-.3 1.2c0 .2-.1.3-.1.5s0 .3-.1.5v.4c0 .2 0 .3.1.5 0 .2.1.3.2.5s.2.3.4.4c.2.2.3.3.5.4.3.2.6.4.9.5.3.1.6.3 1 .4.8.3 1.6.4 2.4.5h1.5c.5 0 1.1-.1 1.6-.1.2 0 .4 0 .6-.1.9-.1 1.9-.3 2.8-.6.5-.2 1-.5 1.3-.9.2-.3.4-.5.5-.8.2-.4.4-.7.5-1.1.2-1.7-1.4-3.8-7.2-5.8-.3-.1-.7-.2-1-.4-2.3-1-3.3-1.5-4.7 1.2z"/><path d="M303.9 285.8c-.1.5-.2 1-.4 1.5-.1.4-.3.9-.5 1.3s-.5.8-.7 1.3c-.4.6-.8 1.2-1.2 1.7-.2.2-.3.5-.5.7-.1.2-.3.5-.4.7-.1.2-.2.4-.2.6-.1.2-.1.5-.1.8 0 .2.1.5.1.7.1.2.2.5.4.7.2.2.4.4.7.6.4.3.8.5 1.2.7.4.2.9.3 1.4.4 1.1.3 2.3.3 3.5.3.8 0 1.6-.1 2.4-.2.9-.1 1.7-.3 2.5-.4 1.9-.4 3.7-.8 5.5-1.4 3.3-1.1 12.6-6-5.7-12.1-.5-.2-1-.3-1.5-.5-3.5-1.6-4.5-2.5-6.5 2.6z"/></g><path fill="none" stroke="#231F20" stroke-width=".283" stroke-miterlimit="10" d="M252.3 304.8l54.8-32.3M311.9 276.2l-54.8 32.3M278.4 325.4l-21.3-16.9M278.4 341.2L231 303.8M252.3 304.8L231 287.9M252.3 305.5v-.7M257.1 308.5v.7M333.2 308.9l-54.8 32.3M278.4 325.4v15.8M333.2 293l-54.8 32.4M307.1 272.5v.6M285.9 255.6l21.2 16.9M333.2 293v15.9M311.9 276.2l21.3 16.8M231 287.9v15.9M270.2 264.9l15.7-9.3M231 287.9l37.5-22"/><path fill="none" stroke="#D73D27" stroke-width=".567" stroke-miterlimit="10" d="M243.1 291.6v11.1l5.8 4.8"/><path fill="#D73D27" d="M247 308.1l5.8 2.6-3.7-5.1"/><g stroke="#231F20" stroke-miterlimit="10"><g fill="#004261" stroke-width=".142"><path d="M273.7 309v.2c-.2.7-.9 1.2-1.6 1.5-1.3.5-3.1.4-4.3-.5-.4-.3-.7-.7-.8-1.2.1-.7.7-1.2 1.3-1.5.6-.3 1.3-.5 2-.5s1.4.1 2 .5c.6.3 1.2.8 1.4 1.5zM286.1 308.5c.6.3 1.2.8 1.3 1.5v.2c-.2.8-.9 1.2-1.6 1.5-1.3.5-3.2.5-4.3-.5-.4-.3-.7-.7-.8-1.2.1-.7.7-1.2 1.3-1.5.7-.3 1.3-.5 2-.5.8.1 1.5.2 2.1.5zM293.3 304.3c.6.3 1.2.8 1.3 1.5v.2c-.2.7-.9 1.2-1.6 1.5-1.3.5-3.1.4-4.3-.5-.4-.3-.7-.7-.8-1.2.2-.7.7-1.2 1.3-1.5.7-.3 1.3-.5 2-.5.8 0 1.4.2 2.1.5zM280.3 314.3v.2c-.2.7-.9 1.2-1.6 1.5-1.3.5-3.1.4-4.3-.5-.4-.3-.7-.7-.8-1.2.1-.7.7-1.2 1.3-1.5.7-.3 1.3-.5 2-.5s1.4.1 2 .5c.7.3 1.2.8 1.4 1.5zM280.8 304.8v.2c-.2.8-.9 1.2-1.6 1.5-1.3.5-3.1.5-4.3-.5-.4-.3-.7-.7-.8-1.2.1-.7.7-1.2 1.3-1.5.6-.3 1.3-.5 2-.5s1.4.1 2 .5c.7.3 1.3.8 1.4 1.5zM288 300.6v.2c-.2.7-.9 1.2-1.6 1.5-1.3.5-3.1.4-4.3-.5-.4-.3-.7-.7-.8-1.2.1-.7.7-1.2 1.3-1.5.7-.3 1.3-.5 2-.5s1.4.1 2 .5c.7.3 1.2.8 1.4 1.5z"/></g><g fill="none" stroke-width=".283"><path d="M274.4 308.8v1.2M280.6 301.5v-1.1M295.3 305.6v1.2M287.2 306.8v-1.1M288.2 309.8V311M280 311v-1.2M281.5 304.6v1.2M273.4 305.8v-1.2M281 314V315.2M272.9 315.2v-1.1M288.7 300.4v1.1M266.3 310v-1.2M281.3 300.6c-.1-.2 0-.5 0-.8.2-.8.9-1.2 1.6-1.5 1.3-.5 3.1-.4 4.3.5.5.4.9 1.1.8 1.8v.2c-.2.7-.9 1.2-1.6 1.5-1.3.5-3.1.4-4.3-.5-.4-.3-.7-.7-.8-1.2"/><path d="M280.6 300.4c0 .7.4 1.3 1 1.7 1.4 1.1 3.6 1.2 5.1.6.8-.3 1.6-.9 1.9-1.8 0-.1.1-.3.1-.4.1-.8-.4-1.5-1-2-1.4-1.1-3.6-1.2-5.2-.6-.8.3-1.6.9-1.9 1.8v.7zM280.6 301.5c0 .8.4 1.4 1 1.8"/><path d="M281.6 303.3c1.1.9 2.8 1.1 4.1.9.7-.1 1.4-.4 2-.8.6-.4 1-1.1 1-1.8M287.9 305.8v-.8c.2-.8.9-1.2 1.6-1.5 1.3-.5 3.1-.4 4.3.5.6.4.9 1.1.8 1.8v.2c-.2.7-.9 1.2-1.6 1.5-1.3.5-3.1.4-4.3-.5-.4-.3-.7-.7-.8-1.2"/><path d="M287.2 305.7c0 .7.4 1.2 1 1.7 1.4 1.1 3.6 1.2 5.2.6.8-.3 1.6-.9 1.9-1.8 0-.2.1-.3.1-.5 0-.7-.4-1.4-1-1.9-1.4-1.1-3.6-1.2-5.1-.6-.8.3-1.6.9-1.9 1.8-.2.2-.2.4-.2.7 0-.1 0 0 0 0zM287.2 306.8c0 .8.4 1.4 1 1.8"/><path d="M288.2 308.6c1.1.9 2.8 1.1 4.1.9.7-.1 1.4-.4 2-.8.6-.4 1-1.1 1-1.8M280.8 310.1v-.8c.2-.7.9-1.2 1.6-1.5 1.3-.5 3.1-.4 4.3.5.6.4.9 1.1.8 1.8v.2c-.2.8-.9 1.2-1.6 1.5-1.3.5-3.2.5-4.3-.5-.4-.3-.8-.8-.8-1.2"/><path d="M280.1 309.8c0 .7.4 1.3 1 1.7 1.4 1.1 3.6 1.2 5.2.6.8-.3 1.6-.9 1.9-1.8 0-.1.1-.3.1-.4.1-.8-.4-1.5-1-1.9-1.4-1.1-3.6-1.2-5.1-.6-.8.3-1.6.9-1.9 1.8-.2.2-.3.4-.2.6zM280 311c0 .8.4 1.4 1 1.8"/><path d="M281 312.8c1.1.9 2.8 1.1 4.1.9.7-.1 1.4-.4 2-.8.6-.4 1-1.1 1-1.8M274.1 304.8v-.8c.2-.7.9-1.2 1.6-1.5 1.3-.5 3.1-.4 4.3.5.6.4.9 1.1.8 1.8v.2c-.2.8-.9 1.2-1.6 1.5-1.3.5-3.1.5-4.3-.5-.4-.3-.7-.7-.8-1.2"/><path d="M273.4 304.6c0 .7.4 1.3 1 1.7 1.4 1.1 3.6 1.2 5.2.6.8-.3 1.6-.9 1.9-1.8 0-.2.1-.3.1-.5 0-.8-.4-1.4-1-1.9-1.4-1.1-3.6-1.2-5.1-.6-.8.3-1.6.9-1.9 1.8-.2.3-.2.5-.2.7zM273.4 305.8c0 .8.4 1.4 1 1.8"/><path d="M274.4 307.6c1.1.9 2.8 1.1 4.1.9.7-.1 1.4-.4 2-.8.6-.4 1-1.1 1-1.8M280.3 314.3v.2c-.2.7-.9 1.2-1.6 1.5-1.3.5-3.1.4-4.3-.5-.4-.3-.7-.7-.8-1.2-.1-.2 0-.5 0-.8.2-.7.9-1.2 1.6-1.5 1.3-.5 3.1-.4 4.3.5.6.4.9 1.1.8 1.8z"/><path d="M272.9 314.1c0 .7.4 1.3 1 1.7 1.4 1.1 3.6 1.2 5.2.6.8-.3 1.6-.9 1.9-1.8 0-.1.1-.3.1-.4.1-.8-.4-1.5-1-1.9-1.4-1.1-3.6-1.2-5.2-.6-.8.3-1.6.9-1.9 1.8-.1.1-.1.4-.1.6zM272.9 315.2c0 .8.4 1.4 1 1.8"/><path d="M273.9 317c1.1.9 2.8 1.1 4.1.9.7-.1 1.4-.4 2-.8.6-.4 1-1.1 1-1.8M273.7 309v.2c-.2.7-.9 1.2-1.6 1.5-1.3.5-3.1.4-4.3-.5-.4-.3-.7-.7-.8-1.2-.1-.2 0-.5 0-.8.2-.7.9-1.2 1.6-1.5 1.3-.5 3.1-.4 4.3.5.5.5.9 1.1.8 1.8zM266.3 310c0 .8.4 1.4 1 1.8"/><path d="M267.2 311.8c1.1.9 2.8 1.1 4.1.9.7-.1 1.4-.4 2-.8.6-.4 1-1.1 1-1.8M294.6 305.8c-.1-.7-.7-1.2-1.3-1.5-.6-.3-1.3-.5-2-.5s-1.4.1-2 .5c-.6.3-1.2.8-1.3 1.5M288 300.6c-.1-.7-.7-1.2-1.3-1.5-.6-.3-1.3-.5-2-.5s-1.4.1-2 .5c-.6.3-1.2.8-1.3 1.5M280.8 304.8c-.2-.7-.7-1.2-1.3-1.5-.6-.3-1.3-.5-2-.5s-1.4.1-2 .5c-.6.3-1.2.8-1.3 1.5M287.5 310.1c-.1-.7-.7-1.2-1.3-1.5-.7-.3-1.3-.5-2-.5s-1.4.1-2 .5c-.6.3-1.2.8-1.3 1.5M280.3 314.3c-.2-.7-.7-1.2-1.3-1.5-.6-.3-1.3-.5-2-.5s-1.4.1-2 .5c-.6.3-1.2.8-1.3 1.5M273.7 309.1c-.1-.7-.7-1.2-1.3-1.5-.7-.3-1.3-.5-2-.5s-1.4.1-2 .5c-.6.3-1.2.8-1.3 1.5"/></g></g></g><g class="clickable" data-highlight="#icon-stedelijk,#icon-bacterien,#icon-nutrienten,#icon-drijfvuil,#stedelijk-text"><path fill="#004261" d="M328.6 260.6l62.4-36.8v5.7l-57.8 34v.6l-4.6-3.5zm67.5-39.8l-3.4 1.9 8.7-5.2v-.7l-12.2-9.7v-4.4l15.9 12.6 33-19.4 4.1 3.3-29.8 17.6-1.4-1.1-5.1 2.9v2.1l-5.8 3.4-4-3.3z"/><path fill="#231F20" d="M438.1 196.1l4 3.2-29.7 17.5-1.4-1.1-.1-.1h-.1l-5 2.9h-.1v2l-5.7 3.4-4-3.2 5.3-3.1h.1V216.7h-.1l-12.1-9.6v-4.3l15.8 12.5.1.1h.1l32.9-19.3m-47.2 27.8v5.5l-57.7 34h-.1v.5l-4.3-3.4 62.1-36.6m47.2-28l-32.9 19.4-16-12.7v4.6l12.2 9.6v.7l-72.9 43 4.7 3.7v-.7l57.8-34.1v-5.7l5-2.9 4.1 3.3 5.8-3.4v-2l5-2.9 1.4 1.1 29.9-17.6-4.1-3.4z"/><path fill="#004261" d="M451.2 256.2l-8.5-6.7.1-.5-13.8-10.9-.4.2-3.8-3v-4.4l30 23.7-3.6 2.2"/><path fill="#231F20" d="M424.9 231l29.8 23.6-3.4 2v-.5h-.1l-8.3-6.6v-.5h-.1l-13.7-10.9-.1-.1h-.1l-.3.2-3.7-3V231m-.2-.3v4.6l3.9 3.1.4-.2 13.7 10.9v.5l8.4 6.6v.7l3.8-2.3-30.2-23.9z"/><g opacity=".5"><path fill="#004261" d="M451.2 256.9l3.7-2.2v7.2l-3.7 2.1"/><path fill="#231F20" d="M454.8 254.9v6.9l-3.6 2.1V257l3.6-2.1m.1-.3l-3.8 2.3v7.3l3.8-2.3v-7.3z"/></g><path fill="#004261" d="M357.6 181.6l-.5.2 3.2-2 11 8.7-.8.5-.1 2.8"/><path fill="#231F20" d="M360.3 179.9l10.9 8.6-.7.4h-.1v2.7l-12.8-10.1 2.7-1.6m0-.1l-3.3 2 .2.1.4-.2 13 10.3v-2.9l.9-.5-11.2-8.8z"/><g opacity=".5"><path fill="#004261" d="M328.6 267.7v-7l4.6 3.6v7.1"/><path fill="#231F20" d="M328.7 260.8l4.4 3.5v6.9l-4.4-3.5v-6.9m-.2-.3v7.2l4.7 3.7v-7.3l-4.7-3.6z"/></g><path fill="none" stroke="#231F20" stroke-width=".85" stroke-miterlimit="10" d="M424.1 183.8L410.4 173l-.2.1-17-13.4-32.9 19.4v.7l-3.3 1.9-.5-.4-3.6 2.1-.4-.3-4.9 2.9v.6l-9.6 5.6-.4-.3-2.9 1.7-2.1-1.7-5 2.9v3.6l-4 2.3-1-.7-5 2.9v1.3l-34 20.1v15.9l94.6 74.8 109.6-64.6v-15.8L442.9 199l-.5.3-4.3-3.4v-.6l-14-11.1z"/><path fill="none" stroke="#231F20" stroke-width=".283" stroke-miterlimit="10" d="M315.7 232l-5 2.9M329.4 242.8L315.7 232M324.4 245.8l5-3M324.4 250.5l5-2.9M310.7 239.7v-4.8M310.7 234.9l13.7 10.9M324.4 250.5v-4.7M310.7 239.7l13.7 10.8M320.6 227.5l-4.9 2.9M334.4 238.3l-13.8-10.8M329.4 241.3l5-3M334.4 241v-2.7M329.4 247.6l5-2.9M315.7 232v-1.6M315.7 230.4l13.7 10.9M329.4 247.6v-6.3M325.6 227.2l-3 1.8M339.3 238l-13.7-10.8M334.4 241l4.9-3M334.4 244.7l4.9-3M334.4 244.7V241M330.6 220l-5 2.9M344.3 230.8L330.6 220M339.3 233.8l5-3M344.3 233v-2.2M339.3 241.7l5-2.9M325.6 227.2v-4.3M325.6 222.9l13.7 10.9M339.3 241.7v-7.9M335.6 219.2l-3.5 2M349.3 230l-13.7-10.8M344.3 233l5-3M344.3 238.8l5-3M344.3 238.8V233M340.6 214.6l-5 3M354.3 225.5l-13.7-10.9M349.3 228.4l5-2.9M354.3 232.9v-7.4M349.3 235.8l5-2.9M335.6 219.2v-1.6M335.6 217.6l13.7 10.8M349.3 235.8v-7.4M350.6 204l-5 2.9M364.3 214.9L350.6 204M359.3 217.8l5-2.9M364.3 219.1v-4.2M359.3 230l5-3M345.6 218.6v-11.7M345.6 206.9l13.7 10.9M359.3 230v-12.2M354.3 226l5 4M355.6 205.3l-2 1.1M369.3 216.2l-13.7-10.9M364.3 219.1l5-2.9M364.3 227l5-2.9M364.3 227v-7.9M360.5 196l-4.9 2.9M374.3 206.9L360.5 196M369.3 209.8l5-2.9M374.3 209v-2.1M369.3 224.1l5-3M355.6 205.3v-6.4M355.6 198.9l13.7 10.9M369.3 224.1v-14.3M365.5 195.2l-3.4 2M379.3 206l-13.8-10.8M374.3 209l5-3M379.3 208.2V206M374.3 221.1l5-2.9M374.3 221.1V209M370.5 194.4l-3.4 2M384.2 205.2l-13.7-10.8M379.3 208.2l4.9-3M379.3 218.2l4.9-2.9M379.3 218.2v-10M375.5 186.1l-5 3M389.2 197l-13.7-10.9M384.2 199.9l5-2.9M389.2 212.3V197M384.2 215.3l5-3M370.5 194.4v-5.3M370.5 189.1l13.7 10.8M384.2 215.3v-15.4M390.5 184.7l-5 3M404.2 195.6l-13.7-10.9M399.2 198.5l5-2.9M404.2 198.2v-2.6M399.2 206.4l5-2.9M385.5 194v-6.3M385.5 187.7l13.7 10.8M399.2 206.4v-7.9M389.2 198.6l10 7.8M400.4 177.8l-4.9 2.9M414.2 188.6l-13.8-10.8M409.2 191.6l5-3M414.2 193.4v-4.8M409.2 200.6l5-3M395.5 184.4v-3.7M395.5 180.7l13.7 10.9M409.2 195.3v-3.7M405.4 179.6l-1.5.9M419.2 190.5l-13.8-10.9M414.2 193.4l5-2.9M414.2 197.6l5-2.9M414.2 197.6v-4.2M395.5 184.4l-3.1 1.8M409.2 195.3l-13.7-10.9M404.2 198.2l5-2.9M409.2 200.6v-5.3M404.2 203.5l5-2.9M404.2 203.5v-5.3M410.4 173l-5 2.9M424.1 183.8L410.4 173M419.2 186.8l4.9-3M424.1 191.7v-7.9M419.2 194.7l4.9-3M405.4 179.6v-3.7M405.4 175.9l13.8 10.9M419.2 194.7v-7.9M391 237.1l-3.4 2M404.8 247.9L391 237.1M399.8 250.9l5-3M391 223.8l13.8 10.9M396 220.9l-5 2.9M391 237.1v-13.3M409.7 231.8L396 220.9M404.8 249v-14.3M404.8 234.7l4.9-2.9M409.7 241.3v-9.5M414.7 238.3l-5-3.9M409.7 249v-7.7M409.7 241.3l5-3M409.9 249.1l4.8-2.8M409.7 232.8l5 4M406 223l-4.2 2.5M419.7 233.8L406 223M414.7 246.3v-9.5M414.7 236.8l5-3M414.7 246.3l4.3-2.5M406 218.7l13.7 10.9M411 215.8l-5 2.9M406 223v-4.3M424.7 226.6L411 215.8M419.7 242.1v-12.5M419.7 229.6l5-3M424.7 240.2v-13.6M421 212l13.7 10.9M421 223.7l13.7 10.8M426 209.1l-5 2.9M421 223.7V212M439.7 219.9L426 209.1M434.7 234.5v-11.6M434.7 222.9l5-3M439.7 223.1v-3.2M434.7 234.5l5-2.9M430.9 209.3l-2.6 1.6M444.7 220.2l-13.8-10.9M439.7 231.6v-8.5M439.7 223.1l5-2.9M444.7 222.3v-2.1M439.7 231.6l5-3M435.9 208.5l-3.4 2M449.6 219.3l-13.7-10.8M444.7 228.6v-6.3M444.7 222.3l4.9-3M449.6 225.7v-6.4M444.7 228.6l4.9-2.9M435.9 203.2l13.7 10.9M440.9 200.3l-5 2.9M435.9 208.5v-5.3M454.6 211.1l-13.7-10.8M449.6 219.3v-5.2M449.7 214.1l4.9-3M454.6 218v-6.9M449.6 225.7l5-2.9M459.6 215.1l-5-4M454.6 222.8V218M454.6 218l5-2.9M459.6 219.8v-4.7M454.6 222.8l5-3M381.1 240.8l13.7 10.9M381.1 247.2l12.3 9.7M386.1 237.9l-5 2.9M381.1 247.2v-6.4M399.8 248.7l-13.7-10.8M394.8 257.1v-5.4M394.8 251.7l5-3M399.8 250.9v-2.2M395.5 257.6l3.5-2.1M376.1 245.4l-1.9 1.1M389.8 256.2l-13.7-10.8M384.8 259.2l5-3M389.8 259v-2.8M384.8 263.9l4.3-2.5M366.1 247l13.7 10.9M371.1 244.1l-5 2.9M366.1 248.6V247M384.8 254.9l-13.7-10.8M379.8 259.4v-1.5M379.8 257.9l5-3M384.8 263.9v-9M379.8 266.9l5-3M361.1 251.5l13.7 10.9M366.1 248.6l-5 2.9M361.1 252.6v-1.1M379.8 259.4l-13.7-10.8M374.8 263.4v-1M374.8 262.4l5-3M379.8 266.9v-7.5M379.4 267.1l.4-.2M361.1 252.6l-3.1 1.8M374.8 263.4l-13.7-10.8M369.8 266.4l5-3M374.8 269.3v-5.9M369.8 272.7l4.3-2.5M351.1 255.8l13.8 10.9M356.1 252.9l-5 2.9M351.1 260.1v-4.3M369.8 263.7l-13.7-10.8M364.9 270.9v-4.2M364.9 266.7l4.9-3M369.8 272.7v-9M364.9 275.7l4.9-3M346.1 263l13.8 10.9M346.1 267.8l13.8 10.8M351.1 260.1l-5 2.9M346.1 267.8V263M364.9 270.9l-13.8-10.8M359.9 278.6v-4.7M359.9 273.9l5-3M364.9 275.7v-4.8M359.9 278.6l5-2.9M311.4 227.8l-13.7-10.9M306.4 230.7l5-2.9M311.4 230.4v-2.6M306.4 236.3l5-2.9M292.7 219.9l13.7 10.8M306.4 236.3v-5.6M292.7 225.5l13.7 10.8M297.7 216.9l-5 3M292.7 225.5v-5.6M326.4 220.8L312.6 210M321.4 223.8l5-3M321.4 227.5l4.2-2.5M312.6 210l-3.1 1.8M316.4 227.5l-13.7-10.9M311.4 230.4l5-2.9M311.4 233.4l4.3-2.5M311.4 233.4v-3M302.7 216.6l-3.1 1.8M321.4 221.2l-13.7-10.9M316.4 224.1l5-2.9M321.4 227.5v-6.3M321 227.7l.4-.2M302.7 213.2l13.7 10.9M316.4 230v-5.9M307.7 210.3l-5 2.9M302.7 216.6v-3.4M331.3 216l-13.7-10.8M326.4 219l4.9-3M312.6 208.1l13.8 10.9M326.4 222.5V219M317.6 205.2l-5 2.9M312.6 210v-1.9M336.3 210.8L322.6 200M331.3 213.8l5-3M336.3 217.2v-6.4M332.1 221.2l3.5-2.1M317.6 202.9l13.7 10.9M331.3 220.6v-6.8M322.6 200l-5 2.9M317.6 205.2v-2.3M351.3 202.8l-13.7-10.9M346.3 205.7l5-2.9M351.3 204.3v-1.5M337.6 191.9l-2.9 1.7M386.2 185.2l-13.7-10.9M381.2 188.1l5-2.9M382.4 191.6l3.1-1.9M367.5 177.3l13.7 10.8M381.2 190.7v-2.6M367.5 181.4l6.9 5.4M372.5 174.3l-5 3M367.5 181.4v-4.1M391.2 180.8l-13.7-10.9M386.2 183.7l5-2.9M391.2 183.7v-2.9M372.5 172.8l13.7 10.9M386.2 187.2v-3.5M377.5 169.9l-5 2.9M372.5 174.3v-1.5M395.8 180.5l-13.3-10.6M391.2 183.7l4.3-2.5M392 185.9l3.5-2.1M391.2 185.3v-1.6M382.5 169.9l-2.9 1.7M401.2 176l-13.7-10.9M396.2 178.9l5-2.9M401.2 177.1V176M382.5 168.1l13.7 10.8M396.2 180.3v-1.4M387.5 165.1l-5 3M382.5 169.9v-1.8M406.2 174.2l-13.8-10.9M401.2 177.1l5-2.9M406.2 175.5v-1.3M402.7 179.6l2.7-1.6M401.2 178.4v-1.3M392.4 163.3l-4.1 2.5M351.3 204.3l4.3-2.5M351.3 204.6v-.3M342.6 190.5l-3.9 2.3M370.5 191.9l-13-10.2M366.3 195.4l4.2-2.5M357.5 181.7l-3.9 2.3M359.2 196.8l-11.6-9.3M342.6 190.5l13 10.3M347.6 187.5l-5 3M346.3 202.8l-13.7-10.9M341.3 205.7l5-2.9M346.3 206.5v-3.7M341.7 215.5l3.9-2.3M327.6 194.8l13.7 10.9M341.3 215.2v-9.5M336.3 211.8l3.9 3.1M332.6 191.9l-5 2.9M327.6 203.9v-9.1M366.3 194l-13.8-10.9M361.5 196.8l4.8-2.8M366.3 195.8V194M347.6 186l12.7 10.1M352.5 183.1l-4.9 2.9M347.6 187.5V186M432.7 253.4l5-2.9M432.7 260.5l5-2.9M419 242.6l13.7 10.8M432.7 254.9v-1.5M424 239.6l-5 3M419 244v-1.4M437.7 252v-1.5M437.7 250.5L424 239.6M412.8 262.2l4.9-2.9M412.8 272.3l4.9-3M399 251.4l13.8 10.8M412.8 272.3v-10.1M407.8 268.3l5 4M404 248.4l-5 3M399 260.5v-9.1M417.7 262.2v-2.9M417.7 259.3L404 248.4M427.7 257.8l5-2.9M427.7 263.4l5-2.9M419 244l-5 3M432.7 260.5v-5.6M432.7 254.9L419 244M437.7 252l5-3M437.7 257.6l5-3M437.7 257.6V252M429 238.2l-3.9 2.3M442.7 254.6V249M442.7 249L429 238.2M422.7 260.8l5-3M422.7 266.4l5-3M414 247l-3.9 2.3M427.7 263.4v-5.6M427.7 257.8L414 247M472.6 233.6l5-2.9M472.6 237l5-3M463.9 219.8l-4.2 2.5M477.6 234v-3.3M477.6 230.7l-13.7-10.9M467.6 235.4l5-2.9M467.6 239.9l5-2.9M453.9 224.6l13.7 10.8M467.6 237.3v-1.9M458.9 221.6l-5 3M453.9 226.5v-1.9M472.6 237v-4.5M472.6 232.5l-13.7-10.9M462.6 240.2l5-2.9M462.6 242.9l5-3M453.9 226.5l-2.8 1.6M467.6 239.9v-2.6M467.6 237.3l-13.7-10.8M457.7 240.2l4.9-2.9M457.7 245.8l4.9-2.9M443.9 229.3l13.8 10.9M457.7 241.7v-1.5M448.9 226.4l-5 2.9M443.9 230.8v-1.5M462.6 242.9v-5.6M462.6 237.3l-13.7-10.9M452.7 244.6l5-2.9M452.7 248.7l5-2.9M438.9 233.8l13.8 10.8M452.7 248.7v-4.1M438.9 237.9l13.8 10.8M443.9 230.8l-5 3M438.9 237.9v-4.1M457.7 245.8v-4.1M457.7 241.7l-13.8-10.9M417.7 262.2l5-2.9M417.7 269.3l5-2.9M417.7 269.3v-7.1M409 248.4l-2.8 1.7M422.7 266.4v-7.1M422.7 259.3L409 248.4M402.8 270.3l5-2.9M402.8 278.1l5-2.9M389.1 259.4l13.7 10.9M402.8 272.5v-2.2M394.1 256.5l-5 2.9M389.1 261.7v-2.3M407.8 275.2v-7.8M407.8 267.4l-13.7-10.9M397.8 275.5l5-3M397.8 281.1l5-3M384.1 264.6l13.7 10.9M397.8 277.3v-1.8M389.1 261.7l-5 2.9M384.1 266.5v-1.9M402.8 278.1v-5.6M402.8 272.5l-13.7-10.8M387.8 280.6l5-2.9M387.8 287l5-3M374.1 269.8l13.7 10.8M387.8 284v-3.4M379.1 266.8l-5 3M374.1 273.1v-3.3M392.8 280.3v-2.6M392.8 277.7l-13.7-10.9M382.8 286.9l5-2.9M382.8 289.9l5-2.9M374.1 273.1l-3.1 1.8M387.8 287v-3M387.8 284l-13.7-10.9M392.8 280.3l5-3M392.8 284l5-2.9M392.8 284v-3.7M384.1 266.5l-3.1 1.8M397.8 281.1v-3.8M397.8 277.3l-13.7-10.8M377.8 287.2l5-2.9M377.8 292.8l5-2.9M364.1 276.4l13.7 10.8M377.8 292.8v-5.6M364.1 282l13.7 10.8M369.1 273.4l-5 3M364.1 282v-5.6M382.8 289.9v-5.6M382.8 284.3l-13.7-10.9M428.6 238.4l-3.9-3.1M451.1 256.2l-8.4-6.7M391 229.5l-57.8 34.1M406 220.7l-5.8 3.5M357.1 181.9l-.6-.6M401.4 216.9l-12.2-9.6M328.5 259.9l72.9-43M405.3 214.6l32.8-19.3M389.2 202l16.1 12.6M360.3 179.1l11.6 9.2M405.3 214.6v.7M401.4 216.9v.7M424.7 230l30.2 23.9M442.9 199l-30.5 17.9M378.2 299.2l-45-35.6M378.2 315l-94.6-74.8M328.5 259.9l-44.9-35.6M328.5 260.5v-.6M333.2 263.6v.7M454.9 253.9v.7M487.8 234.6l-32.9 19.3M487.8 250.4L378.2 315M378.2 299.2V315M451.1 256.2l-72.9 43M451.1 256.9v-.7M438.1 195.3v.6M424.1 184.2l14 11.1M393.2 159.7l17 13.4M487.8 234.6v15.8M442.9 199l44.9 35.6M352.9 183.4l3.6-2.1M338 192.2l9.6-5.6M323.6 200.7l4-2.3M283.6 224.3l34-20.1M283.6 224.3v15.9M360.3 179.1l32.9-19.4M360.3 179.8v-.7"/><path fill="none" stroke="#D73D27" stroke-width=".567" stroke-miterlimit="10" d="M337.7 216.3l-1.4-1"/><g><path fill="none" stroke="#D73D27" stroke-width=".567" stroke-miterlimit="10" d="M364.3 237.2l-10-7.8"/><path fill="#D73D27" d="M364.5 235.3l3.8 5-5.9-2.5"/></g><g><path fill="none" stroke="#D73D27" stroke-width=".567" stroke-linecap="round" stroke-linejoin="round" d="M384.5 228.3"/><path fill="none" stroke="#D73D27" stroke-width=".567" stroke-linecap="round" stroke-linejoin="round" stroke-dasharray="0,1.4143" d="M383.4 227.4l-8.3-6.5"/><path fill="none" stroke="#D73D27" stroke-width=".567" stroke-linecap="round" stroke-linejoin="round" d="M374.5 220.4"/><path fill="#D73D27" d="M384.7 226.3l3.8 5.1-5.9-2.5"/></g></g><g class="clickable" data-highlight="#stedelijk,#icon-bacterien,#icon-nutrienten,#icon-drijfvuil,#stedelijk-text" fill="#231F20"><text transform="translate(410.057 535.78)" opacity=".5" font-family="'AvenirNext-Bold'" font-size="12">STEDELIJK</text><g opacity=".5"><path d="M448.4 508.5c-1.7 0-3.3.7-4.4 1.8 1.2.8 1.8 2.3 1.4 4.4h9.3c0-3.4-2.8-6.2-6.3-6.2z"/><path d="M441.5 510.8c-2.2 0-3.9 1.8-3.9 3.9h7.9c-.1-2.2-1.8-3.9-4-3.9zM451.1 490.9v-1.5h-5.3v1.5h-3.4l.1.7v10.5l1.6 1.7v-11.2h1.8v14.1h1.7v-14.1h1.8v14.1h1.7v-14.1h1.9v15.2l1.7 1.5v-18.4"/><g><path d="M441.5 503.9h-8l-.9 10.8h3.2c0-3.1 2.5-5.7 5.7-5.7.4 0 .8 0 1.2.1l.1-.1c.4-.4.9-.8 1.3-1.1v-1.3l-2.6-2.7z"/><path d="M427.7 499.7v15h5v-15l-2.5-6.1-2.5 6.1zm3.7 2.4c0 .7-.6 1.2-1.2 1.2-.7 0-1.2-.6-1.2-1.2 0-.7.6-1.2 1.2-1.2.7 0 1.2.5 1.2 1.2z"/></g></g></g><g class="clickable" data-highlight="#icon-achterland,#achterland,#icon-stedelijk,#stedelijk,#icon-kust,#kust,#sediment-text"><text transform="translate(516.056 11.886)" fill="#F15A22" font-family="'AvenirNext-Bold'" font-size="12">SEDIMENT</text><circle fill="none" stroke="#F15A22" stroke-width="2.835" stroke-miterlimit="10" cx="549.8" cy="50.3" r="23.2"/><path fill="#F15A22" d="M568.1 41.8c-3.3 2.5-6.2 4.7-10.2 4.7-2.3 0-5.1-.7-8.6-2.6-7.8-4.1-13.3-3.5-18.7-1.3-1 2.4-1.6 5.1-1.6 7.9 0 11.4 9.3 20.7 20.7 20.7 11.4 0 20.7-9.3 20.7-20.7 0-3.2-.7-6.2-2-8.9 0 0-.2.1-.3.2z"/><circle fill="#FFF" cx="544.8" cy="67.2" r="2.5"/><circle fill="#FFF" cx="549.9" cy="67.9" r=".7"/><circle fill="#FFF" cx="548.5" cy="69.5" r="1.3"/><circle fill="#FFF" cx="548.4" cy="65.4" r="1.2"/><circle fill="#FFF" cx="550.9" cy="65.5" r="1.2"/><circle fill="#FFF" cx="552.1" cy="68" r="1.4"/><circle fill="#FFF" cx="555.3" cy="68.6" r="1.5"/><circle fill="#FFF" cx="554" cy="65.4" r="1.3"/><circle fill="#FFF" cx="553.5" cy="70" r=".8"/><circle fill="#FFF" cx="550.9" cy="70.1" r=".6"/><circle fill="#FFF" cx="548.1" cy="67.4" r=".6"/><circle fill="#FFF" cx="546.5" cy="63.6" r="1.3"/><circle fill="#FFF" cx="541.1" cy="62.3" r="3.4"/><circle fill="#FFF" cx="545.4" cy="60.8" r="1.1"/><circle fill="#FFF" cx="558.2" cy="67.2" r="1.7"/><circle fill="#FFF" cx="556.3" cy="64.6" r=".9"/><circle fill="#FFF" cx="556" cy="66.3" r=".5"/><circle fill="#FFF" cx="561.1" cy="63.7" r="2"/><circle fill="#FFF" cx="558.3" cy="64.2" r=".7"/><circle fill="#FFF" cx="551.8" cy="62.3" r="2"/><circle fill="#FFF" cx="549.2" cy="63.6" r=".6"/><circle fill="#FFF" cx="548.5" cy="60.1" r="1.8"/><circle fill="#FFF" cx="540.7" cy="67.2" r="1"/><circle fill="#FFF" cx="557.2" cy="59" r="2.9"/><circle fill="#FFF" cx="555.5" cy="62.6" r="1"/><circle fill="#FFF" cx="558.6" cy="62.6" r=".7"/><circle fill="#FFF" cx="552.7" cy="58.4" r="1.4"/><circle fill="#FFF" cx="535.5" cy="59.8" r="2.5"/><circle fill="#FFF" cx="532" cy="58.7" r="1"/><circle fill="#FFF" cx="532.4" cy="60.6" r=".5"/><circle fill="#FFF" cx="534.6" cy="63.1" r=".8"/><circle fill="#FFF" cx="536.6" cy="63.4" r="1.2"/><circle fill="#FFF" cx="537.8" cy="65.7" r="1.1"/><circle fill="#FFF" cx="560.9" cy="66.7" r=".7"/><circle fill="#FFF" cx="564.7" cy="61.3" r="2"/><circle fill="#FFF" cx="563.9" cy="64.4" r=".6"/><circle fill="#FFF" cx="561.6" cy="60.1" r="1.3"/><circle fill="#FFF" cx="567.2" cy="58.2" r="1.6"/></g><g class="clickable" data-highlight="#icon-landbouw,#landbouw,#icon-kust,#kust,#nutrienten-text"><text transform="translate(416.786 11.886)" fill="#F15A22" font-family="'AvenirNext-Bold'" font-size="12">NUTRIENTEN</text><circle fill="none" stroke="#F15A22" stroke-width="2.835" stroke-miterlimit="10" cx="457.9" cy="50.3" r="23.2"/><path fill="#F15A22" d="M476.2 41.4c-3.3 2.5-6.2 4.7-10.2 4.7-2.3 0-5.1-.7-8.6-2.6-7.8-4.1-13.3-3.5-18.7-1.3-1 2.4-1.6 5.1-1.6 7.9 0 11.4 9.3 20.7 20.7 20.7 11.4 0 20.7-9.3 20.7-20.7 0-3.2-.7-6.2-2-8.9 0 0-.1.1-.3.2z"/><circle fill="#FFF" cx="448.8" cy="46.4" r="2.7"/><circle fill="#FFF" cx="456.1" cy="49.7" r="1.8"/><circle fill="#FFF" cx="443.3" cy="53.8" r="1.8"/><circle fill="#FFF" cx="464.6" cy="51.5" r="2.4"/><circle fill="#FFF" cx="472.6" cy="55.7" r="2.4"/><circle fill="#FFF" cx="464.6" cy="63" r="2.2"/><circle fill="#FFF" cx="449.4" cy="62.3" r="2.5"/><text transform="translate(456.43 58.69)" fill="#FFF" font-family="'HelveticaNeue-Bold'" font-size="5.14">N</text><text transform="translate(439.632 49.85)" fill="#FFF" font-family="'HelveticaNeue-Bold'" font-size="5.14">N</text><text transform="translate(455.28 68.018)" fill="#FFF" font-family="'HelveticaNeue-Bold'" font-size="5.14">S</text><text transform="translate(464.175 59.29)" fill="#FFF" font-family="'HelveticaNeue-Bold'" font-size="5.14">S</text><text transform="translate(447.078 58.055)" fill="#FFF" font-family="'HelveticaNeue-Bold'" font-size="5.14">P</text><text transform="translate(472.697 51.537)" fill="#FFF" font-family="'HelveticaNeue-Bold'" font-size="5.14">P</text></g><g class="clickable" data-highlight="#icon-landbouw,#landbouw,#zuurstof-text,#zuurstof-text"><text transform="translate(331.407 11.886)" fill="#F15A22" font-family="'AvenirNext-Bold'" font-size="12">ZUURSTOF</text><text transform="matrix(1 0 0 1 352.69 59.055)" fill="#F15A22" font-family="'HelveticaNeue-Bold'" font-size="24.268">O</text><text transform="matrix(.583 0 0 .583 371.57 50.974)" fill="#F15A22" font-family="'HelveticaNeue-Bold'" font-size="24.268">2</text><circle fill="none" stroke="#F15A22" stroke-width="2.835" stroke-miterlimit="10" cx="366" cy="50.3" r="23.2"/><path fill="none" stroke="#F15A22" stroke-width="2.835" stroke-miterlimit="10" d="M380.4 32.1l-30.7 34.7"/></g><g class="clickable" data-highlight="#icon-industrie,#industrie,#chemisch-text"><text transform="translate(239.367 11.886)" fill="#F15A22" font-family="'AvenirNext-Bold'" font-size="12">CHEMISCH</text><circle fill="none" stroke="#F15A22" stroke-width="2.835" stroke-miterlimit="10" cx="274.2" cy="50.3" r="23.2"/><path fill="#F15A22" d="M265.8 60.7c0 .4.3.7.7.7h15.3c.4 0 .7-.3.7-.7 0-.4-.3-.7-.7-.7v-2.3h-15.3V60c-.4 0-.7.3-.7.7m6.1-9.5c0-1.2 2.3-4.5 2.3-4.5s2.3 3.3 2.3 4.5c0 1.2-1 2.3-2.3 2.3-1.3 0-2.3-1-2.3-2.3m-5.5 5.2h15.3V43.8h-15.3v12.6zm16-16.9c0-.4-.3-.7-.7-.7h-15.3c-.4 0-.7.3-.7.7 0 .4.3.7.7.7v2.3h15.3v-2.3c.4 0 .7-.3.7-.7"/></g><g class="clickable" data-highlight="#icon-stedelijk,#stedelijk,#drijfvuil-text"><text transform="translate(148.936 11.886)" fill="#F15A22" font-family="'AvenirNext-Bold'" font-size="12">DRIJFVUIL</text><circle fill="none" stroke="#F15A22" stroke-width="2.835" stroke-miterlimit="10" cx="182.3" cy="50.3" r="23.2"/><path fill="#F15A22" d="M188.2 48.1c.3-.2.6-.3.9-.4 1-.2 2.1 0 2.9.7l.3.3c.4.4.7.7 1.3 1 .6.3 1.4.5 2.1.5v-1.4c-.5 0-1-.1-1.4-.3-.3-.2-.6-.4-.9-.8l-.4-.4c-1.1-1-2.7-1.4-4.2-1.1-.3.1-.7.2-1 .4-.1-.1-.2-.3-.3-.4-.5-.7-.4-1-.3-1.3l1.5-2.7 1.1-1.9c.2-.3.1-.8-.3-1l-.1-.1v-.1c.2-.3.1-.8-.3-1l-.9-.5c-.2-.1-.4-.1-.5-.1-.2 0-.3.2-.4.3v.1l-.1-.1c-.2-.1-.4-.1-.5-.1-.2 0-.3.2-.4.3l-1.2 2.1-1.4 2.5c-.2.3-.4.5-1.3.4-1.6-.2-2.4.5-2.7 1.1l-1 1.8c-1.2-.1-2.3.3-3.2 1.1-.2.2-.4.3-.5.5-.2.2-.4.5-.7.6-.5.3-1 .4-1.5.5-1.1 0-1.9-.5-2.7-1.3-.8-.8-2-1.3-3.2-1.3v1.4c.8 0 1.6.3 2.2.9.9.9 2 1.8 3.6 1.8h.2c.8 0 1.5-.3 2.2-.7.4-.2.7-.6 1-.8l.4-.4c.4-.3.9-.6 1.4-.7l-3.9 6.8c-.3.2-.7.2-1.1.3-1.1 0-1.9-.5-2.7-1.3-.8-.8-2-1.3-3.2-1.3v1.4c.8 0 1.6.3 2.2.9.9.9 2 1.8 3.6 1.8h.2c.8 0 1.5-.3 2.2-.7.4-.2.7-.6 1-.8l.4-.4c.8-.7 1.9-.9 2.9-.6.5.1 1 .4 1.3.8l.1.1c.4.4.8.8 1.4 1.1 1.4.7 3 .7 4.3-.1.5-.3.8-.6 1.1-.9l.4-.4c.4-.3.8-.5 1.3-.7 1-.2 2.1 0 2.9.7l.3.3c.4.4.7.7 1.3 1 .6.3 1.4.5 2.1.5v-1.4c-.5 0-1-.1-1.4-.3-.3-.2-.6-.4-.9-.8l-.4-.4c-1.1-1-2.7-1.4-4.2-1.1-.7.2-1.3.5-1.9 1-.2.2-.4.3-.5.5-.3.3-.5.5-.8.7-.3.2-.6.3-.9.3l3.2-5.6c-.1-.1 0-.5 0-.8zm-1.1-8.6l1.2.7-.5.8-1.2-.7.5-.8zm-.4 8.9l-3.6 6.2c-.1 0-.3-.1-.4-.2-.4-.2-.7-.5-1-.8l-.2-.2c-.5-.5-1.2-.9-1.9-1.2-1-.3-2-.2-3 .2l4.3-7.4c.2-.3.4-.5 1.3-.4 1.3.2 2.2-.2 2.7-1.1l1.1-1.9 1.2.7-1.1 1.9c-.5.9-.4 1.9.4 2.9.4.6.3 1 .2 1.3zm6.7 11.2l-.4-.4c-1.1-1-2.7-1.4-4.2-1.1-.7.2-1.3.5-1.9 1-.2.2-.4.3-.5.5-.3.3-.5.5-.8.7-.9.5-2 .5-3 .1-.4-.2-.7-.5-1-.8l-.2-.2c-.5-.5-1.2-.9-2-1.2-1.5-.4-3.1-.1-4.2.9-.2.2-.4.3-.5.5-.2.2-.4.5-.7.6-.5.3-1 .4-1.5.5-1.1 0-1.9-.5-2.7-1.3-.8-.8-2-1.3-3.2-1.3v1.4c.8 0 1.6.3 2.2.9.9.9 2.1 1.8 3.8 1.8.8 0 1.5-.3 2.2-.7.4-.2.7-.6 1-.8l.4-.4c.8-.7 1.9-.9 2.9-.6.5.1 1 .4 1.3.8l.2.2c.4.4.8.8 1.4 1.1 1.4.7 3 .7 4.3-.1.5-.3.8-.6 1.1-.9l.4-.4c.4-.3.8-.5 1.3-.7 1-.2 2.1 0 2.9.7l.3.3c.4.4.7.7 1.3 1 .6.3 1.4.5 2.1.5v-1.4c-.5 0-1-.1-1.4-.3l-.9-.9z"/></g><g class="clickable" data-highlight="#achterland,#icon-achterland,#stedelijk,#icon-stedelijk,#bacterien-text"><text transform="translate(53.914 11.886)" fill="#F15A22" font-family="'AvenirNext-Bold'" font-size="12">BACTERIEN</text><circle fill="none" stroke="#F15A22" stroke-width="2.835" stroke-miterlimit="10" cx="90.4" cy="50.3" r="23.2"/><path fill="#F15A22" d="M100 57.3l-1.8-1.9c.2-.2.3-.4.4-.6l2.3 1.4-2-1.8c.2-.3.4-.5.6-.8.1-.1.1-.2.2-.3l2.4 1.2-2.1-1.6c.1-.2.3-.4.4-.7l2.5 1-2.2-1.5c.1-.2.2-.5.3-.7l2.6.8-2.4-1.2c.1-.2.2-.5.3-.8l2.6.5-2.5-1c.1-.3.1-.5.2-.8l2.7.1-2.6-.6c0-.3.1-.6.1-.9l2.7-.3-2.7-.1c0-.3 0-.6-.1-.9l2.6-.8-2.6.4-.3-.9 2.4-1.3-2.5 1c-.1-.3-.3-.5-.5-.8l2-1.8-2.2 1.5c-.2-.2-.4-.5-.6-.7l1.6-2.1-1.9 1.8c-.2-.2-.4-.4-.7-.5l1.3-2.4-1.6 2.1c-.1-.1-.2-.1-.4-.2s-.3-.2-.5-.2l.8-2.6-1.1 2.4c-.4-.1-.7-.2-1.1-.3l.1-2.7-.4 2.6c-.4 0-.8 0-1.1.1L94 38l.4 2.6c-.3.1-.7.2-1 .4L92 38.7l1 2.5c-.3.2-.6.3-.8.5l-1.8-2 1.4 2.3c-.2.2-.5.4-.7.6L89 41l1.7 2.1-.4.4-2.1-1.6 1.7 2.1-.4.4-2.1-1.6 1.7 2.1-.4.4-2.1-1.6 1.7 2.1-.4.4-2.1-1.7 1.6 2.1c-.2.1-.3.3-.4.4l-2.1-1.7 1.5 2.2c-.1.1-.1.1-.2.1l-1.7-2.1 1.1 2.4c-.1.1-.2.1-.3.2l-1.4-2.3 1 2.5c-.1.1-.2.1-.4.2l-1.4-2.3.9 2.5c-.1.1-.3.1-.4.2l-1.3-2.3.9 2.5c-.1.1-.3.1-.4.2L81.5 47l.9 2.5c-.2.1-.3.1-.4.2l-1.3-2.3 1 2.5c-.4.2-.7.4-1 .7l-2-1.8 1.8 2c-.3.3-.5.7-.7 1l-2.5-1 2.3 1.3c-.2.4-.3.8-.3 1.2l-2.7-.1 2.6.5v1.2l-2.6.7 2.7-.3c.1.4.2.8.4 1.2L77.5 58l2.4-1.2c.1.2.2.3.4.5.1.1.2.3.4.4l-1.6 2.1L81 58l.9.6-1.1 2.5 1.5-2.2c.3.1.6.3.9.4l-.6 2.6 1.1-2.4c.3.1.6.2.9.2l-.2 2.7.8-2.6c.3.1.6.1.9.1v2.7l.6-2.6h.8l.3 2.7.4-2.7h.8l.4 2.7.2-2.7c.3 0 .5 0 .8-.1l.6 2.6v-2.7c.3 0 .5-.1.8-.1l.8 2.6-.3-2.7c.3-.1.5-.1.8-.2l1.1 2.4-.7-2.6c.3-.1.5-.2.8-.3l1.5 2.2-1.1-2.5c.1-.1.3-.2.4-.2.1-.1.2-.1.3-.2l1.8 2-1.8-2.2c.2-.2.4-.3.6-.5l1.9 1.9-1.5-2.2c.2-.2.4-.3.5-.5l2.1 1.7-1.7-2.1c.2-.2.3-.4.5-.5l2.2 1.5z"/></g><g class="clickable" data-highlight="#icon-achterland,#icon-bacterien,#icon-sediment,#achterland-text"><g opacity=".5"><path fill="#004261" d="M97.3 404.1V397l4.6 3.7v7"/><path fill="#231F20" d="M97.4 397.2l4.4 3.5v6.9l-4.4-3.5v-6.9m-.2-.3v7.3l4.7 3.7v-7.2l-4.7-3.8z"/></g><path fill="#004261" d="M161.2 426.7c-6.5 0-11.5-1.8-16.7-6-4.4-3.4-8.6-8.4-11.7-13.7-1.9-3.2-2.9-5.9-3-7.9.1-1.3.7-2.2 1.8-2.7.7-.3 1.3-.3 1.9-.3h.3c1 0 2.1.2 3 .3 1.6.3 3.2.6 4.7.9 1.3.3 2.6.5 3.9.8 3.8.7 6.7.9 10 .9 2.2 0 4.4-.1 7.2-.3h.3c2-.1 4-.2 6.1-.2 4.6 0 8.2.5 11.3 1.7 2.8 1.1 5.4 2.6 7.5 4.5 1.9 1.7 4.1 4.3 4.3 7.4 0 .1-.1.8-.1 1l-.3.9c-.2.6-.6 1.2-1.1 1.8-1.1 1.5-2.6 2.5-3.7 3.3-2.8 1.9-5.8 3.1-8.1 4-6.4 2.4-12.3 3.6-17.5 3.6h-.1z"/><path fill="#231F20" d="M133.5 396.2h.3c1 0 2 .2 3 .3 1.6.3 3.2.6 4.7.9 1.3.3 2.6.5 3.9.8 3.8.7 6.7.9 10 .9 2.2 0 4.4-.1 7.2-.3h.3c2-.1 4-.2 6.1-.2 4.6 0 8.2.5 11.2 1.7 2.8 1 5.4 2.6 7.5 4.5 1.5 1.4 4.1 4.1 4.3 7.3 0 .1-.1.7-.1.9l-.3.9c-.2.6-.6 1.2-1 1.8-1.1 1.5-2.6 2.5-3.7 3.3-2.8 1.9-5.8 3.1-8.1 4-6.4 2.4-12.3 3.6-17.4 3.6h-.2c-6.4 0-11.4-1.8-16.7-5.9-4.4-3.4-8.6-8.4-11.7-13.7-1.9-3.2-2.9-5.9-3-7.9.1-1.3.7-2.2 1.8-2.6.7-.3 1.4-.3 1.9-.3m0-.1c-.7 0-1.3.1-1.9.3-1.3.5-1.8 1.5-1.9 2.7.1 2.6 1.8 5.8 3 7.9 2.9 5 7.1 10.1 11.7 13.7 5.1 4 10.2 5.9 16.8 6h.2c5.9 0 12.1-1.6 17.5-3.6 2.9-1.1 5.6-2.3 8.1-4 1.4-.9 2.7-1.9 3.7-3.3.4-.6.8-1.2 1.1-1.8.1-.3.2-.6.3-1 0-.1.2-.8.1-1-.2-3-2.4-5.6-4.4-7.4-2.2-1.9-4.8-3.5-7.5-4.5-3.6-1.4-7.5-1.7-11.3-1.7-2.1 0-4.1.1-6.1.2-2.9.1-5.3.3-7.6.3-3.1 0-6-.2-10-.9-2.9-.5-5.7-1.2-8.6-1.7-1-.2-2-.3-3-.3 0 .1-.1.1-.2.1z"/><path fill="#004261" d="M97.3 396.9l54.8-32.3 4 3.3-54.2 32v.6"/><path fill="#231F20" d="M152 364.7l4 3.2-54.1 31.9h-.1v.5l-4.3-3.4 54.5-32.2m0-.1l-54.8 32.3 4.7 3.7v-.7l54.3-32-4.2-3.3z"/><path fill="#004261" d="M85 333s.1 0 .3-.1c.2 0 .6-.1 1-.1.8-.1 2.1-.2 3.7-.1.8 0 1.7.1 2.6.3 1 .2 2 .5 3.1 1.2 1.1.6 2.2 1.7 2.7 3.1.5 1.4.5 2.9.1 4.3-.7 2.7-2.2 5.1-4 7.4-.9 1.1-1.8 2.3-2.8 3.4-.5.6-1 1.1-1.5 1.7-.5.6-1 1.2-1.6 1.7-2.2 2.2-4.6 4.3-6.6 6.8-1 1.2-1.9 2.6-2.2 3.9-.1.7 0 1 .3 1.3.3.3 1 .6 1.7.7 2.9.7 6.2.3 9.5.4 1.6 0 3.3.1 4.9.2 1.6.1 3.2.3 4.8.5 3.1.5 6.1 1.2 8.9 2.2 2.8 1 5.3 2.3 7.3 4 2 1.7 3.6 3.8 4 6.1.2 1.1.1 2.2-.1 3.1-.3.9-.7 1.7-1.2 2.3-1 1.2-2 1.8-2.8 2.1-.7.3-1.1.4-1.1.4l-.1-.3s.4-.2 1-.6c.6-.4 1.5-1.1 2.2-2.3.7-1.1 1.1-2.8.5-4.5-.5-1.7-1.9-3.3-3.8-4.6-1.9-1.3-4.2-2.4-6.8-3.2-2.6-.8-5.5-1.4-8.4-1.9-3-.4-6.1-.7-9.3-.9-1.6-.1-3.2-.1-4.9-.2-1.7-.1-3.4-.2-5.2-.7-.9-.3-1.8-.7-2.6-1.6-.4-.4-.7-1-.8-1.6-.1-.6 0-1.2.2-1.6.3-1 .8-1.7 1.3-2.4s1.1-1.3 1.7-1.9c2.3-2.4 4.8-4.4 7-6.5 2.1-2.1 3.8-4.7 5.2-7.1 1.4-2.4 2.5-4.8 2.8-7 .2-1.1.1-2-.3-2.7-.3-.7-.9-1.2-1.6-1.5-1.4-.7-3-.7-4.3-.7-1.3 0-2.3.2-3 .3-.4.1-.6.1-.8.2-.2 0-.3.1-.3.1L85 333z"/><path fill="#004261" d="M90.7 334.5c.1.8-2.3 1.6-4.5 2.2-2.2.5-4.2.8-5.3.2-1-.6-1.1-2.2-.2-3.1.9-.9 2.9-1.2 5.1-1 2.3.1 4.9.9 4.9 1.7z"/><path fill="none" stroke="#231F20" stroke-width=".142" stroke-miterlimit="10" d="M90.7 334.5c.1.8-2.3 1.6-4.5 2.2-2.2.5-4.2.8-5.3.2-1-.6-1.1-2.2-.2-3.1.9-.9 2.9-1.2 5.1-1 2.3.1 4.9.9 4.9 1.7z"/><path fill="none" stroke="#231F20" stroke-width=".85" stroke-miterlimit="10" d="M215.4 414l-58.6-46.4-.5.3-4.3-3.3v-.7l-58.6-46.4-54.8 32.3v15.9l122 96.5 54.8-32.3z"/><path fill="none" stroke="#231F20" stroke-width=".283" stroke-miterlimit="10" d="M38.6 349.8l54.8-32.3M160.6 446.3l-58.7-46.4M160.6 462.2l-122-96.5M97.2 396.2l-58.6-46.4M97.2 404.1v-7.9M101.9 407.9l-4.7-3.8M101.9 399.9v8M215.4 429.9l-54.8 32.3M160.6 446.3v15.9M215.4 414l-54.8 32.3M152 363.9v.7M93.4 317.5l58.6 46.4M215.4 414v15.9M156.8 367.6l58.6 46.4M38.6 349.8v15.9M132.8 407c-1.1-1.8-2-3.7-2.6-5.8-.3-1.2-.7-2.7-.2-4 .4-1.2 1.4-1.7 2.6-1.8.8-.1 1.6-.1 2.4 0 1 .1 2 .3 3 .4 2.9.5 5.8 1.2 8.7 1.7 3.7.6 6.5.8 10.2.7 5.9-.1 13.1-1 19.1 0 3.4.6 6.6 1.8 9.5 3.7 2.3 1.6 4.7 3.7 6 6.3 1.4 2.8 1.2 5.3-.8 7.7-1.1 1.3-2.3 2.3-3.7 3.2-1.7 1.1-3.4 2-5.2 2.7-5.5 2.4-12.4 4.4-18.4 4.7-6.9.3-12.4-1.2-17.9-5.3-5.2-3.5-9.7-8.9-12.7-14.2zM97.2 396.2l54.8-32.3M156.8 367.6l-54.9 32.3M73.1 337.3c.1 0 .2-.1.3-.1 3.8-.4 6.6 1.2 7.2 3.5.2.6.2 1.3.2 2.4v.5c-.1 1-.3 1.8-.6 2.8-.3.7-.6 1.4-1 2.1-.1.2-.2.4-.4.6-.5.8-1 1.6-1.8 2.3-.8.6-1.8 1.2-3 1.4-.7.1-1.5.1-2.2 0-1.5-.2-3-.8-4.2-1.3h-.1c-1.2-.6-2.2-1.3-3-2.1-.1-.2-.3-.3-.4-.5-.5-.8-.8-1.8-.8-2.7 0-.5.2-.9.3-1.4.3-.8.8-1.6 1.5-2.3M77.4 365h-1.3M76 365c-3.3-.2-6.7-1.4-9.6-3M65.5 361.4c-1.5-.9-2.8-2-3.9-3.3M61.1 357.7c-.4-.5-.9-1.1-1.3-1.6s-.7-1.1-1-1.7c-.3-.6-.5-1.2-.7-1.8-.2-.6-.3-1.2-.3-1.8-.1-.7 0-1.4 0-2.1.1-.7.2-1.3.3-2l.6-1.8c.3-.6.6-1.3 1-1.9"/><path fill="none" stroke="#231F20" stroke-width=".283" stroke-miterlimit="10" d="M60.1 342.8c.8-1.1 1.7-2.2 2.7-3.1 1.2-1.1 2.4-2.1 3.7-3 1.4-1 3-1.9 4.5-2.7 1.6-.8 3.3-1.6 5-2.3 2-.8 4-1.4 6-2 1.9-.5 3.8-.9 5.8-1.2 1.5-.2 3-.3 4.6-.3 1.4 0 2.9.2 4.3.5 1.5.3 2.9.7 4.3 1.3 1.6.6 3.1 1.4 4.5 2.2 1.1.7 2.2 1.4 3.2 2.1.4.3.9.6 1.3 1 .9.6 1.8 1.3 2.6 1.9l5.4 3.9c.9.7 1.8 1.3 2.8 2 2.4 1.7 4.7 3.5 7 5.4 1.7 1.4 3.3 2.8 4.8 4.2l1.5 1.5c.4.5.8.9 1.2 1.4.2.3.4.7.6 1.1.2.4.3.7.3 1.1 0 .4 0 .7-.1 1.1-.1.4-.3.7-.5 1-.3.4-.6.7-1 1-.4.3-.8.6-1.2.8-.5.3-1.1.6-1.7.8-.7.3-1.4.5-2.1.7-1.4.4-2.8.7-4.2.8-1.3.1-2.7.2-4 .2-1.9 0-3.8-.1-5.6-.2-1.8-.2-3.7-.4-5.5-.6-2.3-.3-4.7-.8-7-1.1-.8-.1-1.5-.2-2.3-.3-1.7-.2-3.4-.3-5.1-.3-1.9 0-3.8.2-5.7.6-.9.2-1.8.3-2.7.6-1.6.4-3.1.8-4.6 1.2-.5.1-1.1.3-1.7.4-1.2.3-2.5.5-3.8.5"/><path fill="none" stroke="#231F20" stroke-width=".283" stroke-miterlimit="10" d="M73.7 338.1c0 .3-.1.4-.3.5-.2.1-.4.1-.7 0-.4-.1-.9-.4-.9-.9 0-.3.1-.4.3-.5.2-.1.4 0 .7 0 .3.1.8.5.9.9z"/><path fill="none" stroke="#231F20" stroke-width=".283" stroke-miterlimit="10" d="M73.4 337.4c.6.3 1.3 1.1 1 1.8-.1.4-.5.6-.9.7-.4.1-.7 0-1.1-.1-.7-.2-1.4-.7-1.7-1.4-.3-.9.3-1.4 1.1-1.4M72.7 337.1c.1 0 .1 0 .2.1"/><path fill="none" stroke="#231F20" stroke-width=".283" stroke-miterlimit="10" d="M74.3 338.1c.6.6 1.1 1.6.4 2.3-.6.7-1.7.6-2.4.4-.8-.2-1.6-.7-2-1.5-.5-.8-.3-1.8.6-2.1M74.6 338.4c0 .1 0 .1 0 0"/><path fill="none" stroke="#231F20" stroke-width=".283" stroke-miterlimit="10" d="M74.8 338.7c.6.7 1 1.9.1 2.7-.7.7-2 .6-2.8.4-.9-.3-1.9-.8-2.4-1.7-.5-.9-.5-2.1.5-2.6M70.4 337.4c.1 0 .1-.1.2-.1"/><path fill="none" stroke="#231F20" stroke-width=".283" stroke-miterlimit="10" d="M75.2 339.1c.7.9.9 2.2 0 3.1-.8.8-2.2.8-3.2.5-1-.3-2.1-.9-2.7-1.8-.6-.9-.7-2.3.4-3"/><path fill="none" stroke="#231F20" stroke-width=".283" stroke-miterlimit="10" d="M75.4 339.4c.8 1 1 2.4.1 3.4-.9.9-2.4.9-3.5.7-1.1-.3-2.4-1-3.1-2-.7-1-.8-2.5.3-3.4"/><path fill="none" stroke="#231F20" stroke-width=".283" stroke-miterlimit="10" d="M75.6 339.7c.9 1.1 1.1 2.7.2 3.8-.9 1.1-2.6 1.2-3.8.9-1.2-.3-2.7-1-3.5-2.1-.8-1.1-.9-2.8.2-3.7M68.8 338.5c.1 0 .1-.1 0 0M75.6 339.6c0 .1 0 .1 0 0"/><path fill="none" stroke="#231F20" stroke-width=".283" stroke-miterlimit="10" d="M75.7 339.7c1.1 1.1 1.4 2.8.6 4.2-.9 1.4-2.7 1.6-4.1 1.4-1.4-.2-3-1-4-2.1-1-1.2-1.2-3 0-4.1M68.3 339l.2-.2"/><path fill="none" stroke="#231F20" stroke-width=".283" stroke-miterlimit="10" d="M75.7 339.7c.6.6 1.1 1.3 1.2 2.1.2.8 0 1.7-.3 2.4-.8 1.7-2.7 2.1-4.3 1.8-1.5-.2-3.4-1-4.4-2.2-1.2-1.3-1.4-3.2-.1-4.5"/><path fill="none" stroke="#231F20" stroke-width=".283" stroke-miterlimit="10" d="M75.7 339.7c.7.6 1.3 1.3 1.5 2.2.2.8.1 1.9-.2 2.7-.7 1.9-2.7 2.5-4.5 2.3-1.6-.2-3.7-1-4.9-2.2-1.4-1.4-1.6-3.5-.2-4.9M67.5 339.8l.1-.1"/><path fill="none" stroke="#231F20" stroke-width=".283" stroke-miterlimit="10" d="M75.6 339.6c1.9 1.2 2.4 3.1 1.8 5.2-.6 2.1-2.5 3.1-4.6 3-1.8-.1-4.1-1-5.4-2.2-.7-.7-1.2-1.5-1.3-2.6-.1-1 .3-2 .9-2.7M67.1 340.2l.1-.1"/><path fill="none" stroke="#231F20" stroke-width=".283" stroke-miterlimit="10" d="M75.5 339.5c.9.5 1.7 1.3 2.2 2.3.5 1.1.4 2.1.1 3.2-.3 1-.7 2-1.7 2.7-.9.7-2 .9-3 .9-1.9 0-4.5-1-5.9-2.2-.8-.7-1.4-1.6-1.5-2.8-.1-1.1.3-2.2 1-3"/><path fill="none" stroke="#231F20" stroke-width=".283" stroke-miterlimit="10" d="M75.3 339.3c1.1.5 2 1.3 2.5 2.3.6 1.2.6 2.2.4 3.4-.3 1.1-.7 2.3-1.6 3.1-.8.8-2 1.2-3.2 1.3-2.1.1-4.9-.9-6.5-2.2-.9-.7-1.6-1.7-1.8-2.9-.1-1.2.3-2.3 1.1-3.2"/><path fill="none" stroke="#231F20" stroke-width=".283" stroke-miterlimit="10" d="M75 339c1.2.4 2.3 1.2 3 2.3.7 1.1 1 2.3.7 3.7-.2 1.1-.8 2.6-1.5 3.5-.8 1-2 1.6-3.3 1.8-2.3.4-5.4-.8-7.2-2.1-1-.8-1.9-1.8-2-3.1-.2-1.3.4-2.6 1.2-3.5"/><path fill="none" stroke="#231F20" stroke-width=".283" stroke-miterlimit="10" d="M74.6 338.4c1.5.2 2.6.9 3.5 2.1.9 1.1 1.3 2.5 1.2 3.9-.1 1.2-.8 2.9-1.4 3.9-.8 1.3-1.8 2.1-3.2 2.5-1.4.4-2.8.2-4.1-.2-1.3-.4-2.7-1-3.8-1.7-1.2-.8-2.1-1.8-2.4-3.3-.2-1.4.4-2.8 1.3-3.8M74.6 338.4"/><path fill="none" stroke="#231F20" stroke-width=".283" stroke-miterlimit="10" d="M76.4 337.9c1.5.4 2.4 1.7 3 3 .6 1.4.8 2.7.4 4.3-.3 1.2-1.1 3-1.8 4-.8 1.3-2 2.1-3.5 2.5-1.4.4-3 .1-4.3-.2-1.3-.4-2.8-1-4-1.8-1.2-.8-2.2-2-2.4-3.5-.2-1.5.6-3 1.5-4M65.6 341.9l.1-.1M73.9 337.8c.8-.1 1.6-.1 2.4.1M112.7 344.7c1.4-.2 4.1 1.2 5.1 1.8.7.4 1.6 1.1 2 1.8.5.9.3 1.9-.7 2.3-1.7.8-3.9-.6-5-1.6-.7-.6-1.3-1.3-1.7-2.1-.2-.4-.4-.8-.4-1.2-.1-.5.1-.9.7-1z"/><path fill="none" stroke="#231F20" stroke-width=".283" stroke-miterlimit="10" d="M80.1 332.9c2.8-1.2 5.5-1.8 8.5-1.8 1.6 0 3.1.2 4.5.8 1.1.4 2.6 1.2 3.5 2.2 1.3 1.6-.2 2-1.7 2.3-1.6.3-3.2.4-4.8.8-1.6.3-3.1.7-4.5 1.5-1.3.6-2.2 1.4-2.8 2.7-.3.7-.5 1.3-.7 2-.2.7-.4 1.4-.7 2-.6 1.4-1.3 2.6-2.1 3.9-.7 1.1-1.4 2.2-2.6 3-1.4 1-2.9 1.3-4.6 1.2-2.5-.2-6.1-1.6-7.9-3.5-.9-1-1.6-2.5-1.3-4 .3-1.4 1.3-2.8 2.2-3.8M72.1 337c2.2-1.3 5.6-3.2 7.9-4.2"/><path fill="none" stroke="#231F20" stroke-width=".283" stroke-miterlimit="10" d="M84.5 330.8c2.6-.5 5.5-.6 8.2-.1 2.6.5 4.8 1.6 7 2.9 2.3 1.3 4.4 2.9 6.6 4.3 2.2 1.4 4.6 2.7 6.8 4.1 1.4.9 5.8 3.7 7.1 4.7.9.7 2 1.6 2.3 2.9.3 1.2-.5 2.4-1.5 3-1.3.8-2.9.8-4.2.4-1.4-.3-2.5-.9-3.7-1.7-2.3-1.4-3.8-3-5.6-4.9-1.7-1.9-3.2-3.5-5.5-4.8-2.4-1.4-5.4-2.2-8.2-2.2-2.8-.1-6 .5-8.3 2.4-1 .8-1.6 1.7-2.3 2.7-.6 1-1.2 1.9-1.9 2.9s-1.4 1.9-2 2.9c-.7 1-1.4 1.9-2.4 2.7-2.7 1.9-5.6 1.5-8.3.5-1.4-.5-2.8-1.2-4-2.2-1-.8-1.7-1.9-2-3.2-.3-1.3 0-2.3.6-3.4.7-1.2 1.5-2.1 2.5-3.1M70.8 337.2c4-3 8.7-5.5 13.7-6.5"/><path fill="none" stroke="#231F20" stroke-width=".283" stroke-miterlimit="10" d="M86.5 330.1c3.4-.4 6.5-.1 9.8 1.1 2.9 1 5.5 2.5 8.1 4.1 1.8 1.1 6.4 4 8.1 5.2 2.6 1.7 5.2 3.6 7.7 5.4 1.2.8 2.6 1.9 3.4 3.1.9 1.3.9 2.4 0 3.7-1 1.5-2.6 2-4.3 2.2-1.9.1-3.6-.3-5.3-1-3-1.3-5.5-3.1-8-5.2-2.5-2-4.8-4-7.8-5.3-1.6-.7-3.2-1.2-4.9-1.2-1.8-.1-3.3.3-4.9 1.1-2.6 1.3-4.9 3.5-6.8 5.6-.5.5-.9 1.1-1.4 1.6-.4.5-.9 1.1-1.3 1.6-1 1.2-2.1 2.1-3.6 2.7-1.7.6-3.5.5-5.2.1-1.7-.4-3.2-1-4.6-1.9-1.4-.9-2.6-2-3.2-3.6-.6-1.6-.2-2.8.6-4.2.8-1.4 1.9-2.6 2.9-3.8 1.1-1.3 2.2-2.5 3.5-3.6 4.9-4.2 10.9-7 17.2-7.7z"/><path fill="none" stroke="#231F20" stroke-width=".283" stroke-miterlimit="10" d="M75.3 333.2c5.5-2.8 12.6-4.4 18.9-3.1 3.4.7 6.3 2.1 9.3 3.8 2.3 1.3 5.8 3.6 8 5 3.4 2.2 5 3.5 8.2 5.9 1.3 1 2.7 1.9 3.9 3 1 .9 2.2 2.2 2.3 3.7.1 1.4-.9 2.6-1.9 3.3-1.4 1-3.2 1.4-4.8 1.4-3.4 0-7-1.6-9.8-3.1-2.8-1.5-5.3-3.4-8-5-1.4-.8-2.8-1.6-4.3-2.2-1.7-.7-3.2-1.1-5.1-.9-1.7.2-3.5.9-5.1 1.6-1.5.7-2.9 1.5-4.2 2.6-1.2 1-2.2 2-3.2 3.2-.5.6-1 1.1-1.5 1.6-.6.5-1.3 1-2 1.4-1.8.9-3.6.8-5.4.4-1.8-.4-3.4-1-5-1.9-1.3-.8-2.5-1.8-3.3-3.2-.7-1.2-.9-2.5-.4-3.8.5-1.3 1.5-2.8 2.4-3.8.9-1.2 1.8-2.5 2.9-3.7 2.3-2.6 5-4.6 8.1-6.2z"/><path fill="none" stroke="#231F20" stroke-width=".283" stroke-miterlimit="10" d="M79.8 331.1c3.1-1 6.6-1.6 9.8-1.7 3.4 0 6.5.6 9.7 1.9 3.2 1.3 6 3 8.9 4.9 2.7 1.8 5.5 3.6 8.1 5.5 1.4 1 2.9 2.1 4.3 3.2s2.8 2.1 4.1 3.3c1 1 2.3 2.3 2.6 3.9.3 1.7-.7 3-2 3.9-2.8 2-6.8 1.8-9.8 1.1-3-.7-6.4-2.2-9.1-3.6-2.8-1.5-5.5-3.1-8.5-4.3-3.7-1.5-6.3-1.5-10.1-.5-1.7.4-3.3 1-4.7 2-1.3.8-2.4 1.9-3.5 3-2.7 2.9-5 4-9 3.1-3.2-.7-7.3-2.5-8.8-5.8-.7-1.5-.7-2.7.1-4.2.7-1.4 1.6-2.6 2.5-3.9 1-1.6 1.4-2.2 2.7-3.7 1.1-1.2 2.3-2.2 3.6-3.2 2.5-2.2 5.8-3.9 9.1-4.9z"/><path fill="none" stroke="#231F20" stroke-width=".283" stroke-miterlimit="10" d="M82 330.3c3.3-.8 6.9-1.3 10.3-1 3.4.3 6.5 1.2 9.6 2.7 3.1 1.5 6 3.4 8.8 5.4 2.8 1.9 5.5 3.8 8.2 5.8 1.5 1.1 2.9 2.2 4.3 3.3 1.4 1.1 2.7 2.2 3.8 3.6.9 1.1 1.8 2.6 1.4 4.2-.4 1.7-2.1 2.9-3.6 3.5-1.6.7-3.4.9-5 1-1.8 0-3.5-.2-5.2-.6-3.3-.8-6.3-2-9.4-3.4-3-1.3-5.9-2.8-9.2-3.7-1.7-.5-3.4-.7-5.2-.7-1.8 0-3.5.2-5.2.7-1.7.4-3.2 1.2-4.5 2.2-1.2.9-2.2 2.1-3.4 3.1-1.5 1.1-2.9 1.7-4.8 1.7-1.7 0-3.7-.5-5.3-1.1-1.7-.7-3.5-1.7-4.9-3.1-1-1.1-2-2.8-2.1-4.3 0-.8.2-1.5.5-2.2.4-.8.8-1.5 1.2-2.2l1.2-2.1c.4-.7.8-1.5 1.3-2.2 1.8-2.6 4.4-4.7 7.1-6.3 3.1-2 6.6-3.4 10.1-4.3z"/><path fill="none" stroke="#231F20" stroke-width=".283" stroke-miterlimit="10" d="M83.6 329.8c7.4-1.5 13.5-.8 20.3 2.9 2.6 1.4 6.4 4.1 8.9 5.8 2.9 2 5.7 4 8.4 6.1 2.4 1.8 6.2 4.5 7.8 7.2.8 1.3 1.3 2.9.5 4.4-.9 1.6-3 2.6-4.6 3-6.7 2-14.5-.8-20.4-3-3.2-1.2-6.3-2.5-9.7-3.3-3.1-.7-7.4-.9-10.6 0-1.8.6-3 1.4-4.3 2.6-1.2 1.1-2.3 2.2-3.8 2.9-3.2 1.4-7.9.1-10.6-1.5-1.6-.9-3.2-2.2-4.2-3.8-.8-1.3-1.5-3-.9-4.7.3-.9 1.9-3.8 2.3-4.5 1-2 1.3-2.7 2.7-4.4 2.1-2.5 5-4.4 7.8-5.9 3.4-1.9 6.8-3.1 10.4-3.8z"/><path fill="none" stroke="#231F20" stroke-width=".283" stroke-miterlimit="10" d="M85.1 329.4c7.8-1.3 13.9-.1 20.6 4 2.1 1.3 7 4.7 9 6.1 2.9 2 5.8 4.2 8.6 6.3 2.3 1.8 6.1 4.7 7.4 7.6 2 4.2-2.3 6.3-5.8 7-7.1 1.5-14.7-.8-21.1-2.9-3.4-1.1-6.7-2.2-10.2-2.9-1.8-.3-3.6-.6-5.5-.6-1.8-.1-3.6 0-5.3.7-1.8.7-2.7 1.7-4.1 2.9-1.5 1.2-2.7 2.1-4.7 2.3-3.5.4-7.7-1.1-10.4-3.2-1.6-1.2-2.7-2.5-3.5-4.3-.3-.8-.6-1.6-.5-2.5 0-.9.3-1.6.7-2.4.4-.8.7-1.6 1.1-2.4.4-.8.7-1.6 1.1-2.4.8-1.7 1.9-3.1 3.3-4.4 2.4-2.3 5.5-4.2 8.5-5.6 3.5-1.6 7.1-2.6 10.8-3.3z"/><path fill="none" stroke="#231F20" stroke-width=".283" stroke-miterlimit="10" d="M86.5 329.1c3.9-.6 7.6-.5 11.5.5 3.5 1 6.5 2.6 9.5 4.6 1.5 1 7.6 5.3 9.1 6.4 3 2.1 5.9 4.3 8.8 6.6 2.1 1.7 6.1 5.1 7.1 8 .6 1.8-.1 3.2-1.5 4.3-1.6 1.2-4 1.9-5.9 2.3-3.8.6-7.4.4-11.2-.2-3.6-.6-7.1-1.5-10.6-2.5-3.9-1.1-6.8-1.8-10.8-2.5-1.9-.3-3.7-.6-5.6-.7-1.8-.1-3.6.1-5.3 1-1.5.9-2.6 2.2-4.1 3.2-1.7 1.2-3.6 1.4-5.6 1.2-3.6-.4-7.3-2.1-9.9-4.7-1.3-1.3-2.4-2.9-2.9-4.7-.6-2.1.2-3.3.9-5 .5-1.3 1.4-3.7 2.1-4.9 1-1.6 2.5-3.2 4-4.4 5.7-4.6 13.6-7.5 20.4-8.5z"/><path fill="none" stroke="#231F20" stroke-width=".283" stroke-miterlimit="10" d="M76 331.8c3.5-1.4 7.1-2.4 10.8-2.9 3.9-.6 7.6-.5 11.5.6 4 1.1 7 2.9 10.4 5.3.8.5 8.3 5.9 9 6.4 3.2 2.3 6.4 4.6 9.4 7.2 1.5 1.2 2.9 2.5 4.2 3.9 1.1 1.1 2.5 2.7 2.9 4.3.4 1.7-.4 3-1.7 3.9-1.5 1.1-3.5 1.8-5.3 2.2-4 .9-8.5.7-12.4.3-4.2-.5-7.1-1.2-11.2-2.1-1.9-.4-3.7-.8-5.6-1.1-1.9-.3-3.8-.5-5.7-.8-1-.1-2-.3-2.9-.5-1-.2-2-.4-3-.5-1-.1-2-.1-3 .1-.9.2-1.7.6-2.5 1.2-.7.5-1.3 1.1-1.9 1.6-.7.6-1.3 1.1-2.2 1.5-1.9.8-4 .6-5.9.2-2.2-.5-4.2-1.3-6.1-2.5-1.6-1-3.2-2.4-4.4-3.9-.9-1.2-1.9-3.1-2.1-4.7-.1-.9 0-1.6.2-2.5.2-.8.5-1.6.7-2.5.4-1.3 1.3-3.4 2-4.5 1.1-1.6 2.4-2.8 3.8-4 3.5-2.7 7.3-4.7 11-6.2zM57.9 350.9c-.1-.7 0-1.4.1-2.1.1-.7.1-1.4.3-2.1.2-1.1 1.2-3 1.8-3.9M66.4 362c-2-1.2-3.7-2.5-5.3-4.3M76.1 365H76M72.9 337.2c.2.1.4.2.5.3M73.7 337.6c.2.2.4.3.6.5M74.5 338.3c.1.1.2.3.4.4M74.9 338.8c.1.1.1.2.2.3M75.2 339.1c.1.1.1.2.2.3M75.5 339.5s0 .1 0 0M75.6 339.6c0 .1 0 .1 0 0M65.4 342.1"/><path fill="none" stroke="#231F20" stroke-width=".283" stroke-miterlimit="10" d="M65.2 342.3c.1-.1.1-.1 0 0 .1-.1.1-.1.1-.2M65.4 342.1s.1-.1 0 0M65.6 341.8l.2-.2M66 341.5l.2-.2M66.3 341.1l.6-.6M67 340.3c.1-.1.2-.2.2-.3M67.4 339.8c.1-.1.2-.2.2-.3M67.8 339.4l.3-.3M68.2 339l.3-.3M68.7 338.6l.3-.3M69.2 338.2c.1-.1.3-.2.4-.3M69.7 337.8c.1-.1.3-.2.4-.3M70.2 337.5c.2-.1.3-.2.5-.2M70.9 337.2c.2-.1.5-.1.7-.2M71.9 337c.3 0 .6 0 1 .2"/><use xlink:href="#a" width="12" height="24.2" x="-6.3" y="-9.5" transform="matrix(.537 0 0 -.537 161.463 434.517)" overflow="visible" opacity=".8"/><use xlink:href="#a" width="12" height="24.2" x="-6.3" y="-9.5" transform="matrix(.537 0 0 -.537 171.546 429.17)" overflow="visible" opacity=".8"/><use xlink:href="#a" width="12" height="24.2" x="-6.3" y="-9.5" transform="matrix(.537 0 0 -.537 184.75 422.334)" overflow="visible" opacity=".8"/><use xlink:href="#a" width="12" height="24.2" x="-6.3" y="-9.5" transform="matrix(.537 0 0 -.537 156.264 429.904)" overflow="visible" opacity=".8"/><use xlink:href="#a" width="12" height="24.2" x="-6.3" y="-9.5" transform="matrix(.537 0 0 -.537 137.452 421.97)" overflow="visible" opacity=".8"/><use xlink:href="#a" width="12" height="24.2" x="-6.3" y="-9.5" transform="matrix(.537 0 0 -.537 129.898 413.93)" overflow="visible" opacity=".8"/><use xlink:href="#a" width="12" height="24.2" x="-6.3" y="-9.5" transform="matrix(.537 0 0 -.537 125.912 407.867)" overflow="visible" opacity=".8"/><use xlink:href="#a" width="12" height="24.2" x="-6.3" y="-9.5" transform="matrix(.537 0 0 -.537 126.74 399.933)" overflow="visible" opacity=".8"/><use xlink:href="#a" width="12" height="24.2" x="-6.3" y="-9.5" transform="matrix(.537 0 0 -.537 121.232 404.125)" overflow="visible" opacity=".8"/><use xlink:href="#a" width="12" height="24.2" x="-6.3" y="-9.5" transform="matrix(.537 0 0 -.537 122.06 394.584)" overflow="visible" opacity=".8"/><use xlink:href="#a" width="12" height="24.2" x="-6.3" y="-9.5" transform="matrix(.537 0 0 -.537 129.715 390.832)" overflow="visible" opacity=".8"/><use xlink:href="#a" width="12" height="24.2" x="-6.3" y="-9.5" transform="matrix(.537 0 0 -.537 141.066 389.236)" overflow="visible" opacity=".8"/><use xlink:href="#a" width="12" height="24.2" x="-6.3" y="-9.5" transform="matrix(.537 0 0 -.537 148.596 391.445)" overflow="visible" opacity=".8"/><use xlink:href="#a" width="12" height="24.2" x="-6.3" y="-9.5" transform="matrix(.537 0 0 -.537 160.95 391.384)" overflow="visible" opacity=".8"/><use xlink:href="#a" width="12" height="24.2" x="-6.3" y="-9.5" transform="matrix(.537 0 0 -.537 154.855 390.832)" overflow="visible" opacity=".8"/><use xlink:href="#a" width="12" height="24.2" x="-6.3" y="-9.5" transform="matrix(.537 0 0 -.537 171.546 391.525)" overflow="visible" opacity=".8"/><use xlink:href="#a" width="12" height="24.2" x="-6.3" y="-9.5" transform="matrix(.537 0 0 -.537 170.45 386.125)" overflow="visible" opacity=".8"/><use xlink:href="#a" width="12" height="24.2" x="-6.3" y="-9.5" transform="matrix(.537 0 0 -.537 150.175 385.482)" overflow="visible" opacity=".8"/><use xlink:href="#a" width="12" height="24.2" x="-6.3" y="-9.5" transform="matrix(.537 0 0 -.537 136.62 389.4)" overflow="visible" opacity=".8"/><use xlink:href="#a" width="12" height="24.2" x="-6.3" y="-9.5" transform="matrix(.537 0 0 -.537 101.95 363.884)" overflow="visible" opacity=".8"/><use xlink:href="#a" width="12" height="24.2" x="-6.3" y="-9.5" transform="matrix(.537 0 0 -.537 70.894 364.99)" overflow="visible" opacity=".8"/><use xlink:href="#a" width="12" height="24.2" x="-6.3" y="-9.5" transform="matrix(.537 0 0 -.537 77.634 370.337)" overflow="visible" opacity=".8"/><use xlink:href="#a" width="12" height="24.2" x="-6.3" y="-9.5" transform="matrix(.537 0 0 -.537 127.262 362.117)" overflow="visible" opacity=".8"/><use xlink:href="#a" width="12" height="24.2" x="-6.3" y="-9.5" transform="matrix(.537 0 0 -.537 116 364.228)" overflow="visible" opacity=".8"/><use xlink:href="#a" width="12" height="24.2" x="-6.3" y="-9.5" transform="matrix(.537 0 0 -.537 95.47 323.097)" overflow="visible" opacity=".8"/><use xlink:href="#a" width="12" height="24.2" x="-6.3" y="-9.5" transform="matrix(.537 0 0 -.537 93.767 363.224)" overflow="visible" opacity=".8"/><use xlink:href="#a" width="12" height="24.2" x="-6.3" y="-9.5" transform="matrix(.537 0 0 -.537 75.978 372.986)" overflow="visible" opacity=".8"/><use xlink:href="#a" width="12" height="24.2" x="-6.3" y="-9.5" transform="matrix(.537 0 0 -.537 165.5 390.832)" overflow="visible" opacity=".8"/><use xlink:href="#a" width="12" height="24.2" x="-6.3" y="-9.5" transform="matrix(.537 0 0 -.537 177.703 391.472)" overflow="visible" opacity=".8"/><use xlink:href="#a" width="12" height="24.2" x="-6.3" y="-9.5" transform="matrix(.537 0 0 -.537 188.278 396.873)" overflow="visible" opacity=".8"/><use xlink:href="#a" width="12" height="24.2" x="-6.3" y="-9.5" transform="matrix(.537 0 0 -.537 196.21 403.9)" overflow="visible" opacity=".8"/><use xlink:href="#a" width="12" height="24.2" x="-6.3" y="-9.5" transform="matrix(.537 0 0 -.537 194.27 411.394)" overflow="visible" opacity=".8"/><use xlink:href="#a" width="12" height="24.2" x="-6.3" y="-9.5" transform="matrix(.537 0 0 -.537 207.185 411.394)" overflow="visible" opacity=".8"/><use xlink:href="#a" width="12" height="24.2" x="-6.3" y="-9.5" transform="matrix(.537 0 0 -.537 196.76 416.986)" overflow="visible" opacity=".8"/></g><g class="clickable" data-highlight="#achterland,#achterland-text,#icon-bacterien,#icon-sediment" fill="#231F20"><text transform="translate(57.476 535.78)" opacity=".5" font-family="'AvenirNext-Bold'" font-size="12">ACHTERLAND</text><path opacity=".5" d="M117.2 507.7v-3.8h3l-2.2-4.4h1.2l-3.1-6.1-3.1 6.1h1.2l-1.6 3.3-7.3-7.7-3.1 2.8-2.6-3.7-4.3-6.1-4.4 9.4-.5 1-.6 1.2-6.2 13.6h38.8l-5.2-5.6zm-2.2-3.8v1.4l-1.3-1.4h1.3zm-19.4-12.5l2.8 3.9c-.8.7-1.4 1.3-1.9 1.7l-1.9-1-1.5.6 2.5-5.2z"/></g><g class="clickable" data-highlight="#icon-landbouw,#icon-zuurstof,#icon-nutrienten,#landbouw-text"><path fill="#004261" d="M194.1 345.6l-13.3 7.8v.6l-4.5-3.6 13-7.7.1-.8-18.9-14.9.5-.3 19.4 15.3 12.1-7.1v-.7l-18.8-15 .5-.3 19.3 15.4 12.1-7.1.1-.8-18.9-14.9.5-.3 19.4 15.3 14.3-8.4 4.1 3.3-13.7 8v.8l18.8 14.9-.5.3-19.3-15.3-12.2 7.1v.7l18.9 15-.6.3-19.3-15.3-12.1 7.1v.7l18.8 14.9-.5.3"/><path fill="#231F20" d="M197.3 311.3l19.3 15.3.1.1h.1l14.2-8.3 4 3.2-13.6 8h-.1V330.5h.1l18.7 14.8-.3.2-19.4-15.5-.1-.1h-.1l-12.1 7.1h-.1V337.9h.1l18.7 14.8-.3.2-19.3-15.3-.1-.1h-.1l-12.1 7.1h-.1V345.5h.1l18.7 14.8-.3.2-19.3-15.3-.1-.1h-.1l-13.2 7.8h-.1v.5l-4.3-3.4 13-7.6h.1V341.5h-.1L170.6 327l.3-.2 19.3 15.3.1.1h.1l12.1-7.1h.1V334.2h-.1l-18.7-14.8.3-.2 19.3 15.3.1.1h.1l12.1-7.1h.1V326.6h-.1L197 311.5l.3-.2m0-.2l-.6.4 18.9 15v.7l-12.1 7.1-19.4-15.3-.6.4 18.9 15v.7l-12.1 7.1-19.3-15.6-.6.4 18.9 15v.7l-13.2 7.8 4.7 3.7v-.7l13.2-7.8 19.4 15.3.6-.4-18.9-15v-.6l12.1-7.1 19.4 15.3.6-.4-18.9-15v-.7l12.1-7.1 19.4 15.3.6-.4-18.9-15v-.7l13.8-8.1-4.2-3.4-14.3 8.4-19.5-15z"/><g opacity=".5"><path fill="#004261" d="M176.2 357.6v-7.1l4.6 3.7v7"/><path fill="#231F20" d="M176.3 350.6l4.4 3.5v6.9l-4.4-3.5v-6.9m-.2-.2v7.3l4.7 3.7v-7.2l-4.7-3.8z"/></g><path fill="none" stroke="#231F20" stroke-width=".85" stroke-miterlimit="10" d="M231 317.4l-21.3-16.9-54.8 32.3v15.9l47.3 37.4 54.8-32.3V338l-21.3-16.9-.5.3-4.2-3.3z"/><path fill="none" stroke="#231F20" stroke-width=".283" stroke-miterlimit="10" d="M196.1 345.1l19 14.9 10.9-6.4-18.9-15zM209.3 337.3l18.9 15 11-6.5-18.9-14.9zM222.5 329.6l18.9 14.9 10.9-6.4-18.9-15zM194 346.4l18.9 14.9-11 6.5-18.9-15zM188.3 341.9l-18.9-15-11 6.5 18.9 14.9zM216.8 325.1l-18.9-15 10.9-6.5 18.9 15zM203.6 332.8l-18.9-14.9 11-6.5 18.9 15zM190.5 340.6l-19-15 11-6.5 18.9 15zM240.8 344.9l-1.1.6M239.7 345.5l-19.4-15.3M220.3 330.2l-12 7.1M208.3 337.3l19.4 15.3M227.7 352.6l-1.1.7M226.6 353.3l-19.4-15.4M207.2 337.9l-12.1 7.1M195.1 345l19.4 15.4M214.5 360.4l-1.1.6M213.4 361L194 345.7M194 345.7l-13.1 7.7M235.7 321.1l-14.3 8.4M221.4 329.5l19.4 15.4M216.7 325.8v.6M197.3 310.4v.7M215.6 326.4v.7M203.5 333.5v.7M184.2 318.2v.7M202.5 334.2v.6M190.4 341.3v.7M171 325.9v.7M189.3 341.9v.7M195.1 345v.7M208.3 337.3v.6M221.4 329.5v.7M216.7 325.8l14.3-8.4M176.1 349.7l13.2-7.8M189.3 341.9l-19.4-15.3M169.9 326.6l1.1-.7M171 325.9l19.4 15.4M190.4 341.3l12.1-7.1M202.5 334.2l-19.4-15.4M183.1 318.8l1.1-.6M184.2 318.2l19.3 15.3M203.5 333.5l12.1-7.1M215.6 326.4l-19.4-15.3M196.2 311.1l1.1-.7M197.3 310.4l19.4 15.4M180.9 353.4v.7M202.2 370.3l-21.3-16.9M202.2 386.1l-47.3-37.4M176.1 349.7l-21.2-16.9M176.1 350.4v-.7M257 353.8l-54.8 32.3M202.2 370.3v15.8M257 338l-54.8 32.3M231 317.4v.7M209.7 300.5l21.3 16.9M257 338v15.8M235.7 321.1L257 338M154.9 332.8v15.9M154.9 332.8l54.8-32.3"/><pattern id="c" xlink:href="#b" patternTransform="rotate(-30.603 -9205.17 5419.803) scale(.14)"/><path fill="url(#c)" d="M201.9 367.8l11-6.5-18.9-14.9-11 6.4"/><pattern id="d" xlink:href="#b" patternTransform="rotate(-30.603 -9212.762 5391.885) scale(.14)"/><path fill="url(#d)" d="M215.1 360l10.9-6.4-18.9-15-11 6.5"/><pattern id="e" xlink:href="#b" patternTransform="rotate(-30.603 -9220.353 5363.965) scale(.14)"/><path fill="url(#e)" d="M228.2 352.3l11-6.5-18.9-14.9-11 6.4"/><pattern id="f" xlink:href="#b" patternTransform="rotate(-30.603 -9228.485 5335.9) scale(.14)"/><path fill="url(#f)" d="M241.4 344.2l10.9-6.4-18.9-15-10.9 6.5"/><pattern id="g" xlink:href="#b" patternTransform="rotate(-30.603 -9253.325 5455.568) scale(.14)"/><path fill="url(#g)" d="M177 348.3l11-6.5-19-15-10.9 6.5"/><pattern id="h" xlink:href="#b" patternTransform="rotate(-30.603 -9260.917 5427.65) scale(.14)"/><path fill="url(#h)" d="M190.2 340.5l10.9-6.5-18.9-14.9-11 6.4"/><pattern id="i" xlink:href="#b" patternTransform="rotate(-30.603 -9268.508 5399.73) scale(.14)"/><path fill="url(#i)" d="M203.3 332.8l11-6.5-18.9-15-11 6.5"/><pattern id="j" xlink:href="#b" patternTransform="rotate(-30.603 -9276.64 5371.665) scale(.14)"/><path fill="url(#j)" d="M216.5 324.7l10.9-6.5-18.9-14.9-11 6.4"/></g><g class="clickable" data-highlight="#landbouw,#icon-zuurstof,#icon-nutrienten,#landbouw-text"><text transform="translate(179.453 535.78)" opacity=".5" fill="#231F20" font-family="'AvenirNext-Bold'" font-size="12">LANDBOUW</text><g opacity=".5"><path fill="#231F20" d="M226.9 503c.4 0 .7 0 1.1.1h.2c.3 0 .6-.1.9-.4.3-.3.4-.7.3-1.1l-.5-1.9c-.1-.5-.6-.8-1.1-.8h-5.9v-4.1l1.5-.8c.3-.1.4-.5.3-.8-.1-.3-.5-.4-.8-.3L221 494c-.2.1-.3.3-.3.5v4.4H219l-1-7.3c-.1-.6-.5-1-1.1-1l-13-.5c-.3 0-.6.1-.8.3-.2.2-.4.5-.4.8v1c0 .6.4 1 .9 1.1v5.1c0 .3.1.6.4.8.2.2.5.3.8.3h.2c.3 0 1 0 1.8.1h.1c1.5 0 2.9.5 4.1 1.3.4.2.7.5 1 .8 1.5 1.4 2.3 3.4 2.3 5.4 0 .6-.1 1.3-.2 1.9-.1.3 0 .7.2 1 .2.3.6.4.9.4h4c.6 0 1.1-.5 1.2-1.1 0-3.4 2.9-6.3 6.5-6.3z"/><path fill="#231F20" d="M212.9 507.1c.1-.3.2-.6.1-.9l-.5-1.5c-.1-.3-.3-.5-.6-.7-.2-.1-.3-.1-.5-.1l-.1-.1c.1-.2.1-.4.1-.5 0-.3-.2-.6-.4-.8l-1.3-1c-.2-.2-.4-.2-.7-.2h-.3c-.1 0-.2.1-.3.1-.2-.4-.6-.7-1.1-.7h-1.9c-.5 0-.9.3-1 .7-.1 0-.2.1-.3.1-.2-.2-.5-.2-.7-.2-.2 0-.5.1-.7.2l-1.3 1c-.2.2-.4.5-.5.8v.5l-.1.1c-.5 0-.9.3-1.1.8l-.5 1.5c-.2.5 0 1 .4 1.3v.2c-.1.1-.3.2-.3.4-.1.3-.2.6-.1.9l.5 1.5c.2.5.6.8 1.1.8 0 .1.1.1.1.2-.1.5 0 1 .4 1.3l1.3 1c.2.1.4.2.7.2.2 0 .5-.1.7-.2.1 0 .2 0 .2.1.1.5.6.9 1.1.9h1.9c.5 0 1-.3 1.1-.8.1 0 .3.1.4.1.2 0 .5-.1.7-.2l1.3-1c.2-.2.4-.5.5-.8v-.5l.1-.1c.2 0 .4 0 .5-.1.3-.1.5-.4.6-.7l.5-1.5c.1-.3.1-.6-.1-.9-.1-.2-.2-.3-.3-.4v-.1-.1c.2-.3.4-.4.4-.6z"/><path fill="#FFF" d="M210.5 507.4c0-.7-.3-1.5-.7-2.1-.1-.2-.2-.3-.3-.4-.5-.6-1.1-1-1.8-1.3-.2-.1-.3-.1-.5-.2-.4-.1-.7-.1-1.1-.1-.4 0-.7 0-1.1.1-.2 0-.3.1-.5.2-.7.3-1.3.7-1.8 1.3-.1.1-.2.3-.3.4-.4.6-.6 1.4-.7 2.1v.5c0 .7.3 1.5.7 2.1.1.2.2.3.3.4.5.6 1.1 1 1.8 1.3.1.1.3.1.5.2.4.1.8.1 1.1.1.4 0 .7 0 1.1-.1.2 0 .3-.1.5-.2.7-.3 1.3-.7 1.8-1.3.1-.1.2-.3.3-.4.4-.6.6-1.4.7-2.1v-.2-.3zm-1.1.5c0 .6-.2 1.1-.5 1.5-.1.1-.1.2-.2.3-.3.4-.8.8-1.3 1-.1 0-.2.1-.4.1-.3.1-.5.1-.8.1-.3 0-.6 0-.8-.1-.1 0-.2-.1-.4-.1-.5-.2-1-.5-1.3-1-.1-.1-.2-.2-.2-.3-.3-.5-.5-1-.5-1.5v-.2-.2c0-.6.2-1.1.5-1.5.1-.1.1-.2.2-.3.3-.4.8-.8 1.3-1 .1 0 .2-.1.4-.1.3-.1.5-.1.8-.1.3 0 .6 0 .8.1.1 0 .2.1.4.1.5.2 1 .5 1.3 1 .1.1.2.2.2.3.3.5.5 1 .5 1.5v.4z"/><path fill="#231F20" d="M231.9 509.2c.3-.3.3-.7.2-1.1l-.4-1.1c-.1-.3-.3-.5-.6-.7-.1 0-.1-.1-.2-.1v-.2c0-.3-.2-.6-.4-.8l-.9-.7c-.2-.2-.4-.2-.7-.2h-.3c-.2-.3-.5-.4-.9-.4h-1.4c-.4 0-.8.2-1 .5-.2-.1-.4-.2-.6-.2-.2 0-.5.1-.7.2l-1 .7c-.3.2-.5.6-.5 1-.4.1-.7.4-.8.8l-.4 1.1c-.1.3-.1.6.1.9 0 .1.1.2.2.2-.1.1-.1.1-.1.2-.1.3-.2.6-.1.9l.4 1.1c.1.4.5.7.8.8 0 .4.1.8.5 1l1 .7c.2.1.4.2.7.2.2 0 .3 0 .5-.1.2.4.6.6 1 .6h1.4c.4 0 .8-.2 1-.6h.1c.2 0 .5-.1.7-.2l1-.7c.2-.2.4-.5.5-.8v-.3c.4-.1.7-.4.8-.8l.4-1.1c.1-.3.1-.6-.1-.9-.1.3-.1.2-.2.1z"/><path fill="#FFF" d="M230 509.1c0-.5-.2-1.1-.5-1.5-.1-.1-.2-.2-.2-.3-.3-.4-.8-.7-1.3-.9-.1 0-.2-.1-.4-.1-.3-.1-.5-.1-.8-.1-.3 0-.5 0-.8.1-.1 0-.2.1-.4.1-.5.2-1 .5-1.3.9-.1.1-.1.2-.2.3-.3.5-.5 1-.5 1.5v.4c0 .5.2 1.1.5 1.5.1.1.1.2.2.3.3.4.8.7 1.3.9.1 0 .2.1.4.1.3.1.6.1.8.1.3 0 .5 0 .8-.1.1 0 .2-.1.4-.1.5-.2 1-.5 1.3-.9.1-.1.1-.2.2-.3.3-.5.5-1 .5-1.5v-.2-.2zm-1.1.3c0 .4-.1.7-.3 1 0 .1-.1.1-.1.2-.2.3-.5.5-.8.6-.1 0-.2.1-.2.1-.2 0-.3.1-.5.1s-.4 0-.5-.1c-.1 0-.2 0-.2-.1-.3-.1-.6-.3-.8-.6-.1-.1-.1-.1-.1-.2-.2-.3-.3-.6-.3-1v-.1-.1c0-.4.1-.7.3-1 0-.1.1-.1.1-.2.2-.3.5-.5.8-.6.1 0 .2-.1.2-.1.2 0 .3-.1.5-.1s.4 0 .5.1c.1 0 .2 0 .2.1.3.1.6.3.8.6.1.1.1.1.1.2.2.3.3.6.3 1v.2zM215.7 501.3l-2.8-4.4.1-3.3h1.9l1.1 7.7h-.3zM209.4 496.4H207l.3-2.8h2.2v2.8z"/></g></g><g class="clickable" data-highlight="#industrie,#icon-chemisch,#industrie-text"><text transform="translate(295.586 535.78)" opacity=".5" fill="#231F20" font-family="'AvenirNext-Bold'" font-size="12">INDUSTRIE</text><path fill="#231F20" d="M347.3 506.4l-.9-1.2-1-1.3v-.8h-.6v-3.2h-1.1v-4.1c0-.1-.1-.2-.2-.2h-2.9c-.1 0-.2.1-.2.2v2h-1c-.3 0-.6.2-.6.5v.5h-1.1v4.4h-.7v3.1h-3.2l-.6-19.3c0-.2-.2-.3-.5-.3s-.5 0-.5.3l-.4 19.3h-.4l-.6-19.3c0-.2-.2-.3-.5-.3s-.5 0-.5.3l-.4 19.3h-1v2.8h-1v-5.7l-4.8 2.7h-.3v-2.7l-5 2.7h-.2v-2.7l-5 2.7h-1.2v4.8h-1.5v3.6h38.1v-8.3h-.2zm-9.9-2.3v.7h-.3v-1.1l.3.4zm.7-4h.3v1.3h-.3v-1.3zm.6 0h.4v1.3h-.4v-1.3zm6 1.3h-.4v-.7l.4-.5v1.2zm-.6 0h-.3l.3-.4v.4zm1.8 3.4h-.4v-.2h.3l.1.2zm-.4 1h1.2l.1.2h-1.3v-.2zm0-.2v-.2h.9l.1.2h-1zm-8.1.8h-.2l.2-.3v.3zm.2-.7l.3-.5v1.1h-.3v-.6zm5.4-4.9v.7h-.4v-1.1l.4.4zm.4.9l-.3.4v-.4h.3zm-.4.6l-.4.5v-1.1h.4v.6zm0 .3v.4h-.3l.3-.4zm.2.4v-.6l.3-.4v1h-.3zm.2-1.6h-.3v-.4l.3.4zm-4.6 2l-.2.3v-.3h.2zm-.4.7l-.3.5v-1.1h.3v.6zm.4 2l-.3-.4v-.7h.3v1.1zm-.4-.8l-.2-.3h.2v.3zm-.2-.5l.2-.3v.3h-.2zm-.6.5v-.3h.2l-.2.3zm.5 0l.3.4v.7h-.3v-1.1zm.5.7l.2.3h-.2v-.3zm.2.3zm0-1.5h-.3v-.7l.3-.4v1.1zm5.5-1.8v-.4l.3.4h-.3zm-.2 0h-.3v-1l.3.4v.6zm-.2-1.4h.3v.4l-.3-.4zm-.7-.9v-.6h.3v1l-.3-.4zm-.2-.3l-.3-.3h.3v.3zm-4-1.4v.9h-.4v-.9h.4zm0 2.6v1.6h-.4v-1.6h.4zm-1.4 3.2v-.3l.2.3h-.2zm-.4.2h.3v.7l-.3.4V505zm8.3 1.2h1.4l.1.2h-1.6v-.2h.1zm0-1v-.2h.6l.1.2h-.7zm.1-.8h-.1v-.2l.1.2zm-1.3-2.1v-.7h.4v1.1l-.4-.4zm.3-2.2l-.2.3v-.3h.2zm-.5 0v.6l-.3.4v-1h.3zM341 496h2.5v3.9h-.9v-1.5c0-.3-.3-.5-.6-.5h-1V496zm-2.5 3v.9h-.3v-.9h.3zm-.4 2.6h.3v1.6h-.3v-1.6zm-.2 1.8v1.1l-.3-.5v-.6h.3zm-.5.3l-.2-.3h.2v.3z" opacity=".5"/></g></svg>