<svg xmlns="http://www.w3.org/2000/svg" width="279.317" height="480.962" viewBox="0 0 279.317 480.962"><path fill="#F5EB23" d="M134.06 340.207l46.76 115.73c-63.916 25.823-136.665-5.057-162.49-68.973S23.388 250.3 87.304 224.477c15.34-6.197 30.213-9.088 46.758-9.088v124.817z"/><path fill="#2EC4F0" d="M134.06 340.207l95.618-80.232c44.31 52.81 37.423 131.54-15.385 175.85-10.56 8.86-20.69 14.948-33.473 20.113l-46.76-115.73z"/><path fill="#EE2934" d="M134.06 340.207l52.752-113.124c17.494 8.158 30.46 18.106 42.867 32.894l-95.62 80.23z"/><path fill="#048442" d="M134.06 340.207l21.676-122.923c10.862 1.915 21.08 5.137 31.076 9.798l-52.75 113.125z"/><path fill="#E43293" d="M134.06 340.207l6.534-124.647c5.507.29 9.71.768 15.142 1.725L134.06 340.207z"/><path fill="#6CBE45" d="M134.06 340.207V215.39c2.76 0 3.78.025 6.534.17l-6.533 124.647z"/><circle fill="#FFF" cx="134.061" cy="340.207" r="83.537"/><path fill="#048442" d="M23.295 75.304h18.407V93.71H23.295z"/><path fill="#6CBE45" d="M23.295 9.482h18.407V27.89H23.295z"/><path fill="#E43293" d="M23.295 42.393h18.407V60.8H23.295z"/><path fill="#F5EB23" d="M23.295 174.034h18.407v18.407H23.295z"/><path fill="#EE2934" d="M23.295 108.214h18.407v18.406H23.295z"/><path fill="#2EC4F0" d="M23.295 141.124h18.407v18.407H23.295z"/><text transform="translate(50.524 22.905)" font-family="'AvenirNext-Regular'" font-size="16.054">1%</text><text transform="translate(73.207 22.905)" font-family="'AvenirNext-Regular'" font-size="16.054"></text><text transform="translate(76.01 22.905)" font-family="'AvenirNext-Regular'" font-size="16.054" letter-spacing="21"></text><text transform="translate(101.496 22.905)" font-family="'AvenirNext-Regular'" font-size="16.054">Sport &amp; Parken</text><text transform="translate(50.524 55.667)" font-family="'AvenirNext-Regular'" font-size="16.054">2%</text><text transform="translate(73.207 55.667)" font-family="'AvenirNext-Regular'" font-size="16.054"></text><text transform="translate(76.01 55.667)" font-family="'AvenirNext-Regular'" font-size="16.054" letter-spacing="21"></text><text transform="translate(101.496 55.667)" font-family="'AvenirNext-Regular'" font-size="16.054">Industrie, Havens</text><text transform="translate(50.524 88.43)" font-family="'AvenirNext-Regular'" font-size="16.054">4 %</text><text transform="translate(77.22 88.43)" font-family="'AvenirNext-Regular'" font-size="16.054" letter-spacing="19"></text><text transform="translate(101.495 88.43)" font-family="'AvenirNext-Regular'" font-size="16.054">Natuur</text><text transform="translate(50.524 121.19)" font-family="'AvenirNext-Regular'" font-size="16.054">7%</text><text transform="translate(73.207 121.19)" font-family="'AvenirNext-Regular'" font-size="16.054"></text><text transform="translate(76.01 121.19)" font-family="'AvenirNext-Regular'" font-size="16.054" letter-spacing="21"></text><text transform="translate(101.496 121.19)" font-family="'AvenirNext-Regular'" font-size="16.054">Stedelijk</text><text transform="translate(50.524 153.954)" font-family="'AvenirNext-Regular'" font-size="16.054">30%</text><text transform="translate(82.52 153.954)" font-family="'AvenirNext-Regular'" font-size="16.054" letter-spacing="14"></text><text transform="translate(101.496 153.954)" font-family="'AvenirNext-Regular'" font-size="16.054">Water</text><text transform="translate(50.524 186.716)" font-family="'AvenirNext-Regular'" font-size="16.054">56%</text><text transform="translate(82.52 186.716)" font-family="'AvenirNext-Regular'" font-size="16.054" letter-spacing="14"></text><text transform="translate(101.496 186.716)" font-family="'AvenirNext-Regular'" font-size="16.054">Landbouw</text><text transform="translate(79.414 318.387)" font-family="'AvenirNext-Regular'" font-size="16.054">% Oppervlakte</text><text transform="translate(73.128 337.65)" font-family="'AvenirNext-Regular'" font-size="16.054">Grondgebruik in</text><text transform="translate(88.3 356.917)" font-family="'AvenirNext-Regular'" font-size="16.054">Waterschap</text><text transform="translate(64.596 376.182)" font-family="'AvenirNext-Regular'" font-size="16.054">Amstel-Gooi-Vecht</text></svg>