<svg xmlns="http://www.w3.org/2000/svg" viewBox="132.2 -7 1015.8 813"><path d="M140.4 208.4V4.8h45.5v163.1h86.9v40.5H140.4zM305.9 4.6h45.5v203.6h-45.5V4.6zM603.8 105.1c0 21.1-5.5 40.2-16.3 57-10.8 17-25.4 29.5-43.6 37.8 1.7 2.9 4.6 5.5 8.4 7.4 3.8 2.2 7.7 3.1 11.7 3.1s8.1-.7 12-1.9c3.8-1.2 6.9-2.9 9.3-4.6 5-4.1 8.6-8.1 10.8-12l23.7 28.3c-16.8 17.7-37.6 26.6-62.8 26.6-11.7 0-23.2-3.1-34.5-9.6s-19.9-15.3-25.9-27.1c-30.2 0-55.6-10.1-76.2-30.2s-30.9-45-30.9-75 10.3-54.9 30.9-75C441.4 10.1 466.8 0 497 0s55.6 10.1 76.2 30.2c20.3 20.1 30.6 45 30.6 74.9zm-46.2.3c0-18.2-5.7-33.8-17.5-46.5C528.4 46 514 39.8 497 39.8s-31.4 6.5-43.1 19.2c-11.7 12.9-17.5 28.3-17.5 46.5s5.7 33.5 17.5 46.2c11.7 12.7 26.1 19.2 43.1 19.2s31.4-6.5 43.1-19.2c11.8-12.8 17.5-28.1 17.5-46.3zM696.8 155.7c7.7 9.3 17.7 14.1 30.7 14.1 12.9 0 23-4.8 30.4-14.1 7.4-9.3 11.3-22.3 11.3-38.6V4.6h45.5v114c0 29.5-8.1 52.2-24.4 68-16.3 15.8-37.1 23.7-62.8 23.7-25.4 0-46.5-7.9-62.8-24-16.5-15.8-24.7-38.6-24.7-67.8V4.6h45.5v112.6c-.2 16.2 3.6 29.1 11.3 38.5zM861.8 4.6h45.5v203.6h-45.5V4.6zM1113.1 31.4c19.4 17.7 29.2 42.4 29.2 74.3 0 31.6-9.6 56.8-28.5 75.2s-47.9 27.8-86.7 27.8h-69.7V5h72.1c36.1-.4 64.2 8.7 83.6 26.4zm-33.3 120.9c11.3-10.5 16.8-25.6 16.8-45.7s-5.5-35.4-16.8-46.2c-11.3-10.8-28.3-16.3-51.5-16.3h-25.4v123.8h29c20.6.2 36.6-5 47.9-15.6z"/><g><path d="M197.6 370.5c13.9 0 25.1-5.5 33.8-16.3l18 18.4c-14.4 16-31.1 24.2-50.5 24.2s-35.2-6.2-47.9-18.4c-12.5-12.2-18.7-27.8-18.7-46.2 0-18.7 6.5-34.3 19.2-46.7s28.5-18.7 46.9-18.7c20.6 0 37.8 7.9 51.7 23.5l-17.5 19.9c-8.9-11-19.9-16.5-33.1-16.5-10.5 0-19.6 3.4-27.1 10.3-7.4 6.9-11.3 16.3-11.3 27.8 0 11.7 3.6 21.1 10.5 28 7.3 7.1 15.9 10.7 26 10.7zM374.4 378c-12.7 12.5-28.3 18.7-46.9 18.7-18.7 0-34.3-6.2-46.9-18.7-12.7-12.5-19.2-27.8-19.2-46.2 0-18.4 6.5-33.8 19.2-46.2 12.7-12.5 28.3-18.7 46.9-18.7 18.7 0 34.3 6.2 46.9 18.7 12.7 12.5 19.2 27.8 19.2 46.2-.1 18.4-6.5 33.7-19.2 46.2zm-9.4-46.3c0-11.3-3.6-20.8-10.8-28.7-7.2-7.9-16-12-26.6-12-10.5 0-19.4 4.1-26.6 12-7.2 7.9-10.8 17.5-10.8 28.7s3.6 20.8 10.8 28.5c7.2 7.9 16 11.7 26.6 11.7 10.5 0 19.4-3.8 26.6-11.7 7.2-7.6 10.8-17.2 10.8-28.5zM529.8 316.2l-34 68.7H479l-33.8-68.7v79h-28V269.7H455l32.3 69 32.6-69h37.8v125.5h-28v-79zM701.3 316.2l-34 68.7h-16.8l-33.8-68.7v79h-28V269.7h37.8l32.3 69 32.6-69h37.8v125.5h-28l.1-79zM866.1 378c-12.7 12.5-28.3 18.7-46.9 18.7-18.7 0-34.3-6.2-46.9-18.7-12.7-12.5-19.2-27.8-19.2-46.2 0-18.4 6.5-33.8 19.2-46.2 12.7-12.5 28.3-18.7 46.9-18.7 18.7 0 34.3 6.2 46.9 18.7 12.7 12.5 19.2 27.8 19.2 46.2 0 18.4-6.5 33.7-19.2 46.2zm-9.6-46.3c0-11.3-3.6-20.8-10.8-28.7-7.2-7.9-16-12-26.6-12-10.5 0-19.4 4.1-26.6 12-7.2 7.9-10.8 17.5-10.8 28.7s3.6 20.8 10.8 28.5c7.2 7.9 16 11.7 26.6 11.7 10.5 0 19.4-3.8 26.6-11.7 7.2-7.6 10.8-17.2 10.8-28.5zM996.9 269.7h28v125.5h-28L937 316.4v78.8h-28V269.7h26.3l61.8 81v-81h-.2zM1085.3 294.9c-2.6 2.2-4.1 5.3-4.1 8.9s1.7 6.5 5 8.6c3.4 2.2 11 4.8 22.8 7.7 12 2.9 21.1 7.4 27.8 13.2 6.7 6 9.8 14.4 9.8 25.6s-4.3 20.4-12.7 27.3c-8.4 6.9-19.6 10.5-33.3 10.5-19.9 0-37.8-7.4-53.7-22l16.8-20.6c13.7 12 26.1 17.7 37.6 17.7 5.3 0 9.1-1.2 12.2-3.4 2.9-2.2 4.3-5.3 4.3-9.1s-1.7-6.7-4.8-9.1c-3.1-2.2-9.3-4.6-18.4-6.7-14.6-3.6-25.4-7.9-32.1-13.7-6.7-5.5-10.1-14.4-10.1-26.3s4.3-21.1 12.9-27.5c8.6-6.5 19.2-9.8 32.1-9.8 8.4 0 16.8 1.4 25.1 4.3 8.4 2.9 15.8 6.9 22 12.2l-14.1 20.6c-11-8.4-22.3-12.5-33.8-12.5-4.9.7-8.7 1.7-11.3 4.1z"/></g><g><path d="M140.4 431.3h1001.9v4H140.4z"/></g><g><path d="M225.1 601.9L210 563.3h-48.6l-14.9 38.6h-14.4L180 480.2h12l47.7 121.7h-14.6zm-19.6-51.2l-14.1-37.6c-1.9-4.8-3.6-10.5-5.7-17.5-1.2 5.3-2.9 11-5.3 17.5L166 550.7h39.5zM309.9 601.9l-41.2-107.3h-.7c.7 8.6 1.2 18.7 1.2 30.4v77.1h-12.9V481h21.3l38.3 99.9h.7l38.8-99.9h21.1v121.2h-14.1v-78.1c0-8.9.5-18.7 1.2-29.2h-.7L321.5 602h-11.6zM478.1 569.8c0 10.8-3.8 18.9-11.5 24.9s-18.2 8.9-31.6 8.9c-14.4 0-25.4-1.9-33.3-5.5v-13.7c5 2.2 10.3 3.8 16.3 5 5.7 1.2 11.7 1.9 17.5 1.9 9.3 0 16.5-1.7 21.3-5.3 4.8-3.6 7.2-8.6 7.2-14.9 0-4.3-1-7.7-2.6-10.3-1.7-2.6-4.6-5.3-8.4-7.4-3.8-2.2-10.1-4.8-18-7.7-11.3-4.1-19.4-8.9-24.2-14.4-4.8-5.5-7.2-12.7-7.2-21.6 0-9.3 3.6-16.8 10.5-22.3s16.3-8.4 27.8-8.4c12 0 23.2 2.2 33.3 6.7l-4.3 12.2c-10.1-4.3-19.6-6.2-29.2-6.2-7.4 0-13.4 1.7-17.5 4.8-4.3 3.1-6.2 7.7-6.2 13.4 0 4.3.7 7.7 2.4 10.3 1.4 2.6 4.1 5 7.9 7.4 3.6 2.2 9.3 4.8 16.8 7.4 12.7 4.6 21.6 9.3 26.3 14.6 4.8 5.6 6.7 11.8 6.7 20.2zM540.4 601.9h-14.1V493.4H488V481h91v12.5h-38.3V602h-.3zM664.4 601.9h-67.5V480.7h67.5v12.5H611v39h50.3v12.5H611v44.6h53.4v12.6zM705.4 551.6v50.3h-14.1V480.7h33.3c14.9 0 25.9 2.9 33.1 8.6 7.2 5.7 10.5 14.4 10.5 25.6 0 16-8.1 26.8-24.4 32.6l32.8 54.4h-16.8l-29.5-50.3h-24.9zm0-12.2h19.4c10.1 0 17.2-1.9 21.8-6 4.6-3.8 6.9-9.8 6.9-17.7s-2.4-13.9-7.2-17.2c-4.8-3.6-12.2-5.3-22.8-5.3h-18.4v46.2h.3zM893.2 540.1c0 20.1-5.5 35.2-16.3 46-10.8 10.5-26.6 15.8-46.9 15.8h-33.5V480.7h37.1c18.9 0 33.5 5.3 44.1 15.6 10.2 10.5 15.5 25.1 15.5 43.8zm-14.9.5c0-15.8-4.1-27.8-12-35.7-7.9-7.9-19.6-12-35.4-12h-20.6v96.8h17.2c16.8 0 29.5-4.1 37.8-12.5s13-20.3 13-36.6zM996.4 601.9l-15.1-38.6h-48.6l-14.9 38.6h-14.4l47.9-121.7h12l47.7 121.7h-14.6zM977 550.7l-14.1-37.6c-1.9-4.8-3.6-10.5-5.7-17.5-1.2 5.3-2.9 11-5.3 17.5l-14.4 37.6H977zM1081.4 601.9l-41.2-107.3h-.7c.7 8.6 1.2 18.7 1.2 30.4v77.1h-12.9V481h21.3l38.3 99.9h.7l38.8-99.9h21.1v121.2h-14.1v-78.1c0-8.9.5-18.7 1.2-29.2h-.7L1092.7 602h-11.3z"/></g></svg>