<svg xmlns="http://www.w3.org/2000/svg" xmlns:xlink="http://www.w3.org/1999/xlink" viewBox="0 0 1024 768"><defs><path id="a" d="M0 0h1024v768H0z"/></defs><clipPath id="b"><use xlink:href="#a" overflow="visible"/></clipPath><g clip-path="url(#b)"><defs><path id="c" d="M0-5.3h1090.8v778H0z"/></defs><clipPath id="d"><use xlink:href="#c" overflow="visible"/></clipPath><g clip-path="url(#d)"><image overflow="visible" width="2182" height="1556" xlink:href="81D0E1A82385DFCB.png" transform="matrix(.5 0 0 .5 0 -5.266)"/></g></g><path clip-path="url(#b)" fill="#FFF" d="M527.7 458.3c-.5 0-.9.4-.9.8s.4.8.8.8h.1c.2 0 .4-.1.5-.2.1.1.3.2.5.2h.1c.4 0 .8-.3.8-.8 0-.4-.3-.8-.8-.8h-.1c-.2 0-.4.1-.5.2-.1-.1-.3-.2-.5-.2m-3.2.1c-.1 0-.1 0 0 0h-.1c-.4 0-.8.4-.7.9 0 .4.4.7.8.7h.2c.4 0 .8-.4.7-.9-.2-.3-.5-.7-.9-.7m-3.2.5h-.1-.1c-.4.1-.7.5-.6.9.1.4.4.7.8.7h.2c.4-.1.7-.5.7-.9-.2-.4-.6-.7-.9-.7m-3.2.7h-.2c-.4.1-.7.5-.6 1 .1.4.4.6.8.6H518.4c.4-.1.7-.5.6-1-.2-.4-.6-.6-.9-.6m-3.2.9h-.2c-.4.1-.7.6-.5 1 .1.3.4.6.8.6H515.3c.4-.1.7-.6.5-1-.2-.4-.5-.6-.9-.6m-3 1c-.1 0-.2 0-.3.1h-.1c-.4.2-.6.6-.5 1 .1.3.4.5.8.5.1 0 .2 0 .3-.1h.1c.4-.2.6-.6.5-1.1-.2-.2-.5-.4-.8-.4m-3 1.3c-.1 0-.2 0-.3.1-.4.2-.6.7-.4 1.1.1.3.4.5.7.5.1 0 .2 0 .3-.1h.1c.4-.2.6-.7.4-1.1-.2-.3-.5-.5-.8-.5m-2.9 1.5c-.1 0-.3 0-.4.1h-.1c-.4.2-.5.7-.3 1.1.1.3.4.4.7.4.1 0 .3 0 .4-.1h.1c.4-.2.5-.7.3-1.1-.1-.3-.4-.4-.7-.4m-2.8 1.6c-.1 0-.3 0-.4.1h-.1c-.4.2-.5.7-.3 1.1.2.3.4.4.7.4.1 0 .3 0 .4-.1h.1c.4-.2.5-.7.3-1.1-.2-.2-.5-.4-.7-.4m-2.9 1.7c-.1 0-.3 0-.4.1h-.1c-.4.2-.5.7-.3 1.1.2.3.4.4.7.4.1 0 .3 0 .4-.1h.1c.4-.2.5-.7.3-1.1-.1-.2-.4-.4-.7-.4m-2.9 1.7c-.1 0-.3 0-.4.1h-.1c-.4.2-.5.7-.3 1.1.2.3.4.4.7.4.1 0 .3 0 .4-.1h.1c.4-.2.5-.7.3-1.1-.1-.3-.4-.4-.7-.4m-2.8 1.6c-.1 0-.3 0-.4.1h-.1c-.4.2-.5.7-.3 1.1.1.3.4.4.7.4.1 0 .3 0 .4-.1h.1c.4-.2.5-.7.3-1.1-.2-.2-.4-.4-.7-.4m-2.9 1.7c-.1 0-.3 0-.4.1h-.1c-.4.2-.5.7-.3 1.1.1.3.4.4.7.4.1 0 .3 0 .4-.1h.1c.4-.2.5-.7.3-1.1-.1-.3-.4-.4-.7-.4m-2.8 1.7c-.1 0-.3 0-.4.1-.4.2-.5.7-.3 1.1.2.3.4.4.7.4.1 0 .3 0 .4-.1h.1c.4-.2.5-.7.3-1.1-.3-.3-.5-.4-.8-.4m-2.9 1.6c-.1 0-.3 0-.4.1h-.1c-.4.2-.5.7-.3 1.1.2.3.4.4.7.4.1 0 .3 0 .4-.1h.1c.4-.2.5-.7.3-1.1-.1-.2-.4-.4-.7-.4m-2.8 1.7c-.1 0-.3 0-.4.1h-.1c-.4.2-.5.7-.3 1.1.2.3.4.4.7.4.1 0 .3 0 .4-.1h.1c.4-.2.5-.7.3-1.1-.2-.3-.4-.4-.7-.4m-2.9 1.7c-.1 0-.3 0-.4.1-.4.2-.5.7-.3 1.1.2.3.4.4.7.4.1 0 .3 0 .4-.1h.1c.4-.2.5-.7.3-1.1-.2-.3-.5-.4-.8-.4m-2.8 1.6c-.1 0-.3 0-.4.1-.4.2-.5.7-.3 1.1.1.3.4.4.7.4.1 0 .3 0 .4-.1h.1c.4-.2.5-.7.3-1.1-.3-.2-.6-.4-.8-.4m-2.9 1.7c-.1 0-.3 0-.4.1h-.1c-.4.2-.5.7-.3 1.1.2.3.4.4.7.4.1 0 .3 0 .4-.1h.1c.4-.2.5-.7.3-1.1-.1-.3-.4-.4-.7-.4m-2.8 1.6c-.1 0-.3 0-.4.1-.4.2-.5.7-.3 1.1.1.3.4.4.7.4.1 0 .3 0 .4-.1h.1c.4-.2.5-.7.3-1.1-.3-.2-.6-.4-.8-.4m-2.9 1.7c-.1 0-.3 0-.4.1h-.1c-.4.2-.5.7-.3 1.1.1.3.4.4.7.4.1 0 .3 0 .4-.1h.1c.4-.2.5-.7.3-1.1-.2-.3-.4-.4-.7-.4m-2.9 1.7c-.1 0-.3 0-.4.1-.4.2-.5.7-.3 1.1.2.3.4.4.7.4.1 0 .3 0 .4-.1h.1c.4-.2.5-.7.3-1.1-.2-.3-.5-.4-.8-.4m-2.8 1.6c-.1 0-.3 0-.4.1h-.1c-.4.2-.5.7-.3 1.1.2.3.4.4.7.4.1 0 .3 0 .4-.1h.1c.4-.2.5-.7.3-1.1-.2-.2-.4-.4-.7-.4m-2.9 1.7c-.1 0-.3 0-.4.1h-.1c-.4.2-.5.7-.3 1.1.1.3.4.4.7.4.1 0 .3 0 .4-.1h.1c.4-.2.5-.7.3-1.1-.1-.3-.4-.4-.7-.4m-3 1.5c-.1 0-.2 0-.3.1h-.1c-.4.2-.6.7-.4 1.1.1.3.4.5.7.5.1 0 .2 0 .3-.1h.1c.4-.2.6-.7.4-1.1-.1-.3-.4-.5-.7-.5m-3.1 1.4c-.1 0-.2 0-.3.1-.4.2-.6.6-.5 1.1.1.3.4.5.8.5.1 0 .2 0 .3-.1h.1c.4-.2.6-.6.5-1.1-.2-.3-.5-.5-.9-.5m-3.1 1.1h-.3-.1c-.4.1-.7.6-.5 1 .1.3.4.6.8.6h.4c.4-.1.7-.6.5-1-.1-.4-.5-.6-.8-.6m-3.2 1h-.2-.1c-.4.1-.7.6-.6 1 .1.4.4.6.8.6H448.1c.4-.1.7-.6.6-1-.1-.4-.4-.6-.8-.6m-3.2.8h-.2-.1c-.4.1-.7.5-.6 1 .1.4.4.6.8.6H444.9c.4-.1.7-.5.6-1-.1-.3-.5-.6-.8-.6m-3.3.7h-.2-.1c-.4.1-.7.5-.6 1 .1.4.4.7.8.7H441.6c.4-.1.7-.5.6-.9-.1-.5-.4-.8-.8-.8m-3.3.6h-.1c-.4.1-.7.5-.7.9.1.4.4.7.8.7h.2c.4-.1.7-.5.7-.9-.1-.4-.5-.7-.9-.7m-3.3.4h-.1c-.4 0-.8.4-.7.9 0 .4.4.7.8.7h.2c.4 0 .8-.4.7-.9-.1-.3-.5-.7-.9-.7m-3.3.3c-.1 0-.1 0 0 0h-.1c-.4 0-.8.4-.8.9 0 .4.4.8.8.8h.1c.4 0 .8-.4.8-.9s-.4-.8-.8-.8m-3.4.1c-.4 0-.8.4-.8.8s.4.8.8.8h.1c.4 0 .8-.4.8-.8-.1-.4-.4-.8-.9-.8zm-3.4-.1c-.4 0-.8.3-.8.7 0 .4.3.8.7.9h.2c.4 0 .8-.3.8-.7 0-.4-.3-.8-.7-.9h-.2m-3.3-.4c-.4 0-.8.3-.8.7 0 .4.3.8.7.9h.2c.4 0 .8-.3.8-.7 0-.4-.3-.8-.7-.9h-.2c.1 0 0 0 0 0m-3.3-.3c-.4 0-.8.3-.8.7 0 .4.3.8.7.9h.2c.4 0 .8-.3.8-.7 0-.4-.3-.8-.7-.9h-.2c.1 0 0 0 0 0m-3.3-.4c-.4 0-.8.3-.8.7 0 .4.3.8.7.9h.2c.4 0 .8-.3.8-.7 0-.4-.3-.8-.7-.9h-.2c.1 0 .1 0 0 0m-3.3-.4c-.4 0-.8.3-.8.7 0 .4.3.8.7.9h.2c.4 0 .8-.3.8-.7 0-.4-.3-.8-.7-.9-.1.1-.1.1-.2 0 .1 0 .1 0 0 0m-3.2-.3c-.4 0-.8.3-.8.7 0 .4.3.8.7.9h.2c.4 0 .8-.3.8-.7 0-.4-.3-.8-.7-.9h-.2m-3.3-.4c-.4 0-.8.3-.8.7 0 .4.3.8.7.9h.2c.4 0 .8-.3.8-.7 0-.4-.3-.8-.7-.9h-.2m-3.3-.3c-.4 0-.8.3-.8.7 0 .4.3.8.7.9h.2c.4 0 .8-.3.8-.7 0-.4-.3-.8-.7-.9h-.2m-3.3-.4c-.4 0-.8.3-.8.7 0 .4.3.8.7.9h.2c.4 0 .8-.3.8-.7 0-.4-.3-.8-.7-.9h-.2c.1 0 0 0 0 0m-3.3-.3c-.4 0-.8.3-.8.7 0 .4.3.8.7.9h.2c.4 0 .8-.3.8-.7 0-.4-.3-.8-.7-.9h-.2c.1 0 0 0 0 0m-3.3-.4c-.4 0-.8.3-.8.7 0 .4.3.8.7.9h.2c.4 0 .8-.3.8-.7 0-.4-.3-.8-.7-.9h-.2c.1 0 .1 0 0 0m-3.3-.3c-.4 0-.8.3-.8.7 0 .4.3.8.7.9h.2c.4 0 .8-.3.8-.7 0-.4-.3-.8-.7-.9h-.2c.1 0 .1 0 0 0m-3.2-.4c-.4 0-.8.3-.8.7 0 .4.3.8.7.9h.2c.4 0 .8-.3.8-.7 0-.4-.3-.8-.7-.9h-.2m-3.3-.2c-.4 0-.8.4-.8.8s.4.8.8.8h.1c.4 0 .8-.4.8-.8s-.3-.8-.9-.8zm-3.1.2s-.1 0 0 0h-.1c-.4 0-.8.4-.7.9 0 .4.4.7.8.7h.2c.4 0 .8-.4.7-.9-.1-.4-.5-.7-.9-.7m-3.2.4h-.1-.1c-.4.1-.7.5-.6.9.1.4.4.7.8.7h.2c.4-.1.7-.5.7-.9-.2-.4-.5-.7-.9-.7m-3.2.7h-.2-.1c-.4.1-.7.6-.6 1 .1.4.4.6.8.6H372.7c.4-.1.7-.6.6-1-.1-.3-.4-.6-.8-.6m-3.1 1h-.3-.1c-.4.1-.6.6-.5 1 .1.3.4.6.8.6h.4c.4-.1.7-.6.5-1-.1-.4-.4-.6-.8-.6m-3 1.1c-.1 0-.2 0-.3.1h-.1c-.4.2-.6.6-.4 1.1.1.3.4.5.8.5.1 0 .2 0 .3-.1h.1c.4-.2.6-.6.4-1.1-.2-.3-.5-.5-.8-.5m-3 1.3c-.1 0-.2 0-.4.1h-.1c-.4.2-.6.7-.4 1.1.1.3.4.4.7.4.1 0 .2 0 .4-.1h.1c.4-.2.6-.7.4-1.1-.1-.2-.4-.4-.7-.4m-2.8 1.6c-.1 0-.3 0-.4.1h-.1c-.4.2-.5.7-.3 1.1.2.3.4.4.7.4.1 0 .3 0 .4-.1h.1c.4-.2.5-.7.3-1.1-.2-.3-.5-.4-.7-.4m-2.7 1.8c-.2 0-.3 0-.5.1h-.1c-.4.3-.4.8-.2 1.1.2.2.4.3.7.3.2 0 .3 0 .5-.1.4-.3.5-.8.2-1.1-.1-.2-.4-.3-.6-.3m-2.6 1.9c-.2 0-.4.1-.5.2l-.1.1c-.3.3-.4.8-.1 1.1.2.2.4.3.6.3.2 0 .4-.1.5-.2.3-.3.4-.8.1-1.1 0-.3-.3-.4-.5-.4m-2.3 2.3c-.2 0-.4.1-.6.3-.3.3-.3.8.1 1.1.2.1.4.2.5.2.2 0 .4-.1.6-.3.3-.3.3-.8-.1-1.1-.1-.1-.3-.2-.5-.2m-2.2 2.4c-.2 0-.4.1-.6.3v.1c-.3.3-.3.8.1 1.1.2.1.4.2.5.2.2 0 .4-.1.6-.3.3-.3.3-.8-.1-1.1-.1-.2-.3-.3-.5-.3m-2.2 2.5c-.2 0-.4.1-.6.3-.3.3-.3.8.1 1.1.2.1.4.2.5.2.2 0 .4-.1.6-.3.3-.3.3-.8-.1-1.1-.1-.2-.3-.2-.5-.2m-2.2 2.4c-.2 0-.4.1-.6.3-.3.3-.3.8.1 1.1.2.1.4.2.5.2.2 0 .4-.1.6-.3.3-.3.3-.8-.1-1.1-.2-.1-.3-.2-.5-.2m-2.3 2.5c-.2 0-.4.1-.6.3-.3.3-.3.8.1 1.1.2.1.3.2.5.2s.4-.1.6-.3c.3-.3.3-.8-.1-1.1-.1-.2-.3-.2-.5-.2m-2.2 2.4c-.2 0-.4.1-.6.3-.3.3-.3.8.1 1.1.2.1.4.2.5.2.2 0 .4-.1.6-.3.3-.3.3-.8-.1-1.1-.1-.1-.3-.2-.5-.2m-2.2 2.5c-.2 0-.4.1-.6.3-.3.3-.3.8.1 1.1.2.1.4.2.5.2.2 0 .4-.1.6-.3.3-.3.3-.8-.1-1.1-.1-.2-.3-.2-.5-.2m-2.2 2.4c-.2 0-.4.1-.6.3-.3.3-.3.8.1 1.1.2.1.4.2.5.2.2 0 .4-.1.6-.3.3-.3.3-.8-.1-1.1-.1-.1-.3-.2-.5-.2m-2.3 2.4c-.2 0-.4.1-.6.3-.3.3-.3.8.1 1.1.2.1.4.2.5.2.2 0 .4-.1.6-.3.3-.3.3-.8-.1-1.1-.1-.1-.3-.2-.5-.2m-2.2 2.5c-.2 0-.4.1-.6.3v.1c-.3.3-.3.8.1 1.1.2.1.4.2.5.2.2 0 .4-.1.6-.3.3-.3.3-.8-.1-1.1-.1-.2-.3-.3-.5-.3m-2.2 2.4c-.2 0-.4.1-.6.3-.3.3-.3.8.1 1.1.2.1.4.2.5.2.2 0 .4-.1.6-.3.3-.3.3-.8-.1-1.1-.1-.1-.3-.2-.5-.2m-2.2 2.5c-.2 0-.4.1-.6.3-.3.3-.3.8.1 1.1.2.1.4.2.5.2.2 0 .4-.1.6-.3.3-.3.3-.8-.1-1.1-.1-.2-.3-.2-.5-.2m-2.2 2.4c-.2 0-.4.1-.6.3v.1c-.3.3-.3.8.1 1.1.2.1.3.2.5.2s.4-.1.6-.3c.3-.3.3-.8-.1-1.1-.2-.2-.3-.3-.5-.3m-2.3 2.5c-.2 0-.4.1-.6.3-.3.3-.3.8.1 1.1.2.1.4.2.5.2.2 0 .4-.1.6-.3.3-.3.3-.8-.1-1.1-.1-.2-.3-.2-.5-.2m-2.2 2.4c-.2 0-.4.1-.6.3-.3.3-.3.8.1 1.1.2.1.4.2.5.2.2 0 .4-.1.6-.3.3-.3.3-.8-.1-1.1-.1-.1-.3-.2-.5-.2m-2.2 2.5c-.2 0-.4.1-.6.3l-.1.1c-.3.3-.3.8.1 1.1.2.1.4.2.5.2.2 0 .4-.1.6-.3.3-.3.3-.8-.1-1.1 0-.3-.2-.3-.4-.3m-2.2 2.4c-.2 0-.4.1-.6.3-.3.3-.3.8.1 1.1.2.1.4.2.5.2.2 0 .4-.1.6-.3.3-.3.3-.8-.1-1.1-.1-.1-.3-.2-.5-.2m-2.3 2.4c-.2 0-.4.1-.6.3-.3.3-.3.8.1 1.1.2.1.4.2.5.2.2 0 .4-.1.6-.3.3-.3.3-.8-.1-1.1-.1-.1-.3-.2-.5-.2m-2.2 2.5c-.2 0-.4.1-.6.3l-.1.1c-.3.3-.3.8.1 1.1.2.1.3.2.5.2s.4-.1.6-.3c.3-.3.3-.8-.1-1.1 0-.2-.2-.3-.4-.3m-2.2 2.4c-.2 0-.4.1-.6.3-.3.3-.3.8.1 1.1.2.1.4.2.5.2.2 0 .4-.1.6-.3.3-.3.3-.8-.1-1.1-.1-.1-.3-.2-.5-.2m-2.2 2.5c-.2 0-.4.1-.6.3v.1c-.3.3-.3.8.1 1.1.2.1.4.2.5.2.2 0 .4-.1.6-.3.3-.3.3-.8-.1-1.1-.1-.2-.3-.3-.5-.3m-2.2 2.4c-.2 0-.4.1-.6.3-.3.3-.3.8.1 1.1.2.1.4.2.5.2.2 0 .4-.1.6-.3.3-.3.3-.8-.1-1.1-.2-.1-.4-.2-.5-.2m-2.3 2.5c-.2 0-.4.1-.6.3-.3.3-.3.8.1 1.1.2.1.4.2.5.2.2 0 .4-.1.6-.3.3-.3.3-.8-.1-1.1-.1-.2-.3-.2-.5-.2m-2.2 2.4c-.2 0-.4.1-.6.3v.1c-.3.3-.3.8.1 1.1.2.1.4.2.5.2.2 0 .4-.1.6-.3.3-.3.3-.8-.1-1.1-.1-.2-.3-.3-.5-.3m-2.2 2.5c-.2 0-.4.1-.6.3-.3.3-.3.8.1 1.1.2.1.4.2.5.2.2 0 .4-.1.6-.3.3-.3.3-.8-.1-1.1-.1-.2-.3-.2-.5-.2m-2.2 2.4c-.2 0-.4.1-.6.3-.3.3-.3.8.1 1.1.2.1.4.2.5.2.2 0 .4-.1.6-.3.3-.3.3-.8-.1-1.1-.1-.1-.3-.2-.5-.2m-2.3 2.5c-.2 0-.4.1-.6.3v.1c-.3.3-.3.8.1 1.1.2.1.3.2.5.2s.4-.1.6-.3c.3-.3.3-.8-.1-1.1-.1-.3-.3-.3-.5-.3m-2.2 2.4c-.2 0-.4.1-.6.3-.3.3-.3.8.1 1.1.2.1.4.2.5.2.2 0 .4-.1.6-.3.3-.3.3-.8-.1-1.1-.1-.1-.3-.2-.5-.2m-2.2 2.4c-.2 0-.4.1-.6.3-.3.3-.3.8.1 1.1.2.1.4.2.5.2.2 0 .4-.1.6-.3.3-.3.3-.8-.1-1.1-.1-.1-.3-.2-.5-.2m-2.2 2.5c-.2 0-.4.1-.6.3-.3.3-.3.8.1 1.1.2.1.4.2.5.2.2 0 .4-.1.6-.3.3-.3.3-.8-.1-1.1-.1-.1-.3-.2-.5-.2m-2.2 2.4c-.2 0-.4.1-.6.3-.3.3-.3.8.1 1.1.2.1.4.2.5.2.2 0 .4-.1.6-.3.3-.3.3-.8-.1-1.1-.2-.1-.4-.2-.5-.2m-2.3 2.5c-.2 0-.4.1-.6.3v.1c-.3.3-.3.8.1 1.1.2.1.3.2.5.2s.4-.1.6-.3c.3-.3.3-.8-.1-1.1-.1-.3-.3-.3-.5-.3m-2.2 2.4c-.2 0-.4.1-.6.3-.3.3-.3.8.1 1.1.2.1.4.2.5.2.2 0 .4-.1.6-.3.3-.3.3-.8-.1-1.1-.1-.1-.3-.2-.5-.2m-2.2 2.5c-.2 0-.4.1-.6.3-.3.3-.3.8.1 1.1.2.1.4.2.5.2.2 0 .4-.1.6-.3.3-.3.3-.8-.1-1.1-.1-.2-.3-.2-.5-.2m-2.2 2.4c-.2 0-.4.1-.6.3v.1c-.3.3-.3.8.1 1.1.2.1.3.2.5.2s.4-.1.6-.3c.3-.3.3-.8-.1-1.1-.2-.2-.3-.3-.5-.3m-2.3 2.5c-.2 0-.4.1-.6.3-.3.3-.3.8.1 1.1.2.1.3.2.5.2s.4-.1.6-.3c.3-.3.3-.8-.1-1.1-.1-.2-.3-.2-.5-.2m-2.2 2.4c-.2 0-.4.1-.6.3-.3.3-.3.8.1 1.1.2.1.4.2.5.2.2 0 .4-.1.6-.3.3-.3.3-.8-.1-1.1-.1-.1-.3-.2-.5-.2m-2.2 2.4c-.2 0-.4.1-.6.3l-.1.1c-.3.3-.3.8.1 1.1.2.1.4.2.5.2.2 0 .4-.1.6-.3.3-.3.3-.8-.1-1.1 0-.2-.2-.3-.4-.3m-2.2 2.5c-.2 0-.4.1-.6.3-.3.3-.3.8.1 1.1.2.1.4.2.5.2.2 0 .4-.1.6-.3.3-.3.3-.8-.1-1.1-.1-.1-.3-.2-.5-.2m-2.3 2.4c-.2 0-.4.1-.6.3-.3.3-.3.8.1 1.1.2.1.4.2.5.2.2 0 .4-.1.6-.3.3-.3.3-.8-.1-1.1-.1-.1-.3-.2-.5-.2m-2.2 2.5c-.2 0-.4.1-.6.3l-.1.1c-.3.3-.3.8.1 1.1.2.1.4.2.5.2.2 0 .4-.1.6-.3.3-.3.3-.8-.1-1.1 0-.3-.2-.3-.4-.3m-2.2 2.4c-.2 0-.4.1-.6.3-.3.3-.3.8.1 1.1.2.1.4.2.5.2.2 0 .4-.1.6-.3.3-.3.3-.8-.1-1.1-.1-.1-.3-.2-.5-.2m-2.2 2.5c-.2 0-.4.1-.6.3l-.1.1c-.3.3-.3.8.1 1.1.2.1.4.2.5.2.2 0 .4-.1.6-.3.3-.3.3-.8-.1-1.1 0-.3-.2-.3-.4-.3m-2.2 2.4c-.2 0-.4.1-.6.3-.3.3-.3.8.1 1.1.2.1.4.2.5.2.2 0 .4-.1.6-.3.3-.3.3-.8-.1-1.1-.2-.1-.3-.2-.5-.2m-2.3 2.5c-.2 0-.4.1-.6.3-.3.3-.3.8.1 1.1.2.1.4.2.5.2.2 0 .4-.1.6-.3.3-.3.3-.8-.1-1.1-.1-.2-.3-.2-.5-.2m-2.2 2.4c-.2 0-.4.1-.6.3v.1c-.3.3-.3.8.1 1.1.2.1.3.2.5.2s.4-.1.6-.3c.3-.3.3-.8-.1-1.1-.1-.2-.3-.3-.5-.3m-2.2 2.4c-.2 0-.4.1-.6.3-.3.3-.3.8.1 1.1.2.1.4.2.5.2.2 0 .4-.1.6-.3.3-.3.3-.8-.1-1.1-.1-.1-.3-.2-.5-.2m-2.2 2.5c-.2 0-.4.1-.6.3-.3.3-.3.8.1 1.1.2.1.4.2.5.2.2 0 .4-.1.6-.3.3-.3.3-.8-.1-1.1-.1-.1-.3-.2-.5-.2m-2.3 2.4c-.2 0-.4.1-.6.3v.1c-.3.3-.3.8.1 1.1.2.1.4.2.5.2.2 0 .4-.1.6-.3.3-.3.3-.8-.1-1.1-.1-.2-.3-.3-.5-.3m-2.2 2.5c-.2 0-.4.1-.6.3-.3.3-.3.8.1 1.1.2.1.4.2.5.2.2 0 .4-.1.6-.3.3-.3.3-.8-.1-1.1-.1-.1-.3-.2-.5-.2m-2.2 2.4c-.2 0-.4.1-.6.3-.3.3-.3.8.1 1.1.2.1.4.2.5.2.2 0 .4-.1.6-.3.3-.3.3-.8-.1-1.1-.1-.1-.3-.2-.5-.2m-2.2 2.5c-.2 0-.4.1-.6.3v.1c-.3.3-.3.8.1 1.1.2.1.4.2.5.2.2 0 .4-.1.6-.3.3-.3.3-.8-.1-1.1-.1-.3-.3-.3-.5-.3m-2.2 2.4c-.2 0-.4.1-.6.3-.3.3-.3.8.1 1.1.2.1.4.2.5.2.2 0 .4-.1.6-.3.3-.3.3-.8-.1-1.1-.2-.1-.4-.2-.5-.2m-2.3 2.5c-.2 0-.4.1-.6.3-.3.3-.3.8.1 1.1.2.1.3.2.5.2s.4-.1.6-.3c.3-.3.3-.8-.1-1.1-.1-.2-.3-.2-.5-.2m-2.2 2.4c-.2 0-.4.1-.6.3-.3.3-.3.8.1 1.1.2.1.4.2.5.2.2 0 .4-.1.6-.3.3-.3.3-.8-.1-1.1-.1-.1-.3-.2-.5-.2m-2.2 2.5c-.2 0-.4.1-.6.3-.3.3-.3.8.1 1.1.2.1.4.2.5.2.2 0 .4-.1.6-.3.3-.3.3-.8-.1-1.1-.1-.2-.3-.2-.5-.2m-2.2 2.4c-.2 0-.4.1-.6.3v.1c-.3.3-.3.8.1 1.1.2.1.4.2.5.2.2 0 .4-.1.6-.3.3-.3.3-.8-.1-1.1-.1-.2-.3-.3-.5-.3m-2.3 2.4c-.2 0-.4.1-.6.3-.3.3-.3.8.1 1.1.2.1.4.2.5.2.2 0 .4-.1.6-.3.3-.3.3-.8-.1-1.1-.1-.1-.3-.2-.5-.2m-2.2 2.5c-.2 0-.4.1-.6.3-.3.3-.3.8.1 1.1.2.1.4.2.5.2.2 0 .4-.1.6-.3.3-.3.3-.8-.1-1.1-.1-.1-.3-.2-.5-.2m-2.2 2.4c-.2 0-.4.1-.6.3v.1c-.3.3-.3.8.1 1.1.2.1.3.2.5.2s.4-.1.6-.3c.3-.3.3-.8-.1-1.1-.1-.2-.3-.3-.5-.3m-2.2 2.5c-.2 0-.4.1-.6.3-.3.3-.3.8.1 1.1.2.1.4.2.5.2.2 0 .4-.1.6-.3.3-.3.3-.8-.1-1.1-.1-.2-.3-.2-.5-.2m-2.2 2.4c-.2 0-.4.1-.6.3-.3.3-.3.8.1 1.1.2.1.3.2.5.2s.4-.1.6-.3c.3-.3.3-.8-.1-1.1-.2-.1-.4-.2-.5-.2m-2.3 2.5c-.2 0-.4.1-.6.3l-.1.1c-.3.3-.3.8.1 1.1.2.1.4.2.5.2.2 0 .4-.1.6-.3.3-.3.3-.8-.1-1.1 0-.3-.2-.3-.4-.3m-2.2 2.4c-.2 0-.4.1-.6.3-.3.3-.3.8.1 1.1.2.1.4.2.5.2.2 0 .4-.1.6-.3.3-.3.3-.8-.1-1.1-.1-.1-.3-.2-.5-.2m-2.2 2.5c-.2 0-.4.1-.6.3-.3.3-.3.8.1 1.1.2.1.4.2.5.2.2 0 .4-.1.6-.3.3-.3.3-.8-.1-1.1-.1-.2-.3-.2-.5-.2m-2.2 2.4c-.2 0-.4.1-.6.3l-.1.1c-.3.3-.3.8.1 1.1.2.1.4.2.5.2.2 0 .4-.1.6-.3.3-.3.3-.8-.1-1.1 0-.2-.2-.3-.4-.3m-2.3 2.4c-.2 0-.4.1-.6.3-.3.3-.3.8.1 1.1.2.1.4.2.5.2.2 0 .4-.1.6-.3.3-.3.3-.8-.1-1.1-.1-.1-.3-.2-.5-.2m-2.2 2.5c-.2 0-.4.1-.6.3v.1c-.3.3-.3.8.1 1.1.2.1.3.2.5.2s.4-.1.6-.3c.3-.3.3-.8-.1-1.1-.1-.2-.3-.3-.5-.3m-2.2 2.4c-.2 0-.4.1-.6.3-.3.3-.3.8.1 1.1.2.1.3.2.5.2s.4-.1.6-.3c.3-.3.3-.8-.1-1.1-.1-.1-.3-.2-.5-.2m-2.2 2.5c-.2 0-.4.1-.6.3-.3.3-.3.8.1 1.1.2.1.3.2.5.2s.4-.1.6-.3c.3-.3.3-.8-.1-1.1-.1-.1-.3-.2-.5-.2m-2.2 2.5c-.2 0-.4.1-.6.3-.3.3-.3.8.1 1.1.2.1.3.2.5.2s.4-.1.6-.3c.3-.3.3-.8-.1-1.1-.1-.2-.3-.2-.5-.2m-2.2 2.4c-.2 0-.4.1-.6.3-.3.3-.3.8.1 1.1.2.1.3.2.5.2s.4-.1.6-.3c.3-.3.3-.8-.1-1.1-.1-.1-.3-.2-.5-.2m-2.2 2.5c-.2 0-.4.1-.6.3-.3.3-.3.8.1 1.1.2.1.3.2.5.2s.4-.1.6-.3c.3-.3.3-.8-.1-1.1-.1-.1-.3-.2-.5-.2m-2.2 2.5c-.2 0-.4.1-.6.3-.3.3-.3.8.1 1.1.2.1.3.2.5.2s.4-.1.6-.3c.3-.3.3-.8-.1-1.1-.1-.2-.3-.2-.5-.2m-2.2 2.4c-.2 0-.4.1-.6.3-.3.3-.3.8.1 1.1.2.1.3.2.5.2s.4-.1.6-.3c.3-.3.3-.8-.1-1.1-.1-.1-.3-.2-.5-.2m-2.1 2.5c-.2 0-.4.1-.6.3-.3.3-.3.8.1 1.1.2.1.3.2.5.2s.5-.1.6-.3c.3-.3.3-.8-.1-1.1-.2-.1-.4-.2-.5-.2m-2.2 2.5c-.2 0-.4.1-.6.3v.1c-.3.3-.3.8.1 1.1.2.1.3.2.5.2s.5-.1.6-.3c.3-.3.3-.8-.1-1.1-.1-.2-.3-.3-.5-.3m-2.2 2.5c-.2 0-.5.1-.6.3-.3.3-.3.8.1 1.1.2.1.3.2.5.2s.5-.1.6-.3c.3-.3.3-.8-.1-1.1-.1-.1-.3-.2-.5-.2m-2.2 2.5c-.2 0-.5.1-.6.3-.3.3-.2.9.1 1.1.2.1.3.2.5.2s.5-.1.6-.3c.3-.3.3-.9-.1-1.1-.1-.1-.3-.2-.5-.2m-2.1 2.5c-.2 0-.5.1-.6.3-.3.3-.2.8.1 1.1.2.1.3.2.5.2s.5-.1.6-.3c.3-.3.3-.9-.1-1.1-.1-.1-.3-.2-.5-.2m-2.2 2.5c-.2 0-.4.1-.6.3-.3.3-.3.8.1 1.1.2.1.3.2.5.2s.4-.1.6-.3c.3-.3.3-.8-.1-1.1-.1-.1-.3-.2-.5-.2m-2.2 2.5c-.2 0-.4.1-.6.2-.3.3-.3.8 0 1.1.2.2.4.2.6.2.2 0 .4-.1.6-.2.3-.3.3-.8 0-1.1-.2-.2-.4-.2-.6-.2m-2.4 2.3c-.2 0-.4.1-.6.2h-.1c-.3.3-.3.8 0 1.1.2.2.4.3.6.3.2 0 .4-.1.6-.2.3-.3.3-.8 0-1.1-.1-.2-.3-.3-.5-.3m-2.5 2.2c-.2 0-.4.1-.5.2-.3.3-.4.8-.1 1.1.2.2.4.3.6.3.2 0 .4-.1.5-.2.3-.3.4-.8.1-1.1-.1-.2-.4-.3-.6-.3m-2.5 2.2c-.2 0-.4.1-.5.2-.3.3-.4.8-.1 1.1.2.2.4.3.6.3.2 0 .4-.1.5-.2h.1c.3-.3.4-.8.1-1.1-.3-.2-.5-.3-.7-.3m-2.6 2.1c-.2 0-.3.1-.5.2-.4.3-.4.8-.1 1.1.2.2.4.3.6.3.2 0 .4-.1.5-.2h.1c.4-.3.4-.8.1-1.1-.2-.2-.5-.3-.7-.3m-2.7 2c-.2 0-.3.1-.5.2-.4.3-.4.8-.2 1.1.2.2.4.3.7.3.2 0 .3 0 .5-.2h.1c.4-.3.4-.8.2-1.1-.3-.2-.5-.3-.8-.3m-2.7 1.9c-.2 0-.3 0-.5.1-.4.3-.5.8-.2 1.1.2.2.4.3.7.3.2 0 .3 0 .5-.1h.1c.4-.3.5-.8.2-1.1-.3-.2-.5-.3-.8-.3m-2.7 1.9c-.1 0-.3 0-.4.1-.4.2-.5.7-.2 1.1.2.2.4.4.7.4.2 0 .3 0 .4-.1h.1c.4-.2.5-.7.2-1.1-.3-.3-.6-.4-.8-.4m-2.8 1.8c-.1 0-.3 0-.4.1-.4.2-.5.7-.3 1.1.2.3.4.4.7.4.1 0 .3 0 .4-.1h.1c.4-.2.5-.7.3-1.1-.3-.3-.6-.4-.8-.4m-2.9 1.7c-.1 0-.3 0-.4.1-.4.2-.5.7-.3 1.1.1.3.4.4.7.4.1 0 .3 0 .4-.1h.1c.4-.2.5-.7.3-1.1-.3-.3-.5-.4-.8-.4m-3 1.5c-.1 0-.2 0-.4.1-.4.2-.6.7-.4 1.1.1.3.4.5.7.5.1 0 .2 0 .4-.1h.1c.4-.2.6-.7.4-1.1-.2-.3-.5-.5-.8-.5m-3 1.4c-.1 0-.2 0-.3.1-.4.2-.6.7-.4 1.1.1.3.4.5.7.5.1 0 .2 0 .3-.1h.1c.4-.2.6-.7.4-1.1-.2-.3-.5-.5-.8-.5m-3 1.4c-.1 0-.2 0-.3.1-.4.2-.6.7-.4 1.1.1.3.4.5.7.5.1 0 .2 0 .3-.1h.1c.4-.2.6-.7.4-1.1-.2-.3-.5-.5-.8-.5m-3 1.4c-.1 0-.2 0-.3.1h-.1c-.4.2-.6.7-.4 1.1.1.3.4.5.7.5.1 0 .2 0 .3-.1h.1c.4-.2.6-.7.4-1.1-.1-.3-.4-.5-.7-.5m-3 1.4c-.1 0-.2 0-.3.1-.4.2-.6.7-.4 1.1.1.3.4.5.7.5.1 0 .2 0 .3-.1h.1c.4-.2.6-.7.4-1.1-.2-.4-.5-.5-.8-.5m-3 1.3c-.1 0-.2 0-.3.1-.4.2-.6.7-.4 1.1.1.3.4.5.7.5.1 0 .2 0 .3-.1h.1c.4-.2.6-.7.4-1.1-.2-.3-.5-.5-.8-.5m-3 1.4c-.1 0-.2 0-.3.1h-.1c-.4.2-.6.7-.4 1.1.1.3.4.5.7.5.1 0 .2 0 .3-.1h.1c.4-.2.6-.7.4-1.1-.1-.3-.4-.5-.7-.5m-3 1.4c-.1 0-.2 0-.3.1-.4.2-.6.7-.4 1.1.1.3.4.5.7.5.1 0 .2 0 .3-.1h.1c.4-.2.6-.7.4-1.1-.2-.3-.5-.5-.8-.5m-3 1.4c-.1 0-.2 0-.3.1-.4.2-.6.7-.4 1.1.1.3.4.5.7.5.1 0 .2 0 .3-.1h.1c.4-.2.6-.7.4-1.1-.2-.3-.5-.5-.8-.5m-3 1.4c-.1 0-.2 0-.3.1h-.1c-.4.2-.6.7-.4 1.1.1.3.4.5.7.5.1 0 .2 0 .3-.1h.1c.4-.2.6-.7.4-1.1-.1-.4-.4-.5-.7-.5m-3 1.3c-.1 0-.2 0-.3.1h-.1c-.4.2-.6.7-.4 1.1.1.3.4.5.7.5.1 0 .2 0 .3-.1h.1c.4-.2.6-.7.4-1.1-.1-.3-.4-.5-.7-.5m-3 1.4c-.1 0-.2 0-.3.1-.4.2-.6.7-.4 1.1.1.3.4.5.7.5.1 0 .2 0 .3-.1h.1c.4-.2.6-.7.4-1.1-.2-.3-.5-.5-.8-.5m-3 1.4c-.1 0-.2 0-.3.1h-.1c-.4.2-.6.7-.4 1.1.1.3.4.5.7.5.1 0 .2 0 .3-.1h.1c.4-.2.6-.7.4-1.1-.1-.3-.4-.5-.7-.5m-3 1.4c-.1 0-.2 0-.3.1h-.1c-.4.2-.6.7-.4 1.1.1.3.4.5.7.5.1 0 .2 0 .3-.1h.1c.4-.2.6-.7.4-1.1-.1-.3-.4-.5-.7-.5m-3 1.4c-.1 0-.2 0-.3.1-.4.2-.6.7-.4 1.1.1.3.4.5.7.5.1 0 .2 0 .3-.1h.1c.4-.2.6-.7.4-1.1-.2-.4-.5-.5-.8-.5m-3 1.3c-.1 0-.2 0-.3.1-.4.2-.6.7-.4 1.1.1.3.4.5.7.5.1 0 .2 0 .3-.1h.1c.4-.2.6-.7.4-1.1-.2-.3-.5-.5-.8-.5m-3 1.4c-.1 0-.2 0-.3.1h-.1c-.4.2-.6.7-.4 1.1.1.3.4.5.7.5.1 0 .2 0 .3-.1h.1c.4-.2.6-.7.4-1.1-.1-.3-.4-.5-.7-.5m-3 1.4c-.1 0-.2 0-.3.1-.4.2-.6.7-.4 1.1.1.3.4.5.7.5.1 0 .2 0 .3-.1h.1c.4-.2.6-.7.4-1.1-.2-.3-.5-.5-.8-.5m-3 1.4c-.1 0-.2 0-.3.1h-.1c-.4.2-.6.7-.4 1.1.1.3.4.5.7.5.1 0 .2 0 .3-.1h.1c.4-.2.6-.7.4-1.1-.1-.3-.4-.5-.7-.5m-3 1.4c-.1 0-.2 0-.3.1-.4.2-.6.7-.4 1.1.1.3.4.5.7.5.1 0 .2 0 .3-.1h.1c.4-.2.6-.7.4-1.1-.2-.4-.5-.5-.8-.5m-3 1.3c-.1 0-.2 0-.3.1-.4.2-.6.7-.4 1.1.1.3.4.5.7.5.1 0 .2 0 .3-.1h.1c.4-.2.6-.7.4-1.1-.2-.3-.5-.5-.8-.5m-3 1.4c-.1 0-.2 0-.3.1-.4.2-.6.7-.4 1.1.1.3.4.5.7.5.1 0 .2 0 .3-.1h.1c.4-.2.6-.7.4-1.1-.2-.3-.5-.5-.8-.5m-3 1.4c-.1 0-.2 0-.3.1h-.1c-.4.2-.6.7-.4 1.1.1.3.4.5.7.5.1 0 .2 0 .3-.1h.1c.4-.2.6-.7.4-1.1-.1-.3-.4-.5-.7-.5m-3 1.4c-.1 0-.2 0-.3.1h-.1c-.4.2-.6.7-.4 1.1.1.3.4.5.7.5.1 0 .2 0 .3-.1h.1c.4-.2.6-.7.4-1.1-.1-.3-.4-.5-.7-.5m-3 1.4c-.1 0-.2 0-.3.1-.4.2-.6.7-.4 1.1.1.3.4.5.7.5.1 0 .2 0 .3-.1h.1c.4-.2.6-.7.4-1.1-.2-.4-.5-.5-.8-.5m-3 1.3c-.1 0-.2 0-.3.1h-.1c-.4.2-.6.7-.4 1.1.1.3.4.5.7.5.1 0 .2 0 .3-.1h.1c.4-.2.6-.7.4-1.1-.1-.3-.4-.5-.7-.5m-3 1.4c-.1 0-.2 0-.3.1-.4.2-.6.7-.4 1.1.1.3.4.5.7.5.1 0 .2 0 .3-.1h.1c.4-.2.6-.7.4-1.1-.2-.3-.5-.5-.8-.5m-3 1.4c-.1 0-.2 0-.3.1h-.1c-.4.2-.6.7-.4 1.1.1.3.4.5.7.5.1 0 .2 0 .3-.1h.1c.4-.2.6-.7.4-1.1-.1-.3-.4-.5-.7-.5m-3.1 1.4c-.1 0-.2 0-.3.1h-.1c-.4.2-.6.7-.4 1.1.1.3.4.5.7.5.1 0 .2 0 .3-.1h.1c.4-.2.6-.7.4-1.1-.1-.3-.3-.5-.7-.5m-3 1.4c-.1 0-.2 0-.3.1h-.1c-.4.2-.6.7-.4 1.1.1.3.4.5.7.5.1 0 .2 0 .3-.1h.1c.4-.2.6-.7.4-1.1-.1-.4-.3-.5-.7-.5m-3 1.3c-.1 0-.2 0-.3.1-.4.2-.6.7-.4 1.1.1.3.4.5.7.5.1 0 .2 0 .3-.1h.1c.4-.2.6-.7.4-1.1-.2-.3-.4-.5-.8-.5m-3 1.4c-.1 0-.2 0-.3.1-.4.2-.6.7-.4 1.1.1.3.4.5.7.5.1 0 .2 0 .3-.1h.1c.4-.2.6-.7.4-1.1-.2-.3-.4-.5-.8-.5m-3 1.4c-.1 0-.2 0-.3.1h-.1c-.4.2-.6.7-.4 1.1.1.3.4.5.7.5.1 0 .2 0 .3-.1h.1c.4-.2.6-.7.4-1.1-.1-.3-.4-.5-.7-.5m-3 1.4c-.1 0-.2 0-.3.1h-.1c-.4.2-.6.7-.4 1.1.1.3.4.5.7.5.1 0 .2 0 .3-.1h.1c.4-.2.6-.7.4-1.1-.1-.3-.4-.5-.7-.5m-3 1.4c-.1 0-.2 0-.3.1-.4.2-.6.7-.4 1.1.1.3.4.5.7.5.1 0 .2 0 .3-.1h.1c.4-.2.6-.7.4-1.1-.2-.4-.5-.5-.8-.5m-3 1.3c-.1 0-.2 0-.3.1h-.1c-.4.2-.6.7-.4 1.1.1.3.4.5.7.5.1 0 .2 0 .3-.1h.1c.4-.2.6-.7.4-1.1-.1-.3-.4-.5-.7-.5m-3 1.4c-.1 0-.2 0-.3.1h-.1c-.4.2-.6.7-.4 1.1.1.3.4.5.7.5.1 0 .2 0 .3-.1h.1c.4-.2.6-.7.4-1.1-.1-.3-.4-.5-.7-.5m-3 1.4c-.1 0-.2 0-.3.1-.4.2-.6.7-.4 1.1.1.3.4.5.7.5.1 0 .2 0 .3-.1h.1c.4-.2.6-.7.4-1.1-.2-.3-.5-.5-.8-.5m-3 1.4c-.1 0-.2 0-.3.1h-.1c-.4.2-.6.7-.4 1.1.1.3.4.5.7.5.1 0 .2 0 .3-.1h.1c.4-.2.6-.7.4-1.1-.1-.3-.4-.5-.7-.5m-3 1.4c-.1 0-.2 0-.3.1-.4.2-.6.7-.4 1.1.1.3.4.5.7.5.1 0 .2 0 .3-.1h.1c.4-.2.6-.7.4-1.1-.2-.4-.5-.5-.8-.5m-3 1.3c-.1 0-.2 0-.3.1-.4.2-.6.7-.4 1.1.1.3.4.5.7.5.1 0 .2 0 .3-.1h.1c.4-.2.6-.7.4-1.1-.2-.3-.5-.5-.8-.5m-3 1.4c-.1 0-.2 0-.3.1h-.1c-.4.2-.6.7-.4 1.1.1.3.4.5.7.5.1 0 .2 0 .3-.1h.1c.4-.2.6-.7.4-1.1-.1-.3-.4-.5-.7-.5m-3 1.4c-.1 0-.2 0-.3.1-.4.2-.6.7-.4 1.1.1.3.4.5.7.5.1 0 .2 0 .3-.1h.1c.4-.2.6-.7.4-1.1-.2-.3-.5-.5-.8-.5m-3 1.4c-.1 0-.2 0-.3.1-.4.2-.6.7-.4 1.1.1.3.4.5.7.5.1 0 .2 0 .3-.1h.1c.4-.2.6-.7.4-1.1-.2-.3-.5-.5-.8-.5m-3 1.4c-.1 0-.2 0-.3.1-.4.2-.6.7-.4 1.1.1.3.4.5.7.5.1 0 .2 0 .3-.1h.1c.4-.2.6-.7.4-1.1-.2-.4-.5-.5-.8-.5m-3 1.3c-.1 0-.2 0-.3.1-.4.2-.6.7-.4 1.1.1.3.4.5.7.5.1 0 .2 0 .3-.1h.1c.4-.2.6-.7.4-1.1-.2-.3-.5-.5-.8-.5m-3 1.4c-.1 0-.2 0-.3.1-.4.2-.6.7-.4 1.1.1.3.4.5.7.5.1 0 .2 0 .3-.1H9c.4-.2.6-.7.4-1.1-.2-.3-.5-.5-.8-.5m-3 1.4c-.1 0-.2 0-.3.1h-.1c-.4.2-.6.7-.4 1.1.1.3.4.5.7.5.1 0 .2 0 .3-.1h.1c.4-.2.6-.7.4-1.1-.1-.3-.4-.5-.7-.5m-3 1.4c-.1 0-.2 0-.3.1h-.1c-.4.2-.6.7-.4 1.1.1.3.4.5.7.5.1 0 .2 0 .3-.1h.1c.4-.2.6-.7.4-1.1-.1-.3-.4-.5-.7-.5m-3 1.4c-.1 0-.2 0-.3.1-.4.2-.6.7-.4 1.1.1.3.4.5.7.5.1 0 .2 0 .3-.1H0c.4-.2.6-.7.4-1.1-.2-.4-.5-.5-.8-.5m-3 1.3c-.1 0-.2 0-.3.1h-.1c-.4.2-.6.7-.4 1.1.1.3.4.5.7.5.1 0 .2 0 .3-.1h.1c.4-.2.6-.7.4-1.1-.1-.3-.4-.5-.7-.5m-3 1.4c-.1 0-.2 0-.3.1h-.1c-.4.2-.6.7-.4 1.1.1.3.4.5.7.5.1 0 .2 0 .3-.1h.1c.4-.2.6-.7.4-1.1-.1-.3-.4-.5-.7-.5m-3 1.4c-.1 0-.2 0-.3.1-.4.2-.6.7-.4 1.1.1.3.4.5.7.5.1 0 .2 0 .3-.1h.1c.4-.2.6-.7.4-1.1-.2-.3-.5-.5-.8-.5m-3 1.4c-.1 0-.2 0-.3.1h-.1c-.4.2-.6.7-.4 1.1.1.3.4.5.7.5.1 0 .2 0 .3-.1h.1c.4-.2.6-.7.4-1.1-.1-.3-.4-.5-.7-.5m-3 1.4c-.1 0-.2 0-.3.1h-.1c-.4.2-.6.7-.4 1.1.1.3.4.5.7.5.1 0 .2 0 .3-.1h.1c.4-.2.6-.7.4-1.1-.1-.4-.4-.5-.7-.5m-3 1.3c-.1 0-.2 0-.3.1-.4.2-.6.7-.4 1.1.1.3.4.5.7.5.1 0 .2 0 .3-.1h.1c.4-.2.6-.7.4-1.1-.2-.3-.5-.5-.8-.5m-3 1.4c-.1 0-.2 0-.3.1-.4.2-.6.7-.4 1.1.1.3.4.5.7.5.1 0 .2 0 .3-.1h.1c.4-.2.6-.7.4-1.1-.2-.3-.5-.5-.8-.5m-3 1.4c-.1 0-.2 0-.3.1h-.1c-.4.2-.6.7-.4 1.1.1.3.4.5.7.5.1 0 .2 0 .3-.1h.1c.4-.2.6-.7.4-1.1-.1-.3-.4-.5-.7-.5m-3 1.4c-.1 0-.2 0-.3.1-.4.2-.6.7-.4 1.1.1.3.4.5.7.5.1 0 .2 0 .3-.1h.1c.4-.2.6-.7.4-1.1-.2-.3-.5-.5-.8-.5m-3 1.4c-.1 0-.2 0-.3.1-.4.2-.6.7-.4 1.1.1.3.4.5.7.5.1 0 .2 0 .3-.1h.1c.4-.2.6-.7.4-1.1-.2-.4-.5-.5-.8-.5m-3 1.3c-.1 0-.2 0-.3.1h-.1c-.4.2-.6.7-.4 1.1.1.3.4.5.7.5.1 0 .2 0 .3-.1h.1c.4-.2.6-.7.4-1.1-.1-.3-.4-.5-.7-.5m-3 1.4c-.1 0-.2 0-.3.1-.4.2-.6.7-.4 1.1.1.3.4.5.7.5.1 0 .2 0 .3-.1h.1c.4-.2.6-.7.4-1.1-.2-.3-.5-.5-.8-.5m-3 1.4c-.1 0-.2 0-.3.1-.4.2-.6.7-.4 1.1.1.3.4.5.7.5.1 0 .2 0 .3-.1h.1c.4-.2.6-.7.4-1.1-.2-.3-.5-.5-.8-.5m-3 1.4c-.1 0-.2 0-.3.1h-.1c-.4.2-.6.7-.4 1.1.1.3.4.5.7.5.1 0 .2 0 .3-.1h.1c.4-.2.6-.7.4-1.1-.1-.3-.4-.5-.7-.5m-3 1.4c-.1 0-.2 0-.3.1-.4.2-.6.7-.4 1.1.1.3.4.5.7.5.1 0 .2 0 .3-.1h.1c.4-.2.6-.7.4-1.1-.2-.4-.5-.5-.8-.5m-3 1.3c-.1 0-.2 0-.3.1h-.1c-.4.2-.6.7-.4 1.1.1.3.4.5.7.5.1 0 .2 0 .3-.1h.1c.4-.2.6-.7.4-1.1-.1-.3-.4-.5-.7-.5m-3 1.4c-.1 0-.2 0-.3.1h-.1c-.4.2-.6.7-.4 1.1.1.3.4.5.7.5.1 0 .2 0 .3-.1h.1c.4-.2.6-.7.4-1.1-.1-.3-.4-.5-.7-.5m-3 1.4c-.1 0-.2 0-.3.1-.4.2-.6.7-.4 1.1.1.3.4.5.7.5.1 0 .2 0 .3-.1h.1c.4-.2.6-.7.4-1.1-.2-.3-.5-.5-.8-.5m-3 1.4c-.1 0-.2 0-.3.1h-.1c-.4.2-.6.7-.4 1.1.1.3.4.5.7.5.1 0 .2 0 .3-.1h.1c.4-.2.6-.7.4-1.1-.1-.3-.4-.5-.7-.5m-3 1.4c-.1 0-.2 0-.3.1h-.1c-.4.2-.6.7-.4 1.1.1.3.4.5.7.5.1 0 .2 0 .3-.1h.1c.4-.2.6-.7.4-1.1-.1-.4-.4-.5-.7-.5m-3 1.3c-.1 0-.2 0-.3.1h-.1c-.4.2-.6.7-.4 1.1.1.3.4.5.7.5.1 0 .2 0 .3-.1h.1c.4-.2.6-.7.4-1.1-.1-.3-.4-.5-.7-.5m-3 1.4c-.1 0-.2 0-.3.1-.4.2-.6.7-.4 1.1.1.3.4.5.7.5.1 0 .2 0 .3-.1h.1c.4-.2.6-.7.4-1.1-.2-.3-.5-.5-.8-.5m-3 1.4c-.1 0-.3 0-.4.1-.4.2-.5.7-.3 1.1.1.3.4.4.7.4.1 0 .3 0 .4-.1h.1c.4-.2.5-.7.3-1.1-.2-.2-.5-.4-.8-.4m-2.7 1.7c-.2 0-.3.1-.5.2h-.1c-.4.3-.4.8-.2 1.1.2.2.4.3.6.3.2 0 .3-.1.5-.2.4-.3.4-.8.2-1.1 0-.2-.2-.3-.5-.3m-1.7 2c-.4 0-.7.3-.8.7-.1.4.2.8.7.9h.1c.4 0 .7-.3.8-.7.1-.4-.2-.8-.7-.9h-.1M-72.3 829c-.3 0-.7.2-.8.6-.1.4.1.9.5 1H-72.3c.3 0 .7-.2.8-.6.1-.4-.1-.9-.5-1h-.3m3.1.6c-.4 0-.8.3-.8.7 0 .4.3.8.7.9h.1c.4 0 .8-.3.8-.7 0-.4-.3-.8-.7-.9h-.1m3.3.1c-.5 0-.9.4-.9.8s.4.8.8.8h.1c.4 0 .8-.4.8-.8 0-.5-.4-.8-.8-.8m3.3 0c-.5 0-.9.4-.9.8s.4.8.8.8h.1c.4 0 .8-.4.8-.8 0-.5-.4-.8-.8-.8m3.3 0c-.5 0-.9.4-.9.8s.4.8.8.8h.1c.4 0 .8-.4.8-.8 0-.5-.4-.8-.8-.8m3.3 0c-.5 0-.9.4-.9.8s.4.8.8.8h.1c.4 0 .8-.4.8-.8 0-.5-.4-.8-.8-.8m3.3 0c-.5 0-.9.4-.9.8s.4.8.8.8h.1c.4 0 .8-.4.8-.8 0-.5-.4-.8-.8-.8m3.3 0c-.5 0-.9.4-.9.8s.4.8.8.8h.1c.4 0 .8-.4.8-.8 0-.5-.4-.8-.8-.8m3.3 0c-.5 0-.9.4-.9.8s.4.8.8.8h.1c.4 0 .8-.4.8-.8 0-.5-.4-.8-.8-.8m3.3 0c-.5 0-.9.4-.9.8s.4.8.8.8h.1c.4 0 .8-.4.8-.8 0-.5-.4-.8-.8-.8m3.3 0c-.5 0-.9.4-.9.8s.4.8.8.8h.1c.4 0 .8-.4.8-.8 0-.5-.3-.8-.8-.8m3.3 0c-.5 0-.9.4-.9.8s.4.8.8.8h.1c.4 0 .8-.4.8-.8 0-.5-.3-.8-.8-.8m3.3 0c-.5 0-.9.4-.9.8s.4.8.8.8h.1c.4 0 .8-.4.8-.8 0-.5-.3-.8-.8-.8m3.3 0c-.5 0-.9.4-.9.8s.4.8.8.8h.1c.4 0 .8-.4.8-.8 0-.5-.3-.8-.8-.8m3.3 0c-.5 0-.9.4-.9.8s.4.8.8.8h.1c.4 0 .8-.4.8-.8 0-.5-.3-.8-.8-.8m3.3 0c-.5 0-.9.4-.9.8s.4.8.8.8h.1c.4 0 .8-.4.8-.8 0-.5-.3-.8-.8-.8m3.3 0c-.5 0-.9.4-.9.8s.4.8.8.8h.1c.4 0 .8-.4.8-.8 0-.5-.3-.8-.8-.8m3.3 0c-.5 0-.9.4-.9.8s.4.8.8.8h.1c.4 0 .8-.4.8-.8 0-.5-.3-.8-.8-.8m3.3 0c-.5 0-.9.4-.9.8s.4.8.8.8h.1c.4 0 .8-.4.8-.8 0-.5-.3-.8-.8-.8m3.3 0c-.5 0-.9.4-.9.8s.4.8.8.8h.1c.4 0 .8-.4.8-.8.1-.5-.3-.8-.8-.8m3.3 0c-.5 0-.9.4-.9.8s.4.8.8.8h.1c.4 0 .8-.4.8-.8.1-.5-.3-.8-.8-.8m3.4 0c-.5 0-.9.4-.9.8s.4.8.8.8h.1c.4 0 .8-.4.8-.8 0-.5-.4-.8-.8-.8m3.3 0c-.5 0-.9.4-.9.8s.4.8.8.8h.1c.4 0 .8-.4.8-.8 0-.5-.4-.8-.8-.8m3.3 0c-.5 0-.9.4-.9.8s.4.8.8.8h.1c.4 0 .8-.4.8-.8 0-.5-.4-.8-.8-.8m3.3 0c-.5 0-.9.4-.9.8s.4.8.8.8h.1c.4 0 .8-.4.8-.8 0-.5-.4-.8-.8-.8m3.3 0c-.5 0-.9.4-.9.8s.4.8.8.8h.1c.4 0 .8-.4.8-.8 0-.5-.4-.8-.8-.8m3.3 0c-.5 0-.9.4-.9.8s.4.8.8.8h.1c.4 0 .8-.4.8-.8 0-.5-.4-.8-.8-.8m3.3 0c-.5 0-.9.4-.9.8s.4.8.8.8h.1c.4 0 .8-.4.8-.8 0-.5-.4-.8-.8-.8m3.3 0c-.5 0-.9.4-.9.8s.4.8.8.8h.1c.4 0 .8-.4.8-.8 0-.5-.4-.8-.8-.8m3.3 0c-.5 0-.9.4-.9.8s.4.8.8.8h.1c.4 0 .8-.4.8-.8 0-.5-.4-.8-.8-.8m3.3 0c-.5 0-.9.4-.9.8s.4.8.8.8h.1c.4 0 .8-.4.8-.8 0-.5-.4-.8-.8-.8m3.3 0c-.5 0-.9.4-.9.8s.4.8.8.8h.1c.4 0 .8-.4.8-.8 0-.5-.4-.8-.8-.8m3.3 0c-.5 0-.9.4-.9.8s.4.8.8.8h.1c.4 0 .8-.4.8-.8 0-.5-.4-.8-.8-.8m3.3 0c-.5 0-.9.4-.9.8s.4.8.8.8h.1c.4 0 .8-.4.8-.8 0-.5-.4-.8-.8-.8m3.3 0c-.5 0-.9.4-.9.8s.4.8.8.8h.1c.4 0 .8-.4.8-.8 0-.5-.3-.8-.8-.8m3.3 0c-.5 0-.9.4-.9.8s.4.8.8.8h.1c.4 0 .8-.4.8-.8 0-.5-.3-.8-.8-.8m3.3 0c-.5 0-.9.4-.9.8s.4.8.8.8h.1c.4 0 .8-.4.8-.8 0-.5-.3-.8-.8-.8m3.3 0c-.5 0-.9.4-.9.8s.4.8.8.8h.1c.4 0 .8-.4.8-.8 0-.5-.3-.8-.8-.8m3.3 0c-.5 0-.9.4-.9.8s.4.8.8.8h.1c.4 0 .8-.4.8-.8 0-.5-.3-.8-.8-.8m3.3 0c-.5 0-.9.4-.9.8s.4.8.8.8h.1c.4 0 .8-.4.8-.8 0-.5-.3-.8-.8-.8m3.3 0c-.5 0-.9.4-.9.8s.4.8.8.8h.1c.4 0 .8-.4.8-.8 0-.5-.3-.8-.8-.8m3.3 0c-.5 0-.9.4-.9.8s.4.8.8.8h.1c.4 0 .8-.4.8-.8 0-.5-.3-.8-.8-.8m3.3 0c-.5 0-.9.4-.9.8s.4.8.8.8h.1c.4 0 .8-.4.8-.8 0-.5-.3-.8-.8-.8m3.3 0c-.5 0-.9.4-.9.8s.4.8.8.8h.1c.4 0 .8-.4.8-.8 0-.5-.3-.8-.8-.8m3.3 0c-.5 0-.9.4-.9.8s.4.8.8.8h.1c.4 0 .8-.4.8-.8.1-.5-.3-.8-.8-.8m3.3 0c-.5 0-.9.4-.9.8s.4.8.8.8h.1c.4 0 .8-.4.8-.8.1-.5-.3-.8-.8-.8m3.4 0c-.5 0-.9.4-.9.8s.4.8.8.8h.1c.4 0 .8-.4.8-.8 0-.5-.4-.8-.8-.8m3.3 0c-.5 0-.9.4-.9.8s.4.8.8.8h.1c.4 0 .8-.4.8-.8 0-.5-.4-.8-.8-.8m3.3 0c-.5 0-.9.4-.9.8s.4.8.8.8h.1c.4 0 .8-.4.8-.8 0-.5-.4-.8-.8-.8m3.3 0c-.5 0-.9.4-.9.8s.4.8.8.8h.1c.4 0 .8-.4.8-.8 0-.5-.4-.8-.8-.8m3.3 0c-.5 0-.9.4-.9.8s.4.8.8.8h.1c.4 0 .8-.4.8-.8 0-.5-.4-.8-.8-.8m3.3 0c-.5 0-.9.4-.9.8s.4.8.8.8h.1c.4 0 .8-.4.8-.8 0-.5-.4-.8-.8-.8m3.3 0c-.5 0-.9.4-.9.8s.4.8.8.8h.1c.4 0 .8-.4.8-.8 0-.5-.4-.8-.8-.8m3.3 0c-.5 0-.9.4-.9.8s.4.8.8.8h.1c.4 0 .8-.4.8-.8 0-.5-.4-.8-.8-.8m3.3 0c-.5 0-.9.4-.9.8s.4.8.8.8h.1c.4 0 .8-.4.8-.8 0-.5-.4-.8-.8-.8m3.3 0c-.5 0-.9.4-.9.8s.4.8.8.8h.1c.4 0 .8-.4.8-.8 0-.5-.4-.8-.8-.8m3.3 0c-.5 0-.9.4-.9.8s.4.8.8.8h.1c.4 0 .8-.4.8-.8 0-.5-.4-.8-.8-.8m3.3 0c-.5 0-.9.4-.9.8s.4.8.8.8h.1c.4 0 .8-.4.8-.8 0-.5-.4-.8-.8-.8m3.3 0c-.5 0-.9.4-.9.8s.4.8.8.8h.1c.4 0 .8-.4.8-.8 0-.5-.4-.8-.8-.8m3.3 0c-.5 0-.9.4-.9.8s.4.8.8.8h.1c.4 0 .8-.4.8-.8 0-.5-.3-.8-.8-.8m3.3 0c-.5 0-.9.4-.9.8s.4.8.8.8h.1c.4 0 .8-.4.8-.8 0-.5-.3-.8-.8-.8m3.3 0c-.5 0-.9.4-.9.8s.4.8.8.8h.1c.4 0 .8-.4.8-.8 0-.5-.3-.8-.8-.8m3.3 0c-.5 0-.9.4-.9.8s.4.8.8.8h.1c.4 0 .8-.4.8-.8 0-.5-.3-.8-.8-.8m3.3 0c-.5 0-.9.4-.9.8s.4.8.8.8h.1c.4 0 .8-.4.8-.8 0-.5-.3-.8-.8-.8m3.3 0c-.5 0-.9.4-.9.8s.4.8.8.8h.1c.4 0 .8-.4.8-.8 0-.5-.3-.8-.8-.8m3.3 0c-.5 0-.9.4-.9.8s.4.8.8.8h.1c.4 0 .8-.4.8-.8 0-.5-.3-.8-.8-.8m3.3 0c-.5 0-.9.4-.9.8s.4.8.8.8h.1c.4 0 .8-.4.8-.8 0-.5-.3-.8-.8-.8m3.3 0c-.5 0-.9.4-.9.8s.4.8.8.8h.1c.4 0 .8-.4.8-.8 0-.5-.3-.8-.8-.8m3.3 0c-.5 0-.9.4-.9.8s.4.8.8.8h.1c.4 0 .8-.4.8-.8.1-.5-.3-.8-.8-.8m3.3 0c-.5 0-.9.4-.9.8s.4.8.8.8h.1c.4 0 .8-.4.8-.8.1-.5-.3-.8-.8-.8m3.3 0c-.5 0-.9.4-.9.8s.4.8.8.8h.1c.4 0 .8-.4.8-.8.1-.5-.3-.8-.8-.8m3.4 0c-.5 0-.9.4-.9.8s.4.8.8.8h.1c.4 0 .8-.4.8-.8 0-.5-.4-.8-.8-.8m3.3 0c-.5 0-.9.4-.9.8s.4.8.8.8h.1c.4 0 .8-.4.8-.8 0-.5-.4-.8-.8-.8m3.3 0c-.5 0-.9.4-.9.8s.4.8.8.8h.1c.4 0 .8-.4.8-.8 0-.5-.4-.8-.8-.8m3.3 0c-.5 0-.9.4-.9.8s.4.8.8.8h.1c.4 0 .8-.4.8-.8 0-.5-.4-.8-.8-.8m3.3 0c-.5 0-.9.4-.9.8s.4.8.8.8h.1c.4 0 .8-.4.8-.8 0-.5-.4-.8-.8-.8m3.3 0c-.5 0-.9.4-.9.8s.4.8.8.8h.1c.4 0 .8-.4.8-.8 0-.5-.4-.8-.8-.8m3.3 0c-.5 0-.9.4-.9.8s.4.8.8.8h.1c.4 0 .8-.4.8-.8 0-.5-.4-.8-.8-.8m3.3 0c-.5 0-.9.4-.9.8s.4.8.8.8h.1c.4 0 .8-.4.8-.8 0-.5-.4-.8-.8-.8m3.3 0c-.5 0-.9.4-.9.8s.4.8.8.8h.1c.4 0 .8-.4.8-.8 0-.5-.4-.8-.8-.8m3.3 0c-.5 0-.9.4-.9.8s.4.8.8.8h.1c.4 0 .8-.4.8-.8 0-.5-.4-.8-.8-.8m3.3 0c-.5 0-.9.4-.9.8s.4.8.8.8h.1c.4 0 .8-.4.8-.8 0-.5-.4-.8-.8-.8m3.3 0c-.5 0-.9.4-.9.8s.4.8.8.8h.1c.4 0 .8-.4.8-.8 0-.5-.4-.8-.8-.8m3.3 0c-.5 0-.9.4-.9.8s.4.8.8.8h.1c.4 0 .8-.4.8-.8 0-.5-.4-.8-.8-.8m3.3 0c-.5 0-.9.4-.9.8s.4.8.8.8h.1c.4 0 .8-.4.8-.8 0-.5-.3-.8-.8-.8m3.3 0c-.5 0-.9.4-.9.8s.4.8.8.8h.1c.4 0 .8-.4.8-.8 0-.5-.3-.8-.8-.8m3.3 0c-.5 0-.9.4-.9.8s.4.8.8.8h.1c.4 0 .8-.4.8-.8 0-.5-.3-.8-.8-.8m3.3 0c-.5 0-.9.4-.9.8s.4.8.8.8h.1c.4 0 .8-.4.8-.8 0-.5-.3-.8-.8-.8m3.3 0c-.5 0-.9.4-.9.8s.4.8.8.8h.1c.4 0 .8-.4.8-.8 0-.5-.3-.8-.8-.8m3.3 0c-.5 0-.9.4-.9.8s.4.8.8.8h.1c.4 0 .8-.4.8-.8 0-.5-.3-.8-.8-.8m3.3 0c-.5 0-.9.4-.9.8s.4.8.8.8h.1c.4 0 .8-.4.8-.8 0-.5-.3-.8-.8-.8m3.3 0c-.5 0-.9.4-.9.8s.4.8.8.8h.1c.4 0 .8-.4.8-.8 0-.5-.3-.8-.8-.8m3.3 0c-.5 0-.9.4-.9.8s.4.8.8.8h.1c.4 0 .8-.4.8-.8 0-.5-.3-.8-.8-.8m3.3 0c-.5 0-.9.4-.9.8s.4.8.8.8h.1c.4 0 .8-.4.8-.8.1-.5-.3-.8-.8-.8m3.3 0c-.5 0-.9.4-.9.8s.4.8.8.8h.1c.4 0 .8-.4.8-.8.1-.5-.3-.8-.8-.8m3.4 0c-.5 0-.9.4-.9.8s.4.8.8.8h.1c.4 0 .8-.4.8-.8 0-.5-.4-.8-.8-.8m3.3 0c-.5 0-.9.4-.9.8s.4.8.8.8h.1c.4 0 .8-.4.8-.8 0-.5-.4-.8-.8-.8m3.3 0c-.5 0-.9.4-.9.8s.4.8.8.8h.1c.4 0 .8-.4.8-.8 0-.5-.4-.8-.8-.8m3.3 0c-.5 0-.9.4-.9.8s.4.8.8.8h.1c.4 0 .8-.4.8-.8 0-.5-.4-.8-.8-.8m3.3 0c-.5 0-.9.4-.9.8s.4.8.8.8h.1c.4 0 .8-.4.8-.8 0-.5-.4-.8-.8-.8m3.3 0c-.5 0-.9.4-.9.8s.4.8.8.8h.1c.4 0 .8-.4.8-.8 0-.5-.4-.8-.8-.8m3.3 0c-.5 0-.9.4-.9.8s.4.8.8.8h.1c.4 0 .8-.4.8-.8 0-.5-.4-.8-.8-.8m3.3 0c-.5 0-.9.4-.9.8s.4.8.8.8h.1c.4 0 .8-.4.8-.8 0-.5-.4-.8-.8-.8m3.3 0c-.5 0-.9.4-.9.8s.4.8.8.8h.1c.4 0 .8-.4.8-.8 0-.5-.4-.8-.8-.8m3.3 0c-.5 0-.9.4-.9.8s.4.8.8.8h.1c.4 0 .8-.4.8-.8 0-.5-.4-.8-.8-.8m3.3 0c-.5 0-.9.4-.9.8s.4.8.8.8h.1c.4 0 .8-.4.8-.8 0-.5-.4-.8-.8-.8m3.3 0c-.5 0-.9.4-.9.8s.4.8.8.8h.1c.4 0 .8-.4.8-.8 0-.5-.4-.8-.8-.8m3.3 0c-.5 0-.9.4-.9.8s.4.8.8.8h.1c.4 0 .8-.4.8-.8 0-.5-.4-.8-.8-.8m3.3 0c-.5 0-.9.4-.9.8s.4.8.8.8h.1c.4 0 .8-.4.8-.8 0-.5-.3-.8-.8-.8m3.3 0c-.5 0-.9.4-.9.8s.4.8.8.8h.1c.4 0 .8-.4.8-.8 0-.5-.3-.8-.8-.8m3.3 0c-.5 0-.9.4-.9.8s.4.8.8.8h.1c.4 0 .8-.4.8-.8 0-.5-.3-.8-.8-.8m3.3 0c-.5 0-.9.4-.9.8s.4.8.8.8h.1c.4 0 .8-.4.8-.8 0-.5-.3-.8-.8-.8m3.3 0c-.5 0-.9.4-.9.8s.4.8.8.8h.1c.4 0 .8-.4.8-.8 0-.5-.3-.8-.8-.8m3.3 0c-.5 0-.9.4-.9.8s.4.8.8.8h.1c.4 0 .8-.4.8-.8 0-.5-.3-.8-.8-.8m3.3 0c-.5 0-.9.4-.9.8s.4.8.8.8h.1c.4 0 .8-.4.8-.8 0-.5-.3-.8-.8-.8m3.3 0c-.5 0-.9.4-.9.8s.4.8.8.8h.1c.4 0 .8-.4.8-.8 0-.5-.3-.8-.8-.8m3.3 0c-.5 0-.9.4-.9.8s.4.8.8.8h.1c.4 0 .8-.4.8-.8 0-.5-.3-.8-.8-.8m3.3 0c-.5 0-.9.4-.9.8s.4.8.8.8h.1c.4 0 .8-.4.8-.8.1-.5-.3-.8-.8-.8m3.3 0c-.5 0-.9.4-.9.8s.4.8.8.8h.1c.4 0 .8-.4.8-.8.1-.5-.3-.8-.8-.8m3.3 0c-.5 0-.9.4-.9.8s.4.8.8.8h.1c.4 0 .8-.4.8-.8.1-.5-.3-.8-.8-.8m3.4 0c-.5 0-.9.4-.9.8s.4.8.8.8h.1c.4 0 .8-.4.8-.8 0-.5-.4-.8-.8-.8m3.3 0c-.5 0-.9.4-.9.8s.4.8.8.8h.1c.4 0 .8-.4.8-.8 0-.5-.4-.8-.8-.8m3.3 0c-.5 0-.9.4-.9.8s.4.8.8.8h.1c.4 0 .8-.4.8-.8 0-.5-.4-.8-.8-.8m3.3 0c-.5 0-.9.4-.9.8s.4.8.8.8h.1c.4 0 .8-.4.8-.8 0-.5-.4-.8-.8-.8m3.3 0c-.5 0-.9.4-.9.8s.4.8.8.8h.1c.4 0 .8-.4.8-.8 0-.5-.4-.8-.8-.8m3.3 0c-.5 0-.9.4-.9.8s.4.8.8.8h.1c.4 0 .8-.4.8-.8 0-.5-.4-.8-.8-.8m3.3 0c-.5 0-.9.4-.9.8s.4.8.8.8h.1c.4 0 .8-.4.8-.8 0-.5-.4-.8-.8-.8m3.3 0c-.5 0-.9.4-.9.8s.4.8.8.8h.1c.4 0 .8-.4.8-.8 0-.5-.4-.8-.8-.8m3.3 0c-.5 0-.9.4-.9.8s.4.8.8.8h.1c.4 0 .8-.4.8-.8 0-.5-.4-.8-.8-.8m3.3 0c-.5 0-.9.4-.9.8s.4.8.8.8h.1c.4 0 .8-.4.8-.8 0-.5-.4-.8-.8-.8m3.3 0c-.5 0-.9.4-.9.8s.4.8.8.8h.1c.4 0 .8-.4.8-.8 0-.5-.4-.8-.8-.8m3.3 0c-.5 0-.9.4-.9.8s.4.8.8.8h.1c.4 0 .8-.4.8-.8 0-.5-.4-.8-.8-.8m3.3 0c-.5 0-.9.4-.9.8s.4.8.8.8h.1c.4 0 .8-.4.8-.8 0-.5-.4-.8-.8-.8m3.3 0c-.5 0-.9.4-.9.8s.4.8.8.8h.1c.4 0 .8-.4.8-.8 0-.5-.3-.8-.8-.8m3.3 0c-.5 0-.9.4-.9.8s.4.8.8.8h.1c.4 0 .8-.4.8-.8 0-.5-.3-.8-.8-.8m3.3 0c-.5 0-.9.4-.9.8s.4.8.8.8h.1c.4 0 .8-.4.8-.8 0-.5-.3-.8-.8-.8m3.3 0c-.5 0-.9.4-.9.8s.4.8.8.8h.1c.4 0 .8-.4.8-.8 0-.5-.3-.8-.8-.8m3.3 0c-.5 0-.9.4-.9.8s.4.8.8.8h.1c.4 0 .8-.4.8-.8 0-.5-.3-.8-.8-.8m3.3 0c-.5 0-.9.4-.9.8s.4.8.8.8h.1c.4 0 .8-.4.8-.8 0-.5-.3-.8-.8-.8m3.3 0c-.5 0-.9.4-.9.8s.4.8.8.8h.1c.4 0 .8-.4.8-.8 0-.5-.3-.8-.8-.8m3.3 0c-.5 0-.9.4-.9.8s.4.8.8.8h.1c.4 0 .8-.4.8-.8 0-.5-.3-.8-.8-.8m3.3 0c-.5 0-.9.4-.9.8s.4.8.8.8h.1c.4 0 .8-.4.8-.8 0-.5-.3-.8-.8-.8m3.3 0c-.5 0-.9.4-.9.8s.4.8.8.8h.1c.4 0 .8-.4.8-.8.1-.5-.3-.8-.8-.8m3.3 0c-.5 0-.9.4-.9.8s.4.8.8.8h.1c.4 0 .8-.4.8-.8.1-.5-.3-.8-.8-.8m3.3 0c-.5 0-.9.4-.9.8s.4.8.8.8h.1c.4 0 .8-.4.8-.8.1-.5-.3-.8-.8-.8m3.4 0c-.5 0-.9.4-.9.8s.4.8.8.8h.1c.4 0 .8-.4.8-.8 0-.5-.4-.8-.8-.8m3.3 0c-.5 0-.9.4-.9.8s.4.8.8.8h.1c.4 0 .8-.4.8-.8 0-.5-.4-.8-.8-.8m3.3 0c-.5 0-.9.4-.9.8s.4.8.8.8h.1c.4 0 .8-.4.8-.8 0-.5-.4-.8-.8-.8m3.3 0c-.5 0-.9.4-.9.8s.4.8.8.8h.1c.4 0 .8-.4.8-.8 0-.5-.4-.8-.8-.8m3.3 0c-.5 0-.9.4-.9.8s.4.8.8.8h.1c.4 0 .8-.4.8-.8 0-.5-.4-.8-.8-.8m3.3 0c-.5 0-.9.4-.9.8s.4.8.8.8h.1c.4 0 .8-.4.8-.8 0-.5-.4-.8-.8-.8m3.3 0c-.5 0-.9.4-.9.8s.4.8.8.8h.1c.4 0 .8-.4.8-.8 0-.5-.4-.8-.8-.8m3.3 0c-.5 0-.9.4-.9.8s.4.8.8.8h.1c.4 0 .8-.4.8-.8 0-.5-.4-.8-.8-.8m3.3 0c-.5 0-.9.4-.9.8s.4.8.8.8h.1c.4 0 .8-.4.8-.8 0-.5-.4-.8-.8-.8m3.3 0c-.5 0-.9.4-.9.8s.4.8.8.8h.1c.4 0 .8-.4.8-.8 0-.5-.4-.8-.8-.8m3.3 0c-.5 0-.9.4-.9.8s.4.8.8.8h.1c.4 0 .8-.4.8-.8 0-.5-.4-.8-.8-.8m3.3 0c-.5 0-.9.4-.9.8s.4.8.8.8h.1c.4 0 .8-.4.8-.8 0-.5-.4-.8-.8-.8m3.3 0c-.5 0-.9.4-.9.8s.4.8.8.8h.1c.4 0 .8-.4.8-.8 0-.5-.3-.8-.8-.8m3.3 0c-.5 0-.9.4-.9.8s.4.8.8.8h.1c.4 0 .8-.4.8-.8 0-.5-.3-.8-.8-.8m3.3 0c-.5 0-.9.4-.9.8s.4.8.8.8h.1c.4 0 .8-.4.8-.8 0-.5-.3-.8-.8-.8m3.3 0c-.5 0-.9.4-.9.8s.4.8.8.8h.1c.4 0 .8-.4.8-.8 0-.5-.3-.8-.8-.8m3.3 0c-.5 0-.9.4-.9.8s.4.8.8.8h.1c.4 0 .8-.4.8-.8 0-.5-.3-.8-.8-.8m3.3 0c-.5 0-.9.4-.9.8s.4.8.8.8h.1c.4 0 .8-.4.8-.8 0-.5-.3-.8-.8-.8m3.3 0c-.5 0-.9.4-.9.8s.4.8.8.8h.1c.4 0 .8-.4.8-.8 0-.5-.3-.8-.8-.8m3.3 0c-.5 0-.9.4-.9.8s.4.8.8.8h.1c.4 0 .8-.4.8-.8 0-.5-.3-.8-.8-.8m3.3 0c-.5 0-.9.4-.9.8s.4.8.8.8h.1c.4 0 .8-.4.8-.8 0-.5-.3-.8-.8-.8m3.3 0c-.5 0-.9.4-.9.8s.4.8.8.8h.1c.4 0 .8-.4.8-.8 0-.5-.3-.8-.8-.8m3.3 0c-.5 0-.9.4-.9.8s.4.8.8.8h.1c.4 0 .8-.4.8-.8.1-.5-.3-.8-.8-.8m3.3 0c-.5 0-.9.4-.9.8s.4.8.8.8h.1c.4 0 .8-.4.8-.8.1-.5-.3-.8-.8-.8m3.4 0c-.5 0-.9.4-.9.8s.4.8.8.8h.1c.4 0 .8-.4.8-.8 0-.5-.4-.8-.8-.8m3.3 0c-.5 0-.9.4-.9.8s.4.8.8.8h.1c.4 0 .8-.4.8-.8 0-.5-.4-.8-.8-.8m3.3 0c-.5 0-.9.4-.9.8s.4.8.8.8h.1c.4 0 .8-.4.8-.8 0-.5-.4-.8-.8-.8m3.3 0c-.5 0-.9.4-.9.8s.4.8.8.8h.1c.4 0 .8-.4.8-.8 0-.5-.4-.8-.8-.8m3.3 0c-.5 0-.9.4-.9.8s.4.8.8.8h.1c.4 0 .8-.4.8-.8 0-.5-.4-.8-.8-.8m3.3 0c-.5 0-.9.4-.9.8s.4.8.8.8h.1c.4 0 .8-.4.8-.8 0-.5-.4-.8-.8-.8m3.3 0c-.5 0-.9.4-.9.8s.4.8.8.8h.1c.4 0 .8-.4.8-.8 0-.5-.4-.8-.8-.8m3.3 0c-.5 0-.9.4-.9.8s.4.8.8.8h.1c.4 0 .8-.4.8-.8 0-.5-.4-.8-.8-.8m3.3 0c-.5 0-.9.4-.9.8s.4.8.8.8h.1c.4 0 .8-.4.8-.8 0-.5-.4-.8-.8-.8m3.3 0c-.5 0-.9.4-.9.8s.4.8.8.8h.1c.4 0 .8-.4.8-.8 0-.5-.4-.8-.8-.8m3.3 0c-.5 0-.9.4-.9.8s.4.8.8.8h.1c.4 0 .8-.4.8-.8 0-.5-.4-.8-.8-.8m3.3 0c-.5 0-.9.4-.9.8s.4.8.8.8h.1c.4 0 .8-.4.8-.8 0-.5-.4-.8-.8-.8m3.3 0c-.5 0-.9.4-.9.8s.4.8.8.8h.1c.4 0 .8-.4.8-.8 0-.5-.4-.8-.8-.8m3.3 0c-.5 0-.9.4-.9.8s.4.8.8.8h.1c.4 0 .8-.4.8-.8 0-.5-.3-.8-.8-.8m3.3 0c-.5 0-.9.4-.9.8s.4.8.8.8h.1c.4 0 .8-.4.8-.8 0-.5-.3-.8-.8-.8m3.3 0c-.5 0-.9.4-.9.8s.4.8.8.8h.1c.4 0 .8-.4.8-.8 0-.5-.3-.8-.8-.8m3.3 0c-.5 0-.9.4-.9.8s.4.8.8.8h.1c.4 0 .8-.4.8-.8 0-.5-.3-.8-.8-.8m3.3 0c-.5 0-.9.4-.9.8s.4.8.8.8h.1c.4 0 .8-.4.8-.8 0-.5-.3-.8-.8-.8m3.3 0c-.5 0-.9.4-.9.8s.4.8.8.8h.1c.4 0 .8-.4.8-.8 0-.5-.3-.8-.8-.8m3.3 0c-.5 0-.9.4-.9.8s.4.8.8.8h.1c.4 0 .8-.4.8-.8 0-.5-.3-.8-.8-.8m3.3 0c-.5 0-.9.4-.9.8s.4.8.8.8h.1c.4 0 .8-.4.8-.8 0-.5-.3-.8-.8-.8m3.3 0c-.5 0-.9.4-.9.8s.4.8.8.8h.1c.4 0 .8-.4.8-.8 0-.5-.3-.8-.8-.8m3.3 0c-.5 0-.9.4-.9.8s.4.8.8.8h.1c.4 0 .8-.4.8-.8.1-.5-.3-.8-.8-.8m3.3 0c-.5 0-.9.4-.9.8s.4.8.8.8h.1c.4 0 .8-.4.8-.8.1-.5-.3-.8-.8-.8m3.3 0c-.5 0-.9.4-.9.8s.4.8.8.8h.1c.4 0 .8-.4.8-.8.1-.5-.3-.8-.8-.8m3.4 0c-.5 0-.9.4-.9.8s.4.8.8.8h.1c.4 0 .8-.4.8-.8 0-.5-.4-.8-.8-.8m3.3 0c-.5 0-.9.4-.9.8s.4.8.8.8h.1c.4 0 .8-.4.8-.8 0-.5-.4-.8-.8-.8m3.3 0c-.5 0-.9.4-.9.8s.4.8.8.8h.1c.4 0 .8-.4.8-.8 0-.5-.4-.8-.8-.8m3.3 0c-.5 0-.9.4-.9.8s.4.8.8.8h.1c.4 0 .8-.4.8-.8 0-.5-.4-.8-.8-.8m3.3 0c-.5 0-.9.4-.9.8s.4.8.8.8h.1c.4 0 .8-.4.8-.8 0-.5-.4-.8-.8-.8m3.3 0c-.5 0-.9.4-.9.8s.4.8.8.8h.1c.4 0 .8-.4.8-.8 0-.5-.4-.8-.8-.8m3.3 0c-.5 0-.9.4-.9.8s.4.8.8.8h.1c.4 0 .8-.4.8-.8 0-.5-.4-.8-.8-.8m3.3 0c-.5 0-.9.4-.9.8s.4.8.8.8h.1c.4 0 .8-.4.8-.8 0-.5-.4-.8-.8-.8m3.3 0c-.5 0-.9.4-.9.8s.4.8.8.8h.1c.4 0 .8-.4.8-.8 0-.5-.4-.8-.8-.8m3.3 0c-.5 0-.9.4-.9.8s.4.8.8.8h.1c.4 0 .8-.4.8-.8 0-.5-.4-.8-.8-.8m3.3 0c-.5 0-.9.4-.9.8s.4.8.8.8h.1c.4 0 .8-.4.8-.8 0-.5-.4-.8-.8-.8m3.3 0c-.5 0-.9.4-.9.8s.4.8.8.8h.1c.4 0 .8-.4.8-.8 0-.5-.4-.8-.8-.8m3.3 0c-.5 0-.9.4-.9.8s.4.8.8.8h.1c.4 0 .8-.4.8-.8 0-.5-.4-.8-.8-.8m3.3 0c-.5 0-.9.4-.9.8s.4.8.8.8h.1c.4 0 .8-.4.8-.8 0-.5-.3-.8-.8-.8m3.3 0c-.5 0-.9.4-.9.8s.4.8.8.8h.1c.4 0 .8-.4.8-.8 0-.5-.3-.8-.8-.8m3.3 0c-.5 0-.9.4-.9.8s.4.8.8.8h.1c.4 0 .8-.4.8-.8 0-.5-.3-.8-.8-.8m3.3 0c-.5 0-.9.4-.9.8s.4.8.8.8h.1c.4 0 .8-.4.8-.8 0-.5-.3-.8-.8-.8m3.3 0c-.5 0-.9.4-.9.8s.4.8.8.8h.1c.4 0 .8-.4.8-.8 0-.5-.3-.8-.8-.8m3.3 0c-.5 0-.9.4-.9.8s.4.8.8.8h.1c.4 0 .8-.4.8-.8 0-.5-.3-.8-.8-.8m3.3 0c-.5 0-.9.4-.9.8s.4.8.8.8h.1c.4 0 .8-.4.8-.8 0-.5-.3-.8-.8-.8m3.3 0c-.5 0-.9.4-.9.8s.4.8.8.8h.1c.4 0 .8-.4.8-.8 0-.5-.3-.8-.8-.8m3.3 0c-.5 0-.9.4-.9.8s.4.8.8.8h.1c.4 0 .8-.4.8-.8 0-.5-.3-.8-.8-.8m3.3 0c-.5 0-.9.4-.9.8s.4.8.8.8h.1c.4 0 .8-.4.8-.8.1-.5-.3-.8-.8-.8m3.3 0c-.5 0-.9.4-.9.8s.4.8.8.8h.1c.4 0 .8-.4.8-.8.1-.5-.3-.8-.8-.8m3.4 0c-.5 0-.9.4-.9.8s.4.8.8.8h.1c.4 0 .8-.4.8-.8 0-.5-.4-.8-.8-.8m3.3 0c-.5 0-.9.4-.9.8s.4.8.8.8h.1c.4 0 .8-.4.8-.8 0-.5-.4-.8-.8-.8m3.1-.2h-.2c-.4.1-.7.5-.7.9.1.4.4.7.8.7h.2c.4-.1.7-.5.7-.9s-.4-.7-.8-.7m3.1-.8h-.4c-.4.1-.6.6-.5 1 .1.3.4.5.8.5h.3c.4-.1.6-.6.5-1-.1-.3-.4-.5-.7-.5m2.8-1.3c-.1 0-.3 0-.4.1-.4.2-.5.7-.3 1.1.1.3.4.4.7.4.1 0 .3 0 .4-.1.4-.2.5-.7.3-1.1-.1-.3-.4-.4-.7-.4m2.6-1.8c-.2 0-.4.1-.5.2-.3.3-.4.8-.1 1.1.2.2.4.3.6.3.2 0 .4-.1.5-.2.3-.3.4-.8.1-1.1-.1-.2-.4-.3-.6-.3m2.2-2.3c-.2 0-.5.1-.6.3-.3.3-.2.9.1 1.1.1.1.3.2.5.2s.5-.1.6-.3c.3-.3.2-.9-.1-1.1-.1-.1-.3-.2-.5-.2m1.7-2.6c-.3 0-.6.2-.7.4v.1c-.2.4-.1.9.3 1.1.1.1.2.1.4.1.3 0 .6-.2.7-.4v-.1c.2-.4.1-.9-.3-1.1-.1-.1-.2-.1-.4-.1m1.2-2.9c-.3 0-.7.2-.8.6v.1c-.1.4.1.9.5 1h.2c.3 0 .7-.2.8-.6v-.1c.1-.4-.1-.9-.5-1h-.2m.7-3.1c-.4 0-.8.3-.8.7v.1c-.1.4.3.8.7.9h.1c.4 0 .8-.3.8-.7 0-.5-.3-.9-.8-1 .1 0 0 0 0 0m.1-3.2c-.5 0-.8.4-.8.9v.1c0 .4.4.8.8.8s.8-.4.8-.9v-.1c0-.4-.4-.8-.8-.8m-.3-3.2c-.5 0-.8.4-.8.9v.1c0 .4.4.7.8.7h.1c.4 0 .8-.4.7-.9 0-.5-.3-.8-.8-.8m-.2-3.3s-.1 0 0 0c-.5 0-.8.4-.8.9v.1c0 .4.4.7.8.7h.1c.4 0 .8-.4.7-.9v-.1c0-.4-.4-.7-.8-.7m-.3-3.3c-.5 0-.8.4-.8.9v.1c0 .4.4.7.8.7h.1c.4 0 .8-.4.7-.9v-.1c0-.4-.3-.7-.8-.7m-.2-3.3s-.1 0 0 0c-.5 0-.8.4-.8.9v.1c0 .4.4.8.8.8h.1c.4 0 .8-.4.7-.9v-.1c0-.5-.4-.8-.8-.8m-.3-3.3c-.5 0-.8.4-.8.9v.1c0 .4.4.8.8.8h.1c.4 0 .8-.4.7-.9v-.1c0-.5-.3-.8-.8-.8m-.2-3.3s-.1 0 0 0c-.5 0-.8.4-.8.9v.1c0 .4.4.7.8.7h.1c.4 0 .8-.4.7-.9v-.1c0-.4-.4-.7-.8-.7m-.3-3.3c-.5 0-.8.4-.8.9v.1c0 .4.4.7.8.7h.1c.4 0 .8-.4.7-.9v-.1c0-.4-.3-.7-.8-.7m-.2-3.3c-.5 0-.8.4-.8.9v.1c0 .4.4.7.8.7h.1c.4 0 .8-.4.7-.9v-.1c0-.4-.4-.7-.8-.7m-.3-3.3c-.5 0-.8.4-.8.9v.1c0 .4.4.7.8.7h.1c.4 0 .8-.4.7-.9 0-.5-.3-.8-.8-.8m-.2-3.3s-.1 0 0 0c-.5 0-.8.4-.8.9v.1c0 .4.4.7.8.7h.1c.4 0 .8-.4.7-.9v-.1c0-.4-.4-.7-.8-.7m-.3-3.3c-.5 0-.8.4-.8.9v.1c0 .4.4.8.8.8h.1c.4 0 .8-.4.7-.9v-.1c0-.5-.3-.8-.8-.8m-.2-3.3c-.5 0-.8.4-.8.9v.1c0 .4.4.7.8.7h.1c.4 0 .8-.4.7-.9v-.1c0-.4-.4-.7-.8-.7m-.3-3.3c-.5 0-.8.4-.8.9v.1c0 .4.4.7.8.7h.1c.4 0 .8-.4.7-.9v-.1c0-.4-.3-.7-.8-.7m-.2-3.3c-.5 0-.8.4-.8.9v.1c0 .4.4.7.8.7h.1c.4 0 .8-.4.7-.9 0-.5-.4-.8-.8-.8m-.3-3.3c-.5 0-.8.4-.8.9v.1c0 .4.4.7.8.7h.1c.4 0 .8-.4.7-.9v-.1c0-.3-.3-.7-.8-.7m-.2-3.3c-.5 0-.8.4-.8.9v.1c0 .4.4.7.8.7h.1c.4 0 .8-.4.7-.9v-.1c0-.3-.4-.7-.8-.7m-.3-3.3c-.5 0-.8.4-.8.9v.1c0 .4.4.8.8.8h.1c.4 0 .8-.4.7-.9v-.1c0-.4-.3-.8-.8-.8m-.2-3.3c-.5 0-.8.4-.8.8v.1c0 .4.4.8.8.8s.8-.4.8-.8v-.1c0-.4-.3-.8-.8-.8m0-3.3c-.5 0-.8.4-.8.8v.1c0 .4.4.8.8.8s.8-.4.8-.8v-.1c0-.5-.4-.8-.8-.8m0-3.3c-.4 0-.8.4-.8.8v.1c0 .4.3.8.8.8.4 0 .8-.3.8-.8 0-.6-.3-.9-.8-.9m.1-3.4c-.4 0-.8.3-.8.8v.1c0 .4.3.8.8.9.4 0 .8-.3.8-.8v-.1c.1-.5-.3-.8-.8-.9m.2-3.3c-.4 0-.8.3-.8.7v.1c0 .4.3.8.7.9h.1c.4 0 .8-.3.8-.7v-.1c.1-.5-.3-.8-.8-.9.1 0 .1 0 0 0m.3-3.3c-.4 0-.8.3-.8.7v.1c0 .4.3.8.7.9h.1c.4 0 .8-.3.8-.7.1-.5-.2-.9-.8-1 .1 0 .1 0 0 0m.5-3.3c-.4 0-.7.3-.8.7v.1c-.1.4.2.9.7.9h.1c.4 0 .7-.3.8-.7.1-.4-.2-.9-.7-.9l-.1-.1m.5-3.3c-.4 0-.7.3-.8.7v.1c-.1.4.2.9.7.9h.1c.4 0 .7-.3.8-.7.1-.4-.2-.9-.7-.9 0-.1-.1-.1-.1-.1m.6-3.3c-.4 0-.7.3-.8.6v.1c-.1.4.2.9.6 1h.2c.4 0 .7-.3.8-.6v-.1c.1-.4-.2-.9-.6-1h-.2m.9-3.2c-.3 0-.7.2-.8.6v.1c-.1.4.1.9.5 1h.2c.3 0 .7-.2.8-.6.1-.4-.1-.9-.5-1 0-.1-.1-.1-.2-.1m.9-3.1c-.4 0-.7.3-.8.6v.1c-.1.4.2.9.6 1h.2c.4 0 .7-.3.8-.6v-.1c.1-.4-.2-.9-.6-1h-.2m.5-3.2c-.4 0-.8.3-.8.7v.1c0 .4.3.8.7.9h.1c.4 0 .8-.3.8-.7 0-.6-.3-1-.8-1 .1 0 0 0 0 0m.2-3.2c-.4 0-.8.3-.8.8v.1c0 .4.3.8.8.8.4 0 .8-.3.8-.8v-.1c.1-.5-.3-.8-.8-.8.1 0 0 0 0 0m.1-3.3c-.5 0-.8.4-.8.8v.1c0 .4.4.8.8.8s.8-.4.8-.8c0-.6-.4-.9-.8-.9m-.2-3.3c-.5 0-.8.4-.8.9v.1c0 .4.4.8.8.8h.1c.4 0 .8-.4.8-.9v-.1c-.1-.4-.4-.8-.9-.8m-.2-3.2c-.1 0-.1 0 0 0-.5.1-.9.5-.8.9v.1c0 .4.4.7.8.7h.1c.4 0 .8-.4.7-.9v-.1c-.1-.4-.4-.7-.8-.7m-.5-3.3h-.1c-.4.1-.7.5-.7.9v.1c.1.4.4.7.8.7h.1c.4-.1.7-.5.7-.9v-.1c-.1-.4-.4-.7-.8-.7m-.6-3.2h-.2c-.4.1-.7.5-.6 1v.1c.1.4.4.6.8.6h.2c.4-.1.7-.5.6-1v-.1c-.1-.3-.4-.6-.8-.6m-.7-3.1h-.2c-.4.1-.7.6-.6 1v.1c.1.4.4.6.8.6h.2c.4-.1.7-.6.6-1-.2-.5-.5-.7-.8-.7m-1-3.1h-.3c-.4.1-.7.6-.5 1v.1c.1.3.4.6.8.6h.3c.4-.1.6-.6.5-1v-.1c-.1-.4-.4-.6-.8-.6m-1-3.2h-.3c-.4.1-.6.6-.5 1v.1c.1.3.4.6.8.6h.3c.4-.1.6-.6.5-1-.2-.5-.5-.7-.8-.7m-1.1-3.1h-.3c-.4.1-.6.6-.5 1v.1c.1.3.4.5.8.5h.3c.4-.1.6-.6.5-1-.2-.4-.5-.6-.8-.6m-1.1-3.1h-.3c-.4.2-.6.6-.5 1v.1c.1.3.4.5.8.5.1 0 .2 0 .3-.1.4-.2.6-.6.5-1v-.1c-.2-.2-.5-.4-.8-.4m-1.2-3.1c-.1 0-.2 0-.3.1-.4.2-.6.6-.5 1v.1c.1.3.4.5.8.5.1 0 .2 0 .3-.1.4-.2.6-.6.5-1-.1-.4-.4-.6-.8-.6m-1.2-3c-.1 0-.2 0-.3.1-.4.2-.6.6-.5 1.1v.1c.1.3.4.5.8.5.1 0 .2 0 .3-.1.4-.2.6-.6.5-1.1-.1-.5-.5-.6-.8-.6m-1.2-3.1c-.1 0-.2 0-.3.1-.4.2-.6.6-.4 1.1v.1c.1.3.4.5.8.5.1 0 .2 0 .3-.1.4-.2.6-.6.4-1.1v-.1c-.2-.3-.5-.5-.8-.5m-1.3-3c-.1 0-.2 0-.3.1-.4.2-.6.7-.4 1.1v.1c.1.3.4.5.7.5.1 0 .2 0 .3-.1.4-.2.6-.6.4-1.1-.1-.5-.4-.6-.7-.6m-1.3-3.1c-.1 0-.2 0-.3.1-.4.2-.6.7-.4 1.1v.1c.1.3.4.5.7.5.1 0 .2 0 .3-.1.4-.2.6-.7.4-1.1-.1-.4-.4-.6-.7-.6m-1.3-3c-.1 0-.2 0-.3.1-.4.2-.6.7-.4 1.1v.1c.1.3.4.5.7.5.1 0 .2 0 .3-.1.4-.2.6-.7.4-1.1-.1-.4-.4-.6-.7-.6m-1.4-3c-.1 0-.2 0-.3.1-.4.2-.6.7-.4 1.1v.1c.1.3.4.5.7.5.1 0 .2 0 .3-.1.4-.2.6-.7.4-1.1-.1-.4-.4-.6-.7-.6m-1.4-3c-.1 0-.2 0-.3.1-.4.2-.6.7-.4 1.1v.1c.1.3.4.5.7.5.1 0 .2 0 .3-.1.4-.2.6-.7.4-1.1v-.1c-.1-.3-.4-.5-.7-.5m-1.4-2.9c-.1 0-.2 0-.4.1-.4.2-.6.7-.4 1.1v.1c.1.3.4.5.7.5.1 0 .2 0 .4-.1.4-.2.6-.7.4-1.1v-.1c-.1-.4-.4-.5-.7-.5m-1.5-3c-.1 0-.2 0-.4.1-.4.2-.6.7-.3 1.1v.1c.1.3.4.4.7.4.1 0 .3 0 .4-.1.4-.2.6-.7.4-1.1-.2-.3-.5-.5-.8-.5m-1.5-2.9c-.1 0-.3 0-.4.1-.4.2-.5.7-.3 1.1v.1c.1.3.4.4.7.4.1 0 .3 0 .4-.1.4-.2.5-.7.3-1.1v-.1c-.1-.2-.4-.4-.7-.4m-1.6-2.9c-.1 0-.3 0-.4.1-.4.2-.5.7-.3 1.1v.1c.1.3.4.4.7.4.1 0 .3 0 .4-.1.4-.2.5-.7.3-1.1-.1-.4-.4-.5-.7-.5m-1.5-2.9c-.1 0-.3 0-.4.1-.4.2-.5.7-.3 1.1v.1c.1.3.4.4.7.4.1 0 .3 0 .4-.1.4-.2.5-.7.3-1.1-.2-.4-.4-.5-.7-.5m-1.6-2.9c-.1 0-.3 0-.4.1-.4.2-.5.7-.3 1.1v.1c.1.3.4.4.7.4.1 0 .3 0 .4-.1.4-.2.5-.7.3-1.1-.1-.4-.4-.5-.7-.5m-1.5-3c-.1 0-.3 0-.4.1-.4.2-.5.7-.3 1.1v.1c.1.3.4.4.7.4.1 0 .3 0 .4-.1.4-.2.5-.7.3-1.1v-.1c-.2-.2-.4-.4-.7-.4m-1.6-2.9c-.1 0-.3 0-.4.1-.4.2-.5.7-.3 1.1v.1c.1.3.4.4.7.4.1 0 .3 0 .4-.1.4-.2.5-.7.3-1.1v-.1c-.1-.2-.4-.4-.7-.4m-1.5-2.9c-.1 0-.3 0-.4.1-.4.2-.5.7-.3 1.1v.1c.1.3.4.4.7.4.1 0 .3 0 .4-.1.4-.2.5-.7.3-1.1-.2-.3-.4-.5-.7-.5m-1.6-2.9c-.1 0-.3 0-.4.1-.4.2-.5.7-.3 1.1v.1c.1.3.4.4.7.4.1 0 .3 0 .4-.1.4-.2.5-.7.3-1.1v-.1c-.1-.3-.4-.4-.7-.4m-1.5-2.9c-.1 0-.3 0-.4.1-.4.2-.5.7-.3 1.1v.1c.1.3.4.4.7.4.1 0 .3 0 .4-.1.4-.2.5-.7.3-1.1v-.1c-.2-.3-.4-.4-.7-.4m-1.6-2.9c-.1 0-.3 0-.4.1-.4.2-.5.7-.3 1.1v.1c.1.3.4.4.7.4.1 0 .3 0 .4-.1.4-.2.5-.7.3-1.1-.1-.4-.4-.5-.7-.5m-1.5-3c-.1 0-.3 0-.4.1-.4.2-.5.7-.3 1.1v.1c.1.3.4.4.7.4.1 0 .3 0 .4-.1.4-.2.5-.7.3-1.1v-.1c-.2-.2-.4-.4-.7-.4m-1.6-2.9c-.1 0-.3 0-.4.1-.4.2-.5.7-.3 1.1v.1c.1.3.4.4.7.4.1 0 .3 0 .4-.1.4-.2.5-.7.3-1.1v-.1c-.1-.2-.4-.4-.7-.4m-1.5-2.9c-.1 0-.3 0-.4.1-.4.2-.5.7-.3 1.1v.1c.1.3.4.4.7.4.1 0 .3 0 .4-.1.4-.2.5-.7.3-1.1v-.1c-.2-.2-.4-.4-.7-.4m-1.6-2.9c-.1 0-.2 0-.4.1-.4.2-.6.7-.4 1.1v.1c.1.3.4.5.7.5.1 0 .2 0 .4-.1.4-.2.6-.7.4-1.1-.1-.5-.4-.6-.7-.6m-1.4-3.1c-.1 0-.2 0-.3.1-.4.2-.6.7-.4 1.1v.1c.1.3.4.5.7.5.1 0 .2 0 .3-.1.4-.2.6-.7.4-1.1v-.1c-.1-.3-.4-.5-.7-.5m-1.3-3c-.1 0-.2 0-.3.1-.4.2-.6.6-.4 1.1v.1c.1.3.4.5.7.5.1 0 .2 0 .3-.1.4-.2.6-.6.4-1.1v-.1c-.1-.3-.4-.5-.7-.5m-1.3-3.1c-.1 0-.2 0-.3.1-.4.2-.6.6-.5 1v.1c.1.3.4.5.8.5.1 0 .2 0 .3-.1.4-.2.6-.6.5-1-.1-.4-.4-.6-.8-.6m-1.1-3.1c-.1 0-.2 0-.3.1-.4.2-.6.6-.5 1v.1c.1.3.4.5.8.5h.3c.4-.2.6-.6.5-1-.2-.5-.5-.7-.8-.7m-1.1-3.1h-.3c-.4.1-.7.6-.5 1v.1c.1.3.4.5.8.5h.3c.4-.1.7-.6.5-1-.2-.4-.5-.6-.8-.6m-1.1-3.2h-.2c-.4.1-.7.6-.5 1v.1c.1.3.4.6.8.6h.2c.4-.1.7-.6.5-1-.1-.5-.4-.7-.8-.7m-1-3.2h-.2c-.4.1-.7.6-.5 1v.1c.1.4.4.6.8.6h.2c.4-.1.7-.6.5-1v-.1c-.1-.3-.4-.6-.8-.6m-.9-3.1h-.2c-.4.1-.7.6-.6 1v.1c.1.4.4.6.8.6h.2c.4-.1.7-.6.6-1v-.1c-.1-.4-.4-.6-.8-.6m-.8-3.3h-.2c-.4.1-.7.5-.6 1v.1c.1.4.4.6.8.6h.2c.4-.1.7-.5.6-1-.1-.4-.5-.7-.8-.7m-.8-3.2h-.2c-.4.1-.7.5-.6 1v.1c.1.4.4.6.8.6h.2c.4-.1.7-.5.6-1-.1-.4-.4-.7-.8-.7m-.6-3.3h-.1c-.4.1-.7.5-.7.9v.1c.1.4.4.7.8.7h.1c.4-.1.7-.5.7-.9-.1-.5-.4-.8-.8-.8m-.5-3.3h-.1c-.4.1-.7.5-.7.9v.1c.1.4.4.7.8.7h.1c.4-.1.7-.5.7-.9-.1-.5-.4-.8-.8-.8m-.6-3.2h-.1c-.4.1-.7.5-.7.9v.1c.1.4.4.7.8.7h.1c.4-.1.7-.5.7-.9 0-.5-.4-.8-.8-.8m-.5-3.3h-.1c-.4.1-.7.5-.7.9v.1c.1.4.4.7.8.7h.1c.4-.1.7-.5.7-.9v-.1c0-.4-.4-.7-.8-.7m-.5-3.3h-.1c-.4.1-.7.5-.7.9v.1c.1.4.4.7.8.7h.1c.4-.1.7-.5.7-.9 0-.5-.4-.8-.8-.8m-.5-3.2h-.1c-.4.1-.7.5-.7.9v.1c.1.4.4.7.8.7h.1c.4-.1.7-.5.7-.9 0-.5-.4-.8-.8-.8m-.5-3.3h-.1c-.4.1-.8.5-.7.9v.1c.1.4.4.7.8.7h.1c.4-.1.8-.5.7-.9v-.1c0-.4-.4-.7-.8-.7m-.4-3.3h-.1c-.4.1-.8.5-.7.9v.1c.1.4.4.7.8.7h.1c.4-.1.8-.5.7-.9-.1-.5-.4-.8-.8-.8m-.4-3.3h-.1c-.4.1-.8.5-.7.9v.1c0 .4.4.7.8.7h.1c.4-.1.8-.5.7-.9v-.1c-.1-.4-.4-.7-.8-.7m-.4-3.3c-.5 0-.8.4-.8.9v.1c0 .4.4.7.8.7h.1c.4 0 .8-.4.7-.9 0-.5-.4-.8-.8-.8m-.2-3.3c-.4 0-.8.4-.8.8v.1c0 .4.4.8.8.8s.8-.4.8-.8c.1-.6-.3-.9-.8-.9zm.1-3.4c-.4 0-.8.3-.8.8v.1c0 .4.3.8.8.8.4 0 .8-.3.8-.8s-.3-.9-.8-.9zm.2-3.3c-.4 0-.8.3-.8.7v.1c-.1.4.3.8.7.9h.1c.4 0 .7-.3.8-.7.1-.4-.3-.8-.7-.9 0-.1 0-.1-.1-.1m.3-3.3c-.4 0-.8.3-.8.8v.1c0 .4.3.8.8.8.4 0 .8-.3.8-.8v-.1c0-.4-.3-.7-.8-.8zm0-3.2c-.5 0-.8.4-.8.8v.1c0 .4.4.8.8.8s.8-.4.8-.8c0-.6-.4-.9-.8-.9m-.3-3.2c-.5.1-.9.5-.8.9v.1c0 .4.4.7.8.7h.1c.4-.1.8-.5.7-.9v-.1c0-.4-.4-.7-.8-.7m-.5-3.2h-.2c-.4.1-.7.5-.6.9v.1c.1.4.4.7.8.7h.2c.4-.1.7-.5.6-.9v-.1c-.1-.5-.4-.7-.8-.7m-.7-3.2h-.2c-.4.1-.7.6-.6 1v.1c.1.4.4.6.8.6h.2c.4-.1.7-.6.6-1v-.1c-.1-.4-.5-.6-.8-.6m-1-3.1c-.1 0-.2 0-.3.1-.4.2-.6.6-.5 1v.1c.1.3.4.5.8.5.1 0 .2 0 .3-.1.4-.2.6-.6.5-1-.2-.4-.5-.6-.8-.6m-1.3-2.9c-.1 0-.2 0-.4.1-.4.2-.6.7-.4 1.1v.1c.1.3.4.5.7.5.1 0 .2 0 .4-.1.4-.2.6-.7.4-1.1-.1-.5-.4-.6-.7-.6m-1.6-2.8c-.2 0-.3 0-.5.1-.4.3-.5.8-.2 1.1.2.2.4.4.7.4.2 0 .3 0 .5-.1.4-.3.5-.8.2-1.1-.2-.3-.4-.4-.7-.4m-2-2.4c-.2 0-.4.1-.6.2-.3.3-.3.8 0 1.1.2.2.4.2.6.2.2 0 .4-.1.6-.2.3-.3.3-.8 0-1.1-.2-.1-.4-.2-.6-.2m-2.4-2.2c-.2 0-.5.1-.6.3-.3.3-.3.9.1 1.1.2.1.3.2.5.2s.5-.1.6-.3c.3-.3.3-.8-.1-1.1-.1-.1-.3-.2-.5-.2m-2.5-2.1c-.2 0-.5.1-.6.3-.3.3-.2.9.1 1.1.2.1.3.2.5.2s.5-.1.6-.3c.3-.3.2-.9-.1-1.1-.1-.1-.3-.2-.5-.2m-2.6-2.1c-.2 0-.5.1-.6.3-.3.4-.2.9.1 1.1.1.1.3.2.5.2s.5-.1.6-.3c.3-.3.2-.9-.1-1.1-.1-.1-.3-.2-.5-.2m-2.6-2c-.2 0-.5.1-.6.3-.3.4-.2.9.1 1.1.1.1.3.2.5.2s.5-.1.6-.3c.3-.4.2-.9-.1-1.1-.1-.1-.3-.2-.5-.2m-2.6-2c-.2 0-.5.1-.7.3-.3.4-.2.9.2 1.1.1.1.3.2.5.2s.5-.1.7-.3c.3-.4.2-.9-.2-1.1-.1-.1-.3-.2-.5-.2m-2.6-1.9c-.3 0-.5.1-.7.3-.3.4-.2.9.2 1.1.1.1.3.1.5.1.3 0 .5-.1.7-.3.3-.4.2-.9-.2-1.1-.2-.1-.4-.1-.5-.1m-2.7-1.9c-.3 0-.5.1-.7.4-.2.4-.1.9.2 1.1h.1c.1.1.3.1.5.1.3 0 .5-.1.7-.4.2-.4.2-.9-.2-1.1h-.1c-.2 0-.4-.1-.5-.1m-2.8-1.7c-.3 0-.5.1-.7.4-.2.4-.1.9.3 1.1h.1c.1.1.3.1.4.1.3 0 .5-.1.7-.4.2-.4.1-.9-.3-1.1-.2-.1-.4-.1-.5-.1m-2.8-1.8c-.3 0-.5.1-.7.4-.2.4-.1.9.2 1.1h.1c.1.1.3.1.4.1.3 0 .5-.1.7-.4.2-.4.1-.9-.2-1.1h-.1c-.1-.1-.3-.1-.4-.1m-2.8-1.9c-.3 0-.5.1-.7.4-.3.4-.2.9.2 1.1h.1c.1.1.3.1.5.1.3 0 .5-.1.7-.4.3-.4.2-.9-.2-1.1-.2 0-.4-.1-.6-.1m-2.7-1.8c-.3 0-.5.1-.7.3-.3.4-.2.9.2 1.1h.1c.1.1.3.1.5.1.3 0 .5-.1.7-.3.3-.4.2-.9-.2-1.1h-.1c-.2-.1-.3-.1-.5-.1m-2.7-2c-.3 0-.5.1-.7.3-.3.4-.2.9.2 1.1h.1c.1.1.3.2.5.2.3 0 .5-.1.7-.3.3-.4.2-.9-.2-1.1h-.1c-.2-.1-.3-.2-.5-.2m-2.7-1.9c-.2 0-.5.1-.7.3-.3.4-.2.9.2 1.1h.1c.1.1.3.2.5.2s.5-.1.7-.3c.3-.4.2-.9-.2-1.1-.2-.2-.4-.2-.6-.2m-2.6-2c-.2 0-.5.1-.6.3-.3.4-.2.9.2 1.1h.1c.1.1.3.2.5.2s.5-.1.7-.3c.3-.4.2-.9-.2-1.1-.4-.1-.6-.2-.7-.2m-2.7-2c-.2 0-.5.1-.6.3-.3.4-.2.9.2 1.1h.1c.1.1.3.2.5.2s.5-.1.6-.3c.3-.4.2-.9-.2-1.1-.2-.1-.4-.2-.6-.2m-2.6-2c-.2 0-.5.1-.6.3-.3.4-.2.9.1 1.1.1.1.3.2.5.2s.5-.1.6-.3c.3-.4.2-.9-.1-1.1-.2-.1-.3-.2-.5-.2m-2.6-2c-.2 0-.5.1-.6.3-.3.3-.2.9.1 1.1h.1c.1.1.3.2.5.2s.5-.1.6-.3c.3-.3.2-.9-.1-1.1-.3-.2-.4-.2-.6-.2m-2.6-2.1c-.2 0-.5.1-.6.3-.3.4-.2.9.1 1.1.1.1.3.2.5.2s.5-.1.6-.3c.3-.4.2-.9-.1-1.1h-.1c0-.1-.2-.2-.4-.2m-2.6-1.9c-.3 0-.5.1-.7.3-.3.4-.2.9.2 1.1h.1c.1.1.3.2.5.2.3 0 .5-.1.7-.3.3-.4.2-.9-.2-1.1-.3-.2-.5-.2-.6-.2m-2.7-1.9c-.3 0-.5.1-.7.4-.3.4-.2.9.2 1.1h.1c.1.1.3.1.5.1.3 0 .5-.1.7-.4.3-.4.2-.9-.2-1.1h-.1c-.2-.1-.4-.1-.5-.1m-2.7-1.8c-.3 0-.5.1-.7.4-.2.4-.1.9.2 1.1h.1c.1.1.3.1.4.1.3 0 .5-.1.7-.4.2-.4.1-.9-.2-1.1-.2-.1-.4-.1-.5-.1m-2.8-1.8c-.3 0-.5.1-.7.4-.2.4-.1.9.3 1.1h.1c.1.1.3.1.4.1.3 0 .5-.1.7-.4.2-.4.1-.9-.3-1.1h-.1c-.1-.1-.3-.1-.4-.1m-2.8-1.7c-.3 0-.6.1-.7.4-.2.4-.1.9.3 1.1h.1c.1.1.3.1.4.1.3 0 .6-.1.7-.4.2-.4.1-.9-.3-1.1h-.1c-.2 0-.3-.1-.4-.1m-2.9-1.6c-.3 0-.6.2-.7.4-.2.4-.1.9.3 1.1h.1c.1.1.3.1.4.1.3 0 .6-.2.7-.4.2-.4.1-.9-.3-1.1-.2 0-.4-.1-.5-.1m-2.9-1.5c-.3 0-.6.2-.7.5-.2.4 0 .9.4 1.1h.1c.1.1.2.1.4.1.3 0 .6-.2.7-.5.2-.4 0-.9-.4-1.1-.3 0-.4-.1-.5-.1m-3-1.3c-.3 0-.6.2-.7.5-.2.4 0 .9.4 1.1h.1c.1 0 .2.1.3.1.3 0 .6-.2.7-.5.2-.4 0-.9-.4-1.1h-.1c-.1-.1-.2-.1-.3-.1m-3-1c-.4 0-.7.3-.8.6-.1.4.2.9.6 1H532c.4 0 .7-.3.8-.6.1-.4-.2-.9-.6-1H531.9M929.3 151.6c-.1 0-.1 0 0 0-.1-.1 0-.2 0-.2 0 .1.1.1 0 .2.1 0 0 0 0 0M932.5 152.2c-.1 0-.1 0 0 0-.1-.1 0-.2 0-.2 0 .1.1.1 0 .2.1 0 0 0 0 0M935.6 152.8c-.1 0-.1 0-.1-.1s0-.1.1-.1.1 0 .1.1 0 .1-.1.1M938.8 153.4c-.1 0-.1 0-.1-.1s0-.1.1-.1.1 0 .1.1 0 .1-.1.1M942 154.1c-.1 0-.1-.1-.1-.1 0-.1.1-.1.1-.1.1 0 .1.1.1.1s0 .1-.1.1M945.2 154.7c-.1 0-.1-.1-.1-.1 0-.1.1-.1.1-.1.1 0 .1.1.1.1s0 .1-.1.1M948.4 155.3c-.1 0-.1-.1-.1-.1 0-.1.1-.1.1-.1.1 0 .1.1.1.1s0 .1-.1.1M951.6 155.9c-.1 0-.1-.1-.1-.1 0-.1.1-.1.1-.1.1 0 .1.1.1.1s0 .1-.1.1M954.8 156.5c-.1 0-.2-.1-.2-.2s.1-.2.2-.2.2.1.2.2l-.2.2M957.9 157.1c-.1 0-.2-.1-.2-.2s.1-.2.2-.2.2.1.2.2-.1.2-.2.2M961.1 157.7c-.1 0-.2-.1-.2-.2s.1-.2.2-.2.2.1.2.2-.1.2-.2.2M964.3 158.3c-.1 0-.2-.1-.2-.2s.1-.2.2-.2.2.1.2.2-.1.2-.2.2M967.5 158.9c-.1 0-.2-.1-.2-.2s.1-.2.2-.2.2.1.2.2-.1.2-.2.2M970.7 159.5c-.1 0-.2-.1-.2-.2s.1-.2.2-.2.2.1.2.2-.1.2-.2.2M973.9 160.1c-.1 0-.2-.1-.2-.2s.1-.2.2-.2.2.1.2.2-.1.2-.2.2M977 160.7c-.1 0-.2-.1-.2-.2s.1-.2.2-.2.2.1.2.2c.1.1 0 .2-.2.2M980.2 161.3c-.1 0-.2-.1-.2-.2s.1-.2.2-.2.2.1.2.2c.1.1 0 .2-.2.2M983.4 161.9c-.1 0-.2-.1-.2-.2s.1-.2.2-.2.2.1.2.2c.1.1-.1.2-.2.2M986.6 162.6c-.1 0-.3-.1-.3-.3s.1-.3.3-.3c.1 0 .3.1.3.3s-.2.3-.3.3M989.8 163.2c-.1 0-.3-.1-.3-.3 0-.1.1-.3.3-.3.1 0 .3.1.3.3-.1.1-.2.3-.3.3M993 163.8c-.2 0-.3-.1-.3-.3s.1-.3.3-.3c.2 0 .3.1.3.3s-.2.3-.3.3M996.1 164.4c-.2 0-.3-.1-.3-.3 0-.2.1-.3.3-.3.2 0 .3.1.3.3 0 .1-.1.3-.3.3M999.3 165c-.2 0-.3-.1-.3-.3 0-.2.1-.3.3-.3.2 0 .3.1.3.3 0 .2-.1.3-.3.3M1002.5 165.6c-.2 0-.3-.1-.3-.3 0-.2.1-.3.3-.3.2 0 .3.1.3.3 0 .2-.1.3-.3.3M1005.7 166.2c-.2 0-.3-.1-.3-.3 0-.2.1-.3.3-.3.2 0 .3.1.3.3 0 .2-.1.3-.3.3M1008.9 166.8c-.2 0-.3-.1-.3-.3 0-.2.1-.3.3-.3.2 0 .3.1.3.3 0 .2-.1.3-.3.3M1012.1 167.4c-.2 0-.3-.1-.3-.3 0-.2.1-.3.3-.3.2 0 .3.1.3.3 0 .2-.2.3-.3.3M1015.2 168c-.2 0-.3-.2-.3-.3 0-.2.2-.3.3-.3.2 0 .3.2.3.3.1.2-.1.3-.3.3M1018.4 168.6c-.2 0-.4-.2-.4-.3s.2-.3.4-.3.3.2.3.3-.1.3-.3.3M1021.6 169.2c-.2 0-.4-.2-.4-.4s.2-.4.4-.4.4.2.4.4c0 .3-.2.4-.4.4M1024.8 169.8c-.2 0-.4-.2-.4-.4s.2-.4.4-.4.4.2.4.4c0 .3-.2.4-.4.4M1028 170.4c-.2 0-.4-.2-.4-.4s.2-.4.4-.4.4.2.4.4c0 .3-.2.4-.4.4M1031.2 171.1c-.2 0-.4-.2-.4-.4s.2-.4.4-.4.4.2.4.4-.2.4-.4.4M1034.4 171.7c-.2 0-.4-.2-.4-.4s.2-.4.4-.4.4.2.4.4c-.1.2-.2.4-.4.4M1037.5 172.3c-.2 0-.4-.2-.4-.4s.2-.4.4-.4.4.2.4.4-.1.4-.4.4M1040.7 172.9c-.2 0-.4-.2-.4-.4s.2-.4.4-.4.4.2.4.4-.2.4-.4.4M1043.9 173.5c-.2 0-.4-.2-.4-.4s.2-.4.4-.4.4.2.4.4-.2.4-.4.4M1047.1 174.1c-.2 0-.4-.2-.4-.4s.2-.4.4-.4.4.2.4.4-.2.4-.4.4M1050.3 174.7c-.2 0-.4-.2-.4-.4s.2-.4.4-.4.4.2.4.4-.2.4-.4.4M1053.5 175.3c-.2 0-.4-.2-.4-.4s.2-.4.4-.4.4.2.4.4-.2.4-.4.4M1056.6 175.9c-.2 0-.4-.2-.4-.4s.2-.4.4-.4.4.2.4.4c.1.2-.1.4-.4.4M1059.8 176.5c-.2 0-.5-.2-.5-.5 0-.2.2-.4.5-.4.2 0 .5.2.5.4 0 .3-.2.5-.5.5M1063 177.1c-.2 0-.5-.2-.5-.5s.2-.5.5-.5.5.2.5.5-.2.5-.5.5M1066.2 177.7c-.3 0-.5-.2-.5-.5s.2-.5.5-.5.5.2.5.5c-.1.3-.3.5-.5.5M1069.4 178.3c-.3 0-.5-.2-.5-.5s.2-.5.5-.5.5.2.5.5c-.1.3-.3.5-.5.5M1072.5 179.3c-.3 0-.5-.2-.5-.5s.2-.5.5-.5.5.2.5.5c-.1.3-.3.5-.5.5M1075.1 181.1c-.3 0-.5-.2-.5-.5s.2-.5.5-.5.5.2.5.5-.2.5-.5.5M1077.3 183.5c-.3 0-.5-.2-.5-.5s.2-.5.5-.5.5.2.5.5-.2.5-.5.5M1079.5 185.9c-.3 0-.5-.2-.5-.5s.2-.5.5-.5.5.2.5.5-.3.5-.5.5M1081.7 188.3c-.3 0-.5-.2-.5-.5s.2-.5.5-.5.5.2.5.5-.3.5-.5.5M1083.8 190.7c-.3 0-.5-.2-.5-.5s.2-.5.5-.5.5.2.5.5-.2.5-.5.5M1086 193.2c-.3 0-.5-.2-.5-.5s.2-.5.5-.5.5.2.5.5c0 .2-.2.5-.5.5M1088.2 195.6c-.3 0-.5-.2-.5-.5s.2-.5.5-.5.5.2.5.5c-.1.3-.3.5-.5.5M1090 198.2c-.3 0-.5-.2-.5-.5s.2-.5.5-.5.5.2.5.5-.3.5-.5.5M1090.8 201.4c-.3 0-.5-.2-.5-.5s.2-.5.5-.5.5.2.5.5c0 .2-.2.5-.5.5M1090.8 204.6c-.3 0-.5-.2-.5-.5s.2-.5.5-.5.5.2.5.5-.2.5-.5.5M1090.8 207.9c-.3 0-.5-.2-.5-.5s.2-.5.5-.5.5.2.5.5c0 .2-.2.5-.5.5M1090.8 211.1c-.3 0-.5-.2-.5-.5s.2-.5.5-.5.5.2.5.5-.2.5-.5.5M1090.8 214.3c-.3 0-.5-.2-.5-.5s.2-.5.5-.5.5.2.5.5-.2.5-.5.5M1090.8 217.6c-.3 0-.5-.2-.5-.5s.2-.5.5-.5.5.2.5.5c0 .2-.2.5-.5.5M1090.8 220.8c-.3 0-.5-.2-.5-.5s.2-.5.5-.5.5.2.5.5-.2.5-.5.5M1090.8 224.1c-.3 0-.5-.2-.5-.5s.2-.5.5-.5.5.2.5.5-.2.5-.5.5M1090.8 227.3c-.3 0-.5-.2-.5-.5s.2-.5.5-.5.5.2.5.5-.2.5-.5.5M1090.8 230.5c-.3 0-.5-.2-.5-.5s.2-.5.5-.5.5.2.5.5-.2.5-.5.5M1090.8 233.8c-.3 0-.5-.2-.5-.5s.2-.5.5-.5.5.2.5.5c0 .2-.2.5-.5.5M1090.8 237c-.3 0-.5-.2-.5-.5s.2-.5.5-.5.5.2.5.5c.1.3-.2.5-.5.5M1090.8 240.3c-.3 0-.5-.2-.5-.5s.2-.5.5-.5.5.2.5.5c.1.2-.2.5-.5.5M1090.8 243.5c-.3 0-.5-.2-.5-.5s.2-.5.5-.5.5.2.5.5c.1.3-.2.5-.5.5M1090.8 246.8c-.3 0-.5-.2-.5-.5s.2-.5.5-.5.5.2.5.5c.1.2-.2.5-.5.5M1090.8 250c-.3 0-.5-.2-.5-.5s.2-.5.5-.5.5.2.5.5-.2.5-.5.5M1090.8 253.2c-.3 0-.6-.2-.6-.6 0-.3.2-.6.6-.6.3 0 .6.2.6.6 0 .4-.3.6-.6.6M1090.8 256.5c-.3 0-.6-.2-.6-.6 0-.3.2-.6.6-.6.3 0 .6.2.6.6 0 .3-.3.6-.6.6M1090.8 259.7c-.3 0-.6-.2-.6-.6 0-.3.2-.6.6-.6.3 0 .6.2.6.6 0 .4-.3.6-.6.6M1090.8 263c-.3 0-.6-.3-.6-.6s.3-.6.6-.6.6.3.6.6-.3.6-.6.6M1090.6 266.2c-.3 0-.6-.3-.6-.6s.3-.6.6-.6.6.3.6.6-.3.6-.6.6M1090.3 269.4c-.3 0-.6-.3-.6-.6s.3-.6.6-.6.6.3.6.6c0 .4-.3.6-.6.6M1090 272.6c-.3 0-.6-.3-.6-.6s.3-.6.6-.6.6.3.6.6c0 .4-.3.6-.6.6M1089.6 275.9c-.3 0-.6-.3-.6-.6s.3-.6.6-.6.6.3.6.6-.2.6-.6.6M1089.3 279.1c-.3 0-.6-.3-.6-.6s.3-.6.6-.6.6.3.6.6-.3.6-.6.6M1088.9 282.3c-.3 0-.6-.3-.6-.6s.3-.6.6-.6.6.3.6.6c0 .4-.2.6-.6.6M1088.6 285.5c-.3 0-.6-.3-.6-.6s.3-.6.6-.6.6.3.6.6c0 .4-.3.6-.6.6M1088.2 288.8c-.3 0-.6-.3-.6-.6s.3-.6.6-.6.6.3.6.6-.2.6-.6.6M1087.9 292c-.3 0-.6-.3-.6-.6s.3-.6.6-.6.6.3.6.6-.3.6-.6.6M1087.6 295.2c-.3 0-.6-.3-.6-.6s.3-.6.6-.6.6.3.6.6c-.1.3-.3.6-.6.6M1087.2 298.4c-.3 0-.6-.3-.6-.6s.3-.6.6-.6.6.3.6.6c0 .4-.3.6-.6.6M1086.9 301.7c-.3 0-.6-.3-.6-.6s.3-.6.6-.6.6.3.6.6-.3.6-.6.6M1086.5 304.9c-.3 0-.6-.3-.6-.6s.3-.6.6-.6.6.3.6.6-.3.6-.6.6M1086.2 308.1c-.3 0-.6-.3-.6-.6s.3-.6.6-.6.6.3.6.6-.3.6-.6.6M1085.8 311.3c-.3 0-.6-.3-.6-.6s.3-.6.6-.6.6.3.6.6c0 .4-.2.6-.6.6M1085.5 314.6c-.3 0-.6-.3-.6-.6s.3-.6.6-.6.6.3.6.6-.3.6-.6.6M1085.1 317.8c-.3 0-.6-.3-.6-.6s.3-.6.6-.6.6.3.6.6-.2.6-.6.6M1084.1 320.9c-.3 0-.6-.3-.6-.6s.3-.6.6-.6.6.3.6.6c.1.3-.2.6-.6.6M1082.3 323.5c-.3 0-.6-.3-.6-.6s.3-.6.6-.6.6.3.6.6c.1.4-.2.6-.6.6M1080.1 325.9c-.3 0-.6-.3-.6-.6s.3-.6.6-.6.6.3.6.6c.1.3-.2.6-.6.6M1077.9 328.3c-.4 0-.6-.3-.6-.6s.3-.6.6-.6c.4 0 .6.3.6.6s-.2.6-.6.6M1075.7 330.7c-.4 0-.6-.3-.6-.6 0-.4.3-.6.6-.6.4 0 .6.3.6.6.1.3-.2.6-.6.6M1073.5 333c-.4 0-.6-.3-.6-.6 0-.4.3-.6.6-.6.4 0 .6.3.6.6.1.3-.2.6-.6.6M1071.2 335.3c-.4 0-.6-.3-.6-.6 0-.4.3-.6.6-.6.4 0 .6.3.6.6.1.3-.2.6-.6.6M1068.2 336.5c-.4 0-.7-.3-.7-.6 0-.4.3-.6.7-.6.4 0 .6.3.6.6.1.3-.2.6-.6.6M1065 336.3c-.4 0-.7-.3-.7-.7 0-.4.3-.7.7-.7.4 0 .7.3.7.7-.1.4-.4.7-.7.7M1061.8 335.8c-.4 0-.7-.3-.7-.7 0-.4.3-.7.7-.7.4 0 .7.3.7.7-.1.4-.4.7-.7.7M1058.6 335.4c-.4 0-.7-.3-.7-.7 0-.4.3-.7.7-.7.4 0 .7.3.7.7-.1.4-.4.7-.7.7M1055.3 334.9c-.4 0-.7-.3-.7-.7 0-.4.3-.7.7-.7.4 0 .7.3.7.7 0 .5-.3.7-.7.7M1052.1 334.5c-.4 0-.7-.3-.7-.7 0-.4.3-.7.7-.7.4 0 .7.3.7.7 0 .4-.3.7-.7.7M1048.9 334.1c-.4 0-.7-.3-.7-.7 0-.4.3-.7.7-.7.4 0 .7.3.7.7 0 .4-.3.7-.7.7M1045.7 333.6c-.4 0-.7-.3-.7-.7 0-.4.3-.7.7-.7.4 0 .7.3.7.7 0 .4-.3.7-.7.7M1042.5 333.2c-.4 0-.7-.3-.7-.7 0-.4.3-.7.7-.7.4 0 .7.3.7.7 0 .4-.3.7-.7.7M1039.3 332.8c-.4 0-.7-.3-.7-.7 0-.4.3-.7.7-.7.4 0 .7.3.7.7 0 .4-.3.7-.7.7M1036.1 332.3c-.4 0-.7-.3-.7-.7 0-.4.3-.7.7-.7.4 0 .7.3.7.7 0 .4-.3.7-.7.7M1032.9 331.9c-.4 0-.7-.3-.7-.7s.3-.7.7-.7c.4 0 .7.3.7.7s-.4.7-.7.7M1029.7 331.4c-.4 0-.7-.3-.7-.7 0-.4.3-.7.7-.7.4 0 .7.3.7.7 0 .4-.4.7-.7.7M1026.5 330.6c-.4 0-.7-.3-.7-.7 0-.4.3-.7.7-.7.4 0 .7.3.7.7 0 .4-.3.7-.7.7M1023.5 329.4c-.4 0-.7-.3-.7-.7 0-.4.3-.7.7-.7.4 0 .7.3.7.7 0 .4-.3.7-.7.7M1020.6 328c-.4 0-.7-.3-.7-.7s.3-.7.7-.7c.4 0 .7.3.7.7s-.3.7-.7.7M1017.6 326.7c-.4 0-.7-.3-.7-.7 0-.4.3-.7.7-.7.4 0 .7.3.7.7 0 .4-.3.7-.7.7M1014.7 325.4c-.4 0-.7-.3-.7-.7s.3-.7.7-.7c.4 0 .7.3.7.7s-.3.7-.7.7M1011.7 324.1c-.4 0-.7-.3-.7-.7 0-.4.3-.7.7-.7.4 0 .7.3.7.7 0 .3-.3.7-.7.7M1008.8 322.7c-.4 0-.7-.3-.7-.7 0-.4.3-.7.7-.7.4 0 .7.3.7.7 0 .4-.4.7-.7.7M1005.8 321.4c-.4 0-.7-.3-.7-.7 0-.4.3-.7.7-.7.4 0 .7.3.7.7 0 .4-.3.7-.7.7M1002.9 320c-.4 0-.7-.3-.7-.7 0-.4.3-.7.7-.7.4 0 .7.3.7.7 0 .4-.3.7-.7.7M999.9 318.6c-.4 0-.7-.3-.7-.7s.3-.7.7-.7c.4 0 .7.3.7.7s-.3.7-.7.7M997 317.3c-.4 0-.7-.3-.7-.7 0-.4.3-.7.7-.7.4 0 .7.3.7.7 0 .3-.3.7-.7.7M994.1 315.9c-.4 0-.7-.3-.7-.7 0-.4.3-.7.7-.7.4 0 .7.3.7.7 0 .3-.3.7-.7.7M991.1 314.5c-.4 0-.7-.3-.7-.7 0-.4.3-.7.7-.7.4 0 .7.3.7.7.1.3-.3.7-.7.7M988.2 313.1c-.4 0-.7-.3-.7-.7 0-.4.3-.7.7-.7.4 0 .7.3.7.7.1.4-.3.7-.7.7M985.3 311.7c-.4 0-.7-.3-.7-.7 0-.4.3-.7.7-.7.4 0 .7.3.7.7 0 .4-.3.7-.7.7M982.4 310.3c-.4 0-.7-.3-.7-.7 0-.4.3-.7.7-.7.4 0 .7.3.7.7 0 .4-.3.7-.7.7M979.4 308.9c-.4 0-.8-.3-.8-.8 0-.4.3-.8.8-.8.4 0 .8.3.8.8s-.4.8-.8.8M976.5 307.5c-.4 0-.8-.3-.8-.8 0-.4.3-.8.8-.8.4 0 .8.3.8.8-.1.5-.4.8-.8.8M973.6 306.2c-.4 0-.8-.3-.8-.8 0-.4.3-.8.8-.8.4 0 .8.3.8.8-.1.4-.4.8-.8.8M970.6 304.8c-.4 0-.8-.3-.8-.8 0-.4.3-.8.8-.8.4 0 .8.3.8.8 0 .4-.3.8-.8.8M967.7 303.4c-.4 0-.8-.3-.8-.8s.3-.8.8-.8c.4 0 .8.3.8.8s-.4.8-.8.8M964.8 302c-.4 0-.8-.3-.8-.8 0-.4.3-.8.8-.8.4 0 .8.3.8.8-.1.5-.4.8-.8.8M961.8 300.6c-.4 0-.8-.3-.8-.8 0-.4.3-.8.8-.8.4 0 .8.3.8.8s-.3.8-.8.8M958.9 299.2c-.4 0-.8-.3-.8-.8 0-.4.3-.8.8-.8.4 0 .8.3.8.8s-.4.8-.8.8M956 297.8c-.4 0-.8-.3-.8-.8s.3-.8.8-.8c.4 0 .8.3.8.8s-.4.8-.8.8M953.1 296.4c-.4 0-.8-.3-.8-.8s.4-.8.8-.8.8.4.8.8-.4.8-.8.8M950.1 295.1c-.4 0-.8-.4-.8-.8s.4-.8.8-.8.8.4.8.8-.3.8-.8.8M947.2 293.7c-.4 0-.8-.4-.8-.8s.4-.8.8-.8.8.4.8.8-.4.8-.8.8M944.3 292.3c-.4 0-.8-.4-.8-.8s.4-.8.8-.8.8.4.8.8-.4.8-.8.8M941.3 290.9c-.4 0-.8-.4-.8-.8s.4-.8.8-.8.8.4.8.8-.3.8-.8.8M938.4 289.5c-.4 0-.8-.4-.8-.8s.4-.8.8-.8.8.4.8.8c0 .5-.3.8-.8.8M935.5 288.1c-.4 0-.8-.4-.8-.8s.4-.8.8-.8.8.4.8.8c0 .5-.4.8-.8.8M932.6 286.7c-.4 0-.8-.4-.8-.8s.4-.8.8-.8.8.4.8.8c0 .5-.4.8-.8.8M929.6 285.4c-.4 0-.8-.4-.8-.8s.4-.8.8-.8.8.4.8.8-.3.8-.8.8M926.7 284c-.4 0-.8-.4-.8-.8s.4-.8.8-.8.8.4.8.8-.4.8-.8.8M923.8 282.6c-.4 0-.8-.4-.8-.8s.4-.8.8-.8.8.4.8.8-.4.8-.8.8M920.8 281.2c-.4 0-.8-.4-.8-.8s.4-.8.8-.8.8.4.8.8-.3.8-.8.8M917.9 279.8c-.4 0-.8-.4-.8-.8s.4-.8.8-.8.8.4.8.8-.4.8-.8.8M915 278.4c-.4 0-.8-.4-.8-.8s.4-.8.8-.8.8.4.8.8c0 .5-.4.8-.8.8M912.1 277c-.4 0-.8-.4-.8-.8s.4-.8.8-.8.8.4.8.8c-.1.5-.4.8-.8.8M909.1 275.6c-.4 0-.8-.4-.8-.8s.4-.8.8-.8.8.4.8.8-.3.8-.8.8M906.2 274.2c-.4 0-.8-.3-.8-.8s.4-.8.8-.8.8.4.8.8-.4.8-.8.8M903.3 272.9c-.4 0-.8-.3-.8-.8 0-.4.3-.8.8-.8.4 0 .8.3.8.8-.1.4-.4.8-.8.8M900.3 271.5c-.4 0-.8-.3-.8-.8 0-.4.3-.8.8-.8.4 0 .8.3.8.8 0 .4-.3.8-.8.8M897.4 270.2c-.4 0-.8-.3-.8-.8 0-.4.3-.8.8-.8.4 0 .8.3.8.8-.1.4-.4.8-.8.8M894.3 269.2c-.4 0-.8-.3-.8-.8 0-.4.3-.8.8-.8.4 0 .8.3.8.8-.1.5-.4.8-.8.8M891.1 268.6c-.4 0-.8-.3-.8-.8 0-.4.3-.8.8-.8.4 0 .8.3.8.8s-.4.8-.8.8M887.9 268c-.4 0-.8-.3-.8-.8 0-.4.3-.8.8-.8.4 0 .8.3.8.8s-.4.8-.8.8M884.7 267.5c-.4 0-.8-.3-.8-.8 0-.4.3-.8.8-.8.4 0 .8.3.8.8s-.4.8-.8.8M881.5 266.9c-.4 0-.8-.3-.8-.8 0-.4.3-.8.8-.8.4 0 .8.3.8.8s-.4.8-.8.8M878.3 266.4c-.4 0-.8-.3-.8-.8 0-.4.3-.8.8-.8.4 0 .8.3.8.8s-.4.8-.8.8M875.1 265.8c-.4 0-.7-.3-.7-.7 0-.4.3-.7.7-.7.4 0 .7.3.7.7.1.4-.3.7-.7.7M871.9 265.3c-.4 0-.7-.3-.7-.7 0-.4.3-.7.7-.7.4 0 .7.3.7.7.1.3-.3.7-.7.7M868.7 264.7c-.4 0-.7-.3-.7-.7 0-.4.3-.7.7-.7.4 0 .7.3.7.7.1.4-.3.7-.7.7M865.5 264.2c-.4 0-.7-.3-.7-.7 0-.4.3-.7.7-.7.4 0 .7.3.7.7.1.3-.3.7-.7.7M862.3 263.6c-.4 0-.7-.3-.7-.7 0-.4.3-.7.7-.7.4 0 .7.3.7.7.1.4-.3.7-.7.7M859.1 263.1c-.4 0-.7-.3-.7-.7 0-.4.3-.7.7-.7.4 0 .7.3.7.7.1.3-.2.7-.7.7M856 262.5c-.4 0-.7-.3-.7-.7 0-.4.3-.7.7-.7.4 0 .7.3.7.7 0 .4-.3.7-.7.7M852.8 262c-.4 0-.7-.3-.7-.7 0-.4.3-.7.7-.7.4 0 .7.3.7.7 0 .3-.3.7-.7.7M849.6 261.4c-.4 0-.7-.3-.7-.7 0-.4.3-.7.7-.7.4 0 .7.3.7.7 0 .4-.3.7-.7.7M846.4 260.9c-.4 0-.7-.3-.7-.7 0-.4.3-.7.7-.7.4 0 .7.3.7.7 0 .3-.3.7-.7.7M843.2 260.3c-.4 0-.7-.3-.7-.7s.3-.7.7-.7c.4 0 .7.3.7.7s-.3.7-.7.7M840 259.7c-.4 0-.7-.3-.7-.7 0-.4.3-.7.7-.7.4 0 .7.3.7.7 0 .4-.3.7-.7.7M836.8 259.2c-.4 0-.7-.3-.7-.7 0-.4.3-.7.7-.7.4 0 .7.3.7.7 0 .4-.3.7-.7.7M833.6 258.8c-.4 0-.7-.3-.7-.7 0-.4.3-.7.7-.7.4 0 .7.3.7.7 0 .4-.3.7-.7.7M830.4 258.4c-.4 0-.7-.3-.7-.7 0-.4.3-.7.7-.7.4 0 .7.3.7.7-.1.4-.4.7-.7.7M827.1 258c-.4 0-.7-.3-.7-.7s.3-.7.7-.7c.4 0 .7.3.7.7s-.3.7-.7.7M823.9 257.7c-.4 0-.7-.3-.7-.7s.3-.7.7-.7c.4 0 .7.3.7.7s-.3.7-.7.7M820.7 257.3c-.4 0-.7-.3-.7-.7 0-.4.3-.7.7-.7.4 0 .7.3.7.7 0 .4-.3.7-.7.7M817.5 256.9c-.4 0-.7-.3-.7-.7 0-.4.3-.7.7-.7.4 0 .7.3.7.7 0 .4-.3.7-.7.7M814.3 256.5c-.4 0-.7-.3-.7-.7 0-.4.3-.7.7-.7.4 0 .7.3.7.7-.1.4-.4.7-.7.7M811 256.1c-.4 0-.7-.3-.7-.7 0-.4.3-.7.7-.7.4 0 .7.3.7.7 0 .4-.3.7-.7.7M807.8 255.7c-.4 0-.7-.3-.7-.7 0-.4.3-.7.7-.7.4 0 .7.3.7.7 0 .4-.3.7-.7.7M804.6 255.4c-.4 0-.7-.3-.7-.7 0-.4.3-.7.7-.7.4 0 .7.3.7.7 0 .4-.3.7-.7.7M801.4 255c-.4 0-.7-.3-.7-.7 0-.4.3-.7.7-.7.4 0 .7.3.7.7 0 .4-.3.7-.7.7M798.2 254.6c-.4 0-.7-.3-.7-.7 0-.4.3-.7.7-.7.4 0 .7.3.7.7-.1.4-.4.7-.7.7M794.9 254.2c-.4 0-.7-.3-.7-.7s.3-.7.7-.7c.4 0 .7.3.7.7s-.3.7-.7.7M791.7 253.8c-.4 0-.7-.3-.7-.7 0-.4.3-.7.7-.7.4 0 .7.3.7.7 0 .4-.3.7-.7.7M788.5 253.5c-.4 0-.7-.3-.7-.7 0-.4.3-.7.7-.7.4 0 .7.3.7.7 0 .4-.3.7-.7.7M785.3 253.1c-.4 0-.7-.3-.7-.7 0-.4.3-.7.7-.7.4 0 .7.3.7.7-.1.4-.4.7-.7.7M782.1 252.7c-.4 0-.6-.3-.6-.6 0-.4.3-.6.6-.6.4 0 .6.3.6.6s-.3.6-.6.6M778.9 252.3c-.4 0-.6-.3-.6-.6 0-.4.3-.6.6-.6.4 0 .6.3.6.6s-.3.6-.6.6M775.6 251.9c-.4 0-.6-.3-.6-.6s.3-.6.6-.6c.4 0 .6.3.6.6s-.2.6-.6.6M772.4 251.5c-.4 0-.6-.3-.6-.6 0-.4.3-.6.6-.6.4 0 .6.3.6.6.1.4-.2.6-.6.6M769.2 250.9c-.4 0-.6-.3-.6-.6s.3-.6.6-.6.6.3.6.6c.1.3-.2.6-.6.6M766.2 249.9c-.3 0-.6-.3-.6-.6s.3-.6.6-.6.6.3.6.6-.3.6-.6.6M763.2 248.6c-.3 0-.6-.3-.6-.6s.3-.6.6-.6.6.3.6.6-.3.6-.6.6M760.2 247.3c-.3 0-.6-.3-.6-.6s.3-.6.6-.6.6.3.6.6-.2.6-.6.6M757.2 246c-.3 0-.6-.3-.6-.6s.3-.6.6-.6.6.3.6.6-.2.6-.6.6M754.2 244.7c-.3 0-.6-.3-.6-.6s.3-.6.6-.6.6.3.6.6c.1.4-.2.6-.6.6M751.3 243.5c-.3 0-.6-.3-.6-.6s.3-.6.6-.6.6.3.6.6-.3.6-.6.6M748.3 242.2c-.3 0-.6-.3-.6-.6s.3-.6.6-.6.6.3.6.6-.3.6-.6.6M745.3 240.9c-.3 0-.6-.3-.6-.6s.3-.6.6-.6.6.3.6.6-.3.6-.6.6M742.3 239.6c-.3 0-.6-.3-.6-.6s.3-.6.6-.6.6.3.6.6c0 .4-.2.6-.6.6M739.4 238.4c-.3 0-.6-.3-.6-.6s.3-.6.6-.6.6.3.6.6-.3.6-.6.6M736.4 237.1c-.3 0-.6-.3-.6-.6s.3-.6.6-.6.6.3.6.6-.3.6-.6.6M733.4 235.8c-.3 0-.6-.3-.6-.6s.3-.6.6-.6.6.3.6.6-.3.6-.6.6M730.6 234.2c-.3 0-.6-.3-.6-.6s.3-.6.6-.6.6.3.6.6-.2.6-.6.6M729.2 231.3c-.3 0-.6-.3-.6-.6s.3-.6.6-.6.6.3.6.6-.3.6-.6.6M729.2 228c-.3 0-.6-.3-.6-.6s.3-.6.6-.6.6.3.6.6c0 .4-.3.6-.6.6M729.2 224.8c-.3 0-.6-.3-.6-.6s.3-.6.6-.6.6.3.6.6-.3.6-.6.6M729.2 221.6c-.3 0-.6-.3-.6-.6s.3-.6.6-.6.6.3.6.6-.3.6-.6.6M729.2 218.3c-.3 0-.6-.3-.6-.6s.3-.6.6-.6.6.3.6.6c0 .4-.3.6-.6.6M729.2 215.1c-.3 0-.6-.3-.6-.6s.3-.6.6-.6.6.3.6.6-.3.6-.6.6M729.2 211.8c-.3 0-.6-.3-.6-.6s.3-.6.6-.6.6.3.6.6c-.1.4-.3.6-.6.6M729.2 208.6c-.3 0-.6-.2-.6-.6 0-.3.2-.6.6-.6.3 0 .6.2.6.6-.1.3-.3.6-.6.6M729.2 205.4c-.3 0-.6-.2-.6-.6 0-.3.2-.6.6-.6.3 0 .6.2.6.6-.1.3-.3.6-.6.6M729.2 202.1c-.3 0-.6-.2-.6-.6 0-.3.2-.6.6-.6.3 0 .6.2.6.6-.1.4-.3.6-.6.6M729.2 198.9c-.3 0-.5-.2-.5-.5s.2-.6.5-.6.5.2.5.6c0 .2-.2.5-.5.5M729.2 195.6c-.3 0-.5-.2-.5-.5s.2-.5.5-.5.5.2.5.5-.2.5-.5.5M729.2 192.4c-.3 0-.5-.2-.5-.5s.2-.5.5-.5.5.2.5.5-.2.5-.5.5M729.2 189.2c-.3 0-.5-.2-.5-.5s.2-.5.5-.5.5.2.5.5c0 .2-.2.5-.5.5M729.2 185.9c-.3 0-.5-.2-.5-.5s.2-.5.5-.5.5.2.5.5-.2.5-.5.5M729.2 182.7c-.3 0-.5-.2-.5-.5s.2-.5.5-.5.5.2.5.5c0 .2-.2.5-.5.5M729.2 179.4c-.3 0-.5-.2-.5-.5s.2-.5.5-.5.5.2.5.5-.2.5-.5.5M729.2 176.2c-.3 0-.5-.2-.5-.5s.2-.5.5-.5.5.2.5.5-.2.5-.5.5M730.1 173.2c-.3 0-.5-.2-.5-.5s.2-.5.5-.5.5.2.5.5c0 .2-.2.5-.5.5M732.9 171.9c-.3 0-.5-.2-.5-.5s.2-.5.5-.5.5.2.5.5c.1.2-.2.5-.5.5M736.2 171.5c-.3 0-.5-.2-.5-.5s.2-.5.5-.5.5.2.5.5-.2.5-.5.5M739.4 171.2c-.3 0-.5-.2-.5-.5s.2-.5.5-.5.5.2.5.5-.2.5-.5.5M742.6 170.9c-.3 0-.5-.2-.5-.5s.2-.5.5-.5.5.2.5.5c0 .2-.2.5-.5.5M745.8 170.5c-.3 0-.5-.2-.5-.5s.2-.5.5-.5.5.2.5.5-.2.5-.5.5M749.1 170.2c-.3 0-.5-.2-.5-.5s.2-.5.5-.5.5.2.5.5-.3.5-.5.5M752.3 169.9c-.3 0-.5-.2-.5-.5s.2-.5.5-.5.5.2.5.5c0 .2-.2.5-.5.5M755.5 169.5c-.3 0-.5-.2-.5-.5s.2-.5.5-.5.5.2.5.5-.2.5-.5.5M758.7 169.2c-.3 0-.5-.2-.5-.5s.2-.5.5-.5.5.2.5.5-.2.5-.5.5M762 168.9c-.3 0-.5-.2-.5-.5s.2-.5.5-.5.5.2.5.5c-.1.3-.3.5-.5.5M765.2 168.5c-.3 0-.5-.2-.5-.5s.2-.5.5-.5.5.2.5.5-.2.5-.5.5M768.4 168.2c-.3 0-.5-.2-.5-.5s.2-.5.5-.5.5.2.5.5-.2.5-.5.5M771.6 167.9c-.3 0-.5-.2-.5-.5s.2-.5.5-.5.5.2.5.5-.2.5-.5.5M774.9 167.5c-.3 0-.5-.2-.5-.5s.2-.5.5-.5.5.2.5.5-.3.5-.5.5M778.1 167.2c-.3 0-.5-.2-.5-.5s.2-.5.5-.5.5.2.5.5-.3.5-.5.5M781.3 166.9c-.3 0-.5-.2-.5-.5s.2-.5.5-.5.5.2.5.5-.2.5-.5.5M784.5 166.5c-.3 0-.5-.2-.5-.5s.2-.5.5-.5.5.2.5.5-.2.5-.5.5M787.8 166.2c-.3 0-.5-.2-.5-.5s.2-.5.5-.5.5.2.5.5c-.1.3-.3.5-.5.5M791 165.9c-.3 0-.5-.2-.5-.5s.2-.5.5-.5.5.2.5.5c-.1.3-.3.5-.5.5M794.2 165.5c-.2 0-.5-.2-.5-.5 0-.2.2-.5.5-.5.2 0 .5.2.5.5s-.2.5-.5.5M797.4 165.2c-.2 0-.4-.2-.4-.4s.2-.4.4-.4.4.2.4.4c.1.2-.1.4-.4.4M800.7 164.9c-.2 0-.4-.2-.4-.4s.2-.4.4-.4.4.2.4.4-.2.4-.4.4M803.9 164.5c-.2 0-.4-.2-.4-.4s.2-.4.4-.4.4.2.4.4c0 .3-.2.4-.4.4M807.1 164.2c-.2 0-.4-.2-.4-.4s.2-.4.4-.4.4.2.4.4-.2.4-.4.4M810.3 163.9c-.2 0-.4-.2-.4-.4s.2-.4.4-.4.4.2.4.4c.1.2-.1.4-.4.4M813.5 163.6c-.2 0-.4-.2-.4-.4s.2-.4.4-.4.4.2.4.4c.1.2-.1.4-.4.4M816.8 163.2c-.2 0-.4-.2-.4-.4s.2-.4.4-.4.4.2.4.4-.2.4-.4.4M820 162.9c-.2 0-.4-.2-.4-.4s.2-.4.4-.4.4.2.4.4-.2.4-.4.4M823.2 162.6c-.2 0-.4-.2-.4-.4s.2-.4.4-.4.4.2.4.4-.2.4-.4.4M826.4 162.2c-.2 0-.4-.2-.4-.4s.2-.4.4-.4.4.2.4.4c0 .3-.1.4-.4.4M829.7 161.9c-.2 0-.4-.2-.4-.4s.2-.4.4-.4.4.2.4.4-.2.4-.4.4M832.9 161.6c-.2 0-.4-.2-.4-.4s.2-.4.4-.4.4.2.4.4-.2.4-.4.4M836.1 161.2c-.2 0-.4-.2-.4-.4s.2-.4.4-.4.4.2.4.4c0 .3-.2.4-.4.4M839.3 160.9c-.2 0-.3-.2-.3-.3s.2-.3.3-.3c.2 0 .3.2.3.3s-.1.3-.3.3M842.6 160.6c-.2 0-.3-.2-.3-.3s.2-.3.3-.3c.2 0 .3.2.3.3s-.1.3-.3.3M845.8 160.2c-.2 0-.3-.1-.3-.3 0-.2.1-.3.3-.3.2 0 .3.1.3.3 0 .2-.1.3-.3.3M849 159.9c-.2 0-.3-.1-.3-.3s.1-.3.3-.3c.2 0 .3.1.3.3s-.1.3-.3.3M852.2 159.6c-.2 0-.3-.1-.3-.3 0-.2.1-.3.3-.3.2 0 .3.1.3.3 0 .1-.1.3-.3.3M855.5 159.2c-.2 0-.3-.1-.3-.3 0-.2.1-.3.3-.3.2 0 .3.1.3.3 0 .2-.2.3-.3.3M858.7 158.9c-.2 0-.3-.1-.3-.3 0-.2.1-.3.3-.3.2 0 .3.1.3.3 0 .2-.2.3-.3.3M861.9 158.6c-.2 0-.3-.1-.3-.3 0-.2.1-.3.3-.3.2 0 .3.1.3.3 0 .1-.1.3-.3.3M865.1 158.2c-.2 0-.3-.1-.3-.3 0-.1.1-.3.3-.3.1 0 .3.1.3.3 0 .2-.1.3-.3.3M868.4 157.9c-.1 0-.3-.1-.3-.3s.1-.3.3-.3c.1 0 .3.1.3.3s-.2.3-.3.3M871.6 157.6c-.1 0-.3-.1-.3-.3 0-.1.1-.3.3-.3.1 0 .3.1.3.3-.1.2-.2.3-.3.3M874.8 157.2c-.1 0-.2-.1-.2-.2s.1-.2.2-.2.2.1.2.2-.1.2-.2.2M878 156.9c-.1 0-.2-.1-.2-.2s.1-.2.2-.2.2.1.2.2c.1.1 0 .2-.2.2M881.3 156.6c-.1 0-.2-.1-.2-.2s.1-.2.2-.2.2.1.2.2-.1.2-.2.2M884.5 156.2c-.1 0-.2-.1-.2-.2s.1-.2.2-.2.2.1.2.2-.1.2-.2.2M887.7 155.9c-.1 0-.2-.1-.2-.2s.1-.2.2-.2.2.1.2.2-.1.2-.2.2M890.9 155.6c-.1 0-.2-.1-.2-.2s.1-.2.2-.2.2.1.2.2-.1.2-.2.2M894.2 155.2c-.1 0-.2-.1-.2-.2s.1-.2.2-.2.2.1.2.2c-.1.2-.1.2-.2.2M897.4 154.9c-.1 0-.2-.1-.2-.2s.1-.2.2-.2.2.1.2.2-.1.2-.2.2M900.6 154.6c-.1 0-.2-.1-.2-.2s.1-.2.2-.2.2.1.2.2-.1.2-.2.2M903.8 154.3c-.1 0-.2-.1-.2-.2s.1-.2.2-.2.2.1.2.2-.1.2-.2.2M907 153.9c-.1 0-.1-.1-.1-.1 0-.1.1-.1.1-.1.1 0 .1.1.1.1.1.1 0 .1-.1.1M910.3 153.6c-.1 0-.1-.1-.1-.1 0-.1.1-.1.1-.1.1 0 .1.1.1.1l-.1.1M913.5 153.3c-.1 0-.1-.1-.1-.1 0-.1.1-.1.1-.1.1 0 .1.1.1.1s0 .1-.1.1M916.7 152.9c-.1 0-.1-.1-.1-.1 0-.1.1-.1.1-.1.1 0 .1.1.1.1 0 .1 0 .1-.1.1M919.9 152.6c-.1 0-.1 0-.1-.1s0-.1.1-.1.1 0 .1.1c.1 0 0 .1-.1.1M923.2 152.3c-.1 0-.1-.1 0 0-.1-.2-.1-.2 0-.2 0 0 .1 0 0 .2.1-.1 0 0 0 0M926.4 151.9c-.1 0-.1 0 0 0-.1-.1-.1-.2 0-.2 0 0 .1.1 0 .2.1 0 0 0 0 0"/><path clip-path="url(#b)" fill="none" stroke="#FFF" stroke-width="1.62" stroke-linecap="round" stroke-linejoin="round" stroke-miterlimit="10" d="M356.9 564.4c-1.7-.4-4.1.3-5.4 1.6l-12 12.8c-1.2 1.3-.9 2.9.8 3.5l18.4 7.2c1.7.6 3.8 0 4.8-1.5l10.8-16c1-1.5.4-3-1.3-3.5l-16.1-4.1z"/><path clip-path="url(#b)" fill="none" stroke="#FFF" stroke-width="1.62" stroke-linecap="round" stroke-linejoin="round" stroke-dasharray="0,3.242" d="M369.8 593.3l89.4 32.8"/><path clip-path="url(#b)" fill="#FFF" d="M454.6 629.4l18.1 1.6-14.9-10.4"/><path clip-path="url(#b)" fill="none" stroke="#FFF" stroke-width="1.62" stroke-linecap="round" stroke-linejoin="round" stroke-miterlimit="10" stroke-dasharray="0,3.242" d="M396.8 245.5l5.7-3.6 59.1 4.7-3.4 4.2z"/><path clip-path="url(#b)" fill="none" stroke="#FFF" stroke-width=".324" stroke-miterlimit="10" d="M1087.5 415.1s-1.5-.6-2.9-1.1c-1.5-.6-2.9-1.1-2.9-1.1"/><path clip-path="url(#b)" fill="none" stroke="#FFF" stroke-width=".324" stroke-miterlimit="10" d="M1083.9 412.1l-2.2.7 1.2 2M1075.8 410.7l-3-1-3-1M1072 407.9l-2.2.8 1.3 2M1063.9 406.9l-6-1.7M1060 404.2l-2.2 1 1.4 1.8M1051.8 403.4l-3-.9-3-.8"/><path clip-path="url(#b)" fill="none" stroke="#FFF" stroke-width=".324" stroke-miterlimit="10" d="M1047.9 400.7l-2.1 1 1.4 1.9M1039.8 400.1l-3-.8c-1.5-.4-3-.7-3-.7"/><path clip-path="url(#b)" fill="none" stroke="#FFF" stroke-width=".324" stroke-miterlimit="10" d="M1035.8 397.6l-2.1 1 1.4 1.9M1027.6 397.3l-6.1-1.4M1023.6 394.8l-2.1 1.1 1.4 1.8M1015.4 394.5l-6.1-1.4M1011.4 392l-2.1 1.1 1.4 1.8M1003.2 391.7l-3-.7-3-.8"/><path clip-path="url(#b)" fill="none" stroke="#FFF" stroke-width=".324" stroke-miterlimit="10" d="M999.2 389.2l-2.1 1 1.4 1.8M991.1 388.5s-1.5-.5-3-.9l-3-1"/><path clip-path="url(#b)" fill="none" stroke="#FFF" stroke-width=".324" stroke-miterlimit="10" d="M987.3 385.8l-2.2.8 1.3 1.9M979.2 384.6l-3-1-3-1M975.4 381.7l-2.1.9 1.2 1.9M967.5 380.1l-2.8-1.4c-1.4-.7-2.7-1.5-2.7-1.5"/><path clip-path="url(#b)" fill="none" stroke="#FFF" stroke-width=".324" stroke-miterlimit="10" d="M964.3 376.7l-2.3.5.9 2.1M956.7 373.8l-5.1-3.7M953.9 370l-2.3.1.6 2.3M946.7 366.3l-2.4-2-2.4-2M944.2 362.3h-2.3l.4 2.3M937.2 358.2l-4.6-4.3M934.9 354l-2.3-.1.3 2.3M928 349.7s-1.1-1.1-2.3-2.1l-2.3-2.2"/><path clip-path="url(#b)" fill="none" stroke="#FFF" stroke-width=".324" stroke-miterlimit="10" d="M925.8 345.5l-2.4-.1.3 2.3M919 340.9l-2.2-2.2c-1.1-1.1-2.1-2.3-2.1-2.3"/><path clip-path="url(#b)" fill="none" stroke="#FFF" stroke-width=".324" stroke-miterlimit="10" d="M917 336.7l-2.3-.3.2 2.3M910.5 331.8l-4.2-4.7M908.6 327.4l-2.3-.3.2 2.3M902.1 322.5l-4.2-4.6M900.2 318.2l-2.4-.3.2 2.3M893.3 313.7s-1.3-.9-2.6-1.7c-1.3-.8-2.7-1.5-2.7-1.5"/><path clip-path="url(#b)" fill="none" stroke="#FFF" stroke-width=".324" stroke-miterlimit="10" d="M890.2 310l-1.2.2c-.6.1-1.1.2-1.1.2s.2.5.5 1c.2.5.4 1.1.4 1.1M882.1 308s-.4-.1-.9-.3c-.6-.2-1.3-.4-2.1-.6l-3-.8"/><path clip-path="url(#b)" fill="none" stroke="#FFF" stroke-width=".324" stroke-miterlimit="10" d="M878.2 305.4l-2.1 1 1.4 1.8M870 305.1l-3.1-.7-3.1-.5"/><path clip-path="url(#b)" fill="none" stroke="#FFF" stroke-width=".324" stroke-miterlimit="10" d="M865.9 302.7l-2.1 1.2 1.5 1.7M857.6 303l-6.2-.8M853.4 301l-2 1.2 1.6 1.7M845.2 301.4l-6.2-.8M841 299.3l-2 1.3 1.6 1.6M832.8 299.8l-6.2-.9M828.6 297.7l-2 1.2 1.6 1.7M820.4 298.1s-1.6-.2-3.1-.4c-1.6-.2-3.1-.3-3.1-.3"/><path clip-path="url(#b)" fill="none" stroke="#FFF" stroke-width=".324" stroke-miterlimit="10" d="M816.1 296.1l-1.9 1.3 1.6 1.6M807.9 296.9l-3.1-.2c-1.6-.1-3.1-.2-3.1-.2"/><path clip-path="url(#b)" fill="none" stroke="#FFF" stroke-width=".324" stroke-miterlimit="10" d="M803.6 295l-1.9 1.4 1.7 1.6M795.4 296.1l-6.2-.4M791.1 294.3l-1.9 1.4 1.7 1.6M783 295.4l-6.3-.4M778.6 293.7l-1.9 1.3 1.7 1.6M770.5 294.7l-6.3-.4M766.1 293l-1.9 1.3 1.7 1.6M758 294l-6.3-.3M753.6 292.3l-1.9 1.4 1.7 1.5M745.5 293.4l-6.3-.2M741 291.8l-1.8 1.4 1.8 1.5M732.9 293l-6.2-.1M728.5 291.4l-1.8 1.5 1.7 1.5M720.4 292.7s-1.6-.1-3.1-.1l-3.1-.2"/><path clip-path="url(#b)" fill="none" stroke="#FFF" stroke-width=".324" stroke-miterlimit="10" d="M716 291l-1.8 1.4 1.7 1.5M707.9 292s-1.6-.1-3.1-.2c-1.6-.1-3.1-.3-3.1-.3"/><path clip-path="url(#b)" fill="none" stroke="#FFF" stroke-width=".324" stroke-miterlimit="10" d="M703.6 290.2l-1.9 1.3 1.7 1.6M695.5 290.9l-6.3-.5M691.2 289l-2 1.4 1.7 1.6M683 289.8s-1.6-.1-3.1-.3c-1.6-.2-3.1-.5-3.1-.5"/><path clip-path="url(#b)" fill="none" stroke="#FFF" stroke-width=".324" stroke-miterlimit="10" d="M678.8 287.8l-1 .6-1 .6s.4.4.8.9c.4.4.8.9.8.9M670.7 287.6l-3-.8c-1.5-.4-3-1-3-1"/><path clip-path="url(#b)" fill="none" stroke="#FFF" stroke-width=".324" stroke-miterlimit="10" d="M666.9 284.9s-.5.2-1.1.4l-1.1.4.6 1 .6 1M658.9 283.5s-5.8-2.3-5.7-2.5"/><path clip-path="url(#b)" fill="none" stroke="#FFF" stroke-width=".324" stroke-miterlimit="10" d="M655.3 280.4s-.5.2-1.1.3c-.5.1-1.1.3-1.1.3s.2.5.5 1.1l.6 1M648 277.5s-1.2-1-2.3-2.1c-1.1-1.1-2.1-2.3-2.1-2.3"/><path clip-path="url(#b)" fill="none" stroke="#FFF" stroke-width=".324" stroke-miterlimit="10" d="M645.8 273.4s-.6-.1-1.1-.1c-.6-.1-1.1-.2-1.1-.2s0 .6.1 1.2.1 1.2.1 1.2M640 267.9l-3.1-5.4M639.1 263.3l-2.2-.8-.3 2.2M633.1 257.5s-1-1.2-2.2-2.2c-1.1-1.1-2.3-2.1-2.3-2.1"/><path clip-path="url(#b)" fill="none" stroke="#FFF" stroke-width=".324" stroke-miterlimit="10" d="M631 253.2s-.6 0-1.2-.1h-1.2s.1.6.2 1.1c.1.6.2 1.1.2 1.1M623.5 249.6l-5.5-3M620.3 246.2l-2.3.4.9 2.1M612.5 243.6l-5.5-2.9M609.3 240.2l-2.3.5.9 2.1M601.3 238s-1.4-.6-2.9-1.2l-2.9-1.2"/><path clip-path="url(#b)" fill="none" stroke="#FFF" stroke-width=".324" stroke-miterlimit="10" d="M597.8 234.9l-2.2.7 1.1 2M589.7 233.5l-6-1.9M585.9 230.7l-2.2.9 1.3 1.9M577.7 229.7l-5.9-1.8M573.9 227l-2.2.9 1.3 1.9M565.8 226s-1.5-.5-3-.9l-3-.8"/><path clip-path="url(#b)" fill="none" stroke="#FFF" stroke-width=".324" stroke-miterlimit="10" d="M561.9 223.3l-2.1 1 1.3 1.8M553.7 222.9l-3.1-.6c-1.5-.3-3.1-.5-3.1-.5"/><path clip-path="url(#b)" fill="none" stroke="#FFF" stroke-width=".324" stroke-miterlimit="10" d="M549.5 220.6l-2 1.2 1.5 1.7M541.3 220.9l-6.2-.7M537.1 218.9l-2 1.3 1.6 1.6M528.9 219.4l-6.2-.8M524.6 217.3l-1.9 1.3 1.6 1.6M516.5 217.8l-6.2-.8M512.2 215.8l-2 1.2 1.7 1.7M504 216.3l-6.2-.8M499.8 214.3l-2 1.2 1.6 1.7M491.6 214.7l-6.2-.7M487.4 212.7l-2 1.3 1.6 1.6M479.2 213.2l-6.2-.8M474.9 211.2l-1.9 1.2 1.6 1.7M466.8 211.7l-6.2-.8M462.5 209.6l-1.9 1.3 1.6 1.6M454.4 210.1l-6.3-.8M450.1 208.1l-2 1.2 1.7 1.7M441.9 208.6l-6.2-.8M437.7 206.6l-2 1.2 1.6 1.7M429.5 207l-6.2-.7M425.3 205l-2 1.3 1.6 1.6M417.1 205.5l-6.2-.8M412.8 203.5l-1.9 1.2 1.6 1.7M404.7 204l-6.2-.8M400.4 201.9l-2 1.3 1.7 1.6M392.2 202.4l-6.2-.7M388 200.4l-2 1.3 1.6 1.6M379.8 200.9l-6.2-.8M375.6 198.9l-2 1.2 1.6 1.7M367.4 199.3l-6.2-.7M363.2 197.3l-2 1.3 1.6 1.6M355 197.8l-6.2-.8M350.7 195.8l-1.9 1.2 1.6 1.7M342.6 196.2l-6.2-.8M338.3 194.2l-2 1.2 1.7 1.7M330.1 194.6l-6.2-.8M325.9 192.6l-2 1.2 1.6 1.7M317.7 193l-6.2-.8M313.5 191l-2 1.2 1.6 1.7M305.3 191.4l-6.2-.9M301.1 189.3l-2 1.2 1.6 1.7M292.9 189.5s-1.5-.3-3.1-.5c-1.5-.3-3.1-.5-3.1-.5"/><path clip-path="url(#b)" fill="none" stroke="#FFF" stroke-width=".324" stroke-miterlimit="10" d="M288.8 187.3l-2 1.2 1.5 1.7M280.6 187.3l-3-.8-3-1"/><path clip-path="url(#b)" fill="none" stroke="#FFF" stroke-width=".324" stroke-miterlimit="10" d="M276.8 184.6s-.5.2-1.1.4c-.5.2-1.1.4-1.1.4l.6 1 .6 1M268.9 183.1s-1.4-.7-2.8-1.5c-1.3-.8-2.7-1.7-2.7-1.7"/><path clip-path="url(#b)" fill="none" stroke="#FFF" stroke-width=".324" stroke-miterlimit="10" d="M265.7 179.7l-2.3.2.8 2.2M258.3 176.4s-1.3-.9-2.5-1.9c-.6-.5-1.2-1-1.7-1.3-.5-.4-.8-.6-.8-.6"/><path clip-path="url(#b)" fill="none" stroke="#FFF" stroke-width=".324" stroke-miterlimit="10" d="M255.6 172.6h-2.4l.5 2.3M247.8 169.7s-1.5-.6-3-1c-1.5-.5-3-.8-3-.8"/><path clip-path="url(#b)" fill="none" stroke="#FFF" stroke-width=".324" stroke-miterlimit="10" d="M243.9 166.9l-1.1.5c-.5.3-1 .5-1 .5s.4.4.7.9l.7.9M235.6 167.2l-6.2-.5M231.3 165.4l-2 1.3 1.7 1.6M223.1 166.2l-6.2-.5M218.8 164.3l-1.9 1.4 1.7 1.6M210.6 165.2l-6.2-.5M206.3 163.3l-1.9 1.4 1.7 1.6M198.2 164.2l-6.3-.5M193.8 162.3l-1.9 1.4 1.7 1.5M185.7 163.2l-6.3-.5M181.3 161.3l-1.9 1.4 1.7 1.5M173.2 162.2l-6.2-.5M168.9 160.3l-1.9 1.4 1.6 1.6M160.7 161.2l-6.2-.5M156.4 159.4l-1.9 1.3 1.7 1.6M148.2 160.4l-6.2-.3M143.8 158.7l-1.8 1.4 1.7 1.5M135.7 159.9l-6.2-.1M131.3 158.3l-1.8 1.5 1.7 1.4M123.2 159.6l-6.2-.1M118.8 158l-1.8 1.5 1.7 1.4M110.7 159.3l-6.3-.1M106.3 157.7l-1.9 1.5 1.8 1.4M98.2 159l-6.3-.1M93.8 157.4l-1.9 1.5 1.8 1.4M85.7 158.7l-6.3-.1M81.2 157.1l-1.8 1.5 1.8 1.5M73.2 158.4l-6.3-.1M68.7 156.8l-1.8 1.5 1.8 1.5"/><path clip-path="url(#b)" fill="none" stroke="#FFF" stroke-width="1.62" stroke-linecap="round" stroke-linejoin="round" stroke-miterlimit="10" stroke-dasharray="0,3.242" d="M540.8 253c-1.4-.3-35.7-19.2-35.7-19.2l5.4-14.6-60.9-6.6-8 13.1-20.9 13.4-15.1-2 17.7-7.1 12.6-17.4h-21.7l-3.1-4-48-7.4-23.2 16.3-24.3 6.6s-16.3-3.1-15.4-3.4c.9-.3 33.2-11.7 33.2-11.7l17.6-11.7-27.9-1.4-34.9 13.4-12.6-1.4 32.3-12-17.7-2.3-63.2 18-14.3 4.6s59.2 10.9 61.2 11.4 24.9 9.1 26 9.4c1.1.3 269.6 27.2 269.6 27.2L540.8 253z"/><path clip-path="url(#b)" fill="none" stroke="#FFF" stroke-width=".324" stroke-miterlimit="10" d="M355.3 775l1-2.1-2.3-.5M361.8 770.1l5.5-2.8M366.4 769.4l1-2.1-2.3-.5M372.9 764.5l5.5-2.9M377.5 763.7l.9-2.1-2.2-.4M383.9 758.8l5.5-2.9M388.6 758l.9-2.1-2.3-.5M395 753l5.5-2.9M399.6 752.3l.9-2.2-2.3-.4M406 747.3l5.5-2.9M410.6 746.5l.9-2.1-2.3-.5M417 741.5l5.5-2.9M421.6 740.8l.9-2.2-2.2-.4M428 735.8l5.6-2.8M432.7 735.1l.9-2.1-2.3-.5M439.1 730.1l5.6-2.8M443.7 729.4l1-2.1-2.3-.5M450.2 724.5s1.4-.7 2.7-1.5c1.3-.8 2.6-1.7 2.6-1.7"/><path clip-path="url(#b)" fill="none" stroke="#FFF" stroke-width=".324" stroke-miterlimit="10" d="M454.8 723.5l.7-2.2-2.2-.3M460.6 717.7s1.2-.9 2.5-1.9l2.4-2"/><path clip-path="url(#b)" fill="none" stroke="#FFF" stroke-width=".324" stroke-miterlimit="10" d="M465.1 716.1l.2-1.2.2-1.2s-.6 0-1.1.1h-1.1M469.4 709.1s.9-1.3 1.6-2.7c.7-1.4 1.2-2.9 1.2-2.9"/><path clip-path="url(#b)" fill="none" stroke="#FFF" stroke-width=".324" stroke-miterlimit="10" d="M472.9 705.8s-.2-.6-.3-1.2c-.2-.6-.4-1.1-.4-1.1l-1 .6c-.5.3-1 .5-1 .5M472.6 697.3s-.1-1.5-.1-3.1c-.1-1.6-.2-3.1-.2-3.1"/><path clip-path="url(#b)" fill="none" stroke="#FFF" stroke-width=".324" stroke-miterlimit="10" d="M473.9 692.8l-1.6-1.7-1.3 1.9M471.8 684.9l-.6-6.1M472.8 680.4l-1.6-1.6-1.3 1.9M470.6 672.6s-.1-1.5-.2-3.1 0-3.1 0-3.1"/><path clip-path="url(#b)" fill="none" stroke="#FFF" stroke-width=".324" stroke-miterlimit="10" d="M471.8 668.1l-1.5-1.7-1.4 1.8M470.5 660.1s.1-1.5.2-3.1c.1-1.5.3-3.1.3-3.1"/><path clip-path="url(#b)" fill="none" stroke="#FFF" stroke-width=".324" stroke-miterlimit="10" d="M472.3 655.9l-.6-1-.6-1-.8.8-.8.8M472.5 647.9s.5-1.5 1.1-2.9c.6-1.4 1.3-2.8 1.3-2.8"/><path clip-path="url(#b)" fill="none" stroke="#FFF" stroke-width=".324" stroke-miterlimit="10" d="M475.5 644.4s-.2-.6-.3-1.1c-.1-.6-.3-1.1-.3-1.1s-.5.2-1 .5-1 .5-1 .5M478.2 636.9s.2-.3.6-.8c.4-.4.9-1 1.4-1.6 1-1.2 2-2.3 2-2.3"/><path clip-path="url(#b)" fill="none" stroke="#FFF" stroke-width=".324" stroke-miterlimit="10" d="M482.1 634.5l.1-2.3-2.3.4M486.3 627.5l4.2-4.6M490.4 625.2l.1-2.3-2.3.4M494.7 618.3s1.1-1.1 2-2.4c1-1.2 1.9-2.5 1.9-2.5"/><path clip-path="url(#b)" fill="none" stroke="#FFF" stroke-width=".324" stroke-miterlimit="10" d="M498.7 615.8s0-.6-.1-1.2c0-.6-.1-1.2-.1-1.2s-.6.2-1.1.3c-.5.1-1.1.3-1.1.3M501.9 608.2s.8-1.3 1.4-2.8c.7-1.4 1.1-2.9 1.1-2.9"/><path clip-path="url(#b)" fill="none" stroke="#FFF" stroke-width=".324" stroke-miterlimit="10" d="M505.3 604.8s-.2-.6-.4-1.1c-.2-.6-.4-1.1-.4-1.1l-1 .6-1 .6M506.1 596.6s.3-1.5.5-3.1c.1-.8.2-1.5.2-2.1v-1"/><path clip-path="url(#b)" fill="none" stroke="#FFF" stroke-width=".324" stroke-miterlimit="10" d="M508.2 592.3s-.3-.5-.7-1c-.4-.5-.7-.9-.7-.9s-.4.4-.7.9l-.8.8M508.5 584.5s.7-1.4 1.7-2.6c.5-.6 1.1-1.1 1.6-1.4.5-.3.8-.5.8-.5"/><path clip-path="url(#b)" fill="none" stroke="#FFF" stroke-width=".324" stroke-miterlimit="10" d="M512.1 582.1s0-.5.2-1.1c.1-.5.3-1.1.3-1.1s-.6-.1-1.2-.1-1.2.1-1.2.1M518.2 577.5s1.5-.5 3-.9 3-.6 3-.6"/><path clip-path="url(#b)" fill="none" stroke="#FFF" stroke-width=".324" stroke-miterlimit="10" d="M522.8 577.8s.4-.4.7-.9c.4-.4.7-.9.7-.9s-.5-.3-1-.5l-1-.5M530.5 575.2l3.1-.3c1.5-.1 3.1-.2 3.1-.2"/><path clip-path="url(#b)" fill="none" stroke="#FFF" stroke-width=".324" stroke-miterlimit="10" d="M535 576.4l1.7-1.6-1.9-1.3M542.9 574.5s1.6-.2 3-.7c1.5-.5 2.8-1.3 2.8-1.3"/><path clip-path="url(#b)" fill="none" stroke="#FFF" stroke-width=".324" stroke-miterlimit="10" d="M547.7 574.8s.3-.5.6-1.1c.3-.5.5-1.1.5-1.1s-.6-.1-1.1-.2c-.5-.1-1.1-.3-1.1-.3M553.2 568.4s.8-1.4 1.2-2.9c.2-.7.4-1.5.4-2.1.1-.6.1-1 .1-1"/><path clip-path="url(#b)" fill="none" stroke="#FFF" stroke-width=".324" stroke-miterlimit="10" d="M556.2 564.5s-.3-.6-.6-1.1c-.3-.5-.7-1-.7-1l-.8.8c-.4.4-.8.7-.8.7M552.4 557s-1-1.2-2.2-2.2c-1.1-1.1-2.3-2.1-2.3-2.1"/><path clip-path="url(#b)" fill="none" stroke="#FFF" stroke-width=".324" stroke-miterlimit="10" d="M550.3 552.8h-2.4l.2 1.1c.1.6.2 1.1.2 1.1M543 549l-5.1-3.6M540.2 545.2l-2.3.2.6 2.2M532.8 541.9s-1.2-.9-2.5-1.9c-1.2-1-2.5-1.9-2.5-1.9"/><path clip-path="url(#b)" fill="none" stroke="#FFF" stroke-width=".324" stroke-miterlimit="10" d="M530.2 538l-2.4.1.6 2.2M523 534.2l-.7-.6c-.4-.4-1-.9-1.6-1.4-1.2-1-2.5-1.8-2.5-1.8"/><path clip-path="url(#b)" fill="none" stroke="#FFF" stroke-width=".324" stroke-miterlimit="10" d="M520.5 530.1s-.6 0-1.2.1c-.6 0-1.2.1-1.2.1s.2.5.3 1.1c.1.5.3 1.1.3 1.1M512.9 527s-1.4-.8-2.8-1.3c-1.4-.6-2.9-1.1-2.9-1.1"/><path clip-path="url(#b)" fill="none" stroke="#FFF" stroke-width=".324" stroke-miterlimit="10" d="M509.4 523.8l-1.1.4-1.1.4.6 1 .6 1M501.3 522.6s-1.5-.5-3-.9l-3-.9"/><path clip-path="url(#b)" fill="none" stroke="#FFF" stroke-width=".324" stroke-miterlimit="10" d="M497.4 519.9l-2.1 1 1.3 1.8M489.4 518.9l-2.8-1.2-2.8-1.4"/><path clip-path="url(#b)" fill="none" stroke="#FFF" stroke-width=".324" stroke-miterlimit="10" d="M486 515.8s-.6.1-1.1.3c-.6.1-1.1.2-1.1.2l.5 1.1c.2.5.5 1.1.5 1.1M478.6 512.9s-1.2-1-2.1-2.3c-.9-1.2-1.7-2.6-1.7-2.6"/><path clip-path="url(#b)" fill="none" stroke="#FFF" stroke-width=".324" stroke-miterlimit="10" d="M477 508.7s-.5-.1-1.1-.3c-.5-.2-1.1-.4-1.1-.4s-.1.6-.2 1.1c-.1.6-.1 1.2-.1 1.2M472.8 502.1s-.1-.4-.1-1 0-1.4.1-2.1c.3-1.5 1-2.9 1-2.9"/><path clip-path="url(#b)" fill="none" stroke="#FFF" stroke-width=".324" stroke-miterlimit="10" d="M474.6 498.2l-.4-1c-.2-.5-.3-1.1-.3-1.1l-1 .6c-.5.3-1 .7-1 .7M477.3 491s1-1.2 2.3-2.1c.6-.5 1.2-.9 1.7-1.3.5-.3.8-.5.8-.5"/><path clip-path="url(#b)" fill="none" stroke="#FFF" stroke-width=".324" stroke-miterlimit="10" d="M481.5 489.3s.1-.6.3-1.1c.2-.6.3-1.1.3-1.1s-.6 0-1.1-.1c-.6 0-1.2-.1-1.2-.1M487.2 483.5l5.2-3.4M491.7 482.3l.7-2.2-2.3-.2M497.5 476.6s1.3-.8 2.6-1.7l2.7-1.6"/><path clip-path="url(#b)" fill="none" stroke="#FFF" stroke-width=".324" stroke-miterlimit="10" d="M502.1 475.5l.7-2.2-2.3-.3M508.2 470.2s1.4-.7 2.7-1.5l2.8-1.4"/><path clip-path="url(#b)" fill="none" stroke="#FFF" stroke-width=".324" stroke-miterlimit="10" d="M512.8 469.5l.9-2.1-2.2-.5M519.1 464.3s1.3-.8 2.6-1.7c1.3-.9 2.5-1.8 2.5-1.8"/><path clip-path="url(#b)" fill="none" stroke="#FFF" stroke-width=".324" stroke-miterlimit="10" d="M523.7 463l.3-1.1.3-1.1h-1.1c-.6 0-1.1-.1-1.1-.1M528.7 456.5s1-1.2 1.8-2.5c.9-1.3 1.6-2.7 1.6-2.7"/><path clip-path="url(#b)" fill="none" stroke="#FFF" stroke-width=".324" stroke-miterlimit="10" d="M532.5 453.6l-.2-1.2c-.1-.6-.2-1.1-.2-1.1s-.5.2-1 .5l-1 .4M534.8 445.7s1-1.2 2.3-2c.6-.4 1.3-.8 1.9-1 .5-.2.9-.3.9-.3"/><path clip-path="url(#b)" fill="none" stroke="#FFF" stroke-width=".324" stroke-miterlimit="10" d="M539 444.4l.4-1c.2-.5.6-1 .6-1s-.5-.2-1.1-.4c-.6-.2-1.2-.2-1.2-.2M546.1 441.5s1.5-.1 3.1-.1h3.1"/><path clip-path="url(#b)" fill="none" stroke="#FFF" stroke-width=".324" stroke-miterlimit="10" d="M550.5 442.8s.4-.4.9-.7c.5-.4.9-.7.9-.7s-.4-.4-.9-.7c-.5-.4-.9-.7-.9-.7M558.5 441.8s1.5.1 3.1.3c1.5.1 3.1.2 3.1.2"/><path clip-path="url(#b)" fill="none" stroke="#FFF" stroke-width=".324" stroke-miterlimit="10" d="M562.8 443.6l1.9-1.3-1.7-1.6M570.9 442.6l3.1.1c1.6.1 3.1.1 3.1.1"/><path clip-path="url(#b)" fill="none" stroke="#FFF" stroke-width=".324" stroke-miterlimit="10" d="M575.3 444.3l1.8-1.5-1.7-1.4M583.3 442l3-.8c1.5-.5 2.9-1 2.9-1"/><path clip-path="url(#b)" fill="none" stroke="#FFF" stroke-width=".324" stroke-miterlimit="10" d="M588 442.1l.6-1 .6-1s-.5-.2-1.1-.4c-.5-.2-1.1-.4-1.1-.4M594.8 437.4s5.5-2.9 5.6-2.7"/><path clip-path="url(#b)" fill="none" stroke="#FFF" stroke-width=".324" stroke-miterlimit="10" d="M599.4 436.7s.9-2.1 1-2c0 0-.6-.2-1.1-.3-.6-.1-1.1-.3-1.1-.3M605.2 430.8l4.7-4M609.5 429.1l.4-2.3h-2.3M615.6 424.8l6.2-1.1M620.3 425.5l1.5-1.8-2-1.1M627.9 422.7l6.1-1M632.5 423.5l1.5-1.8-2-1.1M640.2 420.8l6.2-.8M644.8 421.7l1.6-1.7-2-1.2M652.5 419.3s1.5-.2 3.1-.3c.4 0 .8-.1 1.1-.1h.5c.2-.1.3-.1.4-.2.5-.2.9-.4.9-.4"/><path clip-path="url(#b)" fill="none" stroke="#FFF" stroke-width=".324" stroke-miterlimit="10" d="M657 420.4c.1-.1 0-.1 0-.1h-.2.9v-.1c.1-.2.3-.4.4-.7.3-.5.5-1 .5-1s-.6-.1-1.1-.3c-.3-.1-.5-.2-.7-.2H657.5 657.2c-.1 0-.2-.1-.2-.1-.1 0-.1-.1-.1-.1M663.7 414.8s1.2-1 2.1-2.3c.4-.6.8-1.3 1-1.9.2-.6.2-.9.2-.9"/><path clip-path="url(#b)" fill="none" stroke="#FFF" stroke-width=".324" stroke-miterlimit="10" d="M667.9 411.9s-.1-.6-.3-1.2c-.2-.6-.5-1-.5-1s-.4.4-.9.7c-.5.3-1 .5-1 .5M665.3 403.8s-.5-1.5-.9-3-.9-3-.9-3"/><path clip-path="url(#b)" fill="none" stroke="#FFF" stroke-width=".324" stroke-miterlimit="10" d="M665.5 399.1l-2-1.3-.8 2.1M662 391.8l-1.5-6M662.3 387.1l-1.8-1.3-1 2M658.8 379.8s-.5-1.5-1.1-2.9l-1.2-2.8"/><path clip-path="url(#b)" fill="none" stroke="#FFF" stroke-width=".324" stroke-miterlimit="10" d="M658.6 375.1s-.5-.3-1-.5c-.5-.3-1-.5-1-.5s-.1.6-.3 1.1c-.1.5-.3 1.1-.3 1.1M653.6 368.5s-.8-1.3-1.7-2.6c-.9-1.3-1.8-2.5-1.8-2.5"/><path clip-path="url(#b)" fill="none" stroke="#FFF" stroke-width=".324" stroke-miterlimit="10" d="M652.3 364l-2.2-.6-.1 2.3M646.5 358.3s-.2-.3-.5-.8-.8-1.1-1.1-1.8l-1-2.9"/><path clip-path="url(#b)" fill="none" stroke="#FFF" stroke-width=".324" stroke-miterlimit="10" d="M645.9 353.9l-2-1.2-.8 2.2M641.9 346.8l-2-5.9M641.9 342.1l-2-1.2-.8 2.2M637.9 335s-.5-1.5-.9-3c-.5-1.5-.9-3-.9-3"/><path clip-path="url(#b)" fill="none" stroke="#FFF" stroke-width=".324" stroke-miterlimit="10" d="M638 330.4l-1.9-1.3-.9 2.1M634.4 323.1s-.1-.4-.2-.9c-.2-.6-.4-1.3-.8-2-.8-1.4-1.9-2.5-1.9-2.5"/><path clip-path="url(#b)" fill="none" stroke="#FFF" stroke-width=".324" stroke-miterlimit="10" d="M633.8 318.2s-.6-.2-1.2-.3l-1.2-.2s.1.6.1 1.1c0 .6-.1 1.1 0 1.1M626.2 314.6s-1.5-.5-3-.9l-3-.8"/><path clip-path="url(#b)" fill="none" stroke="#FFF" stroke-width=".324" stroke-miterlimit="10" d="M624.6 312.8s-1.1 0-2.1.1h-2.3s-.1.2-.4.4c-.2.3-.5.5-.5.5M616.7 310.4s.3-.2.8-.5 1.2-.6 2-.9c1.5-.6 2.9-1 2.9-1"/><path clip-path="url(#b)" fill="none" stroke="#FFF" stroke-width=".324" stroke-miterlimit="10" d="M623.7 309.2s-.4-.3-.7-.5l-.6-.6h-1.9c-.5 0-1 0-1.3.1h-.6M628.3 306.2s1.5-.5 3-.9l3-1"/><path clip-path="url(#b)" fill="none" stroke="#FFF" stroke-width=".324" stroke-miterlimit="10" d="M633 306.3l.6-1 .6-1s-.5-.2-1.1-.4c-.5-.2-1.1-.4-1.1-.4M640 302.1s1.4-.6 2.9-1.2l2.8-1.2"/><path clip-path="url(#b)" fill="none" stroke="#FFF" stroke-width=".324" stroke-miterlimit="10" d="M644.7 301.8l1.1-2.1-2.2-.6M651.3 296.9l5.6-2.7M656 296.3l.9-2.1-2.2-.5M662.5 291.5l5.7-2.6M667.2 291l1-2.1-2.2-.5M1090.2 516.8l-5.6-2.5M1086.8 513.7l-2.2.6 1 2M1079 511.8l-5.6-2.6M1075.6 508.6l-2.2.6 1 2.1M1067.8 506.7l-5.6-2.5M1064.4 503.5l-2.2.7 1 2M1056.5 501.8s-1.4-.6-2.9-1.1c-.7-.3-1.4-.6-2-.7-.5-.2-.9-.3-.9-.3"/><path clip-path="url(#b)" fill="none" stroke="#FFF" stroke-width=".324" stroke-miterlimit="10" d="M1052.9 498.8l-2.2.9 1.2 1.9M1044.9 497.7s-1.5-.5-2.9-.9l-3-.8"/><path clip-path="url(#b)" fill="none" stroke="#FFF" stroke-width=".324" stroke-miterlimit="10" d="M1041.1 495l-2.1 1 1.3 1.9M1033.1 494.3l-6-1.7M1029.2 491.7l-2.1.9 1.4 1.9M1021.2 491l-5.9-1.7M1017.4 488.3l-2.1 1 1.3 1.8M1009.4 487.6l-5.9-1.7M1005.6 485l-2.1.9 1.3 1.9M997.5 484.2l-5.9-1.6M993.7 481.6l-2.1 1 1.3 1.8M985.7 480.9l-5.9-1.7M981.9 478.3l-2.1.9 1.3 1.9M973.9 477.5l-6-1.6M970 474.9l-2.1 1 1.3 1.8M962 474.2l-5.9-1.7M958.2 471.6l-2.1.9 1.3 1.9M950.1 471.3l-3-.4c-.8-.1-1.5-.2-2.1-.2-.6 0-1-.1-1-.1"/><path clip-path="url(#b)" fill="none" stroke="#FFF" stroke-width=".324" stroke-miterlimit="10" d="M945.9 469.2l-1.9 1.3 1.6 1.6M937.8 470.2h-1c-.6 0-1.3.1-2.1.1-1.5.1-3.1.1-3.1.1"/><path clip-path="url(#b)" fill="none" stroke="#FFF" stroke-width=".324" stroke-miterlimit="10" d="M933.4 468.9l-1.7 1.6 1.8 1.3M925.5 470.7l-6.1.3M921.1 469.5l-1.7 1.5 1.8 1.4M913.2 471.3l-6.1.3M908.8 470l-1.7 1.6 1.8 1.3M900.9 471.9l-6.1.2M896.5 470.6l-1.7 1.5 1.8 1.4M888.6 472.4l-6.1.3M884.2 471.1l-1.7 1.6 1.8 1.4M876.3 473s-1.5.1-3.1.1c-.8.1-1.5 0-2.1 0h-1"/><path clip-path="url(#b)" fill="none" stroke="#FFF" stroke-width=".324" stroke-miterlimit="10" d="M871.9 471.7s-.4.4-.8.7c-.4.4-.9.7-.9.7s.5.4.9.7c.5.4.9.7.9.7M864 472.8s-1.5-.1-3.1-.4c-1.5-.2-3-.5-3-.5"/><path clip-path="url(#b)" fill="none" stroke="#FFF" stroke-width=".324" stroke-miterlimit="10" d="M859.9 470.8l-2 1.2 1.6 1.7M852 470.5l-5.9-1.7M848.2 467.9l-2.2.9 1.4 1.9M840.1 467.1l-5.9-1.7M836.3 464.5l-2.1.9 1.3 1.9M828.3 463.7s-1.5-.4-3-.9c-1.5-.4-3-.9-3-.9"/><path clip-path="url(#b)" fill="none" stroke="#FFF" stroke-width=".324" stroke-miterlimit="10" d="M824.5 461.1l-2.1.9 1.3 1.9M816.5 460.2l-5.8-1.9M812.8 457.4l-2.2.9 1.3 1.9M804.8 456.5l-5.9-1.9M801.1 453.7l-2.2.9 1.3 1.9M793.1 452.7l-5.9-2M789.4 449.9l-2.2.8 1.3 1.9M781.4 448.8l-5.8-1.9M777.7 446l-2.1.9 1.2 1.9M769.7 444.9l-5.7-2.3M766.2 441.9l-2.2.7 1.1 2M758.4 440.2s-1.4-.6-2.8-1.3c-.7-.3-1.4-.6-1.9-.9-.5-.2-.9-.4-.9-.4"/><path clip-path="url(#b)" fill="none" stroke="#FFF" stroke-width=".324" stroke-miterlimit="10" d="M755.1 437s-.6.1-1.1.3c-.6.1-1.1.3-1.1.3s.2.5.5 1c.2.5.5 1 .5 1M747.3 434.7l-5.4-2.9M744.1 431.3l-2.2.5.9 2.1M736.4 429l-5.4-2.9M733.2 425.6l-2.2.5.9 2.1M725.5 423.3l-5.4-2.9M722.3 419.9l-2.2.5.9 2.1M714.6 417.6s-.3-.2-.9-.4c-.5-.2-1.2-.6-1.9-.8-1.4-.6-2.9-1-2.9-1"/><path clip-path="url(#b)" fill="none" stroke="#FFF" stroke-width=".324" stroke-miterlimit="10" d="M711.1 414.5s-.6.2-1.1.4c-.5.2-1.1.5-1.1.5s.3.5.6.9c.3.5.6.9.6.9M702.9 414.1s-.4 0-1-.1-1.3-.2-2.1-.2-1.5-.1-2.1-.1h-1"/><path clip-path="url(#b)" fill="none" stroke="#FFF" stroke-width=".324" stroke-miterlimit="10" d="M698.5 412.2s-.5.4-.9.8l-.9.8s.4.3.9.7c.4.3.8.7.8.7M690.6 414.2s-1.5.1-3.1.1c-1.5 0-3.1-.1-3.1-.1"/><path clip-path="url(#b)" fill="none" stroke="#FFF" stroke-width=".324" stroke-miterlimit="10" d="M686.3 412.8l-.9.7c-.5.4-.9.7-.9.7s.4.4.9.8c.4.4.9.7.9.7M678.4 413.3s-.1 0-.3-.1c-.2-.1-.4-.1-.7-.2-.5-.2-1.2-.6-1.9-.9-1.4-.7-2.8-1.3-2.8-1.3"/><path clip-path="url(#b)" fill="none" stroke="#FFF" stroke-width=".324" stroke-miterlimit="10" d="M675 410.1l-2.2.6 1 2.1"/><g><defs><path id="e" d="M0 0h1024v768H0z"/></defs><clipPath id="f"><use xlink:href="#e" overflow="visible"/></clipPath><g opacity=".67" clip-path="url(#f)"><defs><path id="g" d="M-9-8h1042v777H-9z"/></defs><clipPath id="h"><use xlink:href="#g" overflow="visible"/></clipPath><path clip-path="url(#h)" fill="#004261" d="M0 0h1024v768H0z"/></g></g></svg>