<svg xmlns="http://www.w3.org/2000/svg" viewBox="0 0 1280 800"><path fill="#004261" d="M251.3 142c0-6.7-5.4-12.1-12.1-12.1-.8 0-1.4.1-2.2.2-1.6-1.9-4.1-3.1-6.8-3.1-1.6 0-3.1.4-4.4 1.2-1.9-2.5-4.9-4.2-8.3-4.2-5.6 0-10.1 4.3-10.4 9.8-5.6.1-10 4.6-10 10.2s4.6 10.2 10.2 10.2h33.5v-.2c5.8-.9 10.5-5.9 10.5-12zm658.6 22.6c0-6.7-5.4-12.1-12.1-12.1-.8 0-1.4.1-2.2.2-1.6-1.9-4.1-3.1-6.8-3.1-1.6 0-3.1.4-4.4 1.2-1.9-2.5-4.9-4.2-8.3-4.2-5.6 0-10.1 4.3-10.4 9.8-5.6.1-10 4.6-10 10.2s4.6 10.2 10.2 10.2h33.5v-.1c5.9-.8 10.5-5.9 10.5-12.1z"/><path fill="none" stroke="#004261" stroke-width="2.835" stroke-linecap="round" stroke-linejoin="round" stroke-miterlimit="10" stroke-dasharray="0,5.6693" d="M866.3 189.2l-14.6 18.7m24.7-20.4l-14.6 18.7m22-17l-14.7 18.7m26-20.4l-14.7 18.7m18.7-15.8L884.4 209m-677.5-42.5l-14.6 18.6m24.7-20.2l-14.6 18.6m22-17l-14.7 18.6m26-20.2l-14.6 18.6m18.6-15.7L225 186.4"/><path fill="#F9CA03" d="M287.6 398.7c0-.6.4-1 1-1s1 .4 1 1c0 .5-.4 1-1 1s-1-.4-1-1zm0-3c0-.6.4-1 1-1s1 .4 1 1c0 .5-.4 1-1 1s-1-.4-1-1zm0-3c0-.6.4-1 1-1s1 .4 1 1c0 .5-.4 1-1 1s-1-.4-1-1zm0-3c0-.6.4-1 1-1s1 .4 1 1c0 .5-.4 1-1 1s-1-.4-1-1zm0-3c0-.6.4-1 1-1s1 .4 1 1c0 .5-.4 1-1 1s-1-.4-1-1zm0-3c0-.6.4-1 1-1s1 .4 1 1c0 .5-.4 1-1 1s-1-.4-1-1zm0-3c0-.6.4-1 1-1s1 .4 1 1c0 .5-.4 1-1 1s-1-.4-1-1zm0-3c0-.6.4-1 1-1s1 .4 1 1c0 .5-.4 1-1 1s-1-.4-1-1zm0-3c0-.6.4-1 1-1s1 .4 1 1c0 .5-.4 1-1 1s-1-.4-1-1zm0-3c0-.6.4-1 1-1s1 .4 1 1c0 .5-.4 1-1 1s-1-.4-1-1zm0-3c0-.6.4-1 1-1s1 .4 1 1c0 .5-.4 1-1 1s-1-.4-1-1zm0-3c0-.6.4-1 1-1s1 .4 1 1c0 .5-.4 1-1 1s-1-.4-1-1zm0-3c0-.6.4-1 1-1s1 .4 1 1c0 .5-.4 1-1 1s-1-.4-1-1zm0-3c0-.6.4-1 1-1s1 .4 1 1c0 .5-.4 1-1 1s-1-.4-1-1zm0-3c0-.6.4-1 1-1s1 .4 1 1c0 .5-.4 1-1 1s-1-.4-1-1zm0-3c0-.6.4-1 1-1s1 .4 1 1c0 .5-.4 1-1 1s-1-.4-1-1zm0-3c0-.6.4-1 1-1s1 .4 1 1c0 .5-.4 1-1 1s-1-.4-1-1zm0-3c0-.6.4-1 1-1s1 .4 1 1c0 .5-.4 1-1 1s-1-.4-1-1zm0-3c0-.6.4-1 1-1s1 .4 1 1c0 .5-.4 1-1 1s-1-.4-1-1zm0-3c0-.6.4-1 1-1s1 .4 1 1c0 .5-.4 1-1 1s-1-.4-1-1zm0-3c0-.6.4-1 1-1s1 .4 1 1c0 .5-.4 1-1 1s-1-.4-1-1zm0-3c0-.6.4-1 1-1s1 .4 1 1c0 .5-.4 1-1 1s-1-.4-1-1zm0-3c0-.6.4-1 1-1s1 .4 1 1c0 .5-.4 1-1 1s-1-.4-1-1zm0-3c0-.6.4-1 1-1s1 .4 1 1c0 .5-.4 1-1 1s-1-.4-1-1zm0-3c0-.6.4-1 1-1s1 .4 1 1c0 .5-.4 1-1 1s-1-.4-1-1zm0-3c0-.6.4-1 1-1s1 .4 1 1c0 .5-.4 1-1 1s-1-.4-1-1zm0-3c0-.6.4-1 1-1s1 .4 1 1c0 .5-.4 1-1 1s-1-.4-1-1zm0-3c0-.6.4-1 1-1s1 .4 1 1c0 .5-.4 1-1 1s-1-.4-1-1zm0-3c0-.6.4-1 1-1s1 .4 1 1c0 .5-.4 1-1 1s-1-.4-1-1zm0-3c0-.6.4-1 1-1s1 .4 1 1c0 .5-.4 1-1 1s-1-.4-1-1zm0-3c0-.6.4-1 1-1s1 .4 1 1c0 .5-.4 1-1 1s-1-.4-1-1zm0-3c0-.6.4-1 1-1s1 .4 1 1c0 .5-.4 1-1 1s-1-.4-1-1zm0-3c0-.6.4-1 1-1s1 .4 1 1c0 .5-.4 1-1 1s-1-.4-1-1zm0-3c0-.6.4-1 1-1s1 .4 1 1c0 .5-.4 1-1 1s-1-.4-1-1zm0-3c0-.6.4-1 1-1s1 .4 1 1c0 .5-.4 1-1 1s-1-.4-1-1zm0-3c0-.6.4-1 1-1s1 .4 1 1c0 .5-.4 1-1 1s-1-.4-1-1zm0-3c0-.6.4-1 1-1s1 .4 1 1c0 .5-.4 1-1 1s-1-.4-1-1zm0-3c0-.6.4-1 1-1s1 .4 1 1c0 .5-.4 1-1 1s-1-.4-1-1zm0-3c0-.6.4-1 1-1s1 .4 1 1c0 .5-.4 1-1 1s-1-.4-1-1zm0-3c0-.6.4-1 1-1s1 .4 1 1c0 .5-.4 1-1 1s-1-.4-1-1zm0-3c0-.6.4-1 1-1s1 .4 1 1c0 .5-.4 1-1 1s-1-.4-1-1zm0-3c0-.6.4-1 1-1s1 .4 1 1c0 .5-.4 1-1 1s-1-.4-1-1zm0-3c0-.6.4-1 1-1s1 .4 1 1c0 .5-.4 1-1 1s-1-.4-1-1zm0-3c0-.6.4-1 1-1s1 .4 1 1c0 .5-.4 1-1 1s-1-.4-1-1zm0-3c0-.6.4-1 1-1s1 .4 1 1c0 .5-.4 1-1 1s-1-.4-1-1zm0-3c0-.6.4-1 1-1s1 .4 1 1c0 .5-.4 1-1 1s-1-.4-1-1zm0-3c0-.6.4-1 1-1s1 .4 1 1c0 .5-.4 1-1 1s-1-.4-1-1zm0-3c0-.6.4-1 1-1s1 .4 1 1c0 .5-.4 1-1 1s-1-.4-1-1zm0-3c0-.6.4-1 1-1s1 .4 1 1c0 .5-.4 1-1 1s-1-.4-1-1zm0-3c0-.6.4-1 1-1s1 .4 1 1c0 .5-.4 1-1 1s-1-.4-1-1zm0-3c0-.6.4-1 1-1s1 .4 1 1c0 .5-.4 1-1 1s-1-.4-1-1zm0-3c0-.6.4-1 1-1s1 .4 1 1c0 .5-.4 1-1 1s-1-.4-1-1zm0-3c0-.6.4-1 1-1s1 .4 1 1c0 .5-.4 1-1 1s-1-.4-1-1zm0-3c0-.6.4-1 1-1s1 .4 1 1c0 .5-.4 1-1 1s-1-.4-1-1zm0-3c0-.6.4-1 1-1s1 .4 1 1c0 .5-.4 1-1 1s-1-.4-1-1zm0-3c0-.6.4-1 1-1s1 .4 1 1c0 .5-.4 1-1 1s-1-.4-1-1zm0-3c0-.6.4-1 1-1s1 .4 1 1c0 .5-.4 1-1 1s-1-.4-1-1zm0-3c0-.6.4-1 1-1s1 .4 1 1c0 .5-.4 1-1 1s-1-.4-1-1zm0-3c0-.6.4-1 1-1s1 .4 1 1c0 .5-.4 1-1 1s-1-.4-1-1zm0-3c0-.6.4-1 1-1s1 .4 1 1c0 .5-.4 1-1 1s-1-.4-1-1zm0-3c0-.6.4-1 1-1s1 .4 1 1c0 .5-.4 1-1 1s-1-.4-1-1zm0-3c0-.6.4-1 1-1s1 .4 1 1c0 .5-.4 1-1 1s-1-.4-1-1zm168.8-2.1c0-.6.5-1 1-1 .6 0 1 .4 1 1s-.4 1-1 1c-.5 0-1-.5-1-1zm-3 0c0-.6.5-1 1-1 .6 0 1 .4 1 1s-.4 1-1 1c-.5 0-1-.5-1-1zm-3 0c0-.6.5-1 1-1 .6 0 1 .4 1 1s-.4 1-1 1c-.5 0-1-.5-1-1zm-3 0c0-.6.5-1 1-1 .6 0 1 .4 1 1s-.4 1-1 1c-.5 0-1-.5-1-1zm-3 0c0-.6.5-1 1-1 .6 0 1 .4 1 1s-.4 1-1 1c-.5 0-1-.5-1-1zm-3 0c0-.6.5-1 1-1 .6 0 1 .4 1 1s-.4 1-1 1c-.5 0-1-.5-1-1zm-3 0c0-.6.5-1 1-1 .6 0 1 .4 1 1s-.4 1-1 1c-.5 0-1-.5-1-1zm-3 0c0-.6.5-1 1-1 .6 0 1 .4 1 1s-.4 1-1 1c-.5 0-1-.5-1-1zm-3 0c0-.6.5-1 1-1 .6 0 1 .4 1 1s-.4 1-1 1c-.5 0-1-.5-1-1zm-3 0c0-.6.5-1 1-1 .6 0 1 .4 1 1s-.4 1-1 1c-.5 0-1-.5-1-1zm-3 0c0-.6.5-1 1-1 .6 0 1 .4 1 1s-.4 1-1 1c-.5 0-1-.5-1-1zm-3 0c0-.6.5-1 1-1 .6 0 1 .4 1 1s-.4 1-1 1c-.5 0-1-.5-1-1zm-3 0c0-.6.5-1 1-1 .6 0 1 .4 1 1s-.4 1-1 1c-.5 0-1-.5-1-1zm-3 0c0-.6.5-1 1-1 .6 0 1 .4 1 1s-.4 1-1 1c-.5 0-1-.5-1-1zm-3 0c0-.6.5-1 1-1 .6 0 1 .4 1 1s-.4 1-1 1c-.5 0-1-.5-1-1zm-3 0c0-.6.5-1 1-1 .6 0 1 .4 1 1s-.4 1-1 1c-.5 0-1-.5-1-1zm-3 0c0-.6.5-1 1-1 .6 0 1 .4 1 1s-.4 1-1 1c-.5 0-1-.5-1-1zm-3 0c0-.6.5-1 1-1 .6 0 1 .4 1 1s-.4 1-1 1c-.5 0-1-.5-1-1zm-3 0c0-.6.5-1 1-1 .6 0 1 .4 1 1s-.4 1-1 1c-.5 0-1-.5-1-1zm-3 0c0-.6.5-1 1-1 .6 0 1 .4 1 1s-.4 1-1 1c-.5 0-1-.5-1-1zm-3 0c0-.6.5-1 1-1 .6 0 1 .4 1 1s-.4 1-1 1c-.5 0-1-.5-1-1zm-3 0c0-.6.5-1 1-1 .6 0 1 .4 1 1s-.4 1-1 1c-.5 0-1-.5-1-1zm-3 0c0-.6.5-1 1-1 .6 0 1 .4 1 1s-.4 1-1 1c-.5 0-1-.5-1-1zm-3 0c0-.6.5-1 1-1 .6 0 1 .4 1 1s-.4 1-1 1c-.5 0-1-.5-1-1zm-3 0c0-.6.5-1 1-1 .6 0 1 .4 1 1s-.4 1-1 1c-.5 0-1-.5-1-1zm-3 0c0-.6.5-1 1-1 .6 0 1 .4 1 1s-.4 1-1 1c-.5 0-1-.5-1-1zm-3 0c0-.6.5-1 1-1 .6 0 1 .4 1 1s-.4 1-1 1c-.5 0-1-.5-1-1zm-3 0c0-.6.5-1 1-1 .6 0 1 .4 1 1s-.4 1-1 1c-.5 0-1-.5-1-1zm-3 0c0-.6.5-1 1-1 .6 0 1 .4 1 1s-.4 1-1 1c-.5 0-1-.5-1-1zm-3 0c0-.6.5-1 1-1 .6 0 1 .4 1 1s-.4 1-1 1c-.5 0-1-.5-1-1zm-3 0c0-.6.5-1 1-1 .6 0 1 .4 1 1s-.4 1-1 1c-.5 0-1-.5-1-1zm-3 0c0-.6.5-1 1-1 .6 0 1 .4 1 1s-.4 1-1 1c-.5 0-1-.5-1-1zm-3 0c0-.6.5-1 1-1 .6 0 1 .4 1 1s-.4 1-1 1c-.5 0-1-.5-1-1zm-3 0c0-.6.5-1 1-1 .6 0 1 .4 1 1s-.4 1-1 1c-.5 0-1-.5-1-1zm-3 0c0-.6.5-1 1-1 .6 0 1 .4 1 1s-.4 1-1 1c-.5 0-1-.5-1-1zm-3 0c0-.6.5-1 1-1 .6 0 1 .4 1 1s-.4 1-1 1c-.5 0-1-.5-1-1zm-3 0c0-.6.5-1 1-1 .6 0 1 .4 1 1s-.4 1-1 1c-.5 0-1-.5-1-1zm-3 0c0-.6.5-1 1-1 .6 0 1 .4 1 1s-.4 1-1 1c-.5 0-1-.5-1-1zm-3 0c0-.6.5-1 1-1 .6 0 1 .4 1 1s-.4 1-1 1c-.5 0-1-.5-1-1zm-3 0c0-.6.5-1 1-1 .6 0 1 .4 1 1s-.4 1-1 1c-.5 0-1-.5-1-1zm-3 0c0-.6.5-1 1-1 .6 0 1 .4 1 1s-.4 1-1 1c-.5 0-1-.5-1-1zm-3 0c0-.6.5-1 1-1 .6 0 1 .4 1 1s-.4 1-1 1c-.5 0-1-.5-1-1zm-3 0c0-.6.5-1 1-1 .6 0 1 .4 1 1s-.4 1-1 1c-.5 0-1-.5-1-1zm-3 0c0-.6.5-1 1-1 .6 0 1 .4 1 1s-.4 1-1 1c-.5 0-1-.5-1-1zm-3 0c0-.6.5-1 1-1 .6 0 1 .4 1 1s-.4 1-1 1c-.5 0-1-.5-1-1zm-3 0c0-.6.5-1 1-1 .6 0 1 .4 1 1s-.4 1-1 1c-.5 0-1-.5-1-1zm-3 0c0-.6.5-1 1-1 .6 0 1 .4 1 1s-.4 1-1 1c-.5 0-1-.5-1-1zm-3 0c0-.6.5-1 1-1 .6 0 1 .4 1 1s-.4 1-1 1c-.5 0-1-.5-1-1zm-3 0c0-.6.5-1 1-1 .6 0 1 .4 1 1s-.4 1-1 1c-.5 0-1-.5-1-1zm-3 0c0-.6.5-1 1-1 .6 0 1 .4 1 1s-.4 1-1 1c-.5 0-1-.5-1-1zm-3 0c0-.6.5-1 1-1 .6 0 1 .4 1 1s-.4 1-1 1c-.5 0-1-.5-1-1zm-3 0c0-.6.5-1 1-1 .6 0 1 .4 1 1s-.4 1-1 1c-.5 0-1-.5-1-1zm-3 0c0-.6.5-1 1-1 .6 0 1 .4 1 1s-.4 1-1 1c-.5 0-1-.5-1-1zm-3 0c0-.6.5-1 1-1 .6 0 1 .4 1 1s-.4 1-1 1c-.5 0-1-.5-1-1zm-3 0c0-.6.5-1 1-1 .6 0 1 .4 1 1s-.4 1-1 1c-.5 0-1-.5-1-1zm-3 0c0-.6.5-1 1-1 .6 0 1 .4 1 1s-.4 1-1 1c-.5 0-1-.5-1-1zm-3 0c0-.6.5-1 1-1 .6 0 1 .4 1 1s-.4 1-1 1c-.5 0-1-.5-1-1z"/><path fill="none" stroke="#000" stroke-linecap="round" stroke-linejoin="round" d="M219.1 289.8c-.6-.8.6-2.9.9-3.4.6-1.1 1.3-2.2 2-3.1.8-1 1.5-1.9 2.4-2.8.4-.4.9-.9 1.4-1.3.3-.2 1.2-1 1.6-.6m-20.6-8.3c.2 7.7 13.9 7.7 14 0m-57.4 84.1c-.1 7.7-13.8 7.7-14 0m20.7 8.1c-.4-.3-1.4.4-1.6.6-.5.4-1 .9-1.4 1.3-.9.9-1.6 1.8-2.4 2.8s-1.4 2-2 3.1c-.3.5-1.5 2.6-1 3.4m719-62.4c-.6-.8.6-2.9.9-3.4.6-1.1 1.3-2.2 2-3.1s1.5-1.9 2.4-2.8c.4-.4.9-.9 1.4-1.3.3-.2 1.2-1 1.6-.6m-20.8-8.3c.2 7.7 13.9 7.7 14 0m-117.9 89.4c-.1 7.7-13.8 7.7-14 0m20.7 8.2c-.4-.3-1.4.4-1.6.6-.5.4-1 .9-1.4 1.3-.9.9-1.6 1.8-2.4 2.8s-1.4 2-2 3.1c-.3.5-1.5 2.6-1 3.4"/><path fill="none" stroke="#F05A22" stroke-width=".992" stroke-linecap="round" stroke-linejoin="round" d="M397.9 511.8l-16.9-11"/><path fill="#F05A22" d="M397.8 508.1l8.1 8.9-11.4-3.8"/><path fill="none" stroke="#204E65" stroke-width=".992" stroke-linecap="round" stroke-linejoin="round" d="M405.9 315.9l32.3-34.9"/><path fill="#204E65" d="M409.6 316.5l-10.1 6.3 5.6-10.5"/><path fill="none" stroke="#F05A22" stroke-linecap="round" stroke-linejoin="round" d="M156.3 212.6V190"/><path fill="#F05A22" d="M159.6 210.4l-3.1 11.6-3.2-11.6"/><path fill="none" stroke="#204E65" stroke-linecap="round" stroke-linejoin="round" d="M213.7 217.9v-21.3"/><path fill="#204E65" d="M216.9 215.7l-3.1 11.7-3.1-11.7"/><path fill="none" stroke="#204E65" stroke-width=".992" stroke-linecap="round" stroke-linejoin="round" d="M175.1 566l-30.4 32.9"/><path fill="#204E65" d="M144 595.3l-5.6 10.6 10.1-6.5"/><path fill="none" stroke="#F05A22" stroke-width="1.417" stroke-linejoin="round" d="M292 429.1l22.3 15.1c1.4 1 2.6 3.1 2.6 4.7l.1 5.6"/><circle fill="#F05A22" cx="292.1" cy="429.1" r="1.7"/><path fill="#F05A22" d="M314.8 453.1l2.4 8.2 2-8.3"/><path fill="none" stroke="#204E65" stroke-width="1.417" stroke-linecap="round" stroke-linejoin="round" stroke-dasharray="0,2.8347" d="M213.7 242.7v27.2c0 5.1 3.3 11.5 7.4 14.5l126.1 91.1"/><path fill="none" stroke="#F05A22" stroke-width="1.417" stroke-linecap="round" stroke-linejoin="round" stroke-dasharray="0,2.8347" d="M156.3 240.2V353c0 5.1 3.3 11.5 7.4 14.5L273 446.2"/><path fill="none" stroke="#204E65" stroke-width="1.417" stroke-linecap="round" stroke-linejoin="round" stroke-dasharray="0,2.8347" d="M398.5 322.8L174.1 566"/><path fill="none" stroke="#F05A22" stroke-width=".992" stroke-linecap="round" stroke-linejoin="round" d="M397.4 313.7l32.3-34.9"/><path fill="#F05A22" d="M401.1 314.2l-10.1 6.5 5.6-10.6"/><path fill="none" stroke="#F05A22" stroke-width=".992" stroke-linecap="round" stroke-linejoin="round" d="M166.7 563.9l-30.4 32.9"/><path fill="#F05A22" d="M135.5 593.1l-5.6 10.5 10.1-6.3"/><path fill="none" stroke="#F05A22" stroke-width="1.417" stroke-linecap="round" stroke-linejoin="round" stroke-dasharray="0,2.8347" d="M390 320.7L165.6 563.9m215.4-63l-64.5-39.6"/><path fill="none" stroke="#004261" stroke-width=".992" stroke-linecap="round" stroke-linejoin="round" d="M1078.6 511.6l-16.9-11"/><path fill="#004261" d="M1078.5 507.9l8.1 8.8-11.4-3.7"/><path fill="none" stroke="#204E65" stroke-width="1.417" stroke-linecap="round" stroke-linejoin="round" stroke-dasharray="0,2.8347" d="M1061.7 501.3l-94.4-57.6"/><path fill="none" stroke="#204E65" stroke-width=".992" stroke-linecap="round" stroke-linejoin="round" d="M1086.7 315.2l32.1-34.9"/><path fill="#204E65" d="M1090.3 315.7l-10.1 6.3 5.6-10.5"/><path fill="none" stroke="#F05A22" stroke-linecap="round" stroke-linejoin="round" d="M757.4 240.1v-25.8"/><path fill="#F05A22" d="M760.5 238l-3.1 11.7-3.1-11.7"/><path fill="none" stroke="#204E65" stroke-linecap="round" stroke-linejoin="round" d="M875.2 240.1v-24.5"/><path fill="#204E65" d="M878.3 238l-3.1 11.7-3.1-11.7"/><path fill="none" stroke="#204E65" stroke-width=".992" stroke-linecap="round" stroke-linejoin="round" d="M849.4 572.2l-30.3 32.9"/><path fill="#204E65" d="M845.7 571.7l10.1-6.5-5.6 10.6"/><path fill="none" stroke="#204E65" stroke-width="1.417" stroke-linecap="round" stroke-linejoin="round" stroke-dasharray="0,2.8347" d="M935.3 342l73.4 54.9M875.2 264.2v25.2c0 5.1 3.2 11.6 7.2 14.7l33.4 25.6"/><path fill="none" stroke="#F05A22" stroke-width="1.417" stroke-linecap="round" stroke-linejoin="round" stroke-dasharray="0,2.8347" d="M757.4 267.1v112.8c0 5.1 3.3 11.5 7.4 14.4l66.4 47.1"/><path fill="none" stroke="#204E65" stroke-width="1.417" stroke-linecap="round" stroke-linejoin="round" stroke-dasharray="0,2.8347" d="M1079.2 322L854.8 565.3"/><path fill="none" stroke="#F05A22" stroke-width=".992" stroke-linecap="round" stroke-linejoin="round" d="M1002.3 254.6l8-8.6"/><path fill="#F05A22" d="M1006 255.2l-10.1 6.5 5.5-10.6"/><path fill="none" stroke="#F05A22" stroke-width=".992" stroke-linecap="round" stroke-linejoin="round" d="M757.8 519.1l-15.5 16.7"/><path fill="#F05A22" d="M741.4 532.1l-5.5 10.6 10.1-6.5"/><path fill="none" stroke="#F05A22" stroke-width="1.417" stroke-linecap="round" stroke-linejoin="round" stroke-dasharray="0,2.8347" d="M1032.1 221.4L757.8 519.1"/><ellipse fill="#F9CA03" cx="282.6" cy="397.1" rx="13.5" ry="11"/><path opacity=".4" fill="#F05A22" d="M320.8 479.8l-23.1-14.9 23.9-25.9 23.7 14.3M283.4 410c-.6.1-1.3.1-1.9.1-3.9 0-7.4-1.7-9.9-4.3l-24.7 27 40.7 25.1 27-29.4-31.2-18.5zm100.8 87.8c24 1.7 13.4 5.3 34.7 7.6 21.3 2.4 68.3-25.5 85-11.4 16.8 14.1-10.2 38.7-30.8 50.3-20.5 11.6-55.3 45-68.9 43.4-13.7-1.7-3.3-22.6-5.7-42.1-2.4-19.6-5.1-22-8.5-28.8-3.4-6.7-9.5-10.6-11.9-12.4"/><path fill="#004261" fill-opacity=".2" stroke="#004261" stroke-width=".709" stroke-miterlimit="10" d="M423.8 622.3l137.5-148.9-112.9-72-137.4 149 32.4 59.9 80.4 12z"/><path opacity=".4" fill="#004261" d="M1064.9 494.8c24 1.7 13.4 5.3 34.7 7.6 21.3 2.4 68.3-25.5 85-11.4s-20.2 46.4-40.7 58.1c-20.5 11.6-45.3 37.3-58.9 35.6-13.7-1.7-3.3-22.6-5.7-42.1-2.4-19.6-5.1-22-8.5-28.8-3.4-6.7-9.5-10.6-11.9-12.4"/><path fill="#004261" fill-opacity=".2" stroke="#004261" stroke-width=".709" stroke-miterlimit="10" d="M1104.2 621.6l137.5-148.9-112.9-72-137.4 149 32.4 59.9 80.4 12z"/><path opacity=".4" fill="#004261" d="M964.1 409.4c-.6.1-1.3.1-1.9.1-3.9 0-7.4-1.7-9.9-4.3l-24.7 27 74.4 46.6 27-29.4-64.9-40z"/><path fill="none" stroke="#000" stroke-linecap="round" stroke-linejoin="round" d="M307.8 471.5l13.8-14.9M278.5 476c2.5-2.7.1-7.5-1.2-9.9-1.8-3.1-4.1-5.7-6.7-8.2-2.6-2.5-5.4-4.4-8.6-6-2.4-1.2-7.4-3-9.9-.4m26.4 24.5l-97.2 105.3m87.1-182.7v-.9M296 394c6.9 6.3 14.1 12.1 21.7 17.4m-98.5-169.7c-2.4 2.5-6.5 2.9-9.4 1.4-3.2-1.7-4.4-5.6-1.8-8.5m.2 0c2.4-2.5 6.5-2.9 9.4-1.4 3.2 1.7 4.4 5.6 1.8 8.5"/><path fill="none" stroke="#000" stroke-linecap="round" stroke-linejoin="round" d="M217.9 240.9c-1.8 1.8-4.7 2.3-7 1-2.5-1.3-3.3-4.2-1.3-6.3"/><path fill="none" stroke="#000" stroke-linecap="round" stroke-linejoin="round" d="M209.6 235.6c1.8-1.8 4.7-2.3 7-1 2.5 1.3 3.3 4.2 1.3 6.3M304 439.5c0-4.3-4.7-9.4-7.5-11.7-1.8-1.5-3.8-2.8-6-3.8-1.7-.6-5.3-1.6-6.5.6-2.2 4 3.5 10.1 5.8 12.3 2.3 2.2 8.7 7.1 12.6 5.4m1.3-1.6c.1-.4.2-.9.2-1.3m101.2-102.7c0-5.8-6.3-12.8-10.1-16-2.5-2.2-5.2-3.9-8.2-5.3-2.3-1-6.9-2.5-9.1 0m26.5 24.4c.8-1 1.1-1.8 1.1-3.1"/><path fill="none" stroke="#000" stroke-linecap="round" stroke-linejoin="round" d="M299.2 445.7c-5.7-2-9.8-5.4-13.8-9.8-1.9-2.2-3.5-4.4-4.7-7-1-2.2-2.3-5.8-.2-8.1 2-2.3 5.9-1.2 8.1-.4 2.7 1 5.1 2.5 7.4 4.2 4.7 3.5 8.5 7.3 10.9 12.9M178.3 575.7c0 3.3-3.1 3.5-5.7 2.8-2.5-.8-4.6-2-6.7-3.5-3-2.4-8.2-7.7-8.2-12.3 0-3.3 3.1-3.5 5.7-2.8 2.6.8 4.6 2 6.7 3.5 3 2.3 8.2 7.8 8.2 12.3z"/><path fill="none" stroke="#000" stroke-linecap="round" stroke-linejoin="round" d="M182.4 578.3c0-6.3-7.3-13.9-11.4-17.1-2.8-2.3-5.7-4-9.2-5.1-3.5-1.1-7.8-.8-7.8 3.9 0 6.3 7.3 13.9 11.4 17.1 2.8 2.3 5.7 4 9.2 5.1 3.4 1 7.8.7 7.8-3.9zm265.7-130.1c-45.7 47.7-94.5 92.1-137.5 142.7m112.9 94.9l-112.9-71.9m0-23.1c0 8.7 18.7 22.8 23.7 26.7 9.7 7.4 19.7 14.3 29.7 21.2 20 13.8 40.3 27.1 59.6 42m137.3-143.8L423.5 685.8m0 0v-5.1m0 0C466.7 626.6 517 579.1 561 525.8m-.1 11.1v-11.1m0 0c-18.3-14.2-38.3-25.2-57.8-37.1-9.8-6-19.5-12.1-28.8-18.7-4.7-3.2-9.4-6.6-13.9-10.1-3.1-2.4-6.1-4.7-8.9-7.4-.9-.9-3.3-2.7-3.3-4.3m-.1 0v-61.1m0 0l-137.5 149m0 54.7v-54.7m75.5-37.9c.2-1.4-.5-2.5-1.9-1.7-1.1.6-1.8 1.5-2.7 2.4-1.6 1.9-2.8 3.8-3.2 6.3-.2 1.4.5 2.5 1.9 1.7 1.1-.6 1.8-1.5 2.7-2.5 1.6-1.7 2.8-3.7 3.2-6.2zm62-111.1l-5.6-3.5m0-.1l-137.4 149m5.5 3.6l-5.5-3.5m0 0v77.7m0 0l5.5 3.5"/><path fill="none" stroke="#000" stroke-linecap="round" stroke-linejoin="round" d="M384.9 499.3c-.4 1.7-1.1 3.1-2.3 4.4-1.1 1.4-3.8 2.9-3.1.5.4-1.7 1.1-3.1 2.3-4.4 1.1-1.3 3.5-2.9 3.1-.5zM170.1 362.5l74.5 54.8m-8.8 10.9l-74-54.4m.1-133.6c2.7-2.9 1.5-6.7-1.8-8.5-2.9-1.5-7-1.2-9.4 1.4"/><path fill="none" stroke="#000" stroke-linecap="round" stroke-linejoin="round" d="M150.8 233.1c-2.6 2.9-1.5 6.7 1.8 8.5 2.9 1.5 7 1.2 9.4-1.4"/><path fill="none" stroke="#000" stroke-linecap="round" stroke-linejoin="round" d="M160.5 239.4c1.9-2.2 1.1-5.1-1.3-6.3-2.3-1.2-5.2-.9-7 1m0-.1c-1.9 2.2-1.1 5.1 1.3 6.3 2.3 1.2 5.2.9 7-1M293.4 404c1.5-1.6 2.4-3.2 2.8-5.4m-27.8-.5c1.6 11.3 17.7 13.9 25.1 5.9"/><path fill="none" stroke="#000" stroke-linecap="round" stroke-linejoin="round" d="M293.4 403.5c5.3-5.7 3-13.4-3.5-16.9-5.8-3.1-14-2.3-18.6 2.7-5.3 5.7-3 13.4 3.5 16.9 5.8 3.3 14 2.4 18.6-2.7z"/><path fill="#F9CA03" stroke="#000" stroke-linecap="round" stroke-linejoin="round" d="M269.2 394.9c2.8-12.5 24-12 26.2.5"/><path fill="none" stroke="#000" stroke-linecap="round" stroke-linejoin="round" d="M292.9 403.2c-4.4 4.7-12.1 5.5-17.7 2.6-6.2-3.3-8.4-10.6-3.3-16 4.4-4.7 12.1-5.5 17.7-2.6 6.1 3.3 8.2 10.6 3.3 16zm-24.5-4.6c-11.3 11.4-23.2 22-35.1 32.6m0 0l10.2-1.5m0 0c8.6-9.1 17.2-18.3 25.3-27.8m57 15.1c-10.2-6.8-20.4-13.5-29.7-21.7m-20.2-10.2l-2 2.3m-4.6 4.6l-14.7 16.1m0 .1l-21.3 23m35.6-29l-7 7.5m52.3 7.1l-19.7-12.5m-17.3-18.6l-1.3-.6m-7.3 9.1l-14 14m38.8-2.5c2-2 2.9-4.2 2.9-7.1"/><path fill="none" stroke="#000" stroke-linecap="round" stroke-linejoin="round" d="M268.4 398.6c0 5.9 4.9 10 10.1 11.2 5.2 1.3 11.3 0 15.1-4.1m41 59.1l-13-8.3m-39.5-25.2l-4.9-3.1m0 0l-13.8 14.9m-30.1 27l1.1.6m30.7 19.7l49.7 31.7m7.3-7.9V488m-88.8-56.8l88.8 56.8m-88.8-17.9v-38.9M364.7 468v-26.2m-42.6 46.1l42.6-46.2m-18 29.8c-1-.5-2.5 1-3 1.5-.9.9-1.5 1.8-2.2 2.8-.8 1.2-3.2 4.9-1.7 6.6m-62.6-54.2v-18.7m-34.1 20.6l.4-.4m73-11.3l38.4 24.4m0 0l-34.1 37m0 0l-77.7-49.7m78.5 26.5V431M293 462l28.6-31.1m0 .1l-5.6-3.5m0-.1l-28.6 31.1M270 392.8c-.1.3-.3.6-.4 1.1m-.2.1c-.1.3-.2.6-.2 1M219 289.7c-5.3-4-11.8-11.2-12.3-18.6m14-.7c.8 2.8 4.4 6.3 6.6 8m-20.5-8.1v-31.4m13.9-.3v31.7m105.9 98.9l-107.5-79.5m8.3-11.2l108.8 80.3M301 398.5l76.7-83.1m26.5 24.4l-73.9 80M154.8 557L252 451.6m94.7 19.9l9.2 5.9m-8.7 9.6l-7.3-4.6M161.7 373.7c-5.3-4-11.8-11.2-12.3-18.6m14-.6c.8 2.8 4.4 6.3 6.6 8m-20.6-8.1v-117m14-.3v117.3m132.9 43.3v.9"/><g fill="#F05A22"><path d="M163 159.8h-16.1v-2.7H163v2.7zm-15.6-.5h15.1v-1.6h-15.1v1.6z"/><path d="M161.6 157.7h-13.2l.6-9.5.5.1-.6 8.8H161l-.6-8.8.5-.1"/><path d="M154.9 149.8c-6.9 0-12.4-4.8-12.4-10.8v-.3h24.7v.2c.1 6.1-5.4 10.9-12.3 10.9zM143 139.3c.2 5.5 5.5 9.9 11.8 9.9 6.5 0 11.7-4.4 11.8-10l-23.6.1z"/><path d="M168.4 139.4h-26.8v-3.2h26.8v3.2zm-26.4-.6h25.7v-2.2H142v2.2z"/><path d="M165 136.7h-20.1l-2.4-15.1h24.9l-2.4 15.1zm-19.7-.5h19.2l2.3-14H143l2.3 14z"/><path d="M168.4 122.2h-26.8V119h26.8v3.2zm-26.4-.6h25.7v-2.2H142v2.2zm21.2 5.4c-.9 0-1.5-.6-1.5-1.5s.6-1.5 1.5-1.5 1.5.6 1.5 1.5c.1.8-.6 1.5-1.5 1.5zm0-2.6c-.5 0-1 .4-1 1s.4 1 1 1c.5 0 1-.4 1-1 .1-.5-.5-1-1-1z"/><path d="M168.1 119.3v2.7h-1l-2.4 14.5h3.3v2.7h-1c0 4-2.6 7.4-6.3 9.1l.5 9.1h1.4v2.2H147v-2.2h1.5l.5-9c-3.9-1.7-6.5-5.2-6.5-9.1h-1v-2.7h3.2l-2.4-14.5h-1v-2.7h26.4m1.4-1.2h-28.4v4.8h1.1l1.9 12.4h-3.1v4.8h1.1c.4 3.7 2.8 6.9 6.3 8.7l-.4 7.3H146v4.3h17.7v-4.3h-1.4l-.4-7.4c3.5-1.9 5.8-5.2 6.2-8.7h1.1v-4.8h-3.1l1.9-12.4h1.2v-4.7h-.1z"/></g><path fill="none" stroke="#000" stroke-linecap="round" stroke-linejoin="round" d="M353 434.3l11.7 7.4-38.9-24.7m778.4 263.4v-5.1m137.5-143.8v-11.1"/><g fill="#F05A22"><path d="M763.9 187.9h-16.1v-2.7h16.1v2.7zm-15.6-.6h15.1v-1.6h-15.1v1.6z"/><path d="M762.5 185.7h-13.2l.6-9.5h.5l-.5 8.9h12l-.5-8.9h.5"/><path d="M755.9 177.9c-6.9 0-12.4-4.8-12.4-10.8v-.2h24.7v.2c0 5.9-5.5 10.8-12.3 10.8zM744 167.3c.2 5.5 5.5 9.9 11.8 9.9 6.5 0 11.7-4.4 11.8-10l-23.6.1z"/><path d="M769.3 167.4h-26.8v-3.2h26.8v3.2zm-26.4-.5h25.8v-2.2H743v2.2h-.1z"/><path d="M766 164.8h-20.1l-2.4-15.1h24.9l-2.4 15.1zm-19.8-.6h19.2l2.3-14h-23.8l2.3 14z"/><path d="M769.3 150.2h-26.8V147h26.8v3.2zm-26.4-.5h25.8v-2.2h-25.8v2.2zm21.2 5.4c-.9 0-1.5-.6-1.5-1.5s.6-1.5 1.5-1.5 1.5.6 1.5 1.5c.1.7-.6 1.5-1.5 1.5zm0-2.6c-.5 0-1 .4-1 1 0 .5.4 1 1 1s1-.4 1-1c.1-.6-.3-1-1-1z"/><path d="M769 147.3v2.7h-1l-2.3 14.5h3.3v2.7h-1c0 4-2.6 7.4-6.3 9.1l.5 9.1h1.4v2.2H748v-2.2h1.5l.5-9c-3.9-1.7-6.5-5.2-6.5-9.1h-1v-2.8h3.2l-2.4-14.5h-1v-2.7H769m1-1h-28.4v4.8h1.1l1.9 12.4h-3.1v4.8h1.1c.4 3.7 2.8 6.9 6.3 8.7l-.4 7.3h-1.6v4.3h17.7v-4.3h-1.5l-.4-7.4c3.5-1.9 5.8-5.2 6.2-8.7h1.1v-4.7h-3.1l1.9-12.4h1.2v-4.8z"/></g><path fill="none" stroke="#000" stroke-linecap="round" stroke-linejoin="round" d="M959.2 475.3c2.5-2.7.1-7.5-1.2-9.9-1.8-3.1-4.1-5.7-6.7-8.2-2.6-2.5-5.4-4.4-8.6-6-2.4-1.2-7.4-3-9.9-.4m26.4 24.5L862 580.5m87.1-182.7v-.8m27.6-3.8c6.9 6.3 14.1 12.1 21.7 17.4M880.8 263.3c-2.4 2.5-6.5 2.9-9.4 1.4-3.2-1.7-4.4-5.6-1.8-8.5m.1 0c2.4-2.5 6.5-2.9 9.4-1.4 3.2 1.7 4.4 5.6 1.8 8.5"/><path fill="none" stroke="#000" stroke-linecap="round" stroke-linejoin="round" d="M879.4 262.4c-1.8 1.8-4.7 2.3-7 1-2.5-1.3-3.3-4.2-1.3-6.3"/><path fill="none" stroke="#000" stroke-linecap="round" stroke-linejoin="round" d="M871.1 257.1c1.8-1.8 4.7-2.3 7-1 2.5 1.3 3.3 4.2 1.3 6.3m105.2 176.3c0-4.3-4.7-9.4-7.5-11.7-1.8-1.5-3.8-2.8-6-3.8-1.7-.6-5.3-1.6-6.5.6-2.2 4 3.5 10.1 5.8 12.3 2.3 2.2 8.7 7.1 12.6 5.4m1.4-1.5c.1-.4.2-.9.2-1.3m101.3-102.8c0-5.8-6.3-12.8-10.1-16-2.5-2.2-5.2-3.9-8.2-5.3-2.3-1-6.9-2.5-9.1 0m26.4 24.4c.8-1 1.1-1.8 1.1-3.1"/><path fill="none" stroke="#000" stroke-linecap="round" stroke-linejoin="round" d="M987.6 436.7c-2.5-5.6-6.1-9.4-10.9-12.9-2.3-1.7-4.6-3.1-7.4-4.2-2.2-.8-6-1.8-8.1.4-2 2.3-.8 5.9.2 8.1 1.2 2.7 2.8 4.8 4.7 7 3.9 4.4 8.3 7.1 13.8 9.8 5.5 2.7 9.2-5.2 7.7-8.2zM859 574.9c0 3.3-3.1 3.5-5.7 2.8-2.5-.8-4.6-2-6.7-3.5-3-2.4-8.2-7.7-8.2-12.3 0-3.3 3.1-3.5 5.6-2.8 2.6.8 4.6 2 6.7 3.5 3.1 2.4 8.3 7.8 8.3 12.3z"/><path fill="none" stroke="#000" stroke-linecap="round" stroke-linejoin="round" d="M863 577.5c0-6.3-7.3-13.9-11.4-17.1-2.8-2.3-5.7-4-9.2-5.1-3.5-1.1-7.8-.8-7.8 3.9 0 6.3 7.3 13.9 11.4 17.1 2.8 2.3 5.7 4 9.2 5.1 3.5 1.1 7.8.7 7.8-3.9zm265.8-130.1c-45.7 47.7-94.5 92.1-137.5 142.7m112.9 94.9l-112.8-71.9m0-23c0 8.7 18.7 22.8 23.7 26.7 9.7 7.4 19.7 14.3 29.7 21.2 20 13.8 40.3 27.1 59.6 42m137.3-143.9L1104.2 685m0 0v-5m0 0c43.2-54.1 93.5-101.6 137.5-154.9M1241.7 525c-18.3-14.2-38.3-25.2-57.8-37.1-9.8-6-19.5-12.1-28.8-18.7-4.7-3.2-9.4-6.6-13.9-10.1-3.1-2.4-6.1-4.7-8.9-7.4-.9-.9-3.3-2.7-3.3-4.3m-.2 0v-61.1m0 0l-137.4 149m0 54.8v-54.7m75.4-37.9c.2-1.4-.5-2.5-1.9-1.7-1.1.6-1.8 1.5-2.7 2.4-1.6 1.9-2.8 3.8-3.2 6.3-.2 1.4.5 2.5 1.9 1.7 1.1-.6 1.8-1.5 2.7-2.4 1.6-1.9 2.8-3.8 3.2-6.3zm62-111.2l-5.5-3.5m0 0l-137.5 149m5.6 3.6l-5.6-3.5m0-.1v77.7m0 .1l5.6 3.5"/><path fill="none" stroke="#000" stroke-linecap="round" stroke-linejoin="round" d="M1065.6 498.6c-.4 1.7-1.1 3.1-2.3 4.4-1.1 1.4-3.8 2.9-3.1.5.4-1.7 1.1-3.1 2.3-4.4 1.1-1.4 3.5-2.9 3.1-.5zM771 389.4l54.5 39.6m-9.7 10.4l-53.1-38.7m.2-133.6c2.7-2.9 1.5-6.7-1.8-8.5-2.9-1.5-7-1.2-9.4 1.4"/><path fill="none" stroke="#000" stroke-linecap="round" stroke-linejoin="round" d="M751.8 260c-2.6 2.9-1.5 6.7 1.8 8.5 2.9 1.5 7 1.2 9.4-1.4"/><path fill="none" stroke="#000" stroke-linecap="round" stroke-linejoin="round" d="M761.5 266.2c1.9-2.2 1.1-5.1-1.3-6.3-2.3-1.2-5.2-.9-7 1m0 0c-1.9 2.2-1.1 5.1 1.3 6.3 2.3 1.2 5.2.9 7-1m212.6 137c1.5-1.6 2.4-3.2 2.8-5.4m-27.8-.5c1.6 11.3 17.7 13.9 25.1 5.9"/><path fill="none" stroke="#000" stroke-linecap="round" stroke-linejoin="round" d="M974.1 402.9c5.3-5.7 3-13.4-3.5-16.9-5.8-3.1-14-2.3-18.6 2.7-5.3 5.7-3 13.4 3.5 16.9 5.8 3.1 14 2.2 18.6-2.7z"/><path fill="none" stroke="#000" stroke-linecap="round" stroke-linejoin="round" d="M973.6 402.5c-4.4 4.7-12.1 5.5-17.7 2.6-6.2-3.3-8.4-10.6-3.3-16 4.4-4.7 12.1-5.5 17.7-2.6 6.1 3.3 8.2 10.6 3.3 16zm-24.5-4.7c-11.2 11.4-23.1 21.9-35.1 32.6m0 .1l10.2-1.6m0 0c8.6-9.1 17.2-18.3 25.3-27.8m57 15.1c-10.2-6.8-20.4-13.5-29.7-21.7m-20.2-10.2l-2 2.3m-4.6 4.8l-14.7 16m0 0L914 430.5m35.7-29.1l-7.1 7.5m52.3 7.2l-19.6-12.6M958 384.9l-1.4-.6m-7.3 9.1l-14 14m38.8-2.5c2-2 2.9-4.2 2.9-7.1"/><path fill="none" stroke="#000" stroke-linecap="round" stroke-linejoin="round" d="M949.1 397.8c0 5.9 4.9 10 10.1 11.2 5.2 1.3 11.3 0 15.1-4.1m-11.5 25.7l-4.9-3.2m56.6 37.5l-31.3-19.6m-25.3-17.9l-13.8 14.9m-30.1 27l1.1.6m30.7 19.8l49.7 31.7m7.3-8v-26.2M914 430.5l88.8 56.7M914 469.3v-38.8m131.4 36.8V441m-42.6 46.2l42.6-46.2m-18 29.7c-1-.5-2.5 1-3 1.5-.9.9-1.5 1.8-2.2 2.8-.8 1.2-3.2 4.9-1.7 6.6m-62.6-54.2v-18.7m-34.1 20.8l.4-.5m73-11.4l38.4 24.4m0 0l-34.1 37m0 0l-77.7-49.6m26.9-37.2c-.1.3-.3.6-.4 1.1m-.1-.1c-.1.3-.2.6-.2 1m-69.5-83c-5.3-4-11.8-11.2-12.3-18.6m14.1-.7c.8 2.8 4.4 6.3 6.6 8m-20.7-8.1v-31.3m14.1-.3v31.6m30.1 42.9l-31.7-23.4m107.5 79.5l-56.7-43.7m8.9-9.6l57.4 42.9M889 300l33.1 24.3m59.6 73.4l76.7-83.1m26.5 24.4l-73.9 80M835.5 556.2l97.2-105.4m-111.4 15.9l-57.8 62.6m237.9-258.5c0-3.4-3.8-7.6-6-9.6-1.5-1.3-3-2.4-4.8-3.1-1.4-.5-4.1-1.5-5.5 0M761.8 525.9c0 1.9-1.8 2.2-3.3 1.6-1.5-.4-2.7-1.2-4-2.2-1.8-1.4-4.8-4.6-4.8-7.3 0-1.9 1.8-2.2 3.3-1.6 1.5.4 2.7 1.2 4 2.2 1.6 1.4 4.8 4.6 4.8 7.3z"/><path fill="none" stroke="#000" stroke-linecap="round" stroke-linejoin="round" d="M764.1 527.4c0-3.8-4.3-8.2-6.8-10.1-1.7-1.3-3.4-2.4-5.5-3-2.2-.6-4.6-.4-4.6 2.4 0 3.8 4.3 8.2 6.8 10.1 1.7 1.3 3.4 2.4 5.5 3 2 .6 4.6.4 4.6-2.4zm41.4-75.3L985.1 258m16.4 13.8L822 465.9m-74.2 48.8l57.7-62.6m221.9 18.6l9.2 5.9m-8.7 9.6l-7.3-4.6m-258-81.1c-5.3-4-11.8-11.2-12.3-18.6m14-.6c.8 2.8 4.4 6.3 6.6 8m-20.5-8.1V264.3m13.9-.3v117.2M977 397.1v.9m56.7 35.5l11.7 7.4-38.9-24.7m-692.3.6c.9.5 1.6 1.1 2.5 1.5m678.2-2.2c.9.5 1.6 1.1 2.5 1.5"/><path d="M302.3 204.2c-1.5 1.4-3.3 2.2-5.5 2.2s-4-.7-5.5-2.2c-1.5-1.4-2.2-3.2-2.2-5.4 0-2.1.7-3.9 2.2-5.4 1.5-1.4 3.3-2.2 5.5-2.2s4 .7 5.5 2.2c1.5 1.4 2.2 3.2 2.2 5.4s-.8 4-2.2 5.4zm-1.1-5.4c0-1.3-.4-2.4-1.3-3.3-.8-.9-1.9-1.4-3.1-1.4-1.2 0-2.2.5-3.1 1.4-.8.9-1.3 2-1.3 3.3 0 1.3.4 2.4 1.3 3.3.8.9 1.9 1.4 3.1 1.4 1.2 0 2.2-.5 3.1-1.4.8-.9 1.3-2 1.3-3.3zM312.3 200.9l3.7-9.3h3.5l-5.9 14.6h-2.8l-5.9-14.6h3.5l3.9 9.3zM331.8 191.6v2.9h-7.3v3h6.5v2.8h-6.5v3h7.5v2.9h-10.8v-14.6h10.6zM346.8 196.4c0 2.3-.9 3.9-2.8 4.5l3.7 5.2h-4l-3.2-4.7h-2.3v4.7H335v-14.6h5.5c2.3 0 3.9.4 4.9 1.2s1.4 2 1.4 3.7zm-3.9 1.8c.4-.4.6-.9.6-1.7 0-.8-.2-1.3-.6-1.6-.4-.3-1.1-.4-2.2-.4h-2.4v4.3h2.4c1-.1 1.8-.3 2.2-.6zM353.6 194.5c-.3.3-.5.6-.5 1s.2.8.6 1c.4.3 1.3.5 2.7.9 1.4.3 2.5.9 3.2 1.5.8.7 1.1 1.7 1.1 3s-.5 2.4-1.5 3.2c-1 .8-2.3 1.2-3.9 1.2-2.3 0-4.4-.9-6.3-2.6l1.9-2.4c1.6 1.4 3 2.1 4.4 2.1.6 0 1.1-.1 1.4-.4.3-.3.5-.6.5-1s-.2-.8-.5-1c-.4-.3-1.1-.5-2.2-.8-1.7-.4-2.9-.9-3.7-1.6-.8-.6-1.2-1.7-1.2-3.1 0-1.4.5-2.5 1.5-3.2 1-.8 2.2-1.1 3.7-1.1 1 0 2 .2 2.9.5 1 .3 1.8.8 2.6 1.4l-1.7 2.4c-1.3-1-2.6-1.4-3.9-1.4-.4 0-.8.2-1.1.4zM369.6 194.4v11.8h-3.3v-11.8h-4.1v-2.8h11.5v2.8h-4.1zM388 204.2c-1.5 1.4-3.3 2.2-5.5 2.2s-4-.7-5.5-2.2c-1.5-1.4-2.2-3.2-2.2-5.4 0-2.1.7-3.9 2.2-5.4 1.5-1.4 3.3-2.2 5.5-2.2s4 .7 5.5 2.2 2.2 3.2 2.2 5.4-.8 4-2.2 5.4zm-1.1-5.4c0-1.3-.4-2.4-1.3-3.3-.8-.9-1.9-1.4-3.1-1.4-1.2 0-2.2.5-3.1 1.4-.8.9-1.3 2-1.3 3.3 0 1.3.4 2.4 1.3 3.3.8.9 1.9 1.4 3.1 1.4 1.2 0 2.2-.5 3.1-1.4.8-.9 1.3-2 1.3-3.3zM404.8 196.4c0 2.3-.9 3.9-2.8 4.5l3.7 5.2h-4l-3.2-4.7h-2.3v4.7h-3.3v-14.6h5.5c2.3 0 3.9.4 4.9 1.2s1.5 2 1.5 3.7zm-3.9 1.8c.4-.4.6-.9.6-1.7 0-.8-.2-1.3-.6-1.6-.4-.3-1.1-.4-2.2-.4h-2.4v4.3h2.4c1-.1 1.8-.3 2.2-.6zM414 194.4v11.8h-3.3v-11.8h-4.1v-2.8h11.5v2.8H414zM430.6 192.9c1 .9 1.5 2.2 1.5 4 0 1.8-.5 3.1-1.6 4-1.1.8-2.7 1.3-4.8 1.3h-1.9v4.1h-3.3v-14.6h5.2c2.3-.1 3.9.3 4.9 1.2zm-2.4 5.8c.4-.4.6-1.1.6-1.9 0-.8-.3-1.4-.8-1.8-.5-.4-1.3-.5-2.4-.5h-1.9v4.9h2.2c1.2-.1 1.9-.3 2.3-.7zM438.6 202.4c.5.7 1.3 1 2.2 1 .9 0 1.6-.3 2.2-1 .5-.7.8-1.6.8-2.8v-8.1h3.3v8.2c0 2.1-.6 3.7-1.8 4.9-1.2 1.1-2.7 1.7-4.5 1.7-1.8 0-3.3-.6-4.5-1.7-1.2-1.1-1.8-2.8-1.8-4.9v-8.2h3.3v8.1c0 1.2.2 2.2.8 2.8zM456.6 194.4v11.8h-3.3v-11.8h-4.1v-2.8h11.5v2.8h-4.1z"/></svg>