<svg xmlns="http://www.w3.org/2000/svg" viewBox="0 0 1280 800"><path fill="#004261" d="M251.9 142.1c0-6.7-5.4-12.1-12.1-12.1-.8 0-1.4.1-2.2.2-1.6-1.9-4.1-3.1-6.8-3.1-1.6 0-3.1.4-4.4 1.2-1.9-2.5-4.9-4.2-8.3-4.2-5.6 0-10.1 4.3-10.4 9.8-5.6.1-10 4.6-10 10.2s4.6 10.2 10.2 10.2h33.5v-.1c5.9-1 10.5-6 10.5-12.1zm658.2 22.2c0-6.7-5.4-12.1-12.1-12.1-.8 0-1.4.1-2.2.2-1.6-1.9-4.1-3.1-6.8-3.1-1.6 0-3.1.4-4.4 1.2-1.9-2.5-4.9-4.2-8.3-4.2-5.6 0-10.1 4.3-10.4 9.8-5.6.1-10 4.6-10 10.2s4.6 10.2 10.2 10.2h33.5v-.1c6-.8 10.5-6 10.5-12.1z"/><path fill="#F9CA03" d="M287.6 398.6c0-.5.4-1 1-1s1 .5 1 1c0 .6-.4 1-1 1s-1-.4-1-1zm0-3c0-.5.4-1 1-1s1 .5 1 1c0 .6-.4 1-1 1s-1-.5-1-1zm0-3c0-.5.4-1 1-1s1 .5 1 1c0 .6-.4 1-1 1s-1-.5-1-1zm0-3c0-.5.4-1 1-1s1 .5 1 1c0 .6-.4 1-1 1s-1-.5-1-1zm0-3c0-.5.4-1 1-1s1 .5 1 1c0 .6-.4 1-1 1s-1-.4-1-1zm0-3c0-.5.4-1 1-1s1 .5 1 1c0 .6-.4 1-1 1s-1-.5-1-1zm0-3c0-.5.4-1 1-1s1 .5 1 1c0 .6-.4 1-1 1s-1-.5-1-1zm0-3c0-.5.4-1 1-1s1 .5 1 1c0 .6-.4 1-1 1s-1-.4-1-1zm0-3c0-.5.4-1 1-1s1 .5 1 1c0 .6-.4 1-1 1s-1-.5-1-1zm0-3c0-.5.4-1 1-1s1 .5 1 1c0 .6-.4 1-1 1s-1-.5-1-1zm0-3c0-.5.4-1 1-1s1 .5 1 1c0 .6-.4 1-1 1s-1-.5-1-1zm0-3c0-.5.4-1 1-1s1 .5 1 1c0 .6-.4 1-1 1s-1-.4-1-1zm0-3c0-.5.4-1 1-1s1 .5 1 1c0 .6-.4 1-1 1s-1-.5-1-1zm0-3c0-.5.4-1 1-1s1 .5 1 1c0 .6-.4 1-1 1s-1-.5-1-1zm0-3c0-.5.4-1 1-1s1 .5 1 1c0 .6-.4 1-1 1s-1-.5-1-1zm0-3c0-.5.4-1 1-1s1 .5 1 1c0 .6-.4 1-1 1s-1-.4-1-1zm0-3c0-.5.4-1 1-1s1 .5 1 1c0 .6-.4 1-1 1s-1-.5-1-1zm0-3c0-.5.4-1 1-1s1 .5 1 1c0 .6-.4 1-1 1s-1-.5-1-1zm0-3c0-.5.4-1 1-1s1 .5 1 1c0 .6-.4 1-1 1s-1-.5-1-1zm0-3c0-.5.4-1 1-1s1 .5 1 1c0 .6-.4 1-1 1s-1-.5-1-1zm0-3c0-.5.4-1 1-1s1 .5 1 1c0 .6-.4 1-1 1s-1-.5-1-1zm0-3c0-.5.4-1 1-1s1 .5 1 1c0 .6-.4 1-1 1s-1-.5-1-1zm0-3c0-.5.4-1 1-1s1 .5 1 1c0 .6-.4 1-1 1s-1-.4-1-1zm0-3c0-.5.4-1 1-1s1 .5 1 1c0 .6-.4 1-1 1s-1-.5-1-1zm0-3c0-.5.4-1 1-1s1 .5 1 1c0 .6-.4 1-1 1s-1-.5-1-1zm0-3c0-.5.4-1 1-1s1 .5 1 1c0 .6-.4 1-1 1s-1-.5-1-1zm0-3c0-.5.4-1 1-1s1 .5 1 1c0 .6-.4 1-1 1s-1-.4-1-1zm0-3c0-.5.4-1 1-1s1 .5 1 1c0 .6-.4 1-1 1s-1-.5-1-1zm0-3c0-.5.4-1 1-1s1 .5 1 1c0 .6-.4 1-1 1s-1-.5-1-1zm0-3c0-.5.4-1 1-1s1 .5 1 1c0 .6-.4 1-1 1s-1-.5-1-1zm0-3c0-.5.4-1 1-1s1 .5 1 1c0 .6-.4 1-1 1s-1-.4-1-1zm0-3c0-.5.4-1 1-1s1 .5 1 1c0 .6-.4 1-1 1s-1-.5-1-1zm0-3c0-.5.4-1 1-1s1 .5 1 1c0 .6-.4 1-1 1s-1-.5-1-1zm0-3c0-.5.4-1 1-1s1 .5 1 1c0 .6-.4 1-1 1s-1-.4-1-1zm0-3c0-.5.4-1 1-1s1 .5 1 1c0 .6-.4 1-1 1s-1-.5-1-1zm0-3c0-.5.4-1 1-1s1 .5 1 1c0 .6-.4 1-1 1s-1-.5-1-1zm0-3c0-.5.4-1 1-1s1 .5 1 1c0 .6-.4 1-1 1s-1-.5-1-1zm0-3c0-.5.4-1 1-1s1 .5 1 1c0 .6-.4 1-1 1s-1-.4-1-1zm0-3c0-.5.4-1 1-1s1 .5 1 1c0 .6-.4 1-1 1s-1-.5-1-1zm0-3c0-.5.4-1 1-1s1 .5 1 1c0 .6-.4 1-1 1s-1-.5-1-1zm0-3c0-.5.4-1 1-1s1 .5 1 1c0 .6-.4 1-1 1s-1-.5-1-1zm0-3c0-.5.4-1 1-1s1 .5 1 1c0 .6-.4 1-1 1s-1-.4-1-1zm0-3c0-.5.4-1 1-1s1 .5 1 1c0 .6-.4 1-1 1s-1-.5-1-1zm0-3c0-.5.4-1 1-1s1 .5 1 1c0 .6-.4 1-1 1s-1-.5-1-1zm0-3c0-.5.4-1 1-1s1 .5 1 1c0 .6-.4 1-1 1s-1-.4-1-1zm0-3c0-.5.4-1 1-1s1 .5 1 1c0 .6-.4 1-1 1s-1-.5-1-1zm0-3c0-.5.4-1 1-1s1 .5 1 1c0 .6-.4 1-1 1s-1-.5-1-1zm0-3c0-.5.4-1 1-1s1 .5 1 1c0 .6-.4 1-1 1s-1-.5-1-1zm0-3c0-.5.4-1 1-1s1 .5 1 1c0 .6-.4 1-1 1s-1-.4-1-1zm0-3c0-.5.4-1 1-1s1 .5 1 1c0 .6-.4 1-1 1s-1-.5-1-1zm0-3c0-.5.4-1 1-1s1 .5 1 1c0 .6-.4 1-1 1s-1-.5-1-1zm0-3c0-.5.4-1 1-1s1 .5 1 1c0 .6-.4 1-1 1s-1-.5-1-1zm0-3c0-.5.4-1 1-1s1 .5 1 1c0 .6-.4 1-1 1s-1-.4-1-1zm0-3c0-.5.4-1 1-1s1 .5 1 1c0 .6-.4 1-1 1s-1-.5-1-1zm0-3c0-.5.4-1 1-1s1 .5 1 1c0 .6-.4 1-1 1s-1-.5-1-1zm0-3c0-.5.4-1 1-1s1 .5 1 1c0 .6-.4 1-1 1s-1-.4-1-1zm0-3c0-.5.4-1 1-1s1 .5 1 1c0 .6-.4 1-1 1s-1-.5-1-1zm0-3c0-.5.4-1 1-1s1 .5 1 1c0 .6-.4 1-1 1s-1-.5-1-1zm0-3c0-.5.4-1 1-1s1 .5 1 1c0 .6-.4 1-1 1s-1-.5-1-1zm0-3c0-.5.4-1 1-1s1 .5 1 1c0 .6-.4 1-1 1s-1-.4-1-1zm0-3c0-.5.4-1 1-1s1 .5 1 1c0 .6-.4 1-1 1s-1-.5-1-1zm0-3c0-.5.4-1 1-1s1 .5 1 1c0 .6-.4 1-1 1s-1-.5-1-1zm168.8-2.1c0-.6.5-1 1-1 .6 0 1 .4 1 1 0 .5-.4 1-1 1-.5 0-1-.5-1-1zm-3 0c0-.6.5-1 1-1 .6 0 1 .4 1 1 0 .5-.4 1-1 1-.5 0-1-.5-1-1zm-3 0c0-.6.5-1 1-1 .6 0 1 .4 1 1 0 .5-.4 1-1 1-.5 0-1-.5-1-1zm-3 0c0-.6.5-1 1-1 .6 0 1 .4 1 1 0 .5-.4 1-1 1-.5 0-1-.5-1-1zm-3 0c0-.6.5-1 1-1 .6 0 1 .4 1 1 0 .5-.4 1-1 1-.5 0-1-.5-1-1zm-3 0c0-.6.5-1 1-1 .6 0 1 .4 1 1 0 .5-.4 1-1 1-.5 0-1-.5-1-1zm-3 0c0-.6.5-1 1-1 .6 0 1 .4 1 1 0 .5-.4 1-1 1-.5 0-1-.5-1-1zm-3 0c0-.6.5-1 1-1 .6 0 1 .4 1 1 0 .5-.4 1-1 1-.5 0-1-.5-1-1zm-3 0c0-.6.5-1 1-1 .6 0 1 .4 1 1 0 .5-.4 1-1 1-.5 0-1-.5-1-1zm-3 0c0-.6.5-1 1-1 .6 0 1 .4 1 1 0 .5-.4 1-1 1-.5 0-1-.5-1-1zm-3 0c0-.6.5-1 1-1 .6 0 1 .4 1 1 0 .5-.4 1-1 1-.5 0-1-.5-1-1zm-3 0c0-.6.5-1 1-1 .6 0 1 .4 1 1 0 .5-.4 1-1 1-.5 0-1-.5-1-1zm-3 0c0-.6.5-1 1-1 .6 0 1 .4 1 1 0 .5-.4 1-1 1-.5 0-1-.5-1-1zm-3 0c0-.6.5-1 1-1 .6 0 1 .4 1 1 0 .5-.4 1-1 1-.5 0-1-.5-1-1zm-3 0c0-.6.5-1 1-1 .6 0 1 .4 1 1 0 .5-.4 1-1 1-.5 0-1-.5-1-1zm-3 0c0-.6.5-1 1-1 .6 0 1 .4 1 1 0 .5-.4 1-1 1-.5 0-1-.5-1-1zm-3 0c0-.6.5-1 1-1 .6 0 1 .4 1 1 0 .5-.4 1-1 1-.5 0-1-.5-1-1zm-3 0c0-.6.5-1 1-1 .6 0 1 .4 1 1 0 .5-.4 1-1 1-.5 0-1-.5-1-1zm-3 0c0-.6.5-1 1-1 .6 0 1 .4 1 1 0 .5-.4 1-1 1-.5 0-1-.5-1-1zm-3 0c0-.6.5-1 1-1 .6 0 1 .4 1 1 0 .5-.4 1-1 1-.5 0-1-.5-1-1zm-3 0c0-.6.5-1 1-1 .6 0 1 .4 1 1 0 .5-.4 1-1 1-.5 0-1-.5-1-1zm-3 0c0-.6.5-1 1-1 .6 0 1 .4 1 1 0 .5-.4 1-1 1-.5 0-1-.5-1-1zm-3 0c0-.6.5-1 1-1 .6 0 1 .4 1 1 0 .5-.4 1-1 1-.5 0-1-.5-1-1zm-3 0c0-.6.5-1 1-1 .6 0 1 .4 1 1 0 .5-.4 1-1 1-.5 0-1-.5-1-1zm-3 0c0-.6.5-1 1-1 .6 0 1 .4 1 1 0 .5-.4 1-1 1-.5 0-1-.5-1-1zm-3 0c0-.6.5-1 1-1 .6 0 1 .4 1 1 0 .5-.4 1-1 1-.5 0-1-.5-1-1zm-3 0c0-.6.5-1 1-1 .6 0 1 .4 1 1 0 .5-.4 1-1 1-.5 0-1-.5-1-1zm-3 0c0-.6.5-1 1-1 .6 0 1 .4 1 1 0 .5-.4 1-1 1-.5 0-1-.5-1-1zm-3 0c0-.6.5-1 1-1 .6 0 1 .4 1 1 0 .5-.4 1-1 1-.5 0-1-.5-1-1zm-3 0c0-.6.5-1 1-1 .6 0 1 .4 1 1 0 .5-.4 1-1 1-.5 0-1-.5-1-1zm-3 0c0-.6.5-1 1-1 .6 0 1 .4 1 1 0 .5-.4 1-1 1-.5 0-1-.5-1-1zm-3 0c0-.6.5-1 1-1 .6 0 1 .4 1 1 0 .5-.4 1-1 1-.5 0-1-.5-1-1zm-3 0c0-.6.5-1 1-1 .6 0 1 .4 1 1 0 .5-.4 1-1 1-.5 0-1-.5-1-1zm-3 0c0-.6.5-1 1-1 .6 0 1 .4 1 1 0 .5-.4 1-1 1-.5 0-1-.5-1-1zm-3 0c0-.6.5-1 1-1 .6 0 1 .4 1 1 0 .5-.4 1-1 1-.5 0-1-.5-1-1zm-3 0c0-.6.5-1 1-1 .6 0 1 .4 1 1 0 .5-.4 1-1 1-.5 0-1-.5-1-1zm-3 0c0-.6.5-1 1-1 .6 0 1 .4 1 1 0 .5-.4 1-1 1-.5 0-1-.5-1-1zm-3 0c0-.6.5-1 1-1 .6 0 1 .4 1 1 0 .5-.4 1-1 1-.5 0-1-.5-1-1zm-3 0c0-.6.5-1 1-1 .6 0 1 .4 1 1 0 .5-.4 1-1 1-.5 0-1-.5-1-1zm-3 0c0-.6.5-1 1-1 .6 0 1 .4 1 1 0 .5-.4 1-1 1-.5 0-1-.5-1-1zm-3 0c0-.6.5-1 1-1 .6 0 1 .4 1 1 0 .5-.4 1-1 1-.5 0-1-.5-1-1zm-3 0c0-.6.5-1 1-1 .6 0 1 .4 1 1 0 .5-.4 1-1 1-.5 0-1-.5-1-1zm-3 0c0-.6.5-1 1-1 .6 0 1 .4 1 1 0 .5-.4 1-1 1-.5 0-1-.5-1-1zm-3 0c0-.6.5-1 1-1 .6 0 1 .4 1 1 0 .5-.4 1-1 1-.5 0-1-.5-1-1zm-3 0c0-.6.5-1 1-1 .6 0 1 .4 1 1 0 .5-.4 1-1 1-.5 0-1-.5-1-1zm-3 0c0-.6.5-1 1-1 .6 0 1 .4 1 1 0 .5-.4 1-1 1-.5 0-1-.5-1-1zm-3 0c0-.6.5-1 1-1 .6 0 1 .4 1 1 0 .5-.4 1-1 1-.5 0-1-.5-1-1zm-3 0c0-.6.5-1 1-1 .6 0 1 .4 1 1 0 .5-.4 1-1 1-.5 0-1-.5-1-1zm-3 0c0-.6.5-1 1-1 .6 0 1 .4 1 1 0 .5-.4 1-1 1-.5 0-1-.5-1-1zm-3 0c0-.6.5-1 1-1 .6 0 1 .4 1 1 0 .5-.4 1-1 1-.5 0-1-.5-1-1zm-3 0c0-.6.5-1 1-1 .6 0 1 .4 1 1 0 .5-.4 1-1 1-.5 0-1-.5-1-1zm-3 0c0-.6.5-1 1-1 .6 0 1 .4 1 1 0 .5-.4 1-1 1-.5 0-1-.5-1-1zm-3 0c0-.6.5-1 1-1 .6 0 1 .4 1 1 0 .5-.4 1-1 1-.5 0-1-.5-1-1zm-3 0c0-.6.5-1 1-1 .6 0 1 .4 1 1 0 .5-.4 1-1 1-.5 0-1-.5-1-1zm-3 0c0-.6.5-1 1-1 .6 0 1 .4 1 1 0 .5-.4 1-1 1-.5 0-1-.5-1-1zm-3 0c0-.6.5-1 1-1 .6 0 1 .4 1 1 0 .5-.4 1-1 1-.5 0-1-.5-1-1zm-3 0c0-.6.5-1 1-1 .6 0 1 .4 1 1 0 .5-.4 1-1 1-.5 0-1-.5-1-1z"/><path fill="none" stroke="#004261" stroke-width=".992" stroke-linecap="round" stroke-linejoin="round" d="M1078.6 512l-16.9-11"/><path fill="#004261" d="M1078.5 508.4l8.1 8.8-11.4-3.7"/><path fill="none" stroke="#204E65" stroke-width="1.417" stroke-linecap="round" stroke-linejoin="round" stroke-dasharray="0,2.8347" d="M1061.7 501.7l-94.4-57.3"/><path fill="none" stroke="#204E65" stroke-width=".992" stroke-linecap="round" stroke-linejoin="round" d="M405.9 315.6l32.3-34.9"/><path fill="#204E65" d="M409.6 316.1l-10.1 6.3 5.6-10.5"/><path fill="none" stroke="#F05A22" stroke-linecap="round" stroke-linejoin="round" d="M156.3 212.6V190"/><path fill="#F05A22" d="M159.6 210.4l-3.1 11.6-3.2-11.6"/><path fill="none" stroke="#204E65" stroke-linecap="round" stroke-linejoin="round" d="M213.7 217.9v-21.3"/><path fill="#204E65" d="M216.9 215.7l-3.1 11.7-3.1-11.7"/><path fill="none" stroke="#204E65" stroke-width=".992" stroke-linecap="round" stroke-linejoin="round" d="M175.1 565.7l-30.4 32.9"/><path fill="#204E65" d="M144 594.9l-5.6 10.6 10.1-6.5"/><path fill="none" stroke="#204E65" stroke-width="1.417" stroke-linecap="round" stroke-linejoin="round" stroke-dasharray="0,2.8347" d="M213.7 242.4v27.3c0 5.1 3.3 11.5 7.4 14.5l126.1 91"/><path fill="none" stroke="#F05A22" stroke-width="1.417" stroke-linecap="round" stroke-linejoin="round" stroke-dasharray="0,2.8347" d="M156.3 239.9v112.8c0 5.1 3.3 11.5 7.4 14.5l126.1 91.1"/><path fill="none" stroke="#204E65" stroke-width="1.417" stroke-linecap="round" stroke-linejoin="round" stroke-dasharray="0,2.8347" d="M398.5 322.5L174.1 565.7"/><path fill="none" stroke="#F05A22" stroke-width=".992" stroke-linecap="round" stroke-linejoin="round" d="M397.4 313.3l32.3-34.9"/><path fill="#F05A22" d="M401.1 313.9l-10.1 6.5 5.6-10.6"/><path fill="none" stroke="#F05A22" stroke-width=".992" stroke-linecap="round" stroke-linejoin="round" d="M166.7 563.5l-30.4 32.9"/><path fill="#F05A22" d="M135.5 592.8l-5.6 10.5L140 597"/><path fill="none" stroke="#F05A22" stroke-width="1.417" stroke-linecap="round" stroke-linejoin="round" stroke-dasharray="0,2.8347" d="M390 320.3L165.6 563.5"/><path fill="none" stroke="#204E65" stroke-width=".992" stroke-linecap="round" stroke-linejoin="round" d="M1086.7 315.6l32.1-34.9"/><path fill="#204E65" d="M1090.3 316.1l-10.1 6.3 5.6-10.5"/><path fill="none" stroke="#F05A22" stroke-linecap="round" stroke-linejoin="round" d="M757.4 240.1v-25.8"/><path fill="#F05A22" d="M760.5 238l-3.1 11.7-3.1-11.7"/><path fill="none" stroke="#204E65" stroke-linecap="round" stroke-linejoin="round" d="M875.2 240.1v-24.5"/><path fill="#204E65" d="M878.3 238l-3.1 11.7-3.1-11.7"/><path fill="none" stroke="#204E65" stroke-width=".992" stroke-linecap="round" stroke-linejoin="round" d="M849.4 572.7l-30.3 32.9"/><path fill="#204E65" d="M845.7 572.1l10.1-6.5-5.6 10.6"/><path fill="none" stroke="#204E65" stroke-width="1.417" stroke-linecap="round" stroke-linejoin="round" stroke-dasharray="0,2.8347" d="M935.3 342.5l73.4 54.9M875.2 264.6v25.2c0 5.1 3.2 11.6 7.2 14.7l33.4 25.6"/><path fill="none" stroke="#F05A22" stroke-width="1.417" stroke-linecap="round" stroke-linejoin="round" stroke-dasharray="0,2.8347" d="M757.4 267.5v112.8c0 5.1 3.3 11.5 7.4 14.4l66.4 47.1"/><path fill="none" stroke="#204E65" stroke-width="1.417" stroke-linecap="round" stroke-linejoin="round" stroke-dasharray="0,2.8347" d="M1079.2 322.5L854.8 565.7"/><path fill="none" stroke="#F05A22" stroke-width=".992" stroke-linecap="round" stroke-linejoin="round" d="M1002.3 255.1l8-8.6"/><path fill="#F05A22" d="M1006 255.6l-10.1 6.5 5.5-10.6"/><path fill="none" stroke="#F05A22" stroke-width=".992" stroke-linecap="round" stroke-linejoin="round" d="M757.8 519.6l-15.5 16.7"/><path fill="#F05A22" d="M741.4 532.6l-5.5 10.6 10.1-6.5"/><path fill="none" stroke="#F05A22" stroke-width="1.417" stroke-linecap="round" stroke-linejoin="round" stroke-dasharray="0,2.8347" d="M1032.1 221.8L757.8 519.6"/><ellipse fill="#F9CA03" cx="282.6" cy="396.8" rx="13.5" ry="11"/><path opacity=".4" fill="#F05A22" d="M283.4 409.8c-.6.1-1.3.1-1.9.1-3.9 0-7.4-1.7-9.9-4.3l-24.7 27 40.7 25.1 27-29.4-31.2-18.5z"/><path fill="#004261" fill-opacity=".2" stroke="#004261" stroke-width=".709" stroke-miterlimit="10" d="M1104.2 622.1l137.5-149-112.9-72-137.4 149 32.4 59.9 80.4 12.1zm-680.4 0l137.5-149-112.9-72-137.4 149 32.4 59.9 80.4 12.1z"/><path fill="none" stroke="#000" stroke-linecap="round" stroke-linejoin="round" d="M307.8 471.2l13.8-14.9m-43.1 19.4c2.5-2.7.1-7.5-1.2-9.9-1.8-3.1-4.1-5.7-6.7-8.2-2.6-2.5-5.4-4.4-8.6-6-2.4-1.2-7.4-3-9.9-.4m26.4 24.5L181.3 581m87.1-182.7v-.9m27.6-3.7c6.9 6.3 14.1 12.1 21.7 17.4m-98.5-169.7c-2.4 2.5-6.5 2.9-9.4 1.4-3.2-1.7-4.4-5.6-1.8-8.5M208.2 234.4c2.4-2.5 6.5-2.9 9.4-1.4 3.2 1.7 4.4 5.6 1.8 8.5"/><path fill="none" stroke="#000" stroke-linecap="round" stroke-linejoin="round" d="M217.9 240.6c-1.8 1.8-4.7 2.3-7 1-2.5-1.3-3.3-4.2-1.3-6.3"/><path fill="none" stroke="#000" stroke-linecap="round" stroke-linejoin="round" d="M209.6 235.3c1.8-1.8 4.7-2.3 7-1 2.5 1.3 3.3 4.2 1.3 6.3M304 439.1c0-4.3-4.7-9.4-7.5-11.7-1.8-1.5-3.8-2.8-6-3.8-1.7-.6-5.3-1.6-6.5.6-2.2 4 3.5 10.1 5.8 12.3 2.3 2.2 8.7 7.1 12.6 5.4m1.3-1.5c.1-.4.2-.9.2-1.3m101.2-102.8c0-5.8-6.3-12.8-10.1-16-2.5-2.2-5.2-3.9-8.2-5.3-2.3-1-6.9-2.5-9.1 0m26.5 24.5c.8-1 1.1-1.8 1.1-3.1"/><path fill="none" stroke="#000" stroke-linecap="round" stroke-linejoin="round" d="M299.2 445.4c-5.7-2-9.8-5.4-13.8-9.8-1.9-2.2-3.5-4.4-4.7-7-1-2.2-2.3-5.8-.2-8.1 2-2.3 5.9-1.2 8.1-.4 2.7 1 5.1 2.5 7.4 4.2 4.7 3.5 8.5 7.3 10.9 12.9M178.3 575.4c0 3.3-3.1 3.5-5.7 2.8-2.5-.8-4.6-2-6.7-3.5-3-2.4-8.2-7.7-8.2-12.3 0-3.3 3.1-3.5 5.7-2.8 2.6.8 4.6 2 6.7 3.5 3 2.4 8.2 7.7 8.2 12.3z"/><path fill="none" stroke="#000" stroke-linecap="round" stroke-linejoin="round" d="M182.4 577.9c0-6.3-7.3-13.9-11.4-17.1-2.8-2.3-5.7-4-9.2-5.1-3.5-1.1-7.8-.8-7.8 3.9 0 6.3 7.3 13.9 11.4 17.1 2.8 2.3 5.7 4 9.2 5.1 3.4 1.1 7.8.8 7.8-3.9zm265.7-130.1c-45.7 47.7-94.5 92.1-137.5 142.7m112.9 95l-112.9-71.9m0-23.1c0 8.7 18.7 22.8 23.7 26.7 9.7 7.4 19.7 14.3 29.7 21.2 20 13.8 40.3 27.1 59.6 42m137.3-143.9l-137.4 149m0 0v-5.1m0 0C466.7 626.3 517 578.8 561 525.5m-.1 11v-11.1m0 .1c-18.3-14.2-38.3-25.2-57.8-37.1-9.8-6-19.5-12.1-28.8-18.7-4.7-3.2-9.4-6.6-13.9-10.1-3.1-2.4-6.1-4.7-8.9-7.4-.9-.9-3.3-2.7-3.3-4.3m-.1-.1v-61.1m0 .1l-137.5 149m0 54.7v-54.7m75.5-37.9c.2-1.4-.5-2.5-1.9-1.7-1.1.6-1.8 1.5-2.7 2.4-1.6 1.9-2.8 3.8-3.2 6.3-.2 1.4.5 2.5 1.9 1.7 1.1-.6 1.8-1.5 2.7-2.4 1.6-1.8 2.8-3.8 3.2-6.3zm62-111.1l-5.6-3.5m0-.1l-137.4 149m5.5 3.6l-5.5-3.5m0-.1V610m0 0l5.5 3.5"/><path fill="none" stroke="#000" stroke-linecap="round" stroke-linejoin="round" d="M384.9 499c-.4 1.7-1.1 3.1-2.3 4.4-1.1 1.4-3.8 2.9-3.1.5.4-1.7 1.1-3.1 2.3-4.4 1.1-1.3 3.5-2.8 3.1-.5zM170.1 362.3l74.5 55m-8.8 10.9l-74-54.7m.1-133.6c2.7-2.9 1.5-6.7-1.8-8.5-2.9-1.5-7-1.2-9.4 1.4"/><path fill="none" stroke="#000" stroke-linecap="round" stroke-linejoin="round" d="M150.8 232.8c-2.6 2.9-1.5 6.7 1.8 8.5 2.9 1.5 7 1.2 9.4-1.4"/><path fill="none" stroke="#000" stroke-linecap="round" stroke-linejoin="round" d="M160.5 239c1.9-2.2 1.1-5.1-1.3-6.3-2.3-1.2-5.2-.9-7 1m0 .1c-1.9 2.2-1.1 5.1 1.3 6.3 2.3 1.2 5.2.9 7-1m132.9 164.6c1.5-1.6 2.4-3.2 2.8-5.4m-27.8-.6c1.6 11.3 17.7 13.9 25.1 5.9"/><path fill="none" stroke="#000" stroke-linecap="round" stroke-linejoin="round" d="M293.4 403.3c5.3-5.7 3-13.4-3.5-16.9-5.8-3.1-14-2.3-18.6 2.7-5.3 5.7-3 13.4 3.5 16.9 5.8 3.1 14 2.3 18.6-2.7z"/><path fill="#F9CA03" stroke="#000" stroke-linecap="round" stroke-linejoin="round" d="M269.2 394.6c2.8-12.5 24-12 26.2.5"/><path fill="none" stroke="#000" stroke-linecap="round" stroke-linejoin="round" d="M292.9 402.9c-4.4 4.7-12.1 5.5-17.7 2.6-6.2-3.3-8.4-10.6-3.3-16 4.4-4.7 12.1-5.5 17.7-2.6 6.1 3.3 8.2 10.6 3.3 16zm-24.5-4.6c-11.3 11.4-23.2 22-35.1 32.7m0 0l10.2-1.6m0 0c8.6-9.1 17.2-18.3 25.3-27.8m57 15.1c-10.2-6.8-20.4-13.5-29.7-21.7m-20.2-10.3l-2 2.3m-4.6 4.8l-14.7 16m0 0L233.3 431m35.6-29.2l-7 7.5m52.3 7.3L294.5 404m-17.3-18.6l-1.3-.6m-7.3 9.1l-14 14m38.8-2.4c2-2 2.9-4.2 2.9-7.1"/><path fill="none" stroke="#000" stroke-linecap="round" stroke-linejoin="round" d="M268.4 398.3c0 5.9 4.9 10 10.1 11.2 5.2 1.3 11.3 0 15.1-4.1m41 59.1l-13-8.3m-39.5-25.1l-4.9-3.2m0-.1l-13.8 14.9m-30.1 27.1l1.1.6m30.7 19.7l49.7 31.7m7.3-7.9v-26.2M233.3 431l88.8 56.7m-88.8-17.9V431m131.4 36.7v-26.3m-42.6 46.2l42.6-46.2m-18 29.8c-1-.5-2.5 1-3 1.5-.9.9-1.5 1.8-2.2 2.8-.8 1.2-3.2 4.9-1.7 6.6m-62.6-54.3v-18.7m-34.1 20.8l.4-.5m73-11.3l38.4 24.4m0 0l-34.1 37m0 0l-77.7-49.6m78.5 26.3v-25.5m-28.6 31l28.6-31m0 .1l-5.6-3.5m0-.1l-28.6 31M270 392.6c-.1.3-.3.6-.4 1.1m-.2 0c-.1.3-.2.6-.2 1M219 289.4c-5.3-4-11.8-11.2-12.3-18.6m14-.7c.8 2.8 4.4 6.3 6.6 8m-20.5-8.1v-31.3m13.9-.3V270m105.9 98.9l-107.5-79.5m8.3-11.2l108.8 80.4M301 398.2l76.7-83.1m26.5 24.4l-73.9 80M154.8 556.7L252 451.3m94.7 19.9l9.2 5.9m-8.7 9.6l-7.3-4.6M161.7 373.3c-5.3-4-11.8-11.2-12.3-18.6m14-.5c.8 2.8 4.4 6.3 6.6 8m-20.6-8.1v-117m14-.3v117.3m132.9 43.4v.9"/><g fill="#F05A22"><path d="M163 160.2h-16.1v-2.7H163v2.7zm-15.6-.5h15.1v-1.6h-15.1v1.6z"/><path d="M161.6 158.1h-13.2l.6-9.4h.5l-.6 8.8H161l-.6-8.8h.5"/><path d="M154.9 150.2c-6.9 0-12.4-4.8-12.4-10.8v-.2h24.7v.2c.1 6-5.4 10.8-12.3 10.8zM143 139.8c.2 5.5 5.5 9.9 11.8 9.9 6.5 0 11.7-4.4 11.8-10l-23.6.1z"/><path d="M168.4 139.8h-26.8v-3.2h26.8v3.2zm-26.4-.5h25.7v-2.2H142v2.2z"/><path d="M165 137.1h-20.1l-2.4-15.1h24.9l-2.4 15.1zm-19.7-.5h19.2l2.3-14H143l2.3 14z"/><path d="M168.4 122.7h-26.8v-3.2h26.8v3.2zm-26.4-.5h25.7V120H142v2.2zm21.2 5.2c-.9 0-1.5-.6-1.5-1.5s.6-1.5 1.5-1.5 1.5.6 1.5 1.5c.1.9-.6 1.5-1.5 1.5zm0-2.5c-.5 0-1 .4-1 1s.4 1 1 1c.5 0 1-.4 1-1 .1-.5-.5-1-1-1z"/><path d="M168.1 119.7v2.7h-1l-2.4 14.5h3.3v2.7h-1c0 4-2.6 7.4-6.3 9.1l.5 9.1h1.4v2.2H147v-2.2h1.5l.5-9c-3.9-1.7-6.5-5.2-6.5-9.1h-1V137h3.2l-2.4-14.5h-1v-2.7h26.4m1.4-1.2h-28.4v4.8h1.1l1.9 12.4h-3.1v4.8h1.1c.4 3.7 2.8 6.9 6.3 8.7l-.4 7.3H146v4.3h17.7v-4.3h-1.4l-.4-7.4c3.5-1.9 5.8-5.2 6.2-8.7h1.1v-4.8h-3.1l1.9-12.4h1.2v-4.7h-.1z"/></g><path fill="none" stroke="#000" stroke-linecap="round" stroke-linejoin="round" d="M353 434l11.7 7.4-38.9-24.7m633.4 59c2.5-2.7.1-7.5-1.2-9.9-1.8-3.1-4.1-5.7-6.7-8.2-2.6-2.5-5.4-4.4-8.6-6-2.4-1.2-7.4-3-9.9-.4m26.4 24.5L862 581m87.1-182.7v-.9m27.6-3.7c6.9 6.3 14.1 12.1 21.7 17.4M880.8 263.8c-2.4 2.5-6.5 2.9-9.4 1.4-3.2-1.7-4.4-5.6-1.8-8.5m.1 0c2.4-2.5 6.5-2.9 9.4-1.4 3.2 1.7 4.4 5.6 1.8 8.5"/><path fill="none" stroke="#000" stroke-linecap="round" stroke-linejoin="round" d="M879.4 262.8c-1.8 1.8-4.7 2.3-7 1-2.5-1.3-3.3-4.2-1.3-6.3"/><path fill="none" stroke="#000" stroke-linecap="round" stroke-linejoin="round" d="M871.1 257.5c1.8-1.8 4.7-2.3 7-1 2.5 1.3 3.3 4.2 1.3 6.3m105.2 176.3c0-4.3-4.7-9.4-7.5-11.7-1.8-1.5-3.8-2.8-6-3.8-1.7-.6-5.3-1.6-6.5.6-2.2 4 3.5 10.1 5.8 12.3 2.3 2.2 8.7 7.1 12.6 5.4m1.4-1.5c.1-.4.2-.9.2-1.3m101.3-102.8c0-5.8-6.3-12.8-10.1-16-2.5-2.2-5.2-3.9-8.2-5.3-2.3-1-6.9-2.5-9.1 0m26.4 24.5c.8-1 1.1-1.8 1.1-3.1"/><path fill="none" stroke="#000" stroke-linecap="round" stroke-linejoin="round" d="M987.6 437.1c-2.5-5.6-6.1-9.4-10.9-12.9-2.3-1.7-4.6-3.1-7.4-4.2-2.2-.8-6-1.8-8.1.4-2 2.3-.8 5.9.2 8.1 1.2 2.7 2.8 4.8 4.7 7 3.9 4.4 8.3 7.1 13.8 9.8 5.5 2.9 9.2-5.2 7.7-8.2zM859 575.4c0 3.3-3.1 3.5-5.7 2.8-2.5-.8-4.6-2-6.7-3.5-3-2.4-8.2-7.7-8.2-12.3 0-3.3 3.1-3.5 5.6-2.8 2.6.8 4.6 2 6.7 3.5 3.1 2.4 8.3 7.7 8.3 12.3z"/><path fill="none" stroke="#000" stroke-linecap="round" stroke-linejoin="round" d="M863 577.9c0-6.3-7.3-13.9-11.4-17.1-2.8-2.3-5.7-4-9.2-5.1-3.5-1.1-7.8-.8-7.8 3.9 0 6.3 7.3 13.9 11.4 17.1 2.8 2.3 5.7 4 9.2 5.1 3.5 1.1 7.8.8 7.8-3.9zm265.8-130.1c-45.7 47.7-94.5 92.1-137.5 142.7m112.9 95l-112.8-71.9m0-23.1c0 8.7 18.7 22.8 23.7 26.7 9.7 7.4 19.7 14.3 29.7 21.2 20 13.8 40.3 27.1 59.6 42m137.3-143.9l-137.5 148.9m0 .1v-5.1m0 0c43.2-54.1 93.5-101.6 137.5-154.9m0 11v-11.1M1241.7 525.5c-18.3-14.2-38.3-25.2-57.8-37.1-9.8-6-19.5-12.1-28.8-18.7-4.7-3.2-9.4-6.6-13.9-10.1-3.1-2.4-6.1-4.7-8.9-7.4-.9-.9-3.3-2.7-3.3-4.3m-.2-.1v-61.1m0 .1l-137.4 149m0 54.7v-54.7m75.4-37.9c.2-1.4-.5-2.5-1.9-1.7-1.1.6-1.8 1.5-2.7 2.4-1.6 1.9-2.8 3.8-3.2 6.3-.2 1.4.5 2.5 1.9 1.7 1.1-.6 1.8-1.5 2.7-2.4 1.6-1.8 2.8-3.8 3.2-6.3zm62-111.1l-5.5-3.5m0-.1l-137.5 149m5.6 3.6l-5.6-3.5m0-.1V610m0 0l5.6 3.5"/><path fill="none" stroke="#000" stroke-linecap="round" stroke-linejoin="round" d="M1065.6 499c-.4 1.7-1.1 3.1-2.3 4.4-1.1 1.4-3.8 2.9-3.1.5.4-1.7 1.1-3.1 2.3-4.4 1.1-1.3 3.5-2.8 3.1-.5zM771 389.8l54.5 39.6m-9.7 10.4l-53.1-38.7m.2-133.6c2.7-2.9 1.5-6.7-1.8-8.5-2.9-1.5-7-1.2-9.4 1.4"/><path fill="none" stroke="#000" stroke-linecap="round" stroke-linejoin="round" d="M751.8 260.4c-2.6 2.9-1.5 6.7 1.8 8.5 2.9 1.5 7 1.2 9.4-1.4"/><path fill="none" stroke="#000" stroke-linecap="round" stroke-linejoin="round" d="M761.5 266.7c1.9-2.2 1.1-5.1-1.3-6.3-2.3-1.2-5.2-.9-7 1m0-.1c-1.9 2.2-1.1 5.1 1.3 6.3 2.3 1.2 5.2.9 7-1m212.6 137.1c1.5-1.6 2.4-3.2 2.8-5.4m-27.8-.6c1.6 11.3 17.7 13.9 25.1 5.9"/><path fill="none" stroke="#000" stroke-linecap="round" stroke-linejoin="round" d="M974.1 403.3c5.3-5.7 3-13.4-3.5-16.9-5.8-3.1-14-2.3-18.6 2.7-5.3 5.7-3 13.4 3.5 16.9 5.8 3.1 14 2.3 18.6-2.7z"/><path fill="none" stroke="#000" stroke-linecap="round" stroke-linejoin="round" d="M973.6 402.9c-4.4 4.7-12.1 5.5-17.7 2.6-6.2-3.3-8.4-10.6-3.3-16 4.4-4.7 12.1-5.5 17.7-2.6 6.1 3.3 8.2 10.6 3.3 16zm-24.5-4.6c-11.2 11.4-23.1 21.9-35.1 32.6m0 .1l10.2-1.6m0 0c8.6-9.1 17.2-18.3 25.3-27.8m57 15.1c-10.2-6.8-20.4-13.5-29.7-21.7m-20.2-10.3l-2 2.3m-4.6 4.8l-14.7 16m0 0L914 431m35.7-29.2l-7.1 7.5m52.3 7.3L975.3 404M958 385.4l-1.4-.6m-7.3 9.1l-14 14m38.8-2.4c2-2 2.9-4.2 2.9-7.1"/><path fill="none" stroke="#000" stroke-linecap="round" stroke-linejoin="round" d="M949.1 398.3c0 5.9 4.9 10 10.1 11.2 5.2 1.3 11.3 0 15.1-4.1m-11.5 25.7l-4.9-3.2m56.6 37.5l-31.3-19.6m-25.3-18l-13.8 14.9M914 469.8l1.1.6m30.7 19.7l49.7 31.7m7.3-7.9v-26.2M914 431l88.8 56.7M914 469.8V431m131.4 36.7v-26.3m-42.6 46.2l42.6-46.2m-18 29.8c-1-.5-2.5 1-3 1.5-.9.9-1.5 1.8-2.2 2.8-.8 1.2-3.2 4.9-1.7 6.6m-62.6-54.3v-18.7m-34.1 20.8l.4-.5m73-11.3l38.4 24.4m0 0l-34.1 37m0 0l-77.7-49.6m26.9-37.3c-.1.3-.3.6-.4 1.1m-.1 0c-.1.3-.2.6-.2 1m-69.5-83.1c-5.3-4-11.8-11.2-12.3-18.6m14.1-.6c.8 2.8 4.4 6.3 6.6 8m-20.7-8.1V261m14.1-.3v31.6m30.1 42.9l-31.7-23.4m107.5 79.4l-56.7-43.7m8.9-9.5l57.4 42.9M889 300.4l33.1 24.3m59.6 73.5l76.7-83.1m26.5 24.4l-73.9 80M835.5 556.7l97.2-105.4m-111.4 15.8l-57.8 62.6m237.9-258.5c0-3.4-3.8-7.6-6-9.6-1.5-1.3-3-2.4-4.8-3.1-1.4-.5-4.1-1.5-5.5 0M761.8 526.3c0 1.9-1.8 2.2-3.3 1.6-1.5-.4-2.7-1.2-4-2.2-1.8-1.4-4.8-4.6-4.8-7.3 0-1.9 1.8-2.2 3.3-1.6 1.5.4 2.7 1.2 4 2.2 1.6 1.4 4.8 4.6 4.8 7.3z"/><path fill="none" stroke="#000" stroke-linecap="round" stroke-linejoin="round" d="M764.1 527.8c0-3.8-4.3-8.2-6.8-10.1-1.7-1.3-3.4-2.4-5.5-3-2.2-.6-4.6-.4-4.6 2.4 0 3.8 4.3 8.2 6.8 10.1 1.7 1.3 3.4 2.4 5.5 3 2 .6 4.6.4 4.6-2.4zm41.4-75.2l179.6-194.1m16.4 13.8L822 466.3m-74.2 49l57.7-62.7m221.9 18.6l9.2 5.9m-8.7 9.6l-7.3-4.6m-258-81.1c-5.3-4-11.8-11.2-12.3-18.6m14-.7c.8 2.8 4.4 6.3 6.6 8m-20.5-8.1V264.7m13.9-.3v117.2M977 397.5v.9"/><g fill="#F05A22"><path d="M763.9 187.9h-16.1v-2.7h16.1v2.7zm-15.6-.6h15.1v-1.6h-15.1v1.6z"/><path d="M762.5 185.7h-13.2l.6-9.5h.5l-.5 8.9h12l-.5-8.9h.5"/><path d="M755.9 177.9c-6.9 0-12.4-4.8-12.4-10.8v-.2h24.7v.2c0 5.9-5.5 10.8-12.3 10.8zM744 167.3c.2 5.5 5.5 9.9 11.8 9.9 6.5 0 11.7-4.4 11.8-10l-23.6.1z"/><path d="M769.3 167.4h-26.8v-3.2h26.8v3.2zm-26.4-.5h25.8v-2.2H743v2.2h-.1z"/><path d="M766 164.8h-20.1l-2.4-15.1h24.9l-2.4 15.1zm-19.8-.6h19.2l2.3-14h-23.8l2.3 14z"/><path d="M769.3 150.2h-26.8V147h26.8v3.2zm-26.4-.5h25.8v-2.2h-25.8v2.2zm21.2 5.4c-.9 0-1.5-.6-1.5-1.5s.6-1.5 1.5-1.5 1.5.6 1.5 1.5c.1.7-.6 1.5-1.5 1.5zm0-2.6c-.5 0-1 .4-1 1 0 .5.4 1 1 1s1-.4 1-1c.1-.6-.3-1-1-1z"/><path d="M769 147.3v2.7h-1l-2.3 14.5h3.3v2.7h-1c0 4-2.6 7.4-6.3 9.1l.5 9.1h1.4v2.2H748v-2.2h1.5l.5-9c-3.9-1.7-6.5-5.2-6.5-9.1h-1v-2.8h3.2l-2.4-14.5h-1v-2.7H769m1-1h-28.4v4.8h1.1l1.9 12.4h-3.1v4.8h1.1c.4 3.7 2.8 6.9 6.3 8.7l-.4 7.3h-1.6v4.3h17.7v-4.3h-1.5l-.4-7.4c3.5-1.9 5.8-5.2 6.2-8.7h1.1v-4.7h-3.1l1.9-12.4h1.2v-4.8z"/></g><path fill="none" stroke="#000" stroke-linecap="round" stroke-linejoin="round" d="M1033.7 434l11.7 7.4-38.9-24.7M219.1 289.5c-.6-.8.6-2.9.9-3.4.6-1.1 1.3-2.2 2-3.1.8-1 1.5-1.9 2.4-2.8.4-.4.9-.9 1.4-1.3.3-.2 1.2-1 1.6-.6m-20.6-8.3c.2 7.7 13.9 7.7 14 0m-57.4 84.1c-.1 7.7-13.8 7.7-14 0m20.7 8.1c-.4-.3-1.4.4-1.6.6-.5.4-1 .9-1.4 1.3-.9.9-1.6 1.8-2.4 2.8s-1.4 2-2 3.1c-.3.5-1.5 2.6-1 3.4m719-61.7c-.6-.8.6-2.9.9-3.4.6-1.1 1.3-2.2 2-3.1s1.5-1.9 2.4-2.8c.4-.4.9-.9 1.4-1.3.3-.2 1.2-1 1.6-.6m-20.8-8.2c.2 7.7 13.9 7.7 14 0m-117.9 89.3c-.1 7.7-13.8 7.7-14 0m20.7 8.2c-.4-.3-1.4.4-1.6.6-.5.4-1 .9-1.4 1.3-.9.9-1.6 1.8-2.4 2.8s-1.4 2-2 3.1c-.3.5-1.5 2.6-1 3.4m-448.4 15.6c.9.5 1.6 1.1 2.5 1.5m678.2-1.5c.9.5 1.6 1.1 2.5 1.5"/><path d="M302.3 204.2c-1.5 1.4-3.3 2.2-5.5 2.2s-4-.7-5.5-2.2c-1.5-1.4-2.2-3.2-2.2-5.4 0-2.1.7-3.9 2.2-5.4 1.5-1.4 3.3-2.2 5.5-2.2s4 .7 5.5 2.2c1.5 1.4 2.2 3.2 2.2 5.4s-.8 4-2.2 5.4zm-1.1-5.4c0-1.3-.4-2.4-1.3-3.3-.8-.9-1.9-1.4-3.1-1.4-1.2 0-2.2.5-3.1 1.4-.8.9-1.3 2-1.3 3.3 0 1.3.4 2.4 1.3 3.3.8.9 1.9 1.4 3.1 1.4 1.2 0 2.2-.5 3.1-1.4.8-.9 1.3-2 1.3-3.3zM312.3 200.9l3.7-9.3h3.5l-5.9 14.6h-2.8l-5.9-14.6h3.5l3.9 9.3zM331.8 191.6v2.9h-7.3v3h6.5v2.8h-6.5v3h7.5v2.9h-10.8v-14.6h10.6zM346.8 196.4c0 2.3-.9 3.9-2.8 4.5l3.7 5.2h-4l-3.2-4.7h-2.3v4.7H335v-14.6h5.5c2.3 0 3.9.4 4.9 1.2s1.4 2 1.4 3.7zm-3.9 1.8c.4-.4.6-.9.6-1.7 0-.8-.2-1.3-.6-1.6-.4-.3-1.1-.4-2.2-.4h-2.4v4.3h2.4c1-.1 1.8-.3 2.2-.6zM353.6 194.5c-.3.3-.5.6-.5 1s.2.8.6 1c.4.3 1.3.5 2.7.9 1.4.3 2.5.9 3.2 1.5.8.7 1.1 1.7 1.1 3s-.5 2.4-1.5 3.2c-1 .8-2.3 1.2-3.9 1.2-2.3 0-4.4-.9-6.3-2.6l1.9-2.4c1.6 1.4 3 2.1 4.4 2.1.6 0 1.1-.1 1.4-.4.3-.3.5-.6.5-1s-.2-.8-.5-1c-.4-.3-1.1-.5-2.2-.8-1.7-.4-2.9-.9-3.7-1.6-.8-.6-1.2-1.7-1.2-3.1 0-1.4.5-2.5 1.5-3.2 1-.8 2.2-1.1 3.7-1.1 1 0 2 .2 2.9.5 1 .3 1.8.8 2.6 1.4l-1.7 2.4c-1.3-1-2.6-1.4-3.9-1.4-.4 0-.8.2-1.1.4zM369.6 194.4v11.8h-3.3v-11.8h-4.1v-2.8h11.5v2.8h-4.1zM388 204.2c-1.5 1.4-3.3 2.2-5.5 2.2s-4-.7-5.5-2.2c-1.5-1.4-2.2-3.2-2.2-5.4 0-2.1.7-3.9 2.2-5.4 1.5-1.4 3.3-2.2 5.5-2.2s4 .7 5.5 2.2 2.2 3.2 2.2 5.4-.8 4-2.2 5.4zm-1.1-5.4c0-1.3-.4-2.4-1.3-3.3-.8-.9-1.9-1.4-3.1-1.4-1.2 0-2.2.5-3.1 1.4-.8.9-1.3 2-1.3 3.3 0 1.3.4 2.4 1.3 3.3.8.9 1.9 1.4 3.1 1.4 1.2 0 2.2-.5 3.1-1.4.8-.9 1.3-2 1.3-3.3zM404.8 196.4c0 2.3-.9 3.9-2.8 4.5l3.7 5.2h-4l-3.2-4.7h-2.3v4.7h-3.3v-14.6h5.5c2.3 0 3.9.4 4.9 1.2s1.5 2 1.5 3.7zm-3.9 1.8c.4-.4.6-.9.6-1.7 0-.8-.2-1.3-.6-1.6-.4-.3-1.1-.4-2.2-.4h-2.4v4.3h2.4c1-.1 1.8-.3 2.2-.6zM414 194.4v11.8h-3.3v-11.8h-4.1v-2.8h11.5v2.8H414zM430.6 192.9c1 .9 1.5 2.2 1.5 4 0 1.8-.5 3.1-1.6 4-1.1.8-2.7 1.3-4.8 1.3h-1.9v4.1h-3.3v-14.6h5.2c2.3-.1 3.9.3 4.9 1.2zm-2.4 5.8c.4-.4.6-1.1.6-1.9 0-.8-.3-1.4-.8-1.8-.5-.4-1.3-.5-2.4-.5h-1.9v4.9h2.2c1.2-.1 1.9-.3 2.3-.7zM438.6 202.4c.5.7 1.3 1 2.2 1 .9 0 1.6-.3 2.2-1 .5-.7.8-1.6.8-2.8v-8.1h3.3v8.2c0 2.1-.6 3.7-1.8 4.9-1.2 1.1-2.7 1.7-4.5 1.7-1.8 0-3.3-.6-4.5-1.7-1.2-1.1-1.8-2.8-1.8-4.9v-8.2h3.3v8.1c0 1.2.2 2.2.8 2.8zM456.6 194.4v11.8h-3.3v-11.8h-4.1v-2.8h11.5v2.8h-4.1z"/></svg>