<svg xmlns="http://www.w3.org/2000/svg" viewBox="0 0 1190.5 596"><path fill="#004261" d="M234.3 58.1c0-6.2-5-11.3-11.3-11.3-.7 0-1.3.1-2 .2-1.5-1.8-3.8-2.9-6.3-2.9-1.5 0-2.9.4-4.1 1.1-1.8-2.3-4.6-3.9-7.7-3.9-5.2 0-9.4 4-9.7 9.1-5.2.1-9.3 4.3-9.3 9.5s4.3 9.5 9.5 9.5H224.6v-.1c5.4-.8 9.7-5.5 9.7-11.2zM846.5 78.8c0-6.2-5-11.3-11.3-11.3-.7 0-1.3.1-2 .2-1.5-1.8-3.8-2.9-6.3-2.9-1.5 0-2.9.4-4.1 1.1-1.8-2.3-4.6-3.9-7.7-3.9-5.2 0-9.4 4-9.7 9.1-5.2.1-9.3 4.3-9.3 9.5s4.3 9.5 9.5 9.5H836.8V90c5.5-.7 9.7-5.5 9.7-11.2z"/><path fill="none" stroke="#F9CA03" stroke-width="1.417" stroke-linecap="round" stroke-linejoin="round" stroke-miterlimit="10" stroke-dasharray="0,1.9842" d="M268.4 296.7V124.5H427"/><path fill="none" stroke="#004261" stroke-width=".992" stroke-linecap="round" stroke-linejoin="round" d="M1003.2 402.2L987.5 392"/><path fill="#004261" d="M1003.1 398.8l7.5 8.2-10.6-3.4"/><path fill="none" stroke="#204E65" stroke-width="1.417" stroke-linecap="round" stroke-linejoin="round" stroke-dasharray="0,2.8347" d="M987.5 392.6l-87.8-53.3"/><path fill="none" stroke="#204E65" stroke-width=".992" stroke-linecap="round" stroke-linejoin="round" d="M377.5 219.5l30-32.5"/><path fill="#204E65" d="M381 220l-9.4 5.9 5.2-9.8"/><path fill="none" stroke="#F05A22" stroke-linecap="round" stroke-linejoin="round" d="M145.4 123.7v-21"/><path fill="#F05A22" d="M148.4 121.7l-2.9 10.8-3-10.8"/><path fill="none" stroke="#204E65" stroke-linecap="round" stroke-linejoin="round" d="M198.8 128.6v-19.8"/><path fill="#204E65" d="M201.7 126.6l-2.9 10.9-2.9-10.9"/><path fill="none" stroke="#204E65" stroke-width=".992" stroke-linecap="round" stroke-linejoin="round" d="M162.9 452.1l-28.3 30.6"/><path fill="#204E65" d="M133.9 479.3l-5.2 9.9 9.4-6"/><path fill="none" stroke="#204E65" stroke-width="1.417" stroke-linecap="round" stroke-linejoin="round" stroke-dasharray="0,2.8347" d="M198.8 151.4v25.4c0 4.7 3.1 10.7 6.9 13.5L323 274.9"/><path fill="none" stroke="#F05A22" stroke-width="1.417" stroke-linecap="round" stroke-linejoin="round" stroke-dasharray="0,2.8347" d="M145.4 149.1V254c0 4.7 3.1 10.7 6.9 13.5l117.3 84.7"/><path fill="none" stroke="#204E65" stroke-width="1.417" stroke-linecap="round" stroke-linejoin="round" stroke-dasharray="0,2.8347" d="M370.6 225.9L161.9 452.1"/><path fill="none" stroke="#F05A22" stroke-width=".992" stroke-linecap="round" stroke-linejoin="round" d="M369.6 217.4l30-32.5"/><path fill="#F05A22" d="M373.1 217.9l-9.4 6 5.2-9.9"/><path fill="none" stroke="#F05A22" stroke-width=".992" stroke-linecap="round" stroke-linejoin="round" d="M155 450.1l-28.3 30.6"/><path fill="#F05A22" d="M126 477.3l-5.2 9.8 9.4-5.9"/><path fill="none" stroke="#F05A22" stroke-width="1.417" stroke-linecap="round" stroke-linejoin="round" stroke-dasharray="0,2.8347" d="M362.7 223.9L154 450.1"/><path fill="none" stroke="#204E65" stroke-width=".992" stroke-linecap="round" stroke-linejoin="round" d="M1010.7 219.5l29.9-32.5"/><path fill="#204E65" d="M1014.1 220l-9.4 5.9 5.2-9.8"/><path fill="none" stroke="#F05A22" stroke-linecap="round" stroke-linejoin="round" d="M704.4 149.3v-24"/><path fill="#F05A22" d="M707.3 147.3l-2.9 10.9-2.9-10.9"/><path fill="none" stroke="#204E65" stroke-linecap="round" stroke-linejoin="round" d="M814 149.3v-22.8"/><path fill="#204E65" d="M816.9 147.3l-2.9 10.9-2.9-10.9"/><path fill="none" stroke="#204E65" stroke-width=".992" stroke-linecap="round" stroke-linejoin="round" d="M790 458.6l-28.2 30.6"/><path fill="#204E65" d="M786.6 458.1l9.4-6-5.2 9.9"/><path fill="none" stroke="#204E65" stroke-width="1.417" stroke-linecap="round" stroke-linejoin="round" stroke-dasharray="0,2.8347" d="M869.9 244.5l68.3 51.1M814 172.1v23.4c0 4.7 3 10.8 6.7 13.7l31.1 23.8"/><path fill="none" stroke="#F05A22" stroke-width="1.417" stroke-linecap="round" stroke-linejoin="round" stroke-dasharray="0,2.8347" d="M704.4 174.8v104.9c0 4.7 3.1 10.7 6.9 13.4l61.8 43.8"/><path fill="none" stroke="#204E65" stroke-width="1.417" stroke-linecap="round" stroke-linejoin="round" stroke-dasharray="0,2.8347" d="M1003.7 225.9L795 452.1"/><path fill="none" stroke="#F05A22" stroke-width=".992" stroke-linecap="round" stroke-linejoin="round" d="M932.2 163.2l7.4-8"/><path fill="#F05A22" d="M935.7 163.7l-9.4 6 5.1-9.9"/><path fill="none" stroke="#F05A22" stroke-width=".992" stroke-linecap="round" stroke-linejoin="round" d="M704.8 409.2l-14.4 15.5"/><path fill="#F05A22" d="M689.6 421.3l-5.1 9.9 9.4-6"/><path fill="none" stroke="#F05A22" stroke-width="1.417" stroke-linecap="round" stroke-linejoin="round" stroke-dasharray="0,2.8347" d="M959.9 132.3L704.8 409.2"/><ellipse fill="#F9CA03" cx="262.8" cy="295" rx="12.6" ry="10.2"/><path opacity=".4" fill="#F05A22" d="M263.6 307.1c-.6.1-1.2.1-1.8.1-3.6 0-6.9-1.6-9.2-4l-23 25.1 37.9 23.3 25.1-27.3-29-17.2z"/><path fill="#004261" fill-opacity=".2" stroke="#004261" stroke-width=".709" stroke-miterlimit="10" d="M1027 504.6L1154.9 366l-105-67-127.8 138.6 30.1 55.7zM394.2 504.6L522.1 366l-105-67-127.8 138.6 30.1 55.7z"/><path fill="none" stroke="#000" stroke-linecap="round" stroke-linejoin="round" d="M286.3 364.2l12.8-13.9M259 368.4c2.3-2.5.1-7-1.1-9.2-1.7-2.9-3.8-5.3-6.2-7.6-2.4-2.3-5-4.1-8-5.6-2.2-1.1-6.9-2.8-9.2-.4M259 368.4l-90.4 97.9M249.6 296.4v-.8M275.3 292.1c6.4 5.9 13.1 11.3 20.2 16.2M203.9 150.5c-2.2 2.3-6 2.7-8.7 1.3-3-1.6-4.1-5.2-1.7-7.9"/><path fill="none" stroke="#000" stroke-linecap="round" stroke-linejoin="round" d="M193.6 144c2.2-2.3 6-2.7 8.7-1.3 3 1.6 4.1 5.2 1.7 7.9"/><path fill="none" stroke="#000" stroke-linecap="round" stroke-linejoin="round" d="M202.7 149.7c-1.7 1.7-4.4 2.1-6.5.9-2.3-1.2-3.1-3.9-1.2-5.9"/><path fill="none" stroke="#000" stroke-linecap="round" stroke-linejoin="round" d="M194.9 144.8c1.7-1.7 4.4-2.1 6.5-.9 2.3 1.2 3.1 3.9 1.2 5.9M282.7 334.4c0-4-4.4-8.7-7-10.9-1.7-1.4-3.5-2.6-5.6-3.5-1.6-.6-4.9-1.5-6 .6-2 3.7 3.3 9.4 5.4 11.4 2.1 2 8.1 6.6 11.7 5M282.5 335.6c.1-.4.2-.8.2-1.2M376.8 238.8c0-5.4-5.9-11.9-9.4-14.9-2.3-2-4.8-3.6-7.6-4.9-2.1-.9-6.4-2.3-8.5 0M375.9 241.7c.7-.9 1-1.7 1-2.9"/><path fill="none" stroke="#000" stroke-linecap="round" stroke-linejoin="round" d="M278.3 340.2c-5.3-1.9-9.1-5-12.8-9.1-1.8-2-3.3-4.1-4.4-6.5-.9-2-2.1-5.4-.2-7.5 1.9-2.1 5.5-1.1 7.5-.4 2.5.9 4.7 2.3 6.9 3.9 4.4 3.3 7.9 6.8 10.1 12M165.8 461.1c0 3.1-2.9 3.3-5.3 2.6-2.3-.7-4.3-1.9-6.2-3.3-2.8-2.2-7.6-7.2-7.6-11.4 0-3.1 2.9-3.3 5.3-2.6 2.4.7 4.3 1.9 6.2 3.3 2.8 2.2 7.6 7.2 7.6 11.4z"/><path fill="none" stroke="#000" stroke-linecap="round" stroke-linejoin="round" d="M169.6 463.5c0-5.9-6.8-12.9-10.6-15.9-2.6-2.1-5.3-3.7-8.6-4.7s-7.3-.7-7.3 3.6c0 5.9 6.8 12.9 10.6 15.9 2.6 2.1 5.3 3.7 8.6 4.7s7.3.7 7.3-3.6zM416.8 342.5c-42.5 44.4-87.9 85.7-127.9 132.7M393.9 563.5l-105-66.9M288.9 475.2c0 8.1 17.4 21.2 22 24.8 9 6.9 18.3 13.3 27.6 19.7 18.6 12.8 37.5 25.2 55.4 39.1M521.7 425L393.9 563.5M393.9 563.5v-4.7M393.9 558.8c40.2-50.3 87-94.5 127.9-144.1M521.7 425v-10.3M521.7 414.7c-17-13.2-35.6-23.4-53.8-34.5-9.1-5.6-18.1-11.3-26.8-17.4-4.4-3-8.7-6.1-12.9-9.4-2.9-2.2-5.7-4.4-8.3-6.9-.8-.8-3.1-2.5-3.1-4M416.8 342.5v-56.8M416.8 285.7L288.9 424.3M288.9 475.2v-50.9M359.1 389.1c.2-1.3-.5-2.3-1.8-1.6-1 .6-1.7 1.4-2.5 2.2-1.5 1.8-2.6 3.5-3 5.9-.2 1.3.5 2.3 1.8 1.6 1-.6 1.7-1.4 2.5-2.2 1.5-1.8 2.6-3.6 3-5.9zM416.8 285.7l-5.2-3.3M411.6 282.4L283.8 421M288.9 424.3l-5.1-3.3M283.8 421v72.3M283.8 493.3l5.1 3.3"/><path fill="none" stroke="#000" stroke-linecap="round" stroke-linejoin="round" d="M358 390.1c-.4 1.6-1 2.9-2.1 4.1-1 1.3-3.5 2.7-2.9.5.4-1.6 1-2.9 2.1-4.1 1-1.3 3.3-2.7 2.9-.5zM158.2 262.9l69.3 51.2M219.3 324.2l-68.8-50.9M150.6 149.1c2.5-2.7 1.4-6.2-1.7-7.9-2.7-1.4-6.5-1.1-8.7 1.3"/><path fill="none" stroke="#000" stroke-linecap="round" stroke-linejoin="round" d="M140.3 142.5c-2.4 2.7-1.4 6.2 1.7 7.9 2.7 1.4 6.5 1.1 8.7-1.3"/><path fill="none" stroke="#000" stroke-linecap="round" stroke-linejoin="round" d="M149.3 148.3c1.8-2 1-4.7-1.2-5.9-2.1-1.1-4.8-.8-6.5.9M141.6 143.4c-1.8 2-1 4.7 1.2 5.9 2.1 1.1 4.8.8 6.5-.9M272.9 301.4c1.4-1.5 2.2-3 2.6-5M249.6 295.9c1.5 10.5 16.5 12.9 23.3 5.5"/><path fill="none" stroke="#000" stroke-linecap="round" stroke-linejoin="round" d="M272.9 301.1c4.9-5.3 2.8-12.5-3.3-15.7-5.4-2.9-13-2.1-17.3 2.5-4.9 5.3-2.8 12.5 3.3 15.7 5.4 2.9 13 2.1 17.3-2.5z"/><path fill="#F9CA03" stroke="#000" stroke-linecap="round" stroke-linejoin="round" d="M250.4 293c2.6-11.6 22.3-11.2 24.4.5"/><path fill="none" stroke="#000" stroke-linecap="round" stroke-linejoin="round" d="M272.4 300.7c-4.1 4.4-11.3 5.1-16.5 2.4-5.8-3.1-7.8-9.9-3.1-14.9 4.1-4.4 11.3-5.1 16.5-2.4 5.7 3.1 7.7 9.9 3.1 14.9zM249.6 296.4C239.1 307 228 316.9 217 326.8M217 326.8l9.5-1.5M226.5 325.3c8-8.5 16-17 23.5-25.9M303 313.5c-9.5-6.3-19-12.6-27.6-20.2M256.6 283.8l-1.9 2.1M250.5 290.4l-13.7 14.9M236.8 305.3L217 326.8M250.1 299.7l-6.5 7M292.2 313.4l-18.3-11.7M257.8 284.4l-1.2-.6M249.8 292.3l-13 13M272.9 303.1c1.9-1.9 2.7-3.9 2.7-6.6"/><path fill="none" stroke="#000" stroke-linecap="round" stroke-linejoin="round" d="M249.6 296.4c0 5.5 4.6 9.3 9.4 10.4 4.8 1.2 10.5 0 14-3.8M311.2 358l-12.1-7.7M262.4 326.9l-4.6-3M257.8 323.9L245 337.8M217 362.9l1 .6M246.6 381.8l46.2 29.5M299.6 403.9v-24.4M217 326.8l82.6 52.7M217 362.9v-36.1M339.2 361v-24.5M299.6 379.5l39.6-43M322.5 364.2c-.9-.5-2.3.9-2.8 1.4-.8.8-1.4 1.7-2 2.6-.7 1.1-3 4.6-1.6 6.1M257.8 323.9v-17.4M226.1 325.8l.4-.5M294.4 314.8l35.7 22.7M330.1 337.5l-31.7 34.4M298.4 371.9l-72.3-46.1M299.1 350.3v-23.7M272.5 355.4l26.6-28.8M299.1 326.6l-5.2-3.3M293.9 323.3l-26.6 28.8M251.1 291.1c-.1.3-.3.6-.4 1M250.6 292.1c-.1.3-.2.6-.2.9M203.7 195.1c-4.9-3.7-11-10.4-11.4-17.3M205.3 177.2c.7 2.6 4.1 5.9 6.1 7.4M192.3 177.1V148M205.3 147.7v29.4M303.8 269.1l-100-73.9M211.5 184.7l101.2 74.8M280 296.3l71.3-77.3M375.9 241.7l-68.7 74.4M144 443.7l90.4-98M322.5 364.2l8.6 5.5M322.9 378.6l-6.8-4.3M150.4 273.2c-4.9-3.7-11-10.4-11.4-17.3M152 255.4c.7 2.6 4.1 5.9 6.1 7.4M139 255.3V146.5M152 146.2v109.1M275.6 295.7v.8"/><g fill="#F05A22"><path d="M151.6 75h-15v-2.5h15V75zm-14.5-.5h14V73h-14v1.5z"/><path d="M150.3 73H138l.6-8.7h.5l-.6 8.2h11.3l-.6-8.2h.5"/><path d="M144.1 65.7c-6.4 0-11.5-4.5-11.5-10v-.2h23v.2c0 5.5-5.1 10-11.5 10zM133 56c.2 5.1 5.1 9.2 11 9.2 6 0 10.9-4.1 11-9.3l-22 .1z"/><path d="M156.6 56h-24.9v-3h24.9v3zm-24.5-.5H156v-2h-23.9v2z"/><path d="M153.5 53.5h-18.7l-2.2-14h23.2l-2.3 14zm-18.4-.5H153l2.1-13H133l2.1 13z"/><path d="M156.6 40.1h-24.9v-3h24.9v3zm-24.5-.5H156v-2h-23.9v2zM151.8 44.5c-.8 0-1.4-.6-1.4-1.4 0-.8.6-1.4 1.4-1.4.8 0 1.4.6 1.4 1.4.1.8-.6 1.4-1.4 1.4zm0-2.4c-.5 0-.9.4-.9.9s.4.9.9.9.9-.4.9-.9c.1-.4-.4-.9-.9-.9z"/><path d="M156.3 37.3v2.5h-.9l-2.2 13.5h3.1v2.5h-.9c0 3.7-2.4 6.9-5.9 8.5l.5 8.5h1.3v2h-14.5v-2h1.4l.5-8.4c-3.6-1.6-6-4.8-6-8.5h-.9v-2.5h3l-2.2-13.5h-.9v-2.5h24.6m1-1.1h-26.4v4.5h1l1.8 11.5h-2.9v4.5h1c.4 3.4 2.6 6.4 5.9 8.1l-.4 6.8h-1.5v4h16.5v-4H151l-.4-6.9c3.3-1.8 5.4-4.8 5.8-8.1h1v-4.5h-2.9l1.8-11.5h1.1v-4.4h-.1z"/></g><path fill="none" stroke="#000" stroke-linecap="round" stroke-linejoin="round" d="M328.3 329.6l10.9 6.9-36.2-23M892.1 368.4c2.3-2.5.1-7-1.1-9.2-1.7-2.9-3.8-5.3-6.2-7.6-2.4-2.3-5-4.1-8-5.6-2.2-1.1-6.9-2.8-9.2-.4M892.1 368.4l-90.4 97.9M882.7 296.4v-.8M908.4 292.1c6.4 5.9 13.1 11.3 20.2 16.2M819.2 171.3c-2.2 2.3-6 2.7-8.7 1.3-3-1.6-4.1-5.2-1.7-7.9M808.9 164.7c2.2-2.3 6-2.7 8.7-1.3 3 1.6 4.1 5.2 1.7 7.9"/><path fill="none" stroke="#000" stroke-linecap="round" stroke-linejoin="round" d="M817.9 170.4c-1.7 1.7-4.4 2.1-6.5.9-2.3-1.2-3.1-3.9-1.2-5.9"/><path fill="none" stroke="#000" stroke-linecap="round" stroke-linejoin="round" d="M810.2 165.5c1.7-1.7 4.4-2.1 6.5-.9 2.3 1.2 3.1 3.9 1.2 5.9M915.8 334.4c0-4-4.4-8.7-7-10.9-1.7-1.4-3.5-2.6-5.6-3.5-1.6-.6-4.9-1.5-6 .6-2 3.7 3.3 9.4 5.4 11.4 2.1 2 8.1 6.6 11.7 5M915.6 335.6c.1-.4.2-.8.2-1.2M1010 238.8c0-5.4-5.9-11.9-9.4-14.9-2.3-2-4.8-3.6-7.6-4.9-2.1-.9-6.4-2.3-8.5 0M1009 241.7c.7-.9 1-1.7 1-2.9"/><path fill="none" stroke="#000" stroke-linecap="round" stroke-linejoin="round" d="M918.5 332.5c-2.3-5.2-5.7-8.7-10.1-12-2.1-1.6-4.3-2.9-6.9-3.9-2-.7-5.6-1.7-7.5.4-1.9 2.1-.7 5.5.2 7.5 1.1 2.5 2.6 4.5 4.4 6.5 3.6 4.1 7.7 6.6 12.8 9.1 5.1 2.7 8.5-4.8 7.1-7.6zM798.9 461.1c0 3.1-2.9 3.3-5.3 2.6-2.3-.7-4.3-1.9-6.2-3.3-2.8-2.2-7.6-7.2-7.6-11.4 0-3.1 2.9-3.3 5.2-2.6 2.4.7 4.3 1.9 6.2 3.3 2.9 2.2 7.7 7.2 7.7 11.4z"/><path fill="none" stroke="#000" stroke-linecap="round" stroke-linejoin="round" d="M802.7 463.5c0-5.9-6.8-12.9-10.6-15.9-2.6-2.1-5.3-3.7-8.6-4.7s-7.3-.7-7.3 3.6c0 5.9 6.8 12.9 10.6 15.9 2.6 2.1 5.3 3.7 8.6 4.7s7.3.7 7.3-3.6zM1049.9 342.5c-42.5 44.4-87.9 85.7-127.9 132.7M1027 563.5l-104.9-66.9M922.1 475.2c0 8.1 17.4 21.2 22 24.8 9 6.9 18.3 13.3 27.6 19.7 18.6 12.8 37.5 25.2 55.4 39.1M1154.9 425L1027 563.5M1027 563.5v-4.7M1027 558.8c40.2-50.3 87-94.5 127.9-144.1M1154.9 425v-10.3"/><path fill="none" stroke="#000" stroke-linecap="round" stroke-linejoin="round" d="M1154.9 414.7c-17-13.2-35.6-23.4-53.8-34.5-9.1-5.6-18.1-11.3-26.8-17.4-4.4-3-8.7-6.1-12.9-9.4-2.9-2.2-5.7-4.4-8.3-6.9-.8-.8-3.1-2.5-3.1-4M1049.9 342.5v-56.8M1049.9 285.7L922.1 424.3M922.1 475.2v-50.9M992.2 389.1c.2-1.3-.5-2.3-1.8-1.6-1 .6-1.7 1.4-2.5 2.2-1.5 1.8-2.6 3.5-3 5.9-.2 1.3.5 2.3 1.8 1.6 1-.6 1.7-1.4 2.5-2.2 1.5-1.8 2.6-3.6 3-5.9zM1049.9 285.7l-5.1-3.3M1044.8 282.4L916.9 421M922.1 424.3l-5.2-3.3M916.9 421v72.3M916.9 493.3l5.2 3.3"/><path fill="none" stroke="#000" stroke-linecap="round" stroke-linejoin="round" d="M991.1 390.1c-.4 1.6-1 2.9-2.1 4.1-1 1.3-3.5 2.7-2.9.5.4-1.6 1-2.9 2.1-4.1 1-1.3 3.3-2.7 2.9-.5zM717.1 288.5l50.7 36.8M758.8 335l-49.4-36M709.6 174.8c2.5-2.7 1.4-6.2-1.7-7.9-2.7-1.4-6.5-1.1-8.7 1.3"/><path fill="none" stroke="#000" stroke-linecap="round" stroke-linejoin="round" d="M699.2 168.2c-2.4 2.7-1.4 6.2 1.7 7.9 2.7 1.4 6.5 1.1 8.7-1.3"/><path fill="none" stroke="#000" stroke-linecap="round" stroke-linejoin="round" d="M708.3 174c1.8-2 1-4.7-1.2-5.9-2.1-1.1-4.8-.8-6.5.9M700.5 169c-1.8 2-1 4.7 1.2 5.9 2.1 1.1 4.8.8 6.5-.9M906 301.4c1.4-1.5 2.2-3 2.6-5M882.7 295.9c1.5 10.5 16.5 12.9 23.3 5.5"/><path fill="none" stroke="#000" stroke-linecap="round" stroke-linejoin="round" d="M906 301.1c4.9-5.3 2.8-12.5-3.3-15.7-5.4-2.9-13-2.1-17.3 2.5-4.9 5.3-2.8 12.5 3.3 15.7 5.4 2.9 13 2.1 17.3-2.5z"/><path fill="none" stroke="#000" stroke-linecap="round" stroke-linejoin="round" d="M905.5 300.7c-4.1 4.4-11.3 5.1-16.5 2.4-5.8-3.1-7.8-9.9-3.1-14.9 4.1-4.4 11.3-5.1 16.5-2.4 5.7 3.1 7.7 9.9 3.1 14.9zM882.7 296.4c-10.4 10.6-21.5 20.4-32.6 30.3M850.1 326.8l9.5-1.5M859.6 325.3c8-8.5 16-17 23.5-25.9M936.1 313.5c-9.5-6.3-19-12.6-27.6-20.2M889.7 283.8l-1.9 2.1M883.6 290.4l-13.7 14.9M869.9 305.3l-19.8 21.5M883.3 299.7l-6.6 7M925.3 313.4l-18.2-11.7M891 284.4l-1.3-.6M882.9 292.3l-13 13M906 303.1c1.9-1.9 2.7-3.9 2.7-6.6"/><path fill="none" stroke="#000" stroke-linecap="round" stroke-linejoin="round" d="M882.7 296.4c0 5.5 4.6 9.3 9.4 10.4 4.8 1.2 10.5 0 14-3.8M895.5 326.9l-4.6-3M943.6 358.8l-29.1-18.2M890.9 323.9l-12.8 13.9M850.1 362.9l1 .6M879.7 381.8l46.2 29.5M932.7 403.9v-24.4M850.1 326.8l82.6 52.7M850.1 362.9v-36.1M972.3 361v-24.5M932.7 379.5l39.6-43M955.6 364.2c-.9-.5-2.3.9-2.8 1.4-.8.8-1.4 1.7-2 2.6-.7 1.1-3 4.6-1.6 6.1M890.9 323.9v-17.4M859.2 325.8l.4-.5M927.5 314.8l35.7 22.7M963.2 337.5l-31.7 34.4M931.5 371.9l-72.3-46.1M884.2 291.1c-.1.3-.3.6-.4 1M883.8 292.1c-.1.3-.2.6-.2.9M818.9 215.8c-4.9-3.7-11-10.4-11.4-17.3M820.6 197.9c.7 2.6 4.1 5.9 6.1 7.4M807.5 197.8v-29.1M820.6 168.4v29.4M848.6 237.7l-29.5-21.8M919.1 289.8l-52.7-40.6M874.6 240.3l53.4 39.9M826.8 205.4l30.8 22.6M913.1 296.3l71.3-77.3M1009 241.7l-68.7 74.4M777.1 443.7l90.4-98M763.9 360.4l-53.8 58.2M931.4 178.2c0-3.2-3.5-7.1-5.6-8.9-1.4-1.2-2.8-2.2-4.5-2.9-1.3-.5-3.8-1.4-5.1 0M708.5 415.5c0 1.8-1.7 2-3.1 1.5-1.4-.4-2.5-1.1-3.7-2-1.7-1.3-4.5-4.3-4.5-6.8 0-1.8 1.7-2 3.1-1.5 1.4.4 2.5 1.1 3.7 2 1.6 1.3 4.5 4.3 4.5 6.8z"/><path fill="none" stroke="#000" stroke-linecap="round" stroke-linejoin="round" d="M710.7 416.9c0-3.5-4-7.6-6.3-9.4-1.6-1.2-3.2-2.2-5.1-2.8-2-.6-4.3-.4-4.3 2.2 0 3.5 4 7.6 6.3 9.4 1.6 1.2 3.2 2.2 5.1 2.8 1.9.6 4.3.4 4.3-2.2zM749.2 346.9l167-180.5M931.5 179.2l-167 180.5M695.5 405.2l53.7-58.3M955.6 364.2l8.6 5.5M956 378.6l-6.8-4.3M709.3 298.9c-4.9-3.7-11-10.4-11.4-17.3M710.9 281c.7 2.6 4.1 5.9 6.1 7.4M697.9 280.9V172.2M710.9 171.9v109M908.7 295.7v.8"/><g><g fill="#F05A22"><path d="M710.5 100.7h-15v-2.5h15v2.5zm-14.5-.5h14v-1.5h-14v1.5z"/><path d="M709.2 98.7h-12.3l.6-8.8h.5l-.5 8.3h11.2l-.5-8.3h.5"/><path d="M703 91.4c-6.4 0-11.5-4.5-11.5-10v-.2h23v.2c0 5.5-5.1 10-11.5 10zm-11-9.8c.2 5.1 5.1 9.2 11 9.2 6 0 10.9-4.1 11-9.3l-22 .1z"/><path d="M715.5 81.7h-24.9v-3h24.9v3zm-24.5-.5h24v-2h-23.9v2z"/><path d="M712.4 79.2h-18.7l-2.2-14h23.2l-2.3 14zm-18.4-.5h17.9l2.1-13h-22.1l2.1 13z"/><path d="M715.5 65.7h-24.9v-3h24.9v3zm-24.5-.5h24v-2h-24v2zM710.7 70.2c-.8 0-1.4-.6-1.4-1.4 0-.8.6-1.4 1.4-1.4s1.4.6 1.4 1.4c.1.7-.6 1.4-1.4 1.4zm0-2.4c-.5 0-.9.4-.9.9s.4.9.9.9.9-.4.9-.9c.1-.5-.3-.9-.9-.9z"/><path d="M715.2 63v2.5h-.9L712.2 79h3.1v2.5h-.9c0 3.7-2.4 6.9-5.9 8.5l.5 8.5h1.3v2h-14.5v-2h1.4l.5-8.4c-3.6-1.6-6-4.8-6-8.5h-.9V79h3l-2.2-13.5h-.9V63h24.5m1-1h-26.4v4.5h1l1.8 11.5h-2.9v4.5h1c.4 3.4 2.6 6.4 5.9 8.1l-.4 6.8h-1.5v4h16.5v-4h-1.4l-.4-6.9c3.3-1.8 5.4-4.8 5.8-8.1h1V78h-2.9l1.8-11.5h1.1V62z"/></g></g><path fill="none" stroke="#000" stroke-linecap="round" stroke-linejoin="round" d="M961.4 329.6l10.9 6.9-36.2-23M203.8 195.2c-.6-.7.6-2.7.8-3.2.6-1 1.2-2 1.9-2.9.7-.9 1.4-1.8 2.2-2.6.4-.4.8-.8 1.3-1.2.3-.2 1.1-.9 1.5-.6M192.3 177.1c.2 7.2 12.9 7.2 13 0M152 255.3c-.1 7.2-12.8 7.2-13 0M158.2 262.8c-.4-.3-1.3.4-1.5.6-.5.4-.9.8-1.3 1.2-.8.8-1.5 1.7-2.2 2.6-.7.9-1.3 1.9-1.9 2.9-.3.5-1.4 2.4-.9 3.2M819.1 215.9c-.6-.7.6-2.7.8-3.2.6-1 1.2-2 1.9-2.9.7-.9 1.4-1.8 2.2-2.6.4-.4.8-.8 1.3-1.2.3-.2 1.1-.9 1.5-.6M807.5 197.8c.2 7.2 12.9 7.2 13 0M710.9 280.9c-.1 7.2-12.8 7.2-13 0M717.1 288.5c-.4-.3-1.3.4-1.5.6-.5.4-.9.8-1.3 1.2-.8.8-1.5 1.7-2.2 2.6-.7.9-1.3 1.9-1.9 2.9-.3.5-1.4 2.4-.9 3.2M292.2 313.4c.8.5 1.5 1 2.3 1.4M925.3 313.4c.8.5 1.5 1 2.3 1.4"/></svg>