<?xml version="1.0" encoding="utf-8"?>
<!-- Generator: Adobe Illustrator 18.0.0, SVG Export Plug-In . SVG Version: 6.00 Build 0)  -->
<!DOCTYPE svg PUBLIC "-//W3C//DTD SVG 1.1//EN" "http://www.w3.org/Graphics/SVG/1.1/DTD/svg11.dtd">
<svg version="1.1" id="Layer_1" xmlns="http://www.w3.org/2000/svg" xmlns:xlink="http://www.w3.org/1999/xlink" x="0px" y="0px"
	 viewBox="0 0 1280 800" enable-background="new 0 0 1280 800" xml:space="preserve">
<path fill="#004261" d="M251.9,142.1c0-6.7-5.4-12.1-12.1-12.1c-0.8,0-1.4,0.1-2.2,0.2c-1.6-1.9-4.1-3.1-6.8-3.1
	c-1.6,0-3.1,0.4-4.4,1.2c-1.9-2.5-4.9-4.2-8.3-4.2c-5.6,0-10.1,4.3-10.4,9.8c-5.6,0.1-10,4.6-10,10.2s4.6,10.2,10.2,10.2h33.5v-0.1
	C247.3,153.2,251.9,148.2,251.9,142.1z M910.1,164.3c0-6.7-5.4-12.1-12.1-12.1c-0.8,0-1.4,0.1-2.2,0.2c-1.6-1.9-4.1-3.1-6.8-3.1
	c-1.6,0-3.1,0.4-4.4,1.2c-1.9-2.5-4.9-4.2-8.3-4.2c-5.6,0-10.1,4.3-10.4,9.8c-5.6,0.1-10,4.6-10,10.2s4.6,10.2,10.2,10.2h33.5v-0.1
	C905.6,175.6,910.1,170.4,910.1,164.3z"/>
<path fill="none" stroke="#F9CA03" stroke-width="1.417" stroke-linecap="round" stroke-linejoin="round" stroke-miterlimit="10" stroke-dasharray="0,1.9842" d="
	M288.6,398.6V213.5h170.5"/>
<path fill="none" stroke="#004261" stroke-width="0.992" stroke-linecap="round" stroke-linejoin="round" d="M1078.6,512l-16.9-11"
	/>
<path fill="#004261" d="M1078.5,508.4l8.1,8.8l-11.4-3.7"/>
<path fill="none" stroke="#204E65" stroke-width="1.417" stroke-linecap="round" stroke-linejoin="round" stroke-dasharray="0,2.8347" d="
	M1061.7,501.7l-94.4-57.3"/>
<path fill="none" stroke="#204E65" stroke-width="0.992" stroke-linecap="round" stroke-linejoin="round" d="M405.9,315.6l32.3-34.9
	"/>
<path fill="#204E65" d="M409.6,316.1l-10.1,6.3l5.6-10.5"/>
<path fill="none" stroke="#F05A22" stroke-linecap="round" stroke-linejoin="round" d="M156.3,212.6V190"/>
<path fill="#F05A22" d="M159.6,210.4l-3.1,11.6l-3.2-11.6"/>
<path fill="none" stroke="#204E65" stroke-linecap="round" stroke-linejoin="round" d="M213.7,217.9v-21.3"/>
<path fill="#204E65" d="M216.9,215.7l-3.1,11.7l-3.1-11.7"/>
<path fill="none" stroke="#204E65" stroke-width="0.992" stroke-linecap="round" stroke-linejoin="round" d="M175.1,565.7
	l-30.4,32.9"/>
<path fill="#204E65" d="M144,594.9l-5.6,10.6l10.1-6.5"/>
<path fill="none" stroke="#204E65" stroke-width="1.417" stroke-linecap="round" stroke-linejoin="round" stroke-dasharray="0,2.8347" d="
	M213.7,242.4v27.3c0,5.1,3.3,11.5,7.4,14.5l126.1,91"/>
<path fill="none" stroke="#F05A22" stroke-width="1.417" stroke-linecap="round" stroke-linejoin="round" stroke-dasharray="0,2.8347" d="
	M156.3,239.9v112.8c0,5.1,3.3,11.5,7.4,14.5l126.1,91.1"/>
<path fill="none" stroke="#204E65" stroke-width="1.417" stroke-linecap="round" stroke-linejoin="round" stroke-dasharray="0,2.8347" d="
	M398.5,322.5L174.1,565.7"/>
<path fill="none" stroke="#F05A22" stroke-width="0.992" stroke-linecap="round" stroke-linejoin="round" d="M397.4,313.3l32.3-34.9
	"/>
<path fill="#F05A22" d="M401.1,313.9l-10.1,6.5l5.6-10.6"/>
<path fill="none" stroke="#F05A22" stroke-width="0.992" stroke-linecap="round" stroke-linejoin="round" d="M166.7,563.5
	l-30.4,32.9"/>
<path fill="#F05A22" d="M135.5,592.8l-5.6,10.5L140,597"/>
<path fill="none" stroke="#F05A22" stroke-width="1.417" stroke-linecap="round" stroke-linejoin="round" stroke-dasharray="0,2.8347" d="
	M390,320.3L165.6,563.5"/>
<path fill="none" stroke="#204E65" stroke-width="0.992" stroke-linecap="round" stroke-linejoin="round" d="M1086.7,315.6
	l32.1-34.9"/>
<path fill="#204E65" d="M1090.3,316.1l-10.1,6.3l5.6-10.5"/>
<path fill="none" stroke="#F05A22" stroke-linecap="round" stroke-linejoin="round" d="M757.4,240.1v-25.8"/>
<path fill="#F05A22" d="M760.5,238l-3.1,11.7l-3.1-11.7"/>
<path fill="none" stroke="#204E65" stroke-linecap="round" stroke-linejoin="round" d="M875.2,240.1v-24.5"/>
<path fill="#204E65" d="M878.3,238l-3.1,11.7l-3.1-11.7"/>
<path fill="none" stroke="#204E65" stroke-width="0.992" stroke-linecap="round" stroke-linejoin="round" d="M849.4,572.7
	l-30.3,32.9"/>
<path fill="#204E65" d="M845.7,572.1l10.1-6.5l-5.6,10.6"/>
<path fill="none" stroke="#204E65" stroke-width="1.417" stroke-linecap="round" stroke-linejoin="round" stroke-dasharray="0,2.8347" d="
	M935.3,342.5l73.4,54.9 M875.2,264.6v25.2c0,5.1,3.2,11.6,7.2,14.7l33.4,25.6"/>
<path fill="none" stroke="#F05A22" stroke-width="1.417" stroke-linecap="round" stroke-linejoin="round" stroke-dasharray="0,2.8347" d="
	M757.4,267.5v112.8c0,5.1,3.3,11.5,7.4,14.4l66.4,47.1"/>
<path fill="none" stroke="#204E65" stroke-width="1.417" stroke-linecap="round" stroke-linejoin="round" stroke-dasharray="0,2.8347" d="
	M1079.2,322.5L854.8,565.7"/>
<path fill="none" stroke="#F05A22" stroke-width="0.992" stroke-linecap="round" stroke-linejoin="round" d="M1002.3,255.1l8-8.6"/>
<path fill="#F05A22" d="M1006,255.6l-10.1,6.5l5.5-10.6"/>
<path fill="none" stroke="#F05A22" stroke-width="0.992" stroke-linecap="round" stroke-linejoin="round" d="M757.8,519.6
	l-15.5,16.7"/>
<path fill="#F05A22" d="M741.4,532.6l-5.5,10.6l10.1-6.5"/>
<path fill="none" stroke="#F05A22" stroke-width="1.417" stroke-linecap="round" stroke-linejoin="round" stroke-dasharray="0,2.8347" d="
	M1032.1,221.8L757.8,519.6"/>
<ellipse fill="#F9CA03" cx="282.6" cy="396.8" rx="13.5" ry="11"/>
<path opacity="0.4" fill="#F05A22" enable-background="new    " d="M283.4,409.8c-0.6,0.1-1.3,0.1-1.9,0.1c-3.9,0-7.4-1.7-9.9-4.3
	l-24.7,27l40.7,25.1l27-29.4L283.4,409.8L283.4,409.8z"/>
<path fill="#004261" fill-opacity="0.2" stroke="#004261" stroke-width="0.709" stroke-miterlimit="10" d="M1104.2,622.1l137.5-149
	l-112.9-72l-137.4,149l32.4,59.9L1104.2,622.1z M423.8,622.1l137.5-149l-112.9-72L311,550.1l32.4,59.9L423.8,622.1z"/>
<path fill="none" stroke="#000000" stroke-linecap="round" stroke-linejoin="round" d="M307.8,471.2l13.8-14.9 M278.5,475.7
	c2.5-2.7,0.1-7.5-1.2-9.9c-1.8-3.1-4.1-5.7-6.7-8.2c-2.6-2.5-5.4-4.4-8.6-6c-2.4-1.2-7.4-3-9.9-0.4 M278.5,475.7L181.3,581
	 M268.4,398.3v-0.9 M296,393.7c6.9,6.3,14.1,12.1,21.7,17.4 M219.2,241.4c-2.4,2.5-6.5,2.9-9.4,1.4c-3.2-1.7-4.4-5.6-1.8-8.5"/>
<path fill="none" stroke="#000000" stroke-linecap="round" stroke-linejoin="round" d="M208.2,234.4c2.4-2.5,6.5-2.9,9.4-1.4
	c3.2,1.7,4.4,5.6,1.8,8.5"/>
<path fill="none" stroke="#000000" stroke-linecap="round" stroke-linejoin="round" d="M217.9,240.6c-1.8,1.8-4.7,2.3-7,1
	c-2.5-1.3-3.3-4.2-1.3-6.3"/>
<path fill="none" stroke="#000000" stroke-linecap="round" stroke-linejoin="round" d="M209.6,235.3c1.8-1.8,4.7-2.3,7-1
	c2.5,1.3,3.3,4.2,1.3,6.3 M304,439.1c0-4.3-4.7-9.4-7.5-11.7c-1.8-1.5-3.8-2.8-6-3.8c-1.7-0.6-5.3-1.6-6.5,0.6
	c-2.2,4,3.5,10.1,5.8,12.3c2.3,2.2,8.7,7.1,12.6,5.4 M303.7,440.4c0.1-0.4,0.2-0.9,0.2-1.3 M405.1,336.3c0-5.8-6.3-12.8-10.1-16
	c-2.5-2.2-5.2-3.9-8.2-5.3c-2.3-1-6.9-2.5-9.1,0 M404.2,339.5c0.8-1,1.1-1.8,1.1-3.1"/>
<path fill="none" stroke="#000000" stroke-linecap="round" stroke-linejoin="round" d="M299.2,445.4c-5.7-2-9.8-5.4-13.8-9.8
	c-1.9-2.2-3.5-4.4-4.7-7c-1-2.2-2.3-5.8-0.2-8.1c2-2.3,5.9-1.2,8.1-0.4c2.7,1,5.1,2.5,7.4,4.2c4.7,3.5,8.5,7.3,10.9,12.9
	 M178.3,575.4c0,3.3-3.1,3.5-5.7,2.8c-2.5-0.8-4.6-2-6.7-3.5c-3-2.4-8.2-7.7-8.2-12.3c0-3.3,3.1-3.5,5.7-2.8c2.6,0.8,4.6,2,6.7,3.5
	C173.1,565.5,178.3,570.8,178.3,575.4z"/>
<path fill="none" stroke="#000000" stroke-linecap="round" stroke-linejoin="round" d="M182.4,577.9c0-6.3-7.3-13.9-11.4-17.1
	c-2.8-2.3-5.7-4-9.2-5.1c-3.5-1.1-7.8-0.8-7.8,3.9c0,6.3,7.3,13.9,11.4,17.1c2.8,2.3,5.7,4,9.2,5.1
	C178,582.9,182.4,582.6,182.4,577.9z M448.1,447.8c-45.7,47.7-94.5,92.1-137.5,142.7 M423.5,685.5l-112.9-71.9 M310.6,590.5
	c0,8.7,18.7,22.8,23.7,26.7c9.7,7.4,19.7,14.3,29.7,21.2c20,13.8,40.3,27.1,59.6,42 M560.9,536.5L423.5,685.5 M423.5,685.5v-5.1
	 M423.5,680.4c43.2-54.1,93.5-101.6,137.5-154.9 M560.9,536.5v-11.1 M560.9,525.5c-18.3-14.2-38.3-25.2-57.8-37.1
	c-9.8-6-19.5-12.1-28.8-18.7c-4.7-3.2-9.4-6.6-13.9-10.1c-3.1-2.4-6.1-4.7-8.9-7.4c-0.9-0.9-3.3-2.7-3.3-4.3 M448.1,447.8v-61.1
	 M448.1,386.8l-137.5,149 M310.6,590.5v-54.7 M386.1,497.9c0.2-1.4-0.5-2.5-1.9-1.7c-1.1,0.6-1.8,1.5-2.7,2.4
	c-1.6,1.9-2.8,3.8-3.2,6.3c-0.2,1.4,0.5,2.5,1.9,1.7c1.1-0.6,1.8-1.5,2.7-2.4C384.5,502.4,385.7,500.4,386.1,497.9z M448.1,386.8
	l-5.6-3.5 M442.5,383.2l-137.4,149 M310.6,535.8l-5.5-3.5 M305.1,532.2V610 M305.1,610l5.5,3.5"/>
<path fill="none" stroke="#000000" stroke-linecap="round" stroke-linejoin="round" d="M384.9,499c-0.4,1.7-1.1,3.1-2.3,4.4
	c-1.1,1.4-3.8,2.9-3.1,0.5c0.4-1.7,1.1-3.1,2.3-4.4C382.9,498.2,385.3,496.7,384.9,499z M170.1,362.3l74.5,55 M235.8,428.2l-74-54.7
	 M161.9,239.9c2.7-2.9,1.5-6.7-1.8-8.5c-2.9-1.5-7-1.2-9.4,1.4"/>
<path fill="none" stroke="#000000" stroke-linecap="round" stroke-linejoin="round" d="M150.8,232.8c-2.6,2.9-1.5,6.7,1.8,8.5
	c2.9,1.5,7,1.2,9.4-1.4"/>
<path fill="none" stroke="#000000" stroke-linecap="round" stroke-linejoin="round" d="M160.5,239c1.9-2.2,1.1-5.1-1.3-6.3
	c-2.3-1.2-5.2-0.9-7,1 M152.2,233.8c-1.9,2.2-1.1,5.1,1.3,6.3c2.3,1.2,5.2,0.9,7-1 M293.4,403.7c1.5-1.6,2.4-3.2,2.8-5.4
	 M268.4,397.7c1.6,11.3,17.7,13.9,25.1,5.9"/>
<path fill="none" stroke="#000000" stroke-linecap="round" stroke-linejoin="round" d="M293.4,403.3c5.3-5.7,3-13.4-3.5-16.9
	c-5.8-3.1-14-2.3-18.6,2.7c-5.3,5.7-3,13.4,3.5,16.9C280.6,409.1,288.8,408.3,293.4,403.3z"/>
<path fill="#F9CA03" stroke="#000000" stroke-linecap="round" stroke-linejoin="round" d="M269.2,394.6c2.8-12.5,24-12,26.2,0.5"/>
<path fill="none" stroke="#000000" stroke-linecap="round" stroke-linejoin="round" d="M292.9,402.9c-4.4,4.7-12.1,5.5-17.7,2.6
	c-6.2-3.3-8.4-10.6-3.3-16c4.4-4.7,12.1-5.5,17.7-2.6C295.7,390.2,297.8,397.5,292.9,402.9z M268.4,398.3
	c-11.3,11.4-23.2,22-35.1,32.7 M233.3,431l10.2-1.6 M243.5,429.4c8.6-9.1,17.2-18.3,25.3-27.8 M325.8,416.7
	c-10.2-6.8-20.4-13.5-29.7-21.7 M275.9,384.7l-2,2.3 M269.3,391.8l-14.7,16 M254.6,407.8L233.3,431 M268.9,401.8l-7,7.5
	 M314.2,416.6L294.5,404 M277.2,385.4l-1.3-0.6 M268.6,393.9l-14,14 M293.4,405.5c2-2,2.9-4.2,2.9-7.1"/>
<path fill="none" stroke="#000000" stroke-linecap="round" stroke-linejoin="round" d="M268.4,398.3c0,5.9,4.9,10,10.1,11.2
	c5.2,1.3,11.3,0,15.1-4.1 M334.6,464.5l-13-8.3 M282.1,431.1l-4.9-3.2 M277.2,427.8l-13.8,14.9 M233.3,469.8l1.1,0.6 M265.1,490.1
	l49.7,31.7 M322.1,513.9v-26.2 M233.3,431l88.8,56.7 M233.3,469.8V431 M364.7,467.7v-26.3 M322.1,487.6l42.6-46.2 M346.7,471.2
	c-1-0.5-2.5,1-3,1.5c-0.9,0.9-1.5,1.8-2.2,2.8c-0.8,1.2-3.2,4.9-1.7,6.6 M277.2,427.8v-18.7 M243.1,429.9l0.4-0.5 M316.5,418.1
	l38.4,24.4 M354.9,442.5l-34.1,37 M320.8,479.5l-77.7-49.6 M321.6,456.2v-25.5 M293,461.7l28.6-31 M321.6,430.8l-5.6-3.5 M316,427.2
	l-28.6,31 M270,392.6c-0.1,0.3-0.3,0.6-0.4,1.1 M269.4,393.7c-0.1,0.3-0.2,0.6-0.2,1 M219,289.4c-5.3-4-11.8-11.2-12.3-18.6
	 M220.7,270.1c0.8,2.8,4.4,6.3,6.6,8 M206.8,270v-31.3 M220.7,238.4V270 M326.6,368.9l-107.5-79.5 M227.4,278.2l108.8,80.4
	 M301,398.2l76.7-83.1 M404.2,339.5l-73.9,80 M154.8,556.7L252,451.3 M346.7,471.2l9.2,5.9 M347.2,486.7l-7.3-4.6 M161.7,373.3
	c-5.3-4-11.8-11.2-12.3-18.6 M163.4,354.2c0.8,2.8,4.4,6.3,6.6,8 M149.4,354.1v-117 M163.4,236.8v117.3 M296.3,397.5v0.9"/>
<g>
	<path fill="#F05A22" d="M163,160.2h-16.1v-2.7H163V160.2z M147.4,159.7h15.1v-1.6h-15.1V159.7z"/>
	<path fill="#F05A22" d="M161.6,158.1h-13.2l0.6-9.4h0.5l-0.6,8.8h12.1l-0.6-8.8h0.5"/>
	<path fill="#F05A22" d="M154.9,150.2c-6.9,0-12.4-4.8-12.4-10.8v-0.2h24.7v0.2C167.3,145.4,161.8,150.2,154.9,150.2z M143,139.8
		c0.2,5.5,5.5,9.9,11.8,9.9c6.5,0,11.7-4.4,11.8-10C166.7,139.7,143,139.8,143,139.8z"/>
	<path fill="#F05A22" d="M168.4,139.8h-26.8v-3.2h26.8V139.8z M142,139.3h25.7v-2.2H142V139.3z"/>
	<path fill="#F05A22" d="M165,137.1h-20.1l-2.4-15.1h24.9L165,137.1z M145.3,136.6h19.2l2.3-14H143L145.3,136.6z"/>
	<path fill="#F05A22" d="M168.4,122.7h-26.8v-3.2h26.8V122.7z M142,122.2h25.7V120H142V122.2z M163.2,127.4c-0.9,0-1.5-0.6-1.5-1.5
		s0.6-1.5,1.5-1.5c0.9,0,1.5,0.6,1.5,1.5C164.8,126.8,164.1,127.4,163.2,127.4z M163.2,124.9c-0.5,0-1,0.4-1,1s0.4,1,1,1
		c0.5,0,1-0.4,1-1C164.3,125.4,163.7,124.9,163.2,124.9z"/>
	<path fill="#F05A22" d="M168.1,119.7v2.7h-1l-2.4,14.5h3.3v2.7h-1c0,4-2.6,7.4-6.3,9.1l0.5,9.1h1.4v2.2h-15.6v-2.2h1.5l0.5-9
		c-3.9-1.7-6.5-5.2-6.5-9.1h-1V137h3.2l-2.4-14.5h-1v-2.7h26.4 M169.1,118.6h-28.4v4.8h1.1l1.9,12.4h-3.1v4.8h1.1
		c0.4,3.7,2.8,6.9,6.3,8.7l-0.4,7.3H146v4.3h17.7v-4.3h-1.4l-0.4-7.4c3.5-1.9,5.8-5.2,6.2-8.7h1.1v-4.8h-3.1l1.9-12.4h1.2v-4.7
		H169.1L169.1,118.6z"/>
</g>
<path fill="none" stroke="#000000" stroke-linecap="round" stroke-linejoin="round" d="M353,434l11.7,7.4l-38.9-24.7 M959.2,475.7
	c2.5-2.7,0.1-7.5-1.2-9.9c-1.8-3.1-4.1-5.7-6.7-8.2c-2.6-2.5-5.4-4.4-8.6-6c-2.4-1.2-7.4-3-9.9-0.4 M959.2,475.7L862,581
	 M949.1,398.3v-0.9 M976.7,393.7c6.9,6.3,14.1,12.1,21.7,17.4 M880.8,263.8c-2.4,2.5-6.5,2.9-9.4,1.4c-3.2-1.7-4.4-5.6-1.8-8.5
	 M869.7,256.7c2.4-2.5,6.5-2.9,9.4-1.4c3.2,1.7,4.4,5.6,1.8,8.5"/>
<path fill="none" stroke="#000000" stroke-linecap="round" stroke-linejoin="round" d="M879.4,262.8c-1.8,1.8-4.7,2.3-7,1
	c-2.5-1.3-3.3-4.2-1.3-6.3"/>
<path fill="none" stroke="#000000" stroke-linecap="round" stroke-linejoin="round" d="M871.1,257.5c1.8-1.8,4.7-2.3,7-1
	c2.5,1.3,3.3,4.2,1.3,6.3 M984.6,439.1c0-4.3-4.7-9.4-7.5-11.7c-1.8-1.5-3.8-2.8-6-3.8c-1.7-0.6-5.3-1.6-6.5,0.6
	c-2.2,4,3.5,10.1,5.8,12.3c2.3,2.2,8.7,7.1,12.6,5.4 M984.4,440.4c0.1-0.4,0.2-0.9,0.2-1.3 M1085.9,336.3c0-5.8-6.3-12.8-10.1-16
	c-2.5-2.2-5.2-3.9-8.2-5.3c-2.3-1-6.9-2.5-9.1,0 M1084.9,339.5c0.8-1,1.1-1.8,1.1-3.1"/>
<path fill="none" stroke="#000000" stroke-linecap="round" stroke-linejoin="round" d="M987.6,437.1c-2.5-5.6-6.1-9.4-10.9-12.9
	c-2.3-1.7-4.6-3.1-7.4-4.2c-2.2-0.8-6-1.8-8.1,0.4c-2,2.3-0.8,5.9,0.2,8.1c1.2,2.7,2.8,4.8,4.7,7c3.9,4.4,8.3,7.1,13.8,9.8
	C985.4,448.2,989.1,440.1,987.6,437.1z M859,575.4c0,3.3-3.1,3.5-5.7,2.8c-2.5-0.8-4.6-2-6.7-3.5c-3-2.4-8.2-7.7-8.2-12.3
	c0-3.3,3.1-3.5,5.6-2.8c2.6,0.8,4.6,2,6.7,3.5C853.8,565.5,859,570.8,859,575.4L859,575.4z"/>
<path fill="none" stroke="#000000" stroke-linecap="round" stroke-linejoin="round" d="M863,577.9c0-6.3-7.3-13.9-11.4-17.1
	c-2.8-2.3-5.7-4-9.2-5.1c-3.5-1.1-7.8-0.8-7.8,3.9c0,6.3,7.3,13.9,11.4,17.1c2.8,2.3,5.7,4,9.2,5.1C858.7,582.9,863,582.6,863,577.9
	z M1128.8,447.8c-45.7,47.7-94.5,92.1-137.5,142.7 M1104.2,685.5l-112.8-71.9 M991.4,590.5c0,8.7,18.7,22.8,23.7,26.7
	c9.7,7.4,19.7,14.3,29.7,21.2c20,13.8,40.3,27.1,59.6,42 M1241.7,536.5l-137.5,148.9 M1104.2,685.5v-5.1 M1104.2,680.4
	c43.2-54.1,93.5-101.6,137.5-154.9 M1241.7,536.5v-11.1"/>
<path fill="none" stroke="#000000" stroke-linecap="round" stroke-linejoin="round" d="M1241.7,525.5
	c-18.3-14.2-38.3-25.2-57.8-37.1c-9.8-6-19.5-12.1-28.8-18.7c-4.7-3.2-9.4-6.6-13.9-10.1c-3.1-2.4-6.1-4.7-8.9-7.4
	c-0.9-0.9-3.3-2.7-3.3-4.3 M1128.8,447.8v-61.1 M1128.8,386.8l-137.4,149 M991.4,590.5v-54.7 M1066.8,497.9c0.2-1.4-0.5-2.5-1.9-1.7
	c-1.1,0.6-1.8,1.5-2.7,2.4c-1.6,1.9-2.8,3.8-3.2,6.3c-0.2,1.4,0.5,2.5,1.9,1.7c1.1-0.6,1.8-1.5,2.7-2.4
	C1065.2,502.4,1066.4,500.4,1066.8,497.9z M1128.8,386.8l-5.5-3.5 M1123.3,383.2l-137.5,149 M991.4,535.8l-5.6-3.5 M985.8,532.2V610
	 M985.8,610l5.6,3.5"/>
<path fill="none" stroke="#000000" stroke-linecap="round" stroke-linejoin="round" d="M1065.6,499c-0.4,1.7-1.1,3.1-2.3,4.4
	c-1.1,1.4-3.8,2.9-3.1,0.5c0.4-1.7,1.1-3.1,2.3-4.4C1063.6,498.2,1066,496.7,1065.6,499z M771,389.8l54.5,39.6 M815.8,439.8
	l-53.1-38.7 M762.9,267.5c2.7-2.9,1.5-6.7-1.8-8.5c-2.9-1.5-7-1.2-9.4,1.4"/>
<path fill="none" stroke="#000000" stroke-linecap="round" stroke-linejoin="round" d="M751.8,260.4c-2.6,2.9-1.5,6.7,1.8,8.5
	c2.9,1.5,7,1.2,9.4-1.4"/>
<path fill="none" stroke="#000000" stroke-linecap="round" stroke-linejoin="round" d="M761.5,266.7c1.9-2.2,1.1-5.1-1.3-6.3
	c-2.3-1.2-5.2-0.9-7,1 M753.2,261.3c-1.9,2.2-1.1,5.1,1.3,6.3c2.3,1.2,5.2,0.9,7-1 M974.1,403.7c1.5-1.6,2.4-3.2,2.8-5.4
	 M949.1,397.7c1.6,11.3,17.7,13.9,25.1,5.9"/>
<path fill="none" stroke="#000000" stroke-linecap="round" stroke-linejoin="round" d="M974.1,403.3c5.3-5.7,3-13.4-3.5-16.9
	c-5.8-3.1-14-2.3-18.6,2.7c-5.3,5.7-3,13.4,3.5,16.9C961.3,409.1,969.5,408.3,974.1,403.3z"/>
<path fill="none" stroke="#000000" stroke-linecap="round" stroke-linejoin="round" d="M973.6,402.9c-4.4,4.7-12.1,5.5-17.7,2.6
	c-6.2-3.3-8.4-10.6-3.3-16c4.4-4.7,12.1-5.5,17.7-2.6C976.4,390.2,978.5,397.5,973.6,402.9z M949.1,398.3
	c-11.2,11.4-23.1,21.9-35.1,32.6 M914,431l10.2-1.6 M924.2,429.4c8.6-9.1,17.2-18.3,25.3-27.8 M1006.5,416.7
	c-10.2-6.8-20.4-13.5-29.7-21.7 M956.6,384.7l-2,2.3 M950,391.8l-14.7,16 M935.3,407.8L914,431 M949.7,401.8l-7.1,7.5 M994.9,416.6
	L975.3,404 M958,385.4l-1.4-0.6 M949.3,393.9l-14,14 M974.1,405.5c2-2,2.9-4.2,2.9-7.1"/>
<path fill="none" stroke="#000000" stroke-linecap="round" stroke-linejoin="round" d="M949.1,398.3c0,5.9,4.9,10,10.1,11.2
	c5.2,1.3,11.3,0,15.1-4.1 M962.8,431.1l-4.9-3.2 M1014.5,465.4l-31.3-19.6 M957.9,427.8l-13.8,14.9 M914,469.8l1.1,0.6 M945.8,490.1
	l49.7,31.7 M1002.8,513.9v-26.2 M914,431l88.8,56.7 M914,469.8V431 M1045.4,467.7v-26.3 M1002.8,487.6l42.6-46.2 M1027.4,471.2
	c-1-0.5-2.5,1-3,1.5c-0.9,0.9-1.5,1.8-2.2,2.8c-0.8,1.2-3.2,4.9-1.7,6.6 M957.9,427.8v-18.7 M923.8,429.9l0.4-0.5 M997.2,418.1
	l38.4,24.4 M1035.6,442.5l-34.1,37 M1001.5,479.5l-77.7-49.6 M950.7,392.6c-0.1,0.3-0.3,0.6-0.4,1.1 M950.2,393.7
	c-0.1,0.3-0.2,0.6-0.2,1 M880.5,311.6c-5.3-4-11.8-11.2-12.3-18.6 M882.3,292.4c0.8,2.8,4.4,6.3,6.6,8 M868.2,292.3V261
	 M882.3,260.7v31.6 M912.4,335.2l-31.7-23.4 M988.2,391.2l-56.7-43.7 M940.4,338l57.4,42.9 M889,300.4l33.1,24.3 M981.7,398.2
	l76.7-83.1 M1084.9,339.5l-73.9,80 M835.5,556.7l97.2-105.4 M821.3,467.1l-57.8,62.6 M1001.4,271.2c0-3.4-3.8-7.6-6-9.6
	c-1.5-1.3-3-2.4-4.8-3.1c-1.4-0.5-4.1-1.5-5.5,0 M761.8,526.3c0,1.9-1.8,2.2-3.3,1.6c-1.5-0.4-2.7-1.2-4-2.2
	c-1.8-1.4-4.8-4.6-4.8-7.3c0-1.9,1.8-2.2,3.3-1.6c1.5,0.4,2.7,1.2,4,2.2C758.6,520.4,761.8,523.6,761.8,526.3z"/>
<path fill="none" stroke="#000000" stroke-linecap="round" stroke-linejoin="round" d="M764.1,527.8c0-3.8-4.3-8.2-6.8-10.1
	c-1.7-1.3-3.4-2.4-5.5-3c-2.2-0.6-4.6-0.4-4.6,2.4c0,3.8,4.3,8.2,6.8,10.1c1.7,1.3,3.4,2.4,5.5,3
	C761.5,530.8,764.1,530.6,764.1,527.8z M805.5,452.6l179.6-194.1 M1001.5,272.3L822,466.3 M747.8,515.3l57.7-62.7 M1027.4,471.2
	l9.2,5.9 M1027.9,486.7l-7.3-4.6 M762.6,401c-5.3-4-11.8-11.2-12.3-18.6 M764.3,381.7c0.8,2.8,4.4,6.3,6.6,8 M750.4,381.6V264.7
	 M764.3,264.4v117.2 M977,397.5v0.9"/>
<g>
	<g>
		<path fill="#F05A22" d="M763.9,187.9h-16.1v-2.7h16.1V187.9z M748.3,187.3h15.1v-1.6h-15.1V187.3z"/>
		<path fill="#F05A22" d="M762.5,185.7h-13.2l0.6-9.5h0.5l-0.5,8.9h12l-0.5-8.9h0.5"/>
		<path fill="#F05A22" d="M755.9,177.9c-6.9,0-12.4-4.8-12.4-10.8v-0.2h24.7v0.2C768.2,173,762.7,177.9,755.9,177.9z M744,167.3
			c0.2,5.5,5.5,9.9,11.8,9.9c6.5,0,11.7-4.4,11.8-10C767.7,167.2,744,167.3,744,167.3z"/>
		<path fill="#F05A22" d="M769.3,167.4h-26.8v-3.2h26.8V167.4z M742.9,166.9h25.8v-2.2h-25.7v2.2H742.9z"/>
		<path fill="#F05A22" d="M766,164.8h-20.1l-2.4-15.1h24.9L766,164.8z M746.2,164.2h19.2l2.3-14h-23.8L746.2,164.2z"/>
		<path fill="#F05A22" d="M769.3,150.2h-26.8V147h26.8V150.2z M742.9,149.7h25.8v-2.2h-25.8V149.7z M764.1,155.1
			c-0.9,0-1.5-0.6-1.5-1.5c0-0.9,0.6-1.5,1.5-1.5c0.9,0,1.5,0.6,1.5,1.5C765.7,154.3,765,155.1,764.1,155.1z M764.1,152.5
			c-0.5,0-1,0.4-1,1c0,0.5,0.4,1,1,1s1-0.4,1-1C765.2,152.9,764.8,152.5,764.1,152.5z"/>
		<path fill="#F05A22" d="M769,147.3v2.7h-1l-2.3,14.5h3.3v2.7h-1c0,4-2.6,7.4-6.3,9.1l0.5,9.1h1.4v2.2h-15.6v-2.2h1.5l0.5-9
			c-3.9-1.7-6.5-5.2-6.5-9.1h-1v-2.8h3.2l-2.4-14.5h-1v-2.7H769 M770,146.3h-28.4v4.8h1.1l1.9,12.4h-3.1v4.8h1.1
			c0.4,3.7,2.8,6.9,6.3,8.7l-0.4,7.3h-1.6v4.3h17.7v-4.3h-1.5l-0.4-7.4c3.5-1.9,5.8-5.2,6.2-8.7h1.1v-4.7h-3.1l1.9-12.4h1.2
			L770,146.3L770,146.3z"/>
	</g>
</g>
<path fill="none" stroke="#000000" stroke-linecap="round" stroke-linejoin="round" d="M1033.7,434l11.7,7.4l-38.9-24.7
	 M219.1,289.5c-0.6-0.8,0.6-2.9,0.9-3.4c0.6-1.1,1.3-2.2,2-3.1c0.8-1,1.5-1.9,2.4-2.8c0.4-0.4,0.9-0.9,1.4-1.3
	c0.3-0.2,1.2-1,1.6-0.6 M206.8,270c0.2,7.7,13.9,7.7,14,0 M163.4,354.1c-0.1,7.7-13.8,7.7-14,0 M170.1,362.2
	c-0.4-0.3-1.4,0.4-1.6,0.6c-0.5,0.4-1,0.9-1.4,1.3c-0.9,0.9-1.6,1.8-2.4,2.8s-1.4,2-2,3.1c-0.3,0.5-1.5,2.6-1,3.4 M880.7,311.7
	c-0.6-0.8,0.6-2.9,0.9-3.4c0.6-1.1,1.3-2.2,2-3.1s1.5-1.9,2.4-2.8c0.4-0.4,0.9-0.9,1.4-1.3c0.3-0.2,1.2-1,1.6-0.6 M868.2,292.3
	c0.2,7.7,13.9,7.7,14,0 M764.3,381.6c-0.1,7.7-13.8,7.7-14,0 M771,389.8c-0.4-0.3-1.4,0.4-1.6,0.6c-0.5,0.4-1,0.9-1.4,1.3
	c-0.9,0.9-1.6,1.8-2.4,2.8s-1.4,2-2,3.1c-0.3,0.5-1.5,2.6-1,3.4 M314.2,416.6c0.9,0.5,1.6,1.1,2.5,1.5 M994.9,416.6
	c0.9,0.5,1.6,1.1,2.5,1.5"/>
<g>
	<path d="M302.3,204.2c-1.5,1.4-3.3,2.2-5.5,2.2c-2.2,0-4-0.7-5.5-2.2c-1.5-1.4-2.2-3.2-2.2-5.4c0-2.1,0.7-3.9,2.2-5.4
		c1.5-1.4,3.3-2.2,5.5-2.2c2.2,0,4,0.7,5.5,2.2c1.5,1.4,2.2,3.2,2.2,5.4C304.5,201,303.7,202.8,302.3,204.2z M301.2,198.8
		c0-1.3-0.4-2.4-1.3-3.3c-0.8-0.9-1.9-1.4-3.1-1.4c-1.2,0-2.2,0.5-3.1,1.4c-0.8,0.9-1.3,2-1.3,3.3c0,1.3,0.4,2.4,1.3,3.3
		c0.8,0.9,1.9,1.4,3.1,1.4c1.2,0,2.2-0.5,3.1-1.4C300.7,201.2,301.2,200.1,301.2,198.8z"/>
	<path d="M312.3,200.9l3.7-9.3h3.5l-5.9,14.6h-2.8l-5.9-14.6h3.5L312.3,200.9z"/>
	<path d="M331.8,191.6v2.9h-7.3v3h6.5v2.8h-6.5v3h7.5v2.9h-10.8v-14.6H331.8z"/>
	<path d="M346.8,196.4c0,2.3-0.9,3.9-2.8,4.5l3.7,5.2h-4l-3.2-4.7h-2.3v4.7H335v-14.6h5.5c2.3,0,3.9,0.4,4.9,1.2
		S346.8,194.7,346.8,196.4z M342.9,198.2c0.4-0.4,0.6-0.9,0.6-1.7c0-0.8-0.2-1.3-0.6-1.6c-0.4-0.3-1.1-0.4-2.2-0.4h-2.4v4.3h2.4
		C341.7,198.7,342.5,198.5,342.9,198.2z"/>
	<path d="M353.6,194.5c-0.3,0.3-0.5,0.6-0.5,1c0,0.4,0.2,0.8,0.6,1c0.4,0.3,1.3,0.5,2.7,0.9c1.4,0.3,2.5,0.9,3.2,1.5
		c0.8,0.7,1.1,1.7,1.1,3c0,1.3-0.5,2.4-1.5,3.2c-1,0.8-2.3,1.2-3.9,1.2c-2.3,0-4.4-0.9-6.3-2.6l1.9-2.4c1.6,1.4,3,2.1,4.4,2.1
		c0.6,0,1.1-0.1,1.4-0.4c0.3-0.3,0.5-0.6,0.5-1c0-0.4-0.2-0.8-0.5-1c-0.4-0.3-1.1-0.5-2.2-0.8c-1.7-0.4-2.9-0.9-3.7-1.6
		c-0.8-0.6-1.2-1.7-1.2-3.1c0-1.4,0.5-2.5,1.5-3.2c1-0.8,2.2-1.1,3.7-1.1c1,0,2,0.2,2.9,0.5c1,0.3,1.8,0.8,2.6,1.4l-1.7,2.4
		c-1.3-1-2.6-1.4-3.9-1.4C354.3,194.1,353.9,194.3,353.6,194.5z"/>
	<path d="M369.6,194.4v11.8h-3.3v-11.8h-4.1v-2.8h11.5v2.8H369.6z"/>
	<path d="M388,204.2c-1.5,1.4-3.3,2.2-5.5,2.2c-2.2,0-4-0.7-5.5-2.2c-1.5-1.4-2.2-3.2-2.2-5.4c0-2.1,0.7-3.9,2.2-5.4
		c1.5-1.4,3.3-2.2,5.5-2.2c2.2,0,4,0.7,5.5,2.2s2.2,3.2,2.2,5.4C390.2,201,389.4,202.8,388,204.2z M386.9,198.8
		c0-1.3-0.4-2.4-1.3-3.3c-0.8-0.9-1.9-1.4-3.1-1.4c-1.2,0-2.2,0.5-3.1,1.4c-0.8,0.9-1.3,2-1.3,3.3c0,1.3,0.4,2.4,1.3,3.3
		c0.8,0.9,1.9,1.4,3.1,1.4c1.2,0,2.2-0.5,3.1-1.4C386.4,201.2,386.9,200.1,386.9,198.8z"/>
	<path d="M404.8,196.4c0,2.3-0.9,3.9-2.8,4.5l3.7,5.2h-4l-3.2-4.7h-2.3v4.7h-3.3v-14.6h5.5c2.3,0,3.9,0.4,4.9,1.2
		S404.8,194.7,404.8,196.4z M400.9,198.2c0.4-0.4,0.6-0.9,0.6-1.7c0-0.8-0.2-1.3-0.6-1.6c-0.4-0.3-1.1-0.4-2.2-0.4h-2.4v4.3h2.4
		C399.7,198.7,400.5,198.5,400.9,198.2z"/>
	<path d="M414,194.4v11.8h-3.3v-11.8h-4.1v-2.8h11.5v2.8H414z"/>
	<path d="M430.6,192.9c1,0.9,1.5,2.2,1.5,4c0,1.8-0.5,3.1-1.6,4c-1.1,0.8-2.7,1.3-4.8,1.3h-1.9v4.1h-3.3v-14.6h5.2
		C428,191.6,429.6,192,430.6,192.9z M428.2,198.7c0.4-0.4,0.6-1.1,0.6-1.9c0-0.8-0.3-1.4-0.8-1.8c-0.5-0.4-1.3-0.5-2.4-0.5h-1.9v4.9
		h2.2C427.1,199.3,427.8,199.1,428.2,198.7z"/>
	<path d="M438.6,202.4c0.5,0.7,1.3,1,2.2,1c0.9,0,1.6-0.3,2.2-1c0.5-0.7,0.8-1.6,0.8-2.8v-8.1h3.3v8.2c0,2.1-0.6,3.7-1.8,4.9
		c-1.2,1.1-2.7,1.7-4.5,1.7c-1.8,0-3.3-0.6-4.5-1.7c-1.2-1.1-1.8-2.8-1.8-4.9v-8.2h3.3v8.1C437.8,200.8,438,201.8,438.6,202.4z"/>
	<path d="M456.6,194.4v11.8h-3.3v-11.8h-4.1v-2.8h11.5v2.8H456.6z"/>
</g>
</svg>
