<svg xmlns="http://www.w3.org/2000/svg" viewBox="0 0 156 28"><g fill="#333"><path d="M7.1 8.9L5.2 5.5h-.7V9h-2V.2h3.3c.4 0 .8 0 1.2.1.4.1.7.3 1 .5.3.2.6.5.8.8.2.3.3.8.3 1.3 0 .6-.2 1.1-.5 1.5-.3.4-.8.6-1.3.8l2.3 3.7H7.1zm-.1-6c0-.2 0-.4-.1-.5-.1-.1-.2-.2-.4-.3-.1-.1-.2-.1-.4-.1H4.5v2H6s.3-.1.5-.2c.1-.1.3-.2.4-.3 0-.2.1-.4.1-.6z"/><path d="M16.1 8.9l-.7-1.7h-3.3l-.6 1.7H9.2L12.8.2h2l3.6 8.7h-2.3zm-2.3-6.3l-1.1 3h2.2l-1.1-3zM26.9 4.6c0 .8-.1 1.4-.4 2-.3.6-.7 1-1.1 1.4-.5.4-1 .6-1.6.8-.6.2-1.2.3-1.8.3h-3.2V.2h3.1c.6 0 1.2.1 1.8.2.6.1 1.1.4 1.6.7.5.3.8.8 1.1 1.3.3.7.5 1.3.5 2.2zm-2.2 0c0-.5-.1-.9-.2-1.2-.2-.3-.4-.6-.6-.8-.3-.2-.6-.3-.9-.4-.3-.1-.7-.1-1-.1h-1v5.1h1c.4 0 .7 0 1.1-.1.3-.1.6-.2.9-.4.3-.2.5-.5.6-.8 0-.5.1-.9.1-1.3zM27.9 8.9V.2h5.8V2h-3.8v1.6h3.6v1.7h-3.6v1.8h4v1.8h-6zM42.8 8.9V2.7l-2.2 6.2h-1.5L37 2.8V9h-2V.2h3l2 5.6L41.9.2h3v8.7h-2.1zM52.2 8.9l-.7-1.7h-3.3l-.6 1.7h-2.3L48.9.2h2l3.6 8.7h-2.3zm-2.3-6.3l-1.1 3H51l-1.1-3zM60.9 8.8c-.6.2-1.2.4-1.9.4s-1.3-.1-1.8-.3c-.6-.2-1.1-.5-1.5-.9-.4-.4-.7-.9-1-1.5-.2-.6-.4-1.2-.4-1.9s.1-1.3.4-1.9c.2-.6.6-1 1-1.4.4-.4.9-.7 1.5-.9.5-.3 1.1-.4 1.8-.4.6 0 1.2.1 1.8.3.6.2 1.1.5 1.4 1l-1.4 1.4c-.2-.3-.5-.5-.8-.6-.3-.1-.6-.2-1-.2s-.7.1-1 .2c-.3.1-.6.3-.8.6-.2.2-.4.5-.5.8-.1.3-.2.7-.2 1.1 0 .4.1.8.2 1.1s.3.6.5.8c.3.2.5.4.8.5.3.1.6.2 1 .2s.8-.1 1.1-.2c.3-.2.6-.4.7-.6l1.4 1.4c-.3.4-.8.7-1.3 1zM68.3 8.9V5.3H65v3.6h-2.1V.2H65v3.3h3.4V.2h2.1v8.7h-2.2zM71.9 8.9V.2h5.8V2h-3.8v1.6h3.6v1.7h-3.6v1.8h4v1.8h-6zM83.6 8.9l-1.9-3.5H81v3.5h-2V.2h3.3c.4 0 .8 0 1.2.1.4.1.7.2 1.1.4.3.2.6.5.7.8.2.3.3.8.3 1.3 0 .6-.2 1.1-.5 1.5-.3.4-.8.7-1.3.9L86 8.9h-2.4zm-.1-6c0-.2 0-.4-.1-.5l-.3-.3c-.2-.1-.3-.1-.5-.1H81v2h1.5s.3-.1.5-.2c.1-.1.3-.2.4-.3.1-.2.1-.4.1-.6zM95.6 8.9l-.8-.8c-.3.3-.6.5-1 .7-.4.2-.9.3-1.5.3-.4 0-.8-.1-1.1-.2-.4-.1-.7-.3-1-.5-.3-.2-.5-.5-.7-.8-.2-.3-.3-.7-.3-1.1 0-.3 0-.6.1-.8.1-.3.2-.5.4-.7.2-.2.4-.4.6-.5.2-.1.4-.3.7-.4-.3-.3-.5-.5-.6-.9-.2-.3-.2-.7-.2-1 0-.4.1-.7.2-1 .2-.3.4-.5.6-.7.3-.2.5-.3.9-.4.2-.1.5-.1.9-.1.3 0 .6 0 1 .1.3.1.6.2.8.4.2.2.4.4.6.7.2.3.2.6.2 1 0 .3 0 .5-.1.8-.1.2-.2.4-.4.6-.2.2-.3.4-.6.5-.2.1-.4.3-.7.4l1.1 1.1.9-1.3h2.2L96 6.8 98.1 9h-2.5zm-3.5-3.6c-.2.1-.5.2-.6.4-.2.2-.3.4-.3.8 0 .2 0 .3.1.5.1.1.2.3.3.3.1.1.2.2.4.2.1 0 .3.1.4.1.3 0 .5-.1.7-.2.2-.1.4-.3.5-.5l-1.5-1.6zm1.5-3c0-.2-.1-.4-.2-.6-.1-.2-.3-.2-.6-.2-.2 0-.4.1-.6.2s-.2.3-.2.6c0 .2.1.4.2.6.1.2.3.4.5.5.3-.1.5-.3.7-.5.1-.1.2-.4.2-.6zM109.5 4.6c0 .8-.1 1.4-.4 2-.3.6-.7 1-1.1 1.4-.5.4-1 .6-1.6.8-.6.2-1.2.3-1.8.3h-3.2V.2h3.1c.6 0 1.2.1 1.8.2.6.1 1.1.4 1.6.7.5.3.8.8 1.1 1.3.4.7.5 1.3.5 2.2zm-2.2 0c0-.5-.1-.9-.2-1.2-.2-.3-.4-.6-.6-.8-.3-.2-.6-.3-.9-.4-.3-.1-.7-.1-1-.1h-1v5.1h1c.4 0 .7 0 1.1-.1.3-.1.6-.2.9-.4.3-.2.5-.5.6-.8s.1-.9.1-1.3zM110.6 8.9V.2h5.8V2h-3.8v1.6h3.6v1.7h-3.6v1.8h4v1.8h-6zM124.5 8.9h-2.1L119.1.2h2.3l2 6.2 2-6.2h2.3l-3.2 8.7zM132.8 8.9l-1.9-3.5h-.7v3.5h-2V.2h3.3c.4 0 .8 0 1.2.1.4.1.7.2 1.1.4.3.2.6.5.7.8.2.3.3.8.3 1.3 0 .6-.2 1.1-.5 1.5-.3.5-.8.7-1.3.9l2.3 3.7h-2.5zm-.1-6c0-.2 0-.4-.1-.5l-.3-.3c-.2-.1-.3-.1-.5-.1h-1.6v2h1.5c.2 0 .3-.1.5-.2.1-.1.3-.2.4-.3.1-.2.1-.4.1-.6zM136 8.9V.2h2.1v8.7H136zM139.5 8.9V.2h5.8V2h-3.8v1.6h3.6v1.7h-3.6v1.8h4v1.8h-6zM151.2 2.5c-.2-.2-.4-.4-.7-.5-.3-.1-.6-.2-.8-.2h-.4c-.1 0-.3.1-.4.1l-.3.3c-.1.1-.1.3-.1.4 0 .1 0 .3.1.4l.3.3c.1.1.3.1.4.2.2.1.3.1.5.2l.9.3c.3.1.6.3.9.5.3.2.5.4.6.7.2.3.3.7.3 1.1 0 .5-.1.9-.3 1.3-.2.4-.4.7-.7.9-.3.2-.7.4-1.1.5-.4.1-.8.2-1.2.2-.6 0-1.2-.1-1.8-.3-.6-.2-1.1-.5-1.4-.9l1.4-1.4c.2.3.5.5.8.7.3.2.7.3 1 .3h.5c.1 0 .3-.1.4-.2l.3-.3c.1-.1.1-.3.1-.4 0-.2 0-.3-.1-.4l-.3-.3c-.2-.1-.3-.2-.6-.3-.2-.1-.5-.2-.8-.3-.3-.1-.5-.2-.8-.3-.3-.1-.5-.3-.7-.5-.2-.2-.4-.4-.5-.7-.1-.3-.2-.6-.2-1 0-.5.1-.9.3-1.2.2-.3.5-.6.8-.8.3-.2.7-.4 1.1-.5.4-.1.8-.2 1.2-.2.5 0 1 .1 1.5.3.5.2 1 .4 1.3.8l-1.5 1.2z"/><g><path d="M43.1 27.9h-.9l3.5-8.1h.8l3.5 8.1h-1l-.9-2.1H44l-.9 2.1zm1.2-2.9h3.5L46 20.7 44.3 25zM53.3 23.1v-.6h.7v.9c.2-.3.4-.6.7-.8.3-.2.6-.3 1-.3h.5l-.1.7h-.5c-.2 0-.4 0-.6.1-.2.1-.4.2-.5.4-.1.2-.3.4-.3.6-.1.3-.1.6-.1.9v2.7h-.8v-4.2-.4zM63.3 23.7c-.1-.2-.3-.4-.6-.5-.2-.1-.5-.2-.8-.2-.3 0-.6.1-.8.2-.2.1-.5.3-.6.5-.2.2-.3.4-.4.7-.1.3-.1.5-.1.9 0 .3 0 .6.1.8.1.3.2.5.4.7.2.2.4.3.6.5.2.1.5.2.8.2.3 0 .6-.1.9-.2.2-.1.4-.3.6-.5l.6.4c-.2.3-.5.5-.8.7-.3.2-.7.3-1.2.3-.4 0-.8-.1-1.2-.2-.3-.1-.6-.3-.9-.6-.2-.3-.4-.5-.6-.9-.1-.3-.2-.7-.2-1.1 0-.4.1-.8.2-1.1.1-.3.3-.6.6-.9.2-.3.5-.4.9-.6.3-.1.7-.2 1.2-.2.4 0 .7.1 1.1.2.4.2.7.4.9.7l-.7.2zM68.2 23.4c.1-.3.4-.6.7-.7.3-.2.7-.3 1.1-.3.7 0 1.2.2 1.5.6.3.4.5.9.5 1.6v3.3h-.8v-3c0-.3 0-.5-.1-.8 0-.2-.1-.4-.2-.6-.1-.2-.3-.3-.4-.4-.2-.1-.4-.1-.7-.1-.2 0-.4 0-.6.1-.2.1-.4.2-.5.4-.2.2-.3.4-.4.7-.1.3-.1.6-.1.9v2.8h-.8v-8.7h.8v4.2zM77.3 20.4c0 .2-.1.3-.2.4-.1.1-.2.2-.4.2-.1 0-.3-.1-.4-.2-.1-.1-.2-.2-.2-.4s.1-.3.2-.4c.1-.1.2-.2.4-.2.1 0 .3.1.4.2.1.1.2.3.2.4zm-.2 7.5h-.8v-5.4h.8v5.4zM83.8 23.2h-1.5v3.1c0 .2 0 .4.1.5 0 .1.1.2.2.3.1.1.2.1.3.1h.6c.1 0 .2-.1.3-.1v.7c-.1.1-.3.1-.4.1h-.5c-.1 0-.3 0-.5-.1-.2 0-.3-.1-.4-.2-.1-.1-.2-.3-.3-.4-.1-.2-.1-.4-.1-.7v-3.3h-1.1v-.7h1.1V21h.8v1.5h1.5v.7zM92.1 25v.4h-4.4c0 .3.1.5.2.8.1.2.2.4.4.6.2.2.4.3.6.4.2.1.5.2.8.2.4 0 .7-.1 1-.3.3-.2.5-.4.7-.6l.6.5c-.3.4-.7.7-1.1.9-.4.2-.8.3-1.2.3-.4 0-.8-.1-1.1-.2-.3-.1-.6-.3-.9-.6-.2-.3-.4-.5-.6-.9-.1-.3-.2-.7-.2-1.1 0-.4.1-.8.2-1.1.1-.3.3-.6.6-.9.2-.3.5-.4.9-.6.3-.1.7-.2 1.1-.2.4 0 .8.1 1.1.2.3.1.6.3.8.6.2.2.4.5.5.8v.8zm-.7-.2c0-.5-.2-.9-.5-1.3-.3-.3-.7-.5-1.3-.5-.3 0-.5 0-.7.1-.2.1-.4.2-.6.4-.2.2-.3.4-.4.6-.1.2-.2.4-.2.7h3.7zM99.9 23.7c-.1-.2-.3-.4-.6-.5-.2-.1-.5-.2-.8-.2-.3 0-.6.1-.8.2-.2.1-.5.3-.6.5-.2.2-.3.4-.4.7-.1.3-.1.5-.1.9 0 .3 0 .6.1.8.1.3.2.5.4.7.2.2.4.3.6.5.2.1.5.2.8.2.3 0 .6-.1.9-.2.2-.1.4-.3.6-.5l.6.4c-.2.3-.5.5-.8.7-.4 0-.8.1-1.3.1-.4 0-.8-.1-1.2-.2-.3-.1-.6-.3-.9-.6-.2-.3-.4-.5-.6-.9-.1-.3-.2-.7-.2-1.1 0-.4.1-.8.2-1.1.1-.3.3-.6.6-.9.2-.3.5-.4.9-.6.3-.1.7-.2 1.2-.2.4 0 .7.1 1.1.2.4.2.7.4.9.7l-.6.4zM106.4 23.2h-1.5v3.1c0 .2 0 .4.1.5 0 .1.1.2.2.3.1.1.2.1.3.1h.6c.1 0 .2-.1.3-.1v.7c-.1.1-.3.1-.4.1h-.5c-.1 0-.3 0-.5-.1-.2 0-.3-.1-.4-.2-.1-.1-.2-.3-.3-.4-.1-.2-.1-.4-.1-.7v-3.3H103v-.7h1.1V21h.8v1.5h1.5v.7zM112.7 23.8c-.1-.2-.3-.4-.5-.5-.2-.1-.5-.2-.8-.2h-.4c-.1 0-.3.1-.4.1l-.3.3c-.1.1-.1.2-.1.4 0 .3.1.4.3.6.2.1.5.2 1 .3.6.1 1.1.3 1.4.6.3.2.4.6.4 1 0 .3-.1.6-.2.8-.1.2-.3.4-.5.5l-.6.3c-.2.1-.5.1-.7.1-.4 0-.8-.1-1.2-.3-.4-.2-.7-.4-.9-.8l.6-.5c.1.2.3.4.6.6.3.2.6.2.9.2h.5c.2 0 .3-.1.4-.2l.3-.3c.1-.1.1-.3.1-.4 0-.3-.1-.5-.4-.6-.3-.1-.7-.3-1.2-.4-.2 0-.3-.1-.5-.1-.2-.1-.3-.1-.5-.3-.2-.1-.3-.3-.4-.4-.1-.2-.1-.4-.1-.6 0-.3.1-.5.2-.7.1-.2.2-.4.4-.5l.6-.3c.2-.1.5-.1.7-.1.4 0 .7.1 1.1.3.3.2.6.4.8.7l-.6.4z"/></g><path d="M0 14.3h156v1H0z"/></g></svg>