<svg xmlns="http://www.w3.org/2000/svg" xmlns:xlink="http://www.w3.org/1999/xlink" viewBox="0 0 570 607" enable-background="new 0 0 570 607"><path fill="none" stroke="#000" stroke-width=".479" stroke-linecap="round" stroke-linejoin="round" d="M137.1 487.2l6.1-6.7M124 489.2L80.7 536M119.5 454.7v-.3M188.6 582.6l-50.3-32.1M249.8 516.3l-61.2 66.3M188.6 582.6v-2.3M249.8 516.3v-5M199.6 476.8v-27.2M199.6 449.6l-61.3 66.3M138.3 540.3v-24.4M199.6 449.6l-2.5-1.6M197.1 448l-61.2 66.4M138.3 515.9l-2.4-1.5M135.9 514.4v34.5M135.9 548.9l2.4 1.6M40.2 451l58 42.5M93.9 498.1L36.5 456M103.9 469.3l4.5-.7M108.4 468.5c3.8-4.1 7.7-8.1 11.3-12.4M145.1 462.9c-4.6-3-9.1-6-13.2-9.7M122.8 448.7l-.9 1M119.9 451.8l-6.5 7.2M113.4 459l-9.5 10.3M119.8 456.3l-3.2 3.4M139.9 462.8l-8.7-5.5M123.5 449l-.7-.3M119.6 452.8l-6.2 6.2M130.7 457.9c.9-.9 1.3-1.9 1.3-3.2"/><path fill="none" stroke="#000" stroke-width=".479" stroke-linecap="round" stroke-linejoin="round" d="M119.5 454.7c0 2.6 2.2 4.4 4.5 5 2.3.6 5 0 6.7-1.8M149 484.2l-5.8-3.7M125.6 469.3l-2.2-1.4M123.4 467.9l-6.1 6.6M103.9 486.6l.5.3M118.1 495.6l22.1 14.1M143.4 506.2v-11.7M103.9 469.3l39.5 25.2M103.9 486.6v-17.3M162.4 485.6v-11.7M143.4 494.5l19-20.6M154.4 487.2c-.4-.2-1.1.4-1.4.7-.4.4-.7.8-1 1.2-.3.5-1.4 2.2-.8 2.9M123.4 467.9v-8.3M108.2 468.8l.2-.3M141 463.5l17 10.9M158 474.4l-15.2 16.5M142.8 490.9l-34.6-22.1M143.2 480.5v-11.3M130.5 483l12.7-13.8M143.2 469.2l-2.5-1.6M140.7 467.6L128 481.4M120.2 452.2c-.1.1-.1.3-.2.5M120 452.7c0 .1-.1.3-.1.4M89 416.2c-2.3-1.8-5.3-5-5.4-8.3M89.8 407.6c.4 1.3 1.9 2.8 2.9 3.5M83.5 407.6v-14M89.7 393.5v14.1M136.9 451.6L89 416.2M92.7 411.2l48.5 35.8M134.1 454.7l34.1-37M180 428.5l-32.9 35.7M68.9 525.2l43.3-46.9M154.4 487.2l4.1 2.6M154.6 494.1l-3.3-2.1M36.5 455.9c-2.3-1.8-5.3-5-5.4-8.3M37.3 447.4c.4 1.3 1.9 2.8 2.9 3.5M31 447.3v-52M37.2 395.1v52.2M131.9 454.4v.4"/><path fill="#F05A22" d="M37 360.7h-7.2v-1.2H37v1.2zm-6.9-.3h6.7v-.7h-6.7v.7z"/><path fill="#F05A22" d="M36.4 359.7h-5.9l.3-4.2h.3l-.3 4h5.4l-.3-4h.3"/><path fill="#F05A22" d="M33.5 356.2c-3 0-5.5-2.1-5.5-4.8v-.1h11v.1c0 2.7-2.5 4.8-5.5 4.8m-5.3-4.6c.1 2.5 2.4 4.4 5.3 4.4s5.2-2 5.3-4.4H28.2z"/><path fill="#F05A22" d="M39.4 351.6H27.5v-1.4h11.9v1.4zm-11.7-.2h11.5v-1H27.7v1z"/><path fill="#F05A22" d="M37.9 350.4h-9l-1.1-6.7H39l-1.1 6.7zm-8.7-.2h8.6l1-6.2H28.2l1 6.2z"/><path fill="#F05A22" d="M39.4 343.9H27.5v-1.4h11.9v1.4zm-11.7-.2h11.5v-1H27.7v1zM37.2 346.1c-.4 0-.7-.3-.7-.7 0-.4.3-.7.7-.7.4 0 .7.3.7.7 0 .4-.4.7-.7.7m0-1.2c-.2 0-.4.2-.4.4s.2.4.4.4.4-.2.4-.4-.2-.4-.4-.4"/><path fill="#F05A22" d="M39.3 342.6v1.2h-.4l-1 6.4h1.5v1.2H39c0 1.8-1.2 3.3-2.8 4.1l.3 4.1h.6v1H30v-1h.7l.3-4c-1.7-.8-2.9-2.3-2.9-4.1h-.4v-1.2h1.5l-1-6.4h-.4v-1.2h11.5m.5-.5H27.1v2.2h.5l.9 5.5h-1.4v2.2h.5c.2 1.6 1.2 3.1 2.8 3.9l-.2 3.3h-.7v2h7.9v-2h-.7l-.2-3.3c1.6-.8 2.6-2.3 2.8-3.9h.5v-2.2h-1.4l.9-5.5h.5v-2.2z"/><path fill="none" stroke="#000" stroke-width=".479" stroke-linecap="round" stroke-linejoin="round" d="M157.2 470.6l5.2 3.3-17.3-11M440.2 487.2l6.1-6.7M427.1 489.2c1.1-1.2.1-3.4-.5-4.4-.8-1.4-1.8-2.5-3-3.6s-2.4-2-3.8-2.7c-1.1-.5-3.3-1.4-4.4-.2M427.1 489.2L383.8 536M422.6 454.7v-.3M434.9 452.7c3.1 2.8 6.3 5.4 9.7 7.8M392.2 394.8c-1 1.1-2.9 1.3-4.1.6-1.5-.8-2-2.5-.8-3.8"/><path fill="none" stroke="#000" stroke-width=".479" stroke-linecap="round" stroke-linejoin="round" d="M387.3 391.7c1-1.1 2.9-1.3 4.1-.6 1.5.8 2 2.5.8 3.8"/><path fill="none" stroke="#000" stroke-width=".479" stroke-linecap="round" stroke-linejoin="round" d="M391.6 394.4c-.8.8-2.1 1-3.1.5-1.1-.6-1.5-1.9-.6-2.8"/><path fill="none" stroke="#000" stroke-width=".479" stroke-linecap="round" stroke-linejoin="round" d="M387.9 392.1c.8-.8 2.1-1 3.1-.5 1.1.6 1.5 1.9.6 2.8M438.5 472.9c0-1.9-2.1-4.2-3.4-5.2-.8-.7-1.7-1.3-2.7-1.7-.8-.3-2.3-.7-2.9.3-1 1.8 1.6 4.5 2.6 5.5s3.9 3.2 5.6 2.4M438.4 473.5c.1-.2.1-.4.1-.6M483.5 427.2c0-2.6-2.8-5.7-4.5-7.1-1.1-.9-2.3-1.7-3.6-2.3-1-.4-3.1-1.1-4.1 0M483.1 428.5c.4-.4.5-.8.5-1.4"/><path fill="none" stroke="#000" stroke-width=".479" stroke-linecap="round" stroke-linejoin="round" d="M436.3 475.7c-2.5-.9-4.4-2.4-6.1-4.4-.8-1-1.6-2-2.1-3.1-.4-.9-1-2.6-.1-3.6s2.6-.5 3.6-.2c1.2.4 2.3 1.1 3.3 1.9 2.1 1.6 3.8 3.3 4.8 5.7M382.5 533.5c0 1.5-1.4 1.6-2.5 1.2-1.1-.3-2-.9-2.9-1.6-1.3-1-3.7-3.4-3.7-5.5 0-1.5 1.4-1.6 2.5-1.2 1.1.3 2 .9 2.9 1.6 1.4 1.1 3.7 3.5 3.7 5.5z"/><path fill="none" stroke="#000" stroke-width=".479" stroke-linecap="round" stroke-linejoin="round" d="M384.3 534.7c0-2.8-3.2-6.2-5.1-7.6-1.3-1-2.5-1.8-4.1-2.2-1.6-.5-3.5-.3-3.5 1.7 0 2.8 3.2 6.2 5.1 7.6 1.3 1 2.5 1.8 4.1 2.2 1.6.5 3.5.3 3.5-1.7zM502.7 476.8c-20.3 21.2-42.1 41-61.2 63.5M491.7 582.6l-50.2-32.1M441.5 540.3c0 3.9 8.3 10.2 10.5 11.9 4.3 3.3 8.7 6.4 13.2 9.4 8.9 6.1 17.9 12.1 26.5 18.7M552.9 516.3l-61.2 66.3M491.7 582.6v-2.3M491.7 580.3c19.3-24.1 41.6-45.2 61.2-69M552.9 516.3v-5"/><path fill="none" stroke="#000" stroke-width=".479" stroke-linecap="round" stroke-linejoin="round" d="M552.9 511.3c-8.1-6.3-17-11.2-25.7-16.5-4.4-2.7-8.6-5.4-12.8-8.3-2.1-1.5-4.2-2.9-6.2-4.5-1.4-1.1-2.7-2.1-4-3.3-.4-.4-1.5-1.2-1.5-1.9M502.7 476.8v-27.2M502.7 449.6l-61.2 66.3M441.5 540.3v-24.4M475 499.1c.1-.6-.2-1.1-.8-.8-.5.3-.8.7-1.2 1.1-.7.9-1.2 1.7-1.4 2.8-.1.6.2 1.1.8.8.5-.3.8-.7 1.2-1.1.7-.8 1.3-1.7 1.4-2.8zM502.7 449.6l-2.5-1.6M500.2 448L439 514.4M441.5 515.9l-2.5-1.5M439 514.4v34.5M439 548.9l2.5 1.6"/><path fill="none" stroke="#000" stroke-width=".479" stroke-linecap="round" stroke-linejoin="round" d="M474.5 499.6c-.2.7-.5 1.4-1 2-.5.6-1.7 1.3-1.4.2.2-.7.5-1.4 1-2 .5-.6 1.6-1.3 1.4-.2zM343.3 451l24.3 17.6M363.3 473.2L339.6 456M339.7 396.5c1.2-1.3.7-3-.8-3.8-1.3-.7-3.1-.5-4.1.6M334.8 393.4c-1.2 1.3-.7 3 .8 3.8 1.3.7 3.1.5 4.2-.6"/><path fill="none" stroke="#000" stroke-width=".479" stroke-linecap="round" stroke-linejoin="round" d="M339.1 396.1c.9-1 .5-2.2-.6-2.8-1-.5-2.3-.4-3.1.5"/><path fill="none" stroke="#000" stroke-width=".479" stroke-linecap="round" stroke-linejoin="round" d="M335.4 393.8c-.9 1-.5 2.2.6 2.8 1 .5 2.3.4 3.1-.5M433.8 457.1c.7-.7 1-1.5 1.2-2.4M422.6 454.5c.7 5 7.9 6.2 11.1 2.6"/><path fill="none" stroke="#000" stroke-width=".479" stroke-linecap="round" stroke-linejoin="round" d="M433.8 457c2.3-2.5 1.3-6-1.6-7.5-2.6-1.4-6.2-1-8.3 1.2-2.3 2.5-1.3 6 1.6 7.5 2.6 1.4 6.2 1 8.3-1.2z"/><path fill="#F9CA03" d="M423 453.1c1.2-5.5 10.7-5.3 11.7.2"/><path fill="none" stroke="#000" stroke-width=".479" stroke-linecap="round" stroke-linejoin="round" d="M423 453.1c1.2-5.5 10.7-5.3 11.7.2M433.5 456.8c-2 2.1-5.4 2.5-7.9 1.1-2.8-1.5-3.7-4.7-1.5-7.1 2-2.1 5.4-2.5 7.9-1.2 2.8 1.5 3.8 4.8 1.5 7.2zM422.6 454.7c-5 5.1-10.3 9.8-15.6 14.5M407 469.3l4.6-.7M411.6 468.5c3.8-4.1 7.7-8.1 11.3-12.4M448.2 462.9c-4.6-3-9.1-6-13.2-9.7M426 448.7l-1 1M423.1 451.8l-6.6 7.2M416.5 459l-9.5 10.3M422.9 456.3l-3.1 3.4M443 462.8l-8.7-5.5M426.6 449l-.6-.3M422.7 452.8l-6.2 6.2M433.8 457.9c.9-.9 1.3-1.9 1.3-3.2"/><path fill="none" stroke="#000" stroke-width=".479" stroke-linecap="round" stroke-linejoin="round" d="M422.6 454.7c0 2.6 2.2 4.4 4.5 5 2.3.6 5 0 6.7-1.8M452.1 484.2l-5.8-3.7M428.7 469.3l-2.2-1.4M426.5 467.9l-6.1 6.6M407 486.6l.5.3M421.2 495.6l22.1 14.1M446.5 506.2v-11.7M407 469.3l39.5 25.2M407 486.6v-17.3M465.5 485.6v-11.7M446.5 494.5l19-20.6M457.5 487.2c-.4-.2-1.1.4-1.4.7-.4.4-.7.8-1 1.2-.3.5-1.4 2.2-.8 2.9M426.5 467.9v-8.3M411.4 468.8l.2-.3M444.1 463.5l17 10.9M461.1 474.4L446 490.9M446 490.9l-34.6-22.1M446.3 480.5v-11.3M433.6 483l12.7-13.8M446.3 469.2l-2.5-1.6M443.8 467.6l-12.7 13.8M423.3 452.2c-.1.1-.1.3-.2.5M423.1 452.7c0 .1-.1.3-.1.4M392.1 416.2c-2.3-1.8-5.3-5-5.4-8.3M392.9 407.6c.4 1.3 1.9 2.8 2.9 3.5M386.6 407.6v-14M392.9 393.5v14.1M406.3 426.7l-14.2-10.5M440 451.6l-20.8-15.4M423.6 431.6l20.7 15.4M395.8 411.2l14.8 10.8M437.2 454.7l34.1-37M483.1 428.5l-32.9 35.7M372.1 525.2l43.2-46.9M391.6 466.1L348.4 513M448.1 404.1c0-2.6-2.8-5.7-4.5-7.1-1.1-.9-2.3-1.7-3.6-2.3-1-.4-3.1-1.1-4.1 0M347 510.5c0 1.5-1.4 1.6-2.5 1.2-1.1-.3-2-.9-2.9-1.6-1.3-1-3.7-3.4-3.7-5.5 0-1.5 1.4-1.6 2.5-1.2 1.1.3 2 .9 2.9 1.6 1.4 1.1 3.7 3.5 3.7 5.5z"/><path fill="none" stroke="#000" stroke-width=".479" stroke-linecap="round" stroke-linejoin="round" d="M348.8 511.6c0-2.8-3.2-6.2-5.1-7.6-1.3-1-2.5-1.8-4.1-2.2-1.6-.5-3.5-.3-3.5 1.7 0 2.8 3.2 6.2 5.1 7.6 1.3 1 2.5 1.8 4.1 2.2 1.6.5 3.5.4 3.5-1.7zM379.9 455.3l55.9-60.7M447.6 405.5l-56 60.6M336.6 502.1l43.3-46.8M457.5 487.2l4.1 2.6M457.7 494.1l-3.3-2.1M339.6 455.9c-2.3-1.8-5.3-5-5.4-8.3M340.4 447.4c.4 1.3 1.9 2.8 2.9 3.5M334.1 447.3v-52M340.4 395.1v52.2M435.1 454.4v.4"/><path fill="#F05A22" d="M340.2 360.7H333v-1.2h7.2v1.2zm-7-.3h6.7v-.7h-6.7v.7z"/><path fill="#F05A22" d="M339.6 359.7h-5.9l.2-4.2h.3l-.3 4h5.4l-.3-4h.3"/><path fill="#F05A22" d="M336.6 356.2c-3.1 0-5.5-2.1-5.5-4.8v-.1h11v.1c0 2.7-2.5 4.8-5.5 4.8m-5.3-4.6c.1 2.5 2.4 4.4 5.3 4.4s5.2-2 5.3-4.4h-10.6z"/><path fill="#F05A22" d="M342.6 351.6h-11.9v-1.4h11.9v1.4zm-11.8-.2h11.5v-1h-11.5v1z"/><path fill="#F05A22" d="M341.1 350.4h-9l-1.1-6.7h11.1l-1 6.7zm-8.8-.2h8.6l1-6.2h-10.6l1 6.2z"/><path fill="#F05A22" d="M342.6 343.9h-11.9v-1.4h11.9v1.4zm-11.8-.2h11.5v-1h-11.5v1zM340.3 346.1c-.4 0-.7-.3-.7-.7 0-.4.3-.7.7-.7.4 0 .7.3.7.7 0 .4-.3.7-.7.7m0-1.2c-.2 0-.4.2-.4.4s.2.4.4.4.4-.2.4-.4-.2-.4-.4-.4"/><path fill="#F05A22" d="M342.4 342.6v1.2h-.4l-1 6.4h1.5v1.2h-.5c0 1.8-1.2 3.3-2.8 4.1l.3 4.1h.6v1h-6.9v-1h.7l.3-4c-1.7-.8-2.9-2.3-2.9-4.1h-.4v-1.2h1.5l-1-6.4h-.4v-1.2h11.4m.5-.5h-12.7v2.2h.5l.9 5.5h-1.4v2.2h.5c.2 1.6 1.2 3.1 2.8 3.9l-.2 3.3h-.7v2h7.9v-2h-.7l-.2-3.3c1.6-.8 2.6-2.3 2.8-3.9h.5v-2.2h-1.4l.9-5.5h.5v-2.2z"/><path fill="none" stroke="#000" stroke-width=".479" stroke-linecap="round" stroke-linejoin="round" d="M460.3 470.6l5.2 3.3-17.3-11M137.1 172.6l6.1-6.6M124 174.6c1.1-1.2.1-3.4-.5-4.4-.8-1.4-1.8-2.5-3-3.6s-2.4-2-3.8-2.7c-1.1-.5-3.3-1.4-4.4-.2M124 174.6l-43.3 46.9M119.5 140.2v-.4M131.8 138.1c3.1 2.8 6.3 5.4 9.7 7.8M89.1 80.3c-1 1.1-2.9 1.3-4.1.6-1.5-.8-2-2.5-.8-3.8"/><path fill="none" stroke="#000" stroke-width=".479" stroke-linecap="round" stroke-linejoin="round" d="M84.2 77.1c1-1.1 2.9-1.3 4.1-.6 1.5.8 2 2.5.8 3.8"/><path fill="none" stroke="#000" stroke-width=".479" stroke-linecap="round" stroke-linejoin="round" d="M88.5 79.9c-.8.8-2.1 1-3.1.5-1.1-.6-1.5-1.9-.6-2.8M84.8 77.5c.8-.8 2.1-1 3.1-.5 1.1.6 1.5 1.9.6 2.8M135.3 158.4c0-1.9-2.1-4.2-3.4-5.2-.8-.7-1.7-1.3-2.7-1.7-.8-.3-2.3-.7-2.9.3-.9 1.8 1.6 4.5 2.6 5.5s3.9 3.2 5.6 2.4M135.2 159c.1-.2.1-.4.1-.6M180.4 112.6c0-2.6-2.8-5.7-4.5-7.1-1.1-.9-2.3-1.7-3.6-2.3-1-.4-3.1-1.1-4.1 0M180 114c.4-.4.5-.8.5-1.4"/><path fill="none" stroke="#000" stroke-width=".479" stroke-linecap="round" stroke-linejoin="round" d="M133.2 161.1c-2.5-.9-4.4-2.4-6.1-4.4-.8-1-1.6-2-2.1-3.1-.4-.9-1-2.6-.1-3.6s2.6-.5 3.6-.2c1.2.4 2.3 1.1 3.3 1.9 2.1 1.6 3.8 3.3 4.8 5.7M79.4 219c0 1.5-1.4 1.6-2.5 1.2-1.1-.3-2-.9-2.9-1.6-1.3-1-3.7-3.4-3.7-5.5 0-1.5 1.4-1.6 2.5-1.2 1.1.3 2 .9 2.9 1.6 1.4 1.1 3.7 3.5 3.7 5.5z"/><path fill="none" stroke="#000" stroke-width=".479" stroke-linecap="round" stroke-linejoin="round" d="M81.2 220.1c0-2.8-3.2-6.2-5.1-7.6-1.3-1-2.5-1.8-4.1-2.2-1.6-.5-3.5-.3-3.5 1.7 0 2.8 3.2 6.2 5.1 7.6 1.3 1 2.5 1.8 4.1 2.2 1.6.5 3.5.4 3.5-1.7zM199.6 162.2c-20.3 21.2-42.1 41-61.2 63.5M188.6 268l-50.3-32M138.3 225.8c0 3.9 8.3 10.2 10.5 11.9 4.3 3.3 8.7 6.4 13.2 9.4 8.9 6.1 17.9 12.1 26.5 18.7M249.8 201.7L188.6 268M188.6 268v-2.2M188.6 265.8c19.3-24.1 41.6-45.2 61.2-69M249.8 201.7v-4.9M249.8 196.8c-8.1-6.3-17-11.2-25.7-16.5-4.4-2.7-8.6-5.4-12.8-8.3-2.1-1.5-4.2-2.9-6.2-4.5-1.4-1.1-2.7-2.1-4-3.3-.4-.4-1.5-1.2-1.5-1.9M199.6 162.2v-27.1M199.6 135.1l-61.3 66.3M138.3 225.8v-24.4M171.9 184.5c.1-.6-.2-1.1-.8-.8-.5.3-.8.7-1.2 1.1-.7.9-1.2 1.7-1.4 2.8-.1.6.2 1.1.8.8.5-.3.8-.7 1.2-1.1.7-.8 1.2-1.6 1.4-2.8zM199.6 135.1l-2.5-1.6M197.1 133.5l-61.2 66.3M138.3 201.4l-2.4-1.6M135.9 199.8v34.6M135.9 234.4l2.4 1.6"/><path fill="none" stroke="#000" stroke-width=".479" stroke-linecap="round" stroke-linejoin="round" d="M171.4 185c-.2.7-.5 1.4-1 2-.5.6-1.7 1.3-1.4.2.2-.7.5-1.4 1-2 .5-.6 1.6-1.3 1.4-.2zM40.2 136.4l58 42.6M93.9 183.6l-57.4-42.2M36.6 82c1.2-1.3.7-3-.8-3.8-1.3-.7-3.1-.5-4.2.6"/><path fill="none" stroke="#000" stroke-width=".479" stroke-linecap="round" stroke-linejoin="round" d="M31.7 78.8c-1.2 1.3-.7 3 .8 3.8 1.3.7 3.1.5 4.2-.6"/><path fill="none" stroke="#000" stroke-width=".479" stroke-linecap="round" stroke-linejoin="round" d="M36 81.6c.9-1 .5-2.2-.6-2.8-1-.5-2.3-.4-3.1.5"/><path fill="none" stroke="#000" stroke-width=".479" stroke-linecap="round" stroke-linejoin="round" d="M32.3 79.2c-.9 1-.5 2.2.6 2.8 1 .5 2.3.4 3.1-.5M130.7 142.6c.7-.7 1-1.5 1.2-2.4M119.5 139.9c.7 5 7.9 6.2 11.1 2.6"/><path fill="none" stroke="#000" stroke-width=".479" stroke-linecap="round" stroke-linejoin="round" d="M130.7 142.4c2.3-2.5 1.3-6-1.6-7.5-2.6-1.4-6.2-1-8.3 1.2-2.3 2.5-1.3 6 1.6 7.5 2.6 1.4 6.2 1 8.3-1.2z"/><path fill="#F9CA03" d="M119.9 138.6c1.2-5.5 10.7-5.3 11.7.2"/><path fill="none" stroke="#000" stroke-width=".479" stroke-linecap="round" stroke-linejoin="round" d="M119.9 138.6c1.2-5.5 10.7-5.3 11.7.2M130.4 142.3c-2 2.1-5.4 2.5-7.9 1.2-2.8-1.5-3.7-4.7-1.5-7.1 2-2.1 5.4-2.5 7.9-1.2 2.8 1.4 3.7 4.6 1.5 7.1zM119.5 140.2c-5 5.1-10.3 9.8-15.6 14.5M103.9 154.7l4.5-.7M108.4 154c3.8-4.1 7.7-8.1 11.3-12.4M145.1 148.3c-4.6-3-9.1-6-13.2-9.7M122.8 134.2l-.9.9M119.9 137.3l-6.5 7.1M113.4 144.4l-9.5 10.3M119.8 141.7l-3.2 3.4M139.9 148.3l-8.7-5.6M123.5 134.4l-.7-.2M119.6 138.2l-6.2 6.2M130.7 143.4c.9-.9 1.3-1.9 1.3-3.2"/><path fill="none" stroke="#000" stroke-width=".479" stroke-linecap="round" stroke-linejoin="round" d="M119.5 140.2c0 2.6 2.2 4.4 4.5 5 2.3.6 5 0 6.7-1.8M149 169.7l-5.8-3.7M125.6 154.8l-2.2-1.4M123.4 153.4l-6.1 6.6M103.9 172l.5.3M118.1 181.1l22.1 14.1M143.4 191.6v-11.7M103.9 154.7l39.5 25.2M103.9 172v-17.3M162.4 171.1v-11.7M143.4 179.9l19-20.5M154.4 172.6c-.4-.2-1.1.4-1.4.7-.4.4-.7.8-1 1.2-.3.5-1.4 2.2-.8 2.9M123.4 153.4V145M108.2 154.2l.2-.2M141 149l17 10.9M158 159.9l-15.2 16.4M142.8 176.3l-34.6-22.1M143.2 166v-11.4M130.5 168.4l12.7-13.8M143.2 154.6l-2.5-1.6M140.7 153L128 166.8M120.2 137.6c-.1.1-.1.3-.2.5M120 138.1c0 .1-.1.3-.1.4M89 101.6c-2.3-1.8-5.3-5-5.4-8.3M89.8 93.1c.4 1.3 1.9 2.8 2.9 3.5M83.5 93V79.1M89.7 78.9V93M136.9 137L89 101.6M92.7 96.6l48.5 35.8M134.1 140.1l34.1-37M180 114l-32.9 35.6M68.9 210.7l43.3-46.9M154.4 172.6l4.1 2.7M154.6 179.5l-3.3-2M36.5 141.4c-2.3-1.8-5.3-5-5.4-8.3M37.3 132.8c.4 1.3 1.9 2.8 2.9 3.5M31 132.8V80.7M37.2 80.6v52.2M131.9 139.8v.4"/><path fill="#F05A22" d="M37 56.6h-7.2v-1.2H37v1.2zm-6.9-.3h6.7v-.7h-6.7v.7z"/><path fill="#F05A22" d="M36.4 55.6h-5.9l.3-4.2h.3l-.3 4h5.4l-.3-4h.3"/><path fill="#F05A22" d="M33.5 52.1c-3 0-5.5-2.1-5.5-4.8v-.1h11v.1c0 2.7-2.5 4.8-5.5 4.8m-5.3-4.7c.1 2.5 2.4 4.4 5.3 4.4s5.2-2 5.3-4.4H28.2z"/><path fill="#F05A22" d="M39.4 47.5H27.5V46h11.9v1.5zm-11.7-.3h11.5v-1H27.7v1z"/><path fill="#F05A22" d="M37.9 46.3h-9l-1.1-6.7H39l-1.1 6.7zm-8.7-.3h8.6l1-6.2H28.2l1 6.2z"/><path fill="#F05A22" d="M39.4 39.8H27.5v-1.4h11.9v1.4zm-11.7-.2h11.5v-1H27.7v1zM37.2 42c-.4 0-.7-.3-.7-.7 0-.4.3-.7.7-.7.4 0 .7.3.7.7 0 .3-.4.7-.7.7m0-1.2c-.2 0-.4.2-.4.4s.2.4.4.4.4-.2.4-.4-.2-.4-.4-.4"/><path fill="#F05A22" d="M39.3 38.5v1.2h-.4l-1 6.4h1.5v1.2H39c0 1.8-1.2 3.3-2.8 4.1l.3 4.1h.6v1H30v-1h.7l.3-4c-1.7-.8-2.9-2.3-2.9-4.1h-.4v-1.2h1.5l-1-6.4h-.4v-1.2h11.5m.5-.6H27.1v2.2h.5l.9 5.5h-1.4v2.2h.5c.2 1.6 1.2 3.1 2.8 3.9l-.2 3.2h-.7v2h7.9v-2h-.7l-.2-3.3c1.6-.8 2.6-2.3 2.8-3.9h.5v-2.2h-1.4l.9-5.5h.5V38z"/><path fill="none" stroke="#000" stroke-width=".479" stroke-linecap="round" stroke-linejoin="round" d="M157.2 156.1l5.2 3.3-17.3-11M440.2 172.6l6.1-6.6M427.1 174.6c1.1-1.2.1-3.4-.5-4.4-.8-1.4-1.8-2.5-3-3.6s-2.4-2-3.8-2.7c-1.1-.5-3.3-1.4-4.4-.2M427.1 174.6l-43.3 46.9M422.6 140.2v-.4M434.9 138.1c3.1 2.8 6.3 5.4 9.7 7.8M392.2 80.3c-1 1.1-2.9 1.3-4.1.6-1.5-.8-2-2.5-.8-3.8M387.3 77.1c1-1.1 2.9-1.3 4.1-.6 1.5.8 2 2.5.8 3.8"/><path fill="none" stroke="#000" stroke-width=".479" stroke-linecap="round" stroke-linejoin="round" d="M391.6 79.9c-.8.8-2.1 1-3.1.5-1.1-.6-1.5-1.9-.6-2.8M387.9 77.5c.8-.8 2.1-1 3.1-.5 1.1.6 1.5 1.9.6 2.8M438.5 158.4c0-1.9-2.1-4.2-3.4-5.2-.8-.7-1.7-1.3-2.7-1.7-.8-.3-2.3-.7-2.9.3-1 1.8 1.6 4.5 2.6 5.5s3.9 3.2 5.6 2.4M438.4 159c.1-.2.1-.4.1-.6M483.5 112.6c0-2.6-2.8-5.7-4.5-7.1-1.1-.9-2.3-1.7-3.6-2.3-1-.4-3.1-1.1-4.1 0M483.1 114c.4-.4.5-.8.5-1.4"/><path fill="none" stroke="#000" stroke-width=".479" stroke-linecap="round" stroke-linejoin="round" d="M436.3 161.1c-2.5-.9-4.4-2.4-6.1-4.4-.8-1-1.6-2-2.1-3.1-.4-.9-1-2.6-.1-3.6s2.6-.5 3.6-.2c1.2.4 2.3 1.1 3.3 1.9 2.1 1.6 3.8 3.3 4.8 5.7M382.5 219c0 1.5-1.4 1.6-2.5 1.2-1.1-.3-2-.9-2.9-1.6-1.3-1-3.7-3.4-3.7-5.5 0-1.5 1.4-1.6 2.5-1.2 1.1.3 2 .9 2.9 1.6 1.4 1.1 3.7 3.5 3.7 5.5z"/><path fill="none" stroke="#000" stroke-width=".479" stroke-linecap="round" stroke-linejoin="round" d="M384.3 220.1c0-2.8-3.2-6.2-5.1-7.6-1.3-1-2.5-1.8-4.1-2.2-1.6-.5-3.5-.3-3.5 1.7 0 2.8 3.2 6.2 5.1 7.6 1.3 1 2.5 1.8 4.1 2.2 1.6.5 3.5.4 3.5-1.7zM502.7 162.2c-20.3 21.2-42.1 41-61.2 63.5M491.7 268l-50.2-32M441.5 225.8c0 3.9 8.3 10.2 10.5 11.9 4.3 3.3 8.7 6.4 13.2 9.4 8.9 6.1 17.9 12.1 26.5 18.7M552.9 201.7L491.7 268M491.7 268v-2.2M491.7 265.8c19.3-24.1 41.6-45.2 61.2-69M552.9 201.7v-4.9M552.9 196.8c-8.1-6.3-17-11.2-25.7-16.5-4.4-2.7-8.6-5.4-12.8-8.3-2.1-1.5-4.2-2.9-6.2-4.5-1.4-1.1-2.7-2.1-4-3.3-.4-.4-1.5-1.2-1.5-1.9M502.7 162.2v-27.1M502.7 135.1l-61.2 66.3M441.5 225.8v-24.4M475 184.5c.1-.6-.2-1.1-.8-.8-.5.3-.8.7-1.2 1.1-.7.9-1.2 1.7-1.4 2.8-.1.6.2 1.1.8.8.5-.3.8-.7 1.2-1.1.7-.8 1.3-1.6 1.4-2.8zM502.7 135.1l-2.5-1.6M500.2 133.5L439 199.8M441.5 201.4l-2.5-1.6M439 199.8v34.6M439 234.4l2.5 1.6"/><path fill="none" stroke="#000" stroke-width=".479" stroke-linecap="round" stroke-linejoin="round" d="M474.5 185c-.2.7-.5 1.4-1 2-.5.6-1.7 1.3-1.4.2.2-.7.5-1.4 1-2 .5-.6 1.6-1.3 1.4-.2zM343.3 136.4l24.3 17.6M363.3 158.7l-23.7-17.3M339.7 82c1.2-1.3.7-3-.8-3.8-1.3-.7-3.1-.5-4.1.6"/><path fill="none" stroke="#000" stroke-width=".479" stroke-linecap="round" stroke-linejoin="round" d="M334.8 78.8c-1.2 1.3-.7 3 .8 3.8 1.3.7 3.1.5 4.2-.6"/><path fill="none" stroke="#000" stroke-width=".479" stroke-linecap="round" stroke-linejoin="round" d="M339.1 81.6c.9-1 .5-2.2-.6-2.8-1-.5-2.3-.4-3.1.5"/><path fill="none" stroke="#000" stroke-width=".479" stroke-linecap="round" stroke-linejoin="round" d="M335.4 79.2c-.9 1-.5 2.2.6 2.8 1 .5 2.3.4 3.1-.5M433.8 142.6c.7-.7 1-1.5 1.2-2.4M422.6 139.9c.7 5 7.9 6.2 11.1 2.6"/><path fill="none" stroke="#000" stroke-width=".479" stroke-linecap="round" stroke-linejoin="round" d="M433.8 142.4c2.3-2.5 1.3-6-1.6-7.5-2.6-1.4-6.2-1-8.3 1.2-2.3 2.5-1.3 6 1.6 7.5 2.6 1.4 6.2 1 8.3-1.2z"/><path fill="#F9CA03" d="M423 138.6c1.2-5.5 10.7-5.3 11.7.2"/><path fill="none" stroke="#000" stroke-width=".479" stroke-linecap="round" stroke-linejoin="round" d="M423 138.6c1.2-5.5 10.7-5.3 11.7.2M433.5 142.3c-2 2.1-5.4 2.5-7.9 1.2-2.8-1.5-3.7-4.7-1.5-7.1 2-2.1 5.4-2.5 7.9-1.2 2.8 1.4 3.8 4.6 1.5 7.1zM422.6 140.2c-5 5.1-10.3 9.8-15.6 14.5M407 154.7l4.6-.7M411.6 154c3.8-4.1 7.7-8.1 11.3-12.4M448.2 148.3c-4.6-3-9.1-6-13.2-9.7M426 134.2l-1 .9M423.1 137.3l-6.6 7.1M416.5 144.4l-9.5 10.3M422.9 141.7l-3.1 3.4M443 148.3l-8.7-5.6M426.6 134.4l-.6-.2M422.7 138.2l-6.2 6.2M433.8 143.4c.9-.9 1.3-1.9 1.3-3.2"/><path fill="none" stroke="#000" stroke-width=".479" stroke-linecap="round" stroke-linejoin="round" d="M422.6 140.2c0 2.6 2.2 4.4 4.5 5 2.3.6 5 0 6.7-1.8M452.1 169.7l-5.8-3.7M428.7 154.8l-2.2-1.4M426.5 153.4l-6.1 6.6M407 172l.5.3M421.2 181.1l22.1 14.1M446.5 191.6v-11.7M407 154.7l39.5 25.2M407 172v-17.3M465.5 171.1v-11.7M446.5 179.9l19-20.5M457.5 172.6c-.4-.2-1.1.4-1.4.7-.4.4-.7.8-1 1.2-.3.5-1.4 2.2-.8 2.9M426.5 153.4V145M411.4 154.2l.2-.2M444.1 149l17 10.9M461.1 159.9L446 176.3M446 176.3l-34.6-22.1M446.3 166v-11.4M433.6 168.4l12.7-13.8M446.3 154.6l-2.5-1.6M443.8 153l-12.7 13.8M423.3 137.6c-.1.1-.1.3-.2.5M423.1 138.1c0 .1-.1.3-.1.4M392.1 101.6c-2.3-1.8-5.3-5-5.4-8.3M392.9 93.1c.4 1.3 1.9 2.8 2.9 3.5M386.6 93V79.1M392.9 78.9V93M406.3 112.1l-14.2-10.5M440 137l-20.8-15.4M423.6 117l20.7 15.4M395.8 96.6l14.8 10.8M437.2 140.1l34.1-37M483.1 114l-32.9 35.6M372.1 210.7l43.2-46.9M391.6 151.6l-43.2 46.8M448.1 89.6c0-2.6-2.8-5.7-4.5-7.1-1.1-.9-2.3-1.7-3.6-2.3-1-.4-3.1-1.1-4.1 0M347 195.9c0 1.5-1.4 1.6-2.5 1.2-1.1-.3-2-.9-2.9-1.6-1.3-1-3.7-3.4-3.7-5.5 0-1.5 1.4-1.6 2.5-1.2 1.1.3 2 .9 2.9 1.6 1.4 1.1 3.7 3.5 3.7 5.5z"/><path fill="none" stroke="#000" stroke-width=".479" stroke-linecap="round" stroke-linejoin="round" d="M348.8 197.1c0-2.8-3.2-6.2-5.1-7.6-1.3-1-2.5-1.8-4.1-2.2-1.6-.5-3.5-.3-3.5 1.7 0 2.8 3.2 6.2 5.1 7.6 1.3 1 2.5 1.8 4.1 2.2 1.6.5 3.5.3 3.5-1.7zM379.9 140.7l55.9-60.6M447.6 90.9l-56 60.7M336.6 187.6l43.3-46.9M457.5 172.6l4.1 2.7M457.7 179.5l-3.3-2M339.6 141.4c-2.3-1.8-5.3-5-5.4-8.3M340.4 132.8c.4 1.3 1.9 2.8 2.9 3.5M334.1 132.8V80.7M340.4 80.6v52.2M435.1 139.8v.4"/><path fill="#F05A22" d="M340.2 56.6H333v-1.2h7.2v1.2zm-7-.3h6.7v-.7h-6.7v.7z"/><path fill="#F05A22" d="M339.6 55.6h-5.9l.2-4.2h.3l-.3 4h5.4l-.3-4h.3"/><path fill="#F05A22" d="M336.6 52.1c-3.1 0-5.5-2.1-5.5-4.8v-.1h11v.1c0 2.7-2.5 4.8-5.5 4.8m-5.3-4.7c.1 2.5 2.4 4.4 5.3 4.4s5.2-2 5.3-4.4h-10.6z"/><path fill="#F05A22" d="M342.6 47.5h-11.9V46h11.9v1.5zm-11.8-.3h11.5v-1h-11.5v1z"/><path fill="#F05A22" d="M341.1 46.3h-9l-1.1-6.7h11.1l-1 6.7zm-8.8-.3h8.6l1-6.2h-10.6l1 6.2z"/><path fill="#F05A22" d="M342.6 39.8h-11.9v-1.4h11.9v1.4zm-11.8-.2h11.5v-1h-11.5v1zM340.3 42c-.4 0-.7-.3-.7-.7 0-.4.3-.7.7-.7.4 0 .7.3.7.7 0 .3-.3.7-.7.7m0-1.2c-.2 0-.4.2-.4.4s.2.4.4.4.4-.2.4-.4-.2-.4-.4-.4"/><path fill="#F05A22" d="M342.4 38.5v1.2h-.4l-1 6.4h1.5v1.2h-.5c0 1.8-1.2 3.3-2.8 4.1l.3 4.1h.6v1h-6.9v-1h.7l.3-4c-1.7-.8-2.9-2.3-2.9-4.1h-.4v-1.2h1.5l-1-6.4h-.4v-1.2h11.4m.5-.6h-12.7v2.2h.5l.9 5.5h-1.4v2.2h.5c.2 1.6 1.2 3.1 2.8 3.9l-.2 3.3h-.7v2h7.9V55h-.7l-.2-3.3c1.6-.8 2.6-2.3 2.8-3.9h.5v-2.2h-1.4l.9-5.5h.5V38z"/><path fill="none" stroke="#000" stroke-width=".479" stroke-linecap="round" stroke-linejoin="round" d="M460.3 156.1l5.2 3.3-17.3-11"/><path fill="#F9CA03" d="M131.9 454.1c0 2.7-2.7 4.9-6 4.9s-6-2.2-6-4.9 2.7-4.9 6-4.9 6 2.2 6 4.9"/><g opacity=".4"><defs><path id="a" d="M132.6 472.7h21.2v18.2h-21.2z"/></defs><clipPath id="b"><use xlink:href="#a" overflow="visible"/></clipPath><g clip-path="url(#b)"><defs><path id="c" d="M132.6 472.7h21.2v18.2h-21.2z"/></defs><clipPath id="d"><use xlink:href="#c" overflow="visible"/></clipPath><path clip-path="url(#d)" fill="#F05A22" d="M142.8 490.9l-10.2-6.7 10.6-11.5 10.5 6.4"/></g></g><g opacity=".4"><defs><path id="e" d="M109.9 458h30.2v23.2h-30.2z"/></defs><clipPath id="f"><use xlink:href="#e" overflow="visible"/></clipPath><g clip-path="url(#f)"><defs><path id="g" d="M109.9 458h30.2v23.2h-30.2z"/></defs><clipPath id="h"><use xlink:href="#g" overflow="visible"/></clipPath><path clip-path="url(#h)" fill="#F05A22" d="M126.2 459.8c-.3 0-.6.1-.8.1-1.7 0-3.3-.7-4.4-1.9l-11 12 18.1 11.2 12-13.1-13.9-8.3z"/></g></g><g opacity=".4"><defs><path id="i" d="M168.4 495.5h58.4V539h-58.4z"/></defs><clipPath id="j"><use xlink:href="#i" overflow="visible"/></clipPath><g clip-path="url(#j)"><defs><path id="k" d="M168.4 495.5h58.4V539h-58.4z"/></defs><clipPath id="m"><use xlink:href="#k" overflow="visible"/></clipPath><defs><filter id="l" filterUnits="userSpaceOnUse" x="168.4" y="495.5" width="58.4" height="43.5"><feFlood result="back" flood-color="#fff" flood-opacity="1"/><feBlend in="SourceGraphic" in2="back"/></filter></defs><mask maskUnits="userSpaceOnUse" x="168.4" y="495.5" width="58.4" height="43.5" id="p"><g enable-background="new" filter="url(#l)"><defs><path id="n" d="M167.2 494.4H228v45.9h-60.8z"/></defs><clipPath id="o" clip-path="url(#m)"><use xlink:href="#n" overflow="visible"/></clipPath><g clip-path="url(#o)"><image overflow="visible" width="127" height="96" xlink:href="F29979B7F1C6602.jpg" transform="matrix(.4788 0 0 .4786 167.21 494.37)"/></g></g></mask><g clip-path="url(#m)" mask="url(#p)"><defs><path id="q" d="M168.4 495.5h58.4V539h-58.4z"/></defs><clipPath id="r"><use xlink:href="#q" overflow="visible"/></clipPath><g clip-path="url(#r)"><defs><path id="s" d="M168.4 495.5h58.4V539h-58.4z"/></defs><clipPath id="t"><use xlink:href="#s" overflow="visible"/></clipPath><path clip-path="url(#t)" fill="#F05A22" d="M171.1 498.9c10.7.8 6 2.4 15.5 3.4 9.5 1.1 30.4-11.3 37.9-5.1 7.5 6.3-4.5 17.2-13.7 22.4-9.2 5.2-24.6 20.1-30.7 19.3-6.1-.8-1.5-10.1-2.6-18.7-1.1-8.7-2.3-9.8-3.8-12.8s-4.2-4.7-5.3-5.5"/></g></g></g></g><path fill="#F9CA03" d="M435 454.1c0 2.7-2.7 4.9-6 4.9s-6-2.2-6-4.9 2.7-4.9 6-4.9 6 2.2 6 4.9"/><g opacity=".2"><defs><path id="u" d="M441.5 456H553v98.4H441.5z"/></defs><clipPath id="v"><use xlink:href="#u" overflow="visible"/></clipPath><g clip-path="url(#v)"><defs><path id="w" d="M441.5 456H553v98.4H441.5z"/></defs><clipPath id="x"><use xlink:href="#w" overflow="visible"/></clipPath><path clip-path="url(#x)" fill="#004261" d="M491.7 554.3l61.2-66.3-50.2-32-61.2 66.3 14.4 26.6"/></g></g><path fill="none" stroke="#004261" stroke-width=".339" stroke-miterlimit="10" d="M491.7 554.3l61.2-66.3-50.2-32-61.2 66.3 14.4 26.6z"/><g opacity=".2"><defs><path id="y" d="M138.5 456H250v98.4H138.5z"/></defs><clipPath id="z"><use xlink:href="#y" overflow="visible"/></clipPath><g clip-path="url(#z)"><defs><path id="A" d="M138.5 456H250v98.4H138.5z"/></defs><clipPath id="B"><use xlink:href="#A" overflow="visible"/></clipPath><path clip-path="url(#B)" fill="#004261" d="M188.7 554.3l61.2-66.3-50.2-32-61.2 66.3 14.4 26.6"/></g></g><path fill="none" stroke="#004261" stroke-width=".339" stroke-miterlimit="10" d="M188.7 554.3l61.2-66.3-50.2-32-61.2 66.3 14.4 26.6z"/><g opacity=".4"><defs><path id="C" d="M435.7 472.7h21.2v18.2h-21.2z"/></defs><clipPath id="D"><use xlink:href="#C" overflow="visible"/></clipPath><g clip-path="url(#D)"><defs><path id="E" d="M435.7 472.7h21.2v18.2h-21.2z"/></defs><clipPath id="F"><use xlink:href="#E" overflow="visible"/></clipPath><path clip-path="url(#F)" fill="#004261" d="M446 490.9l-10.3-6.7 10.6-11.5 10.5 6.4"/></g></g><g opacity=".4"><defs><path id="G" d="M413.1 458h30.2v23.2h-30.2z"/></defs><clipPath id="H"><use xlink:href="#G" overflow="visible"/></clipPath><g clip-path="url(#H)"><defs><path id="I" d="M413.1 458h30.2v23.2h-30.2z"/></defs><clipPath id="J"><use xlink:href="#I" overflow="visible"/></clipPath><path clip-path="url(#J)" fill="#004261" d="M429.3 459.8c-.3 0-.6.1-.8.1-1.7 0-3.3-.7-4.4-1.9l-11 12 18.1 11.2 12-13.1-13.9-8.3z"/></g></g><g opacity=".4"><defs><path id="K" d="M471.5 495.5h57.9V539h-57.9z"/></defs><clipPath id="L"><use xlink:href="#K" overflow="visible"/></clipPath><g clip-path="url(#L)"><defs><path id="M" d="M471.5 495.5h57.9V539h-57.9z"/></defs><clipPath id="O"><use xlink:href="#M" overflow="visible"/></clipPath><defs><filter id="N" filterUnits="userSpaceOnUse" x="471.5" y="495.5" width="57.9" height="43.5"><feFlood result="back" flood-color="#fff" flood-opacity="1"/><feBlend in="SourceGraphic" in2="back"/></filter></defs><mask maskUnits="userSpaceOnUse" x="471.5" y="495.5" width="57.9" height="43.5" id="R"><g enable-background="new" filter="url(#N)"><defs><path id="P" d="M470.2 494.4h60.3v45.9h-60.3z"/></defs><clipPath id="Q" clip-path="url(#O)"><use xlink:href="#P" overflow="visible"/></clipPath><g clip-path="url(#Q)"><image overflow="visible" width="126" height="96" xlink:href="F29979B7F1C6601.jpg" transform="matrix(.4788 0 0 .4786 470.152 494.37)"/></g></g></mask><g clip-path="url(#O)" mask="url(#R)"><defs><path id="S" d="M471.5 495.5h57.9V539h-57.9z"/></defs><clipPath id="T"><use xlink:href="#S" overflow="visible"/></clipPath><g clip-path="url(#T)"><defs><path id="U" d="M471.5 495.5h57.9V539h-57.9z"/></defs><clipPath id="V"><use xlink:href="#U" overflow="visible"/></clipPath><path clip-path="url(#V)" fill="#004261" d="M474.2 498.9c10.7.8 6 2.4 15.5 3.4 9.5 1.1 30.4-11.3 37.9-5.1 7.5 6.3-9 20.7-18.2 25.9-9.2 5.2-20.2 16.6-26.2 15.8-6.1-.8-1.5-10.1-2.6-18.7-1.1-8.7-2.3-9.8-3.8-12.8s-4.2-4.7-5.3-5.5"/></g></g></g></g><path fill="#F9CA03" d="M131.9 139.5c0 2.7-2.7 4.9-6 4.9s-6-2.2-6-4.9 2.7-4.9 6-4.9 6 2.2 6 4.9"/><g opacity=".4"><defs><path id="W" d="M109.9 143.4h30.2v23.2h-30.2z"/></defs><clipPath id="X"><use xlink:href="#W" overflow="visible"/></clipPath><g clip-path="url(#X)"><defs><path id="Y" d="M109.9 143.4h30.2v23.2h-30.2z"/></defs><clipPath id="Z"><use xlink:href="#Y" overflow="visible"/></clipPath><path clip-path="url(#Z)" fill="#F05A22" d="M126.2 145.3c-.3 0-.6.1-.8.1-1.7 0-3.3-.7-4.4-1.9l-11 12 18.1 11.2 12-13.1-13.9-8.3z"/></g></g><path fill="#F9CA03" d="M435 139.5c0 2.7-2.7 4.9-6 4.9s-6-2.2-6-4.9 2.7-4.9 6-4.9 6 2.2 6 4.9"/><g opacity=".2"><defs><path id="aa" d="M441.5 141.4H553v98.4H441.5z"/></defs><clipPath id="ab"><use xlink:href="#aa" overflow="visible"/></clipPath><g clip-path="url(#ab)"><defs><path id="ac" d="M441.5 141.4H553v98.4H441.5z"/></defs><clipPath id="ad"><use xlink:href="#ac" overflow="visible"/></clipPath><path clip-path="url(#ad)" fill="#004261" d="M491.7 239.8l61.2-66.3-50.2-32.1-61.2 66.3 14.4 26.7"/></g></g><path fill="none" stroke="#004261" stroke-width=".339" stroke-miterlimit="10" d="M491.7 239.8l61.2-66.3-50.2-32.1-61.2 66.3 14.4 26.7z"/><g opacity=".2"><defs><path id="ae" d="M138.5 141.4H250v98.4H138.5z"/></defs><clipPath id="af"><use xlink:href="#ae" overflow="visible"/></clipPath><g clip-path="url(#af)"><defs><path id="ag" d="M138.5 141.4H250v98.4H138.5z"/></defs><clipPath id="ah"><use xlink:href="#ag" overflow="visible"/></clipPath><path clip-path="url(#ah)" fill="#004261" d="M188.7 239.8l61.2-66.3-50.2-32.1-61.2 66.3 14.4 26.7"/></g></g><path fill="none" stroke="#004261" stroke-width=".339" stroke-miterlimit="10" d="M188.7 239.8l61.2-66.3-50.2-32.1-61.2 66.3 14.4 26.7z"/><g opacity=".4"><defs><path id="ai" d="M413.1 143.4h30.2v23.2h-30.2z"/></defs><clipPath id="aj"><use xlink:href="#ai" overflow="visible"/></clipPath><g clip-path="url(#aj)"><defs><path id="ak" d="M413.1 143.4h30.2v23.2h-30.2z"/></defs><clipPath id="al"><use xlink:href="#ak" overflow="visible"/></clipPath><path clip-path="url(#al)" fill="#004261" d="M429.3 145.3c-.3 0-.6.1-.8.1-1.7 0-3.3-.7-4.4-1.9l-11 12 18.1 11.2 12-13.1-13.9-8.3z"/></g></g><path fill="none" stroke="#F05A22" stroke-width=".475" stroke-linecap="round" stroke-linejoin="round" d="M177.2 505.1l-7.5-4.9"/><path fill="#F05A22" d="M177.2 503.4l3.5 4-5.1-1.6"/><path fill="none" stroke="#204E65" stroke-width=".475" stroke-linecap="round" stroke-linejoin="round" d="M180.8 417.9l14.3-15.5"/><path fill="#204E65" d="M182.4 418.2l-4.5 2.8 2.5-4.7"/><path fill="none" stroke="#F05A22" stroke-width=".479" stroke-linecap="round" stroke-linejoin="round" d="M34.1 385.8v-10.1"/><path fill="#F05A22" d="M35.5 384.8l-1.4 5.2-1.4-5.2"/><path fill="none" stroke="#204E65" stroke-width=".479" stroke-linecap="round" stroke-linejoin="round" d="M86.6 385.4v-9.5"/><path fill="#204E65" d="M88 384.5l-1.4 5.2-1.4-5.2"/><path fill="none" stroke="#204E65" stroke-width=".475" stroke-linecap="round" stroke-linejoin="round" d="M78 529.3l-13.5 14.6"/><path fill="#204E65" d="M64.1 542.3l-2.5 4.7 4.5-2.9"/><path fill="none" stroke="#F05A22" stroke-width=".678" stroke-linejoin="round" d="M130.1 468.3l9.9 6.7c.6.4 1.1 1.4 1.2 2.1l.1 2.5"/><path fill="#F05A22" d="M129.7 469c-.4-.2-.4-.7-.2-1.1.2-.3.7-.4 1.1-.2.3.2.4.7.2 1.1-.3.3-.8.4-1.1.2M140.2 479l1 3.6 1-3.7"/><path fill="none" stroke="#204E65" stroke-width=".678" stroke-linecap="round" stroke-linejoin="round" stroke-dasharray="0,1.357" d="M86.6 395.3v12.1c0 2.2 1.5 5.1 3.3 6.5l56.2 40.5"/><path fill="none" stroke="#F05A22" stroke-width=".678" stroke-linecap="round" stroke-linejoin="round" stroke-dasharray="0,1.357" d="M34.1 396.5v50.2c0 2.2 1.5 5.1 3.3 6.5l56.2 40.5"/><path fill="none" stroke="#204E65" stroke-width=".678" stroke-linecap="round" stroke-linejoin="round" stroke-dasharray="0,1.357" d="M177.4 421L77.5 529.3"/><path fill="none" stroke="#F05A22" stroke-width=".475" stroke-linecap="round" stroke-linejoin="round" d="M177 416.9l14.3-15.5"/><path fill="#F05A22" d="M178.6 417.2l-4.5 2.8 2.5-4.7"/><path fill="none" stroke="#F05A22" stroke-width=".475" stroke-linecap="round" stroke-linejoin="round" d="M74.2 528.3l-13.5 14.6"/><path fill="#F05A22" d="M60.3 541.3l-2.5 4.7 4.5-2.8"/><path fill="none" stroke="#F05A22" stroke-width=".678" stroke-linecap="round" stroke-linejoin="round" stroke-dasharray="0,1.357" d="M173.6 420L73.7 528.3"/><path fill="none" stroke="#004261" stroke-width=".475" stroke-linecap="round" stroke-linejoin="round" d="M480.3 505.1l-7.5-4.9"/><path fill="#004261" d="M480.3 503.4l3.5 4-5-1.6"/><path fill="none" stroke="#204E65" stroke-width=".475" stroke-linecap="round" stroke-linejoin="round" d="M483.9 417.9l14.3-15.5"/><path fill="#204E65" d="M485.5 418.2L481 421l2.5-4.7"/><path fill="none" stroke="#F05A22" stroke-width=".479" stroke-linecap="round" stroke-linejoin="round" d="M337.2 385.8v-10.1"/><path fill="#F05A22" d="M338.6 384.8l-1.4 5.2-1.4-5.2"/><path fill="none" stroke="#204E65" stroke-width=".479" stroke-linecap="round" stroke-linejoin="round" d="M389.7 385.4v-9.5"/><path fill="#204E65" d="M391.1 384.5l-1.4 5.2-1.4-5.2"/><path fill="none" stroke="#204E65" stroke-width=".475" stroke-linecap="round" stroke-linejoin="round" d="M381.1 529.3l-13.5 14.6"/><path fill="#204E65" d="M367.2 542.3l-2.5 4.7 4.5-2.9"/><path fill="none" stroke="#004261" stroke-width=".678" stroke-linejoin="round" d="M435.5 470.8l7.5 4.3c.6.4 1.2 1.3 1.2 2l.1 2.6"/><path fill="#004261" d="M435.2 471.5c-.4-.2-.5-.7-.3-1 .2-.4.7-.5 1-.3.4.2.5.7.3 1-.2.4-.6.5-1 .3M443.3 479.1l1.1 3.7.9-3.7"/><path fill="none" stroke="#204E65" stroke-width=".678" stroke-linecap="round" stroke-linejoin="round" stroke-dasharray="0,1.357" d="M421.5 433.7l27.7 20.7M389.7 395.3v11.2c0 2.2 1.5 5.2 3.2 6.5l14.9 11.4"/><path fill="none" stroke="#F05A22" stroke-width=".678" stroke-linecap="round" stroke-linejoin="round" stroke-dasharray="0,1.357" d="M337.2 396.5v50.2c0 2.2 1.5 5.1 3.3 6.4l31.8 22.5"/><path fill="none" stroke="#204E65" stroke-width=".678" stroke-linecap="round" stroke-linejoin="round" stroke-dasharray="0,1.357" d="M480.5 421l-99.9 108.3"/><path fill="none" stroke="#F05A22" stroke-width=".475" stroke-linecap="round" stroke-linejoin="round" d="M446.8 394.2l7.8-8.6"/><path fill="#F05A22" d="M448.4 394.4l-4.5 2.9 2.5-4.7"/><path fill="none" stroke="#F05A22" stroke-width=".475" stroke-linecap="round" stroke-linejoin="round" d="M344.1 505.4L330.6 520"/><path fill="#F05A22" d="M330.2 518.4l-2.5 4.7 4.5-2.8"/><path fill="none" stroke="#F05A22" stroke-width=".678" stroke-linecap="round" stroke-linejoin="round" stroke-dasharray="0,1.357" d="M443.5 397.3L343.3 506.2"/><path fill="none" stroke="#204E65" stroke-width=".678" stroke-linecap="round" stroke-linejoin="round" stroke-dasharray="0,1.357" d="M472.8 500.2l-28.2-17.4"/><path fill="none" stroke="#F05A22" stroke-width=".678" stroke-linecap="round" stroke-linejoin="round" stroke-dasharray="0,1.357" d="M169.7 500.2L141 482.6"/><path fill="none" stroke="#204E65" stroke-width=".475" stroke-linecap="round" stroke-linejoin="round" d="M180.8 103.4l14.3-15.6"/><path fill="#204E65" d="M182.4 103.6l-4.5 2.9 2.5-4.8"/><path fill="none" stroke="#F05A22" stroke-width=".479" stroke-linecap="round" stroke-linejoin="round" d="M34.1 69.8V59.7"/><path fill="#F05A22" d="M35.5 68.8L34.1 74l-1.4-5.2"/><path fill="none" stroke="#204E65" stroke-width=".479" stroke-linecap="round" stroke-linejoin="round" d="M86.6 69.4v-9.5"/><path fill="#204E65" d="M88 68.5l-1.4 5.2-1.4-5.2"/><path fill="none" stroke="#204E65" stroke-width=".475" stroke-linecap="round" stroke-linejoin="round" d="M78 214.7l-13.5 14.7"/><path fill="#204E65" d="M64.1 227.7l-2.5 4.7 4.5-2.8"/><path fill="none" stroke="#204E65" stroke-width=".678" stroke-linecap="round" stroke-linejoin="round" stroke-dasharray="0,1.357" d="M86.6 80.7v12.1c0 2.2 1.5 5.1 3.3 6.5l56.2 40.5"/><path fill="none" stroke="#F05A22" stroke-width=".678" stroke-linecap="round" stroke-linejoin="round" stroke-dasharray="0,1.357" d="M34.1 82v50.2c0 2.2 1.5 5.1 3.3 6.5l56.2 40.5"/><path fill="none" stroke="#204E65" stroke-width=".678" stroke-linecap="round" stroke-linejoin="round" stroke-dasharray="0,1.357" d="M177.4 106.5L77.5 214.7"/><path fill="none" stroke="#F05A22" stroke-width=".475" stroke-linecap="round" stroke-linejoin="round" d="M177 102.4l14.3-15.6"/><path fill="#F05A22" d="M178.6 102.6l-4.5 2.9 2.5-4.7"/><path fill="none" stroke="#F05A22" stroke-width=".475" stroke-linecap="round" stroke-linejoin="round" d="M74.2 213.7l-13.5 14.7"/><path fill="#F05A22" d="M60.3 226.7l-2.5 4.8 4.5-2.9"/><path fill="none" stroke="#F05A22" stroke-width=".678" stroke-linecap="round" stroke-linejoin="round" stroke-dasharray="0,1.357" d="M173.6 105.5L73.7 213.7"/><path fill="none" stroke="#204E65" stroke-width=".475" stroke-linecap="round" stroke-linejoin="round" d="M483.9 103.4l14.3-15.6"/><path fill="#204E65" d="M485.5 103.6l-4.5 2.9 2.5-4.8"/><path fill="none" stroke="#F05A22" stroke-width=".479" stroke-linecap="round" stroke-linejoin="round" d="M337.2 69.8V58.3"/><path fill="#F05A22" d="M338.6 68.8l-1.4 5.2-1.4-5.2"/><path fill="none" stroke="#204E65" stroke-width=".479" stroke-linecap="round" stroke-linejoin="round" d="M389.7 69.4V58.5"/><path fill="#204E65" d="M391.1 68.5l-1.4 5.2-1.4-5.2"/><path fill="none" stroke="#204E65" stroke-width=".475" stroke-linecap="round" stroke-linejoin="round" d="M381.1 214.7l-13.5 14.7"/><path fill="#204E65" d="M367.2 227.7l-2.5 4.7 4.5-2.8"/><path fill="none" stroke="#204E65" stroke-width=".678" stroke-linecap="round" stroke-linejoin="round" stroke-dasharray="0,1.357" d="M421.5 119.2l27.7 20.6M389.7 80.7v11.2c0 2.2 1.5 5.2 3.2 6.5l14.9 11.4"/><path fill="none" stroke="#F05A22" stroke-width=".678" stroke-linecap="round" stroke-linejoin="round" stroke-dasharray="0,1.357" d="M337.2 82v50.2c0 2.2 1.5 5.1 3.3 6.4l31.8 22.5"/><path fill="none" stroke="#204E65" stroke-width=".678" stroke-linecap="round" stroke-linejoin="round" stroke-dasharray="0,1.357" d="M480.5 106.5l-99.9 108.2"/><path fill="none" stroke="#F05A22" stroke-width=".475" stroke-linecap="round" stroke-linejoin="round" d="M446.8 79.6l7.8-8.6"/><path fill="#F05A22" d="M448.4 79.9l-4.5 2.9 2.5-4.8"/><path fill="none" stroke="#F05A22" stroke-width=".475" stroke-linecap="round" stroke-linejoin="round" d="M344.1 190.8l-13.5 14.7"/><path fill="#F05A22" d="M330.2 203.8l-2.5 4.8 4.5-2.9"/><path fill="none" stroke="#F05A22" stroke-width=".678" stroke-linecap="round" stroke-linejoin="round" stroke-dasharray="0,1.357" d="M443.5 82.8L343.3 191.6"/><path fill="none" stroke="#000" stroke-width=".479" stroke-linecap="round" stroke-linejoin="round" d="M89 416.2c-.3-.3.3-1.3.4-1.5.3-.5.6-.9.9-1.4.3-.4.7-.9 1.1-1.3l.6-.6c.1-.1.5-.4.7-.3M83.5 407.6c.1 3.5 6.2 3.5 6.2 0M37.2 447.3c0 3.5-6.1 3.5-6.2 0M40.2 450.9c-.2-.1-.6.2-.7.3l-.6.6c-.4.4-.7.8-1.1 1.3-.3.4-.6.9-.9 1.4-.1.3-.7 1.2-.4 1.5M392.1 416.2c-.3-.3.3-1.3.4-1.5.3-.5.6-.9.9-1.4.3-.4.7-.9 1.1-1.3l.6-.6c.1-.1.5-.4.7-.3M386.6 407.6c.1 3.5 6.2 3.5 6.2 0M340.4 447.3c0 3.5-6.1 3.5-6.2 0M343.3 450.9c-.2-.1-.6.2-.7.3l-.6.6c-.4.4-.7.8-1.1 1.3-.3.4-.6.9-.9 1.4-.1.3-.7 1.2-.4 1.5M89 101.6c-.3-.3.3-1.3.4-1.5.3-.5.6-.9.9-1.4.3-.4.7-.9 1.1-1.3l.6-.6c.1-.1.5-.4.7-.3M83.5 93c.1 3.5 6.2 3.5 6.2 0M37.2 132.8c0 3.5-6.1 3.5-6.2 0M40.2 136.4c-.2-.1-.6.2-.7.3l-.6.6c-.4.4-.7.8-1.1 1.3-.3.4-.6.9-.9 1.4-.1.3-.7 1.2-.4 1.5M392.1 101.6c-.3-.3.3-1.3.4-1.5.3-.5.6-.9.9-1.4.3-.4.7-.9 1.1-1.3l.6-.6c.1-.1.5-.4.7-.3M386.6 93c.1 3.5 6.2 3.5 6.2 0M340.4 132.8c0 3.5-6.1 3.5-6.2 0M343.3 136.4c-.2-.1-.6.2-.7.3l-.6.6c-.4.4-.7.8-1.1 1.3-.3.4-.6.9-.9 1.4-.1.3-.7 1.2-.4 1.5"/><path fill="#004261" d="M104.2 350.2c0-3-2.4-5.4-5.4-5.4-.3 0-.6 0-.9.1-.7-.9-1.8-1.4-3-1.4-.7 0-1.4.2-2 .5-.8-1.1-2.2-1.8-3.7-1.8-2.5 0-4.5 1.9-4.6 4.4-2.5 0-4.5 2.1-4.5 4.5 0 2.5 2 4.5 4.5 4.5h14.9c2.6-.4 4.7-2.7 4.7-5.4M407.3 350.2c0-3-2.4-5.4-5.4-5.4-.3 0-.6 0-.9.1-.7-.9-1.8-1.4-3-1.4-.7 0-1.4.2-2 .5-.8-1.1-2.2-1.8-3.7-1.8-2.5 0-4.5 1.9-4.6 4.4-2.5 0-4.5 2.1-4.5 4.5 0 2.5 2 4.5 4.5 4.5h14.9c2.7-.4 4.7-2.7 4.7-5.4"/><path fill="none" stroke="#004261" stroke-width="1.357" stroke-linecap="round" stroke-linejoin="round" stroke-miterlimit="10" stroke-dasharray="0,2.713" d="M387.9 361.1l-6.6 8.3M392.4 360.4l-6.6 8.3M395.7 361.1l-6.6 8.3M400.7 360.4l-6.5 8.3M402.5 361.7l-6.6 8.3M84.4 361.1l-6.5 8.3M88.9 360.4l-6.5 8.3M92.2 361.1l-6.5 8.3M97.3 360.4l-6.6 8.3M99.1 361.7l-6.6 8.3"/><path fill="none" stroke="#000" stroke-width=".339" stroke-miterlimit="10" d="M278.9 582.6l.7-276.9"/><path fill="#004261" d="M97.9 46.1c0-3-2.4-5.4-5.4-5.4-.3 0-.6 0-.9.1-.7-.9-1.8-1.4-3-1.4-.7 0-1.4.2-2 .5-.8-1.1-2.2-1.8-3.7-1.8-2.5 0-4.5 1.9-4.6 4.4-2.5 0-4.5 2.1-4.5 4.5 0 2.5 2 4.5 4.5 4.5h14.9c2.6-.4 4.7-2.7 4.7-5.4M401 46.1c0-3-2.4-5.4-5.4-5.4-.3 0-.6 0-.9.1-.7-.9-1.8-1.4-3-1.4-.7 0-1.4.2-2 .5-.8-1.1-2.2-1.8-3.7-1.8-2.5 0-4.5 1.9-4.6 4.4-2.5 0-4.5 2.1-4.5 4.5 0 2.5 2 4.5 4.5 4.5h14.9c2.6-.4 4.7-2.7 4.7-5.4"/><path fill="none" stroke="#000" stroke-width=".339" stroke-miterlimit="10" d="M279.6 284.2l-.7-262.3M541.6 292.8H288.9M268.8 292.8H16.2"/><path fill="none" stroke="#F9CA03" stroke-width=".678" stroke-linecap="round" stroke-linejoin="round" stroke-miterlimit="10" stroke-dasharray="0,0.949" d="M428.9 451.4V369h76M128.5 452.4V370h75.9M428.9 140.3V57.9h76M128.5 140.3V57.9h75.9"/></svg>