<svg xmlns="http://www.w3.org/2000/svg" viewBox="0 0 752 154"><g fill="#333"><path d="M141 64.1c0-.2.1-.4.1-.5 0-8.6.1-17.2-.2-25.8-.1-2.4.8-3.7 2.6-4.6 1-.5 2-1 3.1-1.2 3.7-.8 6.7.7 7.8 4.2.6 1.7.8 3.6.9 5.4.1 7.1 0 14.2 0 21.3v1.3h13.4V54c-.1-5.9.2-11.9-.3-17.8-.5-6.7-3.5-12.2-10.1-15.1-3.8-1.6-7.8-1.8-11.9-1.2-4 .6-7.5 2.2-10.4 5-3-3.2-6.6-4.9-10.9-5.2-4.3-.4-8.1.8-11.8 3.2v-2.5h-13.1v43.8h13.2v-1.5c0-8.4.1-16.7-.1-25.1 0-2.1.8-3.4 2.5-4.3.7-.4 1.4-.8 2.2-1 4.7-1.5 8.3.6 9.3 5.4.3 1.4.4 2.9.5 4.4v22.2c4.5-.2 8.9-.2 13.2-.2zM206.9 64.2h12c1.1 0 1.4-.3 1.4-1.4V21.5c0-.4 0-.8-.1-1.2h-13.3v1.5c0 8.1-.1 16.3.1 24.4 0 2.2-.8 3.6-2.5 4.7-1.3.8-2.7 1.5-4.1 1.8-4.4.9-7.6-1.1-8.9-5.4-.4-1.5-.6-3-.7-4.6-.1-7 0-13.9 0-20.9v-1.4h-13.3c0 .3-.1.6-.1.8v23.7c0 1.7.2 3.4.5 5.1 2.3 13.5 17.2 19.6 28.4 11.7.1-.1.3-.1.6-.2v2.7zM439.1 152.2v-1.5c0-8.2.2-16.3-.1-24.5-.1-2.8 1.1-4.3 3.4-5.3.6-.3 1.2-.6 1.8-.7 5-1.7 9.3.7 10.5 5.8.4 1.5.5 3.1.5 4.6.1 6.7 0 13.5 0 20.2v1.4h13.3v-1.5-23.4c0-1.7-.2-3.5-.5-5.2-2.5-12.7-17.1-18.8-28.1-11.8-.2.1-.4.2-.7.3 0-.8-.1-1.5-.1-2.3h-13.2v43.9h13.2zM371.5 64.1v-1.5-26.2c0-.6.2-1.3.6-1.7 1.4-1.4 3.2-2.4 5.2-2.9 4.5-1.2 8.3.9 9.6 5.4.5 1.6.7 3.4.7 5.1.1 6.8 0 13.5 0 20.3V64h13.3v-2.7c0-8.1.3-16.2-.2-24.2-.9-14.5-12.5-19.1-22.5-17.3-2.3.4-4.4 1.6-6.7 2.4v-2h-13.3V64c4.5.1 8.8.1 13.3.1zM591.4 20.2c-4 0-7.9.1-11.8 0-1.2 0-1.5.3-1.5 1.5v42.4h13.3v-1.5c0-8.1.2-16.2-.1-24.2-.1-2.9 1.1-4.3 3.4-5.5.9-.4 1.8-.8 2.7-1 4.4-1.1 8.1.9 9.4 5.3.4 1.2.6 2.6.6 3.9.1 7.2.1 14.4.1 21.6v1.4h13.3v-1.4-23.1c0-1.8-.2-3.6-.5-5.3-2.5-12.9-17.1-19.1-28.2-12-.2.1-.4.2-.7.3v-2.4zM522 20.2h-8.7c-.6 0-1.1 0-1.7-.1-1.7-.4-2.6-1.9-2.5-3.7.1-1.6 1.4-2.8 3.3-2.9 2.7-.1 5.4 0 8.1-.1h1.4V1.7h-13.1c-.8 0-1.5 0-2.3.1-7.1.9-11.4 6.8-9.8 13.6.4 1.6 1.3 3.1 2 4.8h-6v11.6h5.7V64h13.3V31.7h10.2c.1-3.8.1-7.6.1-11.5zM69.5 52.1h-1.7c-2.3 0-4.6 0-6.8-.1-2.1-.1-3.2-1.3-3.6-3.4-.1-.5-.1-1.1-.1-1.7V33c0-.4 0-.8.1-1.2h11c1-3.9 1.9-7.7 2.9-11.7h-14V6.9C53 9 49 11 44.9 13c-.7.3-1 .7-1 1.5.1 1.8 0 3.6 0 5.6h-8.6c1 4 2 7.8 2.9 11.7h5.7v19.7c.1 7.2 4.9 12.2 12.1 12.6 4.4.2 8.8.1 13.2 0 .1 0 .2-.1.3-.1V52.1zM619.4 119.8v1.7c0 6.1-.1 12.2.1 18.3.1 6.8 4.5 11.7 11.3 12.3 4.7.4 9.4.2 14.1.2.1 0 .1-.1.2-.1v-12h-7.4c-1.6 0-3.2-.2-4.1-1.8-.5-.9-.8-2.1-.8-3.2-.1-4.7 0-9.5 0-14.2 0-.3.1-.7.1-1.1h10.9c1-3.9 1.9-7.6 2.9-11.6h-14v-13c-.3.1-.5.1-.6.1-4 2-8.1 4-12.1 6-.3.2-.6.8-.6 1.2-.1 1.9 0 3.7 0 5.8h-8.6c.9 3.7 1.8 7.3 2.7 10.8.1.3.6.7 1 .7 1.6-.1 3.2-.1 4.9-.1zM187.2 119.8v1.6c0 6.2-.1 12.3 0 18.5.1 6.6 4.5 11.6 11 12.1 4.8.4 9.6.2 14.4.2.1 0 .1-.1.2-.2v-5.9-5.9c-.2-.1-.3-.1-.4-.1h-7.2c-3.1 0-4.4-1.3-4.8-4.3 0-.4-.1-.8-.1-1.2v-13.3c0-.5 0-.9.1-1.5h11c1-3.9 1.9-7.6 2.9-11.5h-12.5c-1.1 0-1.5-.2-1.4-1.4.1-3.5 0-6.9 0-10.4 0-.4 0-.8-.1-1.3-.2 0-.4 0-.5.1-4 2-8.1 4-12.1 6-.3.2-.6.8-.6 1.2-.1 1.9 0 3.7 0 5.8h-8.7c1 3.8 1.8 7.4 2.8 11 .1.2.6.5.9.5h5.1zM676.8 55.6c1.3 2.2 2.7 4.1 4.7 5.4 6.6 4.5 13.8 5.2 21.1 2.3 10-4 10.3-17.9 2.8-23.2-2.6-1.9-5.6-3.1-8.5-4.2-1.5-.6-3-1.2-4.5-1.9-.9-.4-1.4-1.2-1.2-2.3.2-1 1-1.4 1.9-1.6 2.6-.5 4.6.5 6.3 2.3.4.5.8.9 1.2 1.4 2.5-2.5 4.9-5 7.5-7.6-.4-.5-.8-1.1-1.3-1.6-3.6-4-8.3-5.4-13.5-5.1-4.6.2-8.6 1.9-11.5 5.6-4.8 6.1-3.2 14.9 3.6 19.4 2.6 1.7 5.6 2.7 8.5 4.1 1.2.6 2.5 1.1 3.7 1.7.8.4 1.3 1.3.9 2.1-.3.6-1 1.3-1.6 1.5-2.8.7-5.3 0-7.4-2-.9-.9-1.7-2-2.6-3.1-3.3 2.2-6.6 4.5-10.1 6.8zM466.1 48.8c-3.3 2.3-6.7 4.5-10.1 6.8 1.3 2.3 2.8 4.2 4.9 5.6 6.5 4.4 13.5 5 20.7 2.3 10.1-3.8 10.6-17.6 3.3-23.1-2.5-1.9-5.3-3.1-8.1-4.2-1.8-.7-3.6-1.4-5.3-2.4-.6-.3-1-1.4-1-2.1.1-.6.9-1.3 1.6-1.5 2.2-.7 4.2 0 5.9 1.5.7.6 1.3 1.4 2.1 2.2 2.4-2.6 4.8-5.1 7.3-7.7 0 0-.1-.2-.2-.3-4.7-6.3-14-8.3-21.4-4.6-8.4 4.2-10 15.2-3.1 21.6 2.5 2.3 5.5 3.7 8.7 5 1.9.7 3.7 1.5 5.5 2.4.9.4 1.4 1.3 1 2.2-.3.6-1 1.3-1.6 1.5-3 .7-5.7-.1-7.8-2.4-1-.9-1.6-1.9-2.4-2.8zM283.9 108.2c8.6 15 17.1 29.8 25.7 44.7 8.6-15 17.1-29.7 25.7-44.7H321.1c-.9 0-1.3.3-1.7 1.1l-9 16.8c-.2.4-.4.7-.7 1.2-.3-.5-.5-.9-.7-1.2-3-5.6-6.1-11.2-9-16.8-.4-.8-.9-1.1-1.7-1.1h-14.4zM243.2 64.1V1.8h-13.3v62.3h13.3zM652.6 108.3v43.9h13.3v-1.5-26.2c0-.8.2-1.3.9-1.7 2.6-1.7 5.5-2.6 8.6-2.2 1.8.2 3.5.7 5.3 1.1v-13.6c-5.5-1.3-10.6-.8-14.8 3.9v-3.7h-13.3zM79.1 121.9v-13.8c-5.5-1.2-10.6-.8-14.8 3.9v-3.7H51.1v43.8h13.3v-1.5-26.2c0-.8.2-1.4.9-1.7 1.8-.7 3.5-1.6 5.3-2.1 2.8-.5 5.6.2 8.5 1.3zM314.7 64.1v-1.6-25.9c0-1 .3-1.5 1.1-2 2.1-1.3 4.3-2.2 6.8-2 2.3.1 4.5.6 6.9 1-.1.2 0 .1 0 .1V20.9c0-.3-.4-.7-.6-.8-4.5-1-8.7-.8-12.5 2.3-.5.4-1 .9-1.7 1.6v-3.6h-13.3v43.9c4.4-.2 8.8-.2 13.3-.2zM233.7 152.2v-43.9h-13.3v43.9h13.3zM416.1 152.2v-43.9h-13.3v43.9h13.3zM686.4 108.3v43.9h13.3v-43.9h-13.3zM335.2 20.2V64h13.3V20.2h-13.3zM77.1 20.2c0 .4-.1.7-.1 1V63c0 .9.3 1.1 1.2 1.1h11.3c.3 0 .6-.1.9-.1V20.2H77.1zM693.1 101.9h5.4c.7 0 1.2-.3 1.5-.9 1-1.8 1.3-3.6.9-5.6-.5-3-3-5.6-5.9-6.2-3.4-.7-6.6.5-8.5 3.3-1.7 2.5-1.8 6.3-.1 8.7.3.4.9.7 1.3.7 1.8.1 3.6 0 5.4 0zM227.1 101.9h3.8c2.7 0 3.4-.6 3.9-3.3.2-.8.2-1.7.1-2.6-.3-3.2-2.5-5.8-5.6-6.7-3.2-.9-6.6.2-8.6 2.7-2 2.6-2.2 6.3-.6 9 .4.7.9.9 1.6.9h5.4zM409.3 101.9h4.3c2.3 0 2.6-.2 3.3-2.4.1-.5.3-.9.3-1.4.6-3.4-1.3-6.9-4.4-8.4-3.3-1.5-7-.8-9.5 2-2.2 2.4-2.5 6.5-.8 9.4.4.6.8.9 1.5.9 1.8-.1 3.6-.1 5.3-.1zM546.1 153c-1.5-.3-3-.5-4.4-.9-7.1-2.1-10.9-7.1-12.3-14-.4-1.7-.5-3.6-.5-5.3-.1-7.7 0-15.4 0-23.1v-1.4h13.3v1.5c0 7.3 0 14.6.1 21.9 0 1.3.3 2.7.7 4 1.5 4.6 6 6.4 10.8 4.4.8-.3 1.5-.8 2.2-1.2 1.5-1.1 2.3-2.4 2.3-4.5-.1-8.1-.1-16.2-.1-24.3v-1.7h13.3v43.9h-13.2v-2.9c-.3.1-.4.1-.5.2-2.4 1.9-5.2 3-8.2 3.4-.2 0-.4.1-.6.2-1-.2-2-.2-2.9-.2zM24.5 153c-2.4-.6-4.8-.9-7-1.8-9.5-3.6-15.4-13.4-14.3-23.3 1.2-10.3 9-18.5 19.2-20.1 9.1-1.4 18.5 2.7 23 10.1-3.5 2.5-7 4.9-10.5 7.4-.8-1-1.4-1.9-2.3-2.7-3-2.8-6.5-3.4-10.2-2-3.9 1.5-5.5 4.7-5.9 8.7-.2 2.1.2 4.1 1.1 6 3.1 6.3 11.8 7 16.1 1.2.4-.5.7-1 1.1-1.5 3.5 2.5 7 4.9 10.5 7.5-1.5 2.4-3.4 4.3-5.6 6-3.3 2.4-7 3.9-11.1 4.3-.3 0-.5.1-.8.2h-3.3zM1 55.5c3.3-2.2 6.7-4.5 10.1-6.7.5.7.9 1.3 1.4 1.9 1.8 2.4 4.3 3.5 7.3 3.4.4 0 .7-.1 1.1-.2.9-.2 1.7-.6 1.8-1.6.2-1.1-.4-1.8-1.3-2.2-1.5-.7-3.1-1.3-4.6-2-2.5-1.2-5.2-2.2-7.5-3.7-4.9-3.3-7-8-5.9-13.8 1.1-5.6 4.7-9 10.1-10.3 6.9-1.7 13.1-.4 18 5.2.3.3.5.6.7.9l-7.5 7.5c-.3-.3-.5-.7-.8-1-1.8-2-3.9-3.3-6.7-2.7-.9.2-1.7.6-1.9 1.6-.2 1 .3 1.8 1.2 2.3 2.1.9 4.2 1.7 6.3 2.7 2.4 1.2 4.9 2.3 7.1 3.9 7.2 5.2 6.8 18.6-3 22.9-6 2.6-17.3 2.4-23.2-4.1-1-1.1-1.8-2.3-2.7-3.5v-.5zM592.3 153c-1.7-.3-3.5-.5-5.1-1-4.7-1.3-8.2-4.1-10.7-8.4 3.4-2.3 6.7-4.6 10.1-6.8.8 1 1.5 2 2.3 2.8 2 2.1 4.5 2.7 7.3 2.4.9-.1 1.8-.5 2-1.6.2-1.1-.3-1.9-1.2-2.3-1.9-.9-3.8-1.7-5.7-2.4-3-1.2-5.9-2.5-8.2-4.8-7.4-7.3-5-18.7 4.8-22.3 7.2-2.7 15.6-.3 19.8 5.5.1.1.1.2.2.3-2.5 2.5-5 4.9-7.5 7.5l-1.2-1.5c-1.7-1.8-3.6-2.7-6.1-2.3-1 .2-1.9.5-2.1 1.6-.2 1.1.4 1.9 1.3 2.3 2 .9 4.1 1.7 6.2 2.6 3 1.2 5.8 2.6 8.2 4.8 5.6 5.1 5.7 17.8-4.1 21.9-2 .8-4.3 1.2-6.4 1.7h-3.9zM85.4 1c.4.2.8.3 1.2.5 4.6 1.7 6.6 7.3 4.1 11.5-.4.7-.8.9-1.6.9H78.6c-.8 0-1.2-.3-1.6-.9-2.6-4.4-.5-10 4.4-11.6.3-.1.6-.3 1-.4h3zM343.3 1c1.9.6 3.6 1.4 4.9 3 1.9 2.6 2.2 6.3.6 9-.4.6-.8.9-1.6.9h-10.5c-.8 0-1.2-.3-1.6-.9-2.5-4.1-.5-9.8 4-11.5.5-.2 1-.3 1.4-.5h2.8z"/><path d="M141 64.1h-13.3v-1.5-20.7c0-1.5-.2-2.9-.5-4.4-1-4.8-4.6-6.9-9.3-5.4-.8.2-1.5.6-2.2 1-1.7.9-2.5 2.1-2.5 4.3.2 8.4.1 16.7.1 25.1V64h-13.2V20.2h13.1v2.5c3.7-2.5 7.5-3.6 11.8-3.2 4.3.4 7.9 2 10.9 5.2 3-2.9 6.5-4.4 10.4-5 4.1-.6 8.1-.4 11.9 1.2 6.6 2.8 9.5 8.3 10.1 15.1.5 5.9.2 11.9.3 17.8V64h-13.4v-1.3c0-7.1.1-14.2 0-21.3 0-1.8-.3-3.7-.9-5.4-1.1-3.5-4.1-5-7.8-4.2-1.1.2-2.1.7-3.1 1.2-1.8 1-2.7 2.2-2.6 4.6.3 8.6.2 17.2.2 25.8.1.3.1.5 0 .7zM437.7 22.7v-2.4H451v34.1c0 .8.2 1.6.4 2.3 1.4 3.8 1.9 7.7.9 11.6-1.4 5.8-5.5 9.1-10.9 11.1-5 1.8-10.1 2.1-15.3 1.8-4.9-.3-9.6-1.2-14-3.5-.7-.4-1.4-.8-2.3-1.3 2-3.9 4-7.7 6-11.7.4.3.7.5 1 .7 5 3.4 10.5 4.6 16.4 3.2 4.3-1 6.5-4.4 5.4-8.3-.2-.6-.5-1.2-.7-1.5-2 .9-3.9 2-5.9 2.4-9.7 2.3-21.4-2.6-24.3-15.3-1.7-7.6-.2-14.5 5.2-20.3 5.3-5.8 14.9-7.8 21.8-4.6 1.1.4 1.9 1 3 1.7zm0 17.9c0-1-.1-1.9 0-2.9.4-2.4-.9-3.7-2.8-4.7-.9-.5-1.8-.9-2.8-1.1-7.1-1.7-13.1 4.1-11.3 11 1.7 6.7 10.3 9 15.6 4.2.8-.7 1.3-1.5 1.2-2.7.1-1.2.1-2.5.1-3.8zM658.6 22.5V1.7h13.2V64h-13.1v-2.2c-.3 0-.4 0-.5.1-6.8 4.4-13.6 3.8-20.2-.1-6-3.5-9.1-9.1-10.1-15.8-1-6.6.3-12.8 4.3-18.3 5-6.9 14.4-10 22-7.4 1.4.5 2.8 1.4 4.4 2.2zm0 19.7v-6c0-.6-.3-1.3-.7-1.7-2.8-3.1-7.7-3.9-11.6-1.8-4.5 2.3-6.5 8.1-4.7 13.5C644 53 653 55.1 657.8 50c.5-.5.8-1.3.8-2v-5.8zM548.1 64.9c-12.8 0-22.9-10.1-22.9-22.8 0-12.5 10.3-22.6 23-22.6s22.9 10.2 22.9 22.8c-.1 12.5-10.3 22.6-23 22.6zm9.6-22.7c-.1-.9-.2-1.7-.3-2.6-.9-3.8-3.1-6.5-7-7.4-3.7-.9-7 .1-9.5 3.1-2 2.4-2.5 5.4-2.2 8.4.6 6.1 6.1 10 12.1 8.4 4.1-1.1 6.8-5 6.9-9.9zM206.9 64.2v-2.9c-.3.1-.5.1-.6.2-11.1 7.9-26 1.8-28.4-11.7-.3-1.7-.5-3.4-.5-5.1V21c0-.2 0-.5.1-.8h13.3V42.5c0 1.5.2 3.1.7 4.6 1.2 4.3 4.5 6.3 8.9 5.4 1.4-.3 2.9-1 4.1-1.8 1.6-1 2.5-2.5 2.5-4.7-.1-8.1-.1-16.2-.1-24.4v-1.5h13.3c0 .4.1.8.1 1.2v41.3c0 1.1-.3 1.4-1.4 1.4-3.6-.1-7.1 0-10.7 0-.4.2-.8.2-1.3.2zM439.1 152.2h-13.3v-43.9H439c0 .8.1 1.5.1 2.3.3-.1.5-.2.7-.3 11-7 25.6-.9 28.1 11.8.3 1.7.5 3.5.5 5.2.1 7.8 0 15.6 0 23.4v1.5h-13.3v-1.4-20.2c0-1.5-.1-3.1-.5-4.6-1.2-5.2-5.4-7.5-10.5-5.8-.6.2-1.2.5-1.8.7-2.2 1.1-3.5 2.5-3.4 5.3.2 8.2.1 16.3.1 24.5.1.5.1 1 .1 1.5zM371.5 64.1h-13.3V20.3h13.3v2c2.2-.8 4.4-2 6.7-2.4 10-1.8 21.6 2.8 22.5 17.3.5 8.1.1 16.2.2 24.2v2.7h-13.3v-1.4-20.3c0-1.7-.2-3.4-.7-5.1-1.2-4.5-5.1-6.5-9.6-5.4-2 .5-3.7 1.5-5.2 2.9-.4.4-.6 1.1-.6 1.7V64.1zM591.4 20.2v2.4c.3-.1.5-.2.7-.3 11.1-7.1 25.8-1 28.2 12 .3 1.7.5 3.6.5 5.3.1 7.7 0 15.4 0 23.1v1.4h-13.3v-1.4c0-7.2 0-14.4-.1-21.6 0-1.3-.3-2.6-.6-3.9-1.3-4.3-5-6.4-9.4-5.3-.9.2-1.8.6-2.7 1-2.3 1.1-3.5 2.6-3.4 5.5.2 8.1.1 16.2.1 24.2v1.5h-13.3v-1.4-41c0-1.2.3-1.6 1.5-1.5h11.8zM522 20.2v11.6h-10.2v32.3h-13.3V31.9h-5.7V20.3h6c-.7-1.7-1.6-3.2-2-4.8-1.6-6.8 2.7-12.7 9.8-13.6.8-.1 1.5-.1 2.3-.1H522v11.7h-1.4c-2.7 0-5.4 0-8.1.1-1.9.1-3.1 1.3-3.3 2.9-.2 1.8.8 3.3 2.5 3.7.5.1 1.1.1 1.7.1 2.7-.1 5.6-.1 8.6-.1zM69.5 52.1V64c-.1.1-.2.1-.3.1-4.4 0-8.8.2-13.2 0-7.2-.4-11.9-5.4-12.1-12.6-.1-6.1 0-12.1 0-18.2v-1.5h-5.7c-1-3.9-1.9-7.7-2.9-11.7h8.6v-5.6c0-.8.3-1.2 1-1.5C49 11 53 9 57.3 6.9v13.2h14c-1 4-1.9 7.8-2.9 11.7h-11c0 .4-.1.8-.1 1.2v13.9c0 .6 0 1.1.1 1.7.4 2 1.5 3.2 3.6 3.4 2.3.2 4.5.1 6.8.1h1.7zM619.4 119.8h-4.9c-.4 0-.9-.4-1-.7-.9-3.5-1.8-7.1-2.7-10.8h8.6v-5.8c0-.4.3-1 .6-1.2 4-2.1 8-4 12.1-6 .1-.1.3-.1.6-.1v13h14c-1 4-1.9 7.8-2.9 11.6h-10.9c0 .4-.1.8-.1 1.1v14.2c0 1.1.3 2.2.8 3.2.8 1.6 2.5 1.7 4.1 1.8h7.4v12c-.1 0-.1.1-.2.1-4.7 0-9.4.2-14.1-.2-6.8-.6-11.1-5.5-11.3-12.3-.1-6.1 0-12.2-.1-18.3v-1.6zM187.2 119.8h-5c-.3 0-.8-.3-.9-.5-.9-3.6-1.8-7.2-2.8-11h8.7v-5.8c0-.4.3-1 .6-1.2 4-2 8.1-4 12.1-6 .1 0 .2 0 .5-.1 0 .5.1.9.1 1.3 0 3.5.1 6.9 0 10.4 0 1.1.4 1.4 1.4 1.4 3.7-.1 7.3 0 11 0h1.5c-1 3.9-1.9 7.7-2.9 11.5h-11c0 .6-.1 1-.1 1.5v13.3c0 .4 0 .8.1 1.2.3 3 1.7 4.3 4.8 4.3h7.2c.1 0 .1 0 .4.1V152l-.2.2c-4.8 0-9.6.2-14.4-.2-6.5-.5-10.9-5.5-11-12.1-.1-6.2 0-12.3 0-18.5-.1-.5-.1-1-.1-1.6zM676.8 55.6c3.4-2.3 6.7-4.6 10-6.8.9 1.1 1.6 2.2 2.6 3.1 2.1 2 4.6 2.7 7.4 2 .6-.2 1.4-.8 1.6-1.5.4-.8-.1-1.7-.9-2.1-1.2-.6-2.4-1.1-3.7-1.7-2.8-1.3-5.9-2.4-8.5-4.1-6.9-4.5-8.4-13.3-3.6-19.4 2.9-3.7 6.9-5.3 11.5-5.6 5.2-.3 9.9 1.1 13.5 5.1.5.6 1 1.2 1.3 1.6-2.5 2.6-5 5.1-7.5 7.6-.4-.5-.8-1-1.2-1.4-1.7-1.8-3.8-2.8-6.3-2.3-.9.2-1.7.6-1.9 1.6-.2 1 .3 1.8 1.2 2.3 1.5.7 3 1.4 4.5 1.9 3 1.1 5.9 2.4 8.5 4.2 7.6 5.3 7.3 19.2-2.8 23.2-7.3 2.9-14.5 2.2-21.1-2.3-1.8-1.4-3.3-3.2-4.6-5.4zM466.1 48.8c.8 1 1.4 1.9 2.1 2.7 2.1 2.3 4.8 3.1 7.8 2.4.6-.2 1.4-.8 1.6-1.5.4-.9-.1-1.8-1-2.2-1.8-.8-3.6-1.7-5.5-2.4-3.1-1.2-6.2-2.6-8.7-5-6.9-6.4-5.3-17.4 3.1-21.6 7.4-3.7 16.7-1.7 21.4 4.6.1.2.2.3.2.3-2.5 2.6-4.9 5.2-7.3 7.7-.8-.8-1.4-1.6-2.1-2.2-1.7-1.5-3.6-2.2-5.9-1.5-.6.2-1.5.9-1.6 1.5-.1.7.4 1.7 1 2.1 1.7.9 3.5 1.7 5.3 2.4 2.9 1.1 5.7 2.3 8.1 4.2 7.3 5.5 6.8 19.2-3.3 23.1-7.2 2.7-14.2 2.1-20.7-2.3-2.1-1.4-3.6-3.3-4.9-5.6 3.8-2.2 7.1-4.5 10.4-6.7zM283.9 108.2H298.1c.9 0 1.3.3 1.7 1.1l9 16.8c.2.3.4.7.7 1.2.3-.5.5-.8.7-1.2l9-16.8c.4-.7.8-1.1 1.7-1.1 4.3.1 8.5 0 12.8 0h1.4c-8.6 15-17.1 29.8-25.7 44.7-8.4-14.9-16.9-29.7-25.5-44.7zM243.2 64.1h-13.3V1.8h13.3v62.3zM652.6 108.3h13.3v3.7c4.3-4.7 9.3-5.1 14.8-3.9v13.6c-1.7-.4-3.5-.9-5.3-1.1-3.1-.4-6 .5-8.6 2.2-.6.4-.9.9-.9 1.7v27.7h-13.3v-43.9zM79.1 121.9c-2.8-1.1-5.7-1.9-8.6-1.2-1.8.4-3.5 1.3-5.3 2.1-.7.3-.9.9-.9 1.7v27.7H51v-43.8h13.2v3.7c4.3-4.7 9.3-5.1 14.8-3.9.1 4.5.1 9.1.1 13.7zM314.7 64.1h-13.3V20.2h13.3v3.6c.7-.7 1.2-1.2 1.7-1.6 3.7-3 8-3.3 12.5-2.3.3.1.6.5.6.8v12.8c0 .1-.1.1 0-.1-2.4-.3-4.6-.8-6.9-1-2.4-.1-4.7.8-6.8 2-.8.5-1.1 1.1-1.1 2v27.7zM233.7 152.2h-13.3v-43.9h13.3v43.9zM416.1 152.2h-13.3v-43.9h13.3v43.9zM686.4 108.3h13.3v43.9h-13.3v-43.9zM335.2 20.2h13.3V64h-13.3V20.2zM77.1 20.2h13.3V64c-.3 0-.6.1-.9.1H78.2c-.9 0-1.2-.2-1.2-1.1V21.2c0-.2.1-.6.1-1zM693.1 101.9c-1.8 0-3.6.1-5.4 0-.5 0-1.1-.4-1.3-.7-1.7-2.4-1.6-6.1.1-8.7 1.9-2.7 5.1-4 8.5-3.3 3 .6 5.4 3.2 5.9 6.2.4 2 0 3.9-.9 5.6-.3.6-.8.9-1.5.9h-5.4zM227.1 101.9h-5.3c-.8 0-1.2-.2-1.6-.9-1.6-2.7-1.4-6.4.6-9 2-2.6 5.4-3.7 8.6-2.7 3.1.9 5.3 3.5 5.6 6.7.1.9.1 1.8-.1 2.6-.5 2.7-1.2 3.3-3.9 3.3h-3.9zM409.3 101.9H404c-.7 0-1.2-.2-1.5-.9-1.7-2.8-1.4-6.9.8-9.4 2.5-2.7 6.2-3.5 9.5-2 3.1 1.5 5 5 4.4 8.4-.1.5-.2.9-.3 1.4-.7 2.2-1 2.4-3.3 2.4-1.4.1-2.8.1-4.3.1zM506.3 89.8v20.9c-1.2-.7-2.3-1.3-3.4-1.8-6.9-2.9-16.1-.8-21.4 5-6.2 6.8-7.6 14.8-5.2 23.5 2 7.1 6.5 12.2 13.6 14.6 1.6.6 3.4.7 5.1 1.1h2.9c.6-.1 1.3-.2 1.9-.4 2.2-.8 4.3-1.6 6.5-2.5 0 .5.1 1.3.1 2h13.2V89.8h-13.3zm0 46.3c0 .6-.3 1.4-.7 1.9-4.3 4.8-12.9 3.4-15.7-2.6-1.6-3.3-1.6-6.7-.1-10 2.8-6.2 11.4-7.6 15.9-2.7.4.4.6 1.1.6 1.7.1 2 0 4 0 6 0 1.8.1 3.7 0 5.7zM161.9 108.3v2.4c-.9-.5-1.6-1-2.4-1.4-7.4-3.8-18-1.4-23.4 5.6-5.9 7.6-6.8 16.1-3.3 25 2.3 5.8 6.5 9.9 12.5 11.9 1.7.6 3.6.8 5.4 1.2h2.9c3-.5 5.8-1.3 8.3-3.3 0 1 .1 1.8.1 2.5h13.2v-43.9h-13.3zm-.1 27.8c0 .6-.3 1.4-.7 1.9-3.3 3.6-9.2 3.8-13.3.6-5.7-4.6-4.5-14.9 2.1-18 3.9-1.8 8.6-1 11.3 2.1.4.4.6 1 .6 1.6.1 2 0 4 0 6 .1 1.9.1 3.8 0 5.8zM750.8 125.6c-.3-3-1.2-5.9-2.8-8.4-3.9-6.3-9.8-9.2-17.1-9.6-13.5-.8-23.7 8.6-24 22-.2 10.4 5.9 19.2 15.8 22.3 1.7.5 3.4.8 5.1 1.1h3.4c2.6-.6 5.3-1 7.8-2 4.4-1.6 7.8-4.6 10.4-8.7-3.5-2.4-7-4.7-10.5-7.1-3.2 5-7.7 6.7-13.3 4.8-3.4-1.1-5.3-3.7-5.8-7.4h30.9c.2-.8.3-1.5.4-2.1v-3.6c-.2-.4-.3-.9-.3-1.3zm-30.7-.8c.3-3.6 4.3-6.6 8.8-6.6 4.8 0 8.5 2.8 8.7 6.6h-17.5zM371.5 113.7c-5.8-5.7-12.9-7.1-20.6-5.6-10.4 2-17 9.8-17.7 20.4-.7 10 4.4 18.7 13.3 22.5 2.4 1 5 1.4 7.6 2h3.4c.3-.1.6-.2.9-.2 3.1-.3 6.1-1.2 8.9-2.7 3.4-1.8 6.2-4.4 8.4-7.8-3.6-2.4-7.1-4.7-10.5-7.1-3.6 4.9-7.6 6.5-12.5 5.1-3.6-1-6.2-4-6.5-7.7h28c3 0 3 0 3.1-2.9 0-6.1-1.4-11.6-5.8-16zm-25.2 11.1c.3-3.1 3.4-6.5 8.8-6.6 4.8-.1 8.5 2.7 8.8 6.6h-17.6zM126.1 125.6c-.4-4.6-2.1-8.6-5.4-11.9-4.7-4.8-10.6-6.4-17.1-6.1-12.1.6-21 9.5-21.3 21.5C82 139 87 147.3 95.7 151c2.4 1 5 1.4 7.5 2h3.4c.3-.1.7-.2 1-.2 4.1-.4 7.8-1.8 11.2-4.1 2.4-1.7 4.4-3.7 6-6.3-3.6-2.4-7.1-4.7-10.6-7.1-3.4 5.7-8.9 6.2-12.6 5-3.6-1.1-6.3-4.2-6.3-7.7H125c.9 0 1.3-.2 1.3-1.2-.2-1.9 0-3.8-.2-5.8zm-30.8-.8c.6-3.9 4.5-6.7 9-6.6 4.8.1 8.2 2.7 8.6 6.6H95.3zM278.8 113.2c-7.7-7.2-21.2-7.7-29.7-1-5.4 4.3-7.9 10-8.2 16.8-.6 10.3 5.6 19.6 15.4 22.7 1.8.6 3.6.8 5.5 1.2h3.4c.3-.1.6-.2.9-.2 4.8-.5 9-2.2 12.7-5.3 1.8-1.5 3.3-3.1 4.5-5.2-3.4-2.3-6.7-4.5-10-6.7-.2-.1-.3-.2-.5-.3-4.1 5-7.9 6.5-12.7 5-3.7-1.2-6.1-4.1-6.3-7.7H283.5c1 0 1.4-.3 1.3-1.3 0-1.2.1-2.5.1-3.7-.2-5.4-2-10.4-6.1-14.3zM254 124.7c.6-3.9 4.6-6.8 9.2-6.6 4.8.2 8.2 2.8 8.5 6.6H254zM287.3 25.6c-7.7-7.2-21.2-7.7-29.7-1-5.4 4.3-7.9 10-8.2 16.8-.6 10.3 5.6 19.6 15.4 22.7 1.8.6 3.6.8 5.5 1.2h3.4c.3-.1.6-.2.9-.2 4.8-.5 9-2.2 12.7-5.3 1.8-1.5 3.3-3.1 4.5-5.2-3.4-2.3-6.7-4.5-10-6.7-.2-.1-.3-.2-.5-.3-4.1 5-7.9 6.5-12.7 5-3.7-1.2-6.1-4.1-6.3-7.7H292c1 0 1.4-.3 1.3-1.3 0-1.2.1-2.5.1-3.7-.2-5.4-2-10.4-6.1-14.3zm-24.8 11.5c.6-3.9 4.6-6.8 9.2-6.6 4.8.2 8.2 2.8 8.5 6.6h-17.7z"/></g></svg>