<svg xmlns="http://www.w3.org/2000/svg" width="598.107" height="677.906" viewBox="0 0 598.107 677.906"><g><path fill="#00AEEF" d="M1218.548 101.22h34.654v27.723h-34.654z"/><path fill="#B3C7D7" d="M929.61 323.266l-71.293-98.125c21.677-15.75 44.498-23.164 71.292-23.164v121.29z"/><path fill="#00B5F1" d="M1218.548 142.804h34.654v27.724h-34.654z"/><path fill="#A0B6C9" d="M929.61 323.266l-115.355-37.48c8.28-25.483 22.384-44.896 44.06-60.645l71.294 98.126z"/><path fill="#00BFF3" d="M1218.548 184.39h34.654v27.723h-34.654z"/><path fill="#8EA6BB" d="M929.61 323.266l-115.355 37.48c-8.28-25.483-8.28-49.478 0-74.96l115.354 37.48z"/><path fill="#4CC9F5" d="M1218.548 225.974h34.654v27.724h-34.654z"/><path fill="#7D97AF" d="M929.61 323.266l-71.293 98.126c-21.677-15.75-35.78-35.162-44.06-60.646l115.352-37.48z"/><path fill="#68CEF6" d="M1220.323 268.742h34.654v27.724h-34.654z"/><path fill="#6D8AA3" d="M929.61 323.266v121.29c-26.795 0-49.616-7.415-71.293-23.164l71.292-98.126z"/><g><path fill="#7FD4F7" d="M1218.548 309.144h34.654v27.723h-34.654z"/><path fill="#5D7D98" d="M929.61 323.266l71.292 98.126c-21.678 15.75-44.498 23.164-71.293 23.164v-121.29z"/></g><g><path fill="#A9E0FA" d="M1218.548 350.728h34.654v27.725h-34.654z"/><path fill="#4E718D" d="M929.61 323.266l115.353 37.48c-8.28 25.483-22.384 44.896-44.06 60.646l-71.294-98.126z"/></g><g><path fill="#BCE6FB" d="M1216.18 392.314h34.655v27.723h-34.654z"/><path fill="#3F6683" d="M929.61 323.266l115.353-37.48c8.28 25.483 8.28 49.478 0 74.96l-115.354-37.48z"/></g><g><path fill="#CFEDFC" d="M1218.548 433.898h34.654v27.725h-34.654z"/><path fill="#1A5371" d="M929.61 323.266l71.292-98.125c21.677 15.75 35.78 35.163 44.06 60.646l-115.353 37.48z"/></g><g><path fill="#E1F4FD" d="M1218.548 475.484h34.654v27.723h-34.654z"/><path fill="#004261" d="M929.61 323.266v-121.29c26.794 0 49.614 7.415 71.292 23.165l-71.293 98.126z"/></g></g><g><text transform="translate(1257.534 119.954)"><tspan x="0" y="0" font-family="'AvenirNext-Bold'" font-size="12.995">Ene</tspan><tspan x="23.638" y="0" font-family="'AvenirNext-Bold'" font-size="12.995">r</tspan><tspan x="28.551" y="0" font-family="'AvenirNext-Bold'" font-size="12.995">gie</tspan></text><text transform="translate(1257.534 161.54)"><tspan x="0" y="0" font-family="'AvenirNext-Bold'" font-size="12.995">V</tspan><tspan x="8.629" y="0" font-family="'AvenirNext-Bold'" font-size="12.995">isserij</tspan></text><text transform="translate(1257.534 203.124)" font-family="'AvenirNext-Bold'" font-size="12.995">Militair</text><text transform="translate(1257.534 244.708)"><tspan x="0" y="0" font-family="'AvenirNext-Bold'" font-size="12.995">Eco</tspan><tspan x="22.637" y="0" font-family="'AvenirNext-Bold'" font-size="12.995">-</tspan><tspan x="26.717" y="0" font-family="'AvenirNext-Bold'" font-size="12.995">Services</tspan></text><text transform="translate(1257.534 286.293)"><tspan x="0" y="0" font-family="'AvenirNext-Bold'" font-size="12.995">R</tspan><tspan x="8.46" y="0" font-family="'AvenirNext-Bold'" font-size="12.995">ec</tspan><tspan x="22.741" y="0" font-family="'AvenirNext-Bold'" font-size="12.995">r</tspan><tspan x="27.654" y="0" font-family="'AvenirNext-Bold'" font-size="12.995">e</tspan><tspan x="35.321" y="0" font-family="'AvenirNext-Bold'" font-size="12.995">a</tspan><tspan x="42.547" y="0" font-family="'AvenirNext-Bold'" font-size="12.995">tie</tspan></text><text transform="translate(1257.534 327.878)" font-family="'AvenirNext-Bold'" font-size="12.995">Industrie</text><text transform="translate(1257.534 369.463)"><tspan x="0" y="0" font-family="'AvenirNext-Bold'" font-size="12.995">Irrig</tspan><tspan x="26.823" y="0" font-family="'AvenirNext-Bold'" font-size="12.995">a</tspan><tspan x="34.049" y="0" font-family="'AvenirNext-Bold'" font-size="12.995">tie</tspan></text><text transform="translate(1257.534 411.048)"><tspan x="0" y="0" font-family="'AvenirNext-Bold'" font-size="12.995">V</tspan><tspan x="8.316" y="0" font-family="'AvenirNext-Bold'" font-size="12.995">eiligheid</tspan></text><text transform="translate(1257.534 452.632)"><tspan x="0" y="0" font-family="'AvenirNext-Bold'" font-size="12.995" letter-spacing="-1">T</tspan><tspan x="6.38" y="0" font-family="'AvenirNext-Bold'" font-size="12.995">r</tspan><tspan x="11.319" y="0" font-family="'AvenirNext-Bold'" font-size="12.995">anspo</tspan><tspan x="49.564" y="0" font-family="'AvenirNext-Bold'" font-size="12.995">r</tspan><tspan x="54.555" y="0" font-family="'AvenirNext-Bold'" font-size="12.995">t</tspan></text><text transform="translate(1257.534 494.218)"><tspan x="0" y="0" font-family="'AvenirNext-Bold'" font-size="12.995">Drinkw</tspan><tspan x="46.107" y="0" font-family="'AvenirNext-Bold'" font-size="12.995">a</tspan><tspan x="53.333" y="0" font-family="'AvenirNext-Bold'" font-size="12.995">ter</tspan></text></g><circle fill="#FFF" cx="929.609" cy="323.266" r="89.94"/><g><path fill="#E1F4FD" d="M676.038 364.628h35.503v35.502H676.04z"/><path fill="#C8DAE6" d="M676.038 328.898h35.502V364.4h-35.502z"/><path fill="#B3C7D7" d="M676.038 293.167h35.503v35.502H676.04z"/><path fill="#A0B6C9" d="M676.038 257.437h35.502v35.502h-35.502z"/><path fill="#8EA6BB" d="M676.038 221.706h35.503v35.502H676.04z"/><path fill="#7D97AF" d="M676.038 185.976h35.502v35.5h-35.502z"/><path fill="#6D8AA3" d="M676.038 150.245h35.503v35.502H676.04z"/><path fill="#5D7D98" d="M676.038 114.515h35.503v35.502H676.04z"/><path fill="#4E718D" d="M676.038 78.784h35.502v35.502h-35.502z"/><path fill="#3F6683" d="M676.038 43.054h35.503v35.5H676.04z"/><path fill="#2E5C7A" d="M676.038 7.323h35.502v35.502h-35.502z"/><path fill="#1A5371" d="M676.038-28.408h35.503V7.094H676.04z"/><path fill="#004A69" d="M676.038-64.138h35.502v35.502h-35.502z"/><path fill="#004261" d="M676.038-99.87h35.503v35.503H676.04z"/></g><g><path fill="none" stroke="#D1D3D4" stroke-width="1.417" stroke-linecap="round" stroke-linejoin="round" stroke-miterlimit="10" d="M195.376 454.736L402.732 164.08M129.756 366.04l338.598-113.264M128.802 255.713l340.506 107.39M192.878 165.896L405.23 452.92M297.51 130.895l3.09 357.026"/><path fill="none" stroke="#F15A22" stroke-width="1.417" stroke-linecap="round" stroke-linejoin="round" stroke-miterlimit="10" d="M402.732 164.08L195.376 454.737"/><path fill="none" stroke="#D1D3D4" stroke-width="1.417" stroke-linecap="round" stroke-linejoin="round" stroke-miterlimit="10" d="M468.354 252.776L129.756 366.04"/><path fill="none" stroke="#F15A22" stroke-width="1.417" stroke-linecap="round" stroke-linejoin="round" stroke-miterlimit="10" d="M469.308 363.103l-340.506-107.39"/><path fill="none" stroke="#D1D3D4" stroke-width="1.417" stroke-miterlimit="10" d="M405.23 452.92L192.88 165.897"/><path fill="none" stroke="#F15A22" stroke-width="1.417" stroke-linecap="round" stroke-linejoin="round" stroke-miterlimit="10" d="M300.6 487.92l-3.09-357.025"/><path fill="none" stroke="#D1D3D4" stroke-width="1.417" stroke-linecap="round" stroke-linejoin="round" stroke-miterlimit="10" d="M468.354 252.776c-113.92 31.104-204.912 98.424-272.977 201.96"/><path fill="none" stroke="#F15A22" stroke-width="1.417" stroke-linecap="round" stroke-linejoin="round" stroke-miterlimit="10" d="M469.308 363.103c-110.445-41.795-223.63-40.816-339.552 2.938"/><path fill="none" stroke="#71AFAF" stroke-width="1.417" stroke-linecap="round" stroke-linejoin="round" stroke-miterlimit="10" d="M405.23 452.92c-64.785-98.73-156.928-164.467-276.43-197.207"/><path fill="none" stroke="#F15A22" stroke-width="1.417" stroke-linecap="round" stroke-linejoin="round" stroke-miterlimit="10" d="M300.6 487.92c5.62-117.954-30.288-225.296-107.722-322.025"/><path fill="none" stroke="#D1D3D4" stroke-width="1.417" stroke-linecap="round" stroke-linejoin="round" stroke-miterlimit="10" d="M195.376 454.736c73.88-92.125 107.924-200.07 102.134-323.84M129.756 366.04c113.92-31.104 204.91-98.424 272.977-201.96M128.802 255.713c110.445 41.796 223.63 40.816 339.552-2.937"/><path fill="none" stroke="#71AFAF" stroke-width="1.417" stroke-miterlimit="10" d="M192.878 165.896c64.786 98.73 156.93 164.467 276.43 197.208"/><path fill="none" stroke="#F15A22" stroke-width="1.417" stroke-linecap="round" stroke-linejoin="round" stroke-miterlimit="10" d="M297.51 130.895c-5.62 117.956 30.287 225.298 107.722 322.026"/><path fill="none" stroke="#71AFAF" stroke-width="1.417" stroke-linecap="round" stroke-linejoin="round" stroke-miterlimit="10" d="M402.732 164.08c-73.88 92.126-107.924 200.072-102.134 323.842M195.376 454.736c38.003-56.357 77.093-91.256 117.27-104.695s92.396-9.085 156.66 13.063"/><path fill="none" stroke="#D1D3D4" stroke-width="1.417" stroke-linecap="round" stroke-linejoin="round" stroke-miterlimit="10" d="M129.756 366.04c63.872-23.257 116.01-28.513 156.412-15.77s80.09 46.96 119.063 102.652"/><path fill="none" stroke="#71AFAF" stroke-width="1.417" stroke-linecap="round" stroke-linejoin="round" stroke-miterlimit="10" d="M128.802 255.713c65.343 18.728 110.613 45.12 135.81 79.177 25.197 34.057 37.193 85.068 35.987 153.03"/><path fill="none" stroke="#71AFAF" stroke-width="1.417" stroke-miterlimit="10" d="M192.878 165.896c41.856 53.56 62.967 101.52 63.333 143.883.368 42.362-19.91 90.68-60.834 144.956"/><path fill="none" stroke="#F15A22" stroke-width="1.417" stroke-linecap="round" stroke-linejoin="round" stroke-miterlimit="10" d="M297.51 130.895c2.382 67.932-8.73 119.143-33.333 153.63-24.604 34.488-69.41 61.66-134.42 81.515"/><path fill="none" stroke="#71AFAF" stroke-width="1.417" stroke-linecap="round" stroke-linejoin="round" stroke-miterlimit="10" d="M402.732 164.08c-38.003 56.36-77.093 91.257-117.27 104.697-40.176 13.44-92.397 9.085-156.66-13.063"/><path fill="none" stroke="#F15A22" stroke-width="1.417" stroke-linecap="round" stroke-linejoin="round" stroke-miterlimit="10" d="M468.354 252.776c-63.87 23.256-116.01 28.514-156.412 15.77-40.403-12.74-80.09-46.958-119.063-102.65"/><path fill="none" stroke="#71AFAF" stroke-width="1.417" stroke-linecap="round" stroke-linejoin="round" stroke-miterlimit="10" d="M469.308 363.103c-65.343-18.727-110.613-45.12-135.81-79.177-25.197-34.057-37.193-85.067-35.987-153.03"/><path fill="none" stroke="#D1D3D4" stroke-width="1.417" stroke-linecap="round" stroke-linejoin="round" stroke-miterlimit="10" d="M405.23 452.92c-41.855-53.558-62.966-101.52-63.333-143.882-.366-42.364 19.912-90.683 60.835-144.958"/><path fill="none" stroke="#D1D3D4" stroke-width="1.417" stroke-miterlimit="10" d="M128.802 255.713c32.31 7.917 57.166-.667 69.607-18.106 12.44-17.44 12.47-43.734-5.532-71.71"/><path fill="none" stroke="#F15A22" stroke-width="1.417" stroke-linecap="round" stroke-linejoin="round" stroke-miterlimit="10" d="M469.308 363.103c-59.564-15.424-86.7-51.525-95.762-78.613-9.06-27.088-9.108-72.25 29.187-120.41"/><path fill="none" stroke="#F15A22" stroke-width="1.417" stroke-linecap="round" stroke-linejoin="round" stroke-miterlimit="10" d="M402.732 164.08c-33.075 51.884-75.795 66.536-104.357 66.783-28.562.247-71.528-13.663-105.497-64.967"/><path fill="none" stroke="#D1D3D4" stroke-width="1.417" stroke-linecap="round" stroke-linejoin="round" stroke-miterlimit="10" d="M192.878 165.896c39.123 47.49 39.856 92.646 31.266 119.887-8.59 27.24-35.1 63.805-94.388 80.258"/><path fill="none" stroke="#71AFAF" stroke-width="1.417" stroke-linecap="round" stroke-linejoin="round" stroke-miterlimit="10" d="M129.756 366.04c57.255-22.532 100.428-9.276 123.68 7.313C276.69 389.94 303.275 426.45 300.6 487.92"/><path fill="none" stroke="#F15A22" stroke-width="1.417" stroke-linecap="round" stroke-linejoin="round" stroke-miterlimit="10" d="M300.6 487.92c-3.738-61.415 22.21-98.378 45.173-115.366s65.9-30.99 123.535-9.45"/><path fill="none" stroke="#F15A22" stroke-width="1.417" stroke-linecap="round" stroke-linejoin="round" stroke-miterlimit="10" d="M195.376 454.736c33.076-51.883 75.795-66.535 104.358-66.78 28.562-.25 71.528 13.66 105.497 64.966"/><path fill="none" stroke="#D1D3D4" stroke-width="1.417" stroke-linecap="round" stroke-linejoin="round" stroke-miterlimit="10" d="M128.802 255.713c59.564 15.424 86.7 51.525 95.76 78.613 9.063 27.088 9.11 72.25-29.186 120.41"/><path fill="none" stroke="#D1D3D4" stroke-width="1.417" stroke-linecap="round" stroke-linejoin="round" stroke-miterlimit="10" d="M297.51 130.895c3.738 61.416-22.21 98.38-45.173 115.368s-65.9 30.99-123.535 9.45"/><path fill="none" stroke="#71AFAF" stroke-width="1.417" stroke-linecap="round" stroke-linejoin="round" stroke-miterlimit="10" d="M468.354 252.776c-57.255 22.533-100.428 9.276-123.68-7.312-23.253-16.588-49.838-53.097-47.163-114.57"/><path fill="none" stroke="#D1D3D4" stroke-width="1.417" stroke-linecap="round" stroke-linejoin="round" stroke-miterlimit="10" d="M405.23 452.92c-39.122-47.49-39.855-92.645-31.265-119.886 8.592-27.24 35.1-63.806 94.388-80.258"/><path fill="none" stroke="#F15A22" stroke-width="1.417" stroke-miterlimit="10" d="M402.732 164.08c-17.513 28.285-17.03 54.575-4.29 71.796 12.742 17.222 37.742 25.374 69.91 16.9"/><path fill="none" stroke="#D1D3D4" stroke-width="1.417" stroke-miterlimit="10" d="M297.51 130.895c2.457 33.176 18.3 54.162 38.73 60.605s45.448-1.655 66.492-27.42"/><path fill="none" stroke="#71AFAF" stroke-width="1.417" stroke-miterlimit="10" d="M192.878 165.896c21.487 25.396 46.64 33.062 66.957 26.266s35.794-28.052 37.676-61.266M128.802 255.713c32.31 7.917 57.166-.667 69.607-18.106 12.44-17.44 12.47-43.734-5.532-71.71"/><path fill="none" stroke="#F15A22" stroke-width="1.417" stroke-miterlimit="10" d="M195.376 454.736c17.514-28.283 17.03-54.574 4.29-71.795-12.742-17.222-37.74-25.374-69.91-16.9M469.308 363.103c-32.31-7.916-57.165.668-69.606 18.107s-12.47 43.734 5.53 71.71"/><path fill="none" stroke="#D1D3D4" stroke-width="1.417" stroke-linecap="round" stroke-linejoin="round" stroke-miterlimit="10" d="M300.6 487.92c-2.382-67.93 8.73-119.142 33.334-153.63 24.604-34.488 69.41-61.66 134.42-81.514"/><path fill="none" stroke="#F15A22" stroke-width="1.417" stroke-miterlimit="10" d="M300.6 487.92c-2.457-33.175-18.3-54.16-38.73-60.604-20.43-6.443-45.448 1.656-66.493 27.42"/><path fill="none" stroke="#D1D3D4" stroke-width="1.417" stroke-miterlimit="10" d="M405.23 452.92c-21.486-25.395-46.64-33.06-66.955-26.265-20.316 6.795-35.795 28.053-37.677 61.266"/><path fill="none" stroke="#71AFAF" stroke-width="1.417" stroke-miterlimit="10" d="M129.756 366.04c30.793-12.587 45.855-34.14 45.67-55.56-.186-21.423-15.618-42.713-46.625-54.766M468.354 252.776c-30.793 12.587-45.855 34.14-45.67 55.562.185 21.422 15.618 42.71 46.624 54.764"/><text transform="translate(84.838 599.064)" font-family="'AvenirNext-Regular'" font-size="12">SYNERGIE</text><text transform="translate(84.838 623.985)" font-family="'AvenirNext-Regular'" font-size="12">CONFLICT</text><text transform="translate(84.838 648.906)" font-family="'AvenirNext-Regular'" font-size="12">NEUTRAAL</text></g><g><path fill="none" stroke="#B3C7D7" stroke-width=".283" stroke-miterlimit="10" d="M956.412 409.31c.055-14.807-11.898-26.85-26.704-26.904-14.802-.058-26.844 11.898-26.902 26.7"/><path fill="none" stroke="#B3C7D7" stroke-width=".283" stroke-miterlimit="10" d="M901.478 407.823c8.747-11.945 6.155-28.715-5.79-37.46-11.943-8.748-28.712-6.153-37.46 5.788"/><path fill="none" stroke="#B3C7D7" stroke-width=".283" stroke-miterlimit="10" d="M857.908 374.33c14.097-4.52 21.857-19.61 17.334-33.71-4.52-14.095-19.61-21.853-33.708-17.334"/><path fill="none" stroke="#B3C7D7" stroke-width=".283" stroke-miterlimit="10" d="M842.346 321.625c14.063 4.627 29.21-3.02 33.837-17.083 4.628-14.06-3.02-29.207-17.08-33.837"/><path fill="none" stroke="#B3C7D7" stroke-width=".283" stroke-miterlimit="10" d="M860.735 269.838c8.657 12.01 25.407 14.727 37.416 6.07 12.01-8.655 14.725-25.405 6.07-37.416"/><path fill="none" stroke="#B3C7D7" stroke-width=".283" stroke-miterlimit="10" d="M906.052 238.75c-.056 14.806 11.898 26.85 26.703 26.903 14.802.057 26.844-11.898 26.903-26.7"/><path fill="none" stroke="#B3C7D7" stroke-width=".283" stroke-miterlimit="10" d="M960.986 240.237c-8.747 11.944-6.155 28.714 5.79 37.46 11.94 8.747 28.71 6.153 37.46-5.79"/><path fill="none" stroke="#B3C7D7" stroke-width=".283" stroke-miterlimit="10" d="M1004.556 273.73c-14.097 4.52-21.857 19.61-17.334 33.708 4.52 14.095 19.61 21.854 33.707 17.334"/><path fill="none" stroke="#B3C7D7" stroke-width=".283" stroke-miterlimit="10" d="M1020.118 326.435c-14.062-4.628-29.21 3.02-33.838 17.082-4.628 14.06 3.02 29.208 17.08 33.836"/><path fill="none" stroke="#B3C7D7" stroke-width=".283" stroke-miterlimit="10" d="M1001.73 378.22c-8.657-12.008-25.407-14.726-37.417-6.068-12.008 8.654-14.725 25.405-6.07 37.414"/><path fill="none" stroke="#B3C7D7" stroke-width=".283" stroke-miterlimit="10" d="M956.412 409.308c.056-14.803-11.898-26.847-26.703-26.902-14.803-.057-26.847 11.898-26.903 26.7"/><g><path fill="#4E718D" d="M513.27 307.558c.4 46.4-12.87 88.49-39.82 126.26l-29.07-20.73c22.46-31.48 33.52-66.56 33.19-105.22l35.7-.31z"/><path fill="#3F6683" d="M513.27 307.558l-35.7.31c-.34-38.67-12-73.55-35-104.64l28.7-21.23c27.6 37.3 41.6 79.16 42 125.56z"/><path fill="#5D7D98" d="M444.378 413.088l29.07 20.73c-26.95 37.78-62.43 64.03-106.44 78.75l-11.32-33.86c36.67-12.27 66.24-34.14 88.69-65.62z"/><path fill="#1A5371" d="M471.27 181.998l-28.7 21.23c-23-31.08-52.94-52.44-89.82-64.07l10.74-34.05c44.26 13.95 80.178 39.58 107.78 76.89z"/><path fill="#6D8AA3" d="M355.688 478.708l11.32 33.86c-21.45 7.17-43.48 10.86-66.1 11.06-22.62.19-44.72-3.11-66.29-9.92l10.74-34.05c17.98 5.67 36.39 8.43 55.24 8.26 18.85-.16 37.21-3.23 55.09-9.21z"/><path fill="#004261" d="M363.488 105.108l-10.74 34.05c-17.98-5.67-36.39-8.43-55.24-8.26-18.85.16-37.21 3.23-55.09 9.21l-11.32-33.86c21.45-7.17 43.48-10.86 66.1-11.06 22.62-.19 44.72 3.11 66.29 9.92z"/><path fill="#7D97AF" d="M245.358 479.658l-10.74 34.05c-44.25-13.95-80.18-39.58-107.78-76.89l28.7-21.23c23 31.08 52.94 52.44 89.82 64.07z"/><path fill="#B3C7D7" d="M231.1 106.248l11.32 33.86c-36.67 12.27-66.23 34.14-88.69 65.62l-29.07-20.73c26.948-37.78 62.428-64.03 106.44-78.75z"/><path fill="#8EA6BB" d="M155.54 415.588l-28.7 21.23c-27.6-37.3-41.6-79.16-42-125.56l35.7-.312c.338 38.673 12 73.553 35 104.642z"/><path fill="#A0B6C9" d="M124.66 184.998l29.07 20.73c-22.46 31.48-33.52 66.56-33.19 105.22l-35.7.31c-.402-46.4 12.868-88.49 39.82-126.26z"/><g fill="none" stroke="#004261" stroke-miterlimit="10"><path d="M242.418 140.108c17.88-5.98 36.24-9.05 55.09-9.21M297.508 130.898c18.85-.17 37.26 2.59 55.24 8.26M363.488 105.108c-21.57-6.81-43.67-10.11-66.29-9.92M297.2 95.188c-22.62.2-44.65 3.89-66.1 11.06M153.73 205.728c22.46-31.48 52.02-53.35 88.69-65.62M242.418 140.108l-11.32-33.86M231.1 106.248c-44.01 14.72-79.49 40.97-106.44 78.75M120.54 310.948c-.33-38.66 10.73-73.74 33.19-105.22M153.73 205.728l-29.07-20.73M124.66 184.998c-26.95 37.77-40.22 79.86-39.82 126.26M84.838 311.258c.4 46.4 14.4 88.26 42 125.56M155.54 415.588c-23-31.09-34.66-65.97-35-104.64M120.54 310.948l-35.702.31M245.358 479.658c-36.88-11.63-66.82-32.99-89.82-64.07M155.54 415.588l-28.702 21.23M126.838 436.818c27.6 37.31 63.53 62.94 107.78 76.89"/><path d="M355.688 478.708c-17.88 5.98-36.24 9.05-55.09 9.21-18.85.17-37.26-2.59-55.24-8.26M245.358 479.658l-10.74 34.05M234.62 513.708c21.57 6.81 43.67 10.11 66.29 9.92 22.62-.2 44.65-3.89 66.1-11.06M444.378 413.088c-22.45 31.48-52.02 53.35-88.69 65.62M355.688 478.708l11.32 33.86M367.008 512.568c44.01-14.72 79.49-40.97 106.44-78.75M477.568 307.868c.33 38.66-10.73 73.74-33.19 105.22M444.378 413.088l29.07 20.73M473.45 433.818c26.95-37.77 40.22-79.86 39.82-126.26M442.568 203.228c23 31.09 34.66 65.97 35 104.64M477.568 307.868l35.7-.31M513.27 307.558c-.4-46.4-14.4-88.26-42-125.56M471.27 181.998c-27.6-37.31-63.52-62.94-107.78-76.89M363.488 105.108l-10.74 34.05M352.75 139.158c36.88 11.63 66.82 32.99 89.82 64.07M442.568 203.228l28.7-21.23"/></g></g></g><g><text transform="translate(908.733 319.42)"><tspan x="0" y="0" fill="#00AEEF" font-family="'AvenirNext-Bold'" font-size="12">LIQUID </tspan><tspan x="-11.448" y="14.4" fill="#00AEEF" font-family="'AvenirNext-Bold'" font-size="12">COMMONS</tspan></text><text transform="rotate(36 -108.952 1827.812)"><tspan x="0" y="0" fill="#00AEEF" font-family="'AvenirNext-Bold'" font-size="12">ECO</tspan><tspan x="-13.278" y="14.399" fill="#00AEEF" font-family="'AvenirNext-Bold'" font-size="12">HABITAT</tspan></text><text transform="rotate(72 176.017 894.898)" fill="#00AEEF" font-family="'AvenirNext-Bold'" font-size="12">RECREATIE</text><text transform="rotate(-72 783.06 -337.09)" fill="#00AEEF" font-family="'AvenirNext-Bold'" font-size="12">INDUSTRIE</text><text transform="rotate(-36 1053.83 -963.507)" fill="#00AEEF" font-family="'AvenirNext-Bold'" font-size="12">IRRIGATIE</text><text transform="translate(730.114 319.912)" fill="#00AEEF" font-family="'AvenirNext-Bold'" font-size="12">VEILIGHEID</text><text transform="rotate(36 72.677 1286.37)" fill="#00AEEF" font-family="'AvenirNext-Bold'" font-size="12">TRANSPORT</text><text transform="rotate(72 336.336 679.084)"><tspan x="0" y="0" fill="#00AEEF" font-family="'AvenirNext-Bold'" font-size="12">DRINK</tspan><tspan x="-2.094" y="14.4" fill="#00AEEF" font-family="'AvenirNext-Bold'" font-size="12">WATER</tspan></text><text transform="rotate(-72 617.653 -569.61)" fill="#00AEEF" font-family="'AvenirNext-Bold'" font-size="12">ENERGIE</text><text transform="rotate(-36 892.468 -1478.197)" fill="#00AEEF" font-family="'AvenirNext-Bold'" font-size="12">VISSERIJ</text><text transform="translate(1063.46 323.265)" fill="#00AEEF" font-family="'AvenirNext-Bold'" font-size="12">MILITAIRE</text><path fill="none" stroke="#F15A22" stroke-width="2.126" stroke-miterlimit="10" d="M19.256 619.985h52.85"/><path fill="none" stroke="#BCBEC0" stroke-width="2.126" stroke-miterlimit="10" d="M19.256 644.906h52.85"/><path fill="none" stroke="#71AFAF" stroke-width="2.126" stroke-miterlimit="10" d="M19.256 595.064h52.85"/><circle fill="none" cx="296" cy="310.43" r="192"/><text transform="rotate(-11 744.752 -1230.85)"><tspan x="0" y="0" fill="#FFF" font-family="'AvenirNext-Regular'" font-size="12"></tspan><tspan x="3.192" y="-.046" fill="#FFF" font-family="'AvenirNext-Regular'" font-size="12" rotate="1.869">D</tspan><tspan x="12.421" y=".279" fill="#FFF" font-family="'AvenirNext-Regular'" font-size="12" rotate="4.35">R</tspan><tspan x="19.761" y=".868" fill="#FFF" font-family="'AvenirNext-Regular'" font-size="12" rotate="5.944">I</tspan><tspan x="23.045" y="1.163" fill="#FFF" font-family="'AvenirNext-Regular'" font-size="12" rotate="7.83">N</tspan><tspan x="32.282" y="2.454" fill="#FFF" font-family="'AvenirNext-Regular'" font-size="12" rotate="10.368">K</tspan><tspan x="39.846" y="3.789" fill="#FFF" font-family="'AvenirNext-Regular'" font-size="12" rotate="13.266">W</tspan><tspan x="51.316" y="6.541" fill="#FFF" font-family="'AvenirNext-Regular'" font-size="12" rotate="16.284">A</tspan><tspan x="59.525" y="8.959" fill="#FFF" font-family="'AvenirNext-Regular'" font-size="12" rotate="18.591">T</tspan><tspan x="66.154" y="11.189" fill="#FFF" font-family="'AvenirNext-Regular'" font-size="12" rotate="20.705">E</tspan><tspan x="72.949" y="13.759" fill="#FFF" font-family="'AvenirNext-Regular'" font-size="12" rotate="22.872">R</tspan><tspan x="79.741" y="16.659" fill="#FFF" font-family="'AvenirNext-Regular'" font-size="12" rotate="24.441"> </tspan><tspan x="82.658" y="17.986" fill="#FFF" font-family="'AvenirNext-Regular'" font-size="12" rotate="25.392"> </tspan><tspan x="101.687" y="28.17" fill="#FFF" font-family="'AvenirNext-Regular'" font-size="12" rotate="31.809"> </tspan><tspan x="104.418" y="29.866" fill="#FFF" font-family="'AvenirNext-Regular'" font-size="12" rotate="32.767"> </tspan><tspan x="107.123" y="31.608" fill="#FFF" font-family="'AvenirNext-Regular'" font-size="12" rotate="33.725"> </tspan><tspan x="109.784" y="33.387" fill="#FFF" font-family="'AvenirNext-Regular'" font-size="12" rotate="34.68"> </tspan><tspan x="112.418" y="35.212" fill="#FFF" font-family="'AvenirNext-Regular'" font-size="12" rotate="35.636"> </tspan><tspan x="115.021" y="37.08" fill="#FFF" font-family="'AvenirNext-Regular'" font-size="12" rotate="36.594"> </tspan><tspan x="117.594" y="38.969" fill="#FFF" font-family="'AvenirNext-Regular'" font-size="12" rotate="38.015">L</tspan><tspan x="122.558" y="42.797" fill="#FFF" font-family="'AvenirNext-Regular'" font-size="12" rotate="40.502">O</tspan><tspan x="130.417" y="49.528" fill="#FFF" font-family="'AvenirNext-Regular'" font-size="12" rotate="43.478">G</tspan><tspan x="137.286" y="56.119" fill="#FFF" font-family="'AvenirNext-Regular'" font-size="12" rotate="45.402">I</tspan><tspan x="139.63" y="58.464" fill="#FFF" font-family="'AvenirNext-Regular'" font-size="12" rotate="46.948">S</tspan><tspan x="144.356" y="63.526" fill="#FFF" font-family="'AvenirNext-Regular'" font-size="12" rotate="49.041">T</tspan><tspan x="148.946" y="68.857" fill="#FFF" font-family="'AvenirNext-Regular'" font-size="12" rotate="50.598">I</tspan><tspan x="151.067" y="71.401" fill="#FFF" font-family="'AvenirNext-Regular'" font-size="12" rotate="52.192">E</tspan><tspan x="155.515" y="77.131" fill="#FFF" font-family="'AvenirNext-Regular'" font-size="12" rotate="54.436">K</tspan><tspan x="159.975" y="83.429" fill="#FFF" font-family="'AvenirNext-Regular'" font-size="12" rotate="56.069"> </tspan><tspan x="173.149" y="105.79" fill="#FFF" font-family="'AvenirNext-Regular'" font-size="12" rotate="63.794"> </tspan><tspan x="186.158" y="138.903" fill="#FFF" font-family="'AvenirNext-Regular'" font-size="12" rotate="74.885">T</tspan><tspan x="188.014" y="145.644" fill="#FFF" font-family="'AvenirNext-Regular'" font-size="12" rotate="77.482">O</tspan><tspan x="190.234" y="155.748" fill="#FFF" font-family="'AvenirNext-Regular'" font-size="12" rotate="80.336">U</tspan><tspan x="191.672" y="164.295" fill="#FFF" font-family="'AvenirNext-Regular'" font-size="12" rotate="82.741">R</tspan><tspan x="192.573" y="171.622" fill="#FFF" font-family="'AvenirNext-Regular'" font-size="12" rotate="84.35">I</tspan><tspan x="192.919" y="174.893" fill="#FFF" font-family="'AvenirNext-Regular'" font-size="12" rotate="85.888">S</tspan><tspan x="193.458" y="181.808" fill="#FFF" font-family="'AvenirNext-Regular'" font-size="12" rotate="88.553">M</tspan><tspan x="193.684" y="192.584" fill="#FFF" font-family="'AvenirNext-Regular'" font-size="12" rotate="91.257">E</tspan><tspan x="193.494" y="199.855" fill="#FFF" font-family="'AvenirNext-Regular'" font-size="12" rotate="92.823"> </tspan><tspan x="192.855" y="209.434" fill="#FFF" font-family="'AvenirNext-Regular'" font-size="12" rotate="95.695"> </tspan><tspan x="186.335" y="244.42" fill="#FFF" font-family="'AvenirNext-Regular'" font-size="12" rotate="106.305"> </tspan><tspan x="173.496" y="277.612" fill="#FFF" font-family="'AvenirNext-Regular'" font-size="12" rotate="116.877"> </tspan><tspan x="172.044" y="280.473" fill="#FFF" font-family="'AvenirNext-Regular'" font-size="12" rotate="117.83"> </tspan><tspan x="170.545" y="283.307" fill="#FFF" font-family="'AvenirNext-Regular'" font-size="12" rotate="118.783"> </tspan><tspan x="168.999" y="286.121" fill="#FFF" font-family="'AvenirNext-Regular'" font-size="12" rotate="119.737"> </tspan><tspan x="167.405" y="288.908" fill="#FFF" font-family="'AvenirNext-Regular'" font-size="12" rotate="120.692"> </tspan><tspan x="165.772" y="291.653" fill="#FFF" font-family="'AvenirNext-Regular'" font-size="12" rotate="121.643"> </tspan><tspan x="164.095" y="294.373" fill="#FFF" font-family="'AvenirNext-Regular'" font-size="12" rotate="122.595"> </tspan><tspan x="162.36" y="297.082" fill="#FFF" font-family="'AvenirNext-Regular'" font-size="12" rotate="123.553"> </tspan><tspan x="160.58" y="299.764" fill="#FFF" font-family="'AvenirNext-Regular'" font-size="12" rotate="124.513"> </tspan><tspan x="158.775" y="302.387" fill="#FFF" font-family="'AvenirNext-Regular'" font-size="12" rotate="125.464"> </tspan><tspan x="156.902" y="305.011" fill="#FFF" font-family="'AvenirNext-Regular'" font-size="12" rotate="126.427"> </tspan><tspan x="155.007" y="307.577" fill="#FFF" font-family="'AvenirNext-Regular'" font-size="12" rotate="127.381"> </tspan><tspan x="153.044" y="310.143" fill="#FFF" font-family="'AvenirNext-Regular'" font-size="12" rotate="128.347"> </tspan><tspan x="151.06" y="312.649" fill="#FFF" font-family="'AvenirNext-Regular'" font-size="12" rotate="129.303"> </tspan><tspan x="149.032" y="315.125" fill="#FFF" font-family="'AvenirNext-Regular'" font-size="12" rotate="130.262"> </tspan><tspan x="146.96" y="317.57" fill="#FFF" font-family="'AvenirNext-Regular'" font-size="12" rotate="131.223"> </tspan><tspan x="144.844" y="319.981" fill="#FFF" font-family="'AvenirNext-Regular'" font-size="12" rotate="132.185"> </tspan><tspan x="142.684" y="322.36" fill="#FFF" font-family="'AvenirNext-Regular'" font-size="12" rotate="133.149"> </tspan><tspan x="140.484" y="324.706" fill="#FFF" font-family="'AvenirNext-Regular'" font-size="12" rotate="134.115"> </tspan><tspan x="138.265" y="326.99" fill="#FFF" font-family="'AvenirNext-Regular'" font-size="12" rotate="135.073"> </tspan><tspan x="135.98" y="329.269" fill="#FFF" font-family="'AvenirNext-Regular'" font-size="12" rotate="136.042"> </tspan><tspan x="133.678" y="331.486" fill="#FFF" font-family="'AvenirNext-Regular'" font-size="12" rotate="137.003"> </tspan><tspan x="131.336" y="333.668" fill="#FFF" font-family="'AvenirNext-Regular'" font-size="12" rotate="137.966"> </tspan><tspan x="130.818" y="334.139" fill="#FFF" font-family="'AvenirNext-Regular'" font-size="12" rotate="138.176"> </tspan><tspan x="102.355" y="355.524" fill="#FFF" font-family="'AvenirNext-Regular'" font-size="12" rotate="148.874"> </tspan><tspan x="70.457" y="371.288" fill="#FFF" font-family="'AvenirNext-Regular'" font-size="12" rotate="159.383"> </tspan><tspan x="36.227" y="380.95" fill="#FFF" font-family="'AvenirNext-Regular'" font-size="12" rotate="170.017"> </tspan><tspan x=".802" y="384.101" fill="#FFF" font-family="'AvenirNext-Regular'" font-size="12" rotate="-179.277"> </tspan><tspan x="-34.606" y="380.627" fill="#FFF" font-family="'AvenirNext-Regular'" font-size="12" rotate="-168.633"> </tspan><tspan x="-68.799" y="370.68" fill="#FFF" font-family="'AvenirNext-Regular'" font-size="12" rotate="-158.047"> </tspan><tspan x="-100.537" y="354.655" fill="#FFF" font-family="'AvenirNext-Regular'" font-size="12" rotate="-147.47"> </tspan><tspan x="-128.815" y="333.03" fill="#FFF" font-family="'AvenirNext-Regular'" font-size="12" rotate="-136.807"> </tspan><tspan x="-152.576" y="306.549" fill="#FFF" font-family="'AvenirNext-Regular'" font-size="12" rotate="-126.096"> </tspan><tspan x="-171.015" y="276.13" fill="#FFF" font-family="'AvenirNext-Regular'" font-size="12" rotate="-115.492"> </tspan><tspan x="-183.589" y="242.831" fill="#FFF" font-family="'AvenirNext-Regular'" font-size="12" rotate="-104.957"> </tspan><tspan x="-189.804" y="207.819" fill="#FFF" font-family="'AvenirNext-Regular'" font-size="12" rotate="-94.262"> </tspan><tspan x="-189.411" y="172.244" fill="#FFF" font-family="'AvenirNext-Regular'" font-size="12" rotate="-83.58"> </tspan><tspan x="-182.451" y="137.358" fill="#FFF" font-family="'AvenirNext-Regular'" font-size="12" rotate="-72.979"> </tspan><tspan x="-181.512" y="134.295" fill="#FFF" font-family="'AvenirNext-Regular'" font-size="12" rotate="-72.028"> </tspan><tspan x="-180.521" y="131.249" fill="#FFF" font-family="'AvenirNext-Regular'" font-size="12" rotate="-71.078"> </tspan><tspan x="-179.475" y="128.201" fill="#FFF" font-family="'AvenirNext-Regular'" font-size="12" rotate="-70.122"> </tspan><tspan x="-178.378" y="125.173" fill="#FFF" font-family="'AvenirNext-Regular'" font-size="12" rotate="-69.167"> </tspan><tspan x="-177.238" y="122.18" fill="#FFF" font-family="'AvenirNext-Regular'" font-size="12" rotate="-68.218"> </tspan><tspan x="-176.086" y="119.23" fill="#FFF" font-family="'AvenirNext-Regular'" font-size="12" rotate="-66.67">E</tspan><tspan x="-173.225" y="112.548" fill="#FFF" font-family="'AvenirNext-Regular'" font-size="12" rotate="-64.207">N</tspan><tspan x="-169.139" y="104.153" fill="#FFF" font-family="'AvenirNext-Regular'" font-size="12" rotate="-61.742">E</tspan><tspan x="-165.708" y="97.774" fill="#FFF" font-family="'AvenirNext-Regular'" font-size="12" rotate="-59.576">R</tspan><tspan x="-162.003" y="91.425" fill="#FFF" font-family="'AvenirNext-Regular'" font-size="12" rotate="-57.066">G</tspan><tspan x="-156.774" y="83.454" fill="#FFF" font-family="'AvenirNext-Regular'" font-size="12" rotate="-55.152">I</tspan><tspan x="-154.912" y="80.735" fill="#FFF" font-family="'AvenirNext-Regular'" font-size="12" rotate="-53.574">E</tspan><tspan x="-150.557" y="74.885" fill="#FFF" font-family="'AvenirNext-Regular'" font-size="12" rotate="-52.007"> </tspan><tspan x="-150.103" y="74.297" fill="#FFF" font-family="'AvenirNext-Regular'" font-size="12" rotate="-51.784"> </tspan><tspan x="-125.799" y="48.332" fill="#FFF" font-family="'AvenirNext-Regular'" font-size="12" rotate="-41.092"> </tspan><tspan x="-123.376" y="46.222" fill="#FFF" font-family="'AvenirNext-Regular'" font-size="12" rotate="-40.125"> </tspan><tspan x="-120.928" y="44.16" fill="#FFF" font-family="'AvenirNext-Regular'" font-size="12" rotate="-39.162"> </tspan><tspan x="-118.441" y="42.136" fill="#FFF" font-family="'AvenirNext-Regular'" font-size="12" rotate="-38.198"> </tspan><tspan x="-115.927" y="40.16" fill="#FFF" font-family="'AvenirNext-Regular'" font-size="12" rotate="-37.238"> </tspan><tspan x="-113.376" y="38.223" fill="#FFF" font-family="'AvenirNext-Regular'" font-size="12" rotate="-36.275"> </tspan><tspan x="-110.786" y="36.325" fill="#FFF" font-family="'AvenirNext-Regular'" font-size="12" rotate="-35.311"> </tspan><tspan x="-108.159" y="34.466" fill="#FFF" font-family="'AvenirNext-Regular'" font-size="12" rotate="-34.346"> </tspan><tspan x="-105.523" y="32.667" fill="#FFF" font-family="'AvenirNext-Regular'" font-size="12" rotate="-33.391"> </tspan><tspan x="-102.836" y="30.898" fill="#FFF" font-family="'AvenirNext-Regular'" font-size="12" rotate="-32.428"> </tspan><tspan x="-100.126" y="29.179" fill="#FFF" font-family="'AvenirNext-Regular'" font-size="12" rotate="-31.47"> </tspan><tspan x="-97.398" y="27.511" fill="#FFF" font-family="'AvenirNext-Regular'" font-size="12" rotate="-30.516"> </tspan><tspan x="-94.712" y="25.834" fill="#FFF" font-family="'AvenirNext-Regular'" font-size="12" rotate="-28.29">W</tspan><tspan x="-84.313" y="20.265" fill="#FFF" font-family="'AvenirNext-Regular'" font-size="12" rotate="-25.027">O</tspan><tspan x="-74.925" y="15.901" fill="#FFF" font-family="'AvenirNext-Regular'" font-size="12" rotate="-22.147">N</tspan><tspan x="-66.278" y="12.408" fill="#FFF" font-family="'AvenirNext-Regular'" font-size="12" rotate="-19.7">E</tspan><tspan x="-59.458" y="9.946" fill="#FFF" font-family="'AvenirNext-Regular'" font-size="12" rotate="-17.241">N</tspan></text><circle fill="none" cx="301.169" cy="308.42" r="202.048"/><text transform="rotate(81 -148.734 228.684)" fill="#FFF" font-family="'AvenirNext-Regular'" font-size="12.628">R</text><text transform="rotate(79 -158.81 235.222)" fill="#FFF" font-family="'AvenirNext-Regular'" font-size="12.628">I</text><text transform="rotate(77 -168.936 239.884)" fill="#FFF" font-family="'AvenirNext-Regular'" font-size="12.628">O</text><text transform="rotate(74 -185.443 250.228)" fill="#FFF" font-family="'AvenirNext-Regular'" font-size="12.628">L</text><text transform="rotate(72 -198.42 257.578)" fill="#FFF" font-family="'AvenirNext-Regular'" font-size="12.628">E</text><text transform="rotate(70 -213.547 266.346)" fill="#FFF" font-family="'AvenirNext-Regular'" font-size="12.628">R</text><text transform="rotate(68 -226.15 274.627)" fill="#FFF" font-family="'AvenirNext-Regular'" font-size="12.628">I</text><text transform="rotate(66 -238.915 280.587)" fill="#FFF" font-family="'AvenirNext-Regular'" font-size="12.628">N</text><text transform="rotate(63 -261.59 293.692)" fill="#FFF" font-family="'AvenirNext-Regular'" font-size="12.628">G</text><text transform="rotate(61 -279.714 306.05)" fill="#FFF" font-family="'AvenirNext-Regular'" font-size="12.628"></text><text transform="rotate(60 -288.367 311.137)" fill="#FFF" font-family="'AvenirNext-Regular'" font-size="12.628"></text><text transform="rotate(59 -297.25 316.368)" fill="#FFF" font-family="'AvenirNext-Regular'" font-size="12.628"></text><text transform="rotate(58 -306.372 321.735)" fill="#FFF" font-family="'AvenirNext-Regular'" font-size="12.628"></text><text transform="rotate(57 -315.8 327.3)" fill="#FFF" font-family="'AvenirNext-Regular'" font-size="12.628"></text><text transform="rotate(56 -325.418 332.97)" fill="#FFF" font-family="'AvenirNext-Regular'" font-size="12.628"></text><text transform="matrix(.676 .7368 -.737 .676 149.904 442.44)" fill="#FFF" font-family="'AvenirNext-Regular'" font-size="12.628">R</text><text transform="rotate(45 -461.07 410.866)" fill="#FFF" font-family="'AvenirNext-Regular'" font-size="12.628">E</text><text transform="rotate(43 -500.36 432.896)" fill="#FFF" font-family="'AvenirNext-Regular'" font-size="12.628">C</text><text transform="matrix(.764 .645 -.645 .764 168.036 460.51)" fill="#FFF" font-family="'AvenirNext-Regular'" font-size="12.628">R</text><text transform="rotate(38 -591.28 486.596)" fill="#FFF" font-family="'AvenirNext-Regular'" font-size="12.628">E</text><text transform="matrix(.815 .5795 -.5795 .815 180.458 470.573)" fill="#FFF" font-family="'AvenirNext-Regular'" font-size="12.628">A</text><text transform="rotate(33 -709.76 555.67)" fill="#FFF" font-family="'AvenirNext-Regular'" font-size="12.628">T</text><text transform="rotate(31 -757.694 586.42)" fill="#FFF" font-family="'AvenirNext-Regular'" font-size="12.628">I</text><text transform="rotate(30 -809.67 613.503)" fill="#FFF" font-family="'AvenirNext-Regular'" font-size="12.628">E</text><text transform="rotate(28 -868.84 651.603)" fill="#FFF" font-family="'AvenirNext-Regular'" font-size="12.628"></text><text transform="rotate(27 -908.093 674.6)" fill="#FFF" font-family="'AvenirNext-Regular'" font-size="12.628"></text><text transform="rotate(26 -950.18 699.29)" fill="#FFF" font-family="'AvenirNext-Regular'" font-size="12.628"></text><text transform="rotate(25 -995.436 725.884)" fill="#FFF" font-family="'AvenirNext-Regular'" font-size="12.628"></text><text transform="rotate(24 -1044.356 754.538)" fill="#FFF" font-family="'AvenirNext-Regular'" font-size="12.628"></text><text transform="rotate(23 -1097.343 785.582)" fill="#FFF" font-family="'AvenirNext-Regular'" font-size="12.628"></text><text transform="rotate(22 -1154.912 819.386)" fill="#FFF" font-family="'AvenirNext-Regular'" font-size="12.628"></text><text transform="rotate(21 -1217.42 856.075)" fill="#FFF" font-family="'AvenirNext-Regular'" font-size="12.628"></text><text transform="matrix(.939 .344 -.344 .939 230.016 497.556)" fill="#FFF" font-family="'AvenirNext-Regular'" font-size="12.628"></text><text transform="rotate(19 -1362.676 941.592)" fill="#FFF" font-family="'AvenirNext-Regular'" font-size="12.628"></text><text transform="rotate(18 -1446.41 990.786)" fill="#FFF" font-family="'AvenirNext-Regular'" font-size="12.628"></text><text transform="rotate(17 -1541.103 1046.083)" fill="#FFF" font-family="'AvenirNext-Regular'" font-size="12.628"></text><text transform="matrix(.9604 .2784 -.2784 .9605 243.287 502.02)" fill="#FFF" font-family="'AvenirNext-Regular'" font-size="12.628"></text><text transform="rotate(15 -1765.204 1177.667)" fill="#FFF" font-family="'AvenirNext-Regular'" font-size="12.628"></text><text transform="rotate(14 -1899.565 1256.533)" fill="#FFF" font-family="'AvenirNext-Regular'" font-size="12.628"></text><text transform="rotate(13 -2055.125 1347.84)" fill="#FFF" font-family="'AvenirNext-Regular'" font-size="12.628"></text><text transform="rotate(12 -2235.07 1453.254)" fill="#FFF" font-family="'AvenirNext-Regular'" font-size="12.628"></text><text transform="rotate(11 -2446.913 1577.75)" fill="#FFF" font-family="'AvenirNext-Regular'" font-size="12.628"></text><text transform="rotate(10 -2698.613 1725.497)" fill="#FFF" font-family="'AvenirNext-Regular'" font-size="12.628"></text><text transform="rotate(9 -3004.528 1905.648)" fill="#FFF" font-family="'AvenirNext-Regular'" font-size="12.628"></text><text transform="rotate(8 -3387.56 2130.44)" fill="#FFF" font-family="'AvenirNext-Regular'" font-size="12.628"></text><text transform="rotate(7 -3877.342 2417.88)" fill="#FFF" font-family="'AvenirNext-Regular'" font-size="12.628">I</text><text transform="rotate(5 -5353.463 3252.073)" fill="#FFF" font-family="'AvenirNext-Regular'" font-size="12.628">N</text><text transform="rotate(2 -11853.74 7026.56)" fill="#FFF" font-family="'AvenirNext-Regular'" font-size="12.628">D</text><text transform="translate(298.043 510.517)" fill="#FFF" font-family="'AvenirNext-Regular'" font-size="12.628">U</text><text transform="matrix(.9988 -.0478 .0478 .999 307.48 510.434)" fill="#FFF" font-family="'AvenirNext-Regular'" font-size="12.628">S</text><text transform="rotate(-5 6119.256 -3427.325)" fill="#FFF" font-family="'AvenirNext-Regular'" font-size="12.628">T</text><text transform="rotate(-7 4246.93 -2333.474)" fill="#FFF" font-family="'AvenirNext-Regular'" font-size="12.628">R</text><text transform="rotate(-9 3470.64 -1895.44)" fill="#FFF" font-family="'AvenirNext-Regular'" font-size="12.628">I</text><text transform="rotate(-10 2944.997 -1574.556)" fill="#FFF" font-family="'AvenirNext-Regular'" font-size="12.628">E</text><text transform="rotate(-12 2564.72 -1363.608)" fill="#FFF" font-family="'AvenirNext-Regular'" font-size="12.628"></text><text transform="matrix(.974 -.2263 .2263 .974 345.456 505.63)" fill="#FFF" font-family="'AvenirNext-Regular'" font-size="12.628"></text><text transform="rotate(-14 2217.322 -1159.422)" fill="#FFF" font-family="'AvenirNext-Regular'" font-size="12.628"></text><text transform="rotate(-15 2079.657 -1078.544)" fill="#FFF" font-family="'AvenirNext-Regular'" font-size="12.628"></text><text transform="rotate(-16 1957.84 -1006.514)" fill="#FFF" font-family="'AvenirNext-Regular'" font-size="12.628"></text><text transform="rotate(-17 1850.14 -943.603)" fill="#FFF" font-family="'AvenirNext-Regular'" font-size="12.628"></text><text transform="rotate(-18 1755.003 -887.707)" fill="#FFF" font-family="'AvenirNext-Regular'" font-size="12.628"></text><text transform="rotate(-19 1669.264 -837.327)" fill="#FFF" font-family="'AvenirNext-Regular'" font-size="12.628"></text><text transform="rotate(-20 1592.48 -792.164)" fill="#FFF" font-family="'AvenirNext-Regular'" font-size="12.628"></text><text transform="rotate(-21 1522.437 -751.063)" fill="#FFF" font-family="'AvenirNext-Regular'" font-size="12.628"></text><text transform="rotate(-22 1458.305 -713.29)" fill="#FFF" font-family="'AvenirNext-Regular'" font-size="12.628"></text><text transform="rotate(-23 1400.678 -679.44)" fill="#FFF" font-family="'AvenirNext-Regular'" font-size="12.628"></text><text transform="rotate(-24 1347.04 -647.907)" fill="#FFF" font-family="'AvenirNext-Regular'" font-size="12.628"></text><text transform="rotate(-25 1298.14 -619.254)" fill="#FFF" font-family="'AvenirNext-Regular'" font-size="12.628"></text><text transform="rotate(-26 1252.887 -592.505)" fill="#FFF" font-family="'AvenirNext-Regular'" font-size="12.628"></text><text transform="rotate(-27 1210.754 -567.945)" fill="#FFF" font-family="'AvenirNext-Regular'" font-size="12.628"></text><text transform="rotate(-28 1171.734 -545.104)" fill="#FFF" font-family="'AvenirNext-Regular'" font-size="12.628"></text><text transform="rotate(-30 1119.835 -511.077)" fill="#FFF" font-family="'AvenirNext-Regular'" font-size="12.628">L</text><text transform="rotate(-32 1047.634 -466.672)" fill="#FFF" font-family="'AvenirNext-Regular'" font-size="12.628">A</text><text transform="rotate(-34 980.874 -429.42)" fill="#FFF" font-family="'AvenirNext-Regular'" font-size="12.628">N</text><text transform="rotate(-37 907.425 -385.058)" fill="#FFF" font-family="'AvenirNext-Regular'" font-size="12.628">D</text><text transform="rotate(-40 853.89 -355.408)" fill="#FFF" font-family="'AvenirNext-Regular'" font-size="12.628">B</text><text transform="rotate(-43 804.528 -324.626)" fill="#FFF" font-family="'AvenirNext-Regular'" font-size="12.628">O</text><text transform="rotate(-46 757.736 -298.73)" fill="#FFF" font-family="'AvenirNext-Regular'" font-size="12.628">U</text><text transform="rotate(-49 714.51 -271.204)" fill="#FFF" font-family="'AvenirNext-Regular'" font-size="12.628">W</text><text transform="rotate(-51 683.17 -259.018)" fill="#FFF" font-family="'AvenirNext-Regular'" font-size="12.628"></text><text transform="rotate(-52 671.393 -252.108)" fill="#FFF" font-family="'AvenirNext-Regular'" font-size="12.628"></text><text transform="rotate(-53 660.186 -245.48)" fill="#FFF" font-family="'AvenirNext-Regular'" font-size="12.628"></text><text transform="rotate(-54 649.22 -239)" fill="#FFF" font-family="'AvenirNext-Regular'" font-size="12.628"></text><text transform="rotate(-55 638.775 -232.83)" fill="#FFF" font-family="'AvenirNext-Regular'" font-size="12.628"></text><text transform="rotate(-56 628.536 -226.81)" fill="#FFF" font-family="'AvenirNext-Regular'" font-size="12.628"></text><text transform="matrix(.5403 -.8414 .8414 .5404 470.35 419.02)" fill="#FFF" font-family="'AvenirNext-Regular'" font-size="12.628"></text><text transform="rotate(-58 609.123 -215.35)" fill="#FFF" font-family="'AvenirNext-Regular'" font-size="12.628"></text><text transform="matrix(.5105 -.8598 .8598 .5106 474.093 413.067)" fill="#FFF" font-family="'AvenirNext-Regular'" font-size="12.628"></text><text transform="rotate(-60 590.95 -204.627)" fill="#FFF" font-family="'AvenirNext-Regular'" font-size="12.628"></text><text transform="rotate(-61 582.255 -199.51)" fill="#FFF" font-family="'AvenirNext-Regular'" font-size="12.628"></text><text transform="rotate(-63 569.695 -189.724)" fill="#FFF" font-family="'AvenirNext-Regular'" font-size="12.628">E</text><text transform="rotate(-65 550.383 -177.602)" fill="#FFF" font-family="'AvenirNext-Regular'" font-size="12.628">C</text><text transform="rotate(-68 529.063 -164.38)" fill="#FFF" font-family="'AvenirNext-Regular'" font-size="12.628">O</text><text transform="rotate(-71 512.116 -157.916)" fill="#FFF" font-family="'AvenirNext-Regular'" font-size="12.628">-</text><text transform="rotate(-73 500.46 -148.674)" fill="#FFF" font-family="'AvenirNext-Regular'" font-size="12.628">H</text><text transform="rotate(-75 483.942 -139.222)" fill="#FFF" font-family="'AvenirNext-Regular'" font-size="12.628">A</text><text transform="rotate(-78 469.092 -130.997)" fill="#FFF" font-family="'AvenirNext-Regular'" font-size="12.628">B</text><text transform="rotate(-79 458.355 -126.9)" fill="#FFF" font-family="'AvenirNext-Regular'" font-size="12.628">I</text><text transform="rotate(-81 450.79 -120.782)" fill="#FFF" font-family="'AvenirNext-Regular'" font-size="12.628">T</text><text transform="rotate(-83 438.864 -113.17)" fill="#FFF" font-family="'AvenirNext-Regular'" font-size="12.628">A</text><text transform="rotate(-86 426.616 -106.76)" fill="#FFF" font-family="'AvenirNext-Regular'" font-size="12.628">T</text><text transform="rotate(-87 418.152 -103.496)" fill="#FFF" font-family="'AvenirNext-Regular'" font-size="12.628"></text><text transform="matrix(-.0963 -.9953 .9954 -.0963 502.462 290.347)" fill="#FFF" font-family="'AvenirNext-Regular'" font-size="12.628"></text><text transform="rotate(-107 341.547 -58.415)" fill="#FFF" font-family="'AvenirNext-Regular'" font-size="12.628"></text><text transform="rotate(-118 305.61 -37.19)" fill="#FFF" font-family="'AvenirNext-Regular'" font-size="12.628"></text><text transform="matrix(-.481 -.8767 .8768 -.481 479.227 212.85)" fill="#FFF" font-family="'AvenirNext-Regular'" font-size="12.628"></text><text transform="rotate(-120 299.655 -33.694)" fill="#FFF" font-family="'AvenirNext-Regular'" font-size="12.628"></text><text transform="rotate(-121 296.72 -31.984)" fill="#FFF" font-family="'AvenirNext-Regular'" font-size="12.628"></text></g><g><g fill="#1A5371"><path d="M444.19 114.736h4.027v1.15h-4.026zM444.192 112.436h4.025v1.726h-4.025zM448.794 114.736h4.027v1.15h-4.026zM448.794 112.436h4.027v1.726h-4.026zM448.794 110.135h4.027v1.726h-4.026zM453.396 114.736h4.027v1.15h-4.027zM453.397 112.436h4.026v1.726h-4.026zM453.397 110.135h4.026v1.726h-4.026zM458 114.736h4.025v1.15H458zM458 112.436h4.025v1.726H458zM458 110.135h4.025v1.726H458zM462.6 114.736h4.027v1.15H462.6zM462.602 112.436h4.025v1.726h-4.025zM462.602 110.135h4.025v1.726h-4.025zM467.203 114.736h4.028v1.15h-4.027zM467.203 112.436h4.027v1.726h-4.027zM482.158 107.047v-.94h-5.176l.313.94M482.158 109.348v-1.88h-4.723l.627 1.88M482.158 110.135v-.365h-5.176v1.088h1.15c.156 0 .282.126.282.284 0 .157-.126.285-.283.285h-1.148v.582h1.15c.156 0 .282.126.282.284 0 .156-.126.284-.283.284h-1.148v.582h1.15c.156 0 .282.127.282.285 0 .156-.126.284-.283.284h-1.148v1.01h5.176v-4.605zm-1.15 3.595h-.575v-.575h.576v.575zm0-1.15h-.575v-.575h.576v.575zm0-1.15h-.575v-.575h.576v.575z"/><path d="M484.67 115.887c0-.117-.093-.21-.21-.21H483.4l-.514-.514c-.038-.04-.093-.06-.148-.06h-6.904c-.055 0-.11.02-.148.06l-1.09 1.09h-33.19l-.514-.514c-.04-.04-.093-.063-.148-.063h-1.063l-.515-.513c-.04-.04-.093-.062-.148-.062-3.403 0-10.84-.57-10.914-.574-.097-.015-.185.052-.216.143-.03.093.005.193.086.245 2.154 1.37 3.632 2.608 4.646 3.64h52.052v-2.667zm-53.422 0c-.158 0-.288-.128-.288-.287 0-.16.13-.288.288-.288.16 0 .288.128.288.288 0 .16-.13.287-.288.287zM483.675 119.915c0 .116.094.21.21.21h.576c.117 0 .21-.094.21-.21v-.94h-.995v.94zM434.78 121.68c.02.1.106.17.207.17h42.57c3.5 0 4.703-1.163 4.752-1.212.08-.08.08-.213 0-.296-.008-.007-.176-.188-.108-.46.05-.197.256-.527.944-.91h-50.13c1.52 1.667 1.76 2.694 1.764 2.71zM481.22 100.354c0-.116-.094-.21-.21-.21-.117 0-.21.094-.21.21v5.177h.42v-5.176z"/></g><path fill="#004261" d="M295.81 50.398v-6.166c.72-2.885 2.776-4.327 6.166-4.327h4.327c0-.896.727-1.623 1.623-1.623v-4.327H303.6c-.718 0-1.3-.58-1.3-1.298 0-.716.582-1.298 1.3-1.298h11.357c.717 0 1.3.58 1.3 1.297 0 .718-.583 1.298-1.3 1.298h-4.327v4.327c.896 0 1.623.726 1.623 1.623h5.95V36.12c0-.418.338-.758.756-.758h1.622v12.98h-1.623c-.42 0-.758-.338-.758-.756V43.8h-5.95c0 .896-.726 1.622-1.622 1.622h-2.705c-.896 0-1.622-.726-1.622-1.622h-4.328c-1.075 0-1.947.872-1.947 1.947v4.65h-4.218zm-4.87 3.57l1.84 16.12h9.843l1.84-16.12H290.94zm1.516 1.407h10.493l-.326 3.245h-9.735"/><path fill="#6D8AA3" d="M325.15 559.65l-1.137-1.543v-.024h-.02l-1.29-1.754v-1.036h-.763l-.045-.062v-4.24h-1.403v-5.427c0-.15-.123-.274-.274-.274h-3.83c-.15 0-.274.124-.274.275v2.714h-1.31c-.42 0-.757.313-.757.7 0 .036.004.07.01.105v.51h-1.464v5.877h-1.249v4.178h-4.265l-.738-25.7c0-.29-.29-.34-.652-.34-.36 0-.652.05-.652.34l-.507 25.7h-.564l-.738-25.7c0-.29-.29-.34-.652-.34-.36 0-.65.05-.65.34l-.51 25.7h-1.362v3.768h-1.394l-.05-7.595-6.36 3.655h-.404l-.008-3.655-6.64 3.655h-.307l-.006-3.655-6.64 3.653h-1.63v6.433h-1.95v4.858h50.646v-11.12h-.16zm-13.2-3.004v.908h-.333v-1.456l.334.548zm.906-5.38h.46v1.76h-.46v-1.76zm.72 0h.48v1.76h-.48v-1.76zm8.044 1.81h-.47v-.902l.47-.642v1.543zm-.745 0h-.382v-.007l.382-.523v.528zm2.396 4.486h-.567v-.246h.387l.18.246zm-.567 1.314h1.537l.18.245h-1.718v-.244zm0-.274v-.246h1.154l.18.246h-1.334zm-10.752 1.034h-.237l.238-.397v.396zm.275-.854l.366-.61v1.465h-.365v-.855zm7.083-6.6v.893h-.47v-1.528l.47.636zm.635 1.17l-.36.492v-.496h.36v.005zm-.635.866l-.47.64v-1.51h.47v.87zm0 .464v.474h-.348l.348-.474zm.275.475v-.848l.36-.493v1.34h-.36zm.36-2.082h-.36v-.518l.36.49v.028zm-6.22 2.675l-.217.362v-.362h.218zm-.492.82l-.365.61v-1.43h.366v.82zm.61 2.648l-.334-.548v-.843h.335v1.39zm-.61-1l-.238-.39h.24v.39zm-.268-.665l.27-.45v.45h-.27zm-.737.695v-.42h.252l-.252.42zm.64-.1l.367.6v.89h-.366v-1.49zm.64 1.05l.268.438h-.267v-.438zm.336.4v.038h-.06l.06-.037zm0-2.045h-.334v-.907l.335-.558v1.465zm7.31-2.396v-.473l.35.473h-.35zm-.275 0h-.382v-1.364l.382.518v.847zm-.368-1.81h.368v.5l-.368-.5zm-.924-1.253v-.828h.36v1.317l-.36-.49zm-.275-.373l-.335-.454h.335v.455zm-5.252-1.862v1.134h-.48v-1.134h.48zm0 3.44v2.173h-.48v-2.17h.48zm-1.83 4.255v-.457l.278.457h-.28zm-.61.275h.335v.877l-.333.558v-1.435zm11.087 1.568h1.92l.188.253h-2.107v-.254zm0-1.314v-.245h.77l.18.245h-.95zm.185-1.04h-.185v-.25l.185.25zm-1.738-2.82v-.874h.47v1.51l-.47-.637zm.326-2.956l-.326.444v-.444h.326zm-.6 0v.817l-.383.522v-1.34h.382zm-4.213-5.427h3.28v5.15h-1.221v-2.01c0-.388-.338-.702-.756-.702h-1.303v-2.44zm-3.346 4.018v1.134h-.46v-1.134h.46zm-.46 3.44h.46v2.173h-.46v-2.17zm-.266 2.448v1.423l-.365-.602v-.822h.366zm-.64.373l-.226-.374h.227v.373z"/><g fill="#5D7D98"><path d="M476.265 507.958c-.28-.585-.583-1.154-.907-1.71-15.04 3.1-33.258 11.258-41.285 23.344 1.974 3.575 4.844 6.584 8.307 8.73 6.982-13.516 25.04-27.136 33.885-30.364zM474 504.166c-4.315-5.9-11.286-9.736-19.155-9.736-10.17 0-18.842 6.404-22.212 15.398 12.15-6.036 31.118-7.22 41.366-5.662zM456.81 541.773c12.177-.998 21.75-11.19 21.75-23.627 0-3.242-.65-6.33-1.828-9.144-8.264 8.447-16.57 20.76-19.923 32.77zM437.364 516.72h.746v6.803h-.746z"/><path d="M436.41 511.45c1.327 1.246 1.76 3.916 1.682 5.262 2.638-2.143-.268-6.254-2.57-6.777.155 1.045.05 2.013-.106 2.876-.34 1.906.548 3.765 1.988 3.916.037-.966.333-2.33-.994-5.275z"/><path d="M433.446 517.354c.79-.36 2.784-.19 3.645.038-1.507-2.282-4.225-.87-4.83.235.724.112 1.34.384 1.88.666 1.19.622 2.602.42 3.002-.502-.63-.223-2.787-.453-3.696-.436zM441.02 516.318c-.187.845-1.527 2.336-2.225 2.884 2.728.174 3.24-2.847 2.724-3.996-.528.51-1.118.84-1.667 1.1-1.214.572-1.904 1.824-1.41 2.697.56-.368 2.044-1.95 2.578-2.685zM453.59 534.04h.746v6.804h-.746z"/><path d="M452.636 528.77c1.327 1.245 1.76 3.916 1.682 5.26 2.638-2.14-.268-6.253-2.57-6.776.155 1.046.05 2.014-.106 2.877-.34 1.906.55 3.765 1.99 3.917.034-.966.33-2.33-.996-5.276z"/><path d="M449.67 534.673c.79-.36 2.785-.19 3.646.038-1.508-2.28-4.227-.868-4.833.236.725.112 1.342.385 1.88.666 1.19.62 2.603.42 3.003-.502-.628-.224-2.784-.452-3.695-.437zM457.248 533.638c-.188.844-1.528 2.336-2.226 2.883 2.728.175 3.24-2.846 2.724-3.995-.527.51-1.117.84-1.666 1.1-1.213.572-1.904 1.824-1.41 2.697.56-.367 2.043-1.95 2.578-2.684zM446.994 511.444h.542v4.94h-.542z"/><path d="M446.3 507.617c.965.903 1.28 2.843 1.222 3.82 1.916-1.557-.194-4.542-1.867-4.922.114.76.036 1.463-.078 2.09-.246 1.383.4 2.732 1.444 2.843.03-.7.245-1.693-.72-3.83z"/><path d="M444.148 511.903c.572-.26 2.022-.137 2.647.028-1.097-1.656-3.07-.63-3.51.17.527.083.976.28 1.367.485.864.45 1.89.304 2.18-.364-.457-.163-2.022-.33-2.684-.317zM449.65 511.152c-.136.612-1.11 1.695-1.616 2.094 1.98.125 2.354-2.068 1.98-2.903-.385.37-.813.61-1.21.8-.883.414-1.384 1.324-1.026 1.958.407-.267 1.485-1.416 1.872-1.948zM459.938 525.48h.542v4.942h-.542z"/><path d="M459.246 521.655c.964.904 1.277 2.843 1.22 3.82 1.918-1.557-.193-4.543-1.865-4.922.115.76.037 1.462-.078 2.09-.246 1.383.4 2.733 1.444 2.844.028-.702.244-1.695-.72-3.832z"/><path d="M457.093 525.942c.572-.262 2.02-.14 2.647.027-1.096-1.658-3.07-.632-3.508.17.525.082.974.28 1.366.483.864.45 1.89.304 2.18-.365-.458-.162-2.024-.328-2.685-.316zM462.594 525.19c-.136.61-1.108 1.695-1.616 2.093 1.98.125 2.354-2.068 1.98-2.902-.384.37-.813.61-1.21.8-.88.415-1.383 1.324-1.025 1.958.406-.266 1.484-1.416 1.87-1.948zM456.003 508.077h.387v3.314h-.387z"/><path d="M455.464 505.51c.733.605.97 1.906.93 2.56 1.457-1.042-.15-3.046-1.42-3.3.086.51.026.98-.06 1.4-.187.928.303 1.833 1.1 1.908.018-.47.183-1.134-.55-2.57z"/><path d="M453.827 508.385c.436-.175 1.537-.093 2.013.02-.833-1.112-2.333-.425-2.667.113.4.056.74.188 1.04.325.656.303 1.436.203 1.656-.246-.35-.108-1.54-.22-2.043-.212zM458.01 507.88c-.104.412-.842 1.14-1.23 1.405 1.506.084 1.79-1.388 1.505-1.947-.292.25-.617.41-.92.535-.67.28-1.05.89-.778 1.315.308-.178 1.13-.95 1.423-1.307zM465.848 517.92h.387v3.315h-.387z"/><path d="M465.31 515.355c.732.606.97 1.907.928 2.562 1.458-1.043-.148-3.047-1.42-3.303.086.51.028.98-.058 1.403-.188.928.302 1.833 1.098 1.907.02-.47.183-1.135-.55-2.57z"/><path d="M463.67 518.23c.437-.175 1.538-.093 2.015.02-.833-1.112-2.333-.425-2.668.113.4.055.74.188 1.04.324.655.304 1.435.204 1.656-.244-.348-.11-1.538-.22-2.042-.213zM467.856 517.726c-.104.41-.843 1.138-1.23 1.403 1.505.084 1.79-1.388 1.504-1.947-.292.248-.617.41-.92.535-.67.28-1.05.89-.78 1.314.31-.178 1.13-.95 1.426-1.306zM463.366 506.397h.26v2.237h-.26z"/><path d="M463.002 504.664c.494.41.655 1.287.626 1.73.983-.706-.1-2.058-.96-2.23.06.345.02.662-.038.946-.127.627.205 1.238.742 1.288.013-.317.124-.767-.37-1.734z"/><path d="M461.896 506.605c.293-.12 1.036-.062 1.358.012-.562-.75-1.575-.284-1.8.078.27.037.5.126.702.22.443.203.97.136 1.118-.166-.234-.076-1.04-.15-1.378-.145zM464.72 506.265c-.07.277-.57.768-.83.947 1.017.057 1.208-.937 1.016-1.315-.197.168-.416.276-.62.362-.453.187-.71.6-.526.886.207-.12.76-.64.96-.88z"/></g><path fill="#7D97AF" d="M167.18 515.712h-13.296V512.702h-8.992l-1.347-3.736-1.127.406 1.34 3.717v2.623h-5.093v-15.99c1.327.206 1.99 1.24 1.99 1.24s.685-1.346 2.305-1.346 2.268 1.345 2.268 1.345.72-1.345 2.304-1.31 2.478 1.31 2.478 1.31c-.17-6.247-5.132-11.3-11.344-11.604v-.304s-.108-.464-.6-.464c-.49 0-.598.464-.598.464v.304c-6.212.307-11.174 5.357-11.344 11.604 0 0 .893-1.272 2.477-1.31 1.584-.035 2.305 1.31 2.305 1.31s.648-1.345 2.268-1.345c1.62 0 2.304 1.345 2.304 1.345s.664-1.033 1.99-1.24v15.99h-11.343v2.397h3.46v5.373h2.395v-5.374h29.378v5.373h2.396v-5.374h3.425v-2.398zm-22.223-1.81h7.73v1.81h-7.73v-1.81z"/><path fill="#8EA6BB" d="M45.68 399.683c0 10.005 8.142 18.146 18.147 18.146s18.146-8.142 18.146-18.147c0-10.004-8.14-18.145-18.146-18.145s-18.146 8.14-18.146 18.145zm3.195 0c0-8.244 6.708-14.95 14.952-14.95s14.952 6.706 14.952 14.95c0 8.245-6.71 14.953-14.953 14.953s-14.952-6.708-14.952-14.953zm28.56.15c0 7.49-6.11 13.582-13.617 13.582-7.502 0-13.6-6.09-13.6-13.583 0-1.34.202-2.688.59-3.993.07-.23.298-.375.533-.347.158.025.282.123.353.26.78.8 1.825 1.237 2.948 1.237.984 0 1.886-.324 2.617-.935.173-.233.572-.254.765-.03.74.637 1.666.965 2.664.965 1.066 0 2.042-.385 2.784-1.084.14-.14.343-.18.52-.107.087.042.158.106.208.18.74.65 1.705 1.01 2.724 1.01 1.077 0 2.11-.414 2.842-1.14.14-.145.348-.183.527-.11.092.04.165.103.216.178.743.693 1.73 1.072 2.78 1.072 1.047 0 2.066-.404 2.812-1.112.19-.172.48-.172.662-.008.064.06.133.162.164.248.34 1.215.512 2.467.512 3.714z"/><path fill="#4E718D" d="M572.275 376.76s1.273-6.034-.995-8.68c-2.482-2.89-7.528-2.966-7.528-2.966s-2.925-3.963-6.642-4.613c-4.647-.813-9.63.11-9.63.11s-2.853-2.53-9.078-1.428c-4.663.825-5.093 5.713-5.093 5.713s-4.255-.145-5.978 2.197c-1.868 2.54.11 7.91.11 7.91s-2.537 3.543-1.77 6.703c.665 2.743 4.648 2.856 4.648 2.856s.764 4.333 4.208 4.505c2.81.14 5.867-1.43 5.867-1.43s3.514 1.594 7.084 1.54c3.678-.056 7.416-1.757 7.416-1.757s2.724 2.556 6.09 3.295c3.388.745 6.31-3.074 6.31-3.074s4.24.818 5.645-2.42c1.523-3.508-.665-8.46-.665-8.46zm-14.61 14.064s-1.013-.373-1.883-.88c-.722-.42-1.33-.988-1.33-.988s-.112.84-.297 1.388c-.185.548-.548 1.12-.548 1.12s-.065-.373-.15-.784c-.108-.516-.248-1.092-.332-1.064-.65.217-1.328.22-1.328.22s.45 1.365.22 2.417c-.354 1.623-1.22 4.174-1.22 4.174s-.892-2.01-1.216-3.296c-.282-1.117-.22-2.525-.22-2.525s-1.44-.044-2.768-.22c-1.15-.15-2.214-.44-2.214-.44l.554 2.09s-.996-.417-1.77-1.1c-.718-.633-.887-1.538-.887-1.538l-1.328-.33s.634 1.646 2.324 3.405c7.022 6.17 5.72 6.89 5.033 12.96-.24 2.647-.844 5.093-1.31 6.296-.347.893-2.104 1.54-2.104 1.54s.542.437 2.767.437c1.052 0 4.006-.527 5.222-.624.686-.055 1.7.21 2.434.22.887.013 1.44-.22 1.44-.22s-2.7-.763-3.1-1.647c-.308-.682-.554-1.54-.554-1.54s-.787-3.057-.135-10.05c.79-5.865 4.7-9.02 4.7-9.02z"/><g fill="#3F6683"><path d="M530.91 225.002l-14.157 2.326c-.063.126-.102.266-.102.416v1.56c0 .49.385.893.868.933v5.604c0 .422.28.774.664.895 1.71 3.206 6.555 5.527 12.29 5.584v-11.68h.83v11.666c5.557-.16 10.216-2.442 11.887-5.573.382-.12.66-.472.66-.894v-1.646-.015-3.94c.507-.017.915-.43.915-.94v-1.558c0-.18-.053-.347-.142-.49l-13.712-2.25z"/><path d="M513.774 233.738c-3.583 0-6.26-.773-6.427-.822l.442-1.5c.235.07 5.828 1.683 11.586 0 5.356-1.564 7.273-.516 8.664.02l-.564 1.46c-1.086-.42-2.646-1.446-7.66.02-2.107.616-4.195.82-6.042.822zM542.42 232.917l-.438-1.5c5.357-1.566 12.585-.518 13.976.02l-.564 1.458c-1.086-.42-7.955-1.445-12.974.022zM539.98 220.334h-.217v-2.717c0-.346-.28-.627-.626-.627h-2.647v-4.49c0-.345-.28-.626-.627-.626h-.18c-.346 0-.624.28-.624.627v4.49h-12.264c-.347 0-.63.28-.63.627v2.716h-.325c-.52 0-.94.42-.94.94v4.53l10.01-1.644.068.01 9.942 1.634v-4.532c0-.52-.42-.938-.94-.938zm-9.736 1.598c0 .52-.42.94-.942.94h-5.23c-.522 0-.942-.423-.942-.94v-1.826c0-.52.42-.942.94-.942h5.232c.522 0 .942.422.942.942v1.826zm8.443 0c0 .52-.42.94-.94.94h-5.234c-.52 0-.94-.423-.94-.94v-1.826c0-.52.42-.942.94-.942h5.234c.52 0 .94.422.94.942v1.826z"/></g><path fill="#A0B6C9" d="M49.082 215.863H59.66l-3.206 17.475h11.123l-13.355 25 2.018-18.862-9.296.06"/><path fill="#B3C7D7" d="M154.97 127.473c.104.076.192.173.31.23.22.136.46.225.71.286.125.026.254.028.38.042l.096.008c.093 0 .075-.008.118-.01l.172-.03.345-.054c.12-.047.244-.106.364-.162.116-.062.25-.103.336-.198l.284-.253c.117-.104.2-.235.28-.37l.188.278c.16.138.317.28.482.407.19.086.38.18.575.255l.622.085.6-.094c.194-.077.39-.177.582-.27.162-.13.312-.272.467-.41l.227-.353.23.344c.157.133.31.272.47.396.188.084.373.176.562.25l.606.082.59-.093c.19-.077.378-.174.563-.262.156-.127.304-.267.454-.4l.265-.413c.03.048.063.096.093.145l.04.06.004.007c.07.102.145.2.23.292.2.193.428.35.687.467.144.05.3.1.442.13l.373.04c.28-.007.557-.056.822-.157.26-.11.495-.267.702-.46.196-.205.356-.435.474-.698.05-.146.1-.307.134-.45l.037-.327-.097-.01.003-.04v-.006h-.005l-.4.003-.502.006-.024.27c-.023.065-.045.113-.057.175-.06.14-.146.27-.25.387-.115.108-.24.197-.383.264-.146.058-.297.087-.456.1l-.28-.027c-.068-.025-.12-.047-.184-.06-.143-.063-.276-.15-.396-.256-.11-.117-.202-.247-.27-.393-.06-.15-.09-.304-.103-.467l-.033-.444-.407.003-.4.005-.418.005-.018.43c-.008.164-.033.32-.09.476-.065.15-.154.284-.263.41-.12.112-.254.206-.404.277l-.235.075c-.064.008-.205.015-.206.03l-.326-.028c-.074-.024-.132-.048-.203-.063-.15-.065-.292-.157-.418-.27-.116-.124-.212-.26-.285-.414-.062-.158-.095-.32-.106-.493l-.027-.38-.348.005-.4.005-.356.004-.015.366c-.008.172-.035.338-.094.5-.07.158-.162.3-.278.43-.126.12-.267.218-.424.292-.162.064-.33.097-.506.11l-.292-.028c-.08-.024-.145-.05-.22-.068-.16-.07-.308-.167-.44-.286-.122-.13-.223-.273-.3-.434-.065-.166-.1-.338-.11-.518l-.02-.313-.29.002-.4.005-.295.003-.01.302c-.007.18-.036.355-.098.525-.072.166-.17.315-.292.45-.133.126-.28.23-.446.308l-.26.083c-.077.01-.207.018-.243.033l-.326-.028-.24-.073c-.167-.074-.32-.175-.46-.3-.127-.134-.232-.285-.312-.455-.07-.173-.104-.354-.116-.542l-.016-.248-.19.002V123.547h-10.993v-9.94h-1.4v9.94h-4.193v-8.992h-3.812c.972-.74 1.652-1.84 1.652-3.146 0-1.165-.523-2.17-1.307-2.91l1.317-.864 10.1 6.62.766-1.175-10.865-7.11-2.614 1.715c-.152-.06-.28-.152-.443-.197-.217-3.23-2.515-5.86-5.494-5.87-2.29 0-4.202 1.594-5.04 3.79-2.126.118-3.818 1.878-3.818 4.04 0 1 .37 1.917.98 2.627-.616.705-.98 1.627-.98 2.624 0 2.238 1.814 4.043 4.04 4.043.458 0 .892-.074 1.296-.212.46.46.992.84 1.58 1.1v3.917h-6.92v1.4h34.63v7.068H169.817v-1.34H154.85v-3.325c.042.044.073.09.12.123zm-21.002-3.924h-4.188v-3.502c.163.025.336.034.5.034 1.656 0 3.057-.99 3.688-2.402v5.87zm-.82-9.544l-.59.247.275.587c.172.36.266.774.266 1.198 0 1.56-1.264 2.82-2.822 2.826-.346 0-.67-.07-.987-.183l-.822-.31v5.263h-1.627v-4.838l-.41-.148c-.66-.232-1.267-.666-1.76-1.238l-.3-.346-.425.193c-.36.172-.77.27-1.198.27-1.55-.01-2.81-1.262-2.81-2.825 0-.868.394-1.637 1.01-2.155l.552-.474-.553-.463c-.616-.523-1.01-1.297-1.01-2.16 0-1.56 1.26-2.816 2.824-2.82.02 0 .08.004.164.01l.48.03.137-.46c.633-2.012 2.23-3.374 4.026-3.37 2.288.006 4.286 2.23 4.29 5.11l-.023.593.306.04.255.03c.513.058.957.29 1.346.586.682.512 1.145 1.296 1.146 2.214 0 1.172-.715 2.173-1.737 2.592z"/></g><g><path opacity=".7" fill="#B3C7D7" d="M384.615 330.332c0 47.548-38.545 86.094-86.094 86.094s-86.093-38.546-86.093-86.094S298.52 185 298.52 185s86.095 97.784 86.095 145.332z"/><text transform="translate(241.15 319.42)" fill="#004261" font-family="'AvenirNext-Bold'" font-size="14.173">WATERGEBRUIK</text></g></svg>