<svg xmlns="http://www.w3.org/2000/svg" viewBox="0 0 559.6 633.9"><g><path fill="#00AEEF" d="M1199.3 79.2h34.7v27.7h-34.7z"/><path fill="#B3C7D7" d="M910.4 301.3l-71.3-98.1c21.7-15.7 44.5-23.2 71.3-23.2v121.3z"/><path fill="#00B5F1" d="M1199.3 120.8h34.7v27.7h-34.7z"/><path fill="#A0B6C9" d="M910.4 301.3L795 263.8c8.3-25.5 22.4-44.9 44.1-60.6l71.3 98.1z"/><path fill="#00BFF3" d="M1199.3 162.4h34.7v27.7h-34.7z"/><path fill="#8EA6BB" d="M910.4 301.3L795 338.7c-8.3-25.5-8.3-49.5 0-75l115.4 37.6z"/><path fill="#4CC9F5" d="M1199.3 204h34.7v27.7h-34.7z"/><path fill="#7D97AF" d="M910.4 301.3l-71.3 98.1c-21.7-15.8-35.8-35.2-44.1-60.6l115.4-37.5z"/><path fill="#68CEF6" d="M1201.1 246.7h34.7v27.7h-34.7z"/><path fill="#6D8AA3" d="M910.4 301.3v121.3c-26.8 0-49.6-7.4-71.3-23.2l71.3-98.1z"/><g><path fill="#7FD4F7" d="M1199.3 287.1h34.7v27.7h-34.7z"/><path fill="#5D7D98" d="M910.4 301.3l71.3 98.1c-21.7 15.7-44.5 23.2-71.3 23.2V301.3z"/></g><g><path fill="#A9E0FA" d="M1199.3 328.7h34.7v27.7h-34.7z"/><path fill="#4E718D" d="M910.4 301.3l115.4 37.5c-8.3 25.5-22.4 44.9-44.1 60.6l-71.3-98.1z"/></g><g><path fill="#BCE6FB" d="M1196.9 370.3h34.7V398h-34.7z"/><path fill="#3F6683" d="M910.4 301.3l115.4-37.5c8.3 25.5 8.3 49.5 0 75l-115.4-37.5z"/></g><g><path fill="#CFEDFC" d="M1199.3 411.9h34.7v27.7h-34.7z"/><path fill="#1A5371" d="M910.4 301.3l71.3-98.1c21.7 15.7 35.8 35.2 44.1 60.6l-115.4 37.5z"/></g><g><path fill="#E1F4FD" d="M1199.3 453.5h34.7v27.7h-34.7z"/><path fill="#004261" d="M910.4 301.3V180c26.8 0 49.6 7.4 71.3 23.2l-71.3 98.1z"/></g></g><g><text transform="translate(1238.278 97.954)"><tspan x="0" y="0" font-family="'AvenirNext-Bold'" font-size="12.995">Ene</tspan><tspan x="23.6" y="0" font-family="'AvenirNext-Bold'" font-size="12.995">r</tspan><tspan x="28.6" y="0" font-family="'AvenirNext-Bold'" font-size="12.995">gie</tspan></text><text transform="translate(1238.278 139.54)"><tspan x="0" y="0" font-family="'AvenirNext-Bold'" font-size="12.995">V</tspan><tspan x="8.6" y="0" font-family="'AvenirNext-Bold'" font-size="12.995">isserij</tspan></text><text transform="translate(1238.278 181.124)" font-family="'AvenirNext-Bold'" font-size="12.995">Militair</text><text transform="translate(1238.278 222.708)"><tspan x="0" y="0" font-family="'AvenirNext-Bold'" font-size="12.995">Eco</tspan><tspan x="22.6" y="0" font-family="'AvenirNext-Bold'" font-size="12.995">-</tspan><tspan x="26.7" y="0" font-family="'AvenirNext-Bold'" font-size="12.995">Services</tspan></text><text transform="translate(1238.278 264.293)"><tspan x="0" y="0" font-family="'AvenirNext-Bold'" font-size="12.995">R</tspan><tspan x="8.5" y="0" font-family="'AvenirNext-Bold'" font-size="12.995">ec</tspan><tspan x="22.7" y="0" font-family="'AvenirNext-Bold'" font-size="12.995">r</tspan><tspan x="27.7" y="0" font-family="'AvenirNext-Bold'" font-size="12.995">e</tspan><tspan x="35.3" y="0" font-family="'AvenirNext-Bold'" font-size="12.995">a</tspan><tspan x="42.5" y="0" font-family="'AvenirNext-Bold'" font-size="12.995">tie</tspan></text><text transform="translate(1238.278 305.878)" font-family="'AvenirNext-Bold'" font-size="12.995">Industrie</text><text transform="translate(1238.278 347.463)"><tspan x="0" y="0" font-family="'AvenirNext-Bold'" font-size="12.995">Irrig</tspan><tspan x="26.8" y="0" font-family="'AvenirNext-Bold'" font-size="12.995">a</tspan><tspan x="34" y="0" font-family="'AvenirNext-Bold'" font-size="12.995">tie</tspan></text><text transform="translate(1238.278 389.05)"><tspan x="0" y="0" font-family="'AvenirNext-Bold'" font-size="12.995">V</tspan><tspan x="8.3" y="0" font-family="'AvenirNext-Bold'" font-size="12.995">eiligheid</tspan></text><text transform="translate(1238.278 430.633)"><tspan x="0" y="0" font-family="'AvenirNext-Bold'" font-size="12.995" letter-spacing="-1">T</tspan><tspan x="6.4" y="0" font-family="'AvenirNext-Bold'" font-size="12.995">r</tspan><tspan x="11.3" y="0" font-family="'AvenirNext-Bold'" font-size="12.995">anspo</tspan><tspan x="49.6" y="0" font-family="'AvenirNext-Bold'" font-size="12.995">r</tspan><tspan x="54.6" y="0" font-family="'AvenirNext-Bold'" font-size="12.995">t</tspan></text><text transform="translate(1238.278 472.22)"><tspan x="0" y="0" font-family="'AvenirNext-Bold'" font-size="12.995">Drinkw</tspan><tspan x="46.1" y="0" font-family="'AvenirNext-Bold'" font-size="12.995">a</tspan><tspan x="53.3" y="0" font-family="'AvenirNext-Bold'" font-size="12.995">ter</tspan></text></g><circle fill="#FFF" cx="910.4" cy="301.3" r="89.9"/><g><path fill="#E1F4FD" d="M656.8 342.6h35.5v35.5h-35.5z"/><path fill="#C8DAE6" d="M656.8 306.9h35.5v35.5h-35.5z"/><path fill="#B3C7D7" d="M656.8 271.2h35.5v35.5h-35.5z"/><path fill="#A0B6C9" d="M656.8 235.4h35.5v35.5h-35.5z"/><path fill="#8EA6BB" d="M656.8 199.7h35.5v35.5h-35.5z"/><path fill="#7D97AF" d="M656.8 164h35.5v35.5h-35.5z"/><path fill="#6D8AA3" d="M656.8 128.2h35.5v35.5h-35.5z"/><path fill="#5D7D98" d="M656.8 92.5h35.5V128h-35.5z"/><path fill="#4E718D" d="M656.8 56.8h35.5v35.5h-35.5z"/><path fill="#3F6683" d="M656.8 21.1h35.5v35.5h-35.5z"/><path fill="#2E5C7A" d="M656.8-14.7h35.5v35.5h-35.5z"/><path fill="#1A5371" d="M656.8-50.4h35.5v35.5h-35.5z"/><path fill="#004A69" d="M656.8-86.1h35.5v35.5h-35.5z"/><path fill="#004261" d="M656.8-121.9h35.5v35.5h-35.5z"/></g><g><path fill="none" stroke="#D1D3D4" stroke-width=".709" stroke-linecap="round" stroke-linejoin="round" stroke-miterlimit="10" d="M176.1 432.7l207.4-290.6M110.5 344l338.6-113.2M109.5 233.7l340.6 107.4M173.6 143.9l212.4 287M278.3 108.9l3 357"/><path fill="none" stroke="#F15A22" stroke-width=".709" stroke-linecap="round" stroke-linejoin="round" stroke-miterlimit="10" d="M383.5 142.1L176.1 432.7"/><path fill="none" stroke="#D1D3D4" stroke-width=".709" stroke-linecap="round" stroke-linejoin="round" stroke-miterlimit="10" d="M449.1 230.8L110.5 344"/><path fill="none" stroke="#F15A22" stroke-width=".709" stroke-linecap="round" stroke-linejoin="round" stroke-miterlimit="10" d="M450.1 341.1L109.5 233.7"/><path fill="none" stroke="#D1D3D4" stroke-width=".709" stroke-miterlimit="10" d="M386 430.9l-212.4-287"/><path fill="none" stroke="#F15A22" stroke-width=".709" stroke-linecap="round" stroke-linejoin="round" stroke-miterlimit="10" d="M281.3 465.9l-3-357"/><path fill="none" stroke="#D1D3D4" stroke-width=".709" stroke-linecap="round" stroke-linejoin="round" stroke-miterlimit="10" d="M449.1 230.8c-113.9 31.1-204.9 98.4-273 202"/><path fill="none" stroke="#F15A22" stroke-width=".709" stroke-linecap="round" stroke-linejoin="round" stroke-miterlimit="10" d="M450.1 341.1c-110.4-41.8-223.6-40.8-339.6 2.9"/><path fill="none" stroke="#71AFAF" stroke-width=".709" stroke-linecap="round" stroke-linejoin="round" stroke-miterlimit="10" d="M386 430.9c-64.8-98.7-157-164.4-276.5-197.2"/><path fill="none" stroke="#F15A22" stroke-width=".709" stroke-linecap="round" stroke-linejoin="round" stroke-miterlimit="10" d="M281.3 465.9c5.6-118-30.3-225.3-107.7-322"/><path fill="none" stroke="#D1D3D4" stroke-width=".709" stroke-linecap="round" stroke-linejoin="round" stroke-miterlimit="10" d="M176.1 432.7c73.9-92.1 107.9-200 102.2-323.8M110.5 344c113.9-31.1 204.9-98.4 273-202M109.5 233.7c110.4 41.8 223.6 40.8 339.6-2.9"/><path fill="none" stroke="#71AFAF" stroke-width=".709" stroke-miterlimit="10" d="M173.6 143.9c64.8 98.7 156.9 164.5 276.4 197.2"/><path fill="none" stroke="#F15A22" stroke-width=".709" stroke-linecap="round" stroke-linejoin="round" stroke-miterlimit="10" d="M278.3 108.9c-5.6 118 30.3 225.3 107.7 322"/><path fill="none" stroke="#71AFAF" stroke-width=".709" stroke-linecap="round" stroke-linejoin="round" stroke-miterlimit="10" d="M383.5 142.1c-73.9 92.1-107.9 200.1-102.1 323.8M176.1 432.7c38-56.4 77.1-91.3 117.3-104.7 40.2-13.4 92.4-9.1 156.7 13.1"/><path fill="none" stroke="#D1D3D4" stroke-width=".709" stroke-linecap="round" stroke-linejoin="round" stroke-miterlimit="10" d="M110.5 344c63.9-23.3 116-28.5 156.4-15.8 40.4 12.7 80.1 47 119.1 102.7"/><path fill="none" stroke="#71AFAF" stroke-width=".709" stroke-linecap="round" stroke-linejoin="round" stroke-miterlimit="10" d="M109.5 233.7c65.3 18.7 110.6 45.1 135.8 79.2 25.2 34.1 37.2 85.1 36 153"/><path fill="none" stroke="#71AFAF" stroke-width=".709" stroke-miterlimit="10" d="M173.6 143.9c41.9 53.6 63 101.5 63.3 143.9.4 42.4-19.9 90.7-60.8 145"/><path fill="none" stroke="#F15A22" stroke-width=".709" stroke-linecap="round" stroke-linejoin="round" stroke-miterlimit="10" d="M278.3 108.9c2.4 67.9-8.7 119.1-33.3 153.6-24.6 34.5-69.4 61.7-134.4 81.5"/><path fill="none" stroke="#71AFAF" stroke-width=".709" stroke-linecap="round" stroke-linejoin="round" stroke-miterlimit="10" d="M383.5 142.1c-38 56.4-77.1 91.3-117.3 104.7-40.2 13.4-92.4 9.1-156.7-13.1"/><path fill="none" stroke="#F15A22" stroke-width=".709" stroke-linecap="round" stroke-linejoin="round" stroke-miterlimit="10" d="M449.1 230.8c-63.9 23.3-116 28.5-156.4 15.8-40.4-12.7-80.1-47-119.1-102.7"/><path fill="none" stroke="#71AFAF" stroke-width=".709" stroke-linecap="round" stroke-linejoin="round" stroke-miterlimit="10" d="M450.1 341.1c-65.3-18.7-110.6-45.1-135.8-79.2-25.2-34.1-37.2-85.1-36-153"/><path fill="none" stroke="#D1D3D4" stroke-width=".709" stroke-linecap="round" stroke-linejoin="round" stroke-miterlimit="10" d="M386 430.9c-41.9-53.6-63-101.5-63.3-143.9-.4-42.4 19.9-90.7 60.8-145"/><path fill="none" stroke="#D1D3D4" stroke-width=".709" stroke-miterlimit="10" d="M109.5 233.7c32.3 7.9 57.2-.7 69.6-18.1 12.4-17.4 12.5-43.7-5.5-71.7"/><path fill="none" stroke="#F15A22" stroke-width=".709" stroke-linecap="round" stroke-linejoin="round" stroke-miterlimit="10" d="M450.1 341.1c-59.6-15.4-86.7-51.5-95.8-78.6-9.1-27.1-9.1-72.2 29.2-120.4"/><path fill="none" stroke="#F15A22" stroke-width=".709" stroke-linecap="round" stroke-linejoin="round" stroke-miterlimit="10" d="M383.5 142.1c-33.1 51.9-75.8 66.5-104.4 66.8-28.6.2-71.5-13.7-105.5-65"/><path fill="none" stroke="#D1D3D4" stroke-width=".709" stroke-linecap="round" stroke-linejoin="round" stroke-miterlimit="10" d="M173.6 143.9c39.1 47.5 39.9 92.6 31.3 119.9-8.6 27.2-35.1 63.8-94.4 80.3"/><path fill="none" stroke="#71AFAF" stroke-width=".709" stroke-linecap="round" stroke-linejoin="round" stroke-miterlimit="10" d="M110.5 344c57.3-22.5 100.4-9.3 123.7 7.3 23.3 16.6 49.8 53.1 47.2 114.6"/><path fill="none" stroke="#F15A22" stroke-width=".709" stroke-linecap="round" stroke-linejoin="round" stroke-miterlimit="10" d="M281.3 465.9c-3.7-61.4 22.2-98.4 45.2-115.4 23-17 65.9-31 123.5-9.5"/><path fill="none" stroke="#F15A22" stroke-width=".709" stroke-linecap="round" stroke-linejoin="round" stroke-miterlimit="10" d="M176.1 432.7c33.1-51.9 75.8-66.5 104.4-66.8 28.6-.2 71.5 13.7 105.5 65"/><path fill="none" stroke="#D1D3D4" stroke-width=".709" stroke-linecap="round" stroke-linejoin="round" stroke-miterlimit="10" d="M109.5 233.7c59.6 15.4 86.7 51.5 95.8 78.6 9.1 27.1 9.1 72.2-29.2 120.4"/><path fill="none" stroke="#D1D3D4" stroke-width=".709" stroke-linecap="round" stroke-linejoin="round" stroke-miterlimit="10" d="M278.3 108.9c3.7 61.4-22.2 98.4-45.2 115.4-23 17-65.9 31-123.5 9.5"/><path fill="none" stroke="#71AFAF" stroke-width=".709" stroke-linecap="round" stroke-linejoin="round" stroke-miterlimit="10" d="M449.1 230.8c-57.3 22.5-100.4 9.3-123.7-7.3-23.3-16.6-49.8-53.1-47.2-114.6"/><path fill="none" stroke="#D1D3D4" stroke-width=".709" stroke-linecap="round" stroke-linejoin="round" stroke-miterlimit="10" d="M386 430.9c-39.1-47.5-39.9-92.6-31.3-119.9 8.6-27.2 35.1-63.8 94.4-80.3"/><path fill="none" stroke="#F15A22" stroke-width=".709" stroke-miterlimit="10" d="M383.5 142.1c-17.5 28.3-17 54.6-4.3 71.8 12.7 17.2 37.7 25.4 69.9 16.9"/><path fill="none" stroke="#D1D3D4" stroke-width=".709" stroke-miterlimit="10" d="M278.3 108.9c2.5 33.2 18.3 54.2 38.7 60.6 20.4 6.4 45.4-1.7 66.5-27.4"/><path fill="none" stroke="#71AFAF" stroke-width=".709" stroke-miterlimit="10" d="M173.6 143.9c21.5 25.4 46.6 33.1 67 26.3 20.3-6.8 35.8-28.1 37.7-61.3"/><path fill="none" stroke="#71AFAF" stroke-width=".709" stroke-miterlimit="10" d="M109.5 233.7c32.3 7.9 57.2-.7 69.6-18.1 12.4-17.4 12.5-43.7-5.5-71.7"/><path fill="none" stroke="#F15A22" stroke-width=".709" stroke-miterlimit="10" d="M176.1 432.7c17.5-28.3 17-54.6 4.3-71.8-12.7-17.2-37.7-25.4-69.9-16.9M450.1 341.1c-32.3-7.9-57.2.7-69.6 18.1-12.4 17.4-12.5 43.7 5.5 71.7"/><path fill="none" stroke="#D1D3D4" stroke-width=".709" stroke-linecap="round" stroke-linejoin="round" stroke-miterlimit="10" d="M281.3 465.9c-2.4-67.9 8.7-119.1 33.3-153.6 24.6-34.5 69.4-61.7 134.4-81.5"/><path fill="none" stroke="#F15A22" stroke-width=".709" stroke-miterlimit="10" d="M281.3 465.9c-2.5-33.2-18.3-54.2-38.7-60.6-20.4-6.4-45.4 1.7-66.5 27.4"/><path fill="none" stroke="#D1D3D4" stroke-width=".709" stroke-miterlimit="10" d="M386 430.9c-21.5-25.4-46.6-33.1-67-26.3-20.3 6.8-35.8 28.1-37.7 61.3"/><path fill="none" stroke="#71AFAF" stroke-width=".709" stroke-miterlimit="10" d="M110.5 344c30.8-12.6 45.9-34.1 45.7-55.6-.2-21.4-15.6-42.7-46.6-54.8M449.1 230.8c-30.8 12.6-45.9 34.1-45.7 55.6.2 21.4 15.6 42.7 46.6 54.8"/><text transform="translate(65.582 577.064)" font-family="'AvenirNext-Regular'" font-size="12">SYNERGIE</text><text transform="translate(65.582 601.985)" font-family="'AvenirNext-Regular'" font-size="12">BELANGEN CONFLICT</text><text transform="translate(65.582 626.906)" font-family="'AvenirNext-Regular'" font-size="12">NEUTRAAL</text></g><g><path fill="none" stroke="#B3C7D7" stroke-width=".283" stroke-miterlimit="10" d="M937.2 387.3c.1-14.8-11.9-26.8-26.7-26.9-14.8-.1-26.8 11.9-26.9 26.7"/><path fill="none" stroke="#B3C7D7" stroke-width=".283" stroke-miterlimit="10" d="M882.2 385.8c8.7-11.9 6.2-28.7-5.8-37.5-11.9-8.7-28.7-6.2-37.5 5.8"/><path fill="none" stroke="#B3C7D7" stroke-width=".283" stroke-miterlimit="10" d="M838.7 352.3c14.1-4.5 21.9-19.6 17.3-33.7-4.5-14.1-19.6-21.9-33.7-17.3"/><path fill="none" stroke="#B3C7D7" stroke-width=".283" stroke-miterlimit="10" d="M823.1 299.6c14.1 4.6 29.2-3 33.8-17.1 4.6-14.1-3-29.2-17.1-33.8"/><path fill="none" stroke="#B3C7D7" stroke-width=".283" stroke-miterlimit="10" d="M841.5 247.8c8.7 12 25.4 14.7 37.4 6.1 12-8.7 14.7-25.4 6.1-37.4"/><path fill="none" stroke="#B3C7D7" stroke-width=".283" stroke-miterlimit="10" d="M886.8 216.8c-.1 14.8 11.9 26.8 26.7 26.9 14.8.1 26.8-11.9 26.9-26.7"/><path fill="none" stroke="#B3C7D7" stroke-width=".283" stroke-miterlimit="10" d="M941.7 218.2c-8.7 11.9-6.2 28.7 5.8 37.5 11.9 8.7 28.7 6.2 37.5-5.8"/><path fill="none" stroke="#B3C7D7" stroke-width=".283" stroke-miterlimit="10" d="M985.3 251.7c-14.1 4.5-21.9 19.6-17.3 33.7 4.5 14.1 19.6 21.9 33.7 17.3"/><path fill="none" stroke="#B3C7D7" stroke-width=".283" stroke-miterlimit="10" d="M1000.9 304.4c-14.1-4.6-29.2 3-33.8 17.1-4.6 14.1 3 29.2 17.1 33.8"/><path fill="none" stroke="#B3C7D7" stroke-width=".283" stroke-miterlimit="10" d="M982.5 356.2c-8.7-12-25.4-14.7-37.4-6.1-12 8.7-14.7 25.4-6.1 37.4"/><path fill="none" stroke="#B3C7D7" stroke-width=".283" stroke-miterlimit="10" d="M937.2 387.3c.1-14.8-11.9-26.8-26.7-26.9-14.8-.1-26.8 11.9-26.9 26.7"/><g><path fill="#4E718D" d="M494 285.6c.4 46.4-12.9 88.5-39.8 126.3l-29.1-20.7c22.5-31.5 33.5-66.6 33.2-105.2l35.7-.4z"/><path fill="#3F6683" d="M494 285.6l-35.7.3c-.3-38.7-12-73.6-35-104.6L452 160c27.6 37.3 41.6 79.2 42 125.6z"/><path fill="#5D7D98" d="M425.1 391.1l29.1 20.7c-27 37.8-62.4 64-106.4 78.8l-11.3-33.9c36.6-12.3 66.2-34.1 88.6-65.6z"/><path fill="#1A5371" d="M452 160l-28.7 21.2c-23-31.1-52.9-52.4-89.8-64.1L344.2 83c44.3 14.1 80.2 39.7 107.8 77z"/><path fill="#6D8AA3" d="M336.4 456.7l11.3 33.9c-21.5 7.2-43.5 10.9-66.1 11.1-22.6.2-44.7-3.1-66.3-9.9l10.7-34.1c18 5.7 36.4 8.4 55.2 8.3 19-.2 37.4-3.3 55.2-9.3z"/><path fill="#004261" d="M344.2 83.1l-10.7 34.1c-18-5.7-36.4-8.4-55.2-8.3-18.9.2-37.2 3.2-55.1 9.2l-11.3-33.9c21.4-7.2 43.5-10.9 66.1-11.1 22.6-.1 44.7 3.2 66.2 10z"/><path fill="#7D97AF" d="M226.1 457.7l-10.7 34.1c-44.2-14-80.2-39.6-107.8-76.9l28.7-21.2c23 31 52.9 52.3 89.8 64z"/><path fill="#B3C7D7" d="M211.8 84.2l11.3 33.9c-36.7 12.3-66.2 34.1-88.7 65.6l-29-20.7c27-37.8 62.4-64 106.4-78.8z"/><path fill="#8EA6BB" d="M136.3 393.6l-28.7 21.2C80 377.5 66 335.7 65.6 289.3l35.7-.3c.3 38.6 12 73.5 35 104.6z"/><path fill="#A0B6C9" d="M105.4 163l29.1 20.7c-22.5 31.5-33.5 66.6-33.2 105.2l-35.7.3c-.4-46.3 12.9-88.4 39.8-126.2z"/><g fill="none" stroke="#004261" stroke-miterlimit="10"><path d="M223.2 118.1c17.9-6 36.2-9 55.1-9.2M278.3 108.9c18.9-.2 37.3 2.6 55.2 8.3M344.2 83.1c-21.6-6.8-43.7-10.1-66.3-9.9M277.9 73.2c-22.6.2-44.7 3.9-66.1 11.1M134.5 183.7c22.5-31.5 52-53.4 88.7-65.6M223.2 118.1l-11.4-33.9M211.8 84.2c-44 14.7-79.5 41-106.4 78.8M101.3 288.9c-.3-38.7 10.7-73.7 33.2-105.2M134.5 183.7L105.4 163M105.4 163c-27 37.8-40.2 79.9-39.8 126.3M65.6 289.3c.4 46.4 14.4 88.3 42 125.6M136.3 393.6c-23-31.1-34.7-66-35-104.6M101.3 288.9l-35.7.4M226.1 457.7c-36.9-11.6-66.8-33-89.8-64.1M136.3 393.6l-28.7 21.2M107.6 414.8c27.6 37.3 63.5 62.9 107.8 76.9M336.4 456.7c-17.9 6-36.2 9-55.1 9.2-18.9.2-37.3-2.6-55.2-8.3M226.1 457.7l-10.7 34M215.4 491.7c21.6 6.8 43.7 10.1 66.3 9.9 22.6-.2 44.6-3.9 66.1-11.1M425.1 391.1c-22.5 31.5-52 53.4-88.7 65.6M336.4 456.7l11.4 33.9M347.8 490.6c44-14.7 79.5-41 106.4-78.8M458.3 285.9c.3 38.7-10.7 73.7-33.2 105.2M425.1 391.1l29.1 20.7M454.2 411.8C481.1 374 494.4 332 494 285.6M423.3 181.2c23 31.1 34.7 66 35 104.6M458.3 285.9l35.7-.3M494 285.6c-.4-46.4-14.4-88.3-42-125.6M452 160c-27.6-37.3-63.5-62.9-107.8-76.9M344.2 83.1l-10.7 34.1M333.5 117.2c36.9 11.6 66.8 33 89.8 64.1M423.3 181.2L452 160"/></g></g></g><g><text transform="translate(889.477 297.42)"><tspan x="0" y="0" fill="#00AEEF" font-family="'AvenirNext-Bold'" font-size="12">LIQUID </tspan><tspan x="-11.4" y="14.4" fill="#00AEEF" font-family="'AvenirNext-Bold'" font-size="12">COMMONS</tspan></text><text transform="rotate(36 -84.726 1787.18)"><tspan x="0" y="0" fill="#00AEEF" font-family="'AvenirNext-Bold'" font-size="12">ECO</tspan><tspan x="-13.3" y="14.4" fill="#00AEEF" font-family="'AvenirNext-Bold'" font-size="12">HABITAT</tspan></text><text transform="rotate(72 181.528 870.647)" fill="#00AEEF" font-family="'AvenirNext-Bold'" font-size="12">RECREATIE</text><text transform="rotate(-72 758.293 -334.84)" fill="#00AEEF" font-family="'AvenirNext-Bold'" font-size="12">INDUSTRIE</text><text transform="rotate(-36 1010.35 -944.876)" fill="#00AEEF" font-family="'AvenirNext-Bold'" font-size="12">IRRIGATIE</text><text transform="translate(710.858 297.912)" fill="#00AEEF" font-family="'AvenirNext-Bold'" font-size="12">VEILIGHEID</text><text transform="rotate(36 96.902 1245.74)" fill="#00AEEF" font-family="'AvenirNext-Bold'" font-size="12">TRANSPORT</text><text transform="rotate(72 341.847 654.833)"><tspan x="0" y="0" fill="#00AEEF" font-family="'AvenirNext-Bold'" font-size="12">DRINK</tspan><tspan x="-2.1" y="14.4" fill="#00AEEF" font-family="'AvenirNext-Bold'" font-size="12">WATER</tspan></text><text transform="rotate(-72 592.887 -567.36)" fill="#00AEEF" font-family="'AvenirNext-Bold'" font-size="12">ENERGIE</text><text transform="rotate(-36 848.986 -1459.566)" fill="#00AEEF" font-family="'AvenirNext-Bold'" font-size="12">VISSERIJ</text><text transform="translate(1044.204 301.266)" fill="#00AEEF" font-family="'AvenirNext-Bold'" font-size="12">MILITAIRE</text><path fill="none" stroke="#F15A22" stroke-width="1.417" stroke-miterlimit="10" d="M0 598h52.9"/><path fill="none" stroke="#BCBEC0" stroke-width="1.417" stroke-miterlimit="10" d="M0 622.9h52.9"/><path fill="none" stroke="#71AFAF" stroke-width="1.417" stroke-miterlimit="10" d="M0 573.1h52.9"/><g fill="#FFF"><path d="M240.2 91.2l2.8-.5c.5-.1 1.1-.1 1.6 0 .6.1 1.1.3 1.6.6s.9.7 1.2 1.1.6 1.1.7 1.8c.1.7.1 1.3-.1 1.9s-.4 1.1-.8 1.5c-.4.4-.8.8-1.3 1-.5.3-1 .4-1.5.5l-2.8.5-1.4-8.4zm2.2 7.5l1.7-.3c.6-.1 1.2-.3 1.6-.6.4-.3.8-.6 1-1 .3-.4.4-.8.5-1.2.1-.4.1-.9 0-1.3s-.2-.8-.4-1.2c-.2-.4-.5-.7-.9-1s-.8-.5-1.3-.6c-.5-.1-1.1-.1-1.7 0l-1.7.3 1.2 6.9zM251.6 98l-.9.1-1-8.4 2.5-.3c.4-.1.8-.1 1.2 0 .4 0 .7.1 1 .3.3.1.5.4.7.6.2.3.3.6.3 1 0 .3 0 .6-.1.9-.1.3-.2.5-.4.7-.2.2-.4.4-.6.5-.2.1-.5.2-.8.3l3 3.7-1 .1-2.8-3.7-1.4.2.3 4zm-.6-4.6l1.5-.2c.7-.1 1.2-.3 1.5-.6s.5-.7.4-1.2c0-.3-.1-.5-.2-.7-.1-.2-.3-.3-.5-.4-.2-.1-.4-.2-.7-.2h-.9l-1.5.2.4 3.1zM258.9 97.2l-.9.1-.8-8.5.9-.1.8 8.5zM267.3 95.4l-.4-7.2.9-.1.5 8.5-1.1.1-5.4-7 .4 7.3-.9.1-.5-8.5 1.1-.1 5.4 6.9zM271.4 91.8l4-3.9h1.2l-4.2 3.9 4.6 4.6h-1.3l-4.3-4.5.1 4.5h-.9l-.1-8.5h.9v3.9zM280.4 95.2l2.4-7.2h1l1.9 7.4 2.3-7.2h.9l-2.8 8.4h-1l-1.9-7.4-2.4 7.2h-1l-2.2-8.6h.9l1.9 7.4zM289.9 96.9l-.9-.1 4.4-8.2.8.1 2.9 8.8-1-.1-.7-2.3-4.4-.4-1.1 2.2zm1.5-3l3.7.3-1.5-4.7-2.2 4.4zM300.5 97.9l-.9-.1.9-7.7-2.8-.3.1-.8 6.5.8-.1.8-2.8-.3-.9 7.6zM305.7 97.8l4.5.7-.1.8-5.3-.9 1.3-8.4 5.2.8-.1.8-4.3-.7-.5 2.9 4.1.7-.1.8-4.1-.7-.6 3.2zM312.8 99.8l-.8-.2 1.7-8.3 2.4.5c.4.1.8.2 1.1.3.3.1.6.3.8.6.2.2.4.5.5.8.1.3.1.7 0 1.1-.1.3-.2.6-.3.8l-.6.6s-.5.2-.8.3-.6.1-.9 0l1.6 4.5-1-.2-1.5-4.4-1.4-.3-.8 3.9zm.9-4.6l1.5.3c.7.1 1.2.1 1.7-.1.4-.2.7-.5.8-1 .1-.3 0-.5 0-.7-.1-.2-.2-.4-.3-.5-.2-.2-.4-.3-.6-.4-.2-.1-.5-.2-.8-.3l-1.5-.3-.8 3zM362.5 115.7l3.5 1.8-.3.7-4.3-2.2 3.8-7.6.8.4-3.5 6.9zM376.1 119.1c-.3.6-.7 1-1.2 1.4-.5.4-1 .6-1.5.8-.5.2-1.1.2-1.7.1-.6-.1-1.1-.3-1.7-.6-.6-.3-1-.7-1.4-1.1-.4-.5-.6-1-.8-1.5-.2-.5-.2-1.1-.1-1.7s.3-1.2.6-1.7.7-1 1.2-1.4c.5-.4 1-.6 1.5-.8.5-.2 1.1-.2 1.7-.1.6.1 1.1.3 1.7.6.6.3 1 .7 1.4 1.1.4.5.6 1 .8 1.5.2.5.2 1.1.1 1.7-.1.5-.3 1.1-.6 1.7zm-.8-.5c.2-.4.4-.9.5-1.4.1-.5.1-.9 0-1.4-.1-.4-.3-.9-.6-1.2-.3-.4-.7-.7-1.1-1-.5-.3-1-.4-1.4-.5-.5 0-.9 0-1.4.2-.4.1-.8.4-1.2.7-.4.3-.7.7-.9 1.1-.2.4-.4.9-.5 1.4-.1.5-.1.9 0 1.4.1.4.3.9.6 1.2.3.4.7.7 1.1 1 .5.3 1 .4 1.4.5.5 0 .9 0 1.4-.2.4-.1.8-.4 1.2-.7.3-.3.6-.6.9-1.1zM384.8 121.3c-.1-.4-.3-.8-.5-1.2-.3-.4-.6-.7-1.1-1-.5-.3-.9-.5-1.4-.5-.5-.1-.9 0-1.4.1-.4.1-.8.3-1.2.6-.4.3-.7.6-1 1.1-.3.4-.4.9-.5 1.3-.1.5-.1.9 0 1.4.1.4.3.9.5 1.3.3.4.6.7 1.1 1 .4.3.8.4 1.2.6s.7.2 1 .2l1.4-2.2-1.7-1 .4-.7 2.4 1.5-2 3.3c-.5 0-1.1-.1-1.6-.3-.5-.2-1-.4-1.5-.7-.5-.3-1-.7-1.3-1.2-.3-.5-.6-1-.7-1.5-.1-.5-.1-1.1 0-1.7s.3-1.1.7-1.7.8-1 1.2-1.3c.5-.3 1-.6 1.5-.7.5-.1 1.1-.1 1.7 0 .6.1 1.1.3 1.7.6.6.4 1 .8 1.3 1.2s.5.9.6 1.4l-.8.1zM384.4 129.4l-.7-.5 4.7-7 .7.5-4.7 7zM393.9 127.3c0-.3-.1-.6-.2-.9-.1-.3-.4-.6-.7-.8l-.6-.3c-.2-.1-.4-.1-.6-.1-.2 0-.4.1-.6.2-.2.1-.4.3-.5.5-.2.2-.2.4-.3.6 0 .2 0 .4.1.6l.3.6c.1.2.3.4.4.6.2.2.4.5.5.8.2.3.3.5.4.8s.1.6.1.9c0 .3-.2.6-.4 1-.2.3-.5.6-.8.8-.3.2-.6.2-1 .3-.3 0-.7 0-1-.2-.3-.1-.6-.3-.9-.5-.2-.1-.4-.3-.6-.5-.2-.2-.3-.4-.5-.6-.1-.2-.2-.5-.3-.7-.1-.2-.1-.5-.1-.8h.9c0 .4 0 .7.2 1.1.2.4.4.7.8.9l.6.3c.2.1.4.1.7.1.2 0 .4-.1.7-.2.2-.1.4-.3.6-.5.2-.2.3-.5.3-.7 0-.2 0-.5-.1-.7-.1-.2-.2-.4-.3-.7-.2-.2-.3-.4-.5-.7-.2-.2-.3-.5-.5-.7-.2-.2-.3-.5-.3-.8s-.1-.6 0-.8c0-.3.2-.6.4-.9.2-.3.5-.6.8-.7s.6-.2.9-.2c.3 0 .6.1 1 .2.3.1.6.3.8.4.5.3.8.7 1 1.1.2.4.3.8.3 1.1l-1 .1zM394 136.4l-.7-.5 4.7-6.1-2.3-1.7.5-.6 5.2 4-.4.5-2.3-1.7-4.7 6.1zM398.1 139.6l-.7-.5 5.4-6.6.7.5-5.4 6.6zM401.1 141.1l3.4 3-.5.6-4.1-3.5 5.5-6.4 4 3.4-.5.6-3.3-2.9-1.9 2.2 3.1 2.7-.5.6-3.1-2.7-2.1 2.4zM409.3 143h5.6l.9.8-5.8-.1.2 6.5-.9-.9v-6.2l-3.1 3.3-.6-.6 5.8-6.2.6.6-2.7 2.8zM449 203.5l-.4-.8 6.9-3.4-1.3-2.5.7-.3 2.9 5.9-.7.3-1.3-2.5-6.8 3.3zM458 212.9c-.6.3-1.2.4-1.8.4-.6 0-1.1-.1-1.7-.3-.5-.2-1-.5-1.4-.9-.4-.4-.8-.9-1-1.5-.3-.6-.4-1.2-.4-1.7s.1-1.1.3-1.7c.2-.5.5-1 .9-1.4.4-.4.9-.8 1.5-1 .6-.3 1.2-.4 1.8-.4.6 0 1.1.1 1.7.3.5.2 1 .5 1.4.9s.8.9 1 1.5c.3.6.4 1.2.4 1.7 0 .6-.1 1.1-.3 1.7-.2.5-.5 1-.9 1.4-.4.4-.9.7-1.5 1zm-.4-.8c.5-.2.9-.5 1.2-.8.3-.3.6-.7.8-1.1.2-.4.3-.9.3-1.3 0-.5-.1-1-.3-1.5-.2-.5-.5-.9-.9-1.2-.4-.3-.8-.5-1.2-.7-.4-.1-.9-.2-1.4-.2-.5 0-.9.2-1.4.4-.5.2-.9.5-1.2.8s-.6.7-.8 1.1c-.2.4-.3.9-.3 1.3 0 .5.1 1 .3 1.5.2.5.5.9.9 1.2.4.3.8.5 1.2.7.4.1.9.2 1.4.2s1-.2 1.4-.4zM455.7 219.4c-.2-.6-.3-1.1-.3-1.6.1-.5.2-.9.4-1.2.2-.3.5-.6.8-.9.3-.2.7-.4 1-.5l5-1.9.3.8-4.9 1.9c-.3.1-.6.3-.9.5s-.5.4-.7.7c-.2.3-.3.6-.3.9 0 .3 0 .7.2 1.1s.4.7.6.9c.3.2.5.4.8.4.3.1.6.1.9.1.3 0 .7-.1 1-.2l4.9-1.9.3.8-5 1.9c-.3.1-.7.2-1.1.3-.4.1-.8 0-1.2-.1-.4-.1-.8-.3-1.1-.6s-.4-.8-.7-1.4zM458.2 225.4l-.3-.8 8-2.7.8 2.4c.1.4.2.8.3 1.1 0 .4 0 .7-.1 1-.1.3-.2.6-.5.8-.2.2-.5.4-.9.5-.3.1-.6.1-.9.1s-.5-.1-.8-.2c-.2-.1-.5-.3-.6-.5-.2-.2-.4-.5-.5-.7l-3 3.7-.3-1 3-3.5-.5-1.4-3.7 1.2zm4.4-1.5l.5 1.4c.2.7.5 1.1.9 1.4.4.3.8.3 1.3.2.3-.1.5-.2.6-.4.1-.2.3-.3.3-.6.1-.2.1-.5 0-.7 0-.3-.1-.6-.2-.9l-.5-1.5-2.9 1.1zM460.4 232.4l-.3-.8 8.1-2.5.3.8-8.1 2.5zM469.1 236.8c.2-.2.3-.5.4-.8.1-.3.1-.7-.1-1.1-.1-.2-.1-.4-.3-.6-.1-.2-.3-.4-.4-.5l-.6-.3c-.2-.1-.5 0-.7 0-.3.1-.5.2-.6.3-.1.1-.2.3-.3.5-.1.2-.1.4-.1.6v.7c0 .3 0 .6-.1.9 0 .3-.1.6-.2.9-.1.3-.3.5-.5.7-.2.2-.5.4-1 .5-.4.1-.8.1-1.1.1-.3-.1-.6-.2-.9-.4-.3-.2-.5-.4-.7-.7-.2-.3-.3-.6-.4-.9-.1-.2-.1-.5-.1-.8v-.8c0-.3.1-.5.2-.7.1-.2.2-.5.4-.7l.7.6c-.2.3-.4.6-.5 1-.1.4-.1.8 0 1.2l.3.6c.1.2.3.4.5.5l.6.3c.2.1.5 0 .7 0 .3-.1.5-.2.7-.4.2-.2.3-.4.3-.6.1-.2.1-.5.1-.7v-.8c0-.3 0-.6.1-.9 0-.3.1-.6.2-.8.1-.3.3-.5.5-.7.2-.2.5-.3.9-.5.4-.1.8-.1 1.1 0 .3.1.6.2.9.4s.5.4.6.7c.2.3.3.6.4.9.2.6.2 1.1.1 1.5-.1.4-.2.8-.5 1.1l-.6-.3zM465.4 245.2l7.5 1.2.3 1.3-8.3 1.9-.2-.8 7.2-1.6-7.9-1.3-.1-.4 6.5-4.6-7.2 1.6-.2-.8 8.3-1.9.3 1.3-6.2 4.1zM466.2 252.6l.8 4.5-.8.1-1-5.3 8.4-1.5.9 5.2-.8.1-.8-4.3-2.9.5.7 4.1-.8.1-.7-4.1-3 .6zM87.9 249.9l.9-4.4.8.2-1.1 5.3-8.3-1.8 1.1-5.2.8.2-.9 4.3 2.9.6.9-4 .8.2-.9 4 3 .6zM90.3 237.6l-7-1.8.2-.8 8.2 2.1-.3 1-8.3 3 7.1 1.8-.2.8-8.2-2.1.3-1 8.2-3zM91.9 233.7l1.3-4.4.7.2-1.6 5.2-8.1-2.5 1.5-5 .7.2-1.3 4.2 2.8.8 1.2-3.9.7.2-1.2 3.9 3.3 1.1zM94.8 227l-.3.8-8-2.8.8-2.4c.1-.4.3-.7.5-1.1.2-.3.4-.6.7-.7.3-.2.5-.3.9-.3.3 0 .7 0 1.1.1.3.1.5.2.8.4.2.2.4.4.5.6.1.2.2.5.2.8s0 .6-.1.9l4.6-1-.3 1-4.5.9-.5 1.4 3.6 1.4zm-4.4-1.5l.5-1.4c.2-.7.3-1.2.2-1.6-.1-.4-.4-.7-.9-.9-.3-.1-.5-.1-.7-.1-.2 0-.4.1-.6.3-.2.1-.3.3-.5.5-.1.2-.3.5-.4.8l-.5 1.5 2.9.9zM92.9 212.3c-.4.2-.8.4-1.1.7s-.6.7-.8 1.2c-.2.5-.3 1-.3 1.5s.1.9.3 1.3c.2.4.5.8.8 1.1.4.3.8.6 1.2.7.5.2.9.3 1.4.3.5 0 .9-.1 1.3-.2.4-.2.8-.4 1.2-.7.3-.3.6-.8.8-1.3.2-.4.3-.9.3-1.3.1-.4 0-.8 0-1l-2.4-.9-.7 1.8-.7-.3 1-2.6L99 214c.1.5.1 1.1 0 1.6s-.2 1.1-.4 1.6c-.2.6-.6 1.1-1 1.5-.4.4-.9.7-1.4 1-.5.2-1.1.3-1.6.3-.6 0-1.2-.1-1.8-.4-.6-.2-1.1-.6-1.5-1-.4-.4-.7-.9-1-1.4s-.3-1.1-.3-1.6.1-1.2.3-1.8c.2-.6.6-1.1.9-1.5.4-.4.8-.7 1.3-.9l.4.9zM100.9 211.3l-.3.8-7.8-3.4.3-.8 7.8 3.4zM101.5 207.9l1.9-4.1.7.3-2.3 4.9-7.7-3.6 2.2-4.8.7.3-1.9 4 2.6 1.2 1.7-3.7.7.3-1.7 3.7 3.1 1.5zM151.2 141.5l-3-7 .8-.7 6.3 4.3-3.1-7 .7-.6 3.5 8.1-.8.6-6.3-4.3 3 7-.8.6-7.4-4.9.7-.6 6.4 4.5zM163.6 128c.4.5.6 1.1.8 1.6s.2 1.1.1 1.7-.3 1.1-.6 1.6-.7.9-1.2 1.3-1 .6-1.6.8-1.1.2-1.7.1c-.6-.1-1.1-.3-1.6-.6s-.9-.7-1.3-1.2-.6-1.1-.8-1.6c-.1-.6-.2-1.1-.1-1.7.1-.6.3-1.1.6-1.6s.7-.9 1.2-1.3 1-.6 1.6-.8c.6-.1 1.1-.2 1.7-.1.6.1 1.1.3 1.6.6s1 .7 1.3 1.2zm-.7.5c-.3-.4-.6-.7-1-1-.4-.3-.8-.4-1.3-.5-.4-.1-.9-.1-1.4 0-.5.1-.9.3-1.4.6-.4.3-.8.7-1 1.1-.2.4-.4.9-.4 1.3 0 .5 0 .9.1 1.4.1.5.4.9.6 1.3.3.4.6.7 1 1 .4.3.8.4 1.3.5.4.1.9.1 1.4 0 .5-.1.9-.3 1.4-.6s.8-.7 1-1.1c.2-.4.4-.9.4-1.3 0-.5 0-.9-.1-1.4s-.3-.9-.6-1.3zM172.1 125.9l-4-6 .7-.5 4.7 7.1-.9.6-8.2-3.4 4 6.1-.7.5-4.7-7.1.9-.6 8.2 3.3zM175.9 124.1l3.9-2.4.4.7-4.6 2.8-4.4-7.3 4.5-2.7.4.7-3.8 2.3 1.5 2.5 3.5-2.1.4.7-3.5 2.1 1.7 2.7zM186.5 117.5l-3.5-6.4.8-.4 4.1 7.5-.9.5-7.8-4 3.5 6.4-.8.4-4.1-7.5.9-.5 7.8 4z"/></g><g fill="#FFF"><path d="M82.3 318l-.1-.9 8.8-1.5.4 2.6c.1.4.1.8.1 1.2 0 .4-.1.7-.2 1-.1.3-.4.5-.6.8-.3.2-.6.3-1.1.4-.3.1-.6 0-.9 0-.3-.1-.5-.2-.8-.4l-.6-.6c-.2-.3-.3-.5-.4-.9l-3.8 3.3-.1-1 3.7-3.1-.2-1.5-4.2.6zm4.9-.8l.3 1.6c.1.7.3 1.3.7 1.6.3.3.8.5 1.3.4.3 0 .5-.1.7-.3.2-.1.3-.3.4-.5.1-.2.1-.5.2-.7 0-.3 0-.6-.1-.9l-.3-1.6-3.2.4zM83.7 325.9l-.2-.9 8.8-1.7.2.9-8.8 1.7zM90.6 336.2c-.7.2-1.3.2-1.9.1-.6-.1-1.2-.3-1.7-.6s-.9-.7-1.3-1.2-.6-1.1-.8-1.7c-.2-.6-.2-1.3-.1-1.9.1-.6.3-1.2.6-1.7s.7-.9 1.2-1.3 1.1-.6 1.8-.8c.7-.2 1.3-.2 1.9-.1.6.1 1.2.3 1.7.6s.9.7 1.3 1.2.6 1.1.8 1.7c.2.6.2 1.3.1 1.9-.1.6-.3 1.2-.6 1.7s-.7.9-1.2 1.3-1.1.7-1.8.8zm-.2-.9c.5-.1 1-.3 1.4-.6s.8-.6 1-1c.3-.4.5-.8.6-1.3.1-.5.1-1 0-1.6-.1-.6-.4-1-.7-1.4s-.7-.7-1.1-.9c-.4-.2-.9-.4-1.4-.4-.5-.1-1 0-1.5.1s-1 .3-1.4.6c-.4.3-.8.6-1 1-.3.4-.5.8-.6 1.3-.1.5-.1 1 0 1.6.1.6.4 1 .7 1.4.3.4.7.7 1.1.9.4.2.9.4 1.4.4.5 0 1 0 1.5-.1zM88 340.2l1.1 4-.8.2-1.4-4.9 8.6-2.4.2.9-7.7 2.2zM89.9 346.8l1.5 4.6-.8.2-1.8-5.4 8.5-2.8 1.7 5.3-.8.2-1.4-4.4-2.9.9 1.3 4.1-.8.2-1.3-4.1-3.2 1.2zM91.7 354.6l-.3-.9 8.4-3.1.9 2.5c.2.4.3.8.3 1.2.1.4 0 .7 0 1.1-.1.3-.2.6-.5.9-.2.2-.6.4-1 .6-.3.1-.6.2-.9.1-.3 0-.6-.1-.8-.2-.3-.1-.5-.3-.7-.5s-.4-.5-.5-.8l-3.1 3.9-.4-1 3.1-3.8-.5-1.4-4 1.4zm4.6-1.7l.5 1.5c.3.7.6 1.2 1 1.4.4.3.8.3 1.3.1.3-.1.5-.2.6-.4.2-.2.3-.4.3-.6s.1-.5 0-.8-.1-.6-.2-.9l-.6-1.5-2.9 1.2zM94.5 362l-.3-.8 8.3-3.3.3.8-8.3 3.3zM99.3 369.9l7-3.1.4.8-8.2 3.6-.5-1 4.9-7.9-7 3.1-.4-.8 8.2-3.6.5 1-4.9 7.9zM109.3 376.7c.2-.4.2-.9.2-1.3 0-.5-.2-.9-.4-1.4-.3-.5-.6-.9-1-1.2-.4-.3-.8-.5-1.3-.7-.5-.1-.9-.2-1.4-.1-.5.1-1 .2-1.4.4-.5.2-.9.5-1.2.9-.3.4-.6.8-.8 1.2-.2.4-.2.9-.2 1.4 0 .5.2 1 .4 1.5s.5.8.8 1.2c.3.3.6.6.8.7l2.4-1.2-.9-1.9.7-.4 1.3 2.7-3.6 1.8c-.5-.3-.9-.7-1.3-1.1-.4-.4-.7-.9-1-1.5-.3-.6-.5-1.2-.5-1.8 0-.6 0-1.2.2-1.8.2-.6.5-1.1.9-1.5.4-.5.9-.9 1.5-1.2.6-.3 1.2-.5 1.8-.5.6 0 1.2 0 1.8.2.6.2 1.1.5 1.5.9.5.4.9.9 1.1 1.5.3.6.5 1.2.6 1.8 0 .6 0 1.1-.2 1.6l-.8-.2zM132.1 422l-.6-.7 6.6-6 1.8 1.9c.3.3.5.7.7 1s.3.7.4 1c0 .3 0 .7-.1 1-.1.3-.3.6-.7.9-.2.2-.5.4-.8.5-.3.1-.6.1-.8.1-.3 0-.6-.1-.8-.2s-.5-.3-.8-.5l-1.4 4.8-.8-.8 1.4-4.6-1-1.1-3.1 2.7zm3.6-3.4l1.1 1.2c.5.5 1 .9 1.4 1s.9 0 1.3-.4c.2-.2.4-.4.4-.6.1-.2.1-.4.1-.7 0-.2-.1-.5-.3-.7-.1-.2-.3-.5-.6-.7l-1.1-1.2-2.3 2.1zM138.2 427.3l3.4 3.4-.6.6-4-4 6.3-6.3 3.9 3.9-.6.6-3.3-3.3-2.2 2.2 3.1 3.1-.6.6-3.1-3.1-2.3 2.3zM149.1 436.9c-.3.1-.5.1-.8.1-.3 0-.6 0-.9-.1-.3-.1-.6-.2-.9-.4-.3-.2-.6-.4-.9-.7-.5-.5-.9-1-1.1-1.5s-.4-1.1-.4-1.7c0-.6.1-1.2.3-1.7.2-.6.6-1.1 1-1.6.5-.5 1-.9 1.5-1.1.6-.3 1.1-.4 1.7-.4.6 0 1.2.1 1.8.3.6.2 1.1.5 1.6 1 .2.2.5.5.6.7.2.3.3.5.5.8.1.3.2.6.3.8 0 .3.1.6 0 .8l-.9-.1v-.6c0-.2-.1-.4-.1-.7-.1-.2-.2-.4-.3-.7s-.3-.4-.5-.6c-.4-.4-.9-.7-1.4-.8s-1-.2-1.4-.2c-.5 0-.9.2-1.4.4-.4.2-.8.5-1.2.9-.4.4-.6.8-.8 1.3-.2.5-.3.9-.3 1.4 0 .5.1 1 .3 1.4.2.5.5.9.9 1.3.4.3.8.6 1.3.8.5.2 1 .2 1.5 0v.9zM150.4 439.9l-.7-.6 5.8-6.8 2 1.7.9.9c.2.3.4.6.5.9.1.3.1.6 0 1-.1.3-.3.7-.5 1-.2.3-.4.4-.7.6-.3.1-.5.2-.8.2s-.6 0-.9-.1c-.3-.1-.6-.2-.8-.4l-.7 4.9-.8-.7.8-4.8-1.2-1-2.9 3.2zm3.2-3.8l1.2 1c.6.5 1.1.7 1.5.8.5.1.9-.1 1.2-.5.2-.2.3-.5.4-.7v-.7c-.1-.2-.2-.4-.4-.7-.2-.2-.4-.4-.6-.7l-1.2-1-2.1 2.5zM157.1 444.3l3.8 2.9-.5.6-4.5-3.5 5.5-7.1 4.4 3.4-.5.6-3.7-2.8-1.9 2.4 3.4 2.7-.5.6-3.4-2.7-2.1 2.9zM162.1 449.2l-.8-.6 8.3-5 .7.5-2.1 9.5-.8-.6.6-2.5-3.8-2.7-2.1 1.4zm2.9-1.8l3.2 2.3 1.1-5-4.3 2.7zM171.6 455.8l-.8-.5 4.5-6.8-2.5-1.6.4-.7 5.8 3.8-.4.7-2.6-1.7-4.4 6.8zM176.4 458.8l-.8-.5 4.7-7.6.8.5-4.7 7.6zM179.9 460l4.1 2.4-.4.7-4.9-2.8 4.5-7.7 4.8 2.8-.4.7-4-2.3-1.5 2.7 3.8 2.2-.4.7-3.8-2.2-1.8 2.8zM256.2 486.8l-.9-.1 1.2-8.9.9.1-1.2 8.9zM265.4 486.5l.8-7.6.9.1-.9 8.9-1.1-.1-4.4-8.2-.7 7.7-.9-.1.9-8.9 1.1.1 4.3 8.1zM269.5 479.2l3 .1c.6 0 1.1.1 1.7.4.5.2 1 .5 1.5.9.4.4.8.9 1 1.5.3.6.4 1.2.3 2 0 .7-.2 1.4-.5 1.9s-.7 1-1.2 1.3c-.5.4-1 .6-1.6.8-.6.2-1.1.2-1.7.2l-3-.1.5-9zm.5 8.1l1.8.1c.7 0 1.3 0 1.8-.2s.9-.4 1.3-.8c.3-.3.6-.7.8-1.1s.3-.9.3-1.3c0-.5 0-.9-.2-1.4-.1-.4-.4-.8-.7-1.2-.3-.4-.7-.7-1.2-.9-.5-.2-1.1-.4-1.7-.4l-1.8-.1-.4 7.3zM282.5 488.7c-.7 0-1.2-.1-1.7-.3-.4-.2-.8-.5-1-.9-.3-.4-.4-.7-.5-1.2-.1-.4-.1-.8-.1-1.2v-5.6h.9v5.5c0 .4 0 .7.1 1.1.1.3.2.6.4.9s.4.5.8.6c.3.2.7.2 1.1.2.5 0 .8-.1 1.1-.2.3-.2.6-.4.8-.6.2-.3.3-.6.4-.9.1-.3.1-.7.1-1.1v-5.5h.9v5.6c0 .4 0 .8-.1 1.2s-.3.8-.5 1.2c-.3.4-.6.6-1 .9s-1.1.3-1.7.3zM292.6 480.7c-.2-.3-.5-.5-.8-.6-.3-.1-.7-.2-1.1-.2-.2 0-.4.1-.7.1l-.6.3c-.2.1-.3.3-.4.5-.1.2-.1.5-.1.8s.1.5.2.7c.1.2.3.3.5.5l.6.3c.2.1.5.1.7.2.3.1.6.2 1 .3.3.1.6.2.9.4.3.2.5.4.6.7.2.3.3.6.3 1.1s0 .8-.2 1.2c-.2.3-.4.6-.6.8-.3.2-.6.4-.9.5-.3.1-.7.2-1 .2h-.8s-.5-.1-.8-.2c-.2-.1-.5-.2-.7-.4-.2-.2-.4-.3-.6-.6l.8-.6c.2.3.5.6.8.8s.8.3 1.2.3c.2 0 .5-.1.7-.1.2-.1.4-.2.6-.4.2-.2.3-.3.4-.6.1-.2.2-.5.2-.8 0-.3-.1-.6-.2-.8-.1-.2-.3-.4-.5-.5-.2-.1-.4-.2-.7-.3-.3-.1-.5-.2-.8-.2l-.9-.3c-.3-.1-.6-.2-.8-.4-.2-.2-.4-.4-.6-.7-.2-.3-.2-.6-.3-1 0-.4.1-.8.2-1.1.2-.3.4-.6.6-.8.3-.2.6-.4.9-.5s.7-.2 1-.2c.6 0 1.1.1 1.6.3.4.2.8.4 1 .7l-.7.6zM298.8 487.8l-.9.1-.7-8.1-3 .2-.1-.8 6.9-.6.1.8-3 .2.7 8.2zM304.5 487.3l-.9.1-1.1-8.9 2.6-.3c.4-.1.8-.1 1.2 0s.7.1 1 .3.5.4.7.7c.2.3.3.6.4 1.1 0 .3 0 .6-.1.9s-.2.5-.4.8c-.2.2-.4.4-.7.6-.3.2-.6.3-.9.3l3.1 3.9-1.1.1-3-3.9-1.5.2.7 4.1zm-.6-5l1.6-.2c.7-.1 1.3-.3 1.6-.6.4-.3.5-.7.4-1.3 0-.3-.1-.5-.3-.7-.1-.2-.3-.3-.5-.4-.2-.1-.5-.2-.7-.2h-.9l-1.6.2.4 3.2zM312.4 486.2l-.9.1-1.3-8.8.9-.1 1.3 8.8zM316 484.8l4.7-.8.1.8-5.6 1-1.6-8.8 5.5-1 .1.8-4.6.8.5 3 4.3-.8.1.8-4.3.8.8 3.4zM379.1 462.7l3.6-2 .4.7-4.4 2.5-4.4-7.8.8-.4 4 7zM384.7 460.4l-.9.5-1.4-9.6.8-.5 8 5.6-.9.5-2.1-1.5-3.9 2.4.4 2.6zm-.5-3.4l3.4-2.1-4.2-3 .8 5.1zM397.2 450.8l-4.3-6.3.8-.5 5 7.4-.9.6-8.6-3.4 4.3 6.4-.8.5-5-7.4.9-.6 8.6 3.3zM395.6 442.5l2.4-1.8c.4-.3.9-.6 1.5-.8.6-.2 1.1-.3 1.7-.2.6 0 1.2.2 1.7.5.6.3 1.1.7 1.5 1.3.5.6.7 1.2.8 1.8.1.6.1 1.2 0 1.8-.1.6-.4 1.1-.7 1.6-.3.5-.7.9-1.2 1.2l-2.4 1.8-5.3-7.2zm5.7 6l1.4-1.1c.5-.4.9-.8 1.2-1.3.3-.5.4-.9.5-1.4.1-.5 0-.9-.1-1.4-.1-.4-.3-.9-.6-1.2-.3-.4-.6-.7-1-.9-.4-.2-.8-.4-1.3-.5-.5-.1-1 0-1.5.1s-1.1.4-1.6.8l-1.4 1.1 4.4 5.8zM403.3 436.7l2-1.7c.3-.2.5-.4.9-.6.3-.2.6-.3.9-.3.3 0 .6 0 1 .1.3.1.6.3.9.7.3.4.5.8.5 1.2 0 .5-.1.9-.4 1.3.5-.3 1-.5 1.5-.4.5.1 1 .3 1.4.8.2.3.4.6.5.9.1.3.1.7 0 1s-.2.7-.5 1.1c-.2.4-.6.7-1 1l-2 1.7-5.7-6.8zm3.2 2.4l1.4-1.2c.2-.1.3-.3.5-.5l.3-.6c.1-.2.1-.4 0-.7 0-.2-.2-.5-.3-.7-.2-.2-.4-.4-.6-.4-.2-.1-.4-.1-.7-.1-.2 0-.5.1-.7.2-.2.1-.5.3-.7.5l-1.2 1 2 2.5zm2.7 3.3l1.3-1.1c.3-.2.5-.4.7-.7.2-.2.3-.5.4-.7.1-.2.1-.5.1-.8 0-.3-.2-.5-.4-.7-.4-.5-.8-.7-1.3-.6-.5 0-1 .3-1.6.8l-1.4 1.2 2.2 2.6zM419.1 428.8c.5.5.8 1 1 1.6.2.6.3 1.2.3 1.8 0 .6-.2 1.2-.4 1.7-.3.6-.6 1.1-1.1 1.5-.5.4-1 .8-1.6 1-.6.2-1.2.3-1.8.3-.6 0-1.2-.2-1.7-.4-.6-.3-1.1-.6-1.5-1.1-.5-.5-.8-1-1-1.6-.2-.6-.3-1.2-.3-1.8 0-.6.2-1.2.4-1.7.3-.6.6-1.1 1.1-1.5.5-.4 1-.8 1.6-1s1.2-.3 1.8-.3c.6 0 1.2.2 1.7.4s1 .6 1.5 1.1zm-.7.6c-.4-.4-.7-.7-1.2-.9-.4-.2-.9-.4-1.4-.4-.5 0-1 0-1.4.2-.5.2-.9.4-1.4.8s-.7.8-.9 1.3-.3.9-.3 1.4c0 .5.1.9.3 1.4.2.5.5.9.8 1.3.4.4.7.7 1.2.9.4.2.9.4 1.4.4.5 0 1 0 1.4-.2.5-.2.9-.4 1.4-.8.4-.4.7-.8.9-1.3.2-.5.3-.9.3-1.4 0-.5-.1-.9-.3-1.4-.2-.5-.5-.9-.8-1.3zM426.3 428.2c-.5.5-.9.8-1.4.9-.5.1-.9.2-1.3.1s-.8-.2-1.2-.4c-.4-.2-.7-.5-.9-.7l-4-3.9.6-.6 3.9 3.9c.3.3.5.5.8.7s.6.3.9.3c.3.1.7 0 1-.1s.7-.3 1-.6c.3-.3.5-.7.6-1 .1-.3.1-.7.1-1-.1-.3-.2-.6-.4-.9-.2-.3-.4-.6-.7-.8l-3.9-3.9.6-.6 4 3.9c.3.3.5.6.7.9.2.4.4.8.5 1.2.1.4 0 .9-.1 1.3 0 .3-.3.8-.8 1.3zM431 421.1l-4.3-6.8.7-.8 7.2 3.4-4.3-6.7.6-.7 5 7.9-.7.8-7.2-3.4 4.3 6.8-.7.8-8.5-3.9.6-.7 7.3 3.3zM459.8 380.7l2.2-4.2.7.4-2.6 5.1-7.9-4.1 2.6-4.9.7.4-2.1 4.1 2.7 1.4 2-3.8.7.4-2 3.8 3 1.4zM465.6 367.3c.1.2.3.5.4.8.1.3.1.6.2.9 0 .3 0 .7-.1 1-.1.3-.2.7-.3 1.1-.3.6-.7 1.1-1.1 1.5s-1 .7-1.5.9c-.6.2-1.1.3-1.8.3-.6 0-1.2-.2-1.9-.5s-1.1-.7-1.6-1.1c-.4-.5-.7-1-.9-1.5-.2-.6-.3-1.1-.3-1.8 0-.6.2-1.2.5-1.8.1-.3.3-.6.5-.8.2-.3.4-.5.6-.7.2-.2.5-.4.7-.5s.5-.2.8-.3l.2.9c-.2 0-.4.1-.5.2l-.6.3c-.2.1-.4.3-.5.5-.2.2-.3.4-.4.7-.2.5-.4 1-.4 1.5s.1 1 .3 1.4c.2.4.5.8.8 1.2.4.4.8.6 1.2.9.5.2 1 .4 1.5.4s1 0 1.4-.1.9-.4 1.3-.7c.4-.3.7-.8.9-1.3.2-.5.3-1 .3-1.5s-.1-1-.4-1.5l.7-.4zM466.8 356.3c.6.3 1.2.6 1.6 1 .4.4.8.9 1 1.5s.3 1.1.4 1.7c0 .6-.1 1.2-.4 1.8-.2.6-.6 1.1-1 1.6-.4.4-.9.8-1.5 1-.5.2-1.1.3-1.7.4s-1.2-.1-1.9-.4c-.6-.3-1.2-.6-1.6-1-.4-.4-.8-.9-1-1.5-.2-.5-.3-1.1-.4-1.7 0-.6.1-1.2.4-1.8.2-.6.6-1.1 1-1.6s.9-.8 1.5-1c.5-.2 1.1-.3 1.7-.4s1.3.1 1.9.4zm-.3.9c-.5-.2-1-.3-1.5-.3s-1 .1-1.4.2c-.5.2-.9.4-1.2.8-.4.3-.7.8-.9 1.3-.2.5-.3 1-.3 1.6 0 .5.1 1 .4 1.4s.5.8.9 1.1c.4.3.8.6 1.3.8.5.2 1 .3 1.5.3s1-.1 1.4-.2.9-.4 1.2-.8c.4-.3.7-.8.9-1.3.2-.5.3-1 .3-1.6 0-.5-.1-1-.3-1.4s-.5-.8-.9-1.1c-.5-.4-.9-.6-1.4-.8zM470 352.7l-1 2.7-.7-.2 1-2.7.7.2zM464.8 348.7l.3-.9 3.7 1.2 1.5-4.6-3.7-1.2.3-.9 8.5 2.7-.4 1-4-1.3-1.5 4.6 4 1.3-.3.9-8.4-2.8zM476.1 342.4l-.3 1-7.6-6.1.2-.9 9.6-1.4-.3 1-2.5.3-1.2 4.5 2.1 1.6zm-2.7-2.1l1-3.8-5.1.7 4.1 3.1zM469.8 331.4l.6-2.6c.1-.3.2-.7.3-1s.3-.6.6-.8c.2-.2.5-.4.8-.5.3-.1.7-.1 1.1 0 .5.1.8.3 1.1.7.3.4.4.8.4 1.3.2-.6.5-1 1-1.3.5-.3 1-.4 1.6-.2.4.1.7.2.9.4.3.2.5.5.6.8.1.3.2.7.3 1.1 0 .4 0 .9-.1 1.4l-.6 2.6-8.6-1.9zm4-.1l.4-1.8c0-.2.1-.4.1-.7 0-.2 0-.4-.1-.7-.1-.2-.2-.4-.4-.5-.2-.2-.4-.3-.7-.3-.3-.1-.5-.1-.7 0l-.6.3c-.2.2-.3.4-.4.6-.1.2-.2.5-.3.8l-.3 1.5 3 .8zm4.1 1l.4-1.7c.1-.3.1-.6.1-.9 0-.3 0-.6-.1-.8-.1-.2-.2-.5-.4-.6-.2-.2-.4-.3-.7-.4-.6-.1-1 0-1.4.3-.4.3-.6.8-.8 1.6l-.4 1.8 3.3.7zM480.4 324.1l-.2.9-8.8-1.7.2-.9 8.8 1.7zM481.4 318.6l-.1.9-8-1.3-.5 3-.8-.2 1.1-6.8.8.1-.5 3 8 1.3zM482 314.6l-.1 1-8.4-4.9.1-.9 9.3-2.7-.1 1-2.5.7-.6 4.6 2.3 1.2zm-3-1.6l.5-3.9-5 1.4 4.5 2.5zM483.3 303.2l-.1.9-8.1-.7-.3 3-.8-.1.6-6.9.8.1-.3 3 8.2.7z"/></g></g><g><g fill="#1A5371"><path d="M424.9 92.7h4v1.2h-4zM424.9 90.4h4v1.7h-4zM429.5 92.7h4v1.2h-4zM429.5 90.4h4v1.7h-4zM429.5 88.1h4v1.7h-4zM434.1 92.7h4v1.2h-4zM434.1 90.4h4v1.7h-4zM434.1 88.1h4v1.7h-4zM438.7 92.7h4v1.2h-4zM438.7 90.4h4v1.7h-4zM438.7 88.1h4v1.7h-4zM443.3 92.7h4v1.2h-4zM443.3 90.4h4v1.7h-4zM443.3 88.1h4v1.7h-4zM447.9 92.7h4v1.2h-4zM447.9 90.4h4v1.7h-4zM462.9 85v-.9h-5.2l.3.9M462.9 87.3v-1.8h-4.7l.6 1.8M462.9 88.1v-.4h-5.2v1.1h1.1c.2 0 .3.1.3.3 0 .2-.1.3-.3.3h-1.1v.6h1.1c.2 0 .3.1.3.3 0 .2-.1.3-.3.3h-1.1v.6h1.1c.2 0 .3.1.3.3 0 .2-.1.3-.3.3h-1.1v1h5.2v-4.7zm-1.1 3.6h-.6v-.6h.6v.6zm0-1.1h-.6V90h.6v.6zm0-1.2h-.6v-.6h.6v.6z"/><path d="M465.4 93.9c0-.1-.1-.2-.2-.2h-1.1l-.5-.5-.1-.1h-6.9c-.1 0-.1 0-.1.1l-1.1 1.1h-33.2l-.5-.5-.1-.1h-1.1l-.5-.5-.1-.1c-3.4 0-10.8-.6-10.9-.6-.1 0-.2.1-.2.1 0 .1 0 .2.1.2 2.2 1.4 3.6 2.6 4.6 3.6h52.1v-2.5zm-53.4 0c-.2 0-.3-.1-.3-.3 0-.2.1-.3.3-.3.2 0 .3.1.3.3 0 .2-.1.3-.3.3zM464.4 97.9c0 .1.1.2.2.2h.6c.1 0 .2-.1.2-.2V97h-1v.9zM415.5 99.7c0 .1.1.2.2.2h42.6c3.5 0 4.7-1.2 4.8-1.2.1-.1.1-.2 0-.3 0 0-.2-.2-.1-.5 0-.2.3-.5.9-.9h-50.1c1.5 1.6 1.7 2.7 1.7 2.7zM462 78.4c0-.1-.1-.2-.2-.2s-.2.1-.2.2v5.2h.4v-5.2z"/></g><path fill="#004261" d="M276.6 28.4v-6.2c.7-2.9 2.8-4.3 6.2-4.3h4.3c0-.9.7-1.6 1.6-1.6V12h-4.3c-.7 0-1.3-.6-1.3-1.3 0-.7.6-1.3 1.3-1.3h11.4c.7 0 1.3.6 1.3 1.3 0 .7-.6 1.3-1.3 1.3h-4.3v4.3c.9 0 1.6.7 1.6 1.6h5.9v-3.8c0-.4.3-.8.8-.8h1.6v13h-1.6c-.4 0-.8-.3-.8-.8v-3.8h-6c0 .9-.7 1.6-1.6 1.6h-2.7c-.9 0-1.6-.7-1.6-1.6h-4.3c-1.1 0-1.9.9-1.9 1.9v4.7h-4.3v.1zm-4.9 3.6l1.8 16.1h9.8l1.8-16.1h-13.4zm1.5 1.4h10.5l-.3 3.2h-9.7"/><path fill="#6D8AA3" d="M305.9 537.6l-1.1-1.5-1.3-1.8v-1h-.8V529h-1.4v-5.4c0-.2-.1-.3-.3-.3h-3.8c-.2 0-.3.1-.3.3v2.7h-1.3c-.4 0-.8.3-.8.7v.6h-1.5v5.9h-1.2v4.2h-4.3l-.7-25.7c0-.3-.3-.3-.7-.3-.4 0-.7 0-.7.3l-.5 25.7h-.6L284 512c0-.3-.3-.3-.7-.3-.4 0-.7 0-.7.3l-.5 25.7h-1.4v3.8h-1.4v-7.6l-6.4 3.7h-.4v-3.7l-6.6 3.7h-.3v-3.7l-6.6 3.7h-1.6v6.4h-1.9v4.9h50.6v-11.1h-.2zm-13.2-3v.9h-.3V534l.3.6zm.9-5.3h.5v1.8h-.5v-1.8zm.7 0h.5v1.8h-.5v-1.8zm8.1 1.8h-.5v-.9l.5-.6v1.5zm-.8 0h-.4l.4-.5v.5zm2.4 4.5h-.6v-.2h.4l.2.2zm-.6 1.3h1.5l.2.2h-1.7v-.2zm0-.3v-.2h1.2l.2.2h-1.4zm-10.7 1h-.2l.2-.4v.4zm.3-.8l.4-.6v1.5h-.4v-.9zm7.1-6.6v.9h-.5v-1.5l.5.6zm.6 1.2l-.4.5v-.5h.4zm-.6.8l-.5.6v-1.5h.5v.9zm0 .5v.5h-.3l.3-.5zm.2.5v-.8l.4-.5v1.3h-.4zm.4-2.1h-.4v-.5l.4.5zm-6.2 2.6l-.2.4v-.4h.2zm-.5.9l-.4.6v-1.4h.4v.8zm.6 2.6l-.3-.5v-.8h.3v1.3zm-.6-1l-.2-.4h.2v.4zm-.3-.6l.3-.5v.5h-.3zm-.7.6v-.4h.3l-.3.4zm.6-.1l.4.6v.9h-.4v-1.5zm.7 1.1l.3.4h-.3v-.4zm.3.4zm0-2h-.3v-.9l.3-.6v1.5zm7.3-2.4v-.5l.3.5h-.3zm-.3 0h-.4v-1.4l.4.5v.9zm-.3-1.9h.4v.5l-.4-.5zm-1-1.2v-.8h.4v1.3l-.4-.5zm-.2-.4l-.3-.5h.3v.5zm-5.3-1.8v1.1h-.5v-1.1h.5zm0 3.4v2.2h-.5v-2.2h.5zm-1.8 4.3v-.5l.3.5h-.3zm-.6.2h.3v.9l-.3.6v-1.5zm11 1.6h1.9l.2.3h-2.1v-.3zm0-1.3v-.2h.8l.2.2h-1zm.2-1.1h-.2v-.3l.2.3zm-1.7-2.8v-.9h.5v1.5l-.5-.6zm.3-2.9l-.3.4v-.4h.3zm-.6 0v.8l-.4.5v-1.3h.4zm-4.2-5.5h3.3v5.2h-1.2v-2c0-.4-.3-.7-.8-.7h-1.3v-2.5zm-3.3 4.1v1.1h-.5v-1.1h.5zm-.5 3.4h.5v2.2h-.5v-2.2zm-.3 2.4v1.4l-.4-.6v-.8h.4zm-.6.4l-.2-.4h.2v.4z"/><g fill="#5D7D98"><path d="M457 486c-.3-.6-.6-1.2-.9-1.7-15 3.1-33.3 11.3-41.3 23.3 2 3.6 4.8 6.6 8.3 8.7 7-13.5 25.1-27.1 33.9-30.3zM454.7 482.2c-4.3-5.9-11.3-9.7-19.2-9.7-10.2 0-18.8 6.4-22.2 15.4 12.2-6.1 31.2-7.3 41.4-5.7zM437.6 519.8c12.2-1 21.8-11.2 21.8-23.6 0-3.2-.7-6.3-1.8-9.1-8.4 8.3-16.7 20.7-20 32.7zM418.1 494.7h.7v6.8h-.7z"/><path d="M417.2 489.5c1.3 1.2 1.8 3.9 1.7 5.3 2.6-2.1-.3-6.3-2.6-6.8.2 1 .1 2-.1 2.9-.3 1.9.5 3.8 2 3.9 0-1 .3-2.4-1-5.3z"/><path d="M414.2 495.4c.8-.4 2.8-.2 3.6 0-1.5-2.3-4.2-.9-4.8.2.7.1 1.3.4 1.9.7 1.2.6 2.6.4 3-.5-.6-.2-2.8-.5-3.7-.4zM421.8 494.3c-.2.8-1.5 2.3-2.2 2.9 2.7.2 3.2-2.8 2.7-4-.5.5-1.1.8-1.7 1.1-1.2.6-1.9 1.8-1.4 2.7.5-.4 2-1.9 2.6-2.7zM434.3 512h.7v6.8h-.7z"/><path d="M433.4 506.8c1.3 1.2 1.8 3.9 1.7 5.3 2.6-2.1-.3-6.3-2.6-6.8.2 1 .1 2-.1 2.9-.3 1.9.5 3.8 2 3.9 0-1 .3-2.4-1-5.3z"/><path d="M430.4 512.7c.8-.4 2.8-.2 3.6 0-1.5-2.3-4.2-.9-4.8.2.7.1 1.3.4 1.9.7 1.2.6 2.6.4 3-.5-.6-.2-2.8-.4-3.7-.4zM438 511.6c-.2.8-1.5 2.3-2.2 2.9 2.7.2 3.2-2.8 2.7-4-.5.5-1.1.8-1.7 1.1-1.2.6-1.9 1.8-1.4 2.7.6-.3 2.1-1.9 2.6-2.7zM427.7 489.4h.5v4.9h-.5z"/><path d="M427 485.6c1 .9 1.3 2.8 1.2 3.8 1.9-1.6-.2-4.5-1.9-4.9.1.8 0 1.5-.1 2.1-.2 1.4.4 2.7 1.4 2.8.2-.7.4-1.6-.6-3.8z"/><path d="M424.9 489.9c.6-.3 2-.1 2.6 0-1.1-1.7-3.1-.6-3.5.2.5.1 1 .3 1.4.5.9.5 1.9.3 2.2-.4-.5-.1-2-.3-2.7-.3zM430.4 489.2c-.1.6-1.1 1.7-1.6 2.1 2 .1 2.4-2.1 2-2.9-.4.4-.8.6-1.2.8-.9.4-1.4 1.3-1 2 .3-.4 1.4-1.5 1.8-2zM440.7 503.5h.5v4.9h-.5z"/><path d="M440 499.7c1 .9 1.3 2.8 1.2 3.8 1.9-1.6-.2-4.5-1.9-4.9.1.8 0 1.5-.1 2.1-.2 1.4.4 2.7 1.4 2.8.1-.7.4-1.7-.6-3.8z"/><path d="M437.8 503.9c.6-.3 2-.1 2.6 0-1.1-1.7-3.1-.6-3.5.2.5.1 1 .3 1.4.5.9.5 1.9.3 2.2-.4-.4-.1-2-.3-2.7-.3zM443.3 503.2c-.1.6-1.1 1.7-1.6 2.1 2 .1 2.4-2.1 2-2.9-.4.4-.8.6-1.2.8-.9.4-1.4 1.3-1 2 .4-.3 1.5-1.5 1.8-2zM436.7 486.1h.4v3.3h-.4zM436.2 483.5c.7.6 1 1.9.9 2.6 1.5-1-.1-3-1.4-3.3.1.5 0 1-.1 1.4-.2.9.3 1.8 1.1 1.9.1-.5.2-1.2-.5-2.6z"/><path d="M434.6 486.4c.4-.2 1.5-.1 2 0-.8-1.1-2.3-.4-2.7.1.4.1.7.2 1 .3.7.3 1.4.2 1.7-.2-.3-.1-1.5-.2-2-.2zM438.8 485.9c-.1.4-.8 1.1-1.2 1.4 1.5.1 1.8-1.4 1.5-1.9-.3.2-.6.4-.9.5-.7.3-1.1.9-.8 1.3.2-.2 1.1-1 1.4-1.3zM446.6 495.9h.4v3.3h-.4z"/><path d="M446.1 493.4c.7.6 1 1.9.9 2.6 1.5-1-.1-3-1.4-3.3.1.5 0 1-.1 1.4-.2.9.3 1.8 1.1 1.9 0-.5.2-1.2-.5-2.6z"/><path d="M444.4 496.2c.4-.2 1.5-.1 2 0-.8-1.1-2.3-.4-2.7.1.4.1.7.2 1 .3.7.3 1.4.2 1.7-.2-.3-.1-1.5-.2-2-.2zM448.6 495.7c-.1.4-.8 1.1-1.2 1.4 1.5.1 1.8-1.4 1.5-1.9-.3.2-.6.4-.9.5-.7.3-1.1.9-.8 1.3.3-.1 1.1-.9 1.4-1.3zM444.1 484.4h.3v2.2h-.3zM443.7 482.7c.5.4.7 1.3.6 1.7 1-.7-.1-2.1-1-2.2.1.3 0 .7 0 .9-.1.6.2 1.2.7 1.3.1-.3.2-.8-.3-1.7z"/><path d="M442.6 484.6c.3-.1 1-.1 1.4 0-.6-.8-1.6-.3-1.8.1.3 0 .5.1.7.2.4.2 1 .1 1.1-.2-.2 0-1-.1-1.4-.1zM445.5 484.3c-.1.3-.6.8-.8.9 1 .1 1.2-.9 1-1.3-.2.2-.4.3-.6.4-.5.2-.7.6-.5.9.1-.2.7-.7.9-.9z"/></g><path fill="#7D97AF" d="M147.9 493.7h-13.3V490.7h-9l-1.3-3.7-1.1.4 1.3 3.7v2.6h-5.1v-16c1.3.2 2 1.2 2 1.2s.7-1.3 2.3-1.3c1.6 0 2.3 1.3 2.3 1.3s.7-1.3 2.3-1.3c1.6 0 2.5 1.3 2.5 1.3-.2-6.2-5.1-11.3-11.3-11.6v-.3s-.1-.5-.6-.5-.6.5-.6.5v.3c-6.2.3-11.2 5.4-11.3 11.6 0 0 .9-1.3 2.5-1.3s2.3 1.3 2.3 1.3.6-1.3 2.3-1.3c1.6 0 2.3 1.3 2.3 1.3s.7-1 2-1.2v16h-11.3v2.4h3.5v5.4h2.4v-5.4h29.4v5.4h2.4v-5.4h3.4l-.3-2.4zm-22.2-1.8h7.7v1.8h-7.7v-1.8z"/><path fill="#8EA6BB" d="M26.4 377.7c0 10 8.1 18.1 18.1 18.1 10 0 18.1-8.1 18.1-18.1 0-10-8.1-18.1-18.1-18.1-9.9-.1-18.1 8.1-18.1 18.1zm3.2 0c0-8.2 6.7-15 15-15 8.2 0 15 6.7 15 15 0 8.2-6.7 15-15 15-8.3-.1-15-6.8-15-15zm28.6.1c0 7.5-6.1 13.6-13.6 13.6S31 385.3 31 377.8c0-1.3.2-2.7.6-4 .1-.2.3-.4.5-.3.2 0 .3.1.4.3.8.8 1.8 1.2 2.9 1.2 1 0 1.9-.3 2.6-.9.2-.2.6-.3.8 0 .7.6 1.7 1 2.7 1 1.1 0 2-.4 2.8-1.1.1-.1.3-.2.5-.1.1 0 .2.1.2.2.7.7 1.7 1 2.7 1 1.1 0 2.1-.4 2.8-1.1.1-.1.3-.2.5-.1.1 0 .2.1.2.2.8.5 1.8.9 2.8.9 1 0 2.1-.4 2.8-1.1.2-.2.5-.2.7 0 .1.1.1.2.2.2.3 1.2.5 2.5.5 3.7z"/><path fill="#4E718D" d="M553 354.8s1.3-6-1-8.7c-2.5-2.9-7.5-3-7.5-3s-2.9-4-6.6-4.6c-4.6-.8-9.6.1-9.6.1s-2.9-2.5-9.1-1.4c-4.7.8-5.1 5.7-5.1 5.7s-4.3-.1-6 2.2c-1.9 2.5.1 7.9.1 7.9s-2.5 3.5-1.8 6.7c.7 2.7 4.6 2.9 4.6 2.9s.8 4.3 4.2 4.5c2.8.1 5.9-1.4 5.9-1.4s3.5 1.6 7.1 1.5c3.7-.1 7.4-1.8 7.4-1.8s2.7 2.6 6.1 3.3c3.4.7 6.3-3.1 6.3-3.1s4.2.8 5.6-2.4c1.6-3.5-.6-8.4-.6-8.4zm-14.6 14s-1-.4-1.9-.9c-.7-.4-1.3-1-1.3-1s-.1.8-.3 1.4c-.2.5-.5 1.1-.5 1.1l-.2-.8c-.1-.5-.2-1.1-.3-1.1-.7.2-1.3.2-1.3.2s.4 1.4.2 2.4c-.4 1.6-1.2 4.2-1.2 4.2s-.9-2-1.2-3.3c-.3-1.1-.2-2.5-.2-2.5s-1.4 0-2.8-.2l-2.2-.4.6 2.1s-1-.4-1.8-1.1c-.7-.6-.9-1.5-.9-1.5l-1.3-.3s.6 1.6 2.3 3.4c7 6.2 5.7 6.9 5 13-.2 2.6-.8 5.1-1.3 6.3-.3.9-2.1 1.5-2.1 1.5s.5.4 2.8.4c1.1 0 4-.5 5.2-.6.7-.1 1.7.2 2.4.2.9 0 1.4-.2 1.4-.2s-2.7-.8-3.1-1.6c-.3-.7-.6-1.5-.6-1.5s-.8-3.1-.1-10.1c.8-5.9 4.7-9.1 4.7-9.1z"/><g fill="#3F6683"><path d="M511.7 203l-14.2 2.3c-.1.1-.1.3-.1.4v1.6c0 .5.4.9.9.9v5.6c0 .4.3.8.7.9 1.7 3.2 6.6 5.5 12.3 5.6v-11.7h.8v11.7c5.6-.2 10.2-2.4 11.9-5.6.4-.1.7-.5.7-.9v-5.5c.5 0 .9-.4.9-.9v-1.6c0-.2-.1-.3-.1-.5l-13.8-2.3z"/><path d="M494.5 211.7c-3.6 0-6.3-.8-6.4-.8l.4-1.5c.2.1 5.8 1.7 11.6 0 5.4-1.6 7.3-.5 8.7 0l-.6 1.5c-1.1-.4-2.6-1.4-7.7 0-2 .6-4.1.8-6 .8zM523.2 210.9l-.4-1.5c5.4-1.6 12.6-.5 14 0l-.6 1.5c-1.1-.4-8-1.5-13 0zM520.7 198.3h-.2v-2.7c0-.3-.3-.6-.6-.6h-2.6v-4.5c0-.3-.3-.6-.6-.6h-.2c-.3 0-.6.3-.6.6v4.5h-12.3c-.3 0-.6.3-.6.6v2.7h-.3c-.5 0-.9.4-.9.9v4.5l10-1.6h.1l9.9 1.6v-4.5c-.1-.4-.6-.9-1.1-.9zm-9.7 1.6c0 .5-.4.9-.9.9h-5.2c-.5 0-.9-.4-.9-.9v-1.8c0-.5.4-.9.9-.9h5.2c.5 0 .9.4.9.9v1.8zm8.4 0c0 .5-.4.9-.9.9h-5.2c-.5 0-.9-.4-.9-.9v-1.8c0-.5.4-.9.9-.9h5.2c.5 0 .9.4.9.9v1.8z"/></g><path fill="#A0B6C9" d="M29.8 193.9h10.6l-3.2 17.4h11.1l-13.3 25 2-18.8h-9.3"/><path fill="#B3C7D7" d="M135.7 105.5c.1.1.2.2.3.2.2.1.5.2.7.3h.8l.3-.1c.1 0 .2-.1.4-.2.1-.1.3-.1.3-.2l.3-.3c.1-.1.2-.2.3-.4l.2.3c.2.1.3.3.5.4l.6.3.6.1.6-.1.6-.3c.2-.1.3-.3.5-.4l.2-.4.2.3c.2.1.3.3.5.4.2.1.4.2.6.2l.6.1.6-.1.6-.3c.2-.1.3-.3.5-.4l.3-.4.1.1v.1c.1.1.1.2.2.3.2.2.4.4.7.5.1 0 .3.1.4.1h.4c.3 0 .6-.1.8-.2.3-.1.5-.3.7-.5.2-.2.4-.4.5-.7.1-.1.1-.3.1-.5v-.3h-1v.3c0 .1 0 .1-.1.2s-.1.3-.2.4c-.1.1-.2.2-.4.3-.1.1-.3.1-.5.1h-.3c-.1 0-.1 0-.2-.1s-.3-.1-.4-.3c-.1-.1-.2-.2-.3-.4-.1-.1-.1-.3-.1-.5v-.4H146v.4c0 .2 0 .3-.1.5-.1.1-.2.3-.3.4-.1.1-.3.2-.4.3l-.2.4h-.5c-.1 0-.1 0-.2-.1-.2-.1-.3-.2-.4-.3-.1-.1-.2-.3-.3-.4-.1-.2-.1-.3-.1-.5v-.4h-1.1v.4c0 .2 0 .3-.1.5s-.2.3-.3.4c-.1.1-.3.2-.4.3-.2.1-.3.1-.5.1h-.3c-.1 0-.1-.1-.2-.1-.2-.1-.3-.2-.4-.3-.1-.1-.2-.3-.3-.4-.1-.2-.1-.3-.1-.5v-.3h-1v.3c0 .2 0 .4-.1.5-.1.2-.2.3-.3.5-.1.1-.3.2-.4.3l-.3.1h-.5l-.2-.1c-.2-.1-.3-.2-.5-.3-.1-.1-.2-.3-.3-.5-.1-.2-.1-.4-.1-.5v-.2h-.2v-1.9h-11.3v-9.9h-1.4v9.9H119v-9h-3.8c1-.7 1.7-1.8 1.7-3.1 0-1.2-.5-2.2-1.3-2.9l1.3-.9 10.1 6.6.8-1.2-10.9-7.1-2.6 1.7c-.2-.1-.3-.2-.4-.2-.2-3.2-2.5-5.9-5.5-5.9-2.3 0-4.2 1.6-5 3.8-2.1.1-3.8 1.9-3.8 4 0 1 .4 1.9 1 2.6-.6.7-1 1.6-1 2.6 0 2.2 1.8 4 4 4 .5 0 .9-.1 1.3-.2.5.5 1 .8 1.6 1.1v3.9h-6.9v1.4h34.5v7.1h16.5v-1.3h-15v-3.3c0 .1.1.1.1.2zm-21-4h-4.2V98h.5c1.7 0 3.1-1 3.7-2.4v5.9zm-.8-9.5l-.6.2.3.6c.2.4.3.8.3 1.2 0 1.6-1.3 2.8-2.8 2.8-.3 0-.7-.1-1-.2l-.8-.3v5.3h-1.6v-4.8l-.4-.1c-.7-.2-1.3-.7-1.8-1.2l-.3-.3-.4.2c-.4.2-.8.3-1.2.3-1.5 0-2.8-1.3-2.8-2.8 0-.9.4-1.6 1-2.2l.6-.5-.6-.5c-.6-.5-1-1.3-1-2.2 0-1.6 1.3-2.8 2.8-2.8h.7l.1-.5c.6-2 2.2-3.4 4-3.4 2.3 0 4.3 2.2 4.3 5.1v.6h.6c.5.1 1 .3 1.3.6.7.5 1.1 1.3 1.1 2.2-.1 1.3-.8 2.3-1.8 2.7z"/></g><g><path opacity=".5" fill="#B3C7D7" d="M365.4 308.3c0 47.5-38.5 86.1-86.1 86.1-47.5 0-86.1-38.5-86.1-86.1 0-47.5 86.1-145.3 86.1-145.3s86.1 97.8 86.1 145.3z"/></g></svg>