<svg xmlns="http://www.w3.org/2000/svg" width="139.376" height="100.219" viewBox="0 0 139.376 100.219"><path fill="#FFF" d="M139.376 0H0v100.22h139.376V0z"/><path fill-rule="evenodd" clip-rule="evenodd" d="M139.376 0v100.22H0V0h139.376zM5.69 5.65v90.285H133.5V5.65H5.69z"/><path fill-rule="evenodd" clip-rule="evenodd" fill="#FFF" d="M5.69 5.65H133.5m-.773 30.334H6.597v59.12h126.13v-59.12zm-.006-29.596H6.58v28.73h126.14V6.387zm-.002 89.737H91.612m-43.95-.033H6.526m83.84-.05H48.88"/><path fill-rule="evenodd" clip-rule="evenodd" d="M132.727 35.984v59.12H6.597v-59.12h126.13zm-9.027 39.17l-.487.067c-1.287-2.894-2.583-5.783-3.86-8.682-3.08-6.993-6.16-13.986-9.225-20.987-.816-1.864-2.294-2.385-4.115-1.972-1.714.388-2.042 1.71-2.038 3.314.034 12.388.03 24.777.007 37.166-.003 1.784.283 3.28 2.492 3.265 2.313-.016 2.32-1.67 2.315-3.37-.022-8.712-.01-17.424-.012-26.135v-2.896c.555 1.015.763 1.34.918 1.69 4.202 9.366 8.37 18.75 12.64 28.086.45.987 1.332 2.14 2.275 2.47 2.57.894 3.974-.36 3.98-3.368.03-12.31.015-24.618.01-36.926 0-.478.127-1.125-.125-1.4-.683-.743-1.547-1.846-2.324-1.833-.808.014-1.76 1.048-2.338 1.858-.346.483-.11 1.394-.11 2.112-.002 9.18-.002 18.362-.002 27.545zm-112.42-9.84c0 6.237.038 12.474-.022 18.71-.02 2.138.976 3.107 3 3.126 3.278.03 6.56.112 9.833-.02 6.42-.264 11.55-5.355 11.667-11.69.124-6.714.143-13.435-.008-20.147-.144-6.376-5.252-11.252-11.584-11.326-3.277-.04-6.558.057-9.833-.03-2.267-.06-3.115.9-3.083 3.15.086 6.075.028 12.152.03 18.228zm55.81.096h-.013c0-3.596.073-7.193-.017-10.787-.143-5.724-4.886-10.665-10.547-11.114-6.89-.548-12.937 3.287-13.402 9.42-.595 7.86-.804 15.818-.268 23.672.512 7.49 6.105 11.29 13.982 10.673 6.025-.473 10.247-5.616 10.263-12.515.008-3.117.002-6.233.002-9.35zm11.576-16.758h2.8c4.717-.003 9.435.01 14.15-.02 1.53-.01 2.66-.56 2.634-2.373-.026-1.76-1.002-2.322-2.63-2.314-6.317.03-12.634.046-18.95-.01-2.09-.017-2.855 1.05-2.902 2.938-.006.24-.002.48-.002.72 0 11.913.013 23.826-.013 35.74-.004 1.944.336 3.732 2.65 3.772 6.475.112 12.953.076 19.43.02 1.592-.015 2.5-.972 2.405-2.64-.09-1.603-1.08-2.17-2.575-2.166-4.797.014-9.594.004-14.392.003h-2.487V67.438c.756-.05 1.31-.115 1.862-.118 3.278-.015 6.557.026 9.833-.04 1.45-.03 2.417-.773 2.468-2.362.05-1.597-.915-2.328-2.326-2.52-.943-.13-1.915-.062-2.874-.063-3-.006-6.002-.002-9.083-.002.003-4.672.003-8.965.003-13.68zM132.72 6.388v28.73H6.58V6.387h126.14zm-29.226 10.734c.18-.04.358-.077.537-.116 1.574 3.555 3.1 7.133 4.76 10.646.352.744 1.205 1.252 1.826 1.87.34-.783.96-1.56.977-2.348.093-4.553.085-9.11 0-13.663-.012-.7-.598-1.39-.92-2.084-.328.686-.92 1.365-.94 2.06-.1 3.396-.045 6.796-.045 10.194-.88-.943-1.394-1.976-1.864-3.028-1.202-2.688-2.324-5.414-3.625-8.052-.27-.548-1.175-.783-1.787-1.162-.28.592-.798 1.18-.807 1.777-.066 4.793-.073 9.59.007 14.382.01.635.613 1.26.942 1.89.313-.625.88-1.243.897-1.875.09-3.494.042-6.993.042-10.49zM71.35 21.14c0 2.44-.072 4.597.05 6.742.03.553.668 1.072 1.028 1.606.287-.556.814-1.11.822-1.668.066-4.87.047-9.74.027-14.61-.002-.585-.165-1.17-.253-1.757l-.9-.136c-1.782 2.2-.058 5.27-1.03 7.547H65.46c0-2.018.092-3.858-.052-5.68-.05-.616-.697-1.185-1.072-1.776-.367.61-1.04 1.214-1.053 1.832-.087 4.788-.086 9.58 0 14.368.01.637.657 1.262 1.01 1.892.39-.667 1.065-1.315 1.114-2.006.148-2.1.054-4.22.054-6.353h5.89zm54.588 1.06c.012.22.08.843.075 1.465-.024 2.522-.996 3.674-3.065 3.672-2.096 0-3.052-1.1-3.09-3.648-.03-2.238.01-4.477-.007-6.714-.013-1.795.633-3.178 2.488-3.588 1.75-.387 2.84.513 3.59 2.08.228.475.968.703 1.474 1.043.11-.64.453-1.346.29-1.906-.653-2.24-2.936-3.507-5.505-3.215-2.14.242-4.108 2.04-4.21 4.24-.147 3.19-.172 6.398.008 9.584.14 2.493 2.71 4.477 5.176 4.348 2.54-.133 4.638-2.223 4.766-4.8.055-1.117-.04-2.24.027-3.356.09-1.498-.65-2.114-2.02-1.87-1.207.214-2.374.65-3.558.987l3.563 1.678zM16.545 29.57c1.792-.105 3.597-.87 4.37-3.18.8-2.386.155-4.535-1.896-5.867-1.397-.906-3.07-1.445-4.315-2.507-.74-.63-1.49-2.282-1.16-2.894.475-.877 1.922-1.64 2.97-1.662.805-.017 1.635 1.187 2.453 1.85.44.357.878.72 1.317 1.08.194-.624.63-1.284.54-1.86-.3-1.903-2.584-3.266-5.026-3.16-2.26.1-4.23 1.663-4.494 3.552-.296 2.105.324 3.767 2.282 4.8 1.197.63 2.39 1.27 3.583 1.91 1.476.79 2.533 2.022 1.903 3.656-.336.87-1.532 1.736-2.493 1.968-1.693.408-3.092-.26-3.694-2.16-.155-.49-.833-.813-1.27-1.212-.21.603-.674 1.247-.583 1.8.363 2.212 2.586 3.837 5.512 3.887zm31.623-9.183h-.062c0 1.515-.083 3.036.02 4.544.163 2.396 1.842 4.203 4.112 4.602 2.118.373 4.585-.98 5.36-3.12.214-.588-.12-1.375-.2-2.07-.49.366-1.18.628-1.432 1.116-.823 1.604-2.074 2.112-3.755 1.81-1.817-.33-2.143-1.69-2.154-3.22-.018-2.474 0-4.947-.006-7.42-.003-1.606.604-2.834 2.253-3.217 1.748-.404 2.843.48 3.648 1.99.264.495.938.772 1.423 1.147.137-.627.512-1.315.37-1.872-.55-2.147-2.724-3.458-5.192-3.298-2.256.146-4.132 1.756-4.35 3.992-.16 1.657-.032 3.343-.032 5.017zm-19.562-6.62v6.355c0 2.63-.046 5.263.042 7.89.017.5.57.978.876 1.465.41-.478.983-.896 1.187-1.45.208-.562.054-1.26.054-1.896V13.643c.85-.073 1.51-.01 2.072-.213.548-.2.997-.67 1.49-1.022-.54-.325-1.058-.883-1.62-.93-1.583-.128-3.194-.155-4.775-.01-.977.09-1.918.57-2.875.875.88.386 1.76.778 2.644 1.156.21.088.443.13.906.266zm53.312-.025v5.854c0 2.717-.05 5.435.044 8.148.02.585.566 1.153.87 1.73.363-.594.986-1.164 1.04-1.784.148-1.665.054-3.35.054-5.03v-9.046c1.016-.064 1.672-.004 2.264-.173.526-.15.98-.552 1.468-.843-.493-.386-.96-1.06-1.485-1.105-1.665-.147-3.36-.168-5.024-.025-.987.085-1.938.57-2.904.875.896.387 1.79.78 2.69 1.156.213.09.452.115.982.244zm12.887 6.788c0-2.546.063-5.095-.053-7.636-.023-.51-.732-.987-1.125-1.48-.318.473-.906.94-.912 1.418-.072 5.01-.083 10.024-.01 15.035.01.552.652 1.095 1 1.642.37-.607 1.02-1.198 1.053-1.822.125-2.38.05-4.772.047-7.158zm-53.26-.082c0-2.477.06-4.956-.05-7.428-.023-.545-.65-1.063-.998-1.593-.333.526-.95 1.047-.957 1.578-.075 4.952-.076 9.907-.002 14.86.008.546.626 1.083.962 1.624.347-.538.97-1.062.995-1.612.11-2.474.048-4.954.05-7.43zM91.61 96.125h41.107M6.524 96.092h41.138M48.88 96.042h41.486"/><path fill-rule="evenodd" clip-rule="evenodd" fill="#FFF" d="M123.7 75.155c0-9.183 0-18.364.002-27.545 0-.718-.235-1.628.11-2.112.58-.81 1.53-1.845 2.34-1.857.776-.01 1.64 1.09 2.323 1.834.252.275.125.922.125 1.4.005 12.308.02 24.617-.01 36.926-.006 3.008-1.41 4.262-3.98 3.368-.942-.33-1.824-1.482-2.275-2.47-4.27-9.337-8.437-18.72-12.64-28.087-.155-.348-.363-.673-.917-1.688v2.896c0 8.71-.01 17.423.01 26.135.005 1.7 0 3.354-2.314 3.37-2.21.016-2.495-1.48-2.492-3.265.022-12.39.027-24.777-.007-37.166-.005-1.604.323-2.926 2.038-3.314 1.82-.413 3.3.108 4.115 1.973 3.063 7.002 6.144 13.995 9.226 20.988 1.277 2.898 2.572 5.788 3.86 8.683.16-.02.324-.044.486-.065zM11.28 65.315c0-6.076.056-12.153-.03-18.23-.033-2.25.814-3.21 3.082-3.15 3.275.087 6.556-.008 9.833.03 6.332.074 11.44 4.95 11.583 11.327.15 6.712.13 13.433.008 20.146-.117 6.337-5.245 11.428-11.666 11.69-3.272.134-6.555.052-9.833.02-2.023-.018-3.02-.987-3-3.126.06-6.234.022-12.47.022-18.707zm4.973-16.634v33.594c2.856 0 5.574.186 8.257-.046 3.738-.322 6.42-3.357 6.452-7.104.055-6.48.063-12.96-.004-19.438-.04-3.89-2.853-6.774-6.788-6.98-2.55-.133-5.11-.025-7.917-.025zM67.09 65.41c0 3.117.005 6.233-.002 9.35-.017 6.9-4.238 12.043-10.263 12.516-7.877.617-13.47-3.182-13.982-10.673-.536-7.854-.327-15.812.27-23.672.464-6.133 6.512-9.968 13.4-9.42 5.663.45 10.405 5.39 10.548 11.114.09 3.594.018 7.19.018 10.787h.01zm-4.782.13h.015c0-3.353.06-6.71-.015-10.063-.093-4.135-2.896-7.026-6.805-7.165-4.388-.157-7.794 2.357-7.938 6.524-.245 7.1-.243 14.22.014 21.32.145 4.05 3.64 6.66 7.76 6.47 4.1-.188 6.838-2.888 6.95-7.02.09-3.354.018-6.71.018-10.065zM78.666 48.652v13.68c3.08 0 6.08-.004 9.083.002.958.002 1.93-.066 2.873.062 1.41.193 2.377.925 2.326 2.52-.052 1.59-1.02 2.332-2.47 2.362-3.275.067-6.554.026-9.832.04-.553.004-1.106.07-1.862.12V82.32h2.488c4.797 0 9.595.01 14.392-.003 1.496-.005 2.484.562 2.575 2.164.095 1.67-.812 2.626-2.405 2.64-6.476.058-12.954.094-19.428-.02-2.315-.04-2.656-1.827-2.65-3.772.024-11.913.012-23.826.012-35.74 0-.24-.004-.48 0-.72.048-1.886.813-2.954 2.903-2.936 6.316.055 12.632.04 18.95.01 1.628-.01 2.604.552 2.63 2.312.027 1.813-1.105 2.362-2.633 2.373-4.717.032-9.434.018-14.15.02-.867.003-1.73.002-2.804.002zM103.494 17.122c0 3.497.046 6.996-.042 10.49-.016.632-.584 1.25-.897 1.874-.33-.63-.93-1.254-.942-1.89-.08-4.792-.073-9.587-.007-14.38.008-.597.525-1.187.807-1.778.612.38 1.516.614 1.786 1.162 1.3 2.638 2.422 5.365 3.624 8.052.47 1.052.983 2.085 1.864 3.028 0-3.398-.054-6.8.044-10.194.02-.695.613-1.374.942-2.06.32.694.907 1.384.92 2.085.084 4.554.092 9.11 0 13.664-.018.79-.637 1.565-.978 2.348-.622-.617-1.474-1.125-1.826-1.87-1.66-3.513-3.186-7.09-4.76-10.646-.178.04-.357.077-.536.116zM71.35 21.14h-5.888c0 2.133.094 4.25-.054 6.353-.05.69-.725 1.34-1.115 2.006-.352-.63-.998-1.256-1.01-1.893-.085-4.79-.087-9.58 0-14.368.013-.618.687-1.222 1.054-1.833.375.59 1.023 1.16 1.072 1.777.143 1.82.05 3.662.05 5.68h5.635c.972-2.277-.752-5.348 1.03-7.548l.9.136c.088.586.25 1.172.253 1.758.02 4.87.04 9.74-.027 14.61-.007.56-.535 1.11-.82 1.667-.36-.535-1-1.053-1.03-1.606-.122-2.143-.05-4.298-.05-6.74zM125.938 22.2c-1.5-.704-2.53-1.19-3.563-1.675 1.184-.338 2.35-.773 3.557-.988 1.37-.244 2.11.373 2.02 1.87-.066 1.116.03 2.24-.026 3.356-.128 2.578-2.226 4.667-4.765 4.8-2.465.13-5.034-1.854-5.175-4.347-.18-3.186-.155-6.395-.008-9.584.102-2.2 2.07-4 4.21-4.24 2.57-.293 4.853.975 5.505 3.214.163.56-.18 1.267-.29 1.907-.506-.34-1.247-.568-1.474-1.042-.75-1.567-1.84-2.466-3.59-2.08-1.855.41-2.5 1.793-2.487 3.588.018 2.237-.023 4.476.01 6.713.036 2.548.993 3.647 3.088 3.65 2.07 0 3.04-1.15 3.065-3.673.007-.625-.063-1.248-.075-1.466zM16.545 29.57c-2.927-.05-5.15-1.674-5.514-3.886-.09-.553.374-1.197.583-1.8.438.4 1.116.724 1.27 1.212.604 1.9 2.002 2.568 3.695 2.16.96-.23 2.157-1.097 2.493-1.967.63-1.635-.426-2.866-1.9-3.657-1.194-.64-2.386-1.28-3.584-1.91-1.958-1.034-2.578-2.695-2.282-4.8.265-1.89 2.235-3.452 4.493-3.55 2.442-.108 4.727 1.255 5.025 3.157.09.578-.345 1.238-.54 1.86-.438-.36-.875-.722-1.316-1.08-.817-.663-1.648-1.866-2.453-1.85-1.048.022-2.495.786-2.97 1.663-.33.61.42 2.262 1.16 2.894 1.244 1.062 2.917 1.6 4.314 2.507 2.05 1.332 2.695 3.48 1.896 5.868-.77 2.307-2.576 3.073-4.368 3.18zM48.168 20.387c0-1.673-.13-3.36.032-5.017.218-2.236 2.094-3.847 4.35-3.992 2.47-.16 4.643 1.15 5.193 3.298.143.556-.232 1.244-.37 1.872-.486-.375-1.16-.652-1.422-1.146-.804-1.512-1.9-2.395-3.647-1.99-1.648.382-2.256 1.61-2.253 3.217.005 2.472-.012 4.945.006 7.418.01 1.532.336 2.892 2.155 3.22 1.682.303 2.933-.205 3.756-1.81.25-.487.94-.75 1.43-1.115.083.696.416 1.482.203 2.07-.777 2.14-3.244 3.492-5.362 3.12-2.27-.398-3.95-2.206-4.112-4.6-.103-1.51-.02-3.03-.02-4.545h.062zM28.606 13.766c-.464-.135-.695-.177-.907-.267-.886-.378-1.764-.77-2.645-1.157.957-.305 1.898-.784 2.876-.874 1.582-.147 3.193-.12 4.777.01.56.045 1.08.603 1.62.928-.494.352-.943.823-1.49 1.02-.563.204-1.223.14-2.073.214v12.49c0 .636.154 1.332-.053 1.895-.203.554-.775.972-1.186 1.45-.306-.487-.86-.966-.876-1.464-.088-2.627-.042-5.26-.042-7.89v-6.357zM81.918 13.742c-.53-.13-.77-.155-.982-.244-.9-.375-1.794-.77-2.69-1.156.966-.305 1.917-.79 2.903-.875 1.664-.143 3.358-.123 5.023.025.523.046.992.72 1.485 1.105-.486.29-.94.694-1.468.844-.592.17-1.248.11-2.264.174v9.047c0 1.68.095 3.365-.053 5.03-.055.62-.678 1.19-1.042 1.783-.302-.576-.848-1.144-.868-1.73-.094-2.712-.043-5.43-.044-8.147v-5.854zM94.807 20.53c0 2.386.076 4.777-.05 7.158-.032.624-.683 1.215-1.05 1.82-.35-.546-.993-1.09-1-1.64-.075-5.012-.064-10.025.008-15.036.006-.477.594-.944.912-1.417.393.492 1.1.97 1.125 1.48.117 2.54.053 5.088.055 7.635zM41.543 20.448c0 2.477.06 4.957-.048 7.43-.024.55-.647 1.074-.995 1.61-.335-.542-.954-1.078-.962-1.624-.074-4.953-.073-9.908.002-14.86.008-.53.623-1.052.957-1.578.35.53.975 1.048 1 1.593.108 2.472.047 4.95.046 7.428z"/><path fill-rule="evenodd" clip-rule="evenodd" d="M16.253 48.68c2.805 0 5.367-.107 7.916.026 3.934.207 6.747 3.09 6.787 6.98.067 6.48.06 12.958.004 19.438-.03 3.747-2.712 6.782-6.45 7.104-2.684.23-5.402.046-8.258.046V48.68zM62.308 65.54c0 3.356.072 6.713-.02 10.065-.11 4.132-2.85 6.83-6.948 7.02-4.12.19-7.616-2.42-7.762-6.47-.257-7.1-.26-14.22-.014-21.32.144-4.167 3.55-6.68 7.938-6.524 3.91.14 6.712 3.03 6.805 7.166.075 3.353.015 6.71.015 10.064h-.014z"/></svg>