<svg xmlns="http://www.w3.org/2000/svg" viewBox="0 0 456 86"><g fill="#333"><path d="M261.6 44.6c-.1 1.7-.4 3.3-.4 5-.2 15 9.6 30 23.4 35.9 1.2.5 2.7.6 3.9.4 5.9-1.1 11.5-3.3 16.4-6.8 13-9.2 18.5-22.1 18.2-37.8 0-1.7-.2-3.4-.4-5s-.6-3.3-.9-4.9c-.6.4-.7.8-.8 1.2-6.1 16.6-16.8 27.8-35.1 29.7-9.3.9-21.7-4.1-24.3-17.7z"/><path d="M287.5 26.1c-13.4-10.1-33-10-45.9 0-.9.7-1.6 1.8-1.9 2.9-2 6.6-2.4 13.3-1.4 20.1 2.6 17.8 12.2 29.8 29.3 35.5.5.2.9.2 1.8.3-.9-1.2-1.6-2-2.2-2.8-8.2-10.6-11.8-22.5-9.1-35.9 2.4-12.6 14.4-24.7 29.4-20.1zM343.8 32.6c-.4-.3-.8-.5-1.2-.8 0-.9-.1-1.7 0-2.6.2-1.9-.5-2.8-2.5-2.6-2 .2-4 .2-6 0-2.4-.2-3.2.5-3.1 3 .2 5.3.1 10.6.1 15.9v20.2c0 1.7.4 2.5 2.3 2.4 2.6-.1 5.3-.1 7.9 0 1.4 0 2-.6 2-2-.1-2.2 0-4.3 0-6.5.1-5.4.1-10.7.5-16.1.3-4.4 3.5-7 7.6-7.1 3.9-.1 5.9 1.8 6.8 6.5.2.9.2 1.9.2 2.9 0 6.7.1 13.3 0 19.9 0 1.7.4 2.5 2.3 2.4 2.6-.1 5.3-.1 7.9 0 1.7.1 2.4-.5 2.4-2.3-.2-8.9-.2-17.8-.5-26.6-.3-7.6-4-12.1-11-13.2-5.5-.9-10.5.4-14.4 4.7-.7.4-.9 1.2-1.3 1.9zM148.1 57.9c-.9.2-1.7.4-2.5.5-6 1.2-8.6-.7-8.9-6.8-.2-4.4 0-8.8-.1-13.2 0-1.6.7-1.9 2-1.9 3.1.1 6.2 0 9.3 0v-10c-3 0-5.9-.1-8.7 0-2.2.1-2.7-.7-2.6-2.7.2-3.2 0-6.4 0-9.6h-12.8v12.4h-7.9v10h8v3.5c.1 6.4 0 12.8.4 19.2.3 4.5 3.1 7.5 7.3 8.9 5 1.7 10 1.4 15.1.3.6-.1 1.3-1.1 1.4-1.7.1-2.9 0-5.9 0-8.9zM456 58.2c-1 .2-1.8.4-2.5.5-5.9 1.1-8.9-1.3-8.9-7.3 0-4.2.1-8.3 0-12.5 0-1.9.5-2.8 2.6-2.7 2.3.1 4.6 0 6.9 0 1.4 0 2.1-.5 2-1.9-.1-1.9-.1-3.8 0-5.8.1-1.4-.5-2-2-2-2.5.1-4.9 0-7.4 0-1.5 0-2.2-.6-2.1-2.1.1-2.7-.1-5.4 0-8.2 0-1.6-.4-2.3-2.2-2.3-2.6.1-5.3.1-7.9 0-1.6 0-2.1.5-2.1 2.1.1 2.7 0 5.4 0 8.2 0 1.6-.5 2.4-2.2 2.3-1.3-.1-2.7.1-4.1 0-1.6-.1-2.4.5-2.2 2.2.1.6 0 1.3 0 1.9 0 5.5 0 5.7 5.5 5.5 2.5-.1 3.1.9 3 3.2-.1 6.1 0 12.2 0 18.2 0 4.9 2.3 8.2 6.8 10 5 2 10.1 1.6 15.3.6.6-.1 1.4-1 1.4-1.5.1-2.6.1-5.4.1-8.4zM215.1 68.2c0-5.8-.1-11.5 0-17.2.1-2.4.4-4.8 1-7.1 1.1-4.1 4.3-6.4 8.5-6.5 2.1-.1 4.3.2 6.7.3.7-3.8 1.3-7.8 2-11.9-7.5-1.1-13.8 0-18.3 6.5v-5.7h-12.6v41.5c4.3.1 8.4.1 12.7.1zM0 26.4c3.6 0 7.2.2 10.7 0 2.1-.1 3 .5 3.6 2.6 2.3 7.7 4.8 15.4 7.8 23.2 2.4-8.5 4.8-17 7.2-25.7 4.4 0 8.7-.1 13.1.1.5 0 1.2 1.1 1.4 1.8 2.1 7.1 4.1 14.3 6.2 21.4.2.8.5 1.6 1.3 2.4 1.1-3.5 2.1-7.1 3.2-10.6 1.3-4.4 2.6-8.9 3.9-13.3.4-1.3.9-1.8 2.3-1.7 3.6.1 7.1 0 11 0-2 5.6-3.9 11-5.8 16.3-2.8 7.8-5.6 15.6-8.3 23.5-.5 1.5-1.2 2.2-2.9 2.1-2.8-.1-5.6-.1-8.4 0-1.6.1-2.2-.6-2.6-2-2.2-7.7-4.6-15.3-6.9-22.9-.2-.8-.5-1.5-.9-2.8-.4 1-.7 1.5-.8 2.1-2.3 7.8-4.5 15.6-6.7 23.5-.5 1.7-1.2 2.3-3 2.2-2.8-.1-5.6-.1-8.4 0-1.7.1-2.3-.6-2.8-2.1C9.7 53.9 5.2 41.4.7 28.9c-.1-.9-.4-1.4-.7-2v-.5z"/><path d="M282.1 0c1.9.4 3.8.8 5.8 1.1 9.4 1.7 17.3 6.2 24 12.9 1.6 1.6 2.4 3.4 2.5 5.5.8 14.5-6.6 30.7-21.4 37.8-.3.1-.6.2-.4.6 1.7-3.3 4-6.5 4.9-10 2.2-8.6-.5-16.3-6.2-22.9-6.5-7.4-14.9-11.5-24.5-12.7-5.4-.6-10.9-.1-16.5-.1 1-.9 2.1-2 3.3-2.9 6.5-5 13.9-8 22.1-8.7.6 0 1.1-.4 1.7-.6h4.7z"/><path d="M261.6 44.6c2.5 13.6 15 18.6 24.2 17.6 18.2-1.9 29-13.1 35.1-29.7.1-.4.3-.7.8-1.2.3 1.6.7 3.2.9 4.9.2 1.7.4 3.3.4 5 .2 15.7-5.3 28.6-18.2 37.8-4.9 3.5-10.5 5.7-16.4 6.8-1.2.2-2.7.1-3.9-.4-13.8-5.8-23.6-20.9-23.4-35.9.1-1.6.4-3.2.5-4.9z"/><path d="M287.5 26.1c-15.1-4.7-27 7.5-29.5 20.1-2.6 13.5.9 25.3 9.1 35.9.6.8 1.3 1.6 2.2 2.8-.9-.2-1.4-.2-1.8-.3-17.1-5.7-26.8-17.6-29.3-35.5-1-6.8-.6-13.6 1.4-20.1.3-1.1 1.1-2.2 1.9-2.9 13.1-10 32.6-10 46 0zM343.8 32.6c.4-.7.6-1.5 1.1-2.1 3.9-4.3 8.9-5.6 14.4-4.7 7.1 1.2 10.8 5.6 11 13.2.3 8.9.3 17.8.5 26.6 0 1.8-.6 2.4-2.4 2.3-2.6-.1-5.3-.1-7.9 0-1.9.1-2.3-.7-2.3-2.4.1-6.6 0-13.3 0-19.9 0-1-.1-1.9-.2-2.9-.9-4.7-2.9-6.6-6.8-6.5-4.2.1-7.3 2.8-7.6 7.1-.4 5.3-.4 10.7-.5 16.1 0 2.2-.1 4.3 0 6.5 0 1.4-.5 2-2 2-2.6-.1-5.3-.1-7.9 0-1.8.1-2.3-.7-2.3-2.4.1-6.7 0-13.5 0-20.2 0-5.3.1-10.6-.1-15.9-.1-2.5.8-3.2 3.1-3 2 .2 4 .2 6 0s2.7.7 2.5 2.6c-.1.9 0 1.7 0 2.6.7.5 1.1.8 1.4 1zM148.1 57.9c0 3.1.1 6-.1 9 0 .6-.8 1.6-1.4 1.7-5 1.1-10.1 1.3-15.1-.3-4.2-1.4-7-4.4-7.3-8.9-.4-6.4-.3-12.8-.4-19.2v-3.5h-8v-10h7.9V14.3h12.8c0 3.3.1 6.5 0 9.6-.1 2.1.4 2.9 2.6 2.7 2.8-.2 5.7 0 8.7 0v10h-9.3c-1.4 0-2.1.3-2 1.9.1 4.4-.1 8.8.1 13.2.2 6.1 2.9 8.1 8.9 6.8.9-.3 1.7-.4 2.6-.6zM456 58.2c0 3 .1 5.8-.1 8.6 0 .6-.9 1.4-1.4 1.5-5.1 1-10.3 1.4-15.3-.6-4.4-1.8-6.8-5.2-6.8-10 0-6.1-.1-12.2 0-18.2 0-2.3-.5-3.3-3-3.2-5.5.2-5.5 0-5.5-5.5 0-.6.1-1.3 0-1.9-.2-1.7.6-2.3 2.2-2.2 1.3.1 2.7-.1 4.1 0 1.7.1 2.3-.7 2.2-2.3v-8.2c0-1.6.6-2.1 2.1-2.1 2.6.1 5.3.1 7.9 0 1.7-.1 2.2.7 2.2 2.3-.1 2.7 0 5.4 0 8.2 0 1.5.6 2.1 2.1 2.1 2.5-.1 4.9 0 7.4 0 1.5 0 2 .6 2 2-.1 1.9-.1 3.8 0 5.8.1 1.5-.6 2-2 1.9-2.3-.1-4.6.1-6.9 0-2-.1-2.6.7-2.6 2.7.1 4.2 0 8.3 0 12.5 0 6 2.9 8.4 8.9 7.3.7-.3 1.4-.5 2.5-.7zM215.1 68.2h-12.6V26.7h12.6v5.7c4.6-6.5 10.9-7.6 18.3-6.5-.7 4.1-1.4 8-2 11.9-2.5-.1-4.6-.3-6.7-.3-4.2.1-7.4 2.4-8.5 6.5-.6 2.3-.9 4.7-1 7.1-.2 5.6-.1 11.2-.1 17.1zM393.6 50.8h23.6c3.4 0 3.4 0 3.3-3.5 0-1.5-.2-3-.5-4.5-1.3-7.7-5.1-13.5-12.7-16-6.7-2.2-13.4-1.6-19.6 1.8-6.1 3.3-8.9 8.9-9.6 15.7-.9 7.9 1.5 16.9 9.1 21.5 5.5 3.4 11.6 3.8 17.7 2.9 5.3-.8 9.8-3.1 13.4-7.2-.2-.4-.2-.5-.2-.5-1.2-1-2.5-2-3.8-3-3.2-2.6-3.2-2.6-6.6-.2-5.8 3.9-13.7 2.3-16.4-3.3-1.3-3-.9-3.7 2.3-3.7zm-3.1-9.5c.6-3.9 4.8-6.9 9.4-6.9 4.2.1 7.6 2.9 8.2 6.9.3 1.6-.1 2.3-1.7 2.2-2.4-.1-4.8 0-7.1 0s-4.6-.1-6.9 0c-1.6 0-2.1-.7-1.9-2.2zM170 50.8h23.6c3.4 0 3.4 0 3.3-3.5 0-1.5-.2-3-.5-4.5-1.3-7.7-5.1-13.5-12.7-16-6.7-2.2-13.4-1.6-19.6 1.8-6.1 3.3-8.9 8.9-9.6 15.7-.9 7.9 1.5 16.9 9.1 21.5 5.5 3.4 11.6 3.8 17.7 2.9 5.3-.8 9.8-3.1 13.4-7.2-.2-.4-.2-.5-.2-.5-1.2-1-2.5-2-3.8-3-3.2-2.6-3.2-2.6-6.6-.2-5.8 3.9-13.7 2.3-16.4-3.3-1.4-3-1-3.7 2.3-3.7zm-3.1-9.5c.6-3.9 4.8-6.9 9.4-6.9 4.2.1 7.6 2.9 8.2 6.9.3 1.6-.1 2.3-1.7 2.2-2.4-.1-4.8 0-7.1 0s-4.6-.1-6.9 0c-1.7 0-2.2-.7-1.9-2.2zM112.4 46.3c0-1.9 0-3.9-.2-5.8-1.3-9.1-5.2-13.5-13.7-14.8-4.7-.7-9.6-.7-14.2.9-3.4 1.1-6.6 2.7-9.2 5.5 2.2 2.1 4.4 4.1 6.6 6.2.5-.4 1.1-.9 1.8-1.4 3.6-2.5 7.5-3.4 11.8-2.4 3.6.8 5.4 3.4 5.1 7.3-2.4 0-4.7-.1-7 0-5.2.3-10.3.9-14.9 3.6-4.4 2.6-6.3 6.7-6 11.7.3 5 2.8 8.6 7.4 10.6 6.8 3.1 14.6 1.6 20-3.8.1-.1.4-.1.7-.2.1 1.4.1 2.8.2 4.2h11.7c-.1-7.2-.1-14.4-.1-21.6zm-11.9 7.3c-.9 5.8-9.3 9.2-14 5.7-2.9-2.2-2.5-6.4 1.2-7.9 2.9-1.2 6.2-1.5 9.4-2.3 3.7.5 4 .8 3.4 4.5z"/></g></svg>