<?xml version="1.0" encoding="utf-8"?>
<!-- Generator: Adobe Illustrator 16.0.0, SVG Export Plug-In . SVG Version: 6.00 Build 0)  -->
<!DOCTYPE svg PUBLIC "-//W3C//DTD SVG 1.1//EN" "http://www.w3.org/Graphics/SVG/1.1/DTD/svg11.dtd">
<svg version="1.1" xmlns="http://www.w3.org/2000/svg" xmlns:xlink="http://www.w3.org/1999/xlink" x="0px" y="0px" width="866px"
	 height="580.071px" viewBox="0 0 866 580.071" enable-background="new 0 0 866 580.071" xml:space="preserve">
<g id="Layer_2">
	<g>
		<g>
			<line fill="none" stroke="#000000" stroke-linecap="round" stroke-linejoin="round" x1="746" y1="510" x2="746" y2="510"/>
			
				<line fill="none" stroke="#000000" stroke-linecap="round" stroke-linejoin="round" stroke-dasharray="0,5.6667" x1="740.333" y1="510" x2="102.83" y2="510"/>
			<line fill="none" stroke="#000000" stroke-linecap="round" stroke-linejoin="round" x1="99.997" y1="510" x2="99.997" y2="510"/>
			
				<line fill="none" stroke="#000000" stroke-linecap="round" stroke-linejoin="round" stroke-dasharray="0,5.6901" x1="99.997" y1="504.31" x2="99.997" y2="108.845"/>
			<line fill="none" stroke="#000000" stroke-linecap="round" stroke-linejoin="round" x1="99.997" y1="106" x2="99.997" y2="106"/>
			
				<line fill="none" stroke="#000000" stroke-linecap="round" stroke-linejoin="round" stroke-dasharray="0,5.6667" x1="105.663" y1="106" x2="743.167" y2="106"/>
			<line fill="none" stroke="#000000" stroke-linecap="round" stroke-linejoin="round" x1="746" y1="106" x2="746" y2="106"/>
			
				<line fill="none" stroke="#000000" stroke-linecap="round" stroke-linejoin="round" stroke-dasharray="0,5.6901" x1="746" y1="111.69" x2="746" y2="507.155"/>
		</g>
	</g>
	<g>
		<g>
			<line fill="none" stroke="#000000" stroke-linecap="round" stroke-linejoin="round" x1="746" y1="469.6" x2="746" y2="469.6"/>
			
				<line fill="none" stroke="#000000" stroke-linecap="round" stroke-linejoin="round" stroke-dasharray="0,5.6667" x1="740.333" y1="469.6" x2="102.83" y2="469.6"/>
			
				<line fill="none" stroke="#000000" stroke-linecap="round" stroke-linejoin="round" x1="99.997" y1="469.6" x2="99.997" y2="469.6"/>
		</g>
	</g>
	<g>
		<g>
			<line fill="none" stroke="#000000" stroke-linecap="round" stroke-linejoin="round" x1="746" y1="348.4" x2="746" y2="348.4"/>
			
				<line fill="none" stroke="#000000" stroke-linecap="round" stroke-linejoin="round" stroke-dasharray="0,5.6667" x1="740.333" y1="348.4" x2="102.83" y2="348.4"/>
			
				<line fill="none" stroke="#000000" stroke-linecap="round" stroke-linejoin="round" x1="99.997" y1="348.4" x2="99.997" y2="348.4"/>
		</g>
	</g>
	<g>
		<g>
			<line fill="none" stroke="#000000" stroke-linecap="round" stroke-linejoin="round" x1="746" y1="429.2" x2="746" y2="429.2"/>
			
				<line fill="none" stroke="#000000" stroke-linecap="round" stroke-linejoin="round" stroke-dasharray="0,5.6667" x1="740.333" y1="429.2" x2="102.83" y2="429.2"/>
			
				<line fill="none" stroke="#000000" stroke-linecap="round" stroke-linejoin="round" x1="99.997" y1="429.2" x2="99.997" y2="429.2"/>
		</g>
	</g>
	<g>
		<g>
			<line fill="none" stroke="#000000" stroke-linecap="round" stroke-linejoin="round" x1="746" y1="388.8" x2="746" y2="388.8"/>
			
				<line fill="none" stroke="#000000" stroke-linecap="round" stroke-linejoin="round" stroke-dasharray="0,5.6667" x1="740.333" y1="388.8" x2="102.83" y2="388.8"/>
			
				<line fill="none" stroke="#000000" stroke-linecap="round" stroke-linejoin="round" x1="99.997" y1="388.8" x2="99.997" y2="388.8"/>
		</g>
	</g>
	<g>
		<g>
			<line fill="none" stroke="#000000" stroke-linecap="round" stroke-linejoin="round" x1="746" y1="308" x2="746" y2="308"/>
			
				<line fill="none" stroke="#000000" stroke-linecap="round" stroke-linejoin="round" stroke-dasharray="0,5.6667" x1="740.333" y1="308" x2="102.83" y2="308"/>
			<line fill="none" stroke="#000000" stroke-linecap="round" stroke-linejoin="round" x1="99.997" y1="308" x2="99.997" y2="308"/>
		</g>
	</g>
	<g>
		<g>
			<line fill="none" stroke="#000000" stroke-linecap="round" stroke-linejoin="round" x1="746" y1="186.8" x2="746" y2="186.8"/>
			
				<line fill="none" stroke="#000000" stroke-linecap="round" stroke-linejoin="round" stroke-dasharray="0,5.6667" x1="740.333" y1="186.8" x2="102.83" y2="186.8"/>
			
				<line fill="none" stroke="#000000" stroke-linecap="round" stroke-linejoin="round" x1="99.997" y1="186.8" x2="99.997" y2="186.8"/>
		</g>
	</g>
	<g>
		<g>
			<line fill="none" stroke="#000000" stroke-linecap="round" stroke-linejoin="round" x1="746" y1="146.4" x2="746" y2="146.4"/>
			
				<line fill="none" stroke="#000000" stroke-linecap="round" stroke-linejoin="round" stroke-dasharray="0,5.6667" x1="740.333" y1="146.4" x2="102.83" y2="146.4"/>
			
				<line fill="none" stroke="#000000" stroke-linecap="round" stroke-linejoin="round" x1="99.997" y1="146.4" x2="99.997" y2="146.4"/>
		</g>
	</g>
	<line fill="none" stroke="#000000" stroke-miterlimit="10" x1="746" y1="509" x2="99.997" y2="509"/>
	<g>
		<g>
			<line fill="none" stroke="#000000" stroke-linecap="round" stroke-linejoin="round" x1="746" y1="106" x2="746" y2="106"/>
			
				<line fill="none" stroke="#000000" stroke-linecap="round" stroke-linejoin="round" stroke-dasharray="0,5.6667" x1="740.333" y1="106" x2="102.83" y2="106"/>
			<line fill="none" stroke="#000000" stroke-linecap="round" stroke-linejoin="round" x1="99.997" y1="106" x2="99.997" y2="106"/>
		</g>
	</g>
	<g>
		<g>
			<line fill="none" stroke="#000000" stroke-linecap="round" stroke-linejoin="round" x1="746" y1="267.6" x2="746" y2="267.6"/>
			
				<line fill="none" stroke="#000000" stroke-linecap="round" stroke-linejoin="round" stroke-dasharray="0,5.6667" x1="740.333" y1="267.6" x2="102.83" y2="267.6"/>
			
				<line fill="none" stroke="#000000" stroke-linecap="round" stroke-linejoin="round" x1="99.997" y1="267.6" x2="99.997" y2="267.6"/>
		</g>
	</g>
	<g>
		<g>
			<line fill="none" stroke="#000000" stroke-linecap="round" stroke-linejoin="round" x1="746" y1="227.2" x2="746" y2="227.2"/>
			
				<line fill="none" stroke="#000000" stroke-linecap="round" stroke-linejoin="round" stroke-dasharray="0,5.6667" x1="740.333" y1="227.2" x2="102.83" y2="227.2"/>
			
				<line fill="none" stroke="#000000" stroke-linecap="round" stroke-linejoin="round" x1="99.997" y1="227.2" x2="99.997" y2="227.2"/>
		</g>
	</g>
	<text transform="matrix(1 0 0 1 69.7798 509)" fill="#004261" font-family="'AvenirNext-Regular'" font-size="14.1732">0</text>
	<text transform="matrix(1 0 0 1 61.5596 468.5996)" fill="#004261" font-family="'AvenirNext-Regular'" font-size="14.1732">20</text>
	<text transform="matrix(1 0 0 1 96.4653 544.5996)" fill="#231F20" font-family="'AvenirNext-Regular'" font-size="17.0079">1900</text>
	<text transform="matrix(1 0 0 1 185.9668 544.5996)" fill="#231F20" font-family="'AvenirNext-Regular'" font-size="17.0079">1955</text>
	<text transform="matrix(1 0 0 1 324.9668 544.5996)" fill="#231F20" font-family="'AvenirNext-Regular'" font-size="17.0079">1965</text>
	<text transform="matrix(1 0 0 1 459.9668 544.5996)" fill="#231F20" font-family="'AvenirNext-Regular'" font-size="17.0079">1975</text>
	<text transform="matrix(1 0 0 1 583.9668 544.5996)" fill="#231F20" font-family="'AvenirNext-Regular'" font-size="17.0079">1985</text>
	<text transform="matrix(1 0 0 1 695.9668 544.5996)" fill="#231F20" font-family="'AvenirNext-Regular'" font-size="17.0079">1995</text>
	<text transform="matrix(1 0 0 1 61.5596 428.2002)" fill="#004261" font-family="'AvenirNext-Regular'" font-size="14.1732">40</text>
	<text transform="matrix(1 0 0 1 766 475.04)" fill="#F05A22" font-family="'AvenirNext-Regular'" font-size="14.1732">1</text>
	<text transform="matrix(1 0 0 1 766 515)" fill="#F05A22" font-family="'AvenirNext-Regular'" font-size="14.1732">0</text>
	<text transform="matrix(1 0 0 1 766 435.0801)" fill="#F05A22" font-family="'AvenirNext-Regular'" font-size="14.1732">2</text>
	<text transform="matrix(1 0 0 1 766 395.1201)" fill="#F05A22" font-family="'AvenirNext-Regular'" font-size="14.1732">3</text>
	<text transform="matrix(1 0 0 1 766 355.1602)" fill="#F05A22" font-family="'AvenirNext-Regular'" font-size="14.1732">4</text>
	<text transform="matrix(1 0 0 1 766 315.2002)" fill="#F05A22" font-family="'AvenirNext-Regular'" font-size="14.1732">5</text>
	<text transform="matrix(1 0 0 1 766 275.2402)" fill="#F05A22" font-family="'AvenirNext-Regular'" font-size="14.1732">6</text>
	<text transform="matrix(1 0 0 1 766 235.2803)" fill="#F05A22" font-family="'AvenirNext-Regular'" font-size="14.1732">7</text>
	<text transform="matrix(1 0 0 1 766 195.3203)" fill="#F05A22" font-family="'AvenirNext-Regular'" font-size="14.1732">8</text>
	<text transform="matrix(1 0 0 1 766 155.3594)" fill="#F05A22" font-family="'AvenirNext-Regular'" font-size="14.1732">9</text>
	<text transform="matrix(1 0 0 1 766 115.4004)" fill="#F05A22" font-family="'AvenirNext-Regular'" font-size="14.1732">10</text>
	<text transform="matrix(1 0 0 1 788.999 115.4004)" fill="#F05A22" font-family="'AvenirNext-Regular'" font-size="14.1732">ZUURSTOF </text>
	<text transform="matrix(1 0 0 1 788.999 132.4082)" fill="#F05A22" font-family="'AvenirNext-Regular'" font-size="14.1732">MG/L O</text>
	
		<text transform="matrix(0.583 0 0 0.583 840.6602 127.6885)" fill="#F05A22" font-family="'AvenirNext-Regular'" font-size="14.1732">2</text>
	<text transform="matrix(1 0 0 1 310.498 49.4004)" fill="#004261" font-family="'AvenirNext-Medium'" font-size="14.1732">Zuurstof en Biodiversiteit in de Rijn</text>
	<text transform="matrix(1 0 0 1 61.5596 387.7998)" fill="#004261" font-family="'AvenirNext-Regular'" font-size="14.1732">60</text>
	<text transform="matrix(1 0 0 1 61.5596 347.4004)" fill="#004261" font-family="'AvenirNext-Regular'" font-size="14.1732">80</text>
	<text transform="matrix(1 0 0 1 53.3394 307)" fill="#004261" font-family="'AvenirNext-Regular'" font-size="14.1732">100</text>
	<text transform="matrix(1 0 0 1 53.3394 266.6006)" fill="#004261" font-family="'AvenirNext-Regular'" font-size="14.1732">120</text>
	<text transform="matrix(1 0 0 1 53.3394 226.2002)" fill="#004261" font-family="'AvenirNext-Regular'" font-size="14.1732">140</text>
	<text transform="matrix(1 0 0 1 53.3394 185.8008)" fill="#004261" font-family="'AvenirNext-Regular'" font-size="14.1732">160</text>
	<text transform="matrix(1 0 0 1 53.3394 145.4004)" fill="#004261" font-family="'AvenirNext-Regular'" font-size="14.1732">180</text>
	<text transform="matrix(1 0 0 1 10.125 115.4004)" fill="#004261" font-family="'AvenirNext-Regular'" font-size="14.1732">SOORTEN</text>
	<text transform="matrix(1 0 0 1 698.2188 90.2046)" fill="#231F20" font-family="'AvenirNext-Regular'" font-size="11.3386">Sponzen</text>
	<text transform="matrix(1 0 0 1 603.6953 91.3892)" fill="#231F20" font-family="'AvenirNext-Regular'" font-size="11.3386">Platwormen</text>
	<text transform="matrix(1 0 0 1 501.8535 91.3887)" fill="#231F20" font-family="'AvenirNext-Regular'" font-size="11.3386">Bloedzuigers</text>
	<text transform="matrix(1 0 0 1 400.915 91.3887)" fill="#231F20" font-family="'AvenirNext-Regular'" font-size="11.3386">Schaaldieren</text>
	<text transform="matrix(1 0 0 1 310.498 91.3892)" fill="#231F20" font-family="'AvenirNext-Regular'" font-size="11.3386">Weekdieren</text>
	<text transform="matrix(1 0 0 1 228.1372 91.3892)" fill="#231F20" font-family="'AvenirNext-Regular'" font-size="11.3386">Insecten</text>
	<text transform="matrix(1 0 0 1 120.0244 91.3887)" fill="#231F20" font-family="'AvenirNext-Regular'" font-size="11.3386">Mosseldiertjes</text>
</g>
<g id="Layer_3">
	<polygon fill="#B3C7D7" stroke="#000000" stroke-width="0.7087" stroke-miterlimit="10" points="746,485 535,500 317,500 216,500 
		99.997,485 99.997,509 746,509 	"/>
	<polygon fill="#8DA5BB" stroke="#000000" stroke-width="0.7087" stroke-miterlimit="10" points="746,485 746,468.6 529.5,490.5 
		212.5,493 99.997,480.8 99.997,485 212.066,499.491 535,500 	"/>
	<polygon fill="#6D89A2" stroke="#000000" stroke-width="0.7087" stroke-miterlimit="10" points="746,468.6 746,440.5 625,451.5 
		532.5,478 398,484.3 219,473 99.997,465.5 99.997,480.8 212.5,493 529.5,490.5 	"/>
	<polygon fill="#5D7D97" stroke="#000000" stroke-width="0.7087" stroke-miterlimit="10" points="746,428.2 746,440.5 625,451.5 
		532.5,478 393.333,485 99.997,465.5 99.997,456.6 206,466.75 407.333,468.6 523.334,466.75 634,431.667 	"/>
	<polygon fill="#3E6782" stroke="#000000" stroke-width="0.7087" stroke-miterlimit="10" points="746,365 626,387.8 522.667,456.6 
		402,456.6 215.333,440.5 99.997,414.333 99.997,456.6 206,466.75 403.329,468.562 523.334,466.75 634,431.667 746,428.2 	"/>
	<polygon fill="#195371" stroke="#000000" stroke-width="0.7087" stroke-miterlimit="10" points="746,185.8 621.334,305 
		529.334,444.5 415.945,454.333 222.667,422.333 99.997,167.667 99.997,414.333 215.333,440.5 406,456.6 522.667,456.6 626,387.8 
		746,365 	"/>
	<polygon fill="#004261" stroke="#000000" stroke-width="0.7087" stroke-miterlimit="10" points="99.997,145.4 222,407.667 
		415.945,449 525.334,440.5 618.667,285 746,155.36 746,185.8 620.015,307 529.334,444.5 415.945,454.333 222.667,422.333 
		101.166,170.093 	"/>
	
		<rect x="674" y="75.781" fill="#B3C7D7" stroke="#000000" stroke-width="0.7087" stroke-miterlimit="10" width="15.607" height="15.609"/>
	
		<rect x="575.46" y="75.782" fill="#8DA5BB" stroke="#000000" stroke-width="0.7087" stroke-miterlimit="10" width="15.607" height="15.608"/>
	
		<rect x="479.695" y="75.782" fill="#6D89A2" stroke="#000000" stroke-width="0.7087" stroke-miterlimit="10" width="15.607" height="15.608"/>
	
		<rect x="378.32" y="75.782" fill="#5D7D97" stroke="#000000" stroke-width="0.7087" stroke-miterlimit="10" width="15.608" height="15.608"/>
	
		<rect x="282.087" y="75.782" fill="#3E6782" stroke="#000000" stroke-width="0.7087" stroke-miterlimit="10" width="15.608" height="15.607"/>
	
		<rect x="205.695" y="75.782" fill="#195371" stroke="#000000" stroke-width="0.7087" stroke-miterlimit="10" width="15.607" height="15.608"/>
	
		<rect x="99.997" y="75.782" fill="#004261" stroke="#000000" stroke-width="0.7087" stroke-miterlimit="10" width="15.608" height="15.607"/>
</g>
<g id="oxygen_x5F_levels">
	<path fill="none" stroke="#F05A22" stroke-width="1.4173" stroke-miterlimit="10" d="M746,139.003L729.875,115.4l-5.039,16.859
		l-27.21-0.843c0,0-10.078,25.29-21.164,17.703s-18.141-11.802-18.141-11.802l-15.117,5.901h-5.039l-33.257,25.29l-29.227-19.389
		l-21.164,19.389h-23.179l-28.219,33.438l-5.039,8.712l-19.148,54.794l-17.132,32.033l-20.156-12.14l-16.127,34.058l-40.31,19.388
		L352.958,360l-12.094-40.598l-6-26.773l-11.133,37.731l-7-32.033l-9.125-26.976l-7.055-12.409l-20.156-3.607l-18.141,3.607
		l-18.131,41.071l-31.251-20.232l-13.101-6.743l-18.141,19.591v-14.533l-14.109-26.808l-21.688,14.308l-24.67-27.896l-21.167-11.259
		"/>
</g>
<g id="LINES">
</g>
<g id="TEXT">
	
		<rect x="99.997" y="105" fill="none" stroke="#000000" stroke-width="2.8347" stroke-miterlimit="10" width="646.003" height="404"/>
</g>
</svg>
