<svg version="1.1" id="drop" xmlns="http://www.w3.org/2000/svg" xmlns:xlink="http://www.w3.org/1999/xlink" x="0px" y="0px"
	 viewBox="132.2 -7 1015.8 813" enable-background="new 132.2 -7 1015.8 813" xml:space="preserve">
<g>
	<g>
		<g>
			<g>
				<path d="M533.2,800c-36.2,0-65.9-29.5-65.9-65.6c0-35,59.6-103.7,62.3-106.6c1.9-2.2,5.5-2.2,7.2,0
					c2.6,2.9,62.3,71.6,62.3,106.6C599,770.5,569.6,800,533.2,800z M533.2,638.1c-18.4,22-56.3,71.9-56.3,96c0,30.9,25.1,56,56.3,56
					s56.3-25.1,56.3-56C589.5,709.9,551.9,660.1,533.2,638.1z"/>
			</g>
		</g>
		<g>
			<g>
				<path d="M532.7,772.2c-2.6,0-4.8-2.2-4.8-4.8c0-2.6,2.2-4.8,4.8-4.8c16.8,0,30.2-13.7,30.2-30.2
					c0-2.6,2.2-4.8,4.8-4.8s4.8,2.2,4.8,4.8C572.5,754.3,554.7,772.2,532.7,772.2z"/>
			</g>
		</g>
	</g>
</g>
</svg>
