<?xml version="1.0" encoding="utf-8"?>
<!-- Generator: Adobe Illustrator 16.0.0, SVG Export Plug-In . SVG Version: 6.00 Build 0)  -->
<!DOCTYPE svg PUBLIC "-//W3C//DTD SVG 1.1//EN" "http://www.w3.org/Graphics/SVG/1.1/DTD/svg11.dtd">
<svg version="1.1" id="Layer_1" xmlns="http://www.w3.org/2000/svg" xmlns:xlink="http://www.w3.org/1999/xlink" x="0px" y="0px"
	 width="841.89px" height="842px" viewBox="0 0 841.89 842" enable-background="new 0 0 841.89 842" xml:space="preserve">
<g>
	<g>
		<g>
			<g>
				<path fill="#F5EB23" d="M134.061,340.207l46.759,115.73c-63.916,25.823-136.665-5.057-162.489-68.973
					S23.387,250.3,87.303,224.477c15.34-6.197,30.213-9.088,46.758-9.088V340.207L134.061,340.207z"/>
			</g>
		</g>
		<g>
			<g>
				<path fill="#2EC4F0" d="M134.061,340.207l95.617-80.232c44.311,52.809,37.423,131.539-15.385,175.85
					c-10.561,8.861-20.69,14.948-33.473,20.113L134.061,340.207z"/>
			</g>
		</g>
		<g>
			<g>
				<path fill="#EE2934" d="M134.061,340.207l52.751-113.124c17.494,8.158,30.459,18.106,42.867,32.894L134.061,340.207z"/>
			</g>
		</g>
		<g>
			<g>
				<path fill="#048442" d="M134.061,340.207l21.675-122.923c10.862,1.915,21.08,5.137,31.076,9.798L134.061,340.207z"/>
			</g>
		</g>
		<g>
			<g>
				<path fill="#E43293" d="M134.061,340.207l6.533-124.647c5.507,0.289,9.71,0.768,15.142,1.725L134.061,340.207z"/>
			</g>
		</g>
		<g>
			<g>
				<path fill="#6CBE45" d="M134.061,340.207V215.389c2.758,0,3.779,0.026,6.533,0.171L134.061,340.207z"/>
			</g>
		</g>
	</g>
</g>
<circle fill="#FFFFFF" cx="134.061" cy="340.207" r="83.537"/>
<rect x="23.295" y="75.304" fill="#048442" width="18.407" height="18.406"/>
<rect x="23.295" y="9.482" fill="#6CBE45" width="18.407" height="18.407"/>
<rect x="23.295" y="42.393" fill="#E43293" width="18.407" height="18.406"/>
<rect x="23.295" y="174.034" fill="#F5EB23" width="18.407" height="18.407"/>
<rect x="23.295" y="108.214" fill="#EE2934" width="18.407" height="18.406"/>
<rect x="23.295" y="141.124" fill="#2EC4F0" width="18.407" height="18.407"/>
<text transform="matrix(1 0 0 1 50.5239 22.9053)" font-family="'AvenirNext-Regular'" font-size="16.0541">1%</text>
<text transform="matrix(1 0 0 1 73.2075 22.9053)" font-family="'AvenirNext-Regular'" font-size="16.0541"> </text>
<text transform="matrix(1 0 0 1 76.0103 22.9053)" font-family="'AvenirNext-Regular'" font-size="16.0541" letter-spacing="21"> </text>
<text transform="matrix(1 0 0 1 101.4956 22.9053)" font-family="'AvenirNext-Regular'" font-size="16.0541">Sport &amp; Parken</text>
<text transform="matrix(1 0 0 1 50.5239 55.6675)" font-family="'AvenirNext-Regular'" font-size="16.0541">2%</text>
<text transform="matrix(1 0 0 1 73.2075 55.6675)" font-family="'AvenirNext-Regular'" font-size="16.0541"> </text>
<text transform="matrix(1 0 0 1 76.0103 55.6675)" font-family="'AvenirNext-Regular'" font-size="16.0541" letter-spacing="21"> </text>
<text transform="matrix(1 0 0 1 101.4956 55.6675)" font-family="'AvenirNext-Regular'" font-size="16.0541">Industrie, Havens</text>
<text transform="matrix(1 0 0 1 50.5239 88.4297)" font-family="'AvenirNext-Regular'" font-size="16.0541">4 %</text>
<text transform="matrix(1 0 0 1 77.2212 88.4297)" font-family="'AvenirNext-Regular'" font-size="16.0541" letter-spacing="19"> </text>
<text transform="matrix(1 0 0 1 101.4951 88.4297)" font-family="'AvenirNext-Regular'" font-size="16.0541">Natuur</text>
<text transform="matrix(1 0 0 1 50.5239 121.1914)" font-family="'AvenirNext-Regular'" font-size="16.0541">7%</text>
<text transform="matrix(1 0 0 1 73.2075 121.1914)" font-family="'AvenirNext-Regular'" font-size="16.0541"> </text>
<text transform="matrix(1 0 0 1 76.0103 121.1914)" font-family="'AvenirNext-Regular'" font-size="16.0541" letter-spacing="21"> </text>
<text transform="matrix(1 0 0 1 101.4956 121.1914)" font-family="'AvenirNext-Regular'" font-size="16.0541">Stedelijk</text>
<text transform="matrix(1 0 0 1 50.5239 153.9541)" font-family="'AvenirNext-Regular'" font-size="16.0541">30%</text>
<text transform="matrix(1 0 0 1 82.5186 153.9541)" font-family="'AvenirNext-Regular'" font-size="16.0541" letter-spacing="14"> </text>
<text transform="matrix(1 0 0 1 101.4956 153.9541)" font-family="'AvenirNext-Regular'" font-size="16.0541">Water</text>
<text transform="matrix(1 0 0 1 50.5239 186.7158)" font-family="'AvenirNext-Regular'" font-size="16.0541">56%</text>
<text transform="matrix(1 0 0 1 82.5186 186.7158)" font-family="'AvenirNext-Regular'" font-size="16.0541" letter-spacing="14"> </text>
<text transform="matrix(1 0 0 1 101.4956 186.7158)" font-family="'AvenirNext-Regular'" font-size="16.0541">Landbouw</text>
<text transform="matrix(1 0 0 1 79.4136 318.3867)" font-family="'AvenirNext-Regular'" font-size="16.0541">% Oppervlakte</text>
<text transform="matrix(1 0 0 1 73.1284 337.6514)" font-family="'AvenirNext-Regular'" font-size="16.0541">Grondgebruik in</text>
<text transform="matrix(1 0 0 1 88.2993 356.917)" font-family="'AvenirNext-Regular'" font-size="16.0541">Waterschap </text>
<text transform="matrix(1 0 0 1 64.5962 376.1816)" font-family="'AvenirNext-Regular'" font-size="16.0541">Amstel-Gooi-Vecht</text>
</svg>
