<?xml version="1.0" encoding="utf-8"?>
<!-- Generator: Adobe Illustrator 18.0.0, SVG Export Plug-In . SVG Version: 6.00 Build 0)  -->
<!DOCTYPE svg PUBLIC "-//W3C//DTD SVG 1.1//EN" "http://www.w3.org/Graphics/SVG/1.1/DTD/svg11.dtd">
<svg version="1.1" id="Layer_1" xmlns="http://www.w3.org/2000/svg" xmlns:xlink="http://www.w3.org/1999/xlink" x="0px" y="0px"
	 viewBox="0 0 156 28" enable-background="new 0 0 156 28" xml:space="preserve">
<g>
	<g>
		<path fill="#333333" d="M7.1,8.9L5.2,5.5H4.5v3.5h-2V0.2h3.3c0.4,0,0.8,0,1.2,0.1C7.4,0.4,7.7,0.6,8,0.8C8.3,1,8.6,1.3,8.8,1.6
			C9,1.9,9.1,2.4,9.1,2.9c0,0.6-0.2,1.1-0.5,1.5C8.3,4.8,7.8,5,7.3,5.2l2.3,3.7H7.1z M7,2.9c0-0.2,0-0.4-0.1-0.5
			C6.8,2.3,6.7,2.2,6.5,2.1C6.4,2,6.3,2,6.1,2s-0.3,0-0.5,0H4.5v2h1c0.2,0,0.3,0,0.5,0s0.3-0.1,0.5-0.2c0.1-0.1,0.3-0.2,0.4-0.3
			C6.9,3.3,7,3.1,7,2.9z"/>
		<path fill="#333333" d="M16.1,8.9l-0.7-1.7h-3.3l-0.6,1.7H9.2l3.6-8.7h2l3.6,8.7H16.1z M13.8,2.6l-1.1,3h2.2L13.8,2.6z"/>
		<path fill="#333333" d="M26.9,4.6c0,0.8-0.1,1.4-0.4,2c-0.3,0.6-0.7,1-1.1,1.4c-0.5,0.4-1,0.6-1.6,0.8c-0.6,0.2-1.2,0.3-1.8,0.3
			h-3.2V0.2h3.1c0.6,0,1.2,0.1,1.8,0.2c0.6,0.1,1.1,0.4,1.6,0.7c0.5,0.3,0.8,0.8,1.1,1.3C26.7,3.1,26.9,3.7,26.9,4.6z M24.7,4.6
			c0-0.5-0.1-0.9-0.2-1.2c-0.2-0.3-0.4-0.6-0.6-0.8c-0.3-0.2-0.6-0.3-0.9-0.4c-0.3-0.1-0.7-0.1-1-0.1h-1v5.1h1c0.4,0,0.7,0,1.1-0.1
			c0.3-0.1,0.6-0.2,0.9-0.4c0.3-0.2,0.5-0.5,0.6-0.8C24.6,5.4,24.7,5,24.7,4.6z"/>
		<path fill="#333333" d="M27.9,8.9V0.2h5.8V2h-3.8v1.6h3.6v1.7h-3.6v1.8h4v1.8H27.9z"/>
		<path fill="#333333" d="M42.8,8.9l0-6.2h0l-2.2,6.2h-1.5L37,2.8h0l0,6.2h-2V0.2h3l2,5.6h0l1.9-5.6h3v8.7H42.8z"/>
		<path fill="#333333" d="M52.2,8.9l-0.7-1.7h-3.3l-0.6,1.7h-2.3l3.6-8.7h2l3.6,8.7H52.2z M49.9,2.6l-1.1,3H51L49.9,2.6z"/>
		<path fill="#333333" d="M60.9,8.8C60.3,9,59.7,9.2,59,9.2c-0.7,0-1.3-0.1-1.8-0.3c-0.6-0.2-1.1-0.5-1.5-0.9
			c-0.4-0.4-0.7-0.9-1-1.5c-0.2-0.6-0.4-1.2-0.4-1.9c0-0.7,0.1-1.3,0.4-1.9c0.2-0.6,0.6-1,1-1.4c0.4-0.4,0.9-0.7,1.5-0.9
			C57.7,0.1,58.3,0,59,0c0.6,0,1.2,0.1,1.8,0.3c0.6,0.2,1.1,0.5,1.4,1l-1.4,1.4c-0.2-0.3-0.5-0.5-0.8-0.6c-0.3-0.1-0.6-0.2-1-0.2
			c-0.4,0-0.7,0.1-1,0.2c-0.3,0.1-0.6,0.3-0.8,0.6c-0.2,0.2-0.4,0.5-0.5,0.8c-0.1,0.3-0.2,0.7-0.2,1.1c0,0.4,0.1,0.8,0.2,1.1
			s0.3,0.6,0.5,0.8C57.5,6.7,57.7,6.9,58,7c0.3,0.1,0.6,0.2,1,0.2c0.4,0,0.8-0.1,1.1-0.2c0.3-0.2,0.6-0.4,0.7-0.6l1.4,1.4
			C61.9,8.2,61.4,8.5,60.9,8.8z"/>
		<path fill="#333333" d="M68.3,8.9V5.3H65v3.6h-2.1V0.2H65v3.3h3.4V0.2h2.1v8.7H68.3z"/>
		<path fill="#333333" d="M71.9,8.9V0.2h5.8V2h-3.8v1.6h3.6v1.7h-3.6v1.8h4v1.8H71.9z"/>
		<path fill="#333333" d="M83.6,8.9l-1.9-3.5H81v3.5h-2V0.2h3.3c0.4,0,0.8,0,1.2,0.1c0.4,0.1,0.7,0.2,1.1,0.4
			c0.3,0.2,0.6,0.5,0.7,0.8c0.2,0.3,0.3,0.8,0.3,1.3c0,0.6-0.2,1.1-0.5,1.5c-0.3,0.4-0.8,0.7-1.3,0.9L86,8.9H83.6z M83.5,2.9
			c0-0.2,0-0.4-0.1-0.5c-0.1-0.1-0.2-0.2-0.3-0.3C82.9,2,82.8,2,82.6,2c-0.2,0-0.3,0-0.5,0H81v2h1c0.2,0,0.3,0,0.5,0
			s0.3-0.1,0.5-0.2c0.1-0.1,0.3-0.2,0.4-0.3C83.5,3.3,83.5,3.1,83.5,2.9z"/>
		<path fill="#333333" d="M95.6,8.9l-0.8-0.8c-0.3,0.3-0.6,0.5-1,0.7c-0.4,0.2-0.9,0.3-1.5,0.3c-0.4,0-0.8-0.1-1.1-0.2
			c-0.4-0.1-0.7-0.3-1-0.5c-0.3-0.2-0.5-0.5-0.7-0.8c-0.2-0.3-0.3-0.7-0.3-1.1c0-0.3,0-0.6,0.1-0.8c0.1-0.3,0.2-0.5,0.4-0.7
			c0.2-0.2,0.4-0.4,0.6-0.5c0.2-0.1,0.4-0.3,0.7-0.4c-0.3-0.3-0.5-0.5-0.6-0.9c-0.2-0.3-0.2-0.7-0.2-1c0-0.4,0.1-0.7,0.2-1
			c0.2-0.3,0.4-0.5,0.6-0.7c0.3-0.2,0.5-0.3,0.9-0.4C92.1,0,92.4,0,92.8,0c0.3,0,0.6,0,1,0.1c0.3,0.1,0.6,0.2,0.8,0.4
			c0.2,0.2,0.4,0.4,0.6,0.7c0.2,0.3,0.2,0.6,0.2,1c0,0.3,0,0.5-0.1,0.8c-0.1,0.2-0.2,0.4-0.4,0.6c-0.2,0.2-0.3,0.4-0.6,0.5
			c-0.2,0.1-0.4,0.3-0.7,0.4l1.1,1.1l0.9-1.3h2.2L96,6.8l2.1,2.2H95.6z M92.1,5.3c-0.2,0.1-0.5,0.2-0.6,0.4
			c-0.2,0.2-0.3,0.4-0.3,0.8c0,0.2,0,0.3,0.1,0.5c0.1,0.1,0.2,0.3,0.3,0.3c0.1,0.1,0.2,0.2,0.4,0.2c0.1,0,0.3,0.1,0.4,0.1
			c0.3,0,0.5-0.1,0.7-0.2c0.2-0.1,0.4-0.3,0.5-0.5L92.1,5.3z M93.6,2.3c0-0.2-0.1-0.4-0.2-0.6c-0.1-0.2-0.3-0.2-0.6-0.2
			c-0.2,0-0.4,0.1-0.6,0.2S92,2,92,2.3c0,0.2,0.1,0.4,0.2,0.6c0.1,0.2,0.3,0.4,0.5,0.5c0.3-0.1,0.5-0.3,0.7-0.5
			C93.5,2.8,93.6,2.5,93.6,2.3z"/>
		<path fill="#333333" d="M109.5,4.6c0,0.8-0.1,1.4-0.4,2c-0.3,0.6-0.7,1-1.1,1.4c-0.5,0.4-1,0.6-1.6,0.8c-0.6,0.2-1.2,0.3-1.8,0.3
			h-3.2V0.2h3.1c0.6,0,1.2,0.1,1.8,0.2c0.6,0.1,1.1,0.4,1.6,0.7c0.5,0.3,0.8,0.8,1.1,1.3C109.4,3.1,109.5,3.7,109.5,4.6z M107.3,4.6
			c0-0.5-0.1-0.9-0.2-1.2c-0.2-0.3-0.4-0.6-0.6-0.8c-0.3-0.2-0.6-0.3-0.9-0.4c-0.3-0.1-0.7-0.1-1-0.1h-1v5.1h1c0.4,0,0.7,0,1.1-0.1
			c0.3-0.1,0.6-0.2,0.9-0.4c0.3-0.2,0.5-0.5,0.6-0.8S107.3,5,107.3,4.6z"/>
		<path fill="#333333" d="M110.6,8.9V0.2h5.8V2h-3.8v1.6h3.6v1.7h-3.6v1.8h4v1.8H110.6z"/>
		<path fill="#333333" d="M124.5,8.9h-2.1l-3.3-8.7h2.3l2,6.2h0l2-6.2h2.3L124.5,8.9z"/>
		<path fill="#333333" d="M132.8,8.9l-1.9-3.5h-0.7v3.5h-2V0.2h3.3c0.4,0,0.8,0,1.2,0.1c0.4,0.1,0.7,0.2,1.1,0.4
			c0.3,0.2,0.6,0.5,0.7,0.8c0.2,0.3,0.3,0.8,0.3,1.3c0,0.6-0.2,1.1-0.5,1.5C134,4.8,133.5,5,133,5.2l2.3,3.7H132.8z M132.7,2.9
			c0-0.2,0-0.4-0.1-0.5c-0.1-0.1-0.2-0.2-0.3-0.3C132.1,2,132,2,131.8,2s-0.3,0-0.5,0h-1.1v2h1c0.2,0,0.3,0,0.5,0
			c0.2,0,0.3-0.1,0.5-0.2c0.1-0.1,0.3-0.2,0.4-0.3C132.7,3.3,132.7,3.1,132.7,2.9z"/>
		<path fill="#333333" d="M136,8.9V0.2h2.1v8.7H136z"/>
		<path fill="#333333" d="M139.5,8.9V0.2h5.8V2h-3.8v1.6h3.6v1.7h-3.6v1.8h4v1.8H139.5z"/>
		<path fill="#333333" d="M151.2,2.5c-0.2-0.2-0.4-0.4-0.7-0.5c-0.3-0.1-0.6-0.2-0.8-0.2c-0.1,0-0.3,0-0.4,0c-0.1,0-0.3,0.1-0.4,0.1
			c-0.1,0.1-0.2,0.2-0.3,0.3c-0.1,0.1-0.1,0.3-0.1,0.4c0,0.1,0,0.3,0.1,0.4c0.1,0.1,0.2,0.2,0.3,0.3c0.1,0.1,0.3,0.1,0.4,0.2
			c0.2,0.1,0.3,0.1,0.5,0.2c0.3,0.1,0.6,0.2,0.9,0.3c0.3,0.1,0.6,0.3,0.9,0.5c0.3,0.2,0.5,0.4,0.6,0.7c0.2,0.3,0.3,0.7,0.3,1.1
			c0,0.5-0.1,0.9-0.3,1.3c-0.2,0.4-0.4,0.7-0.7,0.9c-0.3,0.2-0.7,0.4-1.1,0.5c-0.4,0.1-0.8,0.2-1.2,0.2c-0.6,0-1.2-0.1-1.8-0.3
			c-0.6-0.2-1.1-0.5-1.4-0.9l1.4-1.4c0.2,0.3,0.5,0.5,0.8,0.7c0.3,0.2,0.7,0.3,1,0.3c0.2,0,0.3,0,0.5,0c0.1,0,0.3-0.1,0.4-0.2
			c0.1-0.1,0.2-0.2,0.3-0.3c0.1-0.1,0.1-0.3,0.1-0.4c0-0.2,0-0.3-0.1-0.4c-0.1-0.1-0.2-0.2-0.3-0.3c-0.2-0.1-0.3-0.2-0.6-0.3
			c-0.2-0.1-0.5-0.2-0.8-0.3c-0.3-0.1-0.5-0.2-0.8-0.3c-0.3-0.1-0.5-0.3-0.7-0.5c-0.2-0.2-0.4-0.4-0.5-0.7c-0.1-0.3-0.2-0.6-0.2-1
			c0-0.5,0.1-0.9,0.3-1.2c0.2-0.3,0.5-0.6,0.8-0.8c0.3-0.2,0.7-0.4,1.1-0.5c0.4-0.1,0.8-0.2,1.2-0.2c0.5,0,1,0.1,1.5,0.3
			c0.5,0.2,1,0.4,1.3,0.8L151.2,2.5z"/>
	</g>
	<g>
		<path fill="#333333" d="M43.1,27.9h-0.9l3.5-8.1h0.8l3.5,8.1H49l-0.9-2.1H44L43.1,27.9z M44.3,25h3.5L46,20.7L44.3,25z"/>
		<path fill="#333333" d="M53.3,23.1c0-0.2,0-0.4,0-0.6H54c0,0.1,0,0.3,0,0.5c0,0.2,0,0.3,0,0.4h0c0.2-0.3,0.4-0.6,0.7-0.8
			c0.3-0.2,0.6-0.3,1-0.3c0.1,0,0.2,0,0.3,0c0.1,0,0.2,0,0.2,0l-0.1,0.7c0,0-0.1,0-0.2,0c-0.1,0-0.2,0-0.3,0c-0.2,0-0.4,0-0.6,0.1
			c-0.2,0.1-0.4,0.2-0.5,0.4c-0.1,0.2-0.3,0.4-0.3,0.6c-0.1,0.3-0.1,0.6-0.1,0.9v2.7h-0.8v-4.2C53.3,23.5,53.3,23.3,53.3,23.1z"/>
		<path fill="#333333" d="M63.3,23.7c-0.1-0.2-0.3-0.4-0.6-0.5c-0.2-0.1-0.5-0.2-0.8-0.2c-0.3,0-0.6,0.1-0.8,0.2
			c-0.2,0.1-0.5,0.3-0.6,0.5c-0.2,0.2-0.3,0.4-0.4,0.7c-0.1,0.3-0.1,0.5-0.1,0.9c0,0.3,0,0.6,0.1,0.8c0.1,0.3,0.2,0.5,0.4,0.7
			c0.2,0.2,0.4,0.3,0.6,0.5c0.2,0.1,0.5,0.2,0.8,0.2c0.3,0,0.6-0.1,0.9-0.2c0.2-0.1,0.4-0.3,0.6-0.5l0.6,0.4
			c-0.2,0.3-0.5,0.5-0.8,0.7c-0.3,0.2-0.7,0.3-1.2,0.3c-0.4,0-0.8-0.1-1.2-0.2c-0.3-0.1-0.6-0.3-0.9-0.6c-0.2-0.3-0.4-0.5-0.6-0.9
			c-0.1-0.3-0.2-0.7-0.2-1.1c0-0.4,0.1-0.8,0.2-1.1c0.1-0.3,0.3-0.6,0.6-0.9c0.2-0.3,0.5-0.4,0.9-0.6c0.3-0.1,0.7-0.2,1.2-0.2
			c0.4,0,0.7,0.1,1.1,0.2c0.4,0.2,0.7,0.4,0.9,0.7L63.3,23.7z"/>
		<path fill="#333333" d="M68.2,23.4c0.1-0.3,0.4-0.6,0.7-0.7c0.3-0.2,0.7-0.3,1.1-0.3c0.7,0,1.2,0.2,1.5,0.6
			c0.3,0.4,0.5,0.9,0.5,1.6v3.3h-0.8v-3c0-0.3,0-0.5-0.1-0.8c0-0.2-0.1-0.4-0.2-0.6c-0.1-0.2-0.3-0.3-0.4-0.4
			c-0.2-0.1-0.4-0.1-0.7-0.1c-0.2,0-0.4,0-0.6,0.1c-0.2,0.1-0.4,0.2-0.5,0.4c-0.2,0.2-0.3,0.4-0.4,0.7c-0.1,0.3-0.1,0.6-0.1,0.9v2.8
			h-0.8v-8.7h0.8L68.2,23.4L68.2,23.4z"/>
		<path fill="#333333" d="M77.3,20.4c0,0.2-0.1,0.3-0.2,0.4C77,20.9,76.9,21,76.7,21c-0.1,0-0.3-0.1-0.4-0.2
			c-0.1-0.1-0.2-0.2-0.2-0.4c0-0.2,0.1-0.3,0.2-0.4c0.1-0.1,0.2-0.2,0.4-0.2c0.1,0,0.3,0.1,0.4,0.2C77.2,20.1,77.3,20.3,77.3,20.4z
			 M77.1,27.9h-0.8v-5.4h0.8V27.9z"/>
		<path fill="#333333" d="M83.8,23.2h-1.5v3.1c0,0.2,0,0.4,0.1,0.5c0,0.1,0.1,0.2,0.2,0.3c0.1,0.1,0.2,0.1,0.3,0.1
			c0.1,0,0.2,0,0.3,0c0.1,0,0.2,0,0.3,0c0.1,0,0.2-0.1,0.3-0.1l0,0.7c-0.1,0.1-0.3,0.1-0.4,0.1c-0.1,0-0.3,0-0.5,0
			c-0.1,0-0.3,0-0.5-0.1c-0.2,0-0.3-0.1-0.4-0.2c-0.1-0.1-0.2-0.3-0.3-0.4c-0.1-0.2-0.1-0.4-0.1-0.7v-3.3h-1.1v-0.7h1.1V21h0.8v1.5
			h1.5V23.2z"/>
		<path fill="#333333" d="M92.1,25c0,0.1,0,0.1,0,0.2c0,0.1,0,0.1,0,0.2h-4.4c0,0.3,0.1,0.5,0.2,0.8c0.1,0.2,0.2,0.4,0.4,0.6
			c0.2,0.2,0.4,0.3,0.6,0.4c0.2,0.1,0.5,0.2,0.8,0.2c0.4,0,0.7-0.1,1-0.3c0.3-0.2,0.5-0.4,0.7-0.6l0.6,0.5c-0.3,0.4-0.7,0.7-1.1,0.9
			c-0.4,0.2-0.8,0.3-1.2,0.3c-0.4,0-0.8-0.1-1.1-0.2c-0.3-0.1-0.6-0.3-0.9-0.6c-0.2-0.3-0.4-0.5-0.6-0.9c-0.1-0.3-0.2-0.7-0.2-1.1
			c0-0.4,0.1-0.8,0.2-1.1c0.1-0.3,0.3-0.6,0.6-0.9c0.2-0.3,0.5-0.4,0.9-0.6c0.3-0.1,0.7-0.2,1.1-0.2c0.4,0,0.8,0.1,1.1,0.2
			c0.3,0.1,0.6,0.3,0.8,0.6c0.2,0.2,0.4,0.5,0.5,0.8C92.1,24.3,92.1,24.7,92.1,25z M91.4,24.8c0-0.5-0.2-0.9-0.5-1.3
			c-0.3-0.3-0.7-0.5-1.3-0.5c-0.3,0-0.5,0-0.7,0.1c-0.2,0.1-0.4,0.2-0.6,0.4c-0.2,0.2-0.3,0.4-0.4,0.6c-0.1,0.2-0.2,0.4-0.2,0.7
			H91.4z"/>
		<path fill="#333333" d="M99.9,23.7c-0.1-0.2-0.3-0.4-0.6-0.5c-0.2-0.1-0.5-0.2-0.8-0.2c-0.3,0-0.6,0.1-0.8,0.2
			c-0.2,0.1-0.5,0.3-0.6,0.5c-0.2,0.2-0.3,0.4-0.4,0.7c-0.1,0.3-0.1,0.5-0.1,0.9c0,0.3,0,0.6,0.1,0.8c0.1,0.3,0.2,0.5,0.4,0.7
			c0.2,0.2,0.4,0.3,0.6,0.5c0.2,0.1,0.5,0.2,0.8,0.2c0.3,0,0.6-0.1,0.9-0.2c0.2-0.1,0.4-0.3,0.6-0.5l0.6,0.4
			c-0.2,0.3-0.5,0.5-0.8,0.7C99.4,27.9,99,28,98.5,28c-0.4,0-0.8-0.1-1.2-0.2c-0.3-0.1-0.6-0.3-0.9-0.6c-0.2-0.3-0.4-0.5-0.6-0.9
			c-0.1-0.3-0.2-0.7-0.2-1.1c0-0.4,0.1-0.8,0.2-1.1c0.1-0.3,0.3-0.6,0.6-0.9c0.2-0.3,0.5-0.4,0.9-0.6c0.3-0.1,0.7-0.2,1.2-0.2
			c0.4,0,0.7,0.1,1.1,0.2c0.4,0.2,0.7,0.4,0.9,0.7L99.9,23.7z"/>
		<path fill="#333333" d="M106.4,23.2h-1.5v3.1c0,0.2,0,0.4,0.1,0.5c0,0.1,0.1,0.2,0.2,0.3c0.1,0.1,0.2,0.1,0.3,0.1
			c0.1,0,0.2,0,0.3,0c0.1,0,0.2,0,0.3,0c0.1,0,0.2-0.1,0.3-0.1l0,0.7c-0.1,0.1-0.3,0.1-0.4,0.1c-0.1,0-0.3,0-0.5,0
			c-0.1,0-0.3,0-0.5-0.1c-0.2,0-0.3-0.1-0.4-0.2c-0.1-0.1-0.2-0.3-0.3-0.4c-0.1-0.2-0.1-0.4-0.1-0.7v-3.3H103v-0.7h1.1V21h0.8v1.5
			h1.5V23.2z"/>
		<path fill="#333333" d="M112.7,23.8c-0.1-0.2-0.3-0.4-0.5-0.5c-0.2-0.1-0.5-0.2-0.8-0.2c-0.1,0-0.3,0-0.4,0
			c-0.1,0-0.3,0.1-0.4,0.1c-0.1,0.1-0.2,0.2-0.3,0.3c-0.1,0.1-0.1,0.2-0.1,0.4c0,0.3,0.1,0.4,0.3,0.6c0.2,0.1,0.5,0.2,1,0.3
			c0.6,0.1,1.1,0.3,1.4,0.6c0.3,0.2,0.4,0.6,0.4,1c0,0.3-0.1,0.6-0.2,0.8c-0.1,0.2-0.3,0.4-0.5,0.5c-0.2,0.1-0.4,0.2-0.6,0.3
			c-0.2,0.1-0.5,0.1-0.7,0.1c-0.4,0-0.8-0.1-1.2-0.3c-0.4-0.2-0.7-0.4-0.9-0.8l0.6-0.5c0.1,0.2,0.3,0.4,0.6,0.6
			c0.3,0.2,0.6,0.2,0.9,0.2c0.2,0,0.3,0,0.5,0c0.2,0,0.3-0.1,0.4-0.2c0.1-0.1,0.2-0.2,0.3-0.3c0.1-0.1,0.1-0.3,0.1-0.4
			c0-0.3-0.1-0.5-0.4-0.6c-0.3-0.1-0.7-0.3-1.2-0.4c-0.2,0-0.3-0.1-0.5-0.1c-0.2-0.1-0.3-0.1-0.5-0.3c-0.2-0.1-0.3-0.3-0.4-0.4
			c-0.1-0.2-0.1-0.4-0.1-0.6c0-0.3,0.1-0.5,0.2-0.7c0.1-0.2,0.2-0.4,0.4-0.5c0.2-0.1,0.4-0.2,0.6-0.3c0.2-0.1,0.5-0.1,0.7-0.1
			c0.4,0,0.7,0.1,1.1,0.3c0.3,0.2,0.6,0.4,0.8,0.7L112.7,23.8z"/>
	</g>
	<rect y="14.3" fill="#333333" width="156" height="1"/>
</g>
</svg>
