<?xml version="1.0" encoding="utf-8"?>
<!-- Generator: Adobe Illustrator 18.0.0, SVG Export Plug-In . SVG Version: 6.00 Build 0)  -->
<!DOCTYPE svg PUBLIC "-//W3C//DTD SVG 1.1//EN" "http://www.w3.org/Graphics/SVG/1.1/DTD/svg11.dtd">
<svg version="1.1" id="Layer_1" xmlns="http://www.w3.org/2000/svg" xmlns:xlink="http://www.w3.org/1999/xlink" x="0px" y="0px"
	 viewBox="0 0 752 154" enable-background="new 0 0 752 154" xml:space="preserve">
<g>
	<path fill="#333333" d="M141,64.1c0-0.2,0.1-0.4,0.1-0.5c0-8.6,0.1-17.2-0.2-25.8c-0.1-2.4,0.8-3.7,2.6-4.6c1-0.5,2-1,3.1-1.2
		c3.7-0.8,6.7,0.7,7.8,4.2c0.6,1.7,0.8,3.6,0.9,5.4c0.1,7.1,0,14.2,0,21.3c0,0.4,0,0.9,0,1.3c4.5,0,8.9,0,13.4,0c0-3.5,0-6.9,0-10.2
		c-0.1-5.9,0.2-11.9-0.3-17.8c-0.5-6.7-3.5-12.2-10.1-15.1c-3.8-1.6-7.8-1.8-11.9-1.2c-4,0.6-7.5,2.2-10.4,5
		c-3-3.2-6.6-4.9-10.9-5.2c-4.3-0.4-8.1,0.8-11.8,3.2c0-1,0-1.7,0-2.5c-4.4,0-8.8,0-13.1,0c0,14.7,0,29.2,0,43.8c4.4,0,8.8,0,13.2,0
		c0-0.6,0-1.1,0-1.5c0-8.4,0.1-16.7-0.1-25.1c0-2.1,0.8-3.4,2.5-4.3c0.7-0.4,1.4-0.8,2.2-1c4.7-1.5,8.3,0.6,9.3,5.4
		c0.3,1.4,0.4,2.9,0.5,4.4c0,6.9,0,13.8,0,20.7c0,0.5,0,0.9,0,1.5C132.3,64.1,136.7,64.1,141,64.1z"/>
	<path fill="#333333" d="M206.9,64.2c0.5,0,0.9,0,1.3,0c3.6,0,7.1,0,10.7,0c1.1,0,1.4-0.3,1.4-1.4c0-13.8,0-27.6,0-41.3
		c0-0.4,0-0.8-0.1-1.2c-4.5,0-8.8,0-13.3,0c0,0.5,0,1,0,1.5c0,8.1-0.1,16.3,0.1,24.4c0,2.2-0.8,3.6-2.5,4.7
		c-1.3,0.8-2.7,1.5-4.1,1.8c-4.4,0.9-7.6-1.1-8.9-5.4c-0.4-1.5-0.6-3-0.7-4.6c-0.1-7,0-13.9,0-20.9c0-0.5,0-0.9,0-1.4
		c-4.6,0-8.9,0-13.3,0c0,0.3-0.1,0.6-0.1,0.8c0,7.9,0,15.8,0,23.7c0,1.7,0.2,3.4,0.5,5.1c2.3,13.5,17.2,19.6,28.4,11.7
		c0.1-0.1,0.3-0.1,0.6-0.2C206.9,62.2,206.9,63.1,206.9,64.2z"/>
	<path fill="#333333" d="M439.1,152.2c0-0.5,0-1,0-1.5c0-8.2,0.2-16.3-0.1-24.5c-0.1-2.8,1.1-4.3,3.4-5.3c0.6-0.3,1.2-0.6,1.8-0.7
		c5-1.7,9.3,0.7,10.5,5.8c0.4,1.5,0.5,3.1,0.5,4.6c0.1,6.7,0,13.5,0,20.2c0,0.5,0,0.9,0,1.4c4.5,0,8.8,0,13.3,0c0-0.5,0-1,0-1.5
		c0-7.8,0-15.6,0-23.4c0-1.7-0.2-3.5-0.5-5.2c-2.5-12.7-17.1-18.8-28.1-11.8c-0.2,0.1-0.4,0.2-0.7,0.3c0-0.8-0.1-1.5-0.1-2.3
		c-4.5,0-8.8,0-13.2,0c0,14.7,0,29.3,0,43.9C430.2,152.2,434.6,152.2,439.1,152.2z"/>
	<path fill="#333333" d="M371.5,64.1c0-0.5,0-1,0-1.5c0-8.7,0-17.4,0-26.2c0-0.6,0.2-1.3,0.6-1.7c1.4-1.4,3.2-2.4,5.2-2.9
		c4.5-1.2,8.3,0.9,9.6,5.4c0.5,1.6,0.7,3.4,0.7,5.1c0.1,6.8,0,13.5,0,20.3c0,0.5,0,0.9,0,1.4c4.5,0,8.8,0,13.3,0c0-1,0-1.8,0-2.7
		c0-8.1,0.3-16.2-0.2-24.2c-0.9-14.5-12.5-19.1-22.5-17.3c-2.3,0.4-4.4,1.6-6.7,2.4c0-0.5,0-1.2,0-2c-4.5,0-8.9,0-13.3,0
		c0,14.7,0,29.2,0,43.8C362.7,64.1,367,64.1,371.5,64.1z"/>
	<path fill="#333333" d="M591.4,20.2c-4,0-7.9,0.1-11.8,0c-1.2,0-1.5,0.3-1.5,1.5c0,13.7,0,27.3,0,41c0,0.5,0,0.9,0,1.4
		c4.5,0,8.8,0,13.3,0c0-0.5,0-1,0-1.5c0-8.1,0.2-16.2-0.1-24.2c-0.1-2.9,1.1-4.3,3.4-5.5c0.9-0.4,1.8-0.8,2.7-1
		c4.4-1.1,8.1,0.9,9.4,5.3c0.4,1.2,0.6,2.6,0.6,3.9c0.1,7.2,0.1,14.4,0.1,21.6c0,0.5,0,0.9,0,1.4c4.5,0,8.9,0,13.3,0
		c0-0.5,0-1,0-1.4c0-7.7,0-15.4,0-23.1c0-1.8-0.2-3.6-0.5-5.3c-2.5-12.9-17.1-19.1-28.2-12c-0.2,0.1-0.4,0.2-0.7,0.3
		C591.4,21.8,591.4,21.1,591.4,20.2z"/>
	<path fill="#333333" d="M522,20.2c-3,0-5.9,0-8.7,0c-0.6,0-1.1,0-1.7-0.1c-1.7-0.4-2.6-1.9-2.5-3.7c0.1-1.6,1.4-2.8,3.3-2.9
		c2.7-0.1,5.4,0,8.1-0.1c0.5,0,0.9,0,1.4,0c0-4,0-7.8,0-11.7c-4.4,0-8.8,0-13.1,0c-0.8,0-1.5,0-2.3,0.1c-7.1,0.9-11.4,6.8-9.8,13.6
		c0.4,1.6,1.3,3.1,2,4.8c-2,0-4,0-6,0c0,3.9,0,7.7,0,11.6c1.9,0,3.8,0,5.7,0c0,10.8,0,21.5,0,32.2c4.5,0,8.9,0,13.3,0
		c0-10.8,0-21.5,0-32.3c3.5,0,6.8,0,10.2,0C522,27.9,522,24.1,522,20.2z"/>
	<path fill="#333333" d="M69.5,52.1c-0.7,0-1.2,0-1.7,0c-2.3,0-4.6,0-6.8-0.1c-2.1-0.1-3.2-1.3-3.6-3.4c-0.1-0.5-0.1-1.1-0.1-1.7
		c0-4.6,0-9.2,0-13.9c0-0.4,0-0.8,0.1-1.2c3.7,0,7.3,0,11,0c1-3.9,1.9-7.7,2.9-11.7c-4.8,0-9.3,0-14,0c0-4.4,0-8.7,0-13.2
		c-4.3,2.1-8.3,4.1-12.4,6.1c-0.7,0.3-1,0.7-1,1.5c0.1,1.8,0,3.6,0,5.6c-2.9,0-5.7,0-8.6,0c1,4,2,7.8,2.9,11.7c2,0,3.8,0,5.7,0
		c0,0.6,0,1,0,1.5c0,6.1,0,12.1,0,18.2C44,58.7,48.8,63.7,56,64.1c4.4,0.2,8.8,0.1,13.2,0c0.1,0,0.2-0.1,0.3-0.1
		C69.5,60.1,69.5,56.1,69.5,52.1z"/>
	<path fill="#333333" d="M619.4,119.8c0,0.7,0,1.2,0,1.7c0,6.1-0.1,12.2,0.1,18.3c0.1,6.8,4.5,11.7,11.3,12.3
		c4.7,0.4,9.4,0.2,14.1,0.2c0.1,0,0.1-0.1,0.2-0.1c0-4,0-7.9,0-12c-2.5,0-4.9,0-7.4,0c-1.6,0-3.2-0.2-4.1-1.8
		c-0.5-0.9-0.8-2.1-0.8-3.2c-0.1-4.7,0-9.5,0-14.2c0-0.3,0.1-0.7,0.1-1.1c3.7,0,7.3,0,10.9,0c1-3.9,1.9-7.6,2.9-11.6
		c-4.8,0-9.3,0-14,0c0-4.4,0-8.7,0-13c-0.3,0.1-0.5,0.1-0.6,0.1c-4,2-8.1,4-12.1,6c-0.3,0.2-0.6,0.8-0.6,1.2c-0.1,1.9,0,3.7,0,5.8
		c-3,0-5.7,0-8.6,0c0.9,3.7,1.8,7.3,2.7,10.8c0.1,0.3,0.6,0.7,1,0.7C616.1,119.8,617.7,119.8,619.4,119.8z"/>
	<path fill="#333333" d="M187.2,119.8c0,0.6,0,1.1,0,1.6c0,6.2-0.1,12.3,0,18.5c0.1,6.6,4.5,11.6,11,12.1c4.8,0.4,9.6,0.2,14.4,0.2
		c0.1,0,0.1-0.1,0.2-0.2c0-1.9,0-3.9,0-5.9c0-2,0-4,0-5.9c-0.2-0.1-0.3-0.1-0.4-0.1c-2.4,0-4.8,0-7.2,0c-3.1,0-4.4-1.3-4.8-4.3
		c0-0.4-0.1-0.8-0.1-1.2c0-4.4,0-8.8,0-13.3c0-0.5,0-0.9,0.1-1.5c3.7,0,7.4,0,11,0c1-3.9,1.9-7.6,2.9-11.5c-0.7,0-1.1,0-1.5,0
		c-3.7,0-7.3,0-11,0c-1.1,0-1.5-0.2-1.4-1.4c0.1-3.5,0-6.9,0-10.4c0-0.4,0-0.8-0.1-1.3c-0.2,0-0.4,0-0.5,0.1c-4,2-8.1,4-12.1,6
		c-0.3,0.2-0.6,0.8-0.6,1.2c-0.1,1.9,0,3.7,0,5.8c-2.9,0-5.7,0-8.7,0c1,3.8,1.8,7.4,2.8,11c0.1,0.2,0.6,0.5,0.9,0.5
		C183.8,119.8,185.4,119.8,187.2,119.8z"/>
	<path fill="#333333" d="M676.8,55.6c1.3,2.2,2.7,4.1,4.7,5.4c6.6,4.5,13.8,5.2,21.1,2.3c10-4,10.3-17.9,2.8-23.2
		c-2.6-1.9-5.6-3.1-8.5-4.2c-1.5-0.6-3-1.2-4.5-1.9c-0.9-0.4-1.4-1.2-1.2-2.3c0.2-1,1-1.4,1.9-1.6c2.6-0.5,4.6,0.5,6.3,2.3
		c0.4,0.5,0.8,0.9,1.2,1.4c2.5-2.5,4.9-5,7.5-7.6c-0.4-0.5-0.8-1.1-1.3-1.6c-3.6-4-8.3-5.4-13.5-5.1c-4.6,0.2-8.6,1.9-11.5,5.6
		c-4.8,6.1-3.2,14.9,3.6,19.4c2.6,1.7,5.6,2.7,8.5,4.1c1.2,0.6,2.5,1.1,3.7,1.7c0.8,0.4,1.3,1.3,0.9,2.1c-0.3,0.6-1,1.3-1.6,1.5
		c-2.8,0.7-5.3,0-7.4-2c-0.9-0.9-1.7-2-2.6-3.1C683.6,51,680.3,53.3,676.8,55.6z"/>
	<path fill="#333333" d="M466.1,48.8c-3.3,2.3-6.7,4.5-10.1,6.8c1.3,2.3,2.8,4.2,4.9,5.6c6.5,4.4,13.5,5,20.7,2.3
		c10.1-3.8,10.6-17.6,3.3-23.1c-2.5-1.9-5.3-3.1-8.1-4.2c-1.8-0.7-3.6-1.4-5.3-2.4c-0.6-0.3-1-1.4-1-2.1c0.1-0.6,0.9-1.3,1.6-1.5
		c2.2-0.7,4.2,0,5.9,1.5c0.7,0.6,1.3,1.4,2.1,2.2c2.4-2.6,4.8-5.1,7.3-7.7c0,0-0.1-0.2-0.2-0.3c-4.7-6.3-14-8.3-21.4-4.6
		c-8.4,4.2-10,15.2-3.1,21.6c2.5,2.3,5.5,3.7,8.7,5c1.9,0.7,3.7,1.5,5.5,2.4c0.9,0.4,1.4,1.3,1,2.2c-0.3,0.6-1,1.3-1.6,1.5
		c-3,0.7-5.7-0.1-7.8-2.4C467.5,50.7,466.9,49.7,466.1,48.8z"/>
	<path fill="#333333" d="M283.9,108.2c8.6,15,17.1,29.8,25.7,44.7c8.6-15,17.1-29.7,25.7-44.7c-0.7,0-1.1,0-1.4,0
		c-4.3,0-8.5,0-12.8,0c-0.9,0-1.3,0.3-1.7,1.1c-3,5.6-6,11.2-9,16.8c-0.2,0.4-0.4,0.7-0.7,1.2c-0.3-0.5-0.5-0.9-0.7-1.2
		c-3-5.6-6.1-11.2-9-16.8c-0.4-0.8-0.9-1.1-1.7-1.1c-4.3,0-8.5,0-12.8,0C285,108.2,284.6,108.2,283.9,108.2z"/>
	<path fill="#333333" d="M243.2,64.1c0-20.9,0-41.6,0-62.3c-4.5,0-8.8,0-13.3,0c0,20.8,0,41.5,0,62.3
		C234.4,64.1,238.7,64.1,243.2,64.1z"/>
	<path fill="#333333" d="M652.6,108.3c0,14.7,0,29.3,0,43.9c4.5,0,8.9,0,13.3,0c0-0.6,0-1.1,0-1.5c0-8.7,0-17.4,0-26.2
		c0-0.8,0.2-1.3,0.9-1.7c2.6-1.7,5.5-2.6,8.6-2.2c1.8,0.2,3.5,0.7,5.3,1.1c0-4.5,0-9,0-13.6c-5.5-1.3-10.6-0.8-14.8,3.9
		c0-1.5,0-2.6,0-3.7C661.4,108.3,657.1,108.3,652.6,108.3z"/>
	<path fill="#333333" d="M79.1,121.9c0-4.7,0-9.2,0-13.8c-5.5-1.2-10.6-0.8-14.8,3.9c0-1.5,0-2.6,0-3.7c-4.5,0-8.9,0-13.2,0
		c0,14.7,0,29.3,0,43.8c4.5,0,8.8,0,13.3,0c0-0.6,0-1,0-1.5c0-8.7,0-17.4,0-26.2c0-0.8,0.2-1.4,0.9-1.7c1.8-0.7,3.5-1.6,5.3-2.1
		C73.4,120.1,76.2,120.8,79.1,121.9z"/>
	<path fill="#333333" d="M314.7,64.1c0-0.6,0-1.1,0-1.6c0-8.6,0-17.3,0-25.9c0-1,0.3-1.5,1.1-2c2.1-1.3,4.3-2.2,6.8-2
		c2.3,0.1,4.5,0.6,6.9,1c-0.1,0.2,0,0.1,0,0.1c0-4.3,0-8.5,0-12.8c0-0.3-0.4-0.7-0.6-0.8c-4.5-1-8.7-0.8-12.5,2.3
		c-0.5,0.4-1,0.9-1.7,1.6c0-1.4,0-2.5,0-3.6c-4.5,0-8.9,0-13.3,0c0,14.7,0,29.2,0,43.9C305.8,64.1,310.2,64.1,314.7,64.1z"/>
	<path fill="#333333" d="M233.7,152.2c0-14.7,0-29.3,0-43.9c-4.5,0-8.9,0-13.3,0c0,14.7,0,29.3,0,43.9
		C224.9,152.2,229.2,152.2,233.7,152.2z"/>
	<path fill="#333333" d="M416.1,152.2c0-14.7,0-29.3,0-43.9c-4.5,0-8.9,0-13.3,0c0,14.7,0,29.3,0,43.9
		C407.2,152.2,411.6,152.2,416.1,152.2z"/>
	<path fill="#333333" d="M686.4,108.3c0,14.7,0,29.3,0,43.9c4.5,0,8.8,0,13.3,0c0-14.7,0-29.2,0-43.9
		C695.3,108.3,690.9,108.3,686.4,108.3z"/>
	<path fill="#333333" d="M335.2,20.2c0,14.7,0,29.2,0,43.8c4.5,0,8.9,0,13.3,0c0-14.7,0-29.2,0-43.8C344,20.2,339.7,20.2,335.2,20.2
		z"/>
	<path fill="#333333" d="M77.1,20.2c0,0.4-0.1,0.7-0.1,1c0,13.9,0,27.9,0,41.8c0,0.9,0.3,1.1,1.2,1.1c3.8,0,7.5,0,11.3,0
		c0.3,0,0.6-0.1,0.9-0.1c0-14.6,0-29.2,0-43.8C85.9,20.2,81.6,20.2,77.1,20.2z"/>
	<path fill="#333333" d="M693.1,101.9c1.8,0,3.6,0,5.4,0c0.7,0,1.2-0.3,1.5-0.9c1-1.8,1.3-3.6,0.9-5.6c-0.5-3-3-5.6-5.9-6.2
		c-3.4-0.7-6.6,0.5-8.5,3.3c-1.7,2.5-1.8,6.3-0.1,8.7c0.3,0.4,0.9,0.7,1.3,0.7C689.5,102,691.3,101.9,693.1,101.9z"/>
	<path fill="#333333" d="M227.1,101.9c1.3,0,2.6,0,3.8,0c2.7,0,3.4-0.6,3.9-3.3c0.2-0.8,0.2-1.7,0.1-2.6c-0.3-3.2-2.5-5.8-5.6-6.7
		c-3.2-0.9-6.6,0.2-8.6,2.7c-2,2.6-2.2,6.3-0.6,9c0.4,0.7,0.9,0.9,1.6,0.9C223.6,101.9,225.4,101.9,227.1,101.9z"/>
	<path fill="#333333" d="M409.3,101.9c1.4,0,2.9,0,4.3,0c2.3,0,2.6-0.2,3.3-2.4c0.1-0.5,0.3-0.9,0.3-1.4c0.6-3.4-1.3-6.9-4.4-8.4
		c-3.3-1.5-7-0.8-9.5,2c-2.2,2.4-2.5,6.5-0.8,9.4c0.4,0.6,0.8,0.9,1.5,0.9C405.8,101.9,407.6,101.9,409.3,101.9z"/>
	<path fill="#333333" d="M546.1,153c-1.5-0.3-3-0.5-4.4-0.9c-7.1-2.1-10.9-7.1-12.3-14c-0.4-1.7-0.5-3.6-0.5-5.3
		c-0.1-7.7,0-15.4,0-23.1c0-0.4,0-0.9,0-1.4c4.5,0,8.8,0,13.3,0c0,0.5,0,1,0,1.5c0,7.3,0,14.6,0.1,21.9c0,1.3,0.3,2.7,0.7,4
		c1.5,4.6,6,6.4,10.8,4.4c0.8-0.3,1.5-0.8,2.2-1.2c1.5-1.1,2.3-2.4,2.3-4.5c-0.1-8.1-0.1-16.2-0.1-24.3c0-0.5,0-1,0-1.7
		c4.4,0,8.8,0,13.3,0c0,14.6,0,29.2,0,43.9c-4.4,0-8.8,0-13.2,0c0-1,0-1.9,0-2.9c-0.3,0.1-0.4,0.1-0.5,0.2c-2.4,1.9-5.2,3-8.2,3.4
		c-0.2,0-0.4,0.1-0.6,0.2C548,153,547,153,546.1,153z"/>
	<path fill="#333333" d="M24.5,153c-2.4-0.6-4.8-0.9-7-1.8C8,147.6,2.1,137.8,3.2,127.9c1.2-10.3,9-18.5,19.2-20.1
		c9.1-1.4,18.5,2.7,23,10.1c-3.5,2.5-7,4.9-10.5,7.4c-0.8-1-1.4-1.9-2.3-2.7c-3-2.8-6.5-3.4-10.2-2c-3.9,1.5-5.5,4.7-5.9,8.7
		c-0.2,2.1,0.2,4.1,1.1,6c3.1,6.3,11.8,7,16.1,1.2c0.4-0.5,0.7-1,1.1-1.5c3.5,2.5,7,4.9,10.5,7.5c-1.5,2.4-3.4,4.3-5.6,6
		c-3.3,2.4-7,3.9-11.1,4.3c-0.3,0-0.5,0.1-0.8,0.2C26.7,153,25.6,153,24.5,153z"/>
	<path fill="#333333" d="M1,55.5c3.3-2.2,6.7-4.5,10.1-6.7c0.5,0.7,0.9,1.3,1.4,1.9c1.8,2.4,4.3,3.5,7.3,3.4c0.4,0,0.7-0.1,1.1-0.2
		c0.9-0.2,1.7-0.6,1.8-1.6c0.2-1.1-0.4-1.8-1.3-2.2c-1.5-0.7-3.1-1.3-4.6-2c-2.5-1.2-5.2-2.2-7.5-3.7c-4.9-3.3-7-8-5.9-13.8
		c1.1-5.6,4.7-9,10.1-10.3c6.9-1.7,13.1-0.4,18,5.2c0.3,0.3,0.5,0.6,0.7,0.9c-2.5,2.5-5,5-7.5,7.5c-0.3-0.3-0.5-0.7-0.8-1
		c-1.8-2-3.9-3.3-6.7-2.7c-0.9,0.2-1.7,0.6-1.9,1.6c-0.2,1,0.3,1.8,1.2,2.3c2.1,0.9,4.2,1.7,6.3,2.7c2.4,1.2,4.9,2.3,7.1,3.9
		c7.2,5.2,6.8,18.6-3,22.9c-6,2.6-17.3,2.4-23.2-4.1c-1-1.1-1.8-2.3-2.7-3.5C1,55.6,1,55.6,1,55.5z"/>
	<path fill="#333333" d="M592.3,153c-1.7-0.3-3.5-0.5-5.1-1c-4.7-1.3-8.2-4.1-10.7-8.4c3.4-2.3,6.7-4.6,10.1-6.8
		c0.8,1,1.5,2,2.3,2.8c2,2.1,4.5,2.7,7.3,2.4c0.9-0.1,1.8-0.5,2-1.6c0.2-1.1-0.3-1.9-1.2-2.3c-1.9-0.9-3.8-1.7-5.7-2.4
		c-3-1.2-5.9-2.5-8.2-4.8c-7.4-7.3-5-18.7,4.8-22.3c7.2-2.7,15.6-0.3,19.8,5.5c0.1,0.1,0.1,0.2,0.2,0.3c-2.5,2.5-5,4.9-7.5,7.5
		c-0.4-0.5-0.8-1-1.2-1.5c-1.7-1.8-3.6-2.7-6.1-2.3c-1,0.2-1.9,0.5-2.1,1.6c-0.2,1.1,0.4,1.9,1.3,2.3c2,0.9,4.1,1.7,6.2,2.6
		c3,1.2,5.8,2.6,8.2,4.8c5.6,5.1,5.7,17.8-4.1,21.9c-2,0.8-4.3,1.2-6.4,1.7C594.7,153,593.5,153,592.3,153z"/>
	<path fill="#333333" d="M85.4,1c0.4,0.2,0.8,0.3,1.2,0.5c4.6,1.7,6.6,7.3,4.1,11.5c-0.4,0.7-0.8,0.9-1.6,0.9c-3.5,0-7,0-10.5,0
		c-0.8,0-1.2-0.3-1.6-0.9c-2.6-4.4-0.5-10,4.4-11.6c0.3-0.1,0.6-0.3,1-0.4C83.3,1,84.3,1,85.4,1z"/>
	<path fill="#333333" d="M343.3,1c1.9,0.6,3.6,1.4,4.9,3c1.9,2.6,2.2,6.3,0.6,9c-0.4,0.6-0.8,0.9-1.6,0.9c-3.5,0-7,0-10.5,0
		c-0.8,0-1.2-0.3-1.6-0.9c-2.5-4.1-0.5-9.8,4-11.5c0.5-0.2,1-0.3,1.4-0.5C341.4,1,342.3,1,343.3,1z"/>
	<path fill="#333333" d="M141,64.1c-4.4,0-8.8,0-13.3,0c0-0.5,0-1,0-1.5c0-6.9,0-13.8,0-20.7c0-1.5-0.2-2.9-0.5-4.4
		c-1-4.8-4.6-6.9-9.3-5.4c-0.8,0.2-1.5,0.6-2.2,1c-1.7,0.9-2.5,2.1-2.5,4.3c0.2,8.4,0.1,16.7,0.1,25.1c0,0.5,0,0.9,0,1.5
		c-4.4,0-8.7,0-13.2,0c0-14.6,0-29.1,0-43.8c4.3,0,8.7,0,13.1,0c0,0.8,0,1.5,0,2.5c3.7-2.5,7.5-3.6,11.8-3.2c4.3,0.4,7.9,2,10.9,5.2
		c3-2.9,6.5-4.4,10.4-5c4.1-0.6,8.1-0.4,11.9,1.2c6.6,2.8,9.5,8.3,10.1,15.1c0.5,5.9,0.2,11.9,0.3,17.8c0,3.4,0,6.8,0,10.2
		c-4.5,0-8.9,0-13.4,0c0-0.5,0-0.9,0-1.3c0-7.1,0.1-14.2,0-21.3c0-1.8-0.3-3.7-0.9-5.4c-1.1-3.5-4.1-5-7.8-4.2
		c-1.1,0.2-2.1,0.7-3.1,1.2c-1.8,1-2.7,2.2-2.6,4.6c0.3,8.6,0.2,17.2,0.2,25.8C141.1,63.7,141.1,63.9,141,64.1z"/>
	<path fill="#333333" d="M437.7,22.7c0-0.9,0-1.6,0-2.4c4.4,0,8.8,0,13.3,0c0,0.5,0,1,0,1.4c0,10.9,0,21.8,0,32.7
		c0,0.8,0.2,1.6,0.4,2.3c1.4,3.8,1.9,7.7,0.9,11.6c-1.4,5.8-5.5,9.1-10.9,11.1c-5,1.8-10.1,2.1-15.3,1.8c-4.9-0.3-9.6-1.2-14-3.5
		c-0.7-0.4-1.4-0.8-2.3-1.3c2-3.9,4-7.7,6-11.7c0.4,0.3,0.7,0.5,1,0.7c5,3.4,10.5,4.6,16.4,3.2c4.3-1,6.5-4.4,5.4-8.3
		c-0.2-0.6-0.5-1.2-0.7-1.5c-2,0.9-3.9,2-5.9,2.4c-9.7,2.3-21.4-2.6-24.3-15.3c-1.7-7.6-0.2-14.5,5.2-20.3
		c5.3-5.8,14.9-7.8,21.8-4.6C435.8,21.4,436.6,22,437.7,22.7z M437.7,40.6c0-1-0.1-1.9,0-2.9c0.4-2.4-0.9-3.7-2.8-4.7
		c-0.9-0.5-1.8-0.9-2.8-1.1c-7.1-1.7-13.1,4.1-11.3,11c1.7,6.7,10.3,9,15.6,4.2c0.8-0.7,1.3-1.5,1.2-2.7
		C437.7,43.2,437.7,41.9,437.7,40.6z"/>
	<path fill="#333333" d="M658.6,22.5c0-6.9,0-13.8,0-20.8c4.4,0,8.8,0,13.2,0c0,20.8,0,41.5,0,62.3c-4.4,0-8.7,0-13.1,0
		c0-0.7,0-1.4,0-2.2c-0.3,0-0.4,0-0.5,0.1c-6.8,4.4-13.6,3.8-20.2-0.1c-6-3.5-9.1-9.1-10.1-15.8c-1-6.6,0.3-12.8,4.3-18.3
		c5-6.9,14.4-10,22-7.4C655.6,20.8,657,21.7,658.6,22.5z M658.6,42.2c0-2,0-4,0-6c0-0.6-0.3-1.3-0.7-1.7c-2.8-3.1-7.7-3.9-11.6-1.8
		c-4.5,2.3-6.5,8.1-4.7,13.5c2.4,6.8,11.4,8.9,16.2,3.8c0.5-0.5,0.8-1.3,0.8-2C658.6,46,658.6,44.1,658.6,42.2z"/>
	<path fill="#333333" d="M548.1,64.9c-12.8,0-22.9-10.1-22.9-22.8c0-12.5,10.3-22.6,23-22.6c12.7,0,22.9,10.2,22.9,22.8
		C571,54.8,560.8,64.9,548.1,64.9z M557.7,42.2c-0.1-0.9-0.2-1.7-0.3-2.6c-0.9-3.8-3.1-6.5-7-7.4c-3.7-0.9-7,0.1-9.5,3.1
		c-2,2.4-2.5,5.4-2.2,8.4c0.6,6.1,6.1,10,12.1,8.4C554.9,51,557.6,47.1,557.7,42.2z"/>
	<path fill="#333333" d="M206.9,64.2c0-1.1,0-1.9,0-2.9c-0.3,0.1-0.5,0.1-0.6,0.2c-11.1,7.9-26,1.8-28.4-11.7
		c-0.3-1.7-0.5-3.4-0.5-5.1c0-7.9,0-15.8,0-23.7c0-0.2,0-0.5,0.1-0.8c4.4,0,8.8,0,13.3,0c0,0.5,0,0.9,0,1.4c0,7,0,13.9,0,20.9
		c0,1.5,0.2,3.1,0.7,4.6c1.2,4.3,4.5,6.3,8.9,5.4c1.4-0.3,2.9-1,4.1-1.8c1.6-1,2.5-2.5,2.5-4.7c-0.1-8.1-0.1-16.2-0.1-24.4
		c0-0.5,0-0.9,0-1.5c4.5,0,8.9,0,13.3,0c0,0.4,0.1,0.8,0.1,1.2c0,13.8,0,27.6,0,41.3c0,1.1-0.3,1.4-1.4,1.4c-3.6-0.1-7.1,0-10.7,0
		C207.8,64.2,207.4,64.2,206.9,64.2z"/>
	<path fill="#333333" d="M439.1,152.2c-4.5,0-8.9,0-13.3,0c0-14.6,0-29.2,0-43.9c4.4,0,8.8,0,13.2,0c0,0.8,0.1,1.5,0.1,2.3
		c0.3-0.1,0.5-0.2,0.7-0.3c11-7,25.6-0.9,28.1,11.8c0.3,1.7,0.5,3.5,0.5,5.2c0.1,7.8,0,15.6,0,23.4c0,0.5,0,0.9,0,1.5
		c-4.4,0-8.8,0-13.3,0c0-0.5,0-1,0-1.4c0-6.7,0-13.5,0-20.2c0-1.5-0.1-3.1-0.5-4.6c-1.2-5.2-5.4-7.5-10.5-5.8
		c-0.6,0.2-1.2,0.5-1.8,0.7c-2.2,1.1-3.5,2.5-3.4,5.3c0.2,8.2,0.1,16.3,0.1,24.5C439.1,151.2,439.1,151.7,439.1,152.2z"/>
	<path fill="#333333" d="M371.5,64.1c-4.5,0-8.9,0-13.3,0c0-14.6,0-29.2,0-43.8c4.4,0,8.8,0,13.3,0c0,0.8,0,1.5,0,2
		c2.2-0.8,4.4-2,6.7-2.4c10-1.8,21.6,2.8,22.5,17.3c0.5,8.1,0.1,16.2,0.2,24.2c0,0.9,0,1.7,0,2.7c-4.5,0-8.8,0-13.3,0
		c0-0.5,0-1,0-1.4c0-6.8,0-13.5,0-20.3c0-1.7-0.2-3.4-0.7-5.1c-1.2-4.5-5.1-6.5-9.6-5.4c-2,0.5-3.7,1.5-5.2,2.9
		c-0.4,0.4-0.6,1.1-0.6,1.7c0,8.7,0,17.4,0,26.2C371.5,63.1,371.5,63.6,371.5,64.1z"/>
	<path fill="#333333" d="M591.4,20.2c0,0.9,0,1.6,0,2.4c0.3-0.1,0.5-0.2,0.7-0.3c11.1-7.1,25.8-1,28.2,12c0.3,1.7,0.5,3.6,0.5,5.3
		c0.1,7.7,0,15.4,0,23.1c0,0.4,0,0.9,0,1.4c-4.4,0-8.8,0-13.3,0c0-0.5,0-0.9,0-1.4c0-7.2,0-14.4-0.1-21.6c0-1.3-0.3-2.6-0.6-3.9
		c-1.3-4.3-5-6.4-9.4-5.3c-0.9,0.2-1.8,0.6-2.7,1c-2.3,1.1-3.5,2.6-3.4,5.5c0.2,8.1,0.1,16.2,0.1,24.2c0,0.5,0,0.9,0,1.5
		c-4.5,0-8.8,0-13.3,0c0-0.5,0-1,0-1.4c0-13.7,0-27.3,0-41c0-1.2,0.3-1.6,1.5-1.5C583.5,20.2,587.3,20.2,591.4,20.2z"/>
	<path fill="#333333" d="M522,20.2c0,3.9,0,7.7,0,11.6c-3.4,0-6.7,0-10.2,0c0,10.8,0,21.5,0,32.3c-4.5,0-8.8,0-13.3,0
		c0-10.7,0-21.4,0-32.2c-2,0-3.8,0-5.7,0c0-3.9,0-7.7,0-11.6c2,0,4,0,6,0c-0.7-1.7-1.6-3.2-2-4.8c-1.6-6.8,2.7-12.7,9.8-13.6
		c0.8-0.1,1.5-0.1,2.3-0.1c4.3,0,8.7,0,13.1,0c0,3.9,0,7.7,0,11.7c-0.5,0-1,0-1.4,0c-2.7,0-5.4,0-8.1,0.1c-1.9,0.1-3.1,1.3-3.3,2.9
		c-0.2,1.8,0.8,3.3,2.5,3.7c0.5,0.1,1.1,0.1,1.7,0.1C516.1,20.2,519,20.2,522,20.2z"/>
	<path fill="#333333" d="M69.5,52.1c0,4.1,0,8,0,11.9c-0.1,0.1-0.2,0.1-0.3,0.1c-4.4,0-8.8,0.2-13.2,0c-7.2-0.4-11.9-5.4-12.1-12.6
		c-0.1-6.1,0-12.1,0-18.2c0-0.5,0-0.9,0-1.5c-1.9,0-3.7,0-5.7,0c-1-3.9-1.9-7.7-2.9-11.7c2.9,0,5.7,0,8.6,0c0-1.9,0-3.7,0-5.6
		c0-0.8,0.3-1.2,1-1.5c4.1-2,8.1-4,12.4-6.1c0,4.5,0,8.8,0,13.2c4.7,0,9.2,0,14,0c-1,4-1.9,7.8-2.9,11.7c-3.7,0-7.3,0-11,0
		c0,0.4-0.1,0.8-0.1,1.2c0,4.6,0,9.2,0,13.9c0,0.6,0,1.1,0.1,1.7c0.4,2,1.5,3.2,3.6,3.4c2.3,0.2,4.5,0.1,6.8,0.1
		C68.3,52.1,68.8,52.1,69.5,52.1z"/>
	<path fill="#333333" d="M619.4,119.8c-1.7,0-3.3,0-4.9,0c-0.4,0-0.9-0.4-1-0.7c-0.9-3.5-1.8-7.1-2.7-10.8c2.9,0,5.7,0,8.6,0
		c0-2,0-3.9,0-5.8c0-0.4,0.3-1,0.6-1.2c4-2.1,8-4,12.1-6c0.1-0.1,0.3-0.1,0.6-0.1c0,4.3,0,8.6,0,13c4.7,0,9.2,0,14,0
		c-1,4-1.9,7.8-2.9,11.6c-3.7,0-7.2,0-10.9,0c0,0.4-0.1,0.8-0.1,1.1c0,4.7,0,9.5,0,14.2c0,1.1,0.3,2.2,0.8,3.2
		c0.8,1.6,2.5,1.7,4.1,1.8c2.4,0,4.9,0,7.4,0c0,4.1,0,8,0,12c-0.1,0-0.1,0.1-0.2,0.1c-4.7,0-9.4,0.2-14.1-0.2
		c-6.8-0.6-11.1-5.5-11.3-12.3c-0.1-6.1,0-12.2-0.1-18.3C619.4,121,619.4,120.5,619.4,119.8z"/>
	<path fill="#333333" d="M187.2,119.8c-1.8,0-3.4,0-5,0c-0.3,0-0.8-0.3-0.9-0.5c-0.9-3.6-1.8-7.2-2.8-11c2.9,0,5.8,0,8.7,0
		c0-2,0-3.9,0-5.8c0-0.4,0.3-1,0.6-1.2c4-2,8.1-4,12.1-6c0.1,0,0.2,0,0.5-0.1c0,0.5,0.1,0.9,0.1,1.3c0,3.5,0.1,6.9,0,10.4
		c0,1.1,0.4,1.4,1.4,1.4c3.7-0.1,7.3,0,11,0c0.4,0,0.9,0,1.5,0c-1,3.9-1.9,7.7-2.9,11.5c-3.6,0-7.3,0-11,0c0,0.6-0.1,1-0.1,1.5
		c0,4.4,0,8.8,0,13.3c0,0.4,0,0.8,0.1,1.2c0.3,3,1.7,4.3,4.8,4.3c2.4,0,4.8,0,7.2,0c0.1,0,0.1,0,0.4,0.1c0,1.9,0,3.9,0,5.9
		c0,2,0,4,0,5.9c-0.1,0.1-0.2,0.2-0.2,0.2c-4.8,0-9.6,0.2-14.4-0.2c-6.5-0.5-10.9-5.5-11-12.1c-0.1-6.2,0-12.3,0-18.5
		C187.2,120.9,187.2,120.4,187.2,119.8z"/>
	<path fill="#333333" d="M676.8,55.6c3.4-2.3,6.7-4.6,10-6.8c0.9,1.1,1.6,2.2,2.6,3.1c2.1,2,4.6,2.7,7.4,2c0.6-0.2,1.4-0.8,1.6-1.5
		c0.4-0.8-0.1-1.7-0.9-2.1c-1.2-0.6-2.4-1.1-3.7-1.7c-2.8-1.3-5.9-2.4-8.5-4.1c-6.9-4.5-8.4-13.3-3.6-19.4c2.9-3.7,6.9-5.3,11.5-5.6
		c5.2-0.3,9.9,1.1,13.5,5.1c0.5,0.6,1,1.2,1.3,1.6c-2.5,2.6-5,5.1-7.5,7.6c-0.4-0.5-0.8-1-1.2-1.4c-1.7-1.8-3.8-2.8-6.3-2.3
		c-0.9,0.2-1.7,0.6-1.9,1.6c-0.2,1,0.3,1.8,1.2,2.3c1.5,0.7,3,1.4,4.5,1.9c3,1.1,5.9,2.4,8.5,4.2c7.6,5.3,7.3,19.2-2.8,23.2
		c-7.3,2.9-14.5,2.2-21.1-2.3C679.6,59.6,678.1,57.8,676.8,55.6z"/>
	<path fill="#333333" d="M466.1,48.8c0.8,1,1.4,1.9,2.1,2.7c2.1,2.3,4.8,3.1,7.8,2.4c0.6-0.2,1.4-0.8,1.6-1.5c0.4-0.9-0.1-1.8-1-2.2
		c-1.8-0.8-3.6-1.7-5.5-2.4c-3.1-1.2-6.2-2.6-8.7-5c-6.9-6.4-5.3-17.4,3.1-21.6c7.4-3.7,16.7-1.7,21.4,4.6c0.1,0.2,0.2,0.3,0.2,0.3
		c-2.5,2.6-4.9,5.2-7.3,7.7c-0.8-0.8-1.4-1.6-2.1-2.2c-1.7-1.5-3.6-2.2-5.9-1.5c-0.6,0.2-1.5,0.9-1.6,1.5c-0.1,0.7,0.4,1.7,1,2.1
		c1.7,0.9,3.5,1.7,5.3,2.4c2.9,1.1,5.7,2.3,8.1,4.2c7.3,5.5,6.8,19.2-3.3,23.1c-7.2,2.7-14.2,2.1-20.7-2.3c-2.1-1.4-3.6-3.3-4.9-5.6
		C459.5,53.3,462.8,51,466.1,48.8z"/>
	<path fill="#333333" d="M283.9,108.2c0.6,0,1,0,1.4,0c4.3,0,8.5,0,12.8,0c0.9,0,1.3,0.3,1.7,1.1c3,5.6,6,11.2,9,16.8
		c0.2,0.3,0.4,0.7,0.7,1.2c0.3-0.5,0.5-0.8,0.7-1.2c3-5.6,6-11.2,9-16.8c0.4-0.7,0.8-1.1,1.7-1.1c4.3,0.1,8.5,0,12.8,0
		c0.4,0,0.8,0,1.4,0c-8.6,15-17.1,29.8-25.7,44.7C301,138,292.5,123.2,283.9,108.2z"/>
	<path fill="#333333" d="M243.2,64.1c-4.4,0-8.8,0-13.3,0c0-20.8,0-41.5,0-62.3c4.4,0,8.8,0,13.3,0
		C243.2,22.5,243.2,43.2,243.2,64.1z"/>
	<path fill="#333333" d="M652.6,108.3c4.4,0,8.8,0,13.3,0c0,1.1,0,2.2,0,3.7c4.3-4.7,9.3-5.1,14.8-3.9c0,4.6,0,9.1,0,13.6
		c-1.7-0.4-3.5-0.9-5.3-1.1c-3.1-0.4-6,0.5-8.6,2.2c-0.6,0.4-0.9,0.9-0.9,1.7c0,8.7,0,17.4,0,26.2c0,0.5,0,1,0,1.5
		c-4.5,0-8.9,0-13.3,0C652.6,137.6,652.6,123,652.6,108.3z"/>
	<path fill="#333333" d="M79.1,121.9c-2.8-1.1-5.7-1.9-8.6-1.2c-1.8,0.4-3.5,1.3-5.3,2.1c-0.7,0.3-0.9,0.9-0.9,1.7
		c0,8.7,0,17.4,0,26.2c0,0.5,0,1,0,1.5c-4.4,0-8.8,0-13.3,0c0-14.6,0-29.1,0-43.8c4.4,0,8.7,0,13.2,0c0,1.1,0,2.2,0,3.7
		c4.3-4.7,9.3-5.1,14.8-3.9C79.1,112.7,79.1,117.3,79.1,121.9z"/>
	<path fill="#333333" d="M314.7,64.1c-4.5,0-8.9,0-13.3,0c0-14.6,0-29.2,0-43.9c4.4,0,8.7,0,13.3,0c0,1.1,0,2.2,0,3.6
		c0.7-0.7,1.2-1.2,1.7-1.6c3.7-3,8-3.3,12.5-2.3c0.3,0.1,0.6,0.5,0.6,0.8c0,4.3,0,8.5,0,12.8c0,0.1-0.1,0.1,0-0.1
		c-2.4-0.3-4.6-0.8-6.9-1c-2.4-0.1-4.7,0.8-6.8,2c-0.8,0.5-1.1,1.1-1.1,2c0,8.6,0,17.3,0,25.9C314.7,63,314.7,63.5,314.7,64.1z"/>
	<path fill="#333333" d="M233.7,152.2c-4.5,0-8.8,0-13.3,0c0-14.6,0-29.2,0-43.9c4.4,0,8.8,0,13.3,0
		C233.7,122.9,233.7,137.5,233.7,152.2z"/>
	<path fill="#333333" d="M416.1,152.2c-4.5,0-8.8,0-13.3,0c0-14.6,0-29.2,0-43.9c4.4,0,8.8,0,13.3,0
		C416.1,122.9,416.1,137.5,416.1,152.2z"/>
	<path fill="#333333" d="M686.4,108.3c4.4,0,8.8,0,13.3,0c0,14.7,0,29.2,0,43.9c-4.4,0-8.8,0-13.3,0
		C686.4,137.6,686.4,123,686.4,108.3z"/>
	<path fill="#333333" d="M335.2,20.2c4.5,0,8.8,0,13.3,0c0,14.6,0,29.2,0,43.8c-4.4,0-8.8,0-13.3,0
		C335.2,49.5,335.2,34.9,335.2,20.2z"/>
	<path fill="#333333" d="M77.1,20.2c4.5,0,8.8,0,13.3,0c0,14.6,0,29.2,0,43.8c-0.3,0-0.6,0.1-0.9,0.1c-3.8,0-7.5,0-11.3,0
		c-0.9,0-1.2-0.2-1.2-1.1c0-13.9,0-27.9,0-41.8C77,21,77.1,20.6,77.1,20.2z"/>
	<path fill="#333333" d="M693.1,101.9c-1.8,0-3.6,0.1-5.4,0c-0.5,0-1.1-0.4-1.3-0.7c-1.7-2.4-1.6-6.1,0.1-8.7c1.9-2.7,5.1-4,8.5-3.3
		c3,0.6,5.4,3.2,5.9,6.2c0.4,2,0,3.9-0.9,5.6c-0.3,0.6-0.8,0.9-1.5,0.9C696.7,101.9,694.9,101.9,693.1,101.9z"/>
	<path fill="#333333" d="M227.1,101.9c-1.8,0-3.5,0-5.3,0c-0.8,0-1.2-0.2-1.6-0.9c-1.6-2.7-1.4-6.4,0.6-9c2-2.6,5.4-3.7,8.6-2.7
		c3.1,0.9,5.3,3.5,5.6,6.7c0.1,0.9,0.1,1.8-0.1,2.6c-0.5,2.7-1.2,3.3-3.9,3.3C229.7,101.9,228.4,101.9,227.1,101.9z"/>
	<path fill="#333333" d="M409.3,101.9c-1.8,0-3.5,0-5.3,0c-0.7,0-1.2-0.2-1.5-0.9c-1.7-2.8-1.4-6.9,0.8-9.4c2.5-2.7,6.2-3.5,9.5-2
		c3.1,1.5,5,5,4.4,8.4c-0.1,0.5-0.2,0.9-0.3,1.4c-0.7,2.2-1,2.4-3.3,2.4C412.2,101.9,410.8,101.9,409.3,101.9z"/>
	<path fill="#333333" d="M506.3,89.8c0,3.5,0,7,0,10.5c0,3.4,0,6.9,0,10.4c-1.2-0.7-2.3-1.3-3.4-1.8c-6.9-2.9-16.1-0.8-21.4,5
		c-6.2,6.8-7.6,14.8-5.2,23.5c2,7.1,6.5,12.2,13.6,14.6c1.6,0.6,3.4,0.7,5.1,1.1c1,0,1.9,0,2.9,0c0.6-0.1,1.3-0.2,1.9-0.4
		c2.2-0.8,4.3-1.6,6.5-2.5c0,0.5,0.1,1.3,0.1,2c4.5,0,8.9,0,13.2,0c0-20.9,0-41.7,0-62.4C515.1,89.8,510.7,89.8,506.3,89.8z
		 M506.3,136.1c0,0.6-0.3,1.4-0.7,1.9c-4.3,4.8-12.9,3.4-15.7-2.6c-1.6-3.3-1.6-6.7-0.1-10c2.8-6.2,11.4-7.6,15.9-2.7
		c0.4,0.4,0.6,1.1,0.6,1.7c0.1,2,0,4,0,6C506.3,132.2,506.4,134.1,506.3,136.1z"/>
	<path fill="#333333" d="M161.9,108.3c0,0.8,0,1.5,0,2.4c-0.9-0.5-1.6-1-2.4-1.4c-7.4-3.8-18-1.4-23.4,5.6c-5.9,7.6-6.8,16.1-3.3,25
		c2.3,5.8,6.5,9.9,12.5,11.9c1.7,0.6,3.6,0.8,5.4,1.2c1,0,1.9,0,2.9,0c3-0.5,5.8-1.3,8.3-3.3c0,1,0.1,1.8,0.1,2.5
		c4.5,0,8.8,0,13.2,0c0-14.7,0-29.3,0-43.9C170.6,108.3,166.3,108.3,161.9,108.3z M161.8,136.1c0,0.6-0.3,1.4-0.7,1.9
		c-3.3,3.6-9.2,3.8-13.3,0.6c-5.7-4.6-4.5-14.9,2.1-18c3.9-1.8,8.6-1,11.3,2.1c0.4,0.4,0.6,1,0.6,1.6c0.1,2,0,4,0,6
		C161.9,132.2,161.9,134.1,161.8,136.1z"/>
	<path fill="#333333" d="M750.8,125.6c-0.3-3-1.2-5.9-2.8-8.4c-3.9-6.3-9.8-9.2-17.1-9.6c-13.5-0.8-23.7,8.6-24,22
		c-0.2,10.4,5.9,19.2,15.8,22.3c1.7,0.5,3.4,0.8,5.1,1.1c1.1,0,2.2,0,3.4,0c2.6-0.6,5.3-1,7.8-2c4.4-1.6,7.8-4.6,10.4-8.7
		c-3.5-2.4-7-4.7-10.5-7.1c-3.2,5-7.7,6.7-13.3,4.8c-3.4-1.1-5.3-3.7-5.8-7.4c10.3,0,20.6,0,30.9,0c0.2-0.8,0.3-1.5,0.4-2.1
		c0-1.2,0-2.4,0-3.6C750.9,126.5,750.8,126,750.8,125.6z M720.1,124.8c0.3-3.6,4.3-6.6,8.8-6.6c4.8,0,8.5,2.8,8.7,6.6
		C731.8,124.8,725.9,124.8,720.1,124.8z"/>
	<path fill="#333333" d="M371.5,113.7c-5.8-5.7-12.9-7.1-20.6-5.6c-10.4,2-17,9.8-17.7,20.4c-0.7,10,4.4,18.7,13.3,22.5
		c2.4,1,5,1.4,7.6,2c1.1,0,2.2,0,3.4,0c0.3-0.1,0.6-0.2,0.9-0.2c3.1-0.3,6.1-1.2,8.9-2.7c3.4-1.8,6.2-4.4,8.4-7.8
		c-3.6-2.4-7.1-4.7-10.5-7.1c-3.6,4.9-7.6,6.5-12.5,5.1c-3.6-1-6.2-4-6.5-7.7c0.5,0,0.9,0,1.4,0c8.9,0,17.7,0,26.6,0
		c3,0,3,0,3.1-2.9C377.3,123.6,375.9,118.1,371.5,113.7z M346.3,124.8c0.3-3.1,3.4-6.5,8.8-6.6c4.8-0.1,8.5,2.7,8.8,6.6
		C358,124.8,352.1,124.8,346.3,124.8z"/>
	<path fill="#333333" d="M126.1,125.6c-0.4-4.6-2.1-8.6-5.4-11.9c-4.7-4.8-10.6-6.4-17.1-6.1c-12.1,0.6-21,9.5-21.3,21.5
		C82,139,87,147.3,95.7,151c2.4,1,5,1.4,7.5,2c1.1,0,2.2,0,3.4,0c0.3-0.1,0.7-0.2,1-0.2c4.1-0.4,7.8-1.8,11.2-4.1
		c2.4-1.7,4.4-3.7,6-6.3c-3.6-2.4-7.1-4.7-10.6-7.1c-3.4,5.7-8.9,6.2-12.6,5c-3.6-1.1-6.3-4.2-6.3-7.7c0.5,0,0.9,0,1.4,0
		c9.4,0,18.9,0,28.3,0c0.9,0,1.3-0.2,1.3-1.2C126.1,129.5,126.3,127.6,126.1,125.6z M95.3,124.8c0.6-3.9,4.5-6.7,9-6.6
		c4.8,0.1,8.2,2.7,8.6,6.6C107.1,124.8,101.2,124.8,95.3,124.8z"/>
	<path fill="#333333" d="M278.8,113.2c-7.7-7.2-21.2-7.7-29.7-1c-5.4,4.3-7.9,10-8.2,16.8c-0.6,10.3,5.6,19.6,15.4,22.7
		c1.8,0.6,3.6,0.8,5.5,1.2c1.1,0,2.2,0,3.4,0c0.3-0.1,0.6-0.2,0.9-0.2c4.8-0.5,9-2.2,12.7-5.3c1.8-1.5,3.3-3.1,4.5-5.2
		c-3.4-2.3-6.7-4.5-10-6.7c-0.2-0.1-0.3-0.2-0.5-0.3c-4.1,5-7.9,6.5-12.7,5c-3.7-1.2-6.1-4.1-6.3-7.7c1.5,0,2.9,0,4.4,0
		c8.4,0,16.8,0,25.3,0c1,0,1.4-0.3,1.3-1.3c0-1.2,0.1-2.5,0.1-3.7C284.7,122.1,282.9,117.1,278.8,113.2z M254,124.7
		c0.6-3.9,4.6-6.8,9.2-6.6c4.8,0.2,8.2,2.8,8.5,6.6C265.7,124.7,259.9,124.7,254,124.7z"/>
	<path fill="#333333" d="M287.3,25.6c-7.7-7.2-21.2-7.7-29.7-1c-5.4,4.3-7.9,10-8.2,16.8c-0.6,10.3,5.6,19.6,15.4,22.7
		c1.8,0.6,3.6,0.8,5.5,1.2c1.1,0,2.2,0,3.4,0c0.3-0.1,0.6-0.2,0.9-0.2c4.8-0.5,9-2.2,12.7-5.3c1.8-1.5,3.3-3.1,4.5-5.2
		c-3.4-2.3-6.7-4.5-10-6.7c-0.2-0.1-0.3-0.2-0.5-0.3c-4.1,5-7.9,6.5-12.7,5c-3.7-1.2-6.1-4.1-6.3-7.7c1.5,0,2.9,0,4.4,0
		c8.4,0,16.8,0,25.3,0c1,0,1.4-0.3,1.3-1.3c0-1.2,0.1-2.5,0.1-3.7C293.2,34.5,291.4,29.5,287.3,25.6z M262.5,37.1
		c0.6-3.9,4.6-6.8,9.2-6.6c4.8,0.2,8.2,2.8,8.5,6.6C274.2,37.1,268.4,37.1,262.5,37.1z"/>
</g>
</svg>
