<?xml version="1.0" encoding="utf-8"?>
<!-- Generator: Adobe Illustrator 18.0.0, SVG Export Plug-In . SVG Version: 6.00 Build 0)  -->
<!DOCTYPE svg PUBLIC "-//W3C//DTD SVG 1.1//EN" "http://www.w3.org/Graphics/SVG/1.1/DTD/svg11.dtd">
<svg version="1.1" xmlns="http://www.w3.org/2000/svg" xmlns:xlink="http://www.w3.org/1999/xlink" x="0px" y="0px"
	 viewBox="0 0 559.6 633.9" enable-background="new 0 0 559.6 633.9" xml:space="preserve">
<g id="GEOMETRY">
	<g>
		<g>
			<g>
			</g>
			<g>
			</g>
			<g>
			</g>
			<g>
			</g>
			<g>
			</g>
			<g>
			</g>
			<g>
			</g>
			<g>
			</g>
			<g>
			</g>
			<g>
			</g>
		</g>
		<g>
			<g>
				<rect x="1199.3" y="79.2" fill="#00AEEF" width="34.7" height="27.7"/>
				<g>
					<path fill="#B3C7D7" d="M910.4,301.3l-71.3-98.1c21.7-15.7,44.5-23.2,71.3-23.2V301.3z"/>
				</g>
			</g>
			<g>
				<rect x="1199.3" y="120.8" fill="#00B5F1" width="34.7" height="27.7"/>
				<g>
					<path fill="#A0B6C9" d="M910.4,301.3L795,263.8c8.3-25.5,22.4-44.9,44.1-60.6L910.4,301.3z"/>
				</g>
			</g>
			<g>
				<rect x="1199.3" y="162.4" fill="#00BFF3" width="34.7" height="27.7"/>
				<g>
					<path fill="#8EA6BB" d="M910.4,301.3L795,338.7c-8.3-25.5-8.3-49.5,0-75L910.4,301.3z"/>
				</g>
			</g>
			<g>
				<rect x="1199.3" y="204" fill="#4CC9F5" width="34.7" height="27.7"/>
				<g>
					<path fill="#7D97AF" d="M910.4,301.3l-71.3,98.1c-21.7-15.8-35.8-35.2-44.1-60.6L910.4,301.3z"/>
				</g>
			</g>
			<g>
				<rect x="1201.1" y="246.7" fill="#68CEF6" width="34.7" height="27.7"/>
				<g>
					<path fill="#6D8AA3" d="M910.4,301.3v121.3c-26.8,0-49.6-7.4-71.3-23.2L910.4,301.3z"/>
				</g>
			</g>
			<g>
				<rect x="1199.3" y="287.1" fill="#7FD4F7" width="34.7" height="27.7"/>
				<g>
					<path fill="#5D7D98" d="M910.4,301.3l71.3,98.1c-21.7,15.7-44.5,23.2-71.3,23.2V301.3z"/>
				</g>
			</g>
			<g>
				<rect x="1199.3" y="328.7" fill="#A9E0FA" width="34.7" height="27.7"/>
				<g>
					<path fill="#4E718D" d="M910.4,301.3l115.4,37.5c-8.3,25.5-22.4,44.9-44.1,60.6L910.4,301.3z"/>
				</g>
			</g>
			<g>
				<rect x="1196.9" y="370.3" fill="#BCE6FB" width="34.7" height="27.7"/>
				<g>
					<path fill="#3F6683" d="M910.4,301.3l115.4-37.5c8.3,25.5,8.3,49.5,0,75L910.4,301.3z"/>
				</g>
			</g>
			<g>
				<rect x="1199.3" y="411.9" fill="#CFEDFC" width="34.7" height="27.7"/>
				<g>
					<path fill="#1A5371" d="M910.4,301.3l71.3-98.1c21.7,15.7,35.8,35.2,44.1,60.6L910.4,301.3z"/>
				</g>
			</g>
			<g>
				<rect x="1199.3" y="453.5" fill="#E1F4FD" width="34.7" height="27.7"/>
				<g>
					<path fill="#004261" d="M910.4,301.3V180c26.8,0,49.6,7.4,71.3,23.2L910.4,301.3z"/>
				</g>
			</g>
		</g>
		<g>
			<text transform="matrix(1 0 0 1 1238.2783 97.9537)"><tspan x="0" y="0" font-family="'AvenirNext-Bold'" font-size="12.9954">Ene</tspan><tspan x="23.6" y="0" font-family="'AvenirNext-Bold'" font-size="12.9954">r</tspan><tspan x="28.6" y="0" font-family="'AvenirNext-Bold'" font-size="12.9954">gie</tspan></text>
			<text transform="matrix(1 0 0 1 1238.2783 139.5386)"><tspan x="0" y="0" font-family="'AvenirNext-Bold'" font-size="12.9954">V</tspan><tspan x="8.6" y="0" font-family="'AvenirNext-Bold'" font-size="12.9954">isserij</tspan></text>
			<text transform="matrix(1 0 0 1 1238.2783 181.1236)" font-family="'AvenirNext-Bold'" font-size="12.9954">Militair</text>
			<text transform="matrix(1 0 0 1 1238.2783 222.7085)"><tspan x="0" y="0" font-family="'AvenirNext-Bold'" font-size="12.9954">Eco</tspan><tspan x="22.6" y="0" font-family="'AvenirNext-Bold'" font-size="12.9954">-</tspan><tspan x="26.7" y="0" font-family="'AvenirNext-Bold'" font-size="12.9954">Services</tspan></text>
			<text transform="matrix(1 0 0 1 1238.2783 264.2935)"><tspan x="0" y="0" font-family="'AvenirNext-Bold'" font-size="12.9954">R</tspan><tspan x="8.5" y="0" font-family="'AvenirNext-Bold'" font-size="12.9954">ec</tspan><tspan x="22.7" y="0" font-family="'AvenirNext-Bold'" font-size="12.9954">r</tspan><tspan x="27.7" y="0" font-family="'AvenirNext-Bold'" font-size="12.9954">e</tspan><tspan x="35.3" y="0" font-family="'AvenirNext-Bold'" font-size="12.9954">a</tspan><tspan x="42.5" y="0" font-family="'AvenirNext-Bold'" font-size="12.9954">tie</tspan></text>
			<text transform="matrix(1 0 0 1 1238.2783 305.8784)" font-family="'AvenirNext-Bold'" font-size="12.9954">Industrie</text>
			<text transform="matrix(1 0 0 1 1238.2783 347.4634)"><tspan x="0" y="0" font-family="'AvenirNext-Bold'" font-size="12.9954">Irrig</tspan><tspan x="26.8" y="0" font-family="'AvenirNext-Bold'" font-size="12.9954">a</tspan><tspan x="34" y="0" font-family="'AvenirNext-Bold'" font-size="12.9954">tie</tspan></text>
			<text transform="matrix(1 0 0 1 1238.2783 389.0489)"><tspan x="0" y="0" font-family="'AvenirNext-Bold'" font-size="12.9954">V</tspan><tspan x="8.3" y="0" font-family="'AvenirNext-Bold'" font-size="12.9954">eiligheid</tspan></text>
			<text transform="matrix(1 0 0 1 1238.2783 430.6328)"><tspan x="0" y="0" font-family="'AvenirNext-Bold'" font-size="12.9954" letter-spacing="-1">T</tspan><tspan x="6.4" y="0" font-family="'AvenirNext-Bold'" font-size="12.9954">r</tspan><tspan x="11.3" y="0" font-family="'AvenirNext-Bold'" font-size="12.9954">anspo</tspan><tspan x="49.6" y="0" font-family="'AvenirNext-Bold'" font-size="12.9954">r</tspan><tspan x="54.6" y="0" font-family="'AvenirNext-Bold'" font-size="12.9954">t</tspan></text>
			<text transform="matrix(1 0 0 1 1238.2783 472.2188)"><tspan x="0" y="0" font-family="'AvenirNext-Bold'" font-size="12.9954">Drinkw</tspan><tspan x="46.1" y="0" font-family="'AvenirNext-Bold'" font-size="12.9954">a</tspan><tspan x="53.3" y="0" font-family="'AvenirNext-Bold'" font-size="12.9954">ter</tspan></text>
		</g>
	</g>
	<circle fill="#FFFFFF" cx="910.4" cy="301.3" r="89.9"/>
	<g>
		<rect x="656.8" y="342.6" fill="#E1F4FD" width="35.5" height="35.5"/>
		<rect x="656.8" y="306.9" fill="#C8DAE6" width="35.5" height="35.5"/>
		<rect x="656.8" y="271.2" fill="#B3C7D7" width="35.5" height="35.5"/>
		<rect x="656.8" y="235.4" fill="#A0B6C9" width="35.5" height="35.5"/>
		<rect x="656.8" y="199.7" fill="#8EA6BB" width="35.5" height="35.5"/>
		<rect x="656.8" y="164" fill="#7D97AF" width="35.5" height="35.5"/>
		<rect x="656.8" y="128.2" fill="#6D8AA3" width="35.5" height="35.5"/>
		<rect x="656.8" y="92.5" fill="#5D7D98" width="35.5" height="35.5"/>
		<rect x="656.8" y="56.8" fill="#4E718D" width="35.5" height="35.5"/>
		<rect x="656.8" y="21.1" fill="#3F6683" width="35.5" height="35.5"/>
		<rect x="656.8" y="-14.7" fill="#2E5C7A" width="35.5" height="35.5"/>
		<rect x="656.8" y="-50.4" fill="#1A5371" width="35.5" height="35.5"/>
		<rect x="656.8" y="-86.1" fill="#004A69" width="35.5" height="35.5"/>
		<rect x="656.8" y="-121.9" fill="#004261" width="35.5" height="35.5"/>
	</g>
</g>
<g id="Layer_4">
	<g id="LINE_19_">
		
			<line fill="none" stroke="#D1D3D4" stroke-width="0.7087" stroke-linecap="round" stroke-linejoin="round" stroke-miterlimit="10" x1="176.1" y1="432.7" x2="383.5" y2="142.1"/>
	</g>
	<g id="LINE_18_">
		
			<line fill="none" stroke="#D1D3D4" stroke-width="0.7087" stroke-linecap="round" stroke-linejoin="round" stroke-miterlimit="10" x1="110.5" y1="344" x2="449.1" y2="230.8"/>
	</g>
	<g id="LINE_17_">
		
			<line fill="none" stroke="#D1D3D4" stroke-width="0.7087" stroke-linecap="round" stroke-linejoin="round" stroke-miterlimit="10" x1="109.5" y1="233.7" x2="450.1" y2="341.1"/>
	</g>
	<g id="LINE_16_">
		
			<line fill="none" stroke="#D1D3D4" stroke-width="0.7087" stroke-linecap="round" stroke-linejoin="round" stroke-miterlimit="10" x1="173.6" y1="143.9" x2="386" y2="430.9"/>
	</g>
	<g id="LINE_15_">
		
			<line fill="none" stroke="#D1D3D4" stroke-width="0.7087" stroke-linecap="round" stroke-linejoin="round" stroke-miterlimit="10" x1="278.3" y1="108.9" x2="281.3" y2="465.9"/>
	</g>
	<g id="LINE_14_">
		
			<line fill="none" stroke="#F15A22" stroke-width="0.7087" stroke-linecap="round" stroke-linejoin="round" stroke-miterlimit="10" x1="383.5" y1="142.1" x2="176.1" y2="432.7"/>
	</g>
	<g id="LINE_13_">
		
			<line fill="none" stroke="#D1D3D4" stroke-width="0.7087" stroke-linecap="round" stroke-linejoin="round" stroke-miterlimit="10" x1="449.1" y1="230.8" x2="110.5" y2="344"/>
	</g>
	<g id="LINE_12_">
		
			<line fill="none" stroke="#F15A22" stroke-width="0.7087" stroke-linecap="round" stroke-linejoin="round" stroke-miterlimit="10" x1="450.1" y1="341.1" x2="109.5" y2="233.7"/>
	</g>
	<g id="LINE_11_">
		<line fill="none" stroke="#D1D3D4" stroke-width="0.7087" stroke-miterlimit="10" x1="386" y1="430.9" x2="173.6" y2="143.9"/>
	</g>
	<g id="LINE_10_">
		
			<line fill="none" stroke="#F15A22" stroke-width="0.7087" stroke-linecap="round" stroke-linejoin="round" stroke-miterlimit="10" x1="281.3" y1="465.9" x2="278.3" y2="108.9"/>
	</g>
	<g id="SPLINE_81_">
		
			<path fill="none" stroke="#D1D3D4" stroke-width="0.7087" stroke-linecap="round" stroke-linejoin="round" stroke-miterlimit="10" d="
			M449.1,230.8c-113.9,31.1-204.9,98.4-273,202"/>
	</g>
	<g id="SPLINE_80_">
		
			<path fill="none" stroke="#F15A22" stroke-width="0.7087" stroke-linecap="round" stroke-linejoin="round" stroke-miterlimit="10" d="
			M450.1,341.1c-110.4-41.8-223.6-40.8-339.6,2.9"/>
	</g>
	<g id="SPLINE_79_">
		
			<path fill="none" stroke="#71AFAF" stroke-width="0.7087" stroke-linecap="round" stroke-linejoin="round" stroke-miterlimit="10" d="
			M386,430.9C321.2,332.2,229,266.5,109.5,233.7"/>
	</g>
	<g id="SPLINE_78_">
		
			<path fill="none" stroke="#F15A22" stroke-width="0.7087" stroke-linecap="round" stroke-linejoin="round" stroke-miterlimit="10" d="
			M281.3,465.9c5.6-118-30.3-225.3-107.7-322"/>
	</g>
	<g id="SPLINE_77_">
		
			<path fill="none" stroke="#D1D3D4" stroke-width="0.7087" stroke-linecap="round" stroke-linejoin="round" stroke-miterlimit="10" d="
			M176.1,432.7C250,340.6,284,232.7,278.3,108.9"/>
	</g>
	<g id="SPLINE_76_">
		
			<path fill="none" stroke="#D1D3D4" stroke-width="0.7087" stroke-linecap="round" stroke-linejoin="round" stroke-miterlimit="10" d="
			M110.5,344c113.9-31.1,204.9-98.4,273-202"/>
	</g>
	<g id="SPLINE_75_">
		
			<path fill="none" stroke="#D1D3D4" stroke-width="0.7087" stroke-linecap="round" stroke-linejoin="round" stroke-miterlimit="10" d="
			M109.5,233.7c110.4,41.8,223.6,40.8,339.6-2.9"/>
	</g>
	<g id="SPLINE_74_">
		<path fill="none" stroke="#71AFAF" stroke-width="0.7087" stroke-miterlimit="10" d="M173.6,143.9
			c64.8,98.7,156.9,164.5,276.4,197.2"/>
	</g>
	<g id="SPLINE_73_">
		
			<path fill="none" stroke="#F15A22" stroke-width="0.7087" stroke-linecap="round" stroke-linejoin="round" stroke-miterlimit="10" d="
			M278.3,108.9c-5.6,118,30.3,225.3,107.7,322"/>
	</g>
	<g id="SPLINE_72_">
		
			<path fill="none" stroke="#71AFAF" stroke-width="0.7087" stroke-linecap="round" stroke-linejoin="round" stroke-miterlimit="10" d="
			M383.5,142.1c-73.9,92.1-107.9,200.1-102.1,323.8"/>
	</g>
	<g id="SPLINE_71_">
		
			<path fill="none" stroke="#71AFAF" stroke-width="0.7087" stroke-linecap="round" stroke-linejoin="round" stroke-miterlimit="10" d="
			M176.1,432.7c38-56.4,77.1-91.3,117.3-104.7c40.2-13.4,92.4-9.1,156.7,13.1"/>
	</g>
	<g id="SPLINE_70_">
		
			<path fill="none" stroke="#D1D3D4" stroke-width="0.7087" stroke-linecap="round" stroke-linejoin="round" stroke-miterlimit="10" d="
			M110.5,344c63.9-23.3,116-28.5,156.4-15.8c40.4,12.7,80.1,47,119.1,102.7"/>
	</g>
	<g id="SPLINE_69_">
		
			<path fill="none" stroke="#71AFAF" stroke-width="0.7087" stroke-linecap="round" stroke-linejoin="round" stroke-miterlimit="10" d="
			M109.5,233.7c65.3,18.7,110.6,45.1,135.8,79.2c25.2,34.1,37.2,85.1,36,153"/>
	</g>
	<g id="SPLINE_68_">
		<path fill="none" stroke="#71AFAF" stroke-width="0.7087" stroke-miterlimit="10" d="M173.6,143.9c41.9,53.6,63,101.5,63.3,143.9
			c0.4,42.4-19.9,90.7-60.8,145"/>
	</g>
	<g id="SPLINE_67_">
		
			<path fill="none" stroke="#F15A22" stroke-width="0.7087" stroke-linecap="round" stroke-linejoin="round" stroke-miterlimit="10" d="
			M278.3,108.9c2.4,67.9-8.7,119.1-33.3,153.6c-24.6,34.5-69.4,61.7-134.4,81.5"/>
	</g>
	<g id="SPLINE_66_">
		
			<path fill="none" stroke="#71AFAF" stroke-width="0.7087" stroke-linecap="round" stroke-linejoin="round" stroke-miterlimit="10" d="
			M383.5,142.1c-38,56.4-77.1,91.3-117.3,104.7c-40.2,13.4-92.4,9.1-156.7-13.1"/>
	</g>
	<g id="SPLINE_65_">
		
			<path fill="none" stroke="#F15A22" stroke-width="0.7087" stroke-linecap="round" stroke-linejoin="round" stroke-miterlimit="10" d="
			M449.1,230.8c-63.9,23.3-116,28.5-156.4,15.8c-40.4-12.7-80.1-47-119.1-102.7"/>
	</g>
	<g id="SPLINE_64_">
		
			<path fill="none" stroke="#71AFAF" stroke-width="0.7087" stroke-linecap="round" stroke-linejoin="round" stroke-miterlimit="10" d="
			M450.1,341.1c-65.3-18.7-110.6-45.1-135.8-79.2c-25.2-34.1-37.2-85.1-36-153"/>
	</g>
	<g id="SPLINE_63_">
		
			<path fill="none" stroke="#D1D3D4" stroke-width="0.7087" stroke-linecap="round" stroke-linejoin="round" stroke-miterlimit="10" d="
			M386,430.9c-41.9-53.6-63-101.5-63.3-143.9c-0.4-42.4,19.9-90.7,60.8-145"/>
	</g>
	<g id="SPLINE_51_">
		<path fill="none" stroke="#D1D3D4" stroke-width="0.7087" stroke-miterlimit="10" d="M109.5,233.7c32.3,7.9,57.2-0.7,69.6-18.1
			c12.4-17.4,12.5-43.7-5.5-71.7"/>
	</g>
	<g id="SPLINE_50_">
		
			<path fill="none" stroke="#F15A22" stroke-width="0.7087" stroke-linecap="round" stroke-linejoin="round" stroke-miterlimit="10" d="
			M450.1,341.1c-59.6-15.4-86.7-51.5-95.8-78.6c-9.1-27.1-9.1-72.2,29.2-120.4"/>
	</g>
	<g id="SPLINE_49_">
		
			<path fill="none" stroke="#F15A22" stroke-width="0.7087" stroke-linecap="round" stroke-linejoin="round" stroke-miterlimit="10" d="
			M383.5,142.1c-33.1,51.9-75.8,66.5-104.4,66.8c-28.6,0.2-71.5-13.7-105.5-65"/>
	</g>
	<g id="SPLINE_48_">
		
			<path fill="none" stroke="#D1D3D4" stroke-width="0.7087" stroke-linecap="round" stroke-linejoin="round" stroke-miterlimit="10" d="
			M173.6,143.9c39.1,47.5,39.9,92.6,31.3,119.9c-8.6,27.2-35.1,63.8-94.4,80.3"/>
	</g>
	<g id="SPLINE_47_">
		
			<path fill="none" stroke="#71AFAF" stroke-width="0.7087" stroke-linecap="round" stroke-linejoin="round" stroke-miterlimit="10" d="
			M110.5,344c57.3-22.5,100.4-9.3,123.7,7.3c23.3,16.6,49.8,53.1,47.2,114.6"/>
	</g>
	<g id="SPLINE_46_">
		
			<path fill="none" stroke="#F15A22" stroke-width="0.7087" stroke-linecap="round" stroke-linejoin="round" stroke-miterlimit="10" d="
			M281.3,465.9c-3.7-61.4,22.2-98.4,45.2-115.4c23-17,65.9-31,123.5-9.5"/>
	</g>
	<g id="SPLINE_45_">
		
			<path fill="none" stroke="#F15A22" stroke-width="0.7087" stroke-linecap="round" stroke-linejoin="round" stroke-miterlimit="10" d="
			M176.1,432.7c33.1-51.9,75.8-66.5,104.4-66.8c28.6-0.2,71.5,13.7,105.5,65"/>
	</g>
	<g id="SPLINE_44_">
		
			<path fill="none" stroke="#D1D3D4" stroke-width="0.7087" stroke-linecap="round" stroke-linejoin="round" stroke-miterlimit="10" d="
			M109.5,233.7c59.6,15.4,86.7,51.5,95.8,78.6c9.1,27.1,9.1,72.2-29.2,120.4"/>
	</g>
	<g id="SPLINE_43_">
		
			<path fill="none" stroke="#D1D3D4" stroke-width="0.7087" stroke-linecap="round" stroke-linejoin="round" stroke-miterlimit="10" d="
			M278.3,108.9c3.7,61.4-22.2,98.4-45.2,115.4c-23,17-65.9,31-123.5,9.5"/>
	</g>
	<g id="SPLINE_42_">
		
			<path fill="none" stroke="#71AFAF" stroke-width="0.7087" stroke-linecap="round" stroke-linejoin="round" stroke-miterlimit="10" d="
			M449.1,230.8c-57.3,22.5-100.4,9.3-123.7-7.3c-23.3-16.6-49.8-53.1-47.2-114.6"/>
	</g>
	<g id="SPLINE_41_">
		
			<path fill="none" stroke="#D1D3D4" stroke-width="0.7087" stroke-linecap="round" stroke-linejoin="round" stroke-miterlimit="10" d="
			M386,430.9c-39.1-47.5-39.9-92.6-31.3-119.9c8.6-27.2,35.1-63.8,94.4-80.3"/>
	</g>
	<g id="SPLINE_40_">
		<path fill="none" stroke="#F15A22" stroke-width="0.7087" stroke-miterlimit="10" d="M383.5,142.1c-17.5,28.3-17,54.6-4.3,71.8
			c12.7,17.2,37.7,25.4,69.9,16.9"/>
	</g>
	<g id="SPLINE_39_">
		<path fill="none" stroke="#D1D3D4" stroke-width="0.7087" stroke-miterlimit="10" d="M278.3,108.9c2.5,33.2,18.3,54.2,38.7,60.6
			c20.4,6.4,45.4-1.7,66.5-27.4"/>
	</g>
	<g id="SPLINE_38_">
		<path fill="none" stroke="#71AFAF" stroke-width="0.7087" stroke-miterlimit="10" d="M173.6,143.9c21.5,25.4,46.6,33.1,67,26.3
			c20.3-6.8,35.8-28.1,37.7-61.3"/>
	</g>
	<g id="SPLINE_37_">
		<path fill="none" stroke="#71AFAF" stroke-width="0.7087" stroke-miterlimit="10" d="M109.5,233.7c32.3,7.9,57.2-0.7,69.6-18.1
			c12.4-17.4,12.5-43.7-5.5-71.7"/>
	</g>
	<g id="SPLINE_36_">
		<path fill="none" stroke="#F15A22" stroke-width="0.7087" stroke-miterlimit="10" d="M176.1,432.7c17.5-28.3,17-54.6,4.3-71.8
			c-12.7-17.2-37.7-25.4-69.9-16.9"/>
	</g>
	<g id="SPLINE_35_">
		<path fill="none" stroke="#F15A22" stroke-width="0.7087" stroke-miterlimit="10" d="M450.1,341.1c-32.3-7.9-57.2,0.7-69.6,18.1
			c-12.4,17.4-12.5,43.7,5.5,71.7"/>
	</g>
	<g id="SPLINE_34_">
		
			<path fill="none" stroke="#D1D3D4" stroke-width="0.7087" stroke-linecap="round" stroke-linejoin="round" stroke-miterlimit="10" d="
			M281.3,465.9c-2.4-67.9,8.7-119.1,33.3-153.6c24.6-34.5,69.4-61.7,134.4-81.5"/>
	</g>
	<g id="SPLINE_33_">
		<path fill="none" stroke="#F15A22" stroke-width="0.7087" stroke-miterlimit="10" d="M281.3,465.9c-2.5-33.2-18.3-54.2-38.7-60.6
			c-20.4-6.4-45.4,1.7-66.5,27.4"/>
	</g>
	<g id="SPLINE_32_">
		<path fill="none" stroke="#D1D3D4" stroke-width="0.7087" stroke-miterlimit="10" d="M386,430.9c-21.5-25.4-46.6-33.1-67-26.3
			c-20.3,6.8-35.8,28.1-37.7,61.3"/>
	</g>
	<g id="SPLINE_31_">
		<path fill="none" stroke="#71AFAF" stroke-width="0.7087" stroke-miterlimit="10" d="M110.5,344c30.8-12.6,45.9-34.1,45.7-55.6
			c-0.2-21.4-15.6-42.7-46.6-54.8"/>
	</g>
	<g id="SPLINE_30_">
		<path fill="none" stroke="#71AFAF" stroke-width="0.7087" stroke-miterlimit="10" d="M449.1,230.8c-30.8,12.6-45.9,34.1-45.7,55.6
			c0.2,21.4,15.6,42.7,46.6,54.8"/>
	</g>
	<text transform="matrix(1 0 0 1 65.5825 577.064)" font-family="'AvenirNext-Regular'" font-size="12">SYNERGIE</text>
	<text transform="matrix(1 0 0 1 65.5825 601.9849)" font-family="'AvenirNext-Regular'" font-size="12">BELANGEN CONFLICT</text>
	<text transform="matrix(1 0 0 1 65.5825 626.9058)" font-family="'AvenirNext-Regular'" font-size="12">NEUTRAAL</text>
</g>
<g id="LINES">
	<g>
		<g>
			<path fill="none" stroke="#B3C7D7" stroke-width="0.2835" stroke-miterlimit="10" d="M937.2,387.3c0.1-14.8-11.9-26.8-26.7-26.9
				c-14.8-0.1-26.8,11.9-26.9,26.7"/>
		</g>
		<g>
			<path fill="none" stroke="#B3C7D7" stroke-width="0.2835" stroke-miterlimit="10" d="M882.2,385.8c8.7-11.9,6.2-28.7-5.8-37.5
				c-11.9-8.7-28.7-6.2-37.5,5.8"/>
		</g>
		<g>
			<path fill="none" stroke="#B3C7D7" stroke-width="0.2835" stroke-miterlimit="10" d="M838.7,352.3c14.1-4.5,21.9-19.6,17.3-33.7
				c-4.5-14.1-19.6-21.9-33.7-17.3"/>
		</g>
		<g>
			<path fill="none" stroke="#B3C7D7" stroke-width="0.2835" stroke-miterlimit="10" d="M823.1,299.6c14.1,4.6,29.2-3,33.8-17.1
				c4.6-14.1-3-29.2-17.1-33.8"/>
		</g>
		<g>
			<path fill="none" stroke="#B3C7D7" stroke-width="0.2835" stroke-miterlimit="10" d="M841.5,247.8c8.7,12,25.4,14.7,37.4,6.1
				c12-8.7,14.7-25.4,6.1-37.4"/>
		</g>
		<g>
			<path fill="none" stroke="#B3C7D7" stroke-width="0.2835" stroke-miterlimit="10" d="M886.8,216.8c-0.1,14.8,11.9,26.8,26.7,26.9
				c14.8,0.1,26.8-11.9,26.9-26.7"/>
		</g>
		<g>
			<path fill="none" stroke="#B3C7D7" stroke-width="0.2835" stroke-miterlimit="10" d="M941.7,218.2c-8.7,11.9-6.2,28.7,5.8,37.5
				c11.9,8.7,28.7,6.2,37.5-5.8"/>
		</g>
		<g>
			<path fill="none" stroke="#B3C7D7" stroke-width="0.2835" stroke-miterlimit="10" d="M985.3,251.7c-14.1,4.5-21.9,19.6-17.3,33.7
				c4.5,14.1,19.6,21.9,33.7,17.3"/>
		</g>
		<g>
			<path fill="none" stroke="#B3C7D7" stroke-width="0.2835" stroke-miterlimit="10" d="M1000.9,304.4c-14.1-4.6-29.2,3-33.8,17.1
				c-4.6,14.1,3,29.2,17.1,33.8"/>
		</g>
		<g>
			<path fill="none" stroke="#B3C7D7" stroke-width="0.2835" stroke-miterlimit="10" d="M982.5,356.2c-8.7-12-25.4-14.7-37.4-6.1
				c-12,8.7-14.7,25.4-6.1,37.4"/>
		</g>
		<g>
			<path fill="none" stroke="#B3C7D7" stroke-width="0.2835" stroke-miterlimit="10" d="M937.2,387.3c0.1-14.8-11.9-26.8-26.7-26.9
				c-14.8-0.1-26.8,11.9-26.9,26.7"/>
		</g>
	</g>
	<g id="POLYLINE_19_">
		<g id="XMLID_1_">
			<g>
				<path fill="#4E718D" d="M494,285.6c0.4,46.4-12.9,88.5-39.8,126.3l-29.1-20.7c22.5-31.5,33.5-66.6,33.2-105.2L494,285.6z"/>
				<path fill="#3F6683" d="M494,285.6l-35.7,0.3c-0.3-38.7-12-73.6-35-104.6L452,160C479.6,197.3,493.6,239.2,494,285.6z"/>
				<path fill="#5D7D98" d="M425.1,391.1l29.1,20.7c-27,37.8-62.4,64-106.4,78.8l-11.3-33.9C373.1,444.4,402.7,422.6,425.1,391.1z"
					/>
				<path fill="#1A5371" d="M452,160l-28.7,21.2c-23-31.1-52.9-52.4-89.8-64.1l10.7-34.1C388.5,97.1,424.4,122.7,452,160z"/>
				<path fill="#6D8AA3" d="M336.4,456.7l11.3,33.9c-21.5,7.2-43.5,10.9-66.1,11.1c-22.6,0.2-44.7-3.1-66.3-9.9l10.7-34.1
					c18,5.7,36.4,8.4,55.2,8.3C300.2,465.8,318.6,462.7,336.4,456.7z"/>
				<path fill="#004261" d="M344.2,83.1l-10.7,34.1c-18-5.7-36.4-8.4-55.2-8.3c-18.9,0.2-37.2,3.2-55.1,9.2l-11.3-33.9
					c21.4-7.2,43.5-10.9,66.1-11.1C300.6,73,322.7,76.3,344.2,83.1z"/>
				<path fill="#7D97AF" d="M226.1,457.7l-10.7,34.1c-44.2-14-80.2-39.6-107.8-76.9l28.7-21.2C159.3,424.7,189.2,446,226.1,457.7z"
					/>
				<path fill="#B3C7D7" d="M211.8,84.2l11.3,33.9c-36.7,12.3-66.2,34.1-88.7,65.6L105.4,163C132.4,125.2,167.8,99,211.8,84.2z"/>
				<path fill="#8EA6BB" d="M136.3,393.6l-28.7,21.2C80,377.5,66,335.7,65.6,289.3l35.7-0.3C101.6,327.6,113.3,362.5,136.3,393.6z"
					/>
				<path fill="#A0B6C9" d="M105.4,163l29.1,20.7c-22.5,31.5-33.5,66.6-33.2,105.2l-35.7,0.3C65.2,242.9,78.5,200.8,105.4,163z"/>
			</g>
			<g>
				<path fill="none" stroke="#004261" stroke-miterlimit="10" d="M223.2,118.1c17.9-6,36.2-9,55.1-9.2"/>
				<path fill="none" stroke="#004261" stroke-miterlimit="10" d="M278.3,108.9c18.9-0.2,37.3,2.6,55.2,8.3"/>
				<path fill="none" stroke="#004261" stroke-miterlimit="10" d="M344.2,83.1c-21.6-6.8-43.7-10.1-66.3-9.9"/>
				<path fill="none" stroke="#004261" stroke-miterlimit="10" d="M277.9,73.2c-22.6,0.2-44.7,3.9-66.1,11.1"/>
				<path fill="none" stroke="#004261" stroke-miterlimit="10" d="M134.5,183.7c22.5-31.5,52-53.4,88.7-65.6"/>
				<line fill="none" stroke="#004261" stroke-miterlimit="10" x1="223.2" y1="118.1" x2="211.8" y2="84.2"/>
				<path fill="none" stroke="#004261" stroke-miterlimit="10" d="M211.8,84.2c-44,14.7-79.5,41-106.4,78.8"/>
				<path fill="none" stroke="#004261" stroke-miterlimit="10" d="M101.3,288.9c-0.3-38.7,10.7-73.7,33.2-105.2"/>
				<line fill="none" stroke="#004261" stroke-miterlimit="10" x1="134.5" y1="183.7" x2="105.4" y2="163"/>
				<path fill="none" stroke="#004261" stroke-miterlimit="10" d="M105.4,163c-27,37.8-40.2,79.9-39.8,126.3"/>
				<path fill="none" stroke="#004261" stroke-miterlimit="10" d="M65.6,289.3c0.4,46.4,14.4,88.3,42,125.6"/>
				<path fill="none" stroke="#004261" stroke-miterlimit="10" d="M136.3,393.6c-23-31.1-34.7-66-35-104.6"/>
				<line fill="none" stroke="#004261" stroke-miterlimit="10" x1="101.3" y1="288.9" x2="65.6" y2="289.3"/>
				<path fill="none" stroke="#004261" stroke-miterlimit="10" d="M226.1,457.7c-36.9-11.6-66.8-33-89.8-64.1"/>
				<line fill="none" stroke="#004261" stroke-miterlimit="10" x1="136.3" y1="393.6" x2="107.6" y2="414.8"/>
				<path fill="none" stroke="#004261" stroke-miterlimit="10" d="M107.6,414.8c27.6,37.3,63.5,62.9,107.8,76.9"/>
				<path fill="none" stroke="#004261" stroke-miterlimit="10" d="M336.4,456.7c-17.9,6-36.2,9-55.1,9.2
					c-18.9,0.2-37.3-2.6-55.2-8.3"/>
				<line fill="none" stroke="#004261" stroke-miterlimit="10" x1="226.1" y1="457.7" x2="215.4" y2="491.7"/>
				<path fill="none" stroke="#004261" stroke-miterlimit="10" d="M215.4,491.7c21.6,6.8,43.7,10.1,66.3,9.9
					c22.6-0.2,44.6-3.9,66.1-11.1"/>
				<path fill="none" stroke="#004261" stroke-miterlimit="10" d="M425.1,391.1c-22.5,31.5-52,53.4-88.7,65.6"/>
				<line fill="none" stroke="#004261" stroke-miterlimit="10" x1="336.4" y1="456.7" x2="347.8" y2="490.6"/>
				<path fill="none" stroke="#004261" stroke-miterlimit="10" d="M347.8,490.6c44-14.7,79.5-41,106.4-78.8"/>
				<path fill="none" stroke="#004261" stroke-miterlimit="10" d="M458.3,285.9c0.3,38.7-10.7,73.7-33.2,105.2"/>
				<line fill="none" stroke="#004261" stroke-miterlimit="10" x1="425.1" y1="391.1" x2="454.2" y2="411.8"/>
				<path fill="none" stroke="#004261" stroke-miterlimit="10" d="M454.2,411.8C481.1,374,494.4,332,494,285.6"/>
				<path fill="none" stroke="#004261" stroke-miterlimit="10" d="M423.3,181.2c23,31.1,34.7,66,35,104.6"/>
				<line fill="none" stroke="#004261" stroke-miterlimit="10" x1="458.3" y1="285.9" x2="494" y2="285.6"/>
				<path fill="none" stroke="#004261" stroke-miterlimit="10" d="M494,285.6c-0.4-46.4-14.4-88.3-42-125.6"/>
				<path fill="none" stroke="#004261" stroke-miterlimit="10" d="M452,160c-27.6-37.3-63.5-62.9-107.8-76.9"/>
				<line fill="none" stroke="#004261" stroke-miterlimit="10" x1="344.2" y1="83.1" x2="333.5" y2="117.2"/>
				<path fill="none" stroke="#004261" stroke-miterlimit="10" d="M333.5,117.2c36.9,11.6,66.8,33,89.8,64.1"/>
				<line fill="none" stroke="#004261" stroke-miterlimit="10" x1="423.3" y1="181.2" x2="452" y2="160"/>
			</g>
		</g>
	</g>
</g>
<g id="TEXT">
	<text transform="matrix(1 0 0 1 889.477 297.4195)"><tspan x="0" y="0" fill="#00AEEF" font-family="'AvenirNext-Bold'" font-size="12">LIQUID </tspan><tspan x="-11.4" y="14.4" fill="#00AEEF" font-family="'AvenirNext-Bold'" font-size="12">COMMONS</tspan></text>
	<g>
		<text transform="matrix(0.809 0.5878 -0.5878 0.809 1034.3223 391.1532)"><tspan x="0" y="0" fill="#00AEEF" font-family="'AvenirNext-Bold'" font-size="12">ECO</tspan><tspan x="-13.3" y="14.4" fill="#00AEEF" font-family="'AvenirNext-Bold'" font-size="12">HABITAT</tspan></text>
	</g>
	<g>
		
			<text transform="matrix(0.309 0.9511 -0.9511 0.309 953.515 428.9969)" fill="#00AEEF" font-family="'AvenirNext-Bold'" font-size="12">RECREATIE</text>
	</g>
	<g>
		
			<text transform="matrix(0.309 -0.9511 0.9511 0.309 842.4731 489.8262)" fill="#00AEEF" font-family="'AvenirNext-Bold'" font-size="12">INDUSTRIE</text>
	</g>
	<g>
		
			<text transform="matrix(0.809 -0.5878 0.5878 0.809 748.375 413.412)" fill="#00AEEF" font-family="'AvenirNext-Bold'" font-size="12">IRRIGATIE</text>
	</g>
	<g>
		<text transform="matrix(1 0 0 1 710.8583 297.9117)" fill="#00AEEF" font-family="'AvenirNext-Bold'" font-size="12">VEILIGHEID</text>
	</g>
	<g>
		
			<text transform="matrix(0.809 0.5878 -0.5878 0.809 750.7546 180.9777)" fill="#00AEEF" font-family="'AvenirNext-Bold'" font-size="12">TRANSPORT</text>
	</g>
	<g>
		<text transform="matrix(0.309 0.9511 -0.9511 0.309 859.0408 127.3826)"><tspan x="0" y="0" fill="#00AEEF" font-family="'AvenirNext-Bold'" font-size="12">DRINK</tspan><tspan x="-2.1" y="14.4" fill="#00AEEF" font-family="'AvenirNext-Bold'" font-size="12">WATER</tspan></text>
	</g>
	<g>
		
			<text transform="matrix(0.309 -0.9511 0.9511 0.309 949.3214 171.829)" fill="#00AEEF" font-family="'AvenirNext-Bold'" font-size="12">ENERGIE</text>
	</g>
	<g>
		
			<text transform="matrix(0.809 -0.5878 0.5878 0.809 1020.0891 220.2571)" fill="#00AEEF" font-family="'AvenirNext-Bold'" font-size="12">VISSERIJ</text>
	</g>
	<g>
		<text transform="matrix(1 0 0 1 1044.2036 301.2657)" fill="#00AEEF" font-family="'AvenirNext-Bold'" font-size="12">MILITAIRE</text>
	</g>
	<line fill="none" stroke="#F15A22" stroke-width="1.4173" stroke-miterlimit="10" x1="0" y1="598" x2="52.9" y2="598"/>
	<line fill="none" stroke="#BCBEC0" stroke-width="1.4173" stroke-miterlimit="10" x1="0" y1="622.9" x2="52.9" y2="622.9"/>
	<line fill="none" stroke="#71AFAF" stroke-width="1.4173" stroke-miterlimit="10" x1="0" y1="573.1" x2="52.9" y2="573.1"/>
	<g>
		<path fill="#FFFFFF" d="M240.2,91.2l2.8-0.5c0.5-0.1,1.1-0.1,1.6,0c0.6,0.1,1.1,0.3,1.6,0.6c0.5,0.3,0.9,0.7,1.2,1.1
			s0.6,1.1,0.7,1.8c0.1,0.7,0.1,1.3-0.1,1.9s-0.4,1.1-0.8,1.5c-0.4,0.4-0.8,0.8-1.3,1c-0.5,0.3-1,0.4-1.5,0.5l-2.8,0.5L240.2,91.2z
			 M242.4,98.7l1.7-0.3c0.6-0.1,1.2-0.3,1.6-0.6c0.4-0.3,0.8-0.6,1-1c0.3-0.4,0.4-0.8,0.5-1.2c0.1-0.4,0.1-0.9,0-1.3
			c-0.1-0.4-0.2-0.8-0.4-1.2c-0.2-0.4-0.5-0.7-0.9-1s-0.8-0.5-1.3-0.6c-0.5-0.1-1.1-0.1-1.7,0l-1.7,0.3L242.4,98.7z"/>
		<path fill="#FFFFFF" d="M251.6,98l-0.9,0.1l-1-8.4l2.5-0.3c0.4-0.1,0.8-0.1,1.2,0c0.4,0,0.7,0.1,1,0.3c0.3,0.1,0.5,0.4,0.7,0.6
			c0.2,0.3,0.3,0.6,0.3,1c0,0.3,0,0.6-0.1,0.9c-0.1,0.3-0.2,0.5-0.4,0.7c-0.2,0.2-0.4,0.4-0.6,0.5c-0.2,0.1-0.5,0.2-0.8,0.3l3,3.7
			l-1,0.1l-2.8-3.7l-1.4,0.2L251.6,98z M251,93.4l1.5-0.2c0.7-0.1,1.2-0.3,1.5-0.6s0.5-0.7,0.4-1.2c0-0.3-0.1-0.5-0.2-0.7
			c-0.1-0.2-0.3-0.3-0.5-0.4c-0.2-0.1-0.4-0.2-0.7-0.2s-0.6,0-0.9,0l-1.5,0.2L251,93.4z"/>
		<path fill="#FFFFFF" d="M258.9,97.2l-0.9,0.1l-0.8-8.5l0.9-0.1L258.9,97.2z"/>
		<path fill="#FFFFFF" d="M267.3,95.4L267.3,95.4l-0.4-7.2l0.9-0.1l0.5,8.5l-1.1,0.1l-5.4-7l0,0l0.4,7.3l-0.9,0.1l-0.5-8.5l1.1-0.1
			L267.3,95.4z"/>
		<path fill="#FFFFFF" d="M271.4,91.8L271.4,91.8l4-3.9l1.2,0l-4.2,3.9l4.6,4.6l-1.3,0l-4.3-4.5l0,0l0.1,4.5l-0.9,0l-0.1-8.5l0.9,0
			L271.4,91.8z"/>
		<path fill="#FFFFFF" d="M280.4,95.2L280.4,95.2l2.4-7.2l1,0l1.9,7.4l0,0l2.3-7.2l0.9,0l-2.8,8.4l-1,0l-1.9-7.4l0,0l-2.4,7.2l-1,0
			l-2.2-8.6l0.9,0L280.4,95.2z"/>
		<path fill="#FFFFFF" d="M289.9,96.9l-0.9-0.1l4.4-8.2l0.8,0.1l2.9,8.8l-1-0.1l-0.7-2.3l-4.4-0.4L289.9,96.9z M291.4,93.9l3.7,0.3
			l-1.5-4.7L291.4,93.9z"/>
		<path fill="#FFFFFF" d="M300.5,97.9l-0.9-0.1l0.9-7.7l-2.8-0.3l0.1-0.8l6.5,0.8l-0.1,0.8l-2.8-0.3L300.5,97.9z"/>
		<path fill="#FFFFFF" d="M305.7,97.8l4.5,0.7l-0.1,0.8l-5.3-0.9l1.3-8.4l5.2,0.8l-0.1,0.8l-4.3-0.7l-0.5,2.9l4.1,0.7l-0.1,0.8
			l-4.1-0.7L305.7,97.8z"/>
		<path fill="#FFFFFF" d="M312.8,99.8l-0.8-0.2l1.7-8.3l2.4,0.5c0.4,0.1,0.8,0.2,1.1,0.3c0.3,0.1,0.6,0.3,0.8,0.6
			c0.2,0.2,0.4,0.5,0.5,0.8c0.1,0.3,0.1,0.7,0,1.1c-0.1,0.3-0.2,0.6-0.3,0.8c-0.2,0.2-0.4,0.4-0.6,0.6s-0.5,0.2-0.8,0.3
			s-0.6,0.1-0.9,0l1.6,4.5l-1-0.2l-1.5-4.4l-1.4-0.3L312.8,99.8z M313.7,95.2l1.5,0.3c0.7,0.1,1.2,0.1,1.7-0.1
			c0.4-0.2,0.7-0.5,0.8-1c0.1-0.3,0-0.5,0-0.7c-0.1-0.2-0.2-0.4-0.3-0.5c-0.2-0.2-0.4-0.3-0.6-0.4c-0.2-0.1-0.5-0.2-0.8-0.3
			l-1.5-0.3L313.7,95.2z"/>
		<path fill="#FFFFFF" d="M362.5,115.7l3.5,1.8l-0.3,0.7l-4.3-2.2l3.8-7.6l0.8,0.4L362.5,115.7z"/>
		<path fill="#FFFFFF" d="M376.1,119.1c-0.3,0.6-0.7,1-1.2,1.4c-0.5,0.4-1,0.6-1.5,0.8c-0.5,0.2-1.1,0.2-1.7,0.1
			c-0.6-0.1-1.1-0.3-1.7-0.6c-0.6-0.3-1-0.7-1.4-1.1c-0.4-0.5-0.6-1-0.8-1.5c-0.2-0.5-0.2-1.1-0.1-1.7s0.3-1.2,0.6-1.7
			s0.7-1,1.2-1.4c0.5-0.4,1-0.6,1.5-0.8c0.5-0.2,1.1-0.2,1.7-0.1c0.6,0.1,1.1,0.3,1.7,0.6c0.6,0.3,1,0.7,1.4,1.1
			c0.4,0.5,0.6,1,0.8,1.5c0.2,0.5,0.2,1.1,0.1,1.7C376.6,117.9,376.4,118.5,376.1,119.1z M375.3,118.6c0.2-0.4,0.4-0.9,0.5-1.4
			c0.1-0.5,0.1-0.9,0-1.4c-0.1-0.4-0.3-0.9-0.6-1.2c-0.3-0.4-0.7-0.7-1.1-1c-0.5-0.3-1-0.4-1.4-0.5c-0.5,0-0.9,0-1.4,0.2
			c-0.4,0.1-0.8,0.4-1.2,0.7c-0.4,0.3-0.7,0.7-0.9,1.1c-0.2,0.4-0.4,0.9-0.5,1.4c-0.1,0.5-0.1,0.9,0,1.4c0.1,0.4,0.3,0.9,0.6,1.2
			c0.3,0.4,0.7,0.7,1.1,1c0.5,0.3,1,0.4,1.4,0.5c0.5,0,0.9,0,1.4-0.2c0.4-0.1,0.8-0.4,1.2-0.7C374.7,119.4,375,119.1,375.3,118.6z"
			/>
		<path fill="#FFFFFF" d="M384.8,121.3c-0.1-0.4-0.3-0.8-0.5-1.2c-0.3-0.4-0.6-0.7-1.1-1c-0.5-0.3-0.9-0.5-1.4-0.5
			c-0.5-0.1-0.9,0-1.4,0.1c-0.4,0.1-0.8,0.3-1.2,0.6c-0.4,0.3-0.7,0.6-1,1.1c-0.3,0.4-0.4,0.9-0.5,1.3c-0.1,0.5-0.1,0.9,0,1.4
			c0.1,0.4,0.3,0.9,0.5,1.3c0.3,0.4,0.6,0.7,1.1,1c0.4,0.3,0.8,0.4,1.2,0.6s0.7,0.2,1,0.2l1.4-2.2l-1.7-1l0.4-0.7l2.4,1.5l-2,3.3
			c-0.5,0-1.1-0.1-1.6-0.3c-0.5-0.2-1-0.4-1.5-0.7c-0.5-0.3-1-0.7-1.3-1.2c-0.3-0.5-0.6-1-0.7-1.5c-0.1-0.5-0.1-1.1,0-1.7
			s0.3-1.1,0.7-1.7s0.8-1,1.2-1.3c0.5-0.3,1-0.6,1.5-0.7c0.5-0.1,1.1-0.1,1.7,0c0.6,0.1,1.1,0.3,1.7,0.6c0.6,0.4,1,0.8,1.3,1.2
			s0.5,0.9,0.6,1.4L384.8,121.3z"/>
		<path fill="#FFFFFF" d="M384.4,129.4l-0.7-0.5l4.7-7l0.7,0.5L384.4,129.4z"/>
		<path fill="#FFFFFF" d="M393.9,127.3c0-0.3-0.1-0.6-0.2-0.9c-0.1-0.3-0.4-0.6-0.7-0.8c-0.2-0.1-0.4-0.2-0.6-0.3
			c-0.2-0.1-0.4-0.1-0.6-0.1c-0.2,0-0.4,0.1-0.6,0.2c-0.2,0.1-0.4,0.3-0.5,0.5c-0.2,0.2-0.2,0.4-0.3,0.6c0,0.2,0,0.4,0.1,0.6
			c0.1,0.2,0.2,0.4,0.3,0.6c0.1,0.2,0.3,0.4,0.4,0.6c0.2,0.2,0.4,0.5,0.5,0.8c0.2,0.3,0.3,0.5,0.4,0.8s0.1,0.6,0.1,0.9
			c0,0.3-0.2,0.6-0.4,1c-0.2,0.3-0.5,0.6-0.8,0.8c-0.3,0.2-0.6,0.2-1,0.3c-0.3,0-0.7,0-1-0.2c-0.3-0.1-0.6-0.3-0.9-0.5
			c-0.2-0.1-0.4-0.3-0.6-0.5c-0.2-0.2-0.3-0.4-0.5-0.6c-0.1-0.2-0.2-0.5-0.3-0.7c-0.1-0.2-0.1-0.5-0.1-0.8l0.9,0
			c0,0.4,0,0.7,0.2,1.1c0.2,0.4,0.4,0.7,0.8,0.9c0.2,0.1,0.4,0.2,0.6,0.3c0.2,0.1,0.4,0.1,0.7,0.1c0.2,0,0.4-0.1,0.7-0.2
			c0.2-0.1,0.4-0.3,0.6-0.5c0.2-0.2,0.3-0.5,0.3-0.7c0-0.2,0-0.5-0.1-0.7c-0.1-0.2-0.2-0.4-0.3-0.7c-0.2-0.2-0.3-0.4-0.5-0.7
			c-0.2-0.2-0.3-0.5-0.5-0.7c-0.2-0.2-0.3-0.5-0.3-0.8s-0.1-0.6,0-0.8c0-0.3,0.2-0.6,0.4-0.9c0.2-0.3,0.5-0.6,0.8-0.7
			s0.6-0.2,0.9-0.2c0.3,0,0.6,0.1,1,0.2c0.3,0.1,0.6,0.3,0.8,0.4c0.5,0.3,0.8,0.7,1,1.1c0.2,0.4,0.3,0.8,0.3,1.1L393.9,127.3z"/>
		<path fill="#FFFFFF" d="M394,136.4l-0.7-0.5l4.7-6.1l-2.3-1.7l0.5-0.6l5.2,4L401,132l-2.3-1.7L394,136.4z"/>
		<path fill="#FFFFFF" d="M398.1,139.6l-0.7-0.5l5.4-6.6l0.7,0.5L398.1,139.6z"/>
		<path fill="#FFFFFF" d="M401.1,141.1l3.4,3l-0.5,0.6l-4.1-3.5l5.5-6.4l4,3.4l-0.5,0.6l-3.3-2.9l-1.9,2.2l3.1,2.7l-0.5,0.6
			l-3.1-2.7L401.1,141.1z"/>
		<path fill="#FFFFFF" d="M409.3,143L409.3,143l5.6,0l0.9,0.8l-5.8-0.1l0.2,6.5l-0.9-0.9l0-6.2l0,0l-3.1,3.3l-0.6-0.6l5.8-6.2
			l0.6,0.6L409.3,143z"/>
		<path fill="#FFFFFF" d="M449,203.5l-0.4-0.8l6.9-3.4l-1.3-2.5l0.7-0.3l2.9,5.9l-0.7,0.3l-1.3-2.5L449,203.5z"/>
		<path fill="#FFFFFF" d="M458,212.9c-0.6,0.3-1.2,0.4-1.8,0.4c-0.6,0-1.1-0.1-1.7-0.3c-0.5-0.2-1-0.5-1.4-0.9
			c-0.4-0.4-0.8-0.9-1-1.5c-0.3-0.6-0.4-1.2-0.4-1.7s0.1-1.1,0.3-1.7c0.2-0.5,0.5-1,0.9-1.4c0.4-0.4,0.9-0.8,1.5-1
			c0.6-0.3,1.2-0.4,1.8-0.4c0.6,0,1.1,0.1,1.7,0.3c0.5,0.2,1,0.5,1.4,0.9s0.8,0.9,1,1.5c0.3,0.6,0.4,1.2,0.4,1.7
			c0,0.6-0.1,1.1-0.3,1.7c-0.2,0.5-0.5,1-0.9,1.4C459.1,212.3,458.6,212.6,458,212.9z M457.6,212.1c0.5-0.2,0.9-0.5,1.2-0.8
			c0.3-0.3,0.6-0.7,0.8-1.1c0.2-0.4,0.3-0.9,0.3-1.3c0-0.5-0.1-1-0.3-1.5c-0.2-0.5-0.5-0.9-0.9-1.2c-0.4-0.3-0.8-0.5-1.2-0.7
			c-0.4-0.1-0.9-0.2-1.4-0.2c-0.5,0-0.9,0.2-1.4,0.4c-0.5,0.2-0.9,0.5-1.2,0.8s-0.6,0.7-0.8,1.1c-0.2,0.4-0.3,0.9-0.3,1.3
			c0,0.5,0.1,1,0.3,1.5c0.2,0.5,0.5,0.9,0.9,1.2c0.4,0.3,0.8,0.5,1.2,0.7c0.4,0.1,0.9,0.2,1.4,0.2S457.2,212.3,457.6,212.1z"/>
		<path fill="#FFFFFF" d="M455.7,219.4c-0.2-0.6-0.3-1.1-0.3-1.6c0.1-0.5,0.2-0.9,0.4-1.2c0.2-0.3,0.5-0.6,0.8-0.9
			c0.3-0.2,0.7-0.4,1-0.5l5-1.9l0.3,0.8l-4.9,1.9c-0.3,0.1-0.6,0.3-0.9,0.5s-0.5,0.4-0.7,0.7c-0.2,0.3-0.3,0.6-0.3,0.9
			c0,0.3,0,0.7,0.2,1.1s0.4,0.7,0.6,0.9c0.3,0.2,0.5,0.4,0.8,0.4c0.3,0.1,0.6,0.1,0.9,0.1c0.3,0,0.7-0.1,1-0.2l4.9-1.9l0.3,0.8
			l-5,1.9c-0.3,0.1-0.7,0.2-1.1,0.3c-0.4,0.1-0.8,0-1.2-0.1c-0.4-0.1-0.8-0.3-1.1-0.6S456,220,455.7,219.4z"/>
		<path fill="#FFFFFF" d="M458.2,225.4l-0.3-0.8l8-2.7l0.8,2.4c0.1,0.4,0.2,0.8,0.3,1.1c0,0.4,0,0.7-0.1,1c-0.1,0.3-0.2,0.6-0.5,0.8
			c-0.2,0.2-0.5,0.4-0.9,0.5c-0.3,0.1-0.6,0.1-0.9,0.1s-0.5-0.1-0.8-0.2c-0.2-0.1-0.5-0.3-0.6-0.5c-0.2-0.2-0.4-0.5-0.5-0.7l-3,3.7
			l-0.3-1l3-3.5l-0.5-1.4L458.2,225.4z M462.6,223.9l0.5,1.4c0.2,0.7,0.5,1.1,0.9,1.4c0.4,0.3,0.8,0.3,1.3,0.2
			c0.3-0.1,0.5-0.2,0.6-0.4c0.1-0.2,0.3-0.3,0.3-0.6c0.1-0.2,0.1-0.5,0-0.7c0-0.3-0.1-0.6-0.2-0.9l-0.5-1.5L462.6,223.9z"/>
		<path fill="#FFFFFF" d="M460.4,232.4l-0.3-0.8l8.1-2.5l0.3,0.8L460.4,232.4z"/>
		<path fill="#FFFFFF" d="M469.1,236.8c0.2-0.2,0.3-0.5,0.4-0.8c0.1-0.3,0.1-0.7-0.1-1.1c-0.1-0.2-0.1-0.4-0.3-0.6
			c-0.1-0.2-0.3-0.4-0.4-0.5c-0.2-0.1-0.4-0.2-0.6-0.3c-0.2-0.1-0.5,0-0.7,0c-0.3,0.1-0.5,0.2-0.6,0.3c-0.1,0.1-0.2,0.3-0.3,0.5
			c-0.1,0.2-0.1,0.4-0.1,0.6c0,0.2,0,0.5,0,0.7c0,0.3,0,0.6-0.1,0.9c0,0.3-0.1,0.6-0.2,0.9c-0.1,0.3-0.3,0.5-0.5,0.7
			c-0.2,0.2-0.5,0.4-1,0.5c-0.4,0.1-0.8,0.1-1.1,0.1c-0.3-0.1-0.6-0.2-0.9-0.4c-0.3-0.2-0.5-0.4-0.7-0.7c-0.2-0.3-0.3-0.6-0.4-0.9
			c-0.1-0.2-0.1-0.5-0.1-0.8c0-0.3,0-0.5,0-0.8c0-0.3,0.1-0.5,0.2-0.7c0.1-0.2,0.2-0.5,0.4-0.7l0.7,0.6c-0.2,0.3-0.4,0.6-0.5,1
			c-0.1,0.4-0.1,0.8,0,1.2c0.1,0.2,0.2,0.4,0.3,0.6c0.1,0.2,0.3,0.4,0.5,0.5c0.2,0.1,0.4,0.2,0.6,0.3c0.2,0.1,0.5,0,0.7,0
			c0.3-0.1,0.5-0.2,0.7-0.4c0.2-0.2,0.3-0.4,0.3-0.6c0.1-0.2,0.1-0.5,0.1-0.7c0-0.3,0-0.5,0-0.8c0-0.3,0-0.6,0.1-0.9
			c0-0.3,0.1-0.6,0.2-0.8c0.1-0.3,0.3-0.5,0.5-0.7c0.2-0.2,0.5-0.3,0.9-0.5c0.4-0.1,0.8-0.1,1.1,0c0.3,0.1,0.6,0.2,0.9,0.4
			s0.5,0.4,0.6,0.7c0.2,0.3,0.3,0.6,0.4,0.9c0.2,0.6,0.2,1.1,0.1,1.5c-0.1,0.4-0.2,0.8-0.5,1.1L469.1,236.8z"/>
		<path fill="#FFFFFF" d="M465.4,245.2L465.4,245.2l7.5,1.2l0.3,1.3l-8.3,1.9l-0.2-0.8l7.2-1.6l0,0l-7.9-1.3l-0.1-0.4l6.5-4.6l0,0
			l-7.2,1.6l-0.2-0.8l8.3-1.9l0.3,1.3L465.4,245.2z"/>
		<path fill="#FFFFFF" d="M466.2,252.6l0.8,4.5l-0.8,0.1l-1-5.3l8.4-1.5l0.9,5.2l-0.8,0.1l-0.8-4.3l-2.9,0.5l0.7,4.1l-0.8,0.1
			l-0.7-4.1L466.2,252.6z"/>
		<path fill="#FFFFFF" d="M87.9,249.9l0.9-4.4l0.8,0.2l-1.1,5.3l-8.3-1.8l1.1-5.2l0.8,0.2l-0.9,4.3l2.9,0.6l0.9-4l0.8,0.2l-0.9,4
			L87.9,249.9z"/>
		<path fill="#FFFFFF" d="M90.3,237.6L90.3,237.6l-7-1.8l0.2-0.8l8.2,2.1l-0.3,1l-8.3,3l0,0l7.1,1.8l-0.2,0.8l-8.2-2.1l0.3-1
			L90.3,237.6z"/>
		<path fill="#FFFFFF" d="M91.9,233.7l1.3-4.4l0.7,0.2l-1.6,5.2l-8.1-2.5l1.5-5l0.7,0.2l-1.3,4.2l2.8,0.8l1.2-3.9l0.7,0.2l-1.2,3.9
			L91.9,233.7z"/>
		<path fill="#FFFFFF" d="M94.8,227l-0.3,0.8l-8-2.8l0.8-2.4c0.1-0.4,0.3-0.7,0.5-1.1c0.2-0.3,0.4-0.6,0.7-0.7
			c0.3-0.2,0.5-0.3,0.9-0.3c0.3,0,0.7,0,1.1,0.1c0.3,0.1,0.5,0.2,0.8,0.4c0.2,0.2,0.4,0.4,0.5,0.6c0.1,0.2,0.2,0.5,0.2,0.8
			s0,0.6-0.1,0.9l4.6-1l-0.3,1l-4.5,0.9l-0.5,1.4L94.8,227z M90.4,225.5l0.5-1.4c0.2-0.7,0.3-1.2,0.2-1.6c-0.1-0.4-0.4-0.7-0.9-0.9
			c-0.3-0.1-0.5-0.1-0.7-0.1c-0.2,0-0.4,0.1-0.6,0.3c-0.2,0.1-0.3,0.3-0.5,0.5c-0.1,0.2-0.3,0.5-0.4,0.8l-0.5,1.5L90.4,225.5z"/>
		<path fill="#FFFFFF" d="M92.9,212.3c-0.4,0.2-0.8,0.4-1.1,0.7s-0.6,0.7-0.8,1.2c-0.2,0.5-0.3,1-0.3,1.5c0,0.5,0.1,0.9,0.3,1.3
			c0.2,0.4,0.5,0.8,0.8,1.1c0.4,0.3,0.8,0.6,1.2,0.7c0.5,0.2,0.9,0.3,1.4,0.3c0.5,0,0.9-0.1,1.3-0.2c0.4-0.2,0.8-0.4,1.2-0.7
			c0.3-0.3,0.6-0.8,0.8-1.3c0.2-0.4,0.3-0.9,0.3-1.3c0.1-0.4,0-0.8,0-1l-2.4-0.9l-0.7,1.8l-0.7-0.3l1-2.6L99,214
			c0.1,0.5,0.1,1.1,0,1.6c-0.1,0.5-0.2,1.1-0.4,1.6c-0.2,0.6-0.6,1.1-1,1.5c-0.4,0.4-0.9,0.7-1.4,1c-0.5,0.2-1.1,0.3-1.6,0.3
			c-0.6,0-1.2-0.1-1.8-0.4c-0.6-0.2-1.1-0.6-1.5-1c-0.4-0.4-0.7-0.9-1-1.4s-0.3-1.1-0.3-1.6s0.1-1.2,0.3-1.8
			c0.2-0.6,0.6-1.1,0.9-1.5c0.4-0.4,0.8-0.7,1.3-0.9L92.9,212.3z"/>
		<path fill="#FFFFFF" d="M100.9,211.3l-0.3,0.8l-7.8-3.4l0.3-0.8L100.9,211.3z"/>
		<path fill="#FFFFFF" d="M101.5,207.9l1.9-4.1l0.7,0.3l-2.3,4.9l-7.7-3.6l2.2-4.8l0.7,0.3l-1.9,4l2.6,1.2l1.7-3.7l0.7,0.3l-1.7,3.7
			L101.5,207.9z"/>
		<path fill="#FFFFFF" d="M151.2,141.5L151.2,141.5l-3-7l0.8-0.7l6.3,4.3l0,0l-3.1-7l0.7-0.6l3.5,8.1l-0.8,0.6l-6.3-4.3l0,0l3,7
			l-0.8,0.6l-7.4-4.9l0.7-0.6L151.2,141.5z"/>
		<path fill="#FFFFFF" d="M163.6,128c0.4,0.5,0.6,1.1,0.8,1.6s0.2,1.1,0.1,1.7s-0.3,1.1-0.6,1.6c-0.3,0.5-0.7,0.9-1.2,1.3
			c-0.5,0.4-1,0.6-1.6,0.8s-1.1,0.2-1.7,0.1c-0.6-0.1-1.1-0.3-1.6-0.6c-0.5-0.3-0.9-0.7-1.3-1.2c-0.4-0.5-0.6-1.1-0.8-1.6
			c-0.1-0.6-0.2-1.1-0.1-1.7c0.1-0.6,0.3-1.1,0.6-1.6c0.3-0.5,0.7-0.9,1.2-1.3c0.5-0.4,1-0.6,1.6-0.8c0.6-0.1,1.1-0.2,1.7-0.1
			c0.6,0.1,1.1,0.3,1.6,0.6C162.8,127.1,163.3,127.5,163.6,128z M162.9,128.5c-0.3-0.4-0.6-0.7-1-1c-0.4-0.3-0.8-0.4-1.3-0.5
			c-0.4-0.1-0.9-0.1-1.4,0c-0.5,0.1-0.9,0.3-1.4,0.6c-0.4,0.3-0.8,0.7-1,1.1c-0.2,0.4-0.4,0.9-0.4,1.3c0,0.5,0,0.9,0.1,1.4
			c0.1,0.5,0.4,0.9,0.6,1.3c0.3,0.4,0.6,0.7,1,1c0.4,0.3,0.8,0.4,1.3,0.5c0.4,0.1,0.9,0.1,1.4,0c0.5-0.1,0.9-0.3,1.4-0.6
			s0.8-0.7,1-1.1c0.2-0.4,0.4-0.9,0.4-1.3c0-0.5,0-0.9-0.1-1.4S163.2,128.9,162.9,128.5z"/>
		<path fill="#FFFFFF" d="M172.1,125.9L172.1,125.9l-4-6l0.7-0.5l4.7,7.1l-0.9,0.6l-8.2-3.4l0,0l4,6.1l-0.7,0.5l-4.7-7.1l0.9-0.6
			L172.1,125.9z"/>
		<path fill="#FFFFFF" d="M175.9,124.1l3.9-2.4l0.4,0.7l-4.6,2.8l-4.4-7.3l4.5-2.7l0.4,0.7l-3.8,2.3l1.5,2.5l3.5-2.1l0.4,0.7
			l-3.5,2.1L175.9,124.1z"/>
		<path fill="#FFFFFF" d="M186.5,117.5L186.5,117.5l-3.5-6.4l0.8-0.4l4.1,7.5l-0.9,0.5l-7.8-4l0,0l3.5,6.4l-0.8,0.4l-4.1-7.5
			l0.9-0.5L186.5,117.5z"/>
	</g>
	<g>
		<path fill="#FFFFFF" d="M82.3,318l-0.1-0.9l8.8-1.5l0.4,2.6c0.1,0.4,0.1,0.8,0.1,1.2c0,0.4-0.1,0.7-0.2,1
			c-0.1,0.3-0.4,0.5-0.6,0.8c-0.3,0.2-0.6,0.3-1.1,0.4c-0.3,0.1-0.6,0-0.9,0c-0.3-0.1-0.5-0.2-0.8-0.4c-0.2-0.2-0.4-0.4-0.6-0.6
			c-0.2-0.3-0.3-0.5-0.4-0.9l-3.8,3.3L83,322l3.7-3.1l-0.2-1.5L82.3,318z M87.2,317.2l0.3,1.6c0.1,0.7,0.3,1.3,0.7,1.6
			c0.3,0.3,0.8,0.5,1.3,0.4c0.3,0,0.5-0.1,0.7-0.3c0.2-0.1,0.3-0.3,0.4-0.5c0.1-0.2,0.1-0.5,0.2-0.7c0-0.3,0-0.6-0.1-0.9l-0.3-1.6
			L87.2,317.2z"/>
		<path fill="#FFFFFF" d="M83.7,325.9l-0.2-0.9l8.8-1.7l0.2,0.9L83.7,325.9z"/>
		<path fill="#FFFFFF" d="M90.6,336.2c-0.7,0.2-1.3,0.2-1.9,0.1c-0.6-0.1-1.2-0.3-1.7-0.6c-0.5-0.3-0.9-0.7-1.3-1.2
			c-0.4-0.5-0.6-1.1-0.8-1.7c-0.2-0.6-0.2-1.3-0.1-1.9c0.1-0.6,0.3-1.2,0.6-1.7c0.3-0.5,0.7-0.9,1.2-1.3c0.5-0.4,1.1-0.6,1.8-0.8
			c0.7-0.2,1.3-0.2,1.9-0.1c0.6,0.1,1.2,0.3,1.7,0.6c0.5,0.3,0.9,0.7,1.3,1.2c0.4,0.5,0.6,1.1,0.8,1.7c0.2,0.6,0.2,1.3,0.1,1.9
			c-0.1,0.6-0.3,1.2-0.6,1.7c-0.3,0.5-0.7,0.9-1.2,1.3C91.9,335.8,91.3,336.1,90.6,336.2z M90.4,335.3c0.5-0.1,1-0.3,1.4-0.6
			s0.8-0.6,1-1c0.3-0.4,0.5-0.8,0.6-1.3c0.1-0.5,0.1-1,0-1.6c-0.1-0.6-0.4-1-0.7-1.4s-0.7-0.7-1.1-0.9c-0.4-0.2-0.9-0.4-1.4-0.4
			c-0.5-0.1-1,0-1.5,0.1s-1,0.3-1.4,0.6c-0.4,0.3-0.8,0.6-1,1c-0.3,0.4-0.5,0.8-0.6,1.3c-0.1,0.5-0.1,1,0,1.6c0.1,0.6,0.4,1,0.7,1.4
			c0.3,0.4,0.7,0.7,1.1,0.9c0.4,0.2,0.9,0.4,1.4,0.4C89.4,335.4,89.9,335.4,90.4,335.3z"/>
		<path fill="#FFFFFF" d="M88,340.2l1.1,4l-0.8,0.2l-1.4-4.9l8.6-2.4l0.2,0.9L88,340.2z"/>
		<path fill="#FFFFFF" d="M89.9,346.8l1.5,4.6l-0.8,0.2l-1.8-5.4l8.5-2.8l1.7,5.3l-0.8,0.2l-1.4-4.4l-2.9,0.9l1.3,4.1l-0.8,0.2
			l-1.3-4.1L89.9,346.8z"/>
		<path fill="#FFFFFF" d="M91.7,354.6l-0.3-0.9l8.4-3.1l0.9,2.5c0.2,0.4,0.3,0.8,0.3,1.2c0.1,0.4,0,0.7,0,1.1
			c-0.1,0.3-0.2,0.6-0.5,0.9c-0.2,0.2-0.6,0.4-1,0.6c-0.3,0.1-0.6,0.2-0.9,0.1c-0.3,0-0.6-0.1-0.8-0.2c-0.3-0.1-0.5-0.3-0.7-0.5
			s-0.4-0.5-0.5-0.8l-3.1,3.9l-0.4-1l3.1-3.8l-0.5-1.4L91.7,354.6z M96.3,352.9l0.5,1.5c0.3,0.7,0.6,1.2,1,1.4
			c0.4,0.3,0.8,0.3,1.3,0.1c0.3-0.1,0.5-0.2,0.6-0.4c0.2-0.2,0.3-0.4,0.3-0.6s0.1-0.5,0-0.8s-0.1-0.6-0.2-0.9l-0.6-1.5L96.3,352.9z"
			/>
		<path fill="#FFFFFF" d="M94.5,362l-0.3-0.8l8.3-3.3l0.3,0.8L94.5,362z"/>
		<path fill="#FFFFFF" d="M99.3,369.9L99.3,369.9l7-3.1l0.4,0.8l-8.2,3.6l-0.5-1l4.9-7.9l0,0l-7,3.1l-0.4-0.8l8.2-3.6l0.5,1
			L99.3,369.9z"/>
		<path fill="#FFFFFF" d="M109.3,376.7c0.2-0.4,0.2-0.9,0.2-1.3c0-0.5-0.2-0.9-0.4-1.4c-0.3-0.5-0.6-0.9-1-1.2
			c-0.4-0.3-0.8-0.5-1.3-0.7c-0.5-0.1-0.9-0.2-1.4-0.1c-0.5,0.1-1,0.2-1.4,0.4c-0.5,0.2-0.9,0.5-1.2,0.9c-0.3,0.4-0.6,0.8-0.8,1.2
			c-0.2,0.4-0.2,0.9-0.2,1.4c0,0.5,0.2,1,0.4,1.5c0.2,0.5,0.5,0.8,0.8,1.2c0.3,0.3,0.6,0.6,0.8,0.7l2.4-1.2l-0.9-1.9l0.7-0.4
			l1.3,2.7l-3.6,1.8c-0.5-0.3-0.9-0.7-1.3-1.1c-0.4-0.4-0.7-0.9-1-1.5c-0.3-0.6-0.5-1.2-0.5-1.8c0-0.6,0-1.2,0.2-1.8
			c0.2-0.6,0.5-1.1,0.9-1.5c0.4-0.5,0.9-0.9,1.5-1.2c0.6-0.3,1.2-0.5,1.8-0.5c0.6,0,1.2,0,1.8,0.2c0.6,0.2,1.1,0.5,1.5,0.9
			c0.5,0.4,0.9,0.9,1.1,1.5c0.3,0.6,0.5,1.2,0.6,1.8c0,0.6,0,1.1-0.2,1.6L109.3,376.7z"/>
		<path fill="#FFFFFF" d="M132.1,422l-0.6-0.7l6.6-6l1.8,1.9c0.3,0.3,0.5,0.7,0.7,1s0.3,0.7,0.4,1c0,0.3,0,0.7-0.1,1
			c-0.1,0.3-0.3,0.6-0.7,0.9c-0.2,0.2-0.5,0.4-0.8,0.5c-0.3,0.1-0.6,0.1-0.8,0.1c-0.3,0-0.6-0.1-0.8-0.2s-0.5-0.3-0.8-0.5l-1.4,4.8
			l-0.8-0.8l1.4-4.6l-1-1.1L132.1,422z M135.7,418.6l1.1,1.2c0.5,0.5,1,0.9,1.4,1s0.9,0,1.3-0.4c0.2-0.2,0.4-0.4,0.4-0.6
			c0.1-0.2,0.1-0.4,0.1-0.7c0-0.2-0.1-0.5-0.3-0.7c-0.1-0.2-0.3-0.5-0.6-0.7l-1.1-1.2L135.7,418.6z"/>
		<path fill="#FFFFFF" d="M138.2,427.3l3.4,3.4l-0.6,0.6l-4-4l6.3-6.3l3.9,3.9l-0.6,0.6l-3.3-3.3l-2.2,2.2l3.1,3.1l-0.6,0.6
			l-3.1-3.1L138.2,427.3z"/>
		<path fill="#FFFFFF" d="M149.1,436.9c-0.3,0.1-0.5,0.1-0.8,0.1c-0.3,0-0.6,0-0.9-0.1c-0.3-0.1-0.6-0.2-0.9-0.4
			c-0.3-0.2-0.6-0.4-0.9-0.7c-0.5-0.5-0.9-1-1.1-1.5s-0.4-1.1-0.4-1.7c0-0.6,0.1-1.2,0.3-1.7c0.2-0.6,0.6-1.1,1-1.6
			c0.5-0.5,1-0.9,1.5-1.1c0.6-0.3,1.1-0.4,1.7-0.4c0.6,0,1.2,0.1,1.8,0.3c0.6,0.2,1.1,0.5,1.6,1c0.2,0.2,0.5,0.5,0.6,0.7
			c0.2,0.3,0.3,0.5,0.5,0.8c0.1,0.3,0.2,0.6,0.3,0.8c0,0.3,0.1,0.6,0,0.8l-0.9-0.1c0-0.2,0-0.4,0-0.6c0-0.2-0.1-0.4-0.1-0.7
			c-0.1-0.2-0.2-0.4-0.3-0.7s-0.3-0.4-0.5-0.6c-0.4-0.4-0.9-0.7-1.4-0.8s-1-0.2-1.4-0.2c-0.5,0-0.9,0.2-1.4,0.4
			c-0.4,0.2-0.8,0.5-1.2,0.9c-0.4,0.4-0.6,0.8-0.8,1.3c-0.2,0.5-0.3,0.9-0.3,1.4c0,0.5,0.1,1,0.3,1.4c0.2,0.5,0.5,0.9,0.9,1.3
			c0.4,0.3,0.8,0.6,1.3,0.8c0.5,0.2,1,0.2,1.5,0L149.1,436.9z"/>
		<path fill="#FFFFFF" d="M150.4,439.9l-0.7-0.6l5.8-6.8l2,1.7c0.3,0.3,0.6,0.6,0.9,0.9c0.2,0.3,0.4,0.6,0.5,0.9
			c0.1,0.3,0.1,0.6,0,1c-0.1,0.3-0.3,0.7-0.5,1c-0.2,0.3-0.4,0.4-0.7,0.6c-0.3,0.1-0.5,0.2-0.8,0.2s-0.6,0-0.9-0.1
			c-0.3-0.1-0.6-0.2-0.8-0.4l-0.7,4.9l-0.8-0.7l0.8-4.8l-1.2-1L150.4,439.9z M153.6,436.1l1.2,1c0.6,0.5,1.1,0.7,1.5,0.8
			c0.5,0.1,0.9-0.1,1.2-0.5c0.2-0.2,0.3-0.5,0.4-0.7c0-0.2,0-0.4,0-0.7c-0.1-0.2-0.2-0.4-0.4-0.7c-0.2-0.2-0.4-0.4-0.6-0.7l-1.2-1
			L153.6,436.1z"/>
		<path fill="#FFFFFF" d="M157.1,444.3l3.8,2.9l-0.5,0.6l-4.5-3.5l5.5-7.1l4.4,3.4l-0.5,0.6l-3.7-2.8l-1.9,2.4l3.4,2.7l-0.5,0.6
			l-3.4-2.7L157.1,444.3z"/>
		<path fill="#FFFFFF" d="M162.1,449.2l-0.8-0.6l8.3-5l0.7,0.5l-2.1,9.5l-0.8-0.6l0.6-2.5l-3.8-2.7L162.1,449.2z M165,447.4l3.2,2.3
			l1.1-5L165,447.4z"/>
		<path fill="#FFFFFF" d="M171.6,455.8l-0.8-0.5l4.5-6.8l-2.5-1.6l0.4-0.7l5.8,3.8l-0.4,0.7L176,449L171.6,455.8z"/>
		<path fill="#FFFFFF" d="M176.4,458.8l-0.8-0.5l4.7-7.6l0.8,0.5L176.4,458.8z"/>
		<path fill="#FFFFFF" d="M179.9,460l4.1,2.4l-0.4,0.7l-4.9-2.8l4.5-7.7l4.8,2.8l-0.4,0.7l-4-2.3l-1.5,2.7l3.8,2.2l-0.4,0.7
			l-3.8-2.2L179.9,460z"/>
		<path fill="#FFFFFF" d="M256.2,486.8l-0.9-0.1l1.2-8.9l0.9,0.1L256.2,486.8z"/>
		<path fill="#FFFFFF" d="M265.4,486.5L265.4,486.5l0.8-7.6l0.9,0.1l-0.9,8.9l-1.1-0.1l-4.4-8.2l0,0l-0.7,7.7l-0.9-0.1l0.9-8.9
			l1.1,0.1L265.4,486.5z"/>
		<path fill="#FFFFFF" d="M269.5,479.2l3,0.1c0.6,0,1.1,0.1,1.7,0.4c0.5,0.2,1,0.5,1.5,0.9c0.4,0.4,0.8,0.9,1,1.5
			c0.3,0.6,0.4,1.2,0.3,2c0,0.7-0.2,1.4-0.5,1.9c-0.3,0.5-0.7,1-1.2,1.3c-0.5,0.4-1,0.6-1.6,0.8c-0.6,0.2-1.1,0.2-1.7,0.2l-3-0.1
			L269.5,479.2z M270,487.3l1.8,0.1c0.7,0,1.3,0,1.8-0.2c0.5-0.2,0.9-0.4,1.3-0.8c0.3-0.3,0.6-0.7,0.8-1.1s0.3-0.9,0.3-1.3
			c0-0.5,0-0.9-0.2-1.4c-0.1-0.4-0.4-0.8-0.7-1.2c-0.3-0.4-0.7-0.7-1.2-0.9c-0.5-0.2-1.1-0.4-1.7-0.4l-1.8-0.1L270,487.3z"/>
		<path fill="#FFFFFF" d="M282.5,488.7c-0.7,0-1.2-0.1-1.7-0.3c-0.4-0.2-0.8-0.5-1-0.9c-0.3-0.4-0.4-0.7-0.5-1.2
			c-0.1-0.4-0.1-0.8-0.1-1.2l0-5.6l0.9,0l0,5.5c0,0.4,0,0.7,0.1,1.1c0.1,0.3,0.2,0.6,0.4,0.9s0.4,0.5,0.8,0.6
			c0.3,0.2,0.7,0.2,1.1,0.2c0.5,0,0.8-0.1,1.1-0.2c0.3-0.2,0.6-0.4,0.8-0.6c0.2-0.3,0.3-0.6,0.4-0.9c0.1-0.3,0.1-0.7,0.1-1.1l0-5.5
			l0.9,0l0,5.6c0,0.4,0,0.8-0.1,1.2s-0.3,0.8-0.5,1.2c-0.3,0.4-0.6,0.6-1,0.9S283.1,488.7,282.5,488.7z"/>
		<path fill="#FFFFFF" d="M292.6,480.7c-0.2-0.3-0.5-0.5-0.8-0.6c-0.3-0.1-0.7-0.2-1.1-0.2c-0.2,0-0.4,0.1-0.7,0.1
			c-0.2,0.1-0.4,0.2-0.6,0.3c-0.2,0.1-0.3,0.3-0.4,0.5c-0.1,0.2-0.1,0.5-0.1,0.8s0.1,0.5,0.2,0.7c0.1,0.2,0.3,0.3,0.5,0.5
			c0.2,0.1,0.4,0.2,0.6,0.3c0.2,0.1,0.5,0.1,0.7,0.2c0.3,0.1,0.6,0.2,1,0.3c0.3,0.1,0.6,0.2,0.9,0.4c0.3,0.2,0.5,0.4,0.6,0.7
			c0.2,0.3,0.3,0.6,0.3,1.1s0,0.8-0.2,1.2c-0.2,0.3-0.4,0.6-0.6,0.8c-0.3,0.2-0.6,0.4-0.9,0.5c-0.3,0.1-0.7,0.2-1,0.2
			c-0.3,0-0.5,0-0.8,0s-0.5-0.1-0.8-0.2c-0.2-0.1-0.5-0.2-0.7-0.4c-0.2-0.2-0.4-0.3-0.6-0.6l0.8-0.6c0.2,0.3,0.5,0.6,0.8,0.8
			s0.8,0.3,1.2,0.3c0.2,0,0.5-0.1,0.7-0.1c0.2-0.1,0.4-0.2,0.6-0.4c0.2-0.2,0.3-0.3,0.4-0.6c0.1-0.2,0.2-0.5,0.2-0.8
			c0-0.3-0.1-0.6-0.2-0.8c-0.1-0.2-0.3-0.4-0.5-0.5c-0.2-0.1-0.4-0.2-0.7-0.3c-0.3-0.1-0.5-0.2-0.8-0.2c-0.3-0.1-0.6-0.2-0.9-0.3
			c-0.3-0.1-0.6-0.2-0.8-0.4c-0.2-0.2-0.4-0.4-0.6-0.7c-0.2-0.3-0.2-0.6-0.3-1c0-0.4,0.1-0.8,0.2-1.1c0.2-0.3,0.4-0.6,0.6-0.8
			c0.3-0.2,0.6-0.4,0.9-0.5s0.7-0.2,1-0.2c0.6,0,1.1,0.1,1.6,0.3c0.4,0.2,0.8,0.4,1,0.7L292.6,480.7z"/>
		<path fill="#FFFFFF" d="M298.8,487.8l-0.9,0.1l-0.7-8.1l-3,0.2l-0.1-0.8l6.9-0.6l0.1,0.8l-3,0.2L298.8,487.8z"/>
		<path fill="#FFFFFF" d="M304.5,487.3l-0.9,0.1l-1.1-8.9l2.6-0.3c0.4-0.1,0.8-0.1,1.2,0s0.7,0.1,1,0.3s0.5,0.4,0.7,0.7
			c0.2,0.3,0.3,0.6,0.4,1.1c0,0.3,0,0.6-0.1,0.9s-0.2,0.5-0.4,0.8c-0.2,0.2-0.4,0.4-0.7,0.6c-0.3,0.2-0.6,0.3-0.9,0.3l3.1,3.9
			l-1.1,0.1l-3-3.9l-1.5,0.2L304.5,487.3z M303.9,482.3l1.6-0.2c0.7-0.1,1.3-0.3,1.6-0.6c0.4-0.3,0.5-0.7,0.4-1.3
			c0-0.3-0.1-0.5-0.3-0.7c-0.1-0.2-0.3-0.3-0.5-0.4c-0.2-0.1-0.5-0.2-0.7-0.2c-0.3,0-0.6,0-0.9,0l-1.6,0.2L303.9,482.3z"/>
		<path fill="#FFFFFF" d="M312.4,486.2l-0.9,0.1l-1.3-8.8l0.9-0.1L312.4,486.2z"/>
		<path fill="#FFFFFF" d="M316,484.8l4.7-0.8l0.1,0.8l-5.6,1l-1.6-8.8l5.5-1l0.1,0.8l-4.6,0.8l0.5,3l4.3-0.8l0.1,0.8l-4.3,0.8
			L316,484.8z"/>
		<path fill="#FFFFFF" d="M379.1,462.7l3.6-2l0.4,0.7l-4.4,2.5l-4.4-7.8l0.8-0.4L379.1,462.7z"/>
		<path fill="#FFFFFF" d="M384.7,460.4l-0.9,0.5l-1.4-9.6l0.8-0.5l8,5.6l-0.9,0.5l-2.1-1.5l-3.9,2.4L384.7,460.4z M384.2,457
			l3.4-2.1l-4.2-3L384.2,457z"/>
		<path fill="#FFFFFF" d="M397.2,450.8L397.2,450.8l-4.3-6.3l0.8-0.5l5,7.4l-0.9,0.6l-8.6-3.4l0,0l4.3,6.4l-0.8,0.5l-5-7.4l0.9-0.6
			L397.2,450.8z"/>
		<path fill="#FFFFFF" d="M395.6,442.5l2.4-1.8c0.4-0.3,0.9-0.6,1.5-0.8c0.6-0.2,1.1-0.3,1.7-0.2c0.6,0,1.2,0.2,1.7,0.5
			c0.6,0.3,1.1,0.7,1.5,1.3c0.5,0.6,0.7,1.2,0.8,1.8c0.1,0.6,0.1,1.2,0,1.8c-0.1,0.6-0.4,1.1-0.7,1.6c-0.3,0.5-0.7,0.9-1.2,1.2
			l-2.4,1.8L395.6,442.5z M401.3,448.5l1.4-1.1c0.5-0.4,0.9-0.8,1.2-1.3c0.3-0.5,0.4-0.9,0.5-1.4c0.1-0.5,0-0.9-0.1-1.4
			c-0.1-0.4-0.3-0.9-0.6-1.2c-0.3-0.4-0.6-0.7-1-0.9c-0.4-0.2-0.8-0.4-1.3-0.5c-0.5-0.1-1,0-1.5,0.1c-0.5,0.1-1.1,0.4-1.6,0.8
			l-1.4,1.1L401.3,448.5z"/>
		<path fill="#FFFFFF" d="M403.3,436.7l2-1.7c0.3-0.2,0.5-0.4,0.9-0.6c0.3-0.2,0.6-0.3,0.9-0.3c0.3,0,0.6,0,1,0.1
			c0.3,0.1,0.6,0.3,0.9,0.7c0.3,0.4,0.5,0.8,0.5,1.2c0,0.5-0.1,0.9-0.4,1.3l0,0c0.5-0.3,1-0.5,1.5-0.4c0.5,0.1,1,0.3,1.4,0.8
			c0.2,0.3,0.4,0.6,0.5,0.9c0.1,0.3,0.1,0.7,0,1s-0.2,0.7-0.5,1.1c-0.2,0.4-0.6,0.7-1,1l-2,1.7L403.3,436.7z M406.5,439.1l1.4-1.2
			c0.2-0.1,0.3-0.3,0.5-0.5c0.1-0.2,0.2-0.4,0.3-0.6c0.1-0.2,0.1-0.4,0-0.7c0-0.2-0.2-0.5-0.3-0.7c-0.2-0.2-0.4-0.4-0.6-0.4
			c-0.2-0.1-0.4-0.1-0.7-0.1c-0.2,0-0.5,0.1-0.7,0.2c-0.2,0.1-0.5,0.3-0.7,0.5l-1.2,1L406.5,439.1z M409.2,442.4l1.3-1.1
			c0.3-0.2,0.5-0.4,0.7-0.7c0.2-0.2,0.3-0.5,0.4-0.7c0.1-0.2,0.1-0.5,0.1-0.8c0-0.3-0.2-0.5-0.4-0.7c-0.4-0.5-0.8-0.7-1.3-0.6
			c-0.5,0-1,0.3-1.6,0.8l-1.4,1.2L409.2,442.4z"/>
		<path fill="#FFFFFF" d="M419.1,428.8c0.5,0.5,0.8,1,1,1.6c0.2,0.6,0.3,1.2,0.3,1.8c0,0.6-0.2,1.2-0.4,1.7
			c-0.3,0.6-0.6,1.1-1.1,1.5c-0.5,0.4-1,0.8-1.6,1c-0.6,0.2-1.2,0.3-1.8,0.3c-0.6,0-1.2-0.2-1.7-0.4c-0.6-0.3-1.1-0.6-1.5-1.1
			c-0.5-0.5-0.8-1-1-1.6c-0.2-0.6-0.3-1.2-0.3-1.8c0-0.6,0.2-1.2,0.4-1.7c0.3-0.6,0.6-1.1,1.1-1.5c0.5-0.4,1-0.8,1.6-1
			s1.2-0.3,1.8-0.3c0.6,0,1.2,0.2,1.7,0.4C418.1,427.9,418.6,428.3,419.1,428.8z M418.4,429.4c-0.4-0.4-0.7-0.7-1.2-0.9
			c-0.4-0.2-0.9-0.4-1.4-0.4c-0.5,0-1,0-1.4,0.2c-0.5,0.2-0.9,0.4-1.4,0.8s-0.7,0.8-0.9,1.3s-0.3,0.9-0.3,1.4c0,0.5,0.1,0.9,0.3,1.4
			c0.2,0.5,0.5,0.9,0.8,1.3c0.4,0.4,0.7,0.7,1.2,0.9c0.4,0.2,0.9,0.4,1.4,0.4c0.5,0,1,0,1.4-0.2c0.5-0.2,0.9-0.4,1.4-0.8
			c0.4-0.4,0.7-0.8,0.9-1.3c0.2-0.5,0.3-0.9,0.3-1.4c0-0.5-0.1-0.9-0.3-1.4C419,430.2,418.7,429.8,418.4,429.4z"/>
		<path fill="#FFFFFF" d="M426.3,428.2c-0.5,0.5-0.9,0.8-1.4,0.9c-0.5,0.1-0.9,0.2-1.3,0.1c-0.4-0.1-0.8-0.2-1.2-0.4
			c-0.4-0.2-0.7-0.5-0.9-0.7l-4-3.9l0.6-0.6l3.9,3.9c0.3,0.3,0.5,0.5,0.8,0.7s0.6,0.3,0.9,0.3c0.3,0.1,0.7,0,1-0.1s0.7-0.3,1-0.6
			c0.3-0.3,0.5-0.7,0.6-1c0.1-0.3,0.1-0.7,0.1-1c-0.1-0.3-0.2-0.6-0.4-0.9c-0.2-0.3-0.4-0.6-0.7-0.8l-3.9-3.9l0.6-0.6l4,3.9
			c0.3,0.3,0.5,0.6,0.7,0.9c0.2,0.4,0.4,0.8,0.5,1.2c0.1,0.4,0,0.9-0.1,1.3C427.1,427.2,426.8,427.7,426.3,428.2z"/>
		<path fill="#FFFFFF" d="M431,421.1L431,421.1l-4.3-6.8l0.7-0.8l7.2,3.4l0,0l-4.3-6.7l0.6-0.7l5,7.9l-0.7,0.8l-7.2-3.4l0,0l4.3,6.8
			l-0.7,0.8l-8.5-3.9l0.6-0.7L431,421.1z"/>
		<path fill="#FFFFFF" d="M459.8,380.7l2.2-4.2l0.7,0.4l-2.6,5.1l-7.9-4.1l2.6-4.9l0.7,0.4l-2.1,4.1l2.7,1.4l2-3.8l0.7,0.4l-2,3.8
			L459.8,380.7z"/>
		<path fill="#FFFFFF" d="M465.6,367.3c0.1,0.2,0.3,0.5,0.4,0.8c0.1,0.3,0.1,0.6,0.2,0.9c0,0.3,0,0.7-0.1,1
			c-0.1,0.3-0.2,0.7-0.3,1.1c-0.3,0.6-0.7,1.1-1.1,1.5s-1,0.7-1.5,0.9c-0.6,0.2-1.1,0.3-1.8,0.3c-0.6,0-1.2-0.2-1.9-0.5
			s-1.1-0.7-1.6-1.1c-0.4-0.5-0.7-1-0.9-1.5c-0.2-0.6-0.3-1.1-0.3-1.8c0-0.6,0.2-1.2,0.5-1.8c0.1-0.3,0.3-0.6,0.5-0.8
			c0.2-0.3,0.4-0.5,0.6-0.7c0.2-0.2,0.5-0.4,0.7-0.5s0.5-0.2,0.8-0.3l0.2,0.9c-0.2,0-0.4,0.1-0.5,0.2c-0.2,0.1-0.4,0.2-0.6,0.3
			c-0.2,0.1-0.4,0.3-0.5,0.5c-0.2,0.2-0.3,0.4-0.4,0.7c-0.2,0.5-0.4,1-0.4,1.5c0,0.5,0.1,1,0.3,1.4c0.2,0.4,0.5,0.8,0.8,1.2
			c0.4,0.4,0.8,0.6,1.2,0.9c0.5,0.2,1,0.4,1.5,0.4c0.5,0,1,0,1.4-0.1s0.9-0.4,1.3-0.7c0.4-0.3,0.7-0.8,0.9-1.3
			c0.2-0.5,0.3-1,0.3-1.5c0-0.5-0.1-1-0.4-1.5L465.6,367.3z"/>
		<path fill="#FFFFFF" d="M466.8,356.3c0.6,0.3,1.2,0.6,1.6,1c0.4,0.4,0.8,0.9,1,1.5s0.3,1.1,0.4,1.7c0,0.6-0.1,1.2-0.4,1.8
			c-0.2,0.6-0.6,1.1-1,1.6c-0.4,0.4-0.9,0.8-1.5,1c-0.5,0.2-1.1,0.3-1.7,0.4s-1.2-0.1-1.9-0.4c-0.6-0.3-1.2-0.6-1.6-1
			c-0.4-0.4-0.8-0.9-1-1.5c-0.2-0.5-0.3-1.1-0.4-1.7c0-0.6,0.1-1.2,0.4-1.8c0.2-0.6,0.6-1.1,1-1.6s0.9-0.8,1.5-1
			c0.5-0.2,1.1-0.3,1.7-0.4S466.2,356,466.8,356.3z M466.5,357.2c-0.5-0.2-1-0.3-1.5-0.3c-0.5,0-1,0.1-1.4,0.2
			c-0.5,0.2-0.9,0.4-1.2,0.8c-0.4,0.3-0.7,0.8-0.9,1.3c-0.2,0.5-0.3,1-0.3,1.6c0,0.5,0.1,1,0.4,1.4s0.5,0.8,0.9,1.1
			c0.4,0.3,0.8,0.6,1.3,0.8c0.5,0.2,1,0.3,1.5,0.3c0.5,0,1-0.1,1.4-0.2s0.9-0.4,1.2-0.8c0.4-0.3,0.7-0.8,0.9-1.3
			c0.2-0.5,0.3-1,0.3-1.6c0-0.5-0.1-1-0.3-1.4s-0.5-0.8-0.9-1.1C467.4,357.6,467,357.4,466.5,357.2z"/>
		<path fill="#FFFFFF" d="M470,352.7l-1,2.7l-0.7-0.2l1-2.7L470,352.7z"/>
		<path fill="#FFFFFF" d="M464.8,348.7l0.3-0.9l3.7,1.2l1.5-4.6l-3.7-1.2l0.3-0.9l8.5,2.7L475,346l-4-1.3l-1.5,4.6l4,1.3l-0.3,0.9
			L464.8,348.7z"/>
		<path fill="#FFFFFF" d="M476.1,342.4l-0.3,1l-7.6-6.1l0.2-0.9l9.6-1.4l-0.3,1l-2.5,0.3l-1.2,4.5L476.1,342.4z M473.4,340.3l1-3.8
			l-5.1,0.7L473.4,340.3z"/>
		<path fill="#FFFFFF" d="M469.8,331.4l0.6-2.6c0.1-0.3,0.2-0.7,0.3-1s0.3-0.6,0.6-0.8c0.2-0.2,0.5-0.4,0.8-0.5
			c0.3-0.1,0.7-0.1,1.1,0c0.5,0.1,0.8,0.3,1.1,0.7c0.3,0.4,0.4,0.8,0.4,1.3l0,0c0.2-0.6,0.5-1,1-1.3c0.5-0.3,1-0.4,1.6-0.2
			c0.4,0.1,0.7,0.2,0.9,0.4c0.3,0.2,0.5,0.5,0.6,0.8c0.1,0.3,0.2,0.7,0.3,1.1c0,0.4,0,0.9-0.1,1.4l-0.6,2.6L469.8,331.4z
			 M473.8,331.3l0.4-1.8c0-0.2,0.1-0.4,0.1-0.7c0-0.2,0-0.4-0.1-0.7c-0.1-0.2-0.2-0.4-0.4-0.5c-0.2-0.2-0.4-0.3-0.7-0.3
			c-0.3-0.1-0.5-0.1-0.7,0c-0.2,0.1-0.4,0.2-0.6,0.3c-0.2,0.2-0.3,0.4-0.4,0.6c-0.1,0.2-0.2,0.5-0.3,0.8l-0.3,1.5L473.8,331.3z
			 M477.9,332.3l0.4-1.7c0.1-0.3,0.1-0.6,0.1-0.9c0-0.3,0-0.6-0.1-0.8c-0.1-0.2-0.2-0.5-0.4-0.6c-0.2-0.2-0.4-0.3-0.7-0.4
			c-0.6-0.1-1,0-1.4,0.3c-0.4,0.3-0.6,0.8-0.8,1.6l-0.4,1.8L477.9,332.3z"/>
		<path fill="#FFFFFF" d="M480.4,324.1l-0.2,0.9l-8.8-1.7l0.2-0.9L480.4,324.1z"/>
		<path fill="#FFFFFF" d="M481.4,318.6l-0.1,0.9l-8-1.3l-0.5,3L472,321l1.1-6.8l0.8,0.1l-0.5,3L481.4,318.6z"/>
		<path fill="#FFFFFF" d="M482,314.6l-0.1,1l-8.4-4.9l0.1-0.9l9.3-2.7l-0.1,1l-2.5,0.7l-0.6,4.6L482,314.6z M479,313l0.5-3.9l-5,1.4
			L479,313z"/>
		<path fill="#FFFFFF" d="M483.3,303.2l-0.1,0.9l-8.1-0.7l-0.3,3l-0.8-0.1l0.6-6.9l0.8,0.1l-0.3,3L483.3,303.2z"/>
	</g>
</g>
<g id="ICONS">
	<g>
		<g>
			<rect x="424.9" y="92.7" fill="#1A5371" width="4" height="1.2"/>
			<rect x="424.9" y="90.4" fill="#1A5371" width="4" height="1.7"/>
			<rect x="429.5" y="92.7" fill="#1A5371" width="4" height="1.2"/>
			<rect x="429.5" y="90.4" fill="#1A5371" width="4" height="1.7"/>
			<rect x="429.5" y="88.1" fill="#1A5371" width="4" height="1.7"/>
			<rect x="434.1" y="92.7" fill="#1A5371" width="4" height="1.2"/>
			<rect x="434.1" y="90.4" fill="#1A5371" width="4" height="1.7"/>
			<rect x="434.1" y="88.1" fill="#1A5371" width="4" height="1.7"/>
			<rect x="438.7" y="92.7" fill="#1A5371" width="4" height="1.2"/>
			<rect x="438.7" y="90.4" fill="#1A5371" width="4" height="1.7"/>
			<rect x="438.7" y="88.1" fill="#1A5371" width="4" height="1.7"/>
			<rect x="443.3" y="92.7" fill="#1A5371" width="4" height="1.2"/>
			<rect x="443.3" y="90.4" fill="#1A5371" width="4" height="1.7"/>
			<rect x="443.3" y="88.1" fill="#1A5371" width="4" height="1.7"/>
			<rect x="447.9" y="92.7" fill="#1A5371" width="4" height="1.2"/>
			<rect x="447.9" y="90.4" fill="#1A5371" width="4" height="1.7"/>
			<polygon fill="#1A5371" points="462.9,85 462.9,84.1 457.7,84.1 458,85 			"/>
			<polygon fill="#1A5371" points="462.9,87.3 462.9,85.5 458.2,85.5 458.8,87.3 			"/>
			<path fill="#1A5371" d="M462.9,88.1v-0.4h-5.2v1.1h1.1c0.2,0,0.3,0.1,0.3,0.3c0,0.2-0.1,0.3-0.3,0.3h-1.1V90h1.1
				c0.2,0,0.3,0.1,0.3,0.3c0,0.2-0.1,0.3-0.3,0.3h-1.1v0.6h1.1c0.2,0,0.3,0.1,0.3,0.3c0,0.2-0.1,0.3-0.3,0.3h-1.1v1h5.2V88.1z
				 M461.8,91.7h-0.6v-0.6h0.6V91.7z M461.8,90.6h-0.6V90h0.6V90.6z M461.8,89.4h-0.6v-0.6h0.6V89.4z"/>
			<path fill="#1A5371" d="M465.4,93.9c0-0.1-0.1-0.2-0.2-0.2h-1.1l-0.5-0.5c0,0-0.1-0.1-0.1-0.1h-6.9c-0.1,0-0.1,0-0.1,0.1
				l-1.1,1.1h-33.2l-0.5-0.5c0,0-0.1-0.1-0.1-0.1h-1.1l-0.5-0.5c0,0-0.1-0.1-0.1-0.1c-3.4,0-10.8-0.6-10.9-0.6
				c-0.1,0-0.2,0.1-0.2,0.1c0,0.1,0,0.2,0.1,0.2c2.2,1.4,3.6,2.6,4.6,3.6h52.1v-0.4c0,0,0,0,0,0V93.9z M412,93.9
				c-0.2,0-0.3-0.1-0.3-0.3c0-0.2,0.1-0.3,0.3-0.3c0.2,0,0.3,0.1,0.3,0.3C412.3,93.8,412.2,93.9,412,93.9z"/>
			<path fill="#1A5371" d="M464.4,97.9c0,0.1,0.1,0.2,0.2,0.2h0.6c0.1,0,0.2-0.1,0.2-0.2V97h-1V97.9z"/>
			<path fill="#1A5371" d="M415.5,99.7c0,0.1,0.1,0.2,0.2,0.2h42.6c3.5,0,4.7-1.2,4.8-1.2c0.1-0.1,0.1-0.2,0-0.3
				c0,0-0.2-0.2-0.1-0.5c0-0.2,0.3-0.5,0.9-0.9h-50.1C415.3,98.6,415.5,99.7,415.5,99.7z"/>
			<path fill="#1A5371" d="M462,78.4c0-0.1-0.1-0.2-0.2-0.2c-0.1,0-0.2,0.1-0.2,0.2v5.2h0.4V78.4z"/>
		</g>
	</g>
	<g>
		<path fill="#004261" d="M276.6,28.4v-6.2c0.7-2.9,2.8-4.3,6.2-4.3h4.3c0-0.9,0.7-1.6,1.6-1.6l0,0V12h-4.3c-0.7,0-1.3-0.6-1.3-1.3
			c0-0.7,0.6-1.3,1.3-1.3h11.4c0.7,0,1.3,0.6,1.3,1.3c0,0.7-0.6,1.3-1.3,1.3h-4.3v4.3c0.9,0,1.6,0.7,1.6,1.6l0,0h5.9v-3.8
			c0-0.4,0.3-0.8,0.8-0.8h1.6v13h-1.6c-0.4,0-0.8-0.3-0.8-0.8v-3.8H293c0,0.9-0.7,1.6-1.6,1.6l0,0h-2.7c-0.9,0-1.6-0.7-1.6-1.6l0,0
			h-4.3c-1.1,0-1.9,0.9-1.9,1.9v4.7H276.6L276.6,28.4z M271.7,32l1.8,16.1h9.8l1.8-16.1L271.7,32L271.7,32z M273.2,33.4h10.5
			l-0.3,3.2h-9.7"/>
	</g>
	<g>
		<path fill="#6D8AA3" d="M305.9,537.6l-1.1-1.5v0h0l-1.3-1.8v-1h-0.8l0-0.1V529h-0.7h-0.7v-5.4c0-0.2-0.1-0.3-0.3-0.3h-3.8
			c-0.2,0-0.3,0.1-0.3,0.3v2.7h-1.3c-0.4,0-0.8,0.3-0.8,0.7c0,0,0,0.1,0,0.1v0.5h-1.5v5.9h-0.6h-0.6v4.2h-4.3l-0.7-25.7
			c0-0.3-0.3-0.3-0.7-0.3c-0.4,0-0.7,0-0.7,0.3l-0.5,25.7h-0.6L284,512c0-0.3-0.3-0.3-0.7-0.3c-0.4,0-0.7,0-0.7,0.3l-0.5,25.7h-1.4
			v3.8h-1.4l0-7.6l-6.4,3.7h-0.4l0-3.7l-6.6,3.7h-0.3l0-3.7l-6.6,3.7h-1.6v6.4h-1.9v4.9h1.9h12.5h10.9h25.3v-11.1H305.9z
			 M292.7,534.6v0.9h-0.3v-1.5L292.7,534.6z M293.6,529.3h0.5v1.8h-0.5V529.3z M294.3,529.3h0.5v1.8h-0.5V529.3z M302.4,531.1h-0.5
			v-0.9l0.5-0.6V531.1z M301.6,531.1h-0.4v0l0.4-0.5V531.1z M304,535.6h-0.6v-0.2h0.4L304,535.6z M303.4,536.9h1.5l0.2,0.2h-1.7
			L303.4,536.9L303.4,536.9z M303.4,536.6v-0.2h1.2l0.2,0.2H303.4z M292.7,537.6h-0.2l0.2-0.4V537.6z M293,536.8l0.4-0.6v1.5H293
			V536.8z M300.1,530.2v0.9h-0.5v-1.5L300.1,530.2z M300.7,531.4l-0.4,0.5v-0.5L300.7,531.4L300.7,531.4z M300.1,532.2l-0.5,0.6
			v-1.5h0.5V532.2z M300.1,532.7v0.5h-0.3L300.1,532.7z M300.3,533.2v-0.8l0.4-0.5v1.3H300.3z M300.7,531.1h-0.4v-0.5L300.7,531.1
			L300.7,531.1z M294.5,533.7l-0.2,0.4v-0.4H294.5z M294,534.6l-0.4,0.6v-1.4h0.4V534.6z M294.6,537.2l-0.3-0.5v-0.8h0.3V537.2z
			 M294,536.2l-0.2-0.4h0.2V536.2z M293.7,535.6l0.3-0.5v0.5H293.7z M293,536.2v-0.4h0.3L293,536.2z M293.6,536.1l0.4,0.6v0.9h-0.4
			V536.1z M294.3,537.2l0.3,0.4h-0.3V537.2z M294.6,537.6L294.6,537.6L294.6,537.6L294.6,537.6z M294.6,535.6h-0.3v-0.9l0.3-0.6
			V535.6z M301.9,533.2v-0.5l0.3,0.5H301.9z M301.6,533.2h-0.4v-1.4l0.4,0.5V533.2z M301.3,531.3h0.4v0.5L301.3,531.3z M300.3,530.1
			v-0.8h0.4v1.3L300.3,530.1z M300.1,529.7l-0.3-0.5h0.3V529.7z M294.8,527.9v1.1h-0.5v-1.1H294.8z M294.8,531.3v2v0.2h-0.5v-2.2
			H294.8z M293,535.6v-0.5l0.3,0.5H293z M292.4,535.8h0.3v0.9l-0.3,0.6V535.8z M303.4,537.4h1.9l0.2,0.3h-2.1V537.4z M303.4,536.1
			v-0.2h0.8l0.2,0.2H303.4z M303.6,535h-0.2v-0.3L303.6,535z M301.9,532.2v-0.9h0.5v1.5L301.9,532.2z M302.2,529.3l-0.3,0.4v-0.4
			H302.2z M301.6,529.3v0.8l-0.4,0.5v-1.3H301.6z M297.4,523.8h3.3v5.2h-0.6h-0.6v-2c0-0.4-0.3-0.7-0.8-0.7h-1.3L297.4,523.8
			L297.4,523.8z M294.1,527.9v1.1h-0.5v-1.1H294.1z M293.6,531.3h0.5v2.2h-0.5V531.3z M293.3,533.7v1.4l-0.4-0.6v-0.8H293.3z
			 M292.7,534.1l-0.2-0.4h0.2V534.1z"/>
	</g>
	<g>
		<g id="Your_Icon">
			<path fill="#5D7D98" d="M457,486c-0.3-0.6-0.6-1.2-0.9-1.7c-15,3.1-33.3,11.3-41.3,23.3c2,3.6,4.8,6.6,8.3,8.7
				C430.1,502.8,448.2,489.2,457,486z"/>
			<path fill="#5D7D98" d="M454.7,482.2c-4.3-5.9-11.3-9.7-19.2-9.7c-10.2,0-18.8,6.4-22.2,15.4
				C425.5,481.8,444.5,480.6,454.7,482.2z"/>
			<path fill="#5D7D98" d="M437.6,519.8c12.2-1,21.8-11.2,21.8-23.6c0-3.2-0.7-6.3-1.8-9.1C449.2,495.4,440.9,507.8,437.6,519.8z"/>
			<rect x="418.1" y="494.7" fill="#5D7D98" width="0.7" height="6.8"/>
			<path fill="#5D7D98" d="M417.2,489.5c1.3,1.2,1.8,3.9,1.7,5.3c2.6-2.1-0.3-6.3-2.6-6.8c0.2,1,0.1,2-0.1,2.9
				c-0.3,1.9,0.5,3.8,2,3.9C418.2,493.8,418.5,492.4,417.2,489.5z"/>
			<path fill="#5D7D98" d="M414.2,495.4c0.8-0.4,2.8-0.2,3.6,0c-1.5-2.3-4.2-0.9-4.8,0.2c0.7,0.1,1.3,0.4,1.9,0.7
				c1.2,0.6,2.6,0.4,3-0.5C417.3,495.6,415.1,495.3,414.2,495.4z"/>
			<path fill="#5D7D98" d="M421.8,494.3c-0.2,0.8-1.5,2.3-2.2,2.9c2.7,0.2,3.2-2.8,2.7-4c-0.5,0.5-1.1,0.8-1.7,1.1
				c-1.2,0.6-1.9,1.8-1.4,2.7C419.7,496.6,421.2,495.1,421.8,494.3z"/>
			<rect x="434.3" y="512" fill="#5D7D98" width="0.7" height="6.8"/>
			<path fill="#5D7D98" d="M433.4,506.8c1.3,1.2,1.8,3.9,1.7,5.3c2.6-2.1-0.3-6.3-2.6-6.8c0.2,1,0.1,2-0.1,2.9
				c-0.3,1.9,0.5,3.8,2,3.9C434.4,511.1,434.7,509.7,433.4,506.8z"/>
			<path fill="#5D7D98" d="M430.4,512.7c0.8-0.4,2.8-0.2,3.6,0c-1.5-2.3-4.2-0.9-4.8,0.2c0.7,0.1,1.3,0.4,1.9,0.7
				c1.2,0.6,2.6,0.4,3-0.5C433.5,512.9,431.3,512.7,430.4,512.7z"/>
			<path fill="#5D7D98" d="M438,511.6c-0.2,0.8-1.5,2.3-2.2,2.9c2.7,0.2,3.2-2.8,2.7-4c-0.5,0.5-1.1,0.8-1.7,1.1
				c-1.2,0.6-1.9,1.8-1.4,2.7C436,514,437.5,512.4,438,511.6z"/>
			<rect x="427.7" y="489.4" fill="#5D7D98" width="0.5" height="4.9"/>
			<path fill="#5D7D98" d="M427,485.6c1,0.9,1.3,2.8,1.2,3.8c1.9-1.6-0.2-4.5-1.9-4.9c0.1,0.8,0,1.5-0.1,2.1
				c-0.2,1.4,0.4,2.7,1.4,2.8C427.8,488.7,428,487.8,427,485.6z"/>
			<path fill="#5D7D98" d="M424.9,489.9c0.6-0.3,2-0.1,2.6,0c-1.1-1.7-3.1-0.6-3.5,0.2c0.5,0.1,1,0.3,1.4,0.5
				c0.9,0.5,1.9,0.3,2.2-0.4C427.1,490.1,425.6,489.9,424.9,489.9z"/>
			<path fill="#5D7D98" d="M430.4,489.2c-0.1,0.6-1.1,1.7-1.6,2.1c2,0.1,2.4-2.1,2-2.9c-0.4,0.4-0.8,0.6-1.2,0.8
				c-0.9,0.4-1.4,1.3-1,2C428.9,490.8,430,489.7,430.4,489.2z"/>
			<rect x="440.7" y="503.5" fill="#5D7D98" width="0.5" height="4.9"/>
			<path fill="#5D7D98" d="M440,499.7c1,0.9,1.3,2.8,1.2,3.8c1.9-1.6-0.2-4.5-1.9-4.9c0.1,0.8,0,1.5-0.1,2.1
				c-0.2,1.4,0.4,2.7,1.4,2.8C440.7,502.8,441,501.8,440,499.7z"/>
			<path fill="#5D7D98" d="M437.8,503.9c0.6-0.3,2-0.1,2.6,0c-1.1-1.7-3.1-0.6-3.5,0.2c0.5,0.1,1,0.3,1.4,0.5
				c0.9,0.5,1.9,0.3,2.2-0.4C440.1,504.1,438.5,503.9,437.8,503.9z"/>
			<path fill="#5D7D98" d="M443.3,503.2c-0.1,0.6-1.1,1.7-1.6,2.1c2,0.1,2.4-2.1,2-2.9c-0.4,0.4-0.8,0.6-1.2,0.8
				c-0.9,0.4-1.4,1.3-1,2C441.9,504.9,443,503.7,443.3,503.2z"/>
			<rect x="436.7" y="486.1" fill="#5D7D98" width="0.4" height="3.3"/>
			<path fill="#5D7D98" d="M436.2,483.5c0.7,0.6,1,1.9,0.9,2.6c1.5-1-0.1-3-1.4-3.3c0.1,0.5,0,1-0.1,1.4c-0.2,0.9,0.3,1.8,1.1,1.9
				C436.8,485.6,436.9,484.9,436.2,483.5z"/>
			<path fill="#5D7D98" d="M434.6,486.4c0.4-0.2,1.5-0.1,2,0c-0.8-1.1-2.3-0.4-2.7,0.1c0.4,0.1,0.7,0.2,1,0.3
				c0.7,0.3,1.4,0.2,1.7-0.2C436.3,486.5,435.1,486.4,434.6,486.4z"/>
			<path fill="#5D7D98" d="M438.8,485.9c-0.1,0.4-0.8,1.1-1.2,1.4c1.5,0.1,1.8-1.4,1.5-1.9c-0.3,0.2-0.6,0.4-0.9,0.5
				c-0.7,0.3-1.1,0.9-0.8,1.3C437.6,487,438.5,486.2,438.8,485.9z"/>
			<rect x="446.6" y="495.9" fill="#5D7D98" width="0.4" height="3.3"/>
			<path fill="#5D7D98" d="M446.1,493.4c0.7,0.6,1,1.9,0.9,2.6c1.5-1-0.1-3-1.4-3.3c0.1,0.5,0,1-0.1,1.4c-0.2,0.9,0.3,1.8,1.1,1.9
				C446.6,495.5,446.8,494.8,446.1,493.4z"/>
			<path fill="#5D7D98" d="M444.4,496.2c0.4-0.2,1.5-0.1,2,0c-0.8-1.1-2.3-0.4-2.7,0.1c0.4,0.1,0.7,0.2,1,0.3
				c0.7,0.3,1.4,0.2,1.7-0.2C446.1,496.3,444.9,496.2,444.4,496.2z"/>
			<path fill="#5D7D98" d="M448.6,495.7c-0.1,0.4-0.8,1.1-1.2,1.4c1.5,0.1,1.8-1.4,1.5-1.9c-0.3,0.2-0.6,0.4-0.9,0.5
				c-0.7,0.3-1.1,0.9-0.8,1.3C447.5,496.9,448.3,496.1,448.6,495.7z"/>
			<rect x="444.1" y="484.4" fill="#5D7D98" width="0.3" height="2.2"/>
			<path fill="#5D7D98" d="M443.7,482.7c0.5,0.4,0.7,1.3,0.6,1.7c1-0.7-0.1-2.1-1-2.2c0.1,0.3,0,0.7,0,0.9c-0.1,0.6,0.2,1.2,0.7,1.3
				C444.1,484.1,444.2,483.6,443.7,482.7z"/>
			<path fill="#5D7D98" d="M442.6,484.6c0.3-0.1,1-0.1,1.4,0c-0.6-0.8-1.6-0.3-1.8,0.1c0.3,0,0.5,0.1,0.7,0.2c0.4,0.2,1,0.1,1.1-0.2
				C443.8,484.7,443,484.6,442.6,484.6z"/>
			<path fill="#5D7D98" d="M445.5,484.3c-0.1,0.3-0.6,0.8-0.8,0.9c1,0.1,1.2-0.9,1-1.3c-0.2,0.2-0.4,0.3-0.6,0.4
				c-0.5,0.2-0.7,0.6-0.5,0.9C444.7,485,445.3,484.5,445.5,484.3z"/>
		</g>
	</g>
	<g>
		<path fill="#7D97AF" d="M147.9,493.7h-13.3v-1.8v-1.1v-0.1h-9l-1.3-3.7l-1.1,0.4l1.3,3.7v0.8v1.8h-5.1v-16c1.3,0.2,2,1.2,2,1.2
			s0.7-1.3,2.3-1.3c1.6,0,2.3,1.3,2.3,1.3s0.7-1.3,2.3-1.3c1.6,0,2.5,1.3,2.5,1.3c-0.2-6.2-5.1-11.3-11.3-11.6v-0.3
			c0,0-0.1-0.5-0.6-0.5c-0.5,0-0.6,0.5-0.6,0.5v0.3c-6.2,0.3-11.2,5.4-11.3,11.6c0,0,0.9-1.3,2.5-1.3c1.6,0,2.3,1.3,2.3,1.3
			s0.6-1.3,2.3-1.3c1.6,0,2.3,1.3,2.3,1.3s0.7-1,2-1.2v16h-11.3v2.4h3.5v5.4h2.4v-5.4h29.4v5.4h2.4v-5.4h3.4L147.9,493.7
			L147.9,493.7z M125.7,491.9h7.7v1.8h-7.7V491.9z"/>
	</g>
	<g>
		<path fill="#8EA6BB" d="M26.4,377.7c0,10,8.1,18.1,18.1,18.1c10,0,18.1-8.1,18.1-18.1c0-10-8.1-18.1-18.1-18.1
			C34.6,359.5,26.4,367.7,26.4,377.7L26.4,377.7z M29.6,377.7c0-8.2,6.7-15,15-15c8.2,0,15,6.7,15,15c0,8.2-6.7,15-15,15
			C36.3,392.6,29.6,385.9,29.6,377.7L29.6,377.7z M58.2,377.8c0,7.5-6.1,13.6-13.6,13.6c-7.5,0-13.6-6.1-13.6-13.6
			c0-1.3,0.2-2.7,0.6-4c0.1-0.2,0.3-0.4,0.5-0.3c0.2,0,0.3,0.1,0.4,0.3c0.8,0.8,1.8,1.2,2.9,1.2c1,0,1.9-0.3,2.6-0.9
			c0.2-0.2,0.6-0.3,0.8,0c0.7,0.6,1.7,1,2.7,1c1.1,0,2-0.4,2.8-1.1c0.1-0.1,0.3-0.2,0.5-0.1c0.1,0,0.2,0.1,0.2,0.2
			c0.7,0.7,1.7,1,2.7,1c1.1,0,2.1-0.4,2.8-1.1c0.1-0.1,0.3-0.2,0.5-0.1c0.1,0,0.2,0.1,0.2,0.2C52,374.6,53,375,54,375
			c1,0,2.1-0.4,2.8-1.1c0.2-0.2,0.5-0.2,0.7,0c0.1,0.1,0.1,0.2,0.2,0.2C58,375.3,58.2,376.6,58.2,377.8z"/>
	</g>
	<g>
		<g>
			<g>
				<path fill="#4E718D" d="M553,354.8c0,0,1.3-6-1-8.7c-2.5-2.9-7.5-3-7.5-3s-2.9-4-6.6-4.6c-4.6-0.8-9.6,0.1-9.6,0.1
					s-2.9-2.5-9.1-1.4c-4.7,0.8-5.1,5.7-5.1,5.7s-4.3-0.1-6,2.2c-1.9,2.5,0.1,7.9,0.1,7.9s-2.5,3.5-1.8,6.7c0.7,2.7,4.6,2.9,4.6,2.9
					s0.8,4.3,4.2,4.5c2.8,0.1,5.9-1.4,5.9-1.4s3.5,1.6,7.1,1.5c3.7-0.1,7.4-1.8,7.4-1.8s2.7,2.6,6.1,3.3c3.4,0.7,6.3-3.1,6.3-3.1
					s4.2,0.8,5.6-2.4C555.2,359.7,553,354.8,553,354.8z M538.4,368.8c0,0-1-0.4-1.9-0.9c-0.7-0.4-1.3-1-1.3-1s-0.1,0.8-0.3,1.4
					c-0.2,0.5-0.5,1.1-0.5,1.1s-0.1-0.4-0.2-0.8c-0.1-0.5-0.2-1.1-0.3-1.1c-0.7,0.2-1.3,0.2-1.3,0.2s0.4,1.4,0.2,2.4
					c-0.4,1.6-1.2,4.2-1.2,4.2s-0.9-2-1.2-3.3c-0.3-1.1-0.2-2.5-0.2-2.5s-1.4,0-2.8-0.2c-1.1-0.2-2.2-0.4-2.2-0.4l0.6,2.1
					c0,0-1-0.4-1.8-1.1c-0.7-0.6-0.9-1.5-0.9-1.5l-1.3-0.3c0,0,0.6,1.6,2.3,3.4c7,6.2,5.7,6.9,5,13c-0.2,2.6-0.8,5.1-1.3,6.3
					c-0.3,0.9-2.1,1.5-2.1,1.5s0.5,0.4,2.8,0.4c1.1,0,4-0.5,5.2-0.6c0.7-0.1,1.7,0.2,2.4,0.2c0.9,0,1.4-0.2,1.4-0.2
					s-2.7-0.8-3.1-1.6c-0.3-0.7-0.6-1.5-0.6-1.5s-0.8-3.1-0.1-10.1C534.5,372,538.4,368.8,538.4,368.8z"/>
			</g>
		</g>
	</g>
	<g>
		<g id="Layer_1_1_">
		</g>
		<g id="Calque_2">
			<path fill="#3F6683" d="M511.7,203l-14.2,2.3c-0.1,0.1-0.1,0.3-0.1,0.4v1.6c0,0.5,0.4,0.9,0.9,0.9v5.6c0,0.4,0.3,0.8,0.7,0.9
				c1.7,3.2,6.6,5.5,12.3,5.6v-11.7h0.8v11.7c5.6-0.2,10.2-2.4,11.9-5.6c0.4-0.1,0.7-0.5,0.7-0.9v-1.6c0,0,0,0,0,0c0,0,0,0,0,0v-3.9
				c0.5,0,0.9-0.4,0.9-0.9v-1.6c0-0.2-0.1-0.3-0.1-0.5L511.7,203z"/>
			<path fill="#3F6683" d="M494.5,211.7c-3.6,0-6.3-0.8-6.4-0.8l0.4-1.5c0.2,0.1,5.8,1.7,11.6,0c5.4-1.6,7.3-0.5,8.7,0l-0.6,1.5
				c-1.1-0.4-2.6-1.4-7.7,0C498.5,211.5,496.4,211.7,494.5,211.7z"/>
			<path fill="#3F6683" d="M523.2,210.9l-0.4-1.5c5.4-1.6,12.6-0.5,14,0l-0.6,1.5C535.1,210.5,528.2,209.4,523.2,210.9z"/>
			<path fill="#3F6683" d="M520.7,198.3h-0.2v-2.7c0-0.3-0.3-0.6-0.6-0.6h-2.6v-4.5c0-0.3-0.3-0.6-0.6-0.6h-0.2
				c-0.3,0-0.6,0.3-0.6,0.6v4.5h-12.3c-0.3,0-0.6,0.3-0.6,0.6v2.7h-0.3c-0.5,0-0.9,0.4-0.9,0.9v4.5l10-1.6l0.1,0l9.9,1.6v-4.5
				C521.7,198.8,521.2,198.3,520.7,198.3z M511,199.9c0,0.5-0.4,0.9-0.9,0.9h-5.2c-0.5,0-0.9-0.4-0.9-0.9v-1.8
				c0-0.5,0.4-0.9,0.9-0.9h5.2c0.5,0,0.9,0.4,0.9,0.9V199.9z M519.4,199.9c0,0.5-0.4,0.9-0.9,0.9h-5.2c-0.5,0-0.9-0.4-0.9-0.9v-1.8
				c0-0.5,0.4-0.9,0.9-0.9h5.2c0.5,0,0.9,0.4,0.9,0.9L519.4,199.9L519.4,199.9z"/>
		</g>
	</g>
	<polygon fill="#A0B6C9" points="29.8,193.9 40.4,193.9 37.2,211.3 48.3,211.3 35,236.3 37,217.5 27.7,217.5 	"/>
	<path fill="#B3C7D7" d="M135.7,105.5c0.1,0.1,0.2,0.2,0.3,0.2c0.2,0.1,0.5,0.2,0.7,0.3c0.1,0,0.3,0,0.4,0l0.1,0c0.1,0,0.1,0,0.1,0
		l0.2,0l0.3-0.1c0.1,0,0.2-0.1,0.4-0.2c0.1-0.1,0.3-0.1,0.3-0.2l0.3-0.3c0.1-0.1,0.2-0.2,0.3-0.4l0.2,0.3c0.2,0.1,0.3,0.3,0.5,0.4
		c0.2,0.1,0.4,0.2,0.6,0.3l0.6,0.1l0.6-0.1c0.2-0.1,0.4-0.2,0.6-0.3c0.2-0.1,0.3-0.3,0.5-0.4l0.2-0.4l0.2,0.3
		c0.2,0.1,0.3,0.3,0.5,0.4c0.2,0.1,0.4,0.2,0.6,0.2l0.6,0.1l0.6-0.1c0.2-0.1,0.4-0.2,0.6-0.3c0.2-0.1,0.3-0.3,0.5-0.4l0.3-0.4
		c0,0,0.1,0.1,0.1,0.1c0,0,0,0,0,0.1c0,0,0,0,0,0c0.1,0.1,0.1,0.2,0.2,0.3c0.2,0.2,0.4,0.4,0.7,0.5c0.1,0,0.3,0.1,0.4,0.1l0.4,0
		c0.3,0,0.6-0.1,0.8-0.2c0.3-0.1,0.5-0.3,0.7-0.5c0.2-0.2,0.4-0.4,0.5-0.7c0.1-0.1,0.1-0.3,0.1-0.5l0-0.3l-0.1,0l0,0l0,0l0,0l-0.4,0
		l-0.5,0l0,0.3c0,0.1,0,0.1-0.1,0.2c-0.1,0.1-0.1,0.3-0.2,0.4c-0.1,0.1-0.2,0.2-0.4,0.3c-0.1,0.1-0.3,0.1-0.5,0.1l-0.3,0
		c-0.1,0-0.1,0-0.2-0.1c-0.1-0.1-0.3-0.1-0.4-0.3c-0.1-0.1-0.2-0.2-0.3-0.4c-0.1-0.1-0.1-0.3-0.1-0.5l0-0.4l-0.4,0l-0.4,0l-0.4,0
		l0,0.4c0,0.2,0,0.3-0.1,0.5c-0.1,0.1-0.2,0.3-0.3,0.4c-0.1,0.1-0.3,0.2-0.4,0.3L145,105c-0.1,0-0.2,0-0.2,0l-0.3,0
		c-0.1,0-0.1,0-0.2-0.1c-0.2-0.1-0.3-0.2-0.4-0.3c-0.1-0.1-0.2-0.3-0.3-0.4c-0.1-0.2-0.1-0.3-0.1-0.5l0-0.4l-0.3,0l-0.4,0l-0.4,0
		l0,0.4c0,0.2,0,0.3-0.1,0.5c-0.1,0.2-0.2,0.3-0.3,0.4c-0.1,0.1-0.3,0.2-0.4,0.3c-0.2,0.1-0.3,0.1-0.5,0.1l-0.3,0
		c-0.1,0-0.1-0.1-0.2-0.1c-0.2-0.1-0.3-0.2-0.4-0.3c-0.1-0.1-0.2-0.3-0.3-0.4c-0.1-0.2-0.1-0.3-0.1-0.5l0-0.3l-0.3,0l-0.4,0l-0.3,0
		l0,0.3c0,0.2,0,0.4-0.1,0.5c-0.1,0.2-0.2,0.3-0.3,0.5c-0.1,0.1-0.3,0.2-0.4,0.3l-0.3,0.1c-0.1,0-0.2,0-0.2,0l-0.3,0l-0.2-0.1
		c-0.2-0.1-0.3-0.2-0.5-0.3c-0.1-0.1-0.2-0.3-0.3-0.5c-0.1-0.2-0.1-0.4-0.1-0.5l0-0.2l-0.2,0V103v-1.4h-1.5H128h-3.4v-9.9h-1.4v9.9
		H119v-9h-3.8c1-0.7,1.7-1.8,1.7-3.1c0-1.2-0.5-2.2-1.3-2.9l1.3-0.9l10.1,6.6l0.8-1.2L116.9,84l-2.6,1.7c-0.2-0.1-0.3-0.2-0.4-0.2
		c-0.2-3.2-2.5-5.9-5.5-5.9c-2.3,0-4.2,1.6-5,3.8c-2.1,0.1-3.8,1.9-3.8,4c0,1,0.4,1.9,1,2.6c-0.6,0.7-1,1.6-1,2.6c0,2.2,1.8,4,4,4
		c0.5,0,0.9-0.1,1.3-0.2c0.5,0.5,1,0.8,1.6,1.1v3.9v0h-6.9v1.4H128h6.1v7.1h1.5h15v-1.3h-15v-3.3
		C135.6,105.4,135.7,105.4,135.7,105.5z M114.7,101.5h-4.2V98c0.2,0,0.3,0,0.5,0c1.7,0,3.1-1,3.7-2.4V101.5z M113.9,92l-0.6,0.2
		l0.3,0.6c0.2,0.4,0.3,0.8,0.3,1.2c0,1.6-1.3,2.8-2.8,2.8c-0.3,0-0.7-0.1-1-0.2l-0.8-0.3v5.3h-1.6v-4.8l-0.4-0.1
		c-0.7-0.2-1.3-0.7-1.8-1.2l-0.3-0.3l-0.4,0.2c-0.4,0.2-0.8,0.3-1.2,0.3c-1.5,0-2.8-1.3-2.8-2.8c0-0.9,0.4-1.6,1-2.2l0.6-0.5
		l-0.6-0.5c-0.6-0.5-1-1.3-1-2.2c0-1.6,1.3-2.8,2.8-2.8c0,0,0.1,0,0.2,0l0.5,0l0.1-0.5c0.6-2,2.2-3.4,4-3.4c2.3,0,4.3,2.2,4.3,5.1
		l0,0.6l0.3,0l0.3,0c0.5,0.1,1,0.3,1.3,0.6c0.7,0.5,1.1,1.3,1.1,2.2C115.6,90.6,114.9,91.6,113.9,92z"/>
</g>
<g id="DROP">
	<path opacity="0.5" fill="#B3C7D7" d="M365.4,308.3c0,47.5-38.5,86.1-86.1,86.1c-47.5,0-86.1-38.5-86.1-86.1
		c0-47.5,86.1-145.3,86.1-145.3S365.4,260.8,365.4,308.3z"/>
</g>
</svg>
