<?xml version="1.0" encoding="utf-8"?>
<!-- Generator: Adobe Illustrator 16.0.4, SVG Export Plug-In . SVG Version: 6.00 Build 0)  -->
<!DOCTYPE svg PUBLIC "-//W3C//DTD SVG 1.1//EN" "http://www.w3.org/Graphics/SVG/1.1/DTD/svg11.dtd">
<svg version="1.1" id="Layer_1" xmlns="http://www.w3.org/2000/svg" xmlns:xlink="http://www.w3.org/1999/xlink" x="0px" y="0px"
	 width="139.376px" height="100.219px" viewBox="0 0 139.376 100.219" enable-background="new 0 0 139.376 100.219"
	 xml:space="preserve">
<path fill="#FFFFFF" d="M139.376,0C92.765,0,46.348,0,0,0c0,39.87,0,60.569,0,100.219c46.551,0,92.911,0,139.376,0
	C139.376,60.449,139.376,39.808,139.376,0z"/>
<path fill-rule="evenodd" clip-rule="evenodd" d="M139.376,0c0,39.808,0,60.449,0,100.219c-46.465,0-92.825,0-139.376,0
	C0,60.569,0,39.87,0,0C46.348,0,92.765,0,139.376,0z M5.689,5.649c0,36.583,0,53.938,0,90.286c42.719,0,85.292,0,127.811,0
	c0-36.565,0-53.913,0-90.286C90.839,5.649,48.37,5.649,5.689,5.649z"/>
<path fill-rule="evenodd" clip-rule="evenodd" fill="#FFFFFF" d="M5.689,5.649c42.681,0,85.15,0,127.811,0 M132.727,35.984
	c-42.087,0-84.093,0-126.13,0c0,19.774,0,39.396,0,59.12c42.106,0,84.045,0,126.13,0C132.727,75.349,132.727,55.725,132.727,35.984z
	 M132.721,6.388c-42.195,0-84.146,0-126.142,0c0,9.643,0,19.124,0,28.729c42.097,0,84.044,0,126.142,0
	C132.721,25.52,132.721,16.04,132.721,6.388z M132.718,96.125c-13.824,0-27.491,0-41.106,0 M47.663,96.092
	c-13.795,0-27.42,0-41.138,0 M90.366,96.042c-13.926,0-27.649,0-41.487,0"/>
<path fill-rule="evenodd" clip-rule="evenodd" d="M132.727,35.984c0,19.741,0,39.365,0,59.12c-42.085,0-84.024,0-126.13,0
	c0-19.725,0-39.346,0-59.12C48.634,35.984,90.639,35.984,132.727,35.984z M123.7,75.155c-0.162,0.021-0.325,0.044-0.487,0.066
	c-1.287-2.895-2.583-5.784-3.859-8.683c-3.082-6.993-6.162-13.986-9.226-20.987c-0.816-1.865-2.294-2.386-4.115-1.973
	c-1.714,0.388-2.042,1.711-2.038,3.314c0.034,12.388,0.029,24.777,0.007,37.166c-0.003,1.784,0.283,3.28,2.492,3.265
	c2.313-0.016,2.319-1.669,2.315-3.37c-0.021-8.712-0.01-17.424-0.011-26.135c0-0.738,0-1.475,0-2.896
	c0.555,1.015,0.763,1.34,0.918,1.689c4.202,9.367,8.37,18.75,12.639,28.087c0.451,0.987,1.333,2.141,2.276,2.47
	c2.568,0.894,3.973-0.36,3.98-3.368c0.03-12.309,0.014-24.618,0.009-36.926c0-0.478,0.127-1.125-0.125-1.4
	c-0.683-0.743-1.547-1.846-2.324-1.833c-0.809,0.013-1.761,1.047-2.339,1.857c-0.346,0.483-0.11,1.394-0.11,2.112
	C123.7,56.791,123.7,65.972,123.7,75.155z M11.279,65.315c0,6.236,0.039,12.473-0.021,18.708c-0.021,2.139,0.976,3.108,3,3.127
	c3.278,0.03,6.561,0.112,9.833-0.021c6.42-0.263,11.549-5.354,11.666-11.69c0.124-6.713,0.143-13.434-0.008-20.146
	c-0.143-6.376-5.251-11.252-11.583-11.326c-3.277-0.039-6.558,0.057-9.833-0.03c-2.267-0.06-3.115,0.9-3.083,3.15
	C11.336,53.162,11.278,59.239,11.279,65.315z M67.089,65.41c-0.004,0-0.008,0-0.012,0c0-3.596,0.073-7.193-0.017-10.787
	c-0.143-5.724-4.886-10.665-10.547-11.114c-6.889-0.547-12.937,3.288-13.402,9.421c-0.596,7.859-0.805,15.818-0.269,23.672
	c0.512,7.491,6.105,11.29,13.982,10.673c6.025-0.473,10.247-5.616,10.263-12.515C67.095,71.643,67.089,68.527,67.089,65.41z
	 M78.666,48.652c1.074,0,1.937,0,2.8,0c4.717-0.003,9.435,0.011,14.151-0.02c1.528-0.01,2.66-0.56,2.633-2.373
	c-0.026-1.76-1.002-2.321-2.631-2.313c-6.316,0.031-12.633,0.046-18.949-0.009c-2.09-0.018-2.855,1.05-2.902,2.937
	c-0.006,0.239-0.002,0.479-0.002,0.719c0,11.914,0.013,23.827-0.013,35.74c-0.004,1.945,0.336,3.733,2.651,3.773
	c6.474,0.112,12.952,0.076,19.428,0.02c1.593-0.015,2.5-0.972,2.406-2.641c-0.091-1.602-1.08-2.169-2.575-2.165
	c-4.797,0.014-9.594,0.004-14.392,0.003c-0.842,0-1.684,0-2.488,0c0-5.197,0-10.018,0-14.885c0.756-0.05,1.309-0.115,1.862-0.118
	c3.278-0.015,6.557,0.026,9.833-0.041c1.45-0.03,2.417-0.772,2.468-2.361c0.051-1.597-0.915-2.328-2.326-2.521
	c-0.943-0.129-1.915-0.061-2.874-0.062c-3.001-0.006-6.002-0.002-9.083-0.002C78.666,57.661,78.666,53.368,78.666,48.652z"/>
<path fill-rule="evenodd" clip-rule="evenodd" d="M132.721,6.388c0,9.651,0,19.131,0,28.729c-42.098,0-84.045,0-126.142,0
	c0-9.605,0-19.085,0-28.729C48.575,6.388,90.525,6.388,132.721,6.388z M103.494,17.122c0.179-0.039,0.358-0.077,0.537-0.116
	c1.573,3.555,3.098,7.133,4.759,10.646c0.352,0.744,1.205,1.252,1.826,1.87c0.341-0.783,0.96-1.56,0.977-2.348
	c0.093-4.553,0.085-9.109,0.001-13.663c-0.013-0.701-0.599-1.391-0.92-2.085c-0.329,0.686-0.921,1.365-0.942,2.06
	c-0.098,3.396-0.044,6.796-0.044,10.194c-0.881-0.943-1.394-1.976-1.864-3.028c-1.202-2.688-2.324-5.414-3.625-8.052
	c-0.27-0.548-1.174-0.783-1.786-1.162c-0.281,0.592-0.798,1.181-0.807,1.777c-0.066,4.793-0.073,9.589,0.007,14.382
	c0.011,0.635,0.613,1.26,0.942,1.889c0.313-0.624,0.881-1.242,0.897-1.874C103.541,24.118,103.494,20.619,103.494,17.122z
	 M71.35,21.14c0,2.441-0.072,4.597,0.049,6.742c0.031,0.553,0.669,1.072,1.029,1.606c0.287-0.556,0.814-1.109,0.822-1.668
	c0.066-4.869,0.047-9.739,0.027-14.609c-0.002-0.586-0.165-1.172-0.253-1.758c-0.3-0.045-0.6-0.091-0.899-0.136
	c-1.783,2.2-0.059,5.271-1.031,7.547c-1.933,0-3.728,0-5.634,0c0-2.018,0.092-3.858-0.052-5.679
	c-0.049-0.617-0.697-1.186-1.072-1.777c-0.367,0.61-1.041,1.214-1.053,1.832c-0.087,4.788-0.086,9.58,0,14.368
	c0.011,0.637,0.657,1.262,1.009,1.892c0.39-0.667,1.066-1.315,1.115-2.006c0.148-2.101,0.054-4.219,0.054-6.353
	C67.612,21.14,69.338,21.14,71.35,21.14z M125.938,22.201c0.012,0.218,0.081,0.842,0.075,1.464
	c-0.024,2.522-0.996,3.674-3.065,3.672c-2.096-0.001-3.052-1.101-3.089-3.648c-0.032-2.237,0.009-4.476-0.008-6.713
	c-0.014-1.795,0.632-3.178,2.487-3.588c1.75-0.387,2.839,0.513,3.59,2.081c0.228,0.474,0.968,0.702,1.474,1.042
	c0.11-0.64,0.453-1.347,0.29-1.907c-0.653-2.239-2.936-3.507-5.505-3.215c-2.139,0.243-4.108,2.042-4.21,4.241
	c-0.147,3.189-0.172,6.398,0.008,9.584c0.141,2.493,2.71,4.477,5.176,4.348c2.539-0.133,4.637-2.223,4.765-4.801
	c0.055-1.116-0.041-2.24,0.027-3.355c0.09-1.498-0.651-2.114-2.021-1.871c-1.206,0.215-2.373,0.65-3.557,0.988
	C123.407,21.01,124.439,21.496,125.938,22.201z M16.545,29.571c1.792-0.106,3.597-0.872,4.37-3.18
	c0.799-2.387,0.155-4.536-1.896-5.868c-1.396-0.906-3.07-1.445-4.314-2.507c-0.74-0.631-1.489-2.282-1.159-2.894
	c0.474-0.877,1.921-1.641,2.969-1.662c0.805-0.017,1.635,1.187,2.453,1.849c0.441,0.358,0.878,0.72,1.317,1.08
	c0.194-0.623,0.629-1.283,0.539-1.86c-0.299-1.902-2.583-3.265-5.025-3.158c-2.258,0.099-4.228,1.662-4.493,3.551
	c-0.296,2.105,0.324,3.767,2.282,4.799c1.197,0.631,2.39,1.271,3.583,1.911c1.475,0.791,2.532,2.022,1.902,3.656
	c-0.336,0.871-1.532,1.736-2.493,1.968c-1.693,0.408-3.092-0.261-3.694-2.161c-0.155-0.488-0.833-0.812-1.271-1.211
	c-0.209,0.603-0.673,1.247-0.582,1.799C11.396,27.896,13.619,29.521,16.545,29.571z M48.168,20.387c-0.021,0-0.042,0-0.062,0
	c0,1.515-0.083,3.036,0.02,4.544c0.163,2.395,1.842,4.202,4.112,4.601c2.118,0.373,4.585-0.979,5.361-3.12
	c0.213-0.588-0.12-1.375-0.202-2.07c-0.489,0.366-1.18,0.628-1.431,1.116c-0.823,1.604-2.074,2.112-3.755,1.809
	c-1.818-0.328-2.144-1.688-2.155-3.22c-0.018-2.473-0.001-4.946-0.006-7.419c-0.003-1.606,0.604-2.834,2.253-3.217
	c1.748-0.405,2.843,0.478,3.648,1.99c0.263,0.494,0.937,0.771,1.422,1.146c0.137-0.627,0.512-1.315,0.37-1.872
	c-0.551-2.147-2.724-3.458-5.192-3.298c-2.257,0.146-4.133,1.756-4.351,3.992C48.039,17.027,48.168,18.713,48.168,20.387z
	 M28.606,13.766c0,2.097,0,4.227,0,6.356c0,2.631-0.046,5.263,0.042,7.891c0.017,0.498,0.57,0.977,0.876,1.464
	c0.411-0.478,0.983-0.896,1.187-1.45c0.207-0.562,0.053-1.259,0.053-1.896c0-4.126,0-8.253,0-12.489
	c0.85-0.073,1.509-0.01,2.072-0.213c0.548-0.198,0.997-0.669,1.49-1.021c-0.539-0.325-1.058-0.883-1.619-0.929
	c-1.584-0.129-3.195-0.156-4.776-0.01c-0.978,0.09-1.919,0.569-2.876,0.874c0.88,0.386,1.759,0.778,2.644,1.156
	C27.911,13.588,28.143,13.631,28.606,13.766z M81.918,13.742c0,2.028,0,3.941,0,5.854c0.001,2.717-0.05,5.435,0.044,8.148
	c0.021,0.585,0.566,1.153,0.869,1.729c0.364-0.593,0.987-1.163,1.042-1.783c0.147-1.665,0.053-3.351,0.053-5.029
	c0-2.997,0-5.993,0-9.047c1.016-0.064,1.672-0.004,2.264-0.173c0.526-0.15,0.981-0.553,1.468-0.844
	c-0.493-0.386-0.961-1.059-1.485-1.105c-1.665-0.147-3.36-0.168-5.024-0.025c-0.986,0.085-1.937,0.57-2.903,0.875
	c0.896,0.387,1.79,0.781,2.69,1.156C81.149,13.587,81.388,13.613,81.918,13.742z M94.805,20.53c0-2.546,0.063-5.095-0.053-7.636
	c-0.023-0.509-0.732-0.987-1.125-1.479c-0.318,0.472-0.906,0.94-0.912,1.417c-0.072,5.011-0.083,10.024-0.009,15.035
	c0.008,0.552,0.651,1.095,1,1.642c0.368-0.606,1.019-1.197,1.052-1.821C94.883,25.307,94.809,22.916,94.805,20.53z M41.544,20.448
	c0-2.477,0.061-4.956-0.048-7.428c-0.024-0.545-0.65-1.063-0.999-1.593c-0.333,0.526-0.949,1.047-0.957,1.578
	c-0.075,4.952-0.076,9.907-0.002,14.86c0.008,0.546,0.626,1.083,0.962,1.624c0.347-0.537,0.97-1.061,0.995-1.611
	C41.604,25.404,41.543,22.924,41.544,20.448z"/>
<path fill-rule="evenodd" clip-rule="evenodd" d="M91.611,96.125c13.615,0,27.283,0,41.106,0"/>
<path fill-rule="evenodd" clip-rule="evenodd" d="M6.524,96.092c13.718,0,27.343,0,41.138,0"/>
<path fill-rule="evenodd" clip-rule="evenodd" d="M48.879,96.042c13.837,0,27.561,0,41.487,0"/>
<path fill-rule="evenodd" clip-rule="evenodd" fill="#FFFFFF" d="M123.7,75.155c0-9.183,0-18.364,0.002-27.545
	c0-0.718-0.235-1.628,0.11-2.112c0.579-0.81,1.53-1.845,2.339-1.857c0.777-0.012,1.641,1.09,2.324,1.833
	c0.252,0.275,0.125,0.922,0.125,1.4c0.005,12.308,0.021,24.617-0.009,36.926c-0.007,3.008-1.412,4.262-3.98,3.368
	c-0.943-0.329-1.825-1.482-2.276-2.47c-4.269-9.337-8.437-18.72-12.639-28.087c-0.156-0.349-0.364-0.674-0.918-1.689
	c0,1.42,0,2.158,0,2.896c0,8.711-0.011,17.423,0.011,26.135c0.004,1.701-0.002,3.354-2.315,3.37
	c-2.209,0.016-2.495-1.48-2.492-3.265c0.022-12.389,0.027-24.777-0.007-37.166c-0.005-1.604,0.323-2.926,2.038-3.314
	c1.821-0.413,3.299,0.108,4.115,1.973c3.063,7.001,6.144,13.994,9.226,20.987c1.277,2.898,2.572,5.788,3.859,8.683
	C123.375,75.199,123.538,75.176,123.7,75.155z"/>
<path fill-rule="evenodd" clip-rule="evenodd" fill="#FFFFFF" d="M11.279,65.315c0-6.076,0.057-12.153-0.03-18.229
	c-0.032-2.25,0.815-3.21,3.083-3.15c3.275,0.086,6.556-0.009,9.833,0.03c6.332,0.073,11.44,4.95,11.583,11.326
	c0.151,6.712,0.131,13.433,0.008,20.146c-0.117,6.337-5.245,11.428-11.666,11.69c-3.272,0.134-6.555,0.052-9.833,0.021
	c-2.023-0.019-3.021-0.988-3-3.127C11.318,77.788,11.279,71.551,11.279,65.315z M16.253,48.681c0,11.312,0,22.377,0,33.593
	c2.856,0,5.574,0.186,8.257-0.046c3.738-0.322,6.42-3.357,6.452-7.104c0.055-6.479,0.063-12.959-0.004-19.438
	c-0.041-3.889-2.853-6.774-6.788-6.98C21.62,48.573,19.059,48.681,16.253,48.681z"/>
<path fill-rule="evenodd" clip-rule="evenodd" fill="#FFFFFF" d="M67.089,65.41c0,3.117,0.006,6.233-0.001,9.351
	c-0.017,6.898-4.238,12.042-10.263,12.515c-7.877,0.617-13.471-3.182-13.982-10.673c-0.536-7.854-0.327-15.812,0.269-23.672
	c0.465-6.134,6.513-9.969,13.402-9.421c5.662,0.449,10.404,5.39,10.547,11.114c0.09,3.594,0.017,7.191,0.017,10.787
	C67.081,65.41,67.085,65.41,67.089,65.41z M62.308,65.541c0.005,0,0.01,0,0.015,0c0-3.354,0.06-6.711-0.015-10.064
	c-0.093-4.135-2.896-7.026-6.805-7.165c-4.388-0.157-7.794,2.357-7.938,6.524c-0.245,7.1-0.243,14.22,0.014,21.32
	c0.146,4.049,3.642,6.66,7.762,6.471c4.098-0.189,6.837-2.889,6.949-7.021C62.38,72.252,62.308,68.896,62.308,65.541z"/>
<path fill-rule="evenodd" clip-rule="evenodd" fill="#FFFFFF" d="M78.666,48.652c0,4.716,0,9.009,0,13.68
	c3.08,0,6.081-0.004,9.083,0.002c0.959,0.002,1.931-0.066,2.874,0.062c1.411,0.193,2.377,0.925,2.326,2.521
	c-0.051,1.589-1.019,2.331-2.468,2.361c-3.276,0.067-6.555,0.026-9.833,0.041c-0.553,0.003-1.106,0.068-1.862,0.118
	c0,4.867,0,9.688,0,14.885c0.805,0,1.646,0,2.488,0c4.797,0.001,9.595,0.011,14.392-0.003c1.496-0.004,2.484,0.563,2.575,2.165
	c0.094,1.669-0.813,2.626-2.406,2.641c-6.476,0.057-12.954,0.093-19.428-0.02c-2.315-0.04-2.656-1.828-2.651-3.773
	c0.025-11.913,0.013-23.826,0.013-35.74c0-0.24-0.003-0.48,0.002-0.719c0.047-1.887,0.812-2.955,2.902-2.937
	c6.316,0.055,12.632,0.04,18.949,0.009c1.629-0.008,2.605,0.553,2.631,2.313c0.027,1.813-1.105,2.362-2.633,2.373
	c-4.717,0.031-9.434,0.017-14.151,0.02C80.603,48.653,79.74,48.652,78.666,48.652z"/>
<path fill-rule="evenodd" clip-rule="evenodd" fill="#FFFFFF" d="M103.494,17.122c0,3.497,0.046,6.996-0.042,10.49
	c-0.016,0.632-0.584,1.25-0.897,1.874c-0.329-0.629-0.931-1.254-0.942-1.889c-0.08-4.793-0.073-9.588-0.007-14.382
	c0.008-0.596,0.525-1.186,0.807-1.777c0.612,0.379,1.516,0.614,1.786,1.162c1.301,2.638,2.423,5.365,3.625,8.052
	c0.471,1.052,0.983,2.085,1.864,3.028c0-3.398-0.054-6.799,0.044-10.194c0.021-0.695,0.613-1.374,0.942-2.06
	c0.321,0.694,0.907,1.384,0.92,2.085c0.084,4.553,0.092,9.109-0.001,13.663c-0.017,0.789-0.636,1.565-0.977,2.348
	c-0.622-0.617-1.474-1.125-1.826-1.87c-1.661-3.513-3.186-7.091-4.759-10.646C103.852,17.045,103.673,17.083,103.494,17.122z"/>
<path fill-rule="evenodd" clip-rule="evenodd" fill="#FFFFFF" d="M71.35,21.14c-2.012,0-3.738,0-5.888,0
	c0,2.133,0.094,4.251-0.054,6.353c-0.049,0.691-0.725,1.339-1.115,2.006c-0.352-0.63-0.998-1.255-1.009-1.892
	c-0.086-4.789-0.088-9.58,0-14.368c0.012-0.617,0.686-1.221,1.053-1.832c0.375,0.591,1.023,1.16,1.072,1.777
	c0.144,1.821,0.052,3.662,0.052,5.679c1.906,0,3.701,0,5.634,0c0.972-2.276-0.752-5.347,1.031-7.547
	c0.299,0.045,0.599,0.091,0.899,0.136c0.088,0.586,0.251,1.172,0.253,1.758c0.02,4.87,0.039,9.74-0.027,14.609
	c-0.008,0.56-0.536,1.112-0.822,1.668c-0.359-0.535-0.998-1.053-1.029-1.606C71.278,25.737,71.35,23.582,71.35,21.14z"/>
<path fill-rule="evenodd" clip-rule="evenodd" fill="#FFFFFF" d="M125.938,22.201c-1.499-0.705-2.531-1.19-3.563-1.676
	c1.184-0.338,2.351-0.773,3.557-0.988c1.37-0.244,2.111,0.373,2.021,1.871c-0.067,1.115,0.028,2.239-0.027,3.355
	c-0.128,2.578-2.226,4.667-4.765,4.801c-2.466,0.129-5.035-1.855-5.176-4.348c-0.18-3.186-0.155-6.395-0.008-9.584
	c0.102-2.199,2.071-3.999,4.21-4.241c2.569-0.292,4.853,0.976,5.505,3.215c0.163,0.56-0.18,1.267-0.29,1.907
	c-0.506-0.34-1.247-0.568-1.474-1.042c-0.751-1.568-1.84-2.467-3.59-2.081c-1.855,0.41-2.501,1.793-2.487,3.588
	c0.017,2.237-0.024,4.476,0.008,6.713c0.037,2.547,0.994,3.646,3.089,3.648c2.069,0.001,3.041-1.15,3.065-3.672
	C126.02,23.042,125.95,22.419,125.938,22.201z"/>
<path fill-rule="evenodd" clip-rule="evenodd" fill="#FFFFFF" d="M16.545,29.571c-2.927-0.051-5.149-1.675-5.514-3.887
	c-0.091-0.553,0.373-1.197,0.582-1.799c0.438,0.399,1.116,0.723,1.271,1.211c0.603,1.9,2.001,2.568,3.694,2.161
	c0.961-0.232,2.157-1.098,2.493-1.968c0.63-1.634-0.427-2.865-1.902-3.656c-1.193-0.64-2.385-1.279-3.583-1.911
	c-1.958-1.033-2.578-2.694-2.282-4.799c0.265-1.889,2.235-3.452,4.493-3.551c2.442-0.107,4.727,1.256,5.025,3.158
	c0.09,0.578-0.345,1.238-0.539,1.86c-0.439-0.36-0.876-0.722-1.317-1.08c-0.817-0.663-1.648-1.866-2.453-1.849
	c-1.048,0.021-2.495,0.785-2.969,1.662c-0.33,0.611,0.419,2.262,1.159,2.894c1.244,1.062,2.917,1.601,4.314,2.507
	c2.051,1.332,2.695,3.481,1.896,5.868C20.143,28.699,18.337,29.465,16.545,29.571z"/>
<path fill-rule="evenodd" clip-rule="evenodd" fill="#FFFFFF" d="M48.168,20.387c0-1.673-0.13-3.359,0.032-5.017
	c0.218-2.236,2.094-3.847,4.351-3.992c2.468-0.16,4.642,1.15,5.192,3.298c0.143,0.556-0.232,1.244-0.37,1.872
	c-0.486-0.375-1.16-0.652-1.422-1.146c-0.805-1.512-1.9-2.395-3.648-1.99c-1.648,0.382-2.256,1.611-2.253,3.217
	c0.005,2.473-0.012,4.946,0.006,7.419c0.011,1.532,0.336,2.892,2.155,3.22c1.681,0.303,2.932-0.205,3.755-1.809
	c0.251-0.488,0.941-0.75,1.431-1.116c0.082,0.696,0.415,1.482,0.202,2.07c-0.776,2.14-3.243,3.492-5.361,3.12
	c-2.27-0.398-3.949-2.206-4.112-4.601c-0.103-1.508-0.02-3.029-0.02-4.544C48.127,20.387,48.148,20.387,48.168,20.387z"/>
<path fill-rule="evenodd" clip-rule="evenodd" fill="#FFFFFF" d="M28.606,13.766c-0.464-0.135-0.695-0.177-0.907-0.267
	c-0.885-0.377-1.763-0.77-2.644-1.156c0.957-0.305,1.898-0.784,2.876-0.874c1.581-0.146,3.192-0.119,4.776,0.01
	c0.561,0.046,1.08,0.604,1.619,0.929c-0.493,0.352-0.942,0.823-1.49,1.021c-0.562,0.203-1.222,0.14-2.072,0.213
	c0,4.236,0,8.363,0,12.489c0,0.637,0.154,1.333-0.053,1.896c-0.204,0.554-0.776,0.972-1.187,1.45
	c-0.306-0.487-0.859-0.966-0.876-1.464c-0.088-2.627-0.042-5.26-0.042-7.891C28.606,17.992,28.606,15.863,28.606,13.766z"/>
<path fill-rule="evenodd" clip-rule="evenodd" fill="#FFFFFF" d="M81.918,13.742c-0.531-0.129-0.769-0.155-0.982-0.244
	c-0.901-0.375-1.794-0.769-2.69-1.156c0.966-0.305,1.917-0.79,2.903-0.875c1.665-0.143,3.359-0.123,5.024,0.025
	c0.523,0.046,0.992,0.719,1.485,1.105c-0.486,0.291-0.941,0.694-1.468,0.844c-0.592,0.168-1.248,0.108-2.264,0.173
	c0,3.054,0,6.05,0,9.047c0,1.678,0.095,3.364-0.053,5.029c-0.055,0.62-0.678,1.19-1.042,1.783c-0.303-0.576-0.849-1.144-0.869-1.729
	c-0.094-2.713-0.043-5.431-0.044-8.148C81.918,17.683,81.918,15.77,81.918,13.742z"/>
<path fill-rule="evenodd" clip-rule="evenodd" fill="#FFFFFF" d="M94.807,20.53c0.001,2.386,0.076,4.777-0.049,7.158
	c-0.033,0.624-0.684,1.215-1.052,1.821c-0.349-0.547-0.992-1.09-1-1.642c-0.074-5.011-0.063-10.024,0.009-15.035
	c0.006-0.477,0.594-0.944,0.912-1.417c0.393,0.492,1.101,0.97,1.125,1.479C94.869,15.435,94.805,17.983,94.807,20.53z"/>
<path fill-rule="evenodd" clip-rule="evenodd" fill="#FFFFFF" d="M41.543,20.448c0,2.477,0.061,4.957-0.048,7.429
	c-0.024,0.551-0.647,1.075-0.995,1.611c-0.335-0.542-0.954-1.078-0.962-1.624c-0.074-4.953-0.073-9.908,0.002-14.86
	c0.008-0.531,0.623-1.052,0.957-1.578c0.349,0.53,0.975,1.048,0.999,1.593C41.605,15.492,41.544,17.971,41.543,20.448z"/>
<path fill-rule="evenodd" clip-rule="evenodd" d="M16.253,48.681c2.805,0,5.367-0.108,7.916,0.025
	c3.935,0.207,6.748,3.091,6.788,6.98c0.067,6.479,0.06,12.958,0.004,19.438c-0.032,3.747-2.713,6.782-6.452,7.104
	c-2.683,0.231-5.401,0.046-8.257,0.046C16.253,71.058,16.253,59.993,16.253,48.681z"/>
<path fill-rule="evenodd" clip-rule="evenodd" d="M62.308,65.541c0,3.355,0.072,6.712-0.019,10.064
	c-0.112,4.132-2.851,6.831-6.949,7.021c-4.12,0.189-7.616-2.422-7.762-6.471c-0.257-7.1-0.259-14.22-0.014-21.32
	c0.144-4.167,3.55-6.681,7.938-6.524c3.91,0.139,6.712,3.03,6.805,7.165c0.075,3.353,0.015,6.71,0.015,10.064
	C62.317,65.541,62.312,65.541,62.308,65.541z"/>
</svg>
