<?xml version="1.0" encoding="utf-8"?>
<!-- Generator: Adobe Illustrator 18.0.0, SVG Export Plug-In . SVG Version: 6.00 Build 0)  -->
<!DOCTYPE svg PUBLIC "-//W3C//DTD SVG 1.1//EN" "http://www.w3.org/Graphics/SVG/1.1/DTD/svg11.dtd">
<svg version="1.1" id="Layer_1" xmlns="http://www.w3.org/2000/svg" xmlns:xlink="http://www.w3.org/1999/xlink" x="0px" y="0px"
	 viewBox="0 0 486.1 152" enable-background="new 0 0 486.1 152" xml:space="preserve">
<g>
	<path fill="#333333" d="M486.1,85.2c-1.7,0.1-2.4,0.1-3.7,0.1c-1.1,0-2.4,0-4-0.1c-0.6,2.1-1.6,5.2-3.2,9.7c-1.4,3.8-2.2,7-2.7,10
		h-0.2c-0.7-3.9-1.2-5.5-2.9-10c-1.5-3.8-2.7-7-3.6-9.7c-1.8,0.1-2.3,0.1-3.9,0.1c-1.4,0-3.1,0-3.9-0.1c0.3,1.8,0.8,3.3,6.3,15.1
		c2.8,6,3.8,8.7,4.8,10.6c-0.9,1.4-1.4,2.5-2.7,5.4c-1.1,2.4-1.9,4.2-3.1,6.5c1.9-0.1,2.7-0.1,4.5-0.1c1.3,0,2.8,0.1,3.7,0.1
		c1.3-3.7,2.5-6.7,5.9-15.4C482.8,93.5,485.5,87.5,486.1,85.2 M456,92.1c-0.1-1.3-0.2-2-0.2-3.1c0-1.1,0-2.2,0.2-3.7
		c-1.5,0.2-6.4,0-7.9,0.5l-0.2-0.1c0.5-2.1,0.3-4.2,0.5-6.4c-2,0.4-4.4,0.6-6.4,0.6c0.1,1.6,0.1,4.7,0.5,5.7l-0.1,0.1
		c-1.3-0.4-4.4-0.3-6-0.4c0.1,1,0.2,2.1,0.2,3.5c0,1.4-0.1,2-0.2,3.3c1.3-0.2,4-0.1,5.7-0.7l0.2,0.1c-0.5,3.1-0.9,9.1-0.9,12.2
		c0,6.4,2.4,9.3,8.3,9.3c2.1,0,4.3-0.3,6.1-0.7c-0.1-1.1-0.3-2.3-0.3-3.3c0-1.1,0-2,0.1-2.8c-0.9,0.2-1.9,0.2-3,0.2
		c-3.9,0-4.4-0.6-4.4-4.9c0-3-0.3-8.1-0.6-9.8l0.2-0.2C449.9,92,453.9,91.9,456,92.1 M426.8,97c-1.7-0.2-3.8-0.3-5.8-0.3
		c-2.2,0-4.4,0.1-6.4,0.4c0-4.5,2.2-6.5,6.4-6.5C425.3,90.6,426.8,92.3,426.8,97 M433.4,101.3v-2.2c0-10.4-4.4-15-12.2-15
		c-8.1,0-13.1,6-13.1,14.6c0,9.1,5.5,14.4,14.2,14.4c4.2,0,7.5-1,9.3-2.4c-0.4-1.6-0.5-4.6-0.5-5.5c-2.1,1.2-5.3,1.6-8.6,1.6
		c-4.6,0-7.3-1.9-7.7-5.8c0.8,0.2,3.1,0.3,5,0.3H433.4z M402,85.2c-1.3,0.1-2.4,0.1-3.8,0.1c-1.6,0-2.3-0.1-3.7-0.1
		c0.1,4.3,0.3,9.5,0.3,14.2c0,3.9-0.1,8.6-0.1,13.1c1.4-0.1,2.2-0.1,3.6-0.1c1.4,0,2.3,0.1,3.7,0.1c-0.1-4.6-0.2-9.2-0.2-13.1
		C401.7,94.6,401.9,89.9,402,85.2 M402.6,79.8c-0.1-1.4-0.1-2-0.1-3.3c0-1.3,0.1-2,0.1-3.2c-1.3,0.1-2.6,0.1-4.4,0.1
		c-1.8,0-3-0.1-4.4-0.1c0.1,1.1,0.1,1.9,0.1,3.2c0,1.3,0,2-0.1,3.3c1.5-0.1,2.4-0.1,4.4-0.1C400.1,79.7,401.3,79.8,402.6,79.8
		 M389.2,87.4c-1.8-2.2-4.4-3-8-3c-8.8,0-14.2,6.1-14.2,14.2c0,8.3,5.4,14.6,14,14.6c3.1,0,5.8-1,7.7-2.8c-0.4-1.9-0.6-4.6-0.6-6.2
		c-1.9,1.6-4,2.2-6.7,2.2c-4.9,0-7.7-3.1-7.7-7.8c0-4.6,2.8-7.6,7.7-7.6c3.2,0,4.9,0.6,6.9,2.5C388.5,91,388.8,88.8,389.2,87.4
		 M355.9,98.6c0,4.7-2.3,8.4-7,8.4c-4.7,0-7-3.7-7-8.4c0-5,2.4-7.9,7.1-7.9C353.6,90.7,355.9,93.6,355.9,98.6 M362.5,98.6
		c0-8.8-5.6-14.4-13.6-14.4c-8,0-13.6,5.6-13.6,14.3c0,8.9,5.4,15,13.6,15C357.1,113.5,362.5,107.4,362.5,98.6 M330.6,104.2
		c0-4.4-2.2-6.5-7.2-7.4c-5-1-5.4-1.3-5.4-3c0-1.9,1.5-2.9,5.3-2.9c2.7,0,4.9,0.3,6.6,1.3c0.1-2.2,0.3-4.5,0.7-5.8
		c-2-1.6-4.8-2.1-7.7-2.1c-7.4,0-11.5,3.6-11.5,9.1c0,4.1,2,6.6,7.4,7.5c4.8,0.8,5.3,1.3,5.3,3c0,2-1.1,2.9-4.6,2.9
		c-2.5,0-4.8-0.5-6.7-1.3c-0.1,1.9-0.2,4-0.5,5.8c1.9,1.3,4.8,1.9,7.5,1.9C326.5,113.2,330.6,109.9,330.6,104.2 M287.7,92.9
		c-0.2,1.3-0.3,3.5-0.3,5c0,2,0.1,3.6,0.2,4.1c-1,1.5-2.7,2.4-5.6,2.4c-4.2,0-6.5-2.5-6.5-6.7c0-4.1,1.8-6.5,6.3-6.5
		C284.6,91.2,286.4,91.8,287.7,92.9 M294.4,85.2c-1.3,0.1-1.9,0.1-2.7,0.1c-0.7,0-1.6-0.1-2.7-0.1c-0.3,0.9-0.5,1.8-0.7,3.2
		l-0.2,0.1c-1.3-2.7-3.5-4-7.3-4c-7.5,0-12.3,5-12.3,13.3c0,7.6,5.1,13.1,12.4,13.1c3.5,0,5.7-2.2,6.5-4.3l0.1,0.1
		c-0.1,0.5-0.2,1.3-0.2,2.2v1.3c0,4.7-2.1,6.7-7.1,6.7c-2.1,0-4.1-0.2-5.8-0.7c-0.1,2-0.2,3.8-0.5,6c2,1,4.4,1.4,6.6,1.4
		c7.9,0,13.5-4.1,13.5-14.2V97.9C294.1,93.3,294.2,89.5,294.4,85.2 M256.4,105.4c-1.1,1.5-2.5,2.2-5,2.2c-2.9,0-4.1-1-4.1-3.1
		c0-2.3,1.5-3.1,4.9-3.3c1.8-0.1,3.2-0.1,4.2-0.3V105.4z M263.6,112.5c-0.4-2.4-0.6-4.9-0.6-7.2v-10c0-7.7-3.6-11-11.6-11
		c-4.4,0-7.8,1.2-9.7,4c0.4,1.4,0.6,3.4,0.7,5.5l0.1,0.1c1.4-1.9,4.2-3,8.4-3c4.1,0,5.5,0.7,5.5,4.1v1.4H255
		c-9.6,0-14.3,2.3-14.3,8.8c0,5.3,3.5,8.3,9,8.3c4.2,0,6.2-1.8,7.3-5.2h0.2c0.1,1.4,0.3,3,0.6,4.4c1.3-0.1,2.3-0.1,3-0.1
		C261.8,112.4,262.8,112.5,263.6,112.5 M228.4,105.4c-1.1,1.5-2.5,2.2-5,2.2c-2.9,0-4.1-1-4.1-3.1c0-2.3,1.5-3.1,4.9-3.3
		c1.8-0.1,3.2-0.1,4.2-0.3V105.4z M235.7,112.5c-0.4-2.4-0.6-4.9-0.6-7.2v-10c0-7.7-3.6-11-11.6-11c-4.4,0-7.8,1.2-9.7,4
		c0.4,1.4,0.6,3.4,0.7,5.5l0.1,0.1c1.4-1.9,4.2-3,8.4-3c4.1,0,5.5,0.7,5.5,4.1v1.4h-1.3c-9.6,0-14.3,2.3-14.3,8.8
		c0,5.3,3.5,8.3,9,8.3c4.2,0,6.2-1.8,7.3-5.2h0.2c0.1,1.4,0.3,3,0.6,4.4c1.3-0.1,2.3-0.1,3-0.1C233.8,112.4,234.9,112.5,235.7,112.5
		 M210.3,85.2c-1.5,0.2-2.1,0.1-3.4,0.1c-1.4,0-1.9,0-3.7-0.1c-0.5,2.5-1.6,6-2.4,9.2c-0.9,3.6-1.8,7.6-2.2,10.8h-0.2
		c-0.5-3.4-1.7-7.3-3.1-11.7c-1.3-4-2.3-6.8-2.9-8.3c-0.6,0.1-1.8,0.1-2.8,0.1c-1,0-2.2-0.1-2.8-0.1c-0.7,1.6-1.5,4.2-2.9,8.3
		c-1.3,4.3-2.5,8.5-3.1,11.7h-0.1c-0.5-3.1-1.3-6.7-2.3-10.8c-0.8-3.3-1.9-6.6-2.4-9.2c-1.4,0.1-2.3,0.1-3.8,0.1
		c-1.4,0-1.8,0-3.5-0.1c0,1.1,1.1,5,4.5,15.4c1.7,5.2,2.9,8.9,3.7,12c1.1-0.1,2.1-0.1,3.2-0.1c1,0,2.5,0.1,3,0.1
		c0.4-1,2.7-6.2,4.1-10.7c1-3.2,1.9-6.3,2.2-9.3h0.2c0.3,3.1,1.2,6.1,2.2,9.2c1.5,4.6,3.7,9.9,4.1,10.8c0.5-0.1,2.1-0.1,3.2-0.1
		c1,0,3,0.1,3,0.1c0.6-2.9,1.8-6.3,3.6-11.9C209,90.3,210.3,86.1,210.3,85.2"/>
	<path fill="#333333" d="M75.6,1C34.4,1,1,34.4,1,75.6c0,41.2,33.4,74.6,74.6,74.6c41.2,0,74.6-33.4,74.6-74.6
		C150.3,34.4,116.8,1,75.6,1z M91.1,110.8l-0.1-23.6c-0.2-8.8-6.8-16.1-15.4-16.1c-8.6,0-15.2,7.3-15.2,16.1v23.6h-28l4.8-46.9
		l13.7-28.7l5.9,23.6l18.9-31.9l19.2,31.9l5.6-23.6l13.8,28.7l4.8,46.9H91.1z"/>
</g>
</svg>
