<?xml version="1.0" encoding="utf-8"?>
<!-- Generator: Adobe Illustrator 18.0.0, SVG Export Plug-In . SVG Version: 6.00 Build 0)  -->
<!DOCTYPE svg PUBLIC "-//W3C//DTD SVG 1.1//EN" "http://www.w3.org/Graphics/SVG/1.1/DTD/svg11.dtd">
<svg version="1.1" xmlns="http://www.w3.org/2000/svg" xmlns:xlink="http://www.w3.org/1999/xlink" x="0px" y="0px"
	 viewBox="0 0 456 86" enable-background="new 0 0 456 86" xml:space="preserve">
<g id="Layer_1">
	<g>
		<path fill="#333333" d="M261.6,44.6c-0.1,1.7-0.4,3.3-0.4,5c-0.2,15,9.6,30,23.4,35.9c1.2,0.5,2.7,0.6,3.9,0.4
			c5.9-1.1,11.5-3.3,16.4-6.8c13-9.2,18.5-22.1,18.2-37.8c0-1.7-0.2-3.4-0.4-5c-0.2-1.6-0.6-3.3-0.9-4.9c-0.6,0.4-0.7,0.8-0.8,1.2
			c-6.1,16.6-16.8,27.8-35.1,29.7C276.6,63.2,264.2,58.2,261.6,44.6z"/>
		<path fill="#333333" d="M287.5,26.1c-13.4-10.1-33-10-45.9,0c-0.9,0.7-1.6,1.8-1.9,2.9c-2,6.6-2.4,13.3-1.4,20.1
			c2.6,17.8,12.2,29.8,29.3,35.5c0.5,0.2,0.9,0.2,1.8,0.3c-0.9-1.2-1.6-2-2.2-2.8c-8.2-10.6-11.8-22.5-9.1-35.9
			C260.5,33.6,272.5,21.5,287.5,26.1z"/>
		<path fill="#333333" d="M343.8,32.6c-0.4-0.3-0.8-0.5-1.2-0.8c0-0.9-0.1-1.7,0-2.6c0.2-1.9-0.5-2.8-2.5-2.6c-2,0.2-4,0.2-6,0
			c-2.4-0.2-3.2,0.5-3.1,3c0.2,5.3,0.1,10.6,0.1,15.9c0,6.7,0,13.5,0,20.2c0,1.7,0.4,2.5,2.3,2.4c2.6-0.1,5.3-0.1,7.9,0
			c1.4,0,2-0.6,2-2c-0.1-2.2,0-4.3,0-6.5c0.1-5.4,0.1-10.7,0.5-16.1c0.3-4.4,3.5-7,7.6-7.1c3.9-0.1,5.9,1.8,6.8,6.5
			c0.2,0.9,0.2,1.9,0.2,2.9c0,6.7,0.1,13.3,0,19.9c0,1.7,0.4,2.5,2.3,2.4c2.6-0.1,5.3-0.1,7.9,0c1.7,0.1,2.4-0.5,2.4-2.3
			c-0.2-8.9-0.2-17.8-0.5-26.6c-0.3-7.6-4-12.1-11-13.2c-5.5-0.9-10.5,0.4-14.4,4.7C344.4,31.1,344.2,31.9,343.8,32.6z"/>
		<path fill="#333333" d="M148.1,57.9c-0.9,0.2-1.7,0.4-2.5,0.5c-6,1.2-8.6-0.7-8.9-6.8c-0.2-4.4,0-8.8-0.1-13.2
			c0-1.6,0.7-1.9,2-1.9c3.1,0.1,6.2,0,9.3,0c0-3.5,0-6.6,0-10c-3,0-5.9-0.1-8.7,0c-2.2,0.1-2.7-0.7-2.6-2.7c0.2-3.2,0-6.4,0-9.6
			c-4.4,0-8.5,0-12.8,0c0,4.1,0,8.1,0,12.4c-2.8,0-5.4,0-7.9,0c0,3.5,0,6.6,0,10c2.7,0,5.2,0,8,0c0,1.3,0,2.4,0,3.5
			c0.1,6.4,0,12.8,0.4,19.2c0.3,4.5,3.1,7.5,7.3,8.9c5,1.7,10,1.4,15.1,0.3c0.6-0.1,1.3-1.1,1.4-1.7
			C148.2,63.9,148.1,60.9,148.1,57.9z"/>
		<path fill="#333333" d="M456,58.2c-1,0.2-1.8,0.4-2.5,0.5c-5.9,1.1-8.9-1.3-8.9-7.3c0-4.2,0.1-8.3,0-12.5c0-1.9,0.5-2.8,2.6-2.7
			c2.3,0.1,4.6,0,6.9,0c1.4,0,2.1-0.5,2-1.9c-0.1-1.9-0.1-3.8,0-5.8c0.1-1.4-0.5-2-2-2c-2.5,0.1-4.9,0-7.4,0c-1.5,0-2.2-0.6-2.1-2.1
			c0.1-2.7-0.1-5.4,0-8.2c0-1.6-0.4-2.3-2.2-2.3c-2.6,0.1-5.3,0.1-7.9,0c-1.6,0-2.1,0.5-2.1,2.1c0.1,2.7,0,5.4,0,8.2
			c0,1.6-0.5,2.4-2.2,2.3c-1.3-0.1-2.7,0.1-4.1,0c-1.6-0.1-2.4,0.5-2.2,2.2c0.1,0.6,0,1.3,0,1.9c0,5.5,0,5.7,5.5,5.5
			c2.5-0.1,3.1,0.9,3,3.2c-0.1,6.1,0,12.2,0,18.2c0,4.9,2.3,8.2,6.8,10c5,2,10.1,1.6,15.3,0.6c0.6-0.1,1.4-1,1.4-1.5
			C456,64,456,61.2,456,58.2z"/>
		<path fill="#333333" d="M215.1,68.2c0-5.8-0.1-11.5,0-17.2c0.1-2.4,0.4-4.8,1-7.1c1.1-4.1,4.3-6.4,8.5-6.5
			c2.1-0.1,4.3,0.2,6.7,0.3c0.7-3.8,1.3-7.8,2-11.9c-7.5-1.1-13.8,0-18.3,6.5c0-1.9,0-3.8,0-5.7c-4.3,0-8.4,0-12.6,0
			c0,13.9,0,27.6,0,41.5C206.7,68.2,210.8,68.2,215.1,68.2z"/>
		<path fill="#333333" d="M0,26.4c3.6,0,7.2,0.2,10.7,0c2.1-0.1,3,0.5,3.6,2.6c2.3,7.7,4.8,15.4,7.8,23.2c2.4-8.5,4.8-17,7.2-25.7
			c4.4,0,8.7-0.1,13.1,0.1c0.5,0,1.2,1.1,1.4,1.8c2.1,7.1,4.1,14.3,6.2,21.4c0.2,0.8,0.5,1.6,1.3,2.4c1.1-3.5,2.1-7.1,3.2-10.6
			c1.3-4.4,2.6-8.9,3.9-13.3c0.4-1.3,0.9-1.8,2.3-1.7c3.6,0.1,7.1,0,11,0c-2,5.6-3.9,11-5.8,16.3c-2.8,7.8-5.6,15.6-8.3,23.5
			c-0.5,1.5-1.2,2.2-2.9,2.1c-2.8-0.1-5.6-0.1-8.4,0c-1.6,0.1-2.2-0.6-2.6-2c-2.2-7.7-4.6-15.3-6.9-22.9c-0.2-0.8-0.5-1.5-0.9-2.8
			c-0.4,1-0.7,1.5-0.8,2.1c-2.3,7.8-4.5,15.6-6.7,23.5c-0.5,1.7-1.2,2.3-3,2.2c-2.8-0.1-5.6-0.1-8.4,0c-1.7,0.1-2.3-0.6-2.8-2.1
			c-4.5-12.6-9-25.1-13.5-37.6C0.6,28,0.3,27.5,0,26.9C0,26.8,0,26.6,0,26.4z"/>
		<path fill="#333333" d="M282.1,0c1.9,0.4,3.8,0.8,5.8,1.1c9.4,1.7,17.3,6.2,24,12.9c1.6,1.6,2.4,3.4,2.5,5.5
			c0.8,14.5-6.6,30.7-21.4,37.8c-0.3,0.1-0.6,0.2-0.4,0.6c1.7-3.3,4-6.5,4.9-10c2.2-8.6-0.5-16.3-6.2-22.9
			c-6.5-7.4-14.9-11.5-24.5-12.7c-5.4-0.6-10.9-0.1-16.5-0.1c1-0.9,2.1-2,3.3-2.9c6.5-5,13.9-8,22.1-8.7c0.6,0,1.1-0.4,1.7-0.6
			C279,0,280.5,0,282.1,0z"/>
		<path fill="#333333" d="M261.6,44.6c2.5,13.6,15,18.6,24.2,17.6c18.2-1.9,29-13.1,35.1-29.7c0.1-0.4,0.3-0.7,0.8-1.2
			c0.3,1.6,0.7,3.2,0.9,4.9c0.2,1.7,0.4,3.3,0.4,5c0.2,15.7-5.3,28.6-18.2,37.8c-4.9,3.5-10.5,5.7-16.4,6.8
			c-1.2,0.2-2.7,0.1-3.9-0.4c-13.8-5.8-23.6-20.9-23.4-35.9C261.2,47.9,261.5,46.3,261.6,44.6z"/>
		<path fill="#333333" d="M287.5,26.1c-15.1-4.7-27,7.5-29.5,20.1c-2.6,13.5,0.9,25.3,9.1,35.9c0.6,0.8,1.3,1.6,2.2,2.8
			c-0.9-0.2-1.4-0.2-1.8-0.3c-17.1-5.7-26.8-17.6-29.3-35.5c-1-6.8-0.6-13.6,1.4-20.1c0.3-1.1,1.1-2.2,1.9-2.9
			C254.6,16.1,274.1,16.1,287.5,26.1z"/>
		<path fill="#333333" d="M343.8,32.6c0.4-0.7,0.6-1.5,1.1-2.1c3.9-4.3,8.9-5.6,14.4-4.7c7.1,1.2,10.8,5.6,11,13.2
			c0.3,8.9,0.3,17.8,0.5,26.6c0,1.8-0.6,2.4-2.4,2.3c-2.6-0.1-5.3-0.1-7.9,0c-1.9,0.1-2.3-0.7-2.3-2.4c0.1-6.6,0-13.3,0-19.9
			c0-1-0.1-1.9-0.2-2.9c-0.9-4.7-2.9-6.6-6.8-6.5c-4.2,0.1-7.3,2.8-7.6,7.1c-0.4,5.3-0.4,10.7-0.5,16.1c0,2.2-0.1,4.3,0,6.5
			c0,1.4-0.5,2-2,2c-2.6-0.1-5.3-0.1-7.9,0c-1.8,0.1-2.3-0.7-2.3-2.4c0.1-6.7,0-13.5,0-20.2c0-5.3,0.1-10.6-0.1-15.9
			c-0.1-2.5,0.8-3.2,3.1-3c2,0.2,4,0.2,6,0c2-0.2,2.7,0.7,2.5,2.6c-0.1,0.9,0,1.7,0,2.6C343.1,32.1,343.5,32.4,343.8,32.6z"/>
		<path fill="#333333" d="M148.1,57.9c0,3.1,0.1,6-0.1,9c0,0.6-0.8,1.6-1.4,1.7c-5,1.1-10.1,1.3-15.1-0.3c-4.2-1.4-7-4.4-7.3-8.9
			c-0.4-6.4-0.3-12.8-0.4-19.2c0-1.1,0-2.2,0-3.5c-2.8,0-5.3,0-8,0c0-3.4,0-6.5,0-10c2.6,0,5.1,0,7.9,0c0-4.3,0-8.2,0-12.4
			c4.3,0,8.4,0,12.8,0c0,3.3,0.1,6.5,0,9.6c-0.1,2.1,0.4,2.9,2.6,2.7c2.8-0.2,5.7,0,8.7,0c0,3.4,0,6.5,0,10c-3.1,0-6.2,0-9.3,0
			c-1.4,0-2.1,0.3-2,1.9c0.1,4.4-0.1,8.8,0.1,13.2c0.2,6.1,2.9,8.1,8.9,6.8C146.4,58.2,147.2,58.1,148.1,57.9z"/>
		<path fill="#333333" d="M456,58.2c0,3,0.1,5.8-0.1,8.6c0,0.6-0.9,1.4-1.4,1.5c-5.1,1-10.3,1.4-15.3-0.6c-4.4-1.8-6.8-5.2-6.8-10
			c0-6.1-0.1-12.2,0-18.2c0-2.3-0.5-3.3-3-3.2c-5.5,0.2-5.5,0-5.5-5.5c0-0.6,0.1-1.3,0-1.9c-0.2-1.7,0.6-2.3,2.2-2.2
			c1.3,0.1,2.7-0.1,4.1,0c1.7,0.1,2.3-0.7,2.2-2.3c0-2.7,0-5.4,0-8.2c0-1.6,0.6-2.1,2.1-2.1c2.6,0.1,5.3,0.1,7.9,0
			c1.7-0.1,2.2,0.7,2.2,2.3c-0.1,2.7,0,5.4,0,8.2c0,1.5,0.6,2.1,2.1,2.1c2.5-0.1,4.9,0,7.4,0c1.5,0,2,0.6,2,2
			c-0.1,1.9-0.1,3.8,0,5.8c0.1,1.5-0.6,2-2,1.9c-2.3-0.1-4.6,0.1-6.9,0c-2-0.1-2.6,0.7-2.6,2.7c0.1,4.2,0,8.3,0,12.5
			c0,6,2.9,8.4,8.9,7.3C454.2,58.6,454.9,58.4,456,58.2z"/>
		<path fill="#333333" d="M215.1,68.2c-4.3,0-8.4,0-12.6,0c0-13.9,0-27.6,0-41.5c4.2,0,8.3,0,12.6,0c0,2,0,3.9,0,5.7
			c4.6-6.5,10.9-7.6,18.3-6.5c-0.7,4.1-1.4,8-2,11.9c-2.5-0.1-4.6-0.3-6.7-0.3c-4.2,0.1-7.4,2.4-8.5,6.5c-0.6,2.3-0.9,4.7-1,7.1
			C215,56.7,215.1,62.3,215.1,68.2z"/>
		<path fill="#333333" d="M393.6,50.8c7.9,0,15.8,0,23.6,0c3.4,0,3.4,0,3.3-3.5c0-1.5-0.2-3-0.5-4.5c-1.3-7.7-5.1-13.5-12.7-16
			c-6.7-2.2-13.4-1.6-19.6,1.8c-6.1,3.3-8.9,8.9-9.6,15.7c-0.9,7.9,1.5,16.9,9.1,21.5c5.5,3.4,11.6,3.8,17.7,2.9
			c5.3-0.8,9.8-3.1,13.4-7.2c-0.2-0.4-0.2-0.5-0.2-0.5c-1.2-1-2.5-2-3.8-3c-3.2-2.6-3.2-2.6-6.6-0.2c-5.8,3.9-13.7,2.3-16.4-3.3
			C390,51.5,390.4,50.8,393.6,50.8z M390.5,41.3c0.6-3.9,4.8-6.9,9.4-6.9c4.2,0.1,7.6,2.9,8.2,6.9c0.3,1.6-0.1,2.3-1.7,2.2
			c-2.4-0.1-4.8,0-7.1,0c-2.3,0-4.6-0.1-6.9,0C390.8,43.5,390.3,42.8,390.5,41.3z"/>
		<path fill="#333333" d="M170,50.8c7.9,0,15.8,0,23.6,0c3.4,0,3.4,0,3.3-3.5c0-1.5-0.2-3-0.5-4.5c-1.3-7.7-5.1-13.5-12.7-16
			c-6.7-2.2-13.4-1.6-19.6,1.8c-6.1,3.3-8.9,8.9-9.6,15.7c-0.9,7.9,1.5,16.9,9.1,21.5c5.5,3.4,11.6,3.8,17.7,2.9
			c5.3-0.8,9.8-3.1,13.4-7.2c-0.2-0.4-0.2-0.5-0.2-0.5c-1.2-1-2.5-2-3.8-3c-3.2-2.6-3.2-2.6-6.6-0.2c-5.8,3.9-13.7,2.3-16.4-3.3
			C166.3,51.5,166.7,50.8,170,50.8z M166.9,41.3c0.6-3.9,4.8-6.9,9.4-6.9c4.2,0.1,7.6,2.9,8.2,6.9c0.3,1.6-0.1,2.3-1.7,2.2
			c-2.4-0.1-4.8,0-7.1,0c-2.3,0-4.6-0.1-6.9,0C167.1,43.5,166.6,42.8,166.9,41.3z"/>
		<path fill="#333333" d="M112.4,46.3c0-1.9,0-3.9-0.2-5.8c-1.3-9.1-5.2-13.5-13.7-14.8c-4.7-0.7-9.6-0.7-14.2,0.9
			c-3.4,1.1-6.6,2.7-9.2,5.5c2.2,2.1,4.4,4.1,6.6,6.2c0.5-0.4,1.1-0.9,1.8-1.4c3.6-2.5,7.5-3.4,11.8-2.4c3.6,0.8,5.4,3.4,5.1,7.3
			c-2.4,0-4.7-0.1-7,0c-5.2,0.3-10.3,0.9-14.9,3.6c-4.4,2.6-6.3,6.7-6,11.7c0.3,5,2.8,8.6,7.4,10.6c6.8,3.1,14.6,1.6,20-3.8
			c0.1-0.1,0.4-0.1,0.7-0.2c0.1,1.4,0.1,2.8,0.2,4.2c4,0,7.7,0,11.7,0C112.4,60.7,112.4,53.5,112.4,46.3z M100.5,53.6
			c-0.9,5.8-9.3,9.2-14,5.7c-2.9-2.2-2.5-6.4,1.2-7.9c2.9-1.2,6.2-1.5,9.4-2.3C100.8,49.6,101.1,49.9,100.5,53.6z"/>
	</g>
</g>
<g id="Layer_2">
</g>
</svg>
