<?xml version="1.0" encoding="utf-8"?>
<!-- Generator: Adobe Illustrator 18.0.0, SVG Export Plug-In . SVG Version: 6.00 Build 0)  -->
<!DOCTYPE svg PUBLIC "-//W3C//DTD SVG 1.1//EN" "http://www.w3.org/Graphics/SVG/1.1/DTD/svg11.dtd">
<svg version="1.1" id="Layer_1" xmlns="http://www.w3.org/2000/svg" xmlns:xlink="http://www.w3.org/1999/xlink" x="0px" y="0px"
	 viewBox="0 0 1280 800" enable-background="new 0 0 1280 800" xml:space="preserve">
<path fill="none" stroke="#FFFFFF" stroke-width="1.417" stroke-linecap="round" stroke-linejoin="round" d="M86.4,426.4"/>
<path fill="none" stroke="#004260" stroke-width="2" stroke-linecap="round" stroke-linejoin="round" d="M86.4,429.1V597
	c0,4.5,3.6,8.5,8.1,8.8L276,622.8c4.5,0.4,5.1,2.9,1.5,5.5l-75.4,54.3"/>
<path fill="none" stroke="#004260" stroke-width="2" stroke-linecap="round" stroke-linejoin="round" d="M201,683.2"/>
<path fill="#FFFFFF" stroke="#004260" stroke-width="2" stroke-miterlimit="10" d="M201.4,676.2l1.3,0.2l-1.3,6.6l6.7,0.9l-0.2,1.3
	l-8.1-1"/>
<path fill="none" stroke="#FFFFFF" stroke-width="1.417" stroke-linecap="round" stroke-linejoin="round" d="M890.6,471.2"/>
<path fill="none" stroke="#004260" stroke-width="2" stroke-linecap="round" stroke-linejoin="round" d="M887.9,471.2H731.4
	c-4.5,0-8.1,3.6-8.1,8.1v10.8"/>
<path fill="none" stroke="#004260" stroke-width="2" stroke-linecap="round" stroke-linejoin="round" d="M723.3,491.5"/>
<path fill="#FFFFFF" stroke="#004260" stroke-width="2" stroke-miterlimit="10" d="M717.8,487l1-0.9l4.5,4.8l4.6-4.8l1,0.9l-5.5,6"
	/>
<path fill="none" stroke="#004260" stroke-width="2" stroke-linecap="round" stroke-linejoin="round" d="M671.2,551"/>
<path fill="none" stroke="#004260" stroke-width="2" stroke-linecap="round" stroke-linejoin="round" d="M671.2,553.8V623"/>
<path fill="none" stroke="#FFFFFF" stroke-width="1.417" stroke-linecap="round" stroke-linejoin="round" d="M671.2,624.3"/>
<circle fill="#FFFFFF" stroke="#004260" stroke-width="2" stroke-miterlimit="10" cx="671.2" cy="551.2" r="3"/>
<path fill="none" stroke="#004260" stroke-width="2" stroke-linecap="round" stroke-linejoin="round" d="M1006.3,633.7"/>
<path fill="none" stroke="#004260" stroke-width="2" stroke-linecap="round" stroke-linejoin="round" d="M1006.3,631v-69.2"/>
<path fill="none" stroke="#004260" stroke-width="2" stroke-linecap="round" stroke-linejoin="round" d="M1006.3,560.4"/>
<circle fill="#FFFFFF" stroke="#004260" stroke-width="2" stroke-miterlimit="10" cx="1006.3" cy="633.6" r="3"/>
<path fill="none" stroke="#004260" stroke-width="2" stroke-linecap="round" stroke-linejoin="round" d="M313.8,505.3"/>
<path fill="none" stroke="#004260" stroke-width="2" stroke-linecap="round" stroke-linejoin="round" d="M313.8,508v27.4
	c0,4.5,3.5,8.8,7.9,9.7l56.9,11.9c4.4,1,4.8,3.6,1.1,6l-71.9,46"/>
<path fill="none" stroke="#004260" stroke-width="2" stroke-linecap="round" stroke-linejoin="round" d="M306.7,609.7"/>
<path fill="#FFFFFF" stroke="#004260" stroke-width="2" stroke-miterlimit="10" d="M307.4,602.6l1.3,0.3l-1.7,6.5l6.6,1.1l-0.3,1.3
	l-7.9-1.4"/>
<path fill="none" stroke="#004260" stroke-width="2" stroke-linecap="round" stroke-linejoin="round" d="M1111.6,692.5"/>
<path fill="none" stroke="#004260" stroke-width="2" stroke-linecap="round" stroke-linejoin="round" d="M1108.9,692.4l-159-1.8
	c-4.5-0.1-10.9-2.4-14.3-5.2l-51.3-42.5"/>
<path fill="none" stroke="#004260" stroke-width="2" stroke-linecap="round" stroke-linejoin="round" d="M883.4,642.2"/>
<path fill="#FFFFFF" stroke="#004260" stroke-width="2" stroke-miterlimit="10" d="M890.3,640.7l0.1,1.3l-6.7,0.4l0.9,6.6l-1.3,0.2
	l-1-8"/>
<path fill="none" stroke="#004260" stroke-width="2" stroke-linecap="round" stroke-linejoin="round" d="M335.9,610.4v-15.7
	c0-4.5,3.6-8.1,8.1-8.1h122.1"/>
<path fill="#FFFFFF" stroke="#004260" stroke-width="2" stroke-miterlimit="10" d="M461.6,592.2l-1-1l4.8-4.6l-4.8-4.6l1-1l5.9,5.5"
	/>
<path fill="none" stroke="#004260" stroke-width="2" stroke-linecap="round" stroke-linejoin="round" d="M750.5,416"/>
<path fill="none" stroke="#004260" stroke-width="2" stroke-linecap="round" stroke-linejoin="round" d="M747.9,416h-68.6
	c-4.5,0-8.1,3.6-8.1,8.1v10.8"/>
<path fill="none" stroke="#004260" stroke-width="2" stroke-linecap="round" stroke-linejoin="round" d="M671.2,436.3"/>
<path fill="#FFFFFF" stroke="#004260" stroke-width="2" stroke-miterlimit="10" d="M665.7,431.8l1-1l4.6,4.9l4.5-4.9l1,1l-5.5,5.9"
	/>
<circle fill="#004260" cx="87.6" cy="414.2" r="8.5"/>
<circle fill="none" stroke="#FFFFFF" stroke-width="5.669" stroke-miterlimit="10" cx="87.6" cy="414.2" r="8.5"/>
<circle fill="none" stroke="#004260" stroke-width="2.835" stroke-miterlimit="10" cx="87.6" cy="414.2" r="8.5"/>
<circle fill="#004260" stroke="#004260" stroke-width="2" stroke-miterlimit="10" cx="313.8" cy="493" r="8.5"/>
<circle fill="none" stroke="#FFFFFF" stroke-width="5.669" stroke-miterlimit="10" cx="313.8" cy="493" r="8.5"/>
<circle fill="none" stroke="#004260" stroke-width="2.835" stroke-miterlimit="10" cx="313.8" cy="493" r="8.5"/>
<circle fill="#004260" cx="671.2" cy="632.8" r="8.5"/>
<circle fill="none" stroke="#FFFFFF" stroke-width="5.669" stroke-miterlimit="10" cx="671.2" cy="632.8" r="8.5"/>
<circle fill="none" stroke="#004260" stroke-width="2.835" stroke-miterlimit="10" cx="671.2" cy="632.8" r="8.5"/>
<circle fill="#004260" cx="1006.3" cy="557.9" r="8.5"/>
<circle fill="none" stroke="#FFFFFF" stroke-width="5.669" stroke-miterlimit="10" cx="1006.3" cy="557.9" r="8.5"/>
<circle fill="none" stroke="#004260" stroke-width="2.835" stroke-miterlimit="10" cx="1006.3" cy="557.9" r="8.5"/>
<circle fill="#004260" cx="890.6" cy="471.2" r="8.5"/>
<circle fill="none" stroke="#FFFFFF" stroke-width="5.669" stroke-miterlimit="10" cx="890.6" cy="471.2" r="8.5"/>
<circle fill="none" stroke="#004260" stroke-width="2.835" stroke-miterlimit="10" cx="890.6" cy="471.2" r="8.5"/>
<circle fill="#004260" cx="750.5" cy="416" r="8.5"/>
<circle fill="none" stroke="#FFFFFF" stroke-width="5.669" stroke-miterlimit="10" cx="750.5" cy="416" r="8.5"/>
<circle fill="none" stroke="#004260" stroke-width="2.835" stroke-miterlimit="10" cx="750.5" cy="416" r="8.5"/>
<circle fill="#004260" cx="1111.6" cy="692.5" r="8.5"/>
<circle fill="none" stroke="#FFFFFF" stroke-width="5.669" stroke-miterlimit="10" cx="1111.6" cy="692.5" r="8.5"/>
<circle fill="none" stroke="#004260" stroke-width="2.835" stroke-miterlimit="10" cx="1111.6" cy="692.5" r="8.5"/>
</svg>
