<svg xmlns="http://www.w3.org/2000/svg" xmlns:xlink="http://www.w3.org/1999/xlink" viewBox="0 0 488 530"><defs><path id="a" d="M0 0h488v530H0z"/></defs><clipPath id="b"><use xlink:href="#a" overflow="visible"/></clipPath><path clip-path="url(#b)" fill="#B4C7D7" d="M313.8 261c0 38.7-31.4 70.1-70.2 70.1-38.8 0-70.2-31.4-70.2-70.1s70.2-118.3 70.2-118.3 70.2 79.6 70.2 118.3"/><path fill="none" stroke="#D1D3D4" stroke-width=".23" stroke-linecap="round" stroke-linejoin="round" stroke-miterlimit="10" d="M159.4 362.2l169.2-236.6M105.9 290l276.2-92.2M105.1 200.2l277.8 87.4M157.4 127.1l173.2 233.7M242.7 98.6l2.6 290.7"/><path fill="none" stroke="#F15A22" stroke-width=".23" stroke-linecap="round" stroke-linejoin="round" stroke-miterlimit="10" d="M328.6 125.6L159.4 362.2"/><path fill="none" stroke="#D1D3D4" stroke-width=".23" stroke-linecap="round" stroke-linejoin="round" stroke-miterlimit="10" d="M382.1 197.8L105.9 290"/><path fill="none" stroke="#F15A22" stroke-width=".23" stroke-linecap="round" stroke-linejoin="round" stroke-miterlimit="10" d="M382.9 287.6l-277.8-87.4"/><path fill="none" stroke="#D1D3D4" stroke-width=".23" stroke-miterlimit="10" d="M330.6 360.8L157.4 127.1"/><path fill="none" stroke="#F15A22" stroke-width=".23" stroke-linecap="round" stroke-linejoin="round" stroke-miterlimit="10" d="M245.3 389.3l-2.6-290.7"/><defs><path id="c" d="M0 0h488v530H0z"/></defs><clipPath id="d"><use xlink:href="#c" overflow="visible"/></clipPath><path clip-path="url(#d)" fill="none" stroke="#D1D3D4" stroke-width=".23" stroke-linecap="round" stroke-linejoin="round" stroke-miterlimit="10" d="M382.1 197.8c-92.9 25.3-167.2 80.1-222.7 164.4"/><path clip-path="url(#d)" fill="none" stroke="#F15A22" stroke-width=".23" stroke-linecap="round" stroke-linejoin="round" stroke-miterlimit="10" d="M382.9 287.6c-90.1-34-182.5-33.2-277 2.4"/><path clip-path="url(#d)" fill="none" stroke="#71AFAF" stroke-width=".23" stroke-linecap="round" stroke-linejoin="round" stroke-miterlimit="10" d="M330.6 360.8c-52.9-80.4-128-133.9-225.5-160.5"/><path clip-path="url(#d)" fill="none" stroke="#F15A22" stroke-width=".23" stroke-linecap="round" stroke-linejoin="round" stroke-miterlimit="10" d="M245.3 389.3c4.6-96-24.7-183.4-87.9-262.2"/><path clip-path="url(#d)" fill="none" stroke="#D1D3D4" stroke-width=".23" stroke-linecap="round" stroke-linejoin="round" stroke-miterlimit="10" d="M159.4 362.2c60.3-75 88.1-162.9 83.3-263.6M105.9 290c92.9-25.3 167.2-80.1 222.7-164.4M105.1 200.2c90.1 34 182.5 33.2 277-2.4"/><path clip-path="url(#d)" fill="none" stroke="#71AFAF" stroke-width=".23" stroke-miterlimit="10" d="M157.4 127.1c52.9 80.4 128 133.9 225.5 160.5"/><path clip-path="url(#d)" fill="none" stroke="#F15A22" stroke-width=".23" stroke-linecap="round" stroke-linejoin="round" stroke-miterlimit="10" d="M242.7 98.6c-4.6 96 24.7 183.4 87.9 262.2"/><path clip-path="url(#d)" fill="none" stroke="#71AFAF" stroke-width=".23" stroke-linecap="round" stroke-linejoin="round" stroke-miterlimit="10" d="M328.6 125.6c-60.3 75-88.1 162.9-83.3 263.6M159.4 362.2c31-45.9 62.9-74.3 95.7-85.2 32.8-10.9 75.4-7.4 127.8 10.6"/><path clip-path="url(#d)" fill="none" stroke="#D1D3D4" stroke-width=".23" stroke-linecap="round" stroke-linejoin="round" stroke-miterlimit="10" d="M105.9 290c52.1-18.9 94.7-23.2 127.6-12.8 33 10.4 65.3 38.2 97.1 83.6"/><path clip-path="url(#d)" fill="none" stroke="#71AFAF" stroke-width=".23" stroke-linecap="round" stroke-linejoin="round" stroke-miterlimit="10" d="M105.1 200.2c53.3 15.2 90.2 36.7 110.8 64.5 20.6 27.7 30.3 69.3 29.4 124.6"/><path clip-path="url(#d)" fill="none" stroke="#71AFAF" stroke-width=".23" stroke-miterlimit="10" d="M157.4 127.1c34.2 43.6 51.4 82.6 51.7 117.1.3 34.5-16.2 73.8-49.6 118"/><path clip-path="url(#d)" fill="none" stroke="#F15A22" stroke-width=".23" stroke-linecap="round" stroke-linejoin="round" stroke-miterlimit="10" d="M242.7 98.6c1.9 55.3-7.1 97-27.2 125.1-20.1 28.1-56.6 50.2-109.7 66.4"/><path clip-path="url(#d)" fill="none" stroke="#71AFAF" stroke-width=".23" stroke-linecap="round" stroke-linejoin="round" stroke-miterlimit="10" d="M328.6 125.6c-31 45.9-62.9 74.3-95.7 85.2-32.8 10.9-75.4 7.4-127.8-10.6"/><path clip-path="url(#d)" fill="none" stroke="#F15A22" stroke-width=".23" stroke-linecap="round" stroke-linejoin="round" stroke-miterlimit="10" d="M382.1 197.8c-52.1 18.9-94.7 23.2-127.6 12.8-33-10.4-65.3-38.2-97.1-83.6"/><path clip-path="url(#d)" fill="none" stroke="#71AFAF" stroke-width=".23" stroke-linecap="round" stroke-linejoin="round" stroke-miterlimit="10" d="M382.9 287.6c-53.3-15.2-90.2-36.7-110.8-64.5-20.6-27.7-30.3-69.3-29.4-124.6"/><path clip-path="url(#d)" fill="none" stroke="#D1D3D4" stroke-width=".23" stroke-linecap="round" stroke-linejoin="round" stroke-miterlimit="10" d="M330.6 360.8c-34.2-43.6-51.4-82.6-51.7-117.1-.3-34.5 16.2-73.8 49.6-118"/><path clip-path="url(#d)" fill="none" stroke="#D1D3D4" stroke-width=".23" stroke-miterlimit="10" d="M105.1 200.2c26.4 6.4 46.6-.5 56.8-14.7 10.2-14.2 10.2-35.6-4.5-58.4"/><path clip-path="url(#d)" fill="none" stroke="#F15A22" stroke-width=".23" stroke-linecap="round" stroke-linejoin="round" stroke-miterlimit="10" d="M382.9 287.6c-48.6-12.6-70.7-41.9-78.1-64-7.4-22.1-7.4-58.8 23.8-98"/><path clip-path="url(#d)" fill="none" stroke="#F15A22" stroke-width=".23" stroke-linecap="round" stroke-linejoin="round" stroke-miterlimit="10" d="M328.6 125.6c-27 42.2-61.8 54.2-85.1 54.4-23.3.2-58.4-11.1-86.1-52.9"/><path clip-path="url(#d)" fill="none" stroke="#D1D3D4" stroke-width=".23" stroke-linecap="round" stroke-linejoin="round" stroke-miterlimit="10" d="M157.4 127.1c31.9 38.7 32.5 75.4 25.5 97.6-7 22.2-28.6 51.9-77 65.3"/><path clip-path="url(#d)" fill="none" stroke="#71AFAF" stroke-width=".23" stroke-linecap="round" stroke-linejoin="round" stroke-miterlimit="10" d="M105.9 290c46.7-18.3 81.9-7.6 100.9 6 19 13.5 40.7 43.2 38.5 93.3"/><path clip-path="url(#d)" fill="none" stroke="#F15A22" stroke-width=".23" stroke-linecap="round" stroke-linejoin="round" stroke-miterlimit="10" d="M245.3 389.3c-3-50 18.1-80.1 36.9-93.9 18.7-13.8 53.8-25.2 100.8-7.7"/><path clip-path="url(#d)" fill="none" stroke="#F15A22" stroke-width=".23" stroke-linecap="round" stroke-linejoin="round" stroke-miterlimit="10" d="M159.4 362.2c27-42.2 61.8-54.2 85.1-54.4 23.3-.2 58.4 11.1 86.1 52.9"/><path clip-path="url(#d)" fill="none" stroke="#D1D3D4" stroke-width=".23" stroke-linecap="round" stroke-linejoin="round" stroke-miterlimit="10" d="M105.1 200.2c48.6 12.6 70.7 41.9 78.1 64 7.4 22.1 7.4 58.8-23.8 98"/><path clip-path="url(#d)" fill="none" stroke="#D1D3D4" stroke-width=".23" stroke-linecap="round" stroke-linejoin="round" stroke-miterlimit="10" d="M242.7 98.6c3 50-18.1 80.1-36.9 93.9-18.7 13.8-53.8 25.2-100.8 7.7"/><path clip-path="url(#d)" fill="none" stroke="#71AFAF" stroke-width=".23" stroke-linecap="round" stroke-linejoin="round" stroke-miterlimit="10" d="M382.1 197.8c-46.7 18.3-81.9 7.6-100.9-6-19-13.5-40.7-43.2-38.5-93.3"/><path clip-path="url(#d)" fill="none" stroke="#D1D3D4" stroke-width=".23" stroke-linecap="round" stroke-linejoin="round" stroke-miterlimit="10" d="M330.6 360.8c-31.9-38.7-32.5-75.4-25.5-97.6 7-22.2 28.6-51.9 77-65.3"/><path clip-path="url(#d)" fill="none" stroke="#F15A22" stroke-width=".23" stroke-miterlimit="10" d="M328.6 125.6c-14.3 23-13.9 44.4-3.5 58.4s30.8 20.7 57 13.8"/><path clip-path="url(#d)" fill="none" stroke="#D1D3D4" stroke-width=".23" stroke-miterlimit="10" d="M242.7 98.6c2 27 14.9 44.1 31.6 49.3 16.7 5.2 37.1-1.3 54.3-22.3"/><path clip-path="url(#d)" fill="none" stroke="#71AFAF" stroke-width=".23" stroke-miterlimit="10" d="M157.4 127.1c17.5 20.7 38.1 26.9 54.6 21.4 16.6-5.5 29.2-22.8 30.7-49.9M105.1 200.2c26.4 6.4 46.6-.5 56.8-14.7 10.2-14.2 10.2-35.6-4.5-58.4"/><path clip-path="url(#d)" fill="none" stroke="#F15A22" stroke-width=".23" stroke-miterlimit="10" d="M159.4 362.2c14.3-23 13.9-44.4 3.5-58.4s-30.8-20.7-57-13.8M382.9 287.6c-26.4-6.4-46.6.5-56.8 14.7s-10.2 35.6 4.5 58.4"/><path clip-path="url(#d)" fill="none" stroke="#D1D3D4" stroke-width=".23" stroke-linecap="round" stroke-linejoin="round" stroke-miterlimit="10" d="M245.3 389.3c-1.9-55.3 7.1-97 27.2-125.1 20.1-28.1 56.6-50.2 109.7-66.4"/><path clip-path="url(#d)" fill="none" stroke="#F15A22" stroke-width=".23" stroke-miterlimit="10" d="M245.3 389.3c-2-27-14.9-44.1-31.6-49.3-16.7-5.2-37.1 1.3-54.3 22.3"/><path clip-path="url(#d)" fill="none" stroke="#D1D3D4" stroke-width=".23" stroke-miterlimit="10" d="M330.6 360.8c-17.5-20.7-38.1-26.9-54.6-21.4-16.6 5.5-29.2 22.8-30.7 49.9"/><path clip-path="url(#d)" fill="none" stroke="#71AFAF" stroke-width=".23" stroke-miterlimit="10" d="M105.9 290c25.1-10.2 37.4-27.8 37.3-45.2-.2-17.4-12.7-34.8-38-44.6M382.1 197.8C357 208 344.7 225.6 344.8 243c.2 17.4 12.7 34.8 38 44.6"/><text transform="matrix(1.0022 0 0 1 69.22 479.746)"><tspan x="0" y="0" font-family="'AvenirNext-Regular'" font-size="9.769">S</tspan><tspan x="5.5" y="0" font-family="'AvenirNext-Regular'" font-size="9.769">YNE</tspan><tspan x="25.2" y="0" font-family="'AvenirNext-Regular'" font-size="9.769">R</tspan><tspan x="31.2" y="0" font-family="'AvenirNext-Regular'" font-size="9.769">GI</tspan><tspan x="41.8" y="0" font-family="'AvenirNext-Regular'" font-size="9.769">E</tspan></text><text transform="matrix(1.0022 0 0 1 69.22 500.037)"><tspan x="0" y="0" font-family="'AvenirNext-Regular'" font-size="9.769">B</tspan><tspan x="6.4" y="0" font-family="'AvenirNext-Regular'" font-size="9.769">E</tspan><tspan x="12.4" y="0" font-family="'AvenirNext-Regular'" font-size="9.769">L</tspan><tspan x="17.6" y="0" font-family="'AvenirNext-Regular'" font-size="9.769">A</tspan><tspan x="24.6" y="0" font-family="'AvenirNext-Regular'" font-size="9.769">NGEN </tspan><tspan x="56.3" y="0" font-family="'AvenirNext-Regular'" font-size="9.769">C</tspan><tspan x="63.4" y="0" font-family="'AvenirNext-Regular'" font-size="9.769">ONFL</tspan><tspan x="90.4" y="0" font-family="'AvenirNext-Regular'" font-size="9.769">I</tspan><tspan x="93.2" y="0" font-family="'AvenirNext-Regular'" font-size="9.769">C</tspan><tspan x="100.3" y="0" font-family="'AvenirNext-Regular'" font-size="9.769">T</tspan></text><text transform="matrix(1.0022 0 0 1 69.22 520.327)"><tspan x="0" y="0" font-family="'AvenirNext-Regular'" font-size="9.769">NEUT</tspan><tspan x="26.5" y="0" font-family="'AvenirNext-Regular'" font-size="9.769">R</tspan><tspan x="32.6" y="0" font-family="'AvenirNext-Regular'" font-size="9.769">A</tspan><tspan x="39.6" y="0" font-family="'AvenirNext-Regular'" font-size="9.769">A</tspan><tspan x="46.6" y="0" font-family="'AvenirNext-Regular'" font-size="9.769">L</tspan></text><defs><path id="e" d="M69.2 69.5h349.6v348.8H69.2z"/></defs><clipPath id="f"><use xlink:href="#e" overflow="visible"/></clipPath><path clip-path="url(#f)" fill="#4E718D" d="M418.8 242.4c.3 37.8-10.5 72-32.5 102.8l-23.7-16.9c18.3-25.6 27.3-54.2 27.1-85.7l29.1-.2z"/><path clip-path="url(#f)" fill="#3E6783" d="M418.8 242.4l-29.1.3c-.3-31.5-9.8-59.9-28.6-85.2l23.4-17.3c22.5 30.4 34 64.5 34.3 102.2"/><path clip-path="url(#f)" fill="#5D7D98" d="M362.6 328.3l23.7 16.9c-22 30.8-50.9 52.1-86.8 64.1l-9.2-27.6c29.8-9.9 54-27.7 72.3-53.4"/><path clip-path="url(#f)" fill="#1A5371" d="M384.5 140.2l-23.4 17.3c-18.8-25.3-43.2-42.7-73.3-52.2l8.8-27.7c36.1 11.4 65.4 32.2 87.9 62.6"/><path clip-path="url(#f)" fill="#6D8AA3" d="M290.2 381.8l9.2 27.6c-17.5 5.8-35.5 8.8-53.9 9-18.5.2-36.5-2.5-54.1-8.1l8.8-27.7c14.7 4.6 29.7 6.9 45.1 6.7 15.3-.2 30.3-2.7 44.9-7.5"/><path clip-path="url(#f)" fill="#004261" d="M296.6 77.6l-8.8 27.7c-14.7-4.6-29.7-6.9-45.1-6.7-15.4.1-30.4 2.6-44.9 7.5l-9.2-27.6c17.5-5.8 35.5-8.8 53.9-9 18.4-.1 36.5 2.6 54.1 8.1"/><path clip-path="url(#f)" fill="#7D97AF" d="M200.2 382.5l-8.8 27.7c-36.1-11.4-65.4-32.2-87.9-62.6l23.4-17.3c18.8 25.4 43.2 42.8 73.3 52.2"/><path clip-path="url(#f)" fill="#B4C7D7" d="M188.6 78.5l9.2 27.6c-29.9 10-54 27.8-72.4 53.4l-23.7-16.9c22-30.7 50.9-52.1 86.9-64.1"/><path clip-path="url(#f)" fill="#8EA6BB" d="M126.9 330.4l-23.4 17.3c-22.5-30.4-34-64.5-34.3-102.3l29.1-.3c.3 31.6 9.8 60 28.6 85.3"/><path clip-path="url(#f)" fill="#A0B6C9" d="M101.7 142.7l23.7 16.9c-18.3 25.6-27.3 54.2-27.1 85.7l-29.1.3c-.3-37.9 10.5-72.2 32.5-102.9"/><defs><path id="g" d="M0 0h488v530H0z"/></defs><clipPath id="h"><use xlink:href="#g" overflow="visible"/></clipPath><path clip-path="url(#h)" fill="none" stroke="#004261" stroke-width=".814" stroke-miterlimit="10" d="M197.8 106.1c14.6-4.9 29.6-7.4 44.9-7.5M242.7 98.6c15.4-.1 30.4 2.1 45.1 6.7M296.6 77.6c-17.6-5.5-35.6-8.2-54.1-8.1M242.5 69.5c-18.5.2-36.4 3.2-53.9 9M125.4 159.5c18.3-25.6 42.4-43.4 72.4-53.4"/><path fill="none" stroke="#004261" stroke-width=".814" stroke-miterlimit="10" d="M197.8 106.1l-9.2-27.6"/><defs><path id="i" d="M0 0h488v530H0z"/></defs><clipPath id="j"><use xlink:href="#i" overflow="visible"/></clipPath><path clip-path="url(#j)" fill="none" stroke="#004261" stroke-width=".814" stroke-miterlimit="10" d="M188.6 78.5c-35.9 12-64.9 33.4-86.8 64.1M98.3 245.2c-.3-31.5 8.8-60 27.1-85.7"/><path fill="none" stroke="#004261" stroke-width=".814" stroke-miterlimit="10" d="M125.4 159.5l-23.7-16.8"/><defs><path id="k" d="M0 0h488v530H0z"/></defs><clipPath id="l"><use xlink:href="#k" overflow="visible"/></clipPath><path clip-path="url(#l)" fill="none" stroke="#004261" stroke-width=".814" stroke-miterlimit="10" d="M101.7 142.7c-22 30.7-32.8 65-32.5 102.8M69.2 245.4c.3 37.8 11.7 71.9 34.3 102.2M126.9 330.4c-18.8-25.3-28.3-53.7-28.6-85.2"/><path fill="none" stroke="#004261" stroke-width=".814" stroke-miterlimit="10" d="M98.3 245.2l-29.1.2"/><defs><path id="m" d="M0 0h488v530H0z"/></defs><clipPath id="n"><use xlink:href="#m" overflow="visible"/></clipPath><path clip-path="url(#n)" fill="none" stroke="#004261" stroke-width=".814" stroke-miterlimit="10" d="M200.2 382.5c-30.1-9.5-54.5-26.9-73.3-52.2"/><path fill="none" stroke="#004261" stroke-width=".814" stroke-miterlimit="10" d="M126.9 330.4l-23.4 17.3"/><defs><path id="o" d="M0 0h488v530H0z"/></defs><clipPath id="p"><use xlink:href="#o" overflow="visible"/></clipPath><path clip-path="url(#p)" fill="none" stroke="#004261" stroke-width=".814" stroke-miterlimit="10" d="M103.5 347.7c22.5 30.4 51.8 51.2 87.9 62.6M290.2 381.8c-14.6 4.9-29.6 7.4-44.9 7.5-15.4.1-30.4-2.1-45.1-6.7"/><path fill="none" stroke="#004261" stroke-width=".814" stroke-miterlimit="10" d="M200.2 382.5l-8.8 27.8"/><defs><path id="q" d="M0 0h488v530H0z"/></defs><clipPath id="r"><use xlink:href="#q" overflow="visible"/></clipPath><path clip-path="url(#r)" fill="none" stroke="#004261" stroke-width=".814" stroke-miterlimit="10" d="M191.4 410.3c17.6 5.5 35.6 8.2 54.1 8.1 18.5-.2 36.4-3.2 53.9-9M362.6 328.3c-18.3 25.6-42.4 43.4-72.4 53.4"/><path fill="none" stroke="#004261" stroke-width=".814" stroke-miterlimit="10" d="M290.2 381.8l9.2 27.5"/><defs><path id="s" d="M0 0h488v530H0z"/></defs><clipPath id="t"><use xlink:href="#s" overflow="visible"/></clipPath><path clip-path="url(#t)" fill="none" stroke="#004261" stroke-width=".814" stroke-miterlimit="10" d="M299.4 409.3c35.9-12 64.9-33.4 86.8-64.1M389.7 242.7c.3 31.5-8.8 60-27.1 85.7"/><path fill="none" stroke="#004261" stroke-width=".814" stroke-miterlimit="10" d="M362.6 328.3l23.7 16.9"/><defs><path id="u" d="M0 0h488v530H0z"/></defs><clipPath id="v"><use xlink:href="#u" overflow="visible"/></clipPath><path clip-path="url(#v)" fill="none" stroke="#004261" stroke-width=".814" stroke-miterlimit="10" d="M386.3 345.2c22-30.7 32.8-65 32.5-102.8M361.1 157.5c18.8 25.3 28.3 53.7 28.6 85.2"/><path fill="none" stroke="#004261" stroke-width=".814" stroke-miterlimit="10" d="M389.7 242.7l29.1-.3"/><defs><path id="w" d="M0 0h488v530H0z"/></defs><clipPath id="x"><use xlink:href="#w" overflow="visible"/></clipPath><path clip-path="url(#x)" fill="none" stroke="#004261" stroke-width=".814" stroke-miterlimit="10" d="M418.8 242.4c-.3-37.8-11.7-71.9-34.3-102.2M384.5 140.2C362 109.8 332.7 89 296.6 77.6"/><path fill="none" stroke="#004261" stroke-width=".814" stroke-miterlimit="10" d="M296.6 77.6l-8.8 27.7"/><defs><path id="y" d="M0 0h488v530H0z"/></defs><clipPath id="z"><use xlink:href="#y" overflow="visible"/></clipPath><path clip-path="url(#z)" fill="none" stroke="#004261" stroke-width=".814" stroke-miterlimit="10" d="M287.8 105.3c30.1 9.5 54.5 26.9 73.3 52.2"/><path fill="none" stroke="#004261" stroke-width=".814" stroke-miterlimit="10" d="M361.1 157.5l23.4-17.3"/><path fill="none" stroke="#F15A22" stroke-width="1.154" stroke-miterlimit="10" d="M15.7 496.8h43.1"/><path fill="none" stroke="#BCBEC0" stroke-width="1.154" stroke-miterlimit="10" d="M15.7 517.1h43.1"/><path fill="none" stroke="#71AFAF" stroke-width="1.154" stroke-miterlimit="10" d="M15.7 476.5h43.1"/><text transform="matrix(.9826 -.1966 .197 .9804 209.427 91.705)" fill="#FFF" font-family="'AvenirNext-Regular'" font-size="9.77"></text><text transform="matrix(.9885 -.1646 .165 .9863 211.972 91.16)" fill="#FFF" font-family="'AvenirNext-Regular'" font-size="9.77">D</text><text transform="matrix(.9947 -.1217 .122 .9925 219.408 89.94)" fill="#FFF" font-family="'AvenirNext-Regular'" font-size="9.77">R</text><text transform="matrix(.9978 -.094 .0943 .9955 225.375 89.236)" fill="#FFF" font-family="'AvenirNext-Regular'" font-size="9.769">I</text><text transform="matrix(1.0003 -.0613 .0614 .998 228.048 88.944)" fill="#FFF" font-family="'AvenirNext-Regular'" font-size="9.769">N</text><text transform="matrix(1.002 -.017 .017 1 235.647 88.497)" fill="#FFF" font-family="'AvenirNext-Regular'" font-size="9.769">K</text><text transform="matrix(1.0017 .0336 -.0336 .9994 241.91 88.35)" fill="#FFF" font-family="'AvenirNext-Regular'" font-size="9.769">W</text><text transform="matrix(.9985 .0854 -.0856 .9963 251.41 88.703)" fill="#FFF" font-family="'AvenirNext-Regular'" font-size="9.769">A</text><text transform="matrix(.9947 .1217 -.122 .9925 257.784 89.252)" fill="#FFF" font-family="'AvenirNext-Regular'" font-size="9.77">T</text><text transform="matrix(.9895 .1583 -.1586 .9873 263.446 89.946)" fill="#FFF" font-family="'AvenirNext-Regular'" font-size="9.77">E</text><text transform="matrix(.9828 .1956 -.196 .9806 269.313 90.886)" fill="#FFF" font-family="'AvenirNext-Regular'" font-size="9.77">R</text><text transform="matrix(.977 .2222 -.2227 .975 275.204 92.083)" fill="#FFF" font-family="'AvenirNext-Regular'" font-size="9.77"></text><text transform="matrix(.9732 .2384 -.239 .971 277.754 92.664)" fill="#FFF" font-family="'AvenirNext-Regular'" font-size="9.771"></text><text transform="matrix(.9387 .3496 -.3503 .9366 295.295 97.91)" fill="#FFF" font-family="'AvenirNext-Regular'" font-size="9.772"></text><text transform="matrix(.9327 .3652 -.366 .9306 297.75 98.827)" fill="#FFF" font-family="'AvenirNext-Regular'" font-size="9.772"></text><text transform="matrix(.9264 .3807 -.3815 .9244 300.194 99.784)" fill="#FFF" font-family="'AvenirNext-Regular'" font-size="9.772"></text><text transform="matrix(.92 .396 -.397 .918 302.608 100.777)" fill="#FFF" font-family="'AvenirNext-Regular'" font-size="9.773"></text><text transform="matrix(.913 .4113 -.4122 .911 305.01 101.814)" fill="#FFF" font-family="'AvenirNext-Regular'" font-size="9.773"></text><text transform="matrix(.906 .4264 -.4274 .904 307.39 102.888)" fill="#FFF" font-family="'AvenirNext-Regular'" font-size="9.773"></text><text transform="matrix(.8952 .4487 -.4497 .8932 309.755 103.984)" fill="#FFF" font-family="'AvenirNext-Regular'" font-size="9.774">L</text><text transform="matrix(.8756 .4854 -.4865 .8737 314.087 106.115)" fill="#FFF" font-family="'AvenirNext-Regular'" font-size="9.774">O</text><text transform="matrix(.8492 .53 -.5312 .8473 321.447 110.208)" fill="#FFF" font-family="'AvenirNext-Regular'" font-size="9.775">G</text><text transform="matrix(.8308 .558 -.5593 .829 328.008 114.355)" fill="#FFF" font-family="'AvenirNext-Regular'" font-size="9.776">I</text><text transform="matrix(.8154 .5802 -.5815 .8136 330.26 115.848)" fill="#FFF" font-family="'AvenirNext-Regular'" font-size="9.777">S</text><text transform="matrix(.794 .6087 -.61 .7923 334.74 119.03)" fill="#FFF" font-family="'AvenirNext-Regular'" font-size="9.777">T</text><text transform="matrix(.7773 .6298 -.6312 .7756 339.252 122.518)" fill="#FFF" font-family="'AvenirNext-Regular'" font-size="9.778">I</text><text transform="matrix(.7594 .651 -.6526 .7577 341.36 124.2)" fill="#FFF" font-family="'AvenirNext-Regular'" font-size="9.778">E</text><text transform="matrix(.7332 .6803 -.6818 .7315 345.86 128.06)" fill="#FFF" font-family="'AvenirNext-Regular'" font-size="9.779">K</text><text transform="matrix(.714 .7003 -.702 .7123 350.372 132.282)" fill="#FFF" font-family="'AvenirNext-Regular'" font-size="9.78"></text><text transform="matrix(.61 .7917 -.7935 .6086 364.917 148.426)" fill="#FFF" font-family="'AvenirNext-Regular'" font-size="9.783"></text><text transform="matrix(.4457 .8937 -.8957 .4448 380.638 172.774)" fill="#FFF" font-family="'AvenirNext-Regular'" font-size="9.787">T</text><text transform="matrix(.4065 .912 -.914 .4056 383.073 177.582)" fill="#FFF" font-family="'AvenirNext-Regular'" font-size="9.787">O</text><text transform="matrix(.3604 .931 -.933 .3596 386.484 185.285)" fill="#FFF" font-family="'AvenirNext-Regular'" font-size="9.788">U</text><text transform="matrix(.321 .9453 -.9474 .3202 389.023 191.876)" fill="#FFF" font-family="'AvenirNext-Regular'" font-size="9.789">R</text><text transform="matrix(.2942 .9538 -.956 .2935 390.93 197.575)" fill="#FFF" font-family="'AvenirNext-Regular'" font-size="9.789">I</text><text transform="matrix(.2683 .9614 -.9635 .2677 391.74 200.144)" fill="#FFF" font-family="'AvenirNext-Regular'" font-size="9.789">S</text><text transform="matrix(.2233 .9727 -.975 .2228 393.288 205.56)" fill="#FFF" font-family="'AvenirNext-Regular'" font-size="9.79">M</text><text transform="matrix(.177 .982 -.9843 .1766 395.216 214.126)" fill="#FFF" font-family="'AvenirNext-Regular'" font-size="9.79">E</text><text transform="matrix(.15 .9866 -.9887 .1496 396.244 219.974)" fill="#FFF" font-family="'AvenirNext-Regular'" font-size="9.79"></text><text transform="matrix(.0984 .993 -.9952 .0982 397.314 228)" fill="#FFF" font-family="'AvenirNext-Regular'" font-size="9.791"></text><text transform="matrix(-.097 .993 -.9953 -.0967 397.735 256.942)" fill="#FFF" font-family="'AvenirNext-Regular'" font-size="9.791">E</text><text transform="matrix(-.1382 .9882 -.9904 -.138 397.17 262.827)" fill="#FFF" font-family="'AvenirNext-Regular'" font-size="9.791">C</text><text transform="matrix(-.1864 .9804 -.9826 -.186 396.212 269.804)" fill="#FFF" font-family="'AvenirNext-Regular'" font-size="9.79">O</text><text transform="matrix(-.2228 .9728 -.975 -.2223 394.58 278.096)" fill="#FFF" font-family="'AvenirNext-Regular'" font-size="9.79">-</text><text transform="matrix(-.255 .965 -.967 -.2545 393.88 281.295)" fill="#FFF" font-family="'AvenirNext-Regular'" font-size="9.79">H</text><text transform="matrix(-.2982 .9526 -.9547 -.2975 392.055 288.187)" fill="#FFF" font-family="'AvenirNext-Regular'" font-size="9.789">A</text><text transform="matrix(-.3383 .9392 -.9413 -.3376 389.973 294.818)" fill="#FFF" font-family="'AvenirNext-Regular'" font-size="9.789">B</text><text transform="matrix(-.3654 .929 -.9312 -.3646 387.787 300.798)" fill="#FFF" font-family="'AvenirNext-Regular'" font-size="9.788">I</text><text transform="matrix(-.3903 .919 -.921 -.3895 386.817 303.312)" fill="#FFF" font-family="'AvenirNext-Regular'" font-size="9.788">T</text><text transform="matrix(-.424 .904 -.906 -.423 384.835 308.027)" fill="#FFF" font-family="'AvenirNext-Regular'" font-size="9.787">A</text><text transform="matrix(-.457 .888 -.89 -.456 382.116 313.817)" fill="#FFF" font-family="'AvenirNext-Regular'" font-size="9.786">T</text><text transform="matrix(-.4795 .8762 -.878 -.4784 379.58 318.7)" fill="#FFF" font-family="'AvenirNext-Regular'" font-size="9.786"></text><text transform="matrix(-.6 .7992 -.801 -.5987 367.697 337.47)" fill="#FFF" font-family="'AvenirNext-Regular'" font-size="9.783"></text><text transform="matrix(-.6134 .789 -.7908 -.612 366.125 339.56)" fill="#FFF" font-family="'AvenirNext-Regular'" font-size="9.783"></text><text transform="matrix(-.6267 .7787 -.7804 -.6253 364.516 341.627)" fill="#FFF" font-family="'AvenirNext-Regular'" font-size="9.782"></text><text transform="matrix(-.6398 .768 -.7697 -.6384 362.87 343.67)" fill="#FFF" font-family="'AvenirNext-Regular'" font-size="9.782"></text><text transform="matrix(-.6526 .7572 -.759 -.6512 361.206 345.667)" fill="#FFF" font-family="'AvenirNext-Regular'" font-size="9.782"></text><text transform="matrix(-.6653 .7462 -.748 -.6638 359.503 347.64)" fill="#FFF" font-family="'AvenirNext-Regular'" font-size="9.781"></text><text transform="matrix(-.6778 .735 -.7366 -.6763 357.766 349.588)" fill="#FFF" font-family="'AvenirNext-Regular'" font-size="9.781"></text><text transform="matrix(-.696 .718 -.7195 -.6945 356 351.52)" fill="#FFF" font-family="'AvenirNext-Regular'" font-size="9.78">L</text><text transform="rotate(136.336 105.063 248.203) skewX(.13)" fill="#FFF" font-family="'AvenirNext-Regular'" font-size="9.78">A</text><text transform="matrix(-.755 .6563 -.6578 -.7532 347.414 360.02)" fill="#FFF" font-family="'AvenirNext-Regular'" font-size="9.779">N</text><text transform="matrix(-.7857 .6195 -.621 -.784 341.677 365)" fill="#FFF" font-family="'AvenirNext-Regular'" font-size="9.778">D</text><text transform="matrix(-.809 .5888 -.59 -.8073 335.74 369.642)" fill="#FFF" font-family="'AvenirNext-Regular'" font-size="9.777">B</text><text transform="matrix(-.8384 .5466 -.548 -.8366 330.618 373.377)" fill="#FFF" font-family="'AvenirNext-Regular'" font-size="9.776">O</text><text transform="matrix(-.8644 .505 -.5062 -.8624 323.54 377.97)" fill="#FFF" font-family="'AvenirNext-Regular'" font-size="9.775">U</text><text transform="matrix(-.89 .4587 -.4597 -.888 317.475 381.55)" fill="#FFF" font-family="'AvenirNext-Regular'" font-size="9.774">W</text><text transform="matrix(-.907 .4242 -.4252 -.905 308.964 385.854)" fill="#FFF" font-family="'AvenirNext-Regular'" font-size="9.773"></text><text transform="matrix(-.914 .409 -.41 -.912 306.598 386.962)" fill="#FFF" font-family="'AvenirNext-Regular'" font-size="9.773"></text><text transform="matrix(-.921 .3936 -.3945 -.919 304.205 388.032)" fill="#FFF" font-family="'AvenirNext-Regular'" font-size="9.773"></text><text transform="matrix(-.9333 .3636 -.3644 -.9313 299.536 389.98)" fill="#FFF" font-family="'AvenirNext-Regular'" font-size="9.772"></text><text transform="matrix(-.985 .184 -.1843 -.983 271.693 398.17)" fill="#FFF" font-family="'AvenirNext-Regular'" font-size="9.77">I</text><text transform="matrix(-.9906 .1513 -.1517 -.9884 269.062 398.7)" fill="#FFF" font-family="'AvenirNext-Regular'" font-size="9.77">N</text><text transform="matrix(-.9968 .1033 -.1035 -.9946 261.543 399.844)" fill="#FFF" font-family="'AvenirNext-Regular'" font-size="9.769">D</text><text transform="matrix(-1.0006 .0568 -.057 -.9984 254.053 400.613)" fill="#FFF" font-family="'AvenirNext-Regular'" font-size="9.769">U</text><text transform="matrix(-1.002 .0163 -.0163 -1 246.975 400.997)" fill="#FFF" font-family="'AvenirNext-Regular'" font-size="9.769">S</text><text transform="matrix(-1.002 -.0188 .0188 -.9998 241.502 401.087)" fill="#FFF" font-family="'AvenirNext-Regular'" font-size="9.769">T</text><text transform="matrix(-1.0006 -.056 .056 -.9984 235.792 400.98)" fill="#FFF" font-family="'AvenirNext-Regular'" font-size="9.769">R</text><text transform="matrix(-.9987 -.0836 .0838 -.9965 229.777 400.616)" fill="#FFF" font-family="'AvenirNext-Regular'" font-size="9.769">I</text><text transform="matrix(-.996 -.111 .1112 -.9938 227.077 400.414)" fill="#FFF" font-family="'AvenirNext-Regular'" font-size="9.77">E</text><text transform="matrix(-.9926 -.1378 .138 -.9904 221.185 399.73)" fill="#FFF" font-family="'AvenirNext-Regular'" font-size="9.77"></text><text transform="matrix(-.985 -.184 .1845 -.9828 213.87 398.6)" fill="#FFF" font-family="'AvenirNext-Regular'" font-size="9.77"></text><text transform="matrix(-.9342 -.3613 .362 -.932 185.91 390.89)" fill="#FFF" font-family="'AvenirNext-Regular'" font-size="9.772"></text><text transform="matrix(-.928 -.3768 .3777 -.926 183.464 389.94)" fill="#FFF" font-family="'AvenirNext-Regular'" font-size="9.772"></text><text transform="matrix(-.9215 -.3923 .3932 -.9195 181.03 388.95)" fill="#FFF" font-family="'AvenirNext-Regular'" font-size="9.773"></text><text transform="matrix(-.9148 -.4075 .4084 -.9128 178.644 387.934)" fill="#FFF" font-family="'AvenirNext-Regular'" font-size="9.773"></text><text transform="matrix(-.9078 -.4227 .4237 -.9058 176.24 386.862)" fill="#FFF" font-family="'AvenirNext-Regular'" font-size="9.773"></text><text transform="matrix(-.9006 -.4377 .4387 -.8986 173.882 385.762)" fill="#FFF" font-family="'AvenirNext-Regular'" font-size="9.773"></text><text transform="matrix(-.893 -.4528 .4538 -.891 171.517 384.61)" fill="#FFF" font-family="'AvenirNext-Regular'" font-size="9.774"></text><text transform="matrix(-.8802 -.4772 .4782 -.8782 169.197 383.457)" fill="#FFF" font-family="'AvenirNext-Regular'" font-size="9.774">R</text><text transform="matrix(-.8612 -.5104 .5115 -.8593 163.918 380.59)" fill="#FFF" font-family="'AvenirNext-Regular'" font-size="9.775">E</text><text transform="matrix(-.839 -.546 .5472 -.837 158.838 377.594)" fill="#FFF" font-family="'AvenirNext-Regular'" font-size="9.776">C</text><text transform="matrix(-.815 -.5808 .582 -.813 152.833 373.67)" fill="#FFF" font-family="'AvenirNext-Regular'" font-size="9.777">R</text><text transform="matrix(-.792 -.6116 .613 -.79 147.942 370.178)" fill="#FFF" font-family="'AvenirNext-Regular'" font-size="9.777">E</text><text transform="matrix(-.7656 -.644 .6453 -.764 143.248 366.56)" fill="#FFF" font-family="'AvenirNext-Regular'" font-size="9.778">A</text><text transform="matrix(-.741 -.6717 .6732 -.7395 138.355 362.44)" fill="#FFF" font-family="'AvenirNext-Regular'" font-size="9.779">T</text><text transform="matrix(-.7227 -.6913 .693 -.721 134.132 358.587)" fill="#FFF" font-family="'AvenirNext-Regular'" font-size="9.78">I</text><text transform="rotate(-134.684 140.548 150.784) skewX(-.13)" fill="#FFF" font-family="'AvenirNext-Regular'" font-size="9.78">E</text><text transform="matrix(-.6834 -.7298 .7315 -.682 128.018 352.503)" fill="#FFF" font-family="'AvenirNext-Regular'" font-size="9.781"></text><text transform="matrix(-.671 -.741 .7428 -.6696 126.228 350.59)" fill="#FFF" font-family="'AvenirNext-Regular'" font-size="9.781"></text><text transform="matrix(-.6 -.7992 .801 -.5986 116.93 339.492)" fill="#FFF" font-family="'AvenirNext-Regular'" font-size="9.783"></text><text transform="matrix(-.4335 -.8996 .9016 -.4326 101.516 314.958)" fill="#FFF" font-family="'AvenirNext-Regular'" font-size="9.787">R</text><text transform="matrix(-.4082 -.9113 .9133 -.4073 98.935 309.546)" fill="#FFF" font-family="'AvenirNext-Regular'" font-size="9.787">I</text><text transform="matrix(-.3753 -.9252 .9272 -.3744 97.796 307.122)" fill="#FFF" font-family="'AvenirNext-Regular'" font-size="9.788">O</text><text transform="matrix(-.3345 -.9406 .9427 -.3337 94.66 299.29)" fill="#FFF" font-family="'AvenirNext-Regular'" font-size="9.789">L</text><text transform="matrix(-.3007 -.9518 .954 -.3 92.94 294.47)" fill="#FFF" font-family="'AvenirNext-Regular'" font-size="9.789">E</text><text transform="matrix(-.264 -.9626 .9647 -.2633 91.16 288.83)" fill="#FFF" font-family="'AvenirNext-Regular'" font-size="9.789">R</text><text transform="matrix(-.2367 -.9695 .9717 -.2362 89.596 283.022)" fill="#FFF" font-family="'AvenirNext-Regular'" font-size="9.79">I</text><text transform="matrix(-.2044 -.9768 .979 -.204 88.92 280.42)" fill="#FFF" font-family="'AvenirNext-Regular'" font-size="9.79">N</text><text transform="matrix(-.156 -.9856 .9878 -.1557 87.372 273.012)" fill="#FFF" font-family="'AvenirNext-Regular'" font-size="9.79">G</text><text transform="matrix(-.1232 -.9902 .9924 -.123 86.205 265.355)" fill="#FFF" font-family="'AvenirNext-Regular'" font-size="9.791"></text><text transform="matrix(-.0858 -.994 .9963 -.0856 85.543 259.518)" fill="#FFF" font-family="'AvenirNext-Regular'" font-size="9.791"></text><text transform="matrix(.099 -.993 .995 .0987 85.512 230.558)" fill="#FFF" font-family="'AvenirNext-Regular'" font-size="9.791"></text><text transform="matrix(.1154 -.991 .9933 .1152 85.77 227.963)" fill="#FFF" font-family="'AvenirNext-Regular'" font-size="9.791"></text><text transform="matrix(.132 -.989 .9913 .1316 86.075 225.372)" fill="#FFF" font-family="'AvenirNext-Regular'" font-size="9.791"></text><text transform="matrix(.1484 -.9868 .989 .148 86.423 222.774)" fill="#FFF" font-family="'AvenirNext-Regular'" font-size="9.79"></text><text transform="matrix(.1752 -.9824 .9846 .1748 86.788 220.206)" fill="#FFF" font-family="'AvenirNext-Regular'" font-size="9.79">E</text><text transform="matrix(.2172 -.974 .9762 .2167 87.81 214.393)" fill="#FFF" font-family="'AvenirNext-Regular'" font-size="9.79">N</text><text transform="matrix(.259 -.964 .966 .2585 89.486 206.967)" fill="#FFF" font-family="'AvenirNext-Regular'" font-size="9.789">E</text><text transform="matrix(.2954 -.9535 .9556 .2947 91.022 201.264)" fill="#FFF" font-family="'AvenirNext-Regular'" font-size="9.789">R</text><text transform="matrix(.337 -.9397 .9418 .336 92.775 195.547)" fill="#FFF" font-family="'AvenirNext-Regular'" font-size="9.788">G</text><text transform="matrix(.368 -.928 .93 .3672 95.43 188.276)" fill="#FFF" font-family="'AvenirNext-Regular'" font-size="9.788">I</text><text transform="matrix(.3936 -.9176 .9197 .3927 96.408 185.752)" fill="#FFF" font-family="'AvenirNext-Regular'" font-size="9.787">E</text><text transform="matrix(.4186 -.9066 .9086 .4177 98.774 180.298)" fill="#FFF" font-family="'AvenirNext-Regular'" font-size="9.787"></text><text transform="matrix(.4522 -.8904 .8924 .4512 101.27 175.042)" fill="#FFF" font-family="'AvenirNext-Regular'" font-size="9.787"></text><text transform="matrix(.6102 -.7915 .7933 .6088 116.546 150.426)" fill="#FFF" font-family="'AvenirNext-Regular'" font-size="9.783"></text><text transform="matrix(.6235 -.7812 .783 .622 118.147 148.354)" fill="#FFF" font-family="'AvenirNext-Regular'" font-size="9.782"></text><text transform="matrix(.6366 -.7707 .7724 .6352 119.776 146.315)" fill="#FFF" font-family="'AvenirNext-Regular'" font-size="9.782"></text><text transform="matrix(.6495 -.76 .7616 .648 121.44 144.3)" fill="#FFF" font-family="'AvenirNext-Regular'" font-size="9.782"></text><text transform="matrix(.6622 -.749 .7506 .6607 123.132 142.322)" fill="#FFF" font-family="'AvenirNext-Regular'" font-size="9.781"></text><text transform="matrix(.6748 -.7378 .7394 .6733 124.862 140.367)" fill="#FFF" font-family="'AvenirNext-Regular'" font-size="9.781"></text><text transform="matrix(.687 -.7264 .728 .6856 126.63 138.438)" fill="#FFF" font-family="'AvenirNext-Regular'" font-size="9.781"></text><text transform="matrix(.6993 -.7147 .7163 .6978 128.433 136.53)" fill="#FFF" font-family="'AvenirNext-Regular'" font-size="9.78"></text><text transform="rotate(-44.667 229.036 -91.192) skewX(.13)" fill="#FFF" font-family="'AvenirNext-Regular'" font-size="9.78"></text><text transform="rotate(-43.706 231.655 -98.303) skewX(.13)" fill="#FFF" font-family="'AvenirNext-Regular'" font-size="9.78"></text><text transform="matrix(.7345 -.679 .6804 .7328 134.01 131.028)" fill="#FFF" font-family="'AvenirNext-Regular'" font-size="9.779"></text><text transform="matrix(.7457 -.6666 .668 .744 135.925 129.26)" fill="#FFF" font-family="'AvenirNext-Regular'" font-size="9.779"></text><text transform="matrix(.7707 -.6378 .6392 .769 137.722 127.562)" fill="#FFF" font-family="'AvenirNext-Regular'" font-size="9.778">W</text><text transform="matrix(.8055 -.5936 .595 .8038 145.057 121.516)" fill="#FFF" font-family="'AvenirNext-Regular'" font-size="9.777">O</text><text transform="matrix(.8345 -.5526 .554 .8326 151.848 116.53)" fill="#FFF" font-family="'AvenirNext-Regular'" font-size="9.776">N</text><text transform="matrix(.8574 -.5167 .518 .8555 158.188 112.356)" fill="#FFF" font-family="'AvenirNext-Regular'" font-size="9.775">E</text><text transform="matrix(.879 -.4795 .4806 .877 163.256 109.28)" fill="#FFF" font-family="'AvenirNext-Regular'" font-size="9.774">N</text><path fill="#1A5371" d="M362.4 85.5h3.3v.9h-3.3zM362.4 83.6h3.3V85h-3.3zM366.2 85.5h3.3v.9h-3.3zM366.2 83.6h3.3V85h-3.3zM366.2 81.7h3.3v1.4h-3.3zM369.9 85.5h3.3v.9h-3.3zM369.9 83.6h3.3V85h-3.3zM369.9 81.7h3.3v1.4h-3.3zM373.7 85.5h3.3v.9h-3.3zM373.7 83.6h3.3V85h-3.3zM373.7 81.7h3.3v1.4h-3.3zM377.4 85.5h3.3v.9h-3.3zM377.4 83.6h3.3V85h-3.3zM377.4 81.7h3.3v1.4h-3.3zM381.2 85.5h3.3v.9h-3.3zM381.2 83.6h3.3V85h-3.3zM389.2 78.4l.2.8h4v-.8M393.4 81.1v-1.6h-3.9l.6 1.6"/><g><defs><path id="A" d="M0 0h488v530H0z"/></defs><clipPath id="B"><use xlink:href="#A" overflow="visible"/></clipPath><path clip-path="url(#B)" fill="#1A5371" d="M393.4 81.7v-.3h-4.2v.9h.9c.1 0 .2.1.2.2s-.1.2-.2.2h-.9v.5h.9c.1 0 .2.1.2.2s-.1.2-.2.2h-.9v.5h.9c.1 0 .2.1.2.2s-.1.2-.2.2h-.9v.8h4.2v-3.6zm-.9 2.9h-.5v-.5h.5v.5zm0-.9h-.5v-.5h.5v.5zm0-.9h-.5v-.5h.5v.5zM395.4 86.4c0-.1-.1-.2-.2-.2h-.9l-.4-.4H388.2h-.1l-.9.9h-27.1l-.4-.4-.1-.1h-.9l-.4-.4h-.1c-2.8 0-8.8-.5-8.9-.5-.1 0-.2 0-.2.1s0 .2.1.2c1.8 1.1 3 2.1 3.8 3h42.5V86.4zm-43.5 0c-.1 0-.2-.1-.2-.2s.1-.2.2-.2.2.1.2.2-.1.2-.2.2M394.6 89.7c0 .1.1.2.2.2h.5c.1 0 .2-.1.2-.2v-.8h-.8v.8zM354.7 91.1c0 .1.1.1.2.1h34.7c2.9 0 3.8-.9 3.9-1 .1-.1.1-.2 0-.2 0 0-.1-.2-.1-.4s.2-.4.8-.7h-40.9c1.2 1.4 1.4 2.2 1.4 2.2M392.6 73.7c0-.1-.1-.2-.2-.2s-.2.1-.2.2V78h.3v-4.3z"/><path clip-path="url(#B)" fill="#004261" d="M241.4 33.1v-5c.6-2.3 2.3-3.5 5-3.5h3.5c0-.7.6-1.3 1.3-1.3v-3.5h-3.5c-.6 0-1.1-.5-1.1-1.1 0-.6.5-1.1 1.1-1.1h9.3c.6 0 1.1.5 1.1 1.1 0 .6-.5 1.1-1.1 1.1h-3.5v3.5c.7 0 1.3.6 1.3 1.3h4.9v-3.1c0-.3.3-.6.6-.6h1.3v10.6h-1.3c-.3 0-.6-.3-.6-.6v-3.1h-4.9c0 .7-.6 1.3-1.3 1.3h-2.2c-.7 0-1.3-.6-1.3-1.3h-3.5c-.9 0-1.6.7-1.6 1.6v3.8h-3.5zm-4 2.9l1.5 13.1h8l1.5-13.1h-11zm1.2 1.1h8.6l-.3 2.6H239"/><path clip-path="url(#B)" fill="#6D8AA3" d="M265.3 447.7l-.9-1.3-1.1-1.4v-.8h-.6v-3.5h-1.2v-4.4c0-.1-.1-.2-.2-.2h-3.1c-.1 0-.2.1-.2.2v2.2h-1.1c-.3 0-.6.3-.6.6v.5H255v4.8h-1v3.4h-3.5l-.6-20.9c0-.2-.2-.3-.5-.3s-.5 0-.5.3l-.4 20.9h-.5l-.6-20.9c0-.2-.2-.3-.5-.3s-.5 0-.5.3l-.4 20.9h-1.1v3.1h-1.1v-6.2l-5.2 3h-.3v-3l-5.4 3h-.3v-3l-5.4 3h-1.3v5.2h-1.6v4h41.3v-9.1h-.3zm-10.8-2.5v.7h-.3v-1.2l.3.5zm.8-4.4h.4v1.4h-.4v-1.4zm.5 0h.4v1.4h-.4v-1.4zm6.6 1.5h-.4v-.7l.4-.5v1.2zm-.6 0h-.3l.3-.4v.4zm2 3.7h-.5v-.2h.3l.2.2zm-.5 1h1.3l.1.2h-1.4v-.2zm0-.2v-.2h.9l.1.2h-1zm-8.8.8h-.2l.2-.3v.3zm.2-.6l.3-.5v1.2h-.3v-.7zm5.8-5.4v.7h-.4v-1.2l.4.5zm.5.9l-.3.4v-.4h.3zm-.5.7l-.4.5v-1.2h.4v.7zm0 .4v.4h-.3l.3-.4zm.2.4v-.7l.3-.4v1.1h-.3zm.3-1.7h-.3v-.4l.3.4zm-5 2.2l-.2.3v-.3h.2zm-.4.7l-.3.5v-1.2h.3v.7zm.5 2.1l-.3-.4v-.7h.3v1.1zm-.5-.8l-.2-.3h.2v.3zm-.3-.5l.2-.4v.4h-.2zm-.6.5v-.3h.2l-.2.3zm.6-.1l.3.5v.7h-.3v-1.2zm.5.9l.2.4h-.2v-.4zm.3.3zm0-1.6h-.3v-.7l.3-.5v1.2zm5.9-2v-.4l.3.4h-.3zm-.2 0h-.3v-1.1l.3.4v.7zm-.3-1.5h.3v.4l-.3-.4zm-.8-1v-.7h.3v1.1l-.3-.4zm-.2-.3l-.3-.4h.3v.4zm-4.3-.6h-.4v-.9h.4v.9zm0 1.9V444.2h-.4v-1.8h.4zm-1.5 3.5v-.4l.2.4h-.2zm-.4.2h.3v.7l-.3.5v-1.2zm9 1.3h1.6l.2.2h-1.7v-.2zm0-1.1v-.2h.6l.1.2h-.7zm.1-.9h-.2v-.2l.2.2zm-1.4-2.3v-.7h.4v1.2l-.4-.5zm.3-2.4l-.3.4v-.4h.3zm-.5 0v.7l-.3.4v-1.1h.3zm-3.4-4.4h2.7v4.2H260V439c0-.3-.3-.6-.6-.6h-1.1l.1-2zm-2.8 4.2h-.4v-.9h.4v.9zm-.3 1.9h.4v1.8h-.4v-1.8zm-.3 2v1.2l-.3-.5v-.7h.3zm-.5.3l-.2-.3h.2v.3z"/><path clip-path="url(#B)" fill="#5D7D98" d="M388.6 405.6c-.2-.5-.5-.9-.7-1.4-12.3 2.5-27.1 9.2-33.7 19 1.6 2.9 4 5.4 6.8 7.1 5.6-11 20.4-22.1 27.6-24.7M386.7 402.5c-3.5-4.8-9.2-7.9-15.6-7.9-8.3 0-15.4 5.2-18.1 12.5 9.9-4.9 25.4-5.9 33.7-4.6M372.7 433.1c9.9-.8 17.7-9.1 17.7-19.2 0-2.6-.5-5.2-1.5-7.4-6.7 6.8-13.5 16.8-16.2 26.6M356.8 412.7h.6v5.5h-.6z"/><path clip-path="url(#B)" fill="#5D7D98" d="M356.1 408.4c1.1 1 1.4 3.2 1.4 4.3 2.2-1.7-.2-5.1-2.1-5.5.1.9 0 1.6-.1 2.3-.3 1.6.4 3.1 1.6 3.2 0-.8.3-1.9-.8-4.3"/><path clip-path="url(#B)" fill="#5D7D98" d="M353.7 413.2c.6-.3 2.3-.2 3 0-1.2-1.9-3.4-.7-3.9.2.6.1 1.1.3 1.5.5 1 .5 2.1.3 2.5-.4-.6-.1-2.4-.3-3.1-.3M359.8 412.4c-.2.7-1.2 1.9-1.8 2.3 2.2.1 2.6-2.3 2.2-3.3-.4.4-.9.7-1.4.9-1 .5-1.6 1.5-1.2 2.2.6-.2 1.8-1.5 2.2-2.1M370.1 426.8h.6v5.5h-.6zM369.3 422.5c1.1 1 1.4 3.2 1.4 4.3 2.2-1.7-.2-5.1-2.1-5.5.1.9 0 1.6-.1 2.3-.3 1.6.4 3.1 1.6 3.2 0-.8.3-1.9-.8-4.3"/><path clip-path="url(#B)" fill="#5D7D98" d="M366.9 427.3c.6-.3 2.3-.2 3 0-1.2-1.9-3.4-.7-3.9.2.6.1 1.1.3 1.5.5 1 .5 2.1.3 2.4-.4-.5-.1-2.3-.3-3-.3M373.1 426.5c-.2.7-1.2 1.9-1.8 2.3 2.2.1 2.6-2.3 2.2-3.3-.4.4-.9.7-1.4.9-1 .5-1.6 1.5-1.2 2.2.5-.2 1.7-1.5 2.2-2.1M364.7 408.4h.4v4h-.4z"/><path clip-path="url(#B)" fill="#5D7D98" d="M364.1 405.3c.8.7 1 2.3 1 3.1 1.6-1.3-.2-3.7-1.5-4 .1.6 0 1.2-.1 1.7-.2 1.1.3 2.2 1.2 2.3.1-.6.2-1.4-.6-3.1"/><path clip-path="url(#B)" fill="#5D7D98" d="M362.4 408.8c.5-.2 1.6-.1 2.2 0-.9-1.3-2.5-.5-2.9.1.4.1.8.2 1.1.4.7.4 1.5.2 1.8-.3-.4-.1-1.7-.2-2.2-.2M366.9 408.2c-.1.5-.9 1.4-1.3 1.7 1.6.1 1.9-1.7 1.6-2.4-.3.3-.7.5-1 .7-.7.3-1.1 1.1-.8 1.6.3-.3 1.2-1.2 1.5-1.6M375.3 419.8h.4v4h-.4zM374.7 416.7c.8.7 1 2.3 1 3.1 1.6-1.3-.2-3.7-1.5-4 .1.6 0 1.2-.1 1.7-.2 1.1.3 2.2 1.2 2.3 0-.5.2-1.3-.6-3.1"/><path clip-path="url(#B)" fill="#5D7D98" d="M372.9 420.2c.5-.2 1.6-.1 2.2 0-.9-1.3-2.5-.5-2.9.1.4.1.8.2 1.1.4.7.4 1.5.2 1.8-.3-.3-.1-1.6-.2-2.2-.2M377.4 419.6c-.1.5-.9 1.4-1.3 1.7 1.6.1 1.9-1.7 1.6-2.4-.3.3-.7.5-1 .6-.7.3-1.1 1.1-.8 1.6.3-.1 1.2-1.1 1.5-1.5M372.1 405.7h.3v2.7h-.3z"/><path clip-path="url(#B)" fill="#5D7D98" d="M371.6 403.6c.6.5.8 1.6.8 2.1 1.2-.8-.1-2.5-1.2-2.7.1.4 0 .8 0 1.1-.2.8.2 1.5.9 1.6 0-.4.1-.9-.5-2.1"/><path clip-path="url(#B)" fill="#5D7D98" d="M370.3 405.9c.4-.1 1.3-.1 1.6 0-.7-.9-1.9-.3-2.2.1.3 0 .6.2.8.3.5.2 1.2.2 1.4-.2-.2-.1-1.2-.2-1.6-.2M373.7 405.5c-.1.3-.7.9-1 1.1 1.2.1 1.5-1.1 1.2-1.6-.2.2-.5.3-.8.4-.5.2-.9.7-.6 1.1.3-.1 1-.7 1.2-1M380.1 413.7h.3v2.7h-.3z"/><path clip-path="url(#B)" fill="#5D7D98" d="M379.6 411.6c.6.5.8 1.6.8 2.1 1.2-.8-.1-2.5-1.2-2.7.1.4 0 .8 0 1.1-.2.8.2 1.5.9 1.6 0-.4.1-.9-.5-2.1"/><path clip-path="url(#B)" fill="#5D7D98" d="M378.3 413.9c.4-.1 1.3-.1 1.6 0-.7-.9-1.9-.3-2.2.1.3 0 .6.2.8.3.5.2 1.2.2 1.4-.2-.2-.1-1.2-.2-1.6-.2M381.7 413.5c-.1.3-.7.9-1 1.1 1.2.1 1.5-1.1 1.2-1.6-.2.2-.5.3-.8.4-.5.2-.9.7-.6 1.1.3-.1 1-.7 1.2-1M378.1 404.3h.2v1.8h-.2zM377.8 402.9c.4.3.5 1 .5 1.4.8-.6-.1-1.7-.8-1.8v.8c-.1.5.2 1 .6 1 0-.3.1-.6-.3-1.4M376.9 404.5c.2-.1.8-.1 1.1 0-.5-.6-1.3-.2-1.5.1.2 0 .4.1.6.2.4.2.8.1.9-.1-.2-.2-.9-.2-1.1-.2"/><path clip-path="url(#B)" fill="#5D7D98" d="M379.2 404.2c-.1.2-.5.6-.7.8.8 0 1-.8.8-1.1-.2.1-.3.2-.5.3-.4.2-.6.5-.4.7.2-.1.6-.5.8-.7"/><path clip-path="url(#B)" fill="#7D97AF" d="M136.4 411.9h-10.8v-2.5h-7.3l-1.1-3-.9.3 1.1 3v2.2h-4.2v-13c1.1.2 1.6 1 1.6 1s.6-1.1 1.9-1.1c1.3 0 1.9 1.1 1.9 1.1s.6-1.1 1.9-1.1c1.3 0 2 1.1 2 1.1-.1-5.1-4.2-9.2-9.3-9.4v-.2s-.1-.4-.5-.4-.5.4-.5.4v.2c-5.1.2-9.1 4.4-9.3 9.4 0 0 .7-1 2-1.1 1.3 0 1.9 1.1 1.9 1.1s.5-1.1 1.8-1.1 1.9 1.1 1.9 1.1.5-.8 1.6-1v13h-9.3v2h2.8v4.4h2v-4.4h24v4.4h2v-4.4h2.8v-2zm-18.1-1.5h6.3v1.5h-6.3v-1.5z"/><path clip-path="url(#B)" fill="#8EA6BB" d="M37.3 317.4c0 8.1 6.6 14.8 14.8 14.8s14.8-6.6 14.8-14.8c0-8.1-6.6-14.8-14.8-14.8s-14.8 6.7-14.8 14.8m2.6 0c0-6.7 5.5-12.2 12.2-12.2s12.2 5.5 12.2 12.2c0 6.7-5.5 12.2-12.2 12.2s-12.2-5.5-12.2-12.2m23.3.2c0 6.1-5 11.1-11.1 11.1s-11.1-5-11.1-11.1c0-1.1.2-2.2.5-3.3.1-.2.2-.3.4-.3.1 0 .2.1.3.2.6.7 1.5 1 2.4 1 .8 0 1.5-.3 2.1-.8.1-.2.5-.2.6 0 .6.5 1.4.8 2.2.8.9 0 1.7-.3 2.3-.9.1-.1.3-.1.4-.1.1 0 .1.1.2.1.6.5 1.4.8 2.2.8.9 0 1.7-.3 2.3-.9.1-.1.3-.1.4-.1.1 0 .1.1.2.1.6.6 1.4.9 2.3.9.9 0 1.7-.3 2.3-.9.2-.1.4-.1.5 0 .1 0 .1.1.1.2.3 1.1.5 2.1.5 3.2"/><path clip-path="url(#B)" fill="#4E718D" d="M466.9 298.8s1-4.9-.8-7.1c-2-2.4-6.1-2.4-6.1-2.4s-2.4-3.2-5.4-3.8c-3.8-.7-7.9.1-7.9.1s-2.3-2.1-7.4-1.2c-3.8.7-4.2 4.7-4.2 4.7s-3.5-.1-4.9 1.8c-1.5 2.1.1 6.4.1 6.4s-2.1 2.9-1.4 5.5c.5 2.2 3.8 2.3 3.8 2.3s.6 3.5 3.4 3.7c2.3.1 4.8-1.2 4.8-1.2s2.9 1.3 5.8 1.3c3 0 6.1-1.4 6.1-1.4s2.2 2.1 5 2.7c2.8.6 5.1-2.5 5.1-2.5s3.5.7 4.6-2c1.2-2.9-.6-6.9-.6-6.9M455 310.2s-.8-.3-1.5-.7c-.6-.3-1.1-.8-1.1-.8s-.1.7-.2 1.1c-.2.4-.4.9-.4.9s-.1-.3-.1-.6c-.1-.4-.2-.9-.3-.9-.5.2-1.1.2-1.1.2s.4 1.1.2 2c-.3 1.3-1 3.4-1 3.4s-.7-1.6-1-2.7c-.2-.9-.2-2.1-.2-2.1s-1.2 0-2.3-.2c-.9-.1-1.8-.4-1.8-.4l.5 1.7s-.8-.3-1.4-.9c-.6-.5-.7-1.3-.7-1.3l-1.1-.3s.5 1.3 1.9 2.8c5.7 5 4.7 5.6 4.1 10.5-.2 2.2-.7 4.1-1.1 5.1-.3.7-1.7 1.3-1.7 1.3s.4.4 2.3.4c.9 0 3.3-.4 4.3-.5.6 0 1.4.2 2 .2.7 0 1.2-.2 1.2-.2s-2.2-.6-2.5-1.3c-.3-.6-.5-1.3-.5-1.3s-.6-2.5-.1-8.2c.4-4.6 3.6-7.2 3.6-7.2"/><path clip-path="url(#B)" fill="#3E6783" d="M433.2 175.2l-11.6 1.9c-.1.1-.1.2-.1.3v1.3c0 .4.3.7.7.8v4.6c0 .3.2.6.5.7 1.4 2.6 5.3 4.5 10 4.5v-9.5h.7v9.5c4.5-.1 8.3-2 9.7-4.5.3-.1.5-.4.5-.7v-4.5c.4 0 .7-.3.7-.8v-1.3c0-.1 0-.3-.1-.4l-11-1.9z"/><path clip-path="url(#B)" fill="#3E6783" d="M419.2 182.3c-2.9 0-5.1-.6-5.2-.7l.4-1.2c.2.1 4.8 1.4 9.5 0 4.4-1.3 5.9-.4 7.1 0l-.5 1.2c-.9-.3-2.2-1.2-6.3 0-1.8.6-3.5.7-5 .7M442.6 181.7l-.4-1.2c4.4-1.3 10.3-.4 11.4 0l-.5 1.2c-.8-.4-6.4-1.2-10.5 0M440.6 171.4h-.2v-2.2c0-.3-.2-.5-.5-.5h-2.2V165c0-.3-.2-.5-.5-.5h-.1c-.3 0-.5.2-.5.5v3.7h-10c-.3 0-.5.2-.5.5v2.2h-.3c-.4 0-.8.3-.8.8v3.7l8.2-1.3h.1l8.1 1.3v-3.7c-.1-.4-.4-.8-.8-.8m-8 1.3c0 .4-.3.8-.8.8h-4.3c-.4 0-.8-.3-.8-.8v-1.5c0-.4.3-.8.8-.8h4.3c.4 0 .8.3.8.8v1.5zm6.9 0c0 .4-.3.8-.8.8h-4.3c-.4 0-.8-.3-.8-.8v-1.5c0-.4.3-.8.8-.8h4.3c.4 0 .8.3.8.8v1.5z"/><path clip-path="url(#B)" fill="#A0B6C9" d="M40 167.8h8.7L46.1 182h9l-10.9 20.4 1.7-15.4-7.6.1"/><path clip-path="url(#B)" fill="#B4C7D7" d="M126.4 95.8c.1.1.2.1.3.2.2.1.4.2.6.2H128.2c.1 0 .2-.1.3-.1.1 0 .2-.1.3-.2l.2-.2c.1-.1.2-.2.2-.3l.2.2c.1.1.3.2.4.3.2.1.3.1.5.2l.5.1.5-.1c.2-.1.3-.1.5-.2.1-.1.3-.2.4-.3l.2-.3.2.3c.1.1.3.2.4.3.2.1.3.1.5.2l.5.1.5-.1c.2-.1.3-.1.5-.2.1-.1.2-.2.4-.3l.2-.3.1.1c.1.1.1.2.2.2.2.2.4.3.6.4.1 0 .2.1.4.1h.3c.2 0 .5 0 .7-.1.2-.1.4-.2.6-.4.2-.2.3-.4.4-.6 0-.1.1-.2.1-.4v-.3h-.8V94.6c-.1.1-.1.2-.2.3-.1.1-.2.2-.3.2-.1 0-.2.1-.4.1h-.4c-.1-.1-.2-.1-.3-.2-.1-.1-.2-.2-.2-.3 0-.1-.1-.2-.1-.4v-.4H135.4v.3c0 .1 0 .3-.1.4-.1.1-.1.2-.2.3-.1.1-.2.2-.3.2l-.2.1h-.5c-.1 0-.1 0-.2-.1s-.2-.1-.3-.2c-.1-.1-.2-.2-.2-.3-.1-.1-.1-.3-.1-.4v-.3H132.4v.3c0 .1 0 .3-.1.4-.1.1-.1.2-.2.4-.1.1-.2.2-.3.2-.1.1-.3.1-.4.1h-.2c-.1 0-.1 0-.2-.1s-.2-.1-.4-.2c-.1-.1-.2-.2-.2-.4-.1-.1-.1-.3-.1-.4v-.3h-.7v.2c0 .1 0 .3-.1.4-.1.1-.1.3-.2.4-.1.1-.2.2-.4.2l-.2.1h-.5l-.2-.1c-.1-.1-.3-.1-.4-.2-.1-.1-.2-.2-.3-.4-.1-.1-.1-.3-.1-.4v-.2h-.2v-1.6h-8.9v-8.1H117v8.1h-3.4V85h-3.1c.8-.6 1.3-1.5 1.3-2.6 0-.9-.4-1.8-1.1-2.4l1.1-.7 8.2 5.4.6-1-8.9-5.8-2.1 1.4c-.1 0-.2-.1-.4-.2-.2-2.6-2.1-4.8-4.5-4.8-1.9 0-3.4 1.3-4.1 3.1-1.7.1-3.1 1.5-3.1 3.3 0 .8.3 1.6.8 2.1-.5.6-.8 1.3-.8 2.1 0 1.8 1.5 3.3 3.3 3.3.4 0 .7-.1 1.1-.2.4.4.8.7 1.3.9v3.2h-5.6v1.1h28.3V99H139.3v-1.1h-12.2l-.7-2.1m-17.1-3.2h-3.4v-2.8h.4c1.4 0 2.5-.8 3-2v4.8zm-.7-7.7l-.5.2.2.5c.1.3.2.6.2 1 0 1.3-1 2.3-2.3 2.3-.3 0-.5-.1-.8-.1l-.7-.3v4.3h-1.3v-3.9l-.3-.1c-.5-.2-1-.5-1.4-1l-.2-.3-.3.2c-.3.1-.6.2-1 .2-1.3 0-2.3-1-2.3-2.3 0-.7.3-1.3.8-1.8l.5-.4-.5-.4c-.5-.4-.8-1.1-.8-1.8 0-1.3 1-2.3 2.3-2.3h.5l.1-.4c.5-1.6 1.8-2.7 3.3-2.7 1.9 0 3.5 1.8 3.5 4.2v.5h.5c.4 0 .8.2 1.1.5.6.4.9 1.1.9 1.8 0 .9-.6 1.7-1.5 2.1"/></g></svg>